M48
;Layer_Color=9474304
;FILE_FORMAT=2:5
INCH,LZ
;TYPE=PLATED
T1F00S00C0.00787
T2F00S00C0.01181
T3F00S00C0.01575
T4F00S00C0.03268
T5F00S00C0.03937
T6F00S00C0.04331
T7F00S00C0.04331
T8F00S00C0.06890
T9F00S00C0.21654
T10F00S00C0.78740
;TYPE=NON_PLATED
T11F00S00C0.04331
T12F00S00C0.05118
T13F00S00C0.07874
T14F00S00C0.21654
%
T01
X0061811Y0109135
X0066142
Y0113466
X0061811
Y0117796
X0066142
X0293099Y0106812
X0306693Y0105118
X0311805Y010506
X0293099Y0091457
X0241339Y0047638
X024124Y0039191
X031676Y0083858
X0401181Y0098639
X0439978Y0106907
X0435827Y0119685
X043928Y0123228
X0424409Y0130709
X0426753Y0134252
X042874Y0141729
X0426863Y014387
X0424803Y0146063
X042126Y014598
X0417323
X0418898Y0137008
X0432331Y0152865
X0435039Y0151575
X0439173Y0148622
X0448425Y0138614
X0456693Y013937
X0455118Y0144488
X0457736Y0147638
X046698Y0150591
X0465551Y0126435
X0462534Y0123071
X0465551Y0116273
X0469488Y0112205
X0472441Y0131986
X0469764Y0136162
X0476674Y012801
X0490748Y0136162
X0495079Y0131986
X0512598Y0133071
X0517717Y0120421
X0530512Y0113466
X0527559Y009252
Y0146653
X0530512Y0148736
X053937Y014252
X0544882Y0142126
X0546063Y0152865
X0505905Y0151575
X0499981Y0152147
X0490748Y0155512
X0483268Y0152865
X0482638Y0149171
X0480413Y0146653
X0471284Y0153543
X0612835Y0155512
X061811Y0114781
X0639764Y0106907
X062815Y0091159
X0669291Y0133839
X0799213Y0138189
X0799204Y0185647
X0592227Y0192913
X0582741Y0190261
X0572835Y0186024
X0562598Y0165354
X0512638Y0167323
X0509842Y0169685
X0494095Y0162598
X0487713Y017444
X0477165Y0178347
X0475197Y0186024
X0469758Y0162598
X0487402Y021063
X0489764Y0213386
X0459646Y019685
X0462804Y0192913
X0460534Y0189961
X0465731Y0190261
X0453937Y0185433
X0449605Y0185826
X0439978
X0437008Y0184055
X043021Y0176823
X0443456Y0174135
X0439978Y0169291
X0437795Y0160433
X0434055Y0163189
X0431496Y0162025
X0423307
X0416339Y0163189
X0415354Y0170866
X0410825Y0174605
X0415354Y0187008
X0420394Y0198879
X0439173Y0200787
X0431692Y0209867
X0396457Y0191652
X0398819Y0188976
X0442638Y0158465
X0453542Y0169291
X0462992Y0169685
X0465551Y0167323
X0463542Y0162872
X0460042Y0165748
X0330709Y021435
X0327756Y0216535
X0310555Y0165354
X0308071Y0167323
X0067126Y0202756
X0062795
Y0207087
X0067126
Y0211417
X0062795
X0247047Y0395177
X0277461Y0385925
X0278543Y0437992
X026752Y0433268
X0272638Y0450787
X0291339Y0444882
X0305217Y0443405
X0336614Y0450787
X0353346
X0297638Y0470472
T02
X0057519Y004699
X0066771
X0062008Y0054864
X0053128Y0054864
X0057519Y0061754
X0066771
X0098425Y0088466
X01105
Y0094371
X0122351Y0094397
Y0088269
X0134843
Y0094397
X0146043
X0146653Y0088269
X0127165Y0152363
X0093504Y0148308
X0214469Y0029685
X0215555Y0021654
X0437008Y0041339
X0466535Y0039961
X046752Y0015748
X044685Y0069173
Y0079269
Y0089366
X0444882Y0141732
X0462598Y0150591
X0418898Y0125146
X0405748Y0118898
Y0133465
X0378346Y0145276
X037559Y0151181
X0372047Y0155512
X0369094Y0138583
X0515945Y0122655
X050689Y0036417
X0607874Y0098639
X0818898Y0223425
Y0229331
Y0235236
X0823819Y0238189
Y0232283
Y0226378
X0869734Y0244094
X0508661Y0240551
X0506299Y0233071
X0513386Y0222441
X0519685Y0221457
X052236Y018348
X0526476Y018098
X0515354Y016063
X0473424Y0177165
X0469758Y0180565
Y0186024
X0477559Y0218504
X0467323Y0183071
X0390529Y018189
X0387795Y0179921
X0394094Y0175706
X0382874Y0158465
X0148622Y018189
X0148012Y0188018
X0136811
Y018189
X012432
Y0188018
X0112468Y0187992
Y0182087
X0100394
X0094587Y0241929
X0128248Y0245984
X0295768Y0405512
X0300866Y0407264
X0295768Y0415354
X0297638Y0443307
X0301575
X0313366Y041437
X0321915Y0395669
X0371654Y0407113
X0379429Y0406988
X0399508Y0399508
X0405669
X0498966Y0468219
X0524691Y0468062
X0559726Y0386025
X0590041Y0386593
T03
X004626Y000689
X005315
X0060039
X0066929
X0074803
X0081693
X0107283Y0006693
X0121063
X0134843
X0148622
X0141732Y0026575
X0155512
X0148622Y0034449
X0143012Y0049016
X0074705Y005315
X0063976Y0096545
X0045276Y0096792
X0036417Y0100197
X0031496Y0105571
X0036417Y0110571
X0031496Y0115571
X0036417Y0120571
X0031496Y0125571
X0035236Y0135982
Y0142675
Y0149171
X0047047
Y0142675
X005689
Y0149171
X0084646Y010506
X0171161Y0093945
X0180709Y0092913
X0186614Y008816
X019252Y0092913
X0198425Y008816
X0203346Y0093081
X0198625Y0111352
X0203546Y0116273
X0198625Y0122057
X0203546Y0126978
Y0137678
X0198625Y0132757
X019272Y0126435
Y011573
X0186814Y0111352
X018002Y0112205
X0183366Y0132757
X0190751Y0149859
X0222835Y0148425
X0237008Y0153272
X0261024Y0143307
X0241339Y0057874
X022559
Y0052756
X0216535Y0039191
X0215555Y0006693
X0201575
X0192913Y0011811
X0176181Y0006693
X0162401
X0169291Y0026575
X0176181Y0034449
X0162402
X0170276Y0047244
X0170472Y0063386
X024124Y0029577
X0245079Y0006693
X0258858
X0272638
X0286417
X0300197
X0293307Y0018701
X0307087
X0279528
X0265748
X0272638Y0026575
X0286417
X0279528Y0034449
X0265748
X0227992Y0009843
X030748Y007559
X0311417Y0076378
X0334646Y0034449
X0348425
X0362205
X0355315Y0026575
X0369094
X0362205Y0018701
X0348425
X0334646
X0320866
X0327756Y0026575
X0341535
X0341535Y0006693
X0355315
X0369094
X0377953
X0387402
X0397342
X040748
X0416929
X0427559
X0437402
X0447835
X045748
X0468012
X0327756
X0313976
X0487205
X0497047
X0507874
X0517717
X0534449
X0548228
X0557087
X0566929
X0577756
X0587598
X0597555
X0607874
X0617618
X0626968
X0644685
X0658465
X0672244
X0686024
X0692913Y0013145
X0699803Y0018701
Y0006693
X0706693Y0013145
Y0024956
X0713583Y0018701
Y0006693
X0720884Y0013145
X0727362Y0018701
X0727362Y0006693
X0734252Y0013145
X0734664Y0024956
X0741142Y0030512
Y0018701
Y0006693
X0748032Y0013145
Y0024956
Y0036767
X0754921Y0030512
Y0018701
Y0006693
X0762223Y0013145
X0768701Y0018701
Y0030512
X0761811Y0024956
Y0036767
X0776003
Y0024956
X0775591Y0013145
X0768701Y0006693
X0720472Y0024956
X071063Y0074803
X0713583Y0077756
X0816109Y0083313
X0828822
X0822917Y0077386
X0836696
X0849409
X0843504Y0083313
Y0069173
X0849409Y0063246
X0836696
X0822917
X0828822Y0069173
X0816109
Y0057834
X0817057Y0036767
Y0024956
X0816929Y0013145
X0806988Y0016043
X0810039Y0006693
X079626
X079626Y0018701
X080118Y0024606
X079626Y0030512
X080118Y0036417
X078937Y0036767
Y0024956
X078937Y0013145
X078248Y0018701
Y0030512
X078248Y0006693
X0823819
X0830709Y0013145
X0837598Y0006693
X0844488Y0013145
X0851378Y0006693
X0858268Y0013145
X0865158Y0006693
X0864543Y0047244
X0851364Y004311
X0851482Y0036417
X0864543Y0064961
X0866142Y0090924
X0872047Y009685
X0859334
X0853347Y0088269
X0873032Y0084646
X0880906Y0078719
X0892457Y0078504
X0887713Y0084646
X0892635Y0090924
X0881083Y0091139
X0886729Y009685
X0834646Y0095472
X0820866Y0108268
Y011811
Y0127953
X0814961Y0132874
X0814961Y0123031
Y0113189
Y0103347
X0809055Y0153543
X0810039Y0030512
X0812992Y0169685
X0801181Y0201772
X0841535Y0199803
X085413Y0181298
Y0174605
X0812992Y0239961
X0809055Y0237008
X0813976Y0252953
Y0260827
X0818898Y0264764
Y025689
Y0249016
X0821176Y0292738
X083372Y0292038
X083855Y0297594
X0844204Y030315
X0837314Y0309405
X0830424Y030315
X0853153Y0298293
X0847087Y0292038
X0859631Y0291339
X0866521Y0298293
X0866109Y0310104
X0860455Y0304549
X085233Y0310104
X0875058Y0303849
X0875882Y0292038
X088925
X0888838Y0303849
X0883184Y0298293
X0881948Y0310104
X0895728
X0896282Y0298819
X0779528Y0207989
X0775683Y0209842
X0712598Y0211417
X071063Y0206693
X0738189Y0240551
X067126Y0241142
X0675Y0245734
X0680118Y025
X0204724Y0233268
X0199803Y0228346
X0204724Y0222568
X0199803Y0217647
X0193898Y0222025
Y021132
X0187992Y0206941
X0181198Y0208268
X0199803Y0206941
X0204724Y0211863
X0203546Y0188185
X0198625Y0183264
X019272Y0188018
X0186814Y0183264
X0180909Y0188018
X0164272Y0186713
X0163779Y0204331
X0184544Y0228346
X0191929Y0245449
X0225984Y016063
X0084941Y0198228
X0066142Y0190354
X004626
X0036417Y0193976
X0031496Y019935
X0036417Y020435
X0031496Y020935
X0036417Y021435
X0031496Y021935
X0035433Y0229921
Y0236614
Y024311
X0047244
Y0236614
X0057087
Y024311
X0224501Y0403543
X0247047Y0383858
X0305118Y0375984
X0313976
X032185
X0389173Y038607
X0389075Y0396562
X0378642Y0399633
X038189Y0468504
X038689
X0391732
X0372047
X0560407Y0341535
X057185Y034685
X0591831Y0341535
X0636041Y0380971
X0650591Y038888
Y0392782
X0648146Y0405512
X0654051Y0416339
X0665862
X0670784Y0422244
X0686532Y0415354
X0689485Y0428738
Y0435039
X0703525Y0433071
X0703525Y042126
X0703113Y0409449
X0703113Y0397638
X0702701Y0385827
X0709591Y0391383
X0710003Y0403194
Y0415004
X0710415Y0426816
Y0438627
X0717305Y0433071
X0717305Y042126
X0716893Y0409449
X0716893Y0397638
X0716481Y0385827
X072337Y0391383
X0723782Y0403194
Y0415004
X0724194Y0426816
Y0438627
X0717717Y0444882
Y0456693
X0724606Y0451137
Y0462948
X0731496Y0456693
Y0444882
X0731496Y0433071
X0731084Y042126
X0731084Y0409449
X0730672Y0397638
X0737974Y0392082
X0737974Y0403893
X0738386Y0415704
X0738386Y0427515
X0738798Y0439326
X0738798Y0451137
X0738386Y0462948
X07461Y0457393
X0751753Y0462948
X0752577Y0451137
Y0439326
X07461Y043377
X0745687Y0445581
X0759467
Y0457393
X0765533Y0462948
X0766357Y0451137
Y0439326
X0759879Y043377
X0760291Y0421959
X0753401Y0427515
Y0415704
X0754225Y0403893
X0753937Y0393307
X0761527Y0398337
X0768005Y0403893
X0768417Y0392782
X0775591Y0398031
X078096Y0392082
X077407Y0410148
X0774482Y0421959
X0773659Y043377
Y0445581
X0773247Y0457393
X07789Y0462948
X078096Y0451837
X0780548Y0440026
X0767181Y0427515
Y0415704
X0759879Y0409449
X0744864
X0744864Y0398337
X0745276Y0421959
X0710827Y0451137
X0711239Y0462948
X0703937Y0456693
X0703937Y0444882
X0651886Y0440945
X0645587Y0435039
X0638303
X0636335Y0429327
Y0422734
X0684055Y038189
X0680118Y0367126
X0675197Y0364173
X0788674Y0386526
X0795184Y0381496
X0802041Y0386526
Y0374715
X0810167Y036916
X0815821Y0374715
X0820239Y0380971
X0815963Y0387052
X0821063Y0392082
X0815409Y0398337
X0809073Y0393307
X0808519Y0404593
X0807695Y0415704
X0801556Y0410148
X080163Y0398337
X0795976Y0392782
X079474Y0404593
X079474Y0416404
X0800806Y0421959
X0801218Y043377
X0794882Y042874
X0794328Y0440026
Y0451837
X0800806Y0457393
X0801218Y0445581
X0808519Y0440026
X0814997Y0445581
X0814997Y043377
X0814585Y0421959
X0815139Y0410674
X0821475Y0415704
Y0427515
X0828777Y0421959
X0828777Y0410148
X0835666Y0404593
Y0416404
X0836078Y0428215
X083649Y0440026
X0842968Y0445581
X084338Y043377
X0842968Y0421959
X0842556Y0410848
X0843792Y0399037
X0849446Y0404593
X0849858Y0392782
Y0380971
X0842968Y0386526
X083649Y0392782
X0827953Y0397638
Y0385827
X0834019Y0380971
X0827953Y0374016
X0828777Y0362205
Y0350394
X0829601Y0338583
Y0326772
X0830424Y0314961
X0843792
X084338Y0326772
X0837726Y0321216
X083649Y0333027
X0842968Y0338583
X0842556Y0350394
X0836902Y0344838
X0835666Y0356649
X0842144Y0362205
X0841732Y0374016
X0836078Y036846
X0850682Y036916
Y0357348
X0851506Y0345537
Y0333727
X085233Y0321916
X0859219Y031636
X0865697Y0321916
X0865285Y0333727
X0859631Y0328171
X0858395Y0339982
X0864873Y0345537
X0864461Y0357348
X0858807Y0351793
X0857572Y0363604
X0864049Y036916
X0863637Y0380971
X0857983Y0375415
X0856748Y0386526
X085689Y0399562
X0856336Y0410848
X0856748Y0421959
X0850824Y0416929
X085027Y0428215
Y0440026
X0856748Y0445581
X085716Y043377
X0864049Y0428215
X0864049Y0440026
X0863637Y0451837
X0849858
X0842556Y0458092
X0836078Y0451837
X0829189Y0445581
Y043377
X0822299Y0440026
Y0451837
X0828777Y0458092
X0815409
X0808107Y0451837
X0807695Y0427515
X078785Y0421959
Y0410148
Y0398337
X0782196Y0403893
X0781372Y0416404
X0781784Y0428215
X0787438Y043377
Y0445581
X0787026Y0457393
X079268Y0462948
X0821475Y0403893
X0808964Y0381496
X0816233Y0362904
X0816645Y0351093
X0873411
Y0362904
X0880301Y0357348
X0886778Y0362904
X088719Y0351093
X0881536Y0345537
X0881124Y0333727
X0887602Y0339282
X0888014Y0327471
X088236Y0321916
X0888426Y031566
X0875058
X0874235Y0327471
Y0339282
X0894904Y0333727
X0895458Y0322441
X0894634Y0346063
X089408Y0357348
X089381Y0369685
X0893256Y0380971
X0892986Y0393307
X0892432Y0404593
X0892162Y0416929
X0891608Y0428215
X0884719Y0421959
X0879065Y0416404
X0878653Y0404593
X0885131Y0410148
X0885542Y0398337
X0879889Y0392782
X0879477Y0380971
X0885954Y0386526
X0886366Y0374715
X0880712Y036916
X0872587Y0374715
Y0386526
X0871763Y0398337
X0865427Y0393307
X0864873Y0404593
X0871763Y0410148
X0870939Y0421959
X0864603Y0416929
X0870939Y043377
X0877829Y0428215
T04
X0863238Y0203819
Y0213819
Y0223819
Y0233819
T05
X0042323Y0264862
Y0298327
X0061811
X0020669
T06
X0304134Y0031457
X0314134
X0562835Y0031497
X0572835Y0031496
X0582834
Y0021496
X0572835
X0562835
X0485827Y0237402
X0475827
X0653386Y0343504
X0663386
T07
X0382638Y0021496
Y0031496
X0392638
X0402638
X0412638
X0422638
X0432638
X0442638
Y0021496
X0432638
X0422638
X0412638
X0402638
X0392638
X0452638
X0462638
Y0031496
X0452638
X0472638
X0482638
X0492638
X0502638
X0512638
X0522638
Y0021496
X0512638
X0502638
X0492638
X0482638
X0472638
X0592835
X0602835
X0612835
X0622834
Y0031497
X0612835
X0602835Y0031497
X0592835Y0031497
X0632835Y0031497
Y0021497
T08
X0738189Y0083285
Y0099033
Y0114781
Y0130529
Y0146277
X0753937Y0154151
Y0138403
Y0122655
Y0106907
Y0091159
X0769685Y0099033
Y0083285
Y0114781
Y0130529
Y0146277
Y0162025
Y0177773
Y0193521
X0753937Y0185647
Y0169899
X0738189Y0162025
Y0177773
Y0193521
T09
X0885827Y0019685
X0019685Y0452756
X0885827
T10
X0153543Y032126
X0452756
X0751968
T11
X0231339Y01126
X0241339
Y0122599
Y0132599
Y0142599
X0231339
Y0132599
Y0122599
X0885827Y014748
Y015748
T12
X0863189Y007874
X089311Y006874
Y012874
X0863189
X0597555Y0411522
X0581217Y0401522
X0551296Y0411522
Y0461522
X0581217
X0597555
X0627477
Y0401522
T13
X0725197Y0039191
X0796457Y0045096
Y023171
X0725197Y0237616
T14
X0019685Y0019685
M30
