G04*
G04 #@! TF.GenerationSoftware,Altium Limited,Altium Designer,18.1.11 (251)*
G04*
G04 Layer_Color=16711935*
%FSLAX25Y25*%
%MOIN*%
G70*
G01*
G75*
%ADD27R,0.04343X0.04147*%
%ADD29R,0.05918X0.06509*%
%ADD30R,0.06509X0.05918*%
%ADD35R,0.04147X0.04343*%
%ADD36C,0.06312*%
%ADD37C,0.14186*%
%ADD38O,0.14580X0.14186*%
%ADD39C,0.07099*%
%ADD40C,0.08674*%
%ADD41R,0.12611X0.12611*%
%ADD42C,0.22453*%
%ADD43C,0.06706*%
%ADD72O,0.03359X0.09658*%
%ADD73R,0.03162X0.04540*%
%ADD74R,0.03674X0.12769*%
%ADD75R,0.03674X0.02769*%
%ADD76R,0.15643X0.22060*%
%ADD77R,0.35249X0.35052*%
%ADD78R,0.04934X0.16351*%
%ADD79R,0.35052X0.35249*%
%ADD80R,0.16351X0.04934*%
%ADD81R,0.11430X0.16548*%
%ADD82R,0.04737X0.08674*%
%ADD83R,0.14580X0.09461*%
%ADD84R,0.05721X0.07690*%
D27*
X453149Y163090D02*
D03*
Y169192D02*
D03*
X451427Y104842D02*
D03*
Y98740D02*
D03*
X204626Y347185D02*
D03*
Y353288D02*
D03*
X212500Y347185D02*
D03*
Y353288D02*
D03*
X504626Y346972D02*
D03*
Y353075D02*
D03*
X512500Y346972D02*
D03*
Y353075D02*
D03*
X802169Y347059D02*
D03*
Y353162D02*
D03*
X810043Y347059D02*
D03*
Y353162D02*
D03*
D29*
X205413Y339527D02*
D03*
X211712D02*
D03*
X505413Y339314D02*
D03*
X511712D02*
D03*
X802956Y339401D02*
D03*
X809255D02*
D03*
D30*
X193563Y339133D02*
D03*
Y345432D02*
D03*
Y281678D02*
D03*
Y275378D02*
D03*
X283542Y345432D02*
D03*
Y339133D02*
D03*
Y275378D02*
D03*
Y281678D02*
D03*
X493563Y338921D02*
D03*
Y345220D02*
D03*
Y281678D02*
D03*
Y275378D02*
D03*
X791106Y339007D02*
D03*
Y345307D02*
D03*
Y281678D02*
D03*
Y275378D02*
D03*
X435610Y147086D02*
D03*
Y153385D02*
D03*
D35*
X297440Y354331D02*
D03*
X303542D02*
D03*
X285531D02*
D03*
X291634D02*
D03*
D36*
X522638Y218347D02*
D03*
Y228346D02*
D03*
X392638Y218347D02*
D03*
Y228346D02*
D03*
X412638Y218347D02*
D03*
Y228346D02*
D03*
X382638Y218347D02*
D03*
X402638D02*
D03*
X422638D02*
D03*
X432638D02*
D03*
X442638D02*
D03*
X452638D02*
D03*
X462638D02*
D03*
X472638D02*
D03*
X482638D02*
D03*
X492638D02*
D03*
X502638D02*
D03*
X512638D02*
D03*
X522638D02*
D03*
X382638Y228346D02*
D03*
X402638D02*
D03*
X422638D02*
D03*
X432638D02*
D03*
X442638D02*
D03*
X452638D02*
D03*
X462638D02*
D03*
X472638D02*
D03*
X482638D02*
D03*
X492638D02*
D03*
X502638D02*
D03*
X512638D02*
D03*
X522638D02*
D03*
D37*
X114173Y19685D02*
D03*
Y167323D02*
D03*
X74016D02*
D03*
X256201D02*
D03*
X296358D02*
D03*
Y19685D02*
D03*
X374048Y167323D02*
D03*
X414206D02*
D03*
Y19685D02*
D03*
X491896Y167323D02*
D03*
X532054D02*
D03*
Y19685D02*
D03*
X609744Y167323D02*
D03*
X649902D02*
D03*
Y19685D02*
D03*
X791634Y167323D02*
D03*
X831791D02*
D03*
Y19685D02*
D03*
D38*
X74016D02*
D03*
X256201D02*
D03*
X374048D02*
D03*
X491896D02*
D03*
X609744D02*
D03*
X791634D02*
D03*
D39*
X885827Y344331D02*
D03*
Y354331D02*
D03*
D40*
X845299Y285086D02*
D03*
Y295086D02*
D03*
Y325086D02*
D03*
Y335086D02*
D03*
Y345086D02*
D03*
X714948Y285086D02*
D03*
Y295086D02*
D03*
Y325086D02*
D03*
Y335086D02*
D03*
Y345086D02*
D03*
X547422Y285086D02*
D03*
Y295086D02*
D03*
Y325086D02*
D03*
Y335086D02*
D03*
Y345086D02*
D03*
X417677Y285086D02*
D03*
Y295086D02*
D03*
Y325086D02*
D03*
Y335086D02*
D03*
Y345086D02*
D03*
X247520Y285086D02*
D03*
Y295086D02*
D03*
Y325086D02*
D03*
Y335086D02*
D03*
Y345086D02*
D03*
X117461Y285086D02*
D03*
Y295086D02*
D03*
Y325086D02*
D03*
Y335086D02*
D03*
Y345086D02*
D03*
D41*
X740787Y55276D02*
D03*
X730787D02*
D03*
X720787D02*
D03*
X710787D02*
D03*
X700787D02*
D03*
X740787Y65276D02*
D03*
X730787D02*
D03*
X720787D02*
D03*
X710787D02*
D03*
X700787D02*
D03*
X740787Y75276D02*
D03*
X730787D02*
D03*
X720787D02*
D03*
X710787D02*
D03*
X700787D02*
D03*
X740787Y85276D02*
D03*
X730787D02*
D03*
X720787D02*
D03*
X710787D02*
D03*
X700787D02*
D03*
Y45276D02*
D03*
X710787D02*
D03*
X720787D02*
D03*
X730787D02*
D03*
X740787D02*
D03*
D03*
X730787D02*
D03*
X720787D02*
D03*
X710787D02*
D03*
X700787D02*
D03*
X165354D02*
D03*
X175354D02*
D03*
X185354D02*
D03*
X195354D02*
D03*
X205354D02*
D03*
D03*
X195354D02*
D03*
X185354D02*
D03*
X175354D02*
D03*
X165354D02*
D03*
Y85276D02*
D03*
X175354D02*
D03*
X185354D02*
D03*
X195354D02*
D03*
X205354D02*
D03*
X165354Y75276D02*
D03*
X175354D02*
D03*
X185354D02*
D03*
X195354D02*
D03*
X205354D02*
D03*
X165354Y65276D02*
D03*
X175354D02*
D03*
X185354D02*
D03*
X195354D02*
D03*
X205354D02*
D03*
X165354Y55276D02*
D03*
X175354D02*
D03*
X185354D02*
D03*
X195354D02*
D03*
X205354D02*
D03*
X771969Y509134D02*
D03*
X761969D02*
D03*
X751968D02*
D03*
X741968D02*
D03*
X731968D02*
D03*
X771969Y519134D02*
D03*
X761969D02*
D03*
X751968D02*
D03*
X741968D02*
D03*
X731968D02*
D03*
X771969Y529134D02*
D03*
X761969D02*
D03*
X751968D02*
D03*
X741968D02*
D03*
X731968D02*
D03*
X771969Y539134D02*
D03*
X761969D02*
D03*
X751968D02*
D03*
X741968D02*
D03*
X731968D02*
D03*
Y499134D02*
D03*
X741968D02*
D03*
X751968D02*
D03*
X761969D02*
D03*
X771969D02*
D03*
D03*
X761969D02*
D03*
X751968D02*
D03*
X741968D02*
D03*
X731968D02*
D03*
X432756D02*
D03*
X442756D02*
D03*
X452756D02*
D03*
X462756D02*
D03*
X472756D02*
D03*
D03*
X462756D02*
D03*
X452756D02*
D03*
X442756D02*
D03*
X432756D02*
D03*
Y539134D02*
D03*
X442756D02*
D03*
X452756D02*
D03*
X462756D02*
D03*
X472756D02*
D03*
X432756Y529134D02*
D03*
X442756D02*
D03*
X452756D02*
D03*
X462756D02*
D03*
X472756D02*
D03*
X432756Y519134D02*
D03*
X442756D02*
D03*
X452756D02*
D03*
X462756D02*
D03*
X472756D02*
D03*
X432756Y509134D02*
D03*
X442756D02*
D03*
X452756D02*
D03*
X462756D02*
D03*
X472756D02*
D03*
X173543D02*
D03*
X163543D02*
D03*
X153543D02*
D03*
X143543D02*
D03*
X133543D02*
D03*
X173543Y519134D02*
D03*
X163543D02*
D03*
X153543D02*
D03*
X143543D02*
D03*
X133543D02*
D03*
X173543Y529134D02*
D03*
X163543D02*
D03*
X153543D02*
D03*
X143543D02*
D03*
X133543D02*
D03*
X173543Y539134D02*
D03*
X163543D02*
D03*
X153543D02*
D03*
X143543D02*
D03*
X133543D02*
D03*
Y499134D02*
D03*
X143543D02*
D03*
X153543D02*
D03*
X163543D02*
D03*
X173543D02*
D03*
D03*
X163543D02*
D03*
X153543D02*
D03*
X143543D02*
D03*
X133543D02*
D03*
D42*
X885827Y649606D02*
D03*
Y216535D02*
D03*
Y19685D02*
D03*
X19685Y649606D02*
D03*
Y216535D02*
D03*
Y19685D02*
D03*
D43*
X70177Y222244D02*
D03*
X51279Y236417D02*
D03*
X70177D02*
D03*
X89075D02*
D03*
D72*
X293543Y291791D02*
D03*
X303542D02*
D03*
X223563D02*
D03*
X213563D02*
D03*
X203563D02*
D03*
X193563D02*
D03*
X223563Y327814D02*
D03*
X213563D02*
D03*
X203563D02*
D03*
X193563D02*
D03*
X283542D02*
D03*
X293543D02*
D03*
X303542D02*
D03*
X313543D02*
D03*
X283542Y291791D02*
D03*
X313543D02*
D03*
X523563D02*
D03*
X513563D02*
D03*
X503563D02*
D03*
X493563D02*
D03*
X523563Y327814D02*
D03*
X513563D02*
D03*
X503563D02*
D03*
X493563D02*
D03*
X821106Y291791D02*
D03*
X811106D02*
D03*
X801106D02*
D03*
X791106D02*
D03*
X821106Y327814D02*
D03*
X811106D02*
D03*
X801106D02*
D03*
X791106D02*
D03*
D73*
X443996Y144822D02*
D03*
X451476D02*
D03*
Y155649D02*
D03*
X447736D02*
D03*
X443996D02*
D03*
D74*
X459646Y95531D02*
D03*
D75*
Y105532D02*
D03*
D76*
X475984Y98032D02*
D03*
D77*
X685315Y636654D02*
D03*
X729737D02*
D03*
X774160Y605945D02*
D03*
X818582D02*
D03*
X685315Y401615D02*
D03*
X729737D02*
D03*
X774160Y432324D02*
D03*
X818582D02*
D03*
X386102Y636654D02*
D03*
X430524D02*
D03*
X474947Y605945D02*
D03*
X519369D02*
D03*
Y432324D02*
D03*
X474947D02*
D03*
X430524Y401615D02*
D03*
X386102D02*
D03*
X220117Y432324D02*
D03*
X175695D02*
D03*
X131273Y401615D02*
D03*
X86850D02*
D03*
X220117Y605945D02*
D03*
X175695D02*
D03*
X131273Y636654D02*
D03*
X86850D02*
D03*
D78*
X675315Y596300D02*
D03*
X695315D02*
D03*
X719737D02*
D03*
X739737D02*
D03*
X784160Y646300D02*
D03*
X764160D02*
D03*
X828582D02*
D03*
X808582D02*
D03*
X695315Y441969D02*
D03*
X675315D02*
D03*
X739737D02*
D03*
X719737D02*
D03*
X784160Y391969D02*
D03*
X764160D02*
D03*
X808582D02*
D03*
X828582D02*
D03*
X376102Y596300D02*
D03*
X396102D02*
D03*
X420524D02*
D03*
X440524D02*
D03*
X484947Y646300D02*
D03*
X464947D02*
D03*
X529369D02*
D03*
X509369D02*
D03*
Y391969D02*
D03*
X529369D02*
D03*
X464947D02*
D03*
X484947D02*
D03*
X440524Y441969D02*
D03*
X420524D02*
D03*
X396102D02*
D03*
X376102D02*
D03*
X210118Y391969D02*
D03*
X230118D02*
D03*
X165695D02*
D03*
X185695D02*
D03*
X141273Y441969D02*
D03*
X121273D02*
D03*
X96850D02*
D03*
X76850D02*
D03*
X230118Y646300D02*
D03*
X210118D02*
D03*
X185695D02*
D03*
X165695D02*
D03*
X121273Y596300D02*
D03*
X141273D02*
D03*
X76850D02*
D03*
X96850D02*
D03*
D79*
X817126Y563780D02*
D03*
X656102D02*
D03*
Y519134D02*
D03*
Y474488D02*
D03*
X817126Y519134D02*
D03*
Y474488D02*
D03*
X356890Y563780D02*
D03*
Y519134D02*
D03*
Y474488D02*
D03*
X517913Y563780D02*
D03*
Y519134D02*
D03*
Y474488D02*
D03*
X218701Y563780D02*
D03*
Y519134D02*
D03*
Y474488D02*
D03*
X57677D02*
D03*
Y519134D02*
D03*
Y563780D02*
D03*
D80*
X857480Y553780D02*
D03*
Y573780D02*
D03*
X696457Y553780D02*
D03*
Y573780D02*
D03*
Y509134D02*
D03*
Y529134D02*
D03*
Y464488D02*
D03*
Y484488D02*
D03*
X857480Y509134D02*
D03*
Y529134D02*
D03*
Y464488D02*
D03*
Y484488D02*
D03*
X397244Y553780D02*
D03*
Y573780D02*
D03*
Y509134D02*
D03*
Y529134D02*
D03*
Y464488D02*
D03*
Y484488D02*
D03*
X558268Y553780D02*
D03*
Y573780D02*
D03*
Y509134D02*
D03*
Y529134D02*
D03*
Y464488D02*
D03*
Y484488D02*
D03*
X259055Y553780D02*
D03*
Y573780D02*
D03*
Y509134D02*
D03*
Y529134D02*
D03*
Y464488D02*
D03*
Y484488D02*
D03*
X98032Y464488D02*
D03*
Y484488D02*
D03*
Y509134D02*
D03*
Y529134D02*
D03*
Y553780D02*
D03*
Y573780D02*
D03*
D81*
X893117Y426476D02*
D03*
X860440D02*
D03*
X562871D02*
D03*
X595548D02*
D03*
X295571D02*
D03*
X262894D02*
D03*
D82*
X881306Y439075D02*
D03*
X872251D02*
D03*
X574682D02*
D03*
X583738D02*
D03*
X283760D02*
D03*
X274705D02*
D03*
D83*
X891542Y438681D02*
D03*
X862015D02*
D03*
X564446D02*
D03*
X593974D02*
D03*
X293996D02*
D03*
X264469D02*
D03*
D84*
X554370Y121329D02*
D03*
X543543D02*
D03*
X518544D02*
D03*
X507717D02*
D03*
X518544Y112049D02*
D03*
X507717D02*
D03*
X554370D02*
D03*
X543543D02*
D03*
X518544Y102769D02*
D03*
X507717D02*
D03*
X554370D02*
D03*
X543543D02*
D03*
X518544Y93489D02*
D03*
X507717D02*
D03*
X554370D02*
D03*
X543543D02*
D03*
X554370Y84209D02*
D03*
X543543D02*
D03*
X518544D02*
D03*
X507717D02*
D03*
X554370Y74929D02*
D03*
X543543D02*
D03*
X518544D02*
D03*
X507717D02*
D03*
X518544Y65649D02*
D03*
X507717D02*
D03*
X554370D02*
D03*
X543543D02*
D03*
X590197Y121329D02*
D03*
X579370D02*
D03*
X572284D02*
D03*
X561457D02*
D03*
X536457D02*
D03*
X525630D02*
D03*
X500630D02*
D03*
X489804D02*
D03*
X590197Y112049D02*
D03*
X579370D02*
D03*
X572284D02*
D03*
X561457D02*
D03*
X536457D02*
D03*
X525630D02*
D03*
X500630D02*
D03*
X489804D02*
D03*
X590197Y102769D02*
D03*
X579370D02*
D03*
X572284D02*
D03*
X561457D02*
D03*
X536457D02*
D03*
X525630D02*
D03*
X500630D02*
D03*
X489804D02*
D03*
X590197Y93489D02*
D03*
X579370D02*
D03*
X572284D02*
D03*
X561457D02*
D03*
X536457D02*
D03*
X525630D02*
D03*
X500630D02*
D03*
X489804D02*
D03*
X590197Y84209D02*
D03*
X579370D02*
D03*
X572284D02*
D03*
X561457D02*
D03*
X536457D02*
D03*
X525630D02*
D03*
X500630D02*
D03*
X489804D02*
D03*
X590197Y74929D02*
D03*
X579370D02*
D03*
X572284D02*
D03*
X561457D02*
D03*
X536457D02*
D03*
X525630D02*
D03*
X500630D02*
D03*
X489804D02*
D03*
X590197Y65649D02*
D03*
X579370D02*
D03*
X572284D02*
D03*
X561457D02*
D03*
X536457D02*
D03*
X525630D02*
D03*
X500630D02*
D03*
X489804D02*
D03*
X590197Y130610D02*
D03*
X579370D02*
D03*
X572284D02*
D03*
X561457D02*
D03*
X554370D02*
D03*
X543543D02*
D03*
X536457D02*
D03*
X525630D02*
D03*
X518544D02*
D03*
X507717D02*
D03*
X500630D02*
D03*
X489804D02*
D03*
M02*
