M48
;Layer_Color=9474304
;FILE_FORMAT=2:5
INCH,LZ
;TYPE=PLATED
;TYPE=NON_PLATED
T9F00S00C0.06102
%
T09
X0165354Y0045276
X0175354
X0185354
X0195354
X0205354
X0700787
X0710787
X0720787
X0730787
X0740787
Y0055276
X0730787
X0720787
X0710787
X0700787
Y0065276
X0710787
X0720787
X0730787
X0740787
Y0075276
X0730787
X0720787
X0710787
X0700787
Y0085276
X0710787
X0720787
X0730787
X0740787
X0205354
X0195354
X0185354
X0175354
X0165354
Y0075276
X0175354
X0185354
X0195354
X0205354
Y0065276
X0195354
X0185354
X0175354
X0165354
Y0055276
X0175354
X0185354
X0195354
X0205354
X0731968Y0499134
Y0509134
X0741968
X0751968
X0761969
X0771969
Y0519134
X0761969
X0751968
X0741968
X0731968
X0741968Y0499134
X0751968
X0761969
X0771969
X0472756
X0462756
X0452756
X0442756
X0432756
Y0509134
Y0519134
X0442756
X0452756
X0462756
X0472756
Y0509134
X0462756
X0452756
X0442756
X0173543
X0163543
X0153543
X0143543
X0133543
Y0519134
X0143543
X0153543
X0163543
X0173543
Y0499134
X0163543
X0153543
X0143543
X0133543
Y0529134
X0143543
X0153543
X0163543
X0173543
Y0539134
X0163543
X0153543
X0143543
X0133543
X0432756
X0442756
X0452756
X0462756
X0472756
Y0529134
X0462756
X0452756
X0442756
X0432756
X0731968
X0741968
X0751968
X0761969
X0771969
Y0539134
X0761969
X0751968
X0741968
X0731968
M30
