G04*
G04 #@! TF.GenerationSoftware,Altium Limited,Altium Designer,18.1.11 (251)*
G04*
G04 Layer_Color=8421504*
%FSLAX25Y25*%
%MOIN*%
G70*
G01*
G75*
%ADD16O,0.02362X0.07284*%
%ADD17R,0.03543X0.03347*%
%ADD18R,0.18110X0.10236*%
%ADD19R,0.05118X0.05709*%
%ADD20R,0.05709X0.05118*%
%ADD21R,0.05118X0.07087*%
%ADD22R,0.04528X0.14173*%
%ADD23R,0.06299X0.06693*%
%ADD24R,0.07087X0.05118*%
%ADD25R,0.03347X0.03543*%
D16*
X784669Y291283D02*
D03*
X789669D02*
D03*
X794669D02*
D03*
X799669D02*
D03*
X784669Y328488D02*
D03*
X789669D02*
D03*
X794669D02*
D03*
X799669D02*
D03*
X642641Y291283D02*
D03*
X647641D02*
D03*
X652641D02*
D03*
X657641D02*
D03*
X642641Y328488D02*
D03*
X647641D02*
D03*
X652641D02*
D03*
X657641D02*
D03*
X487186Y291283D02*
D03*
X492186D02*
D03*
X497186D02*
D03*
X502186D02*
D03*
X487186Y328488D02*
D03*
X492186D02*
D03*
X497186D02*
D03*
X502186D02*
D03*
X345453Y291283D02*
D03*
X350453D02*
D03*
X355453D02*
D03*
X360453D02*
D03*
X345453Y328488D02*
D03*
X350453D02*
D03*
X355453D02*
D03*
X360453D02*
D03*
X187284Y291283D02*
D03*
X192283D02*
D03*
X197283D02*
D03*
X202284D02*
D03*
X187284Y328488D02*
D03*
X192283D02*
D03*
X197283D02*
D03*
X202284D02*
D03*
X45493Y291283D02*
D03*
X50493D02*
D03*
X55493D02*
D03*
X60493D02*
D03*
X45493Y328488D02*
D03*
X50493D02*
D03*
X55493D02*
D03*
X60493D02*
D03*
D17*
X502638Y247146D02*
D03*
Y241043D02*
D03*
X472638Y247146D02*
D03*
Y241043D02*
D03*
X402638Y247146D02*
D03*
Y241043D02*
D03*
X795259Y282256D02*
D03*
Y276154D02*
D03*
X789078Y282256D02*
D03*
Y276154D02*
D03*
X679435Y340273D02*
D03*
Y346376D02*
D03*
X653232Y282523D02*
D03*
Y276421D02*
D03*
X647051Y282523D02*
D03*
Y276421D02*
D03*
X497776Y282256D02*
D03*
Y276154D02*
D03*
X491595Y282256D02*
D03*
Y276154D02*
D03*
X382304Y339683D02*
D03*
Y345785D02*
D03*
X356044Y281933D02*
D03*
Y275831D02*
D03*
X349863Y281933D02*
D03*
Y275831D02*
D03*
X197874Y282256D02*
D03*
Y276154D02*
D03*
X191693Y282256D02*
D03*
Y276154D02*
D03*
X56083Y281835D02*
D03*
Y275732D02*
D03*
X49902Y281835D02*
D03*
Y275732D02*
D03*
X82185Y339584D02*
D03*
Y345687D02*
D03*
X828543Y409830D02*
D03*
Y415933D02*
D03*
X784154Y409830D02*
D03*
Y415933D02*
D03*
X719737Y438918D02*
D03*
Y445020D02*
D03*
X675315Y438918D02*
D03*
Y445020D02*
D03*
X695315Y599351D02*
D03*
Y593248D02*
D03*
X739737Y599351D02*
D03*
Y593248D02*
D03*
X808563Y628359D02*
D03*
Y622256D02*
D03*
X764173Y628359D02*
D03*
Y622256D02*
D03*
X529331Y409830D02*
D03*
Y415933D02*
D03*
X484941Y409830D02*
D03*
Y415933D02*
D03*
X420524Y438918D02*
D03*
Y445020D02*
D03*
X376102Y438918D02*
D03*
Y445020D02*
D03*
X509350Y628359D02*
D03*
Y622256D02*
D03*
X464961Y628359D02*
D03*
Y622256D02*
D03*
X440524Y599351D02*
D03*
Y593248D02*
D03*
X396102Y599351D02*
D03*
Y593248D02*
D03*
X230118Y415933D02*
D03*
Y409830D02*
D03*
X185728Y415933D02*
D03*
Y409830D02*
D03*
X121273Y445020D02*
D03*
Y438918D02*
D03*
X76850Y445020D02*
D03*
Y438918D02*
D03*
X96850Y593248D02*
D03*
Y599351D02*
D03*
X141273Y593248D02*
D03*
Y599351D02*
D03*
X210138Y622256D02*
D03*
Y628359D02*
D03*
X165650Y622256D02*
D03*
Y628359D02*
D03*
D18*
X133287Y379095D02*
D03*
X99232D02*
D03*
X433504D02*
D03*
X399449D02*
D03*
X730775D02*
D03*
X696720D02*
D03*
D19*
X767917Y282622D02*
D03*
X774216D02*
D03*
X767917Y291283D02*
D03*
X774216D02*
D03*
X625889Y282622D02*
D03*
X632189D02*
D03*
X625889Y291283D02*
D03*
X632189D02*
D03*
X470434Y282622D02*
D03*
X476733D02*
D03*
X470434Y291283D02*
D03*
X476733D02*
D03*
X328701Y282622D02*
D03*
X335001D02*
D03*
X328701Y291283D02*
D03*
X335001D02*
D03*
X170531Y282622D02*
D03*
X176831D02*
D03*
X170531Y291283D02*
D03*
X176831D02*
D03*
X28741Y282622D02*
D03*
X35040D02*
D03*
X28741Y291283D02*
D03*
X35040D02*
D03*
D20*
X830102Y291386D02*
D03*
Y285086D02*
D03*
Y327575D02*
D03*
Y333874D02*
D03*
Y341972D02*
D03*
Y348271D02*
D03*
X699748Y341972D02*
D03*
Y348271D02*
D03*
Y327575D02*
D03*
Y333874D02*
D03*
Y291386D02*
D03*
Y285086D02*
D03*
X532206Y291386D02*
D03*
Y285086D02*
D03*
Y327575D02*
D03*
Y333874D02*
D03*
Y341972D02*
D03*
Y348271D02*
D03*
X402519Y327575D02*
D03*
Y333874D02*
D03*
Y341972D02*
D03*
Y348271D02*
D03*
Y291386D02*
D03*
Y285086D02*
D03*
X232363Y327575D02*
D03*
Y333874D02*
D03*
Y341972D02*
D03*
Y348271D02*
D03*
Y291386D02*
D03*
Y285086D02*
D03*
X102303Y291386D02*
D03*
Y285086D02*
D03*
Y327575D02*
D03*
Y333874D02*
D03*
Y341972D02*
D03*
Y348271D02*
D03*
D21*
X810137Y329007D02*
D03*
X821161D02*
D03*
X512598Y328909D02*
D03*
X523622D02*
D03*
X212697Y328909D02*
D03*
X223720D02*
D03*
D22*
X813271Y344998D02*
D03*
X795751D02*
D03*
X788586D02*
D03*
X771066D02*
D03*
X671244D02*
D03*
X653724D02*
D03*
X646559D02*
D03*
X629039D02*
D03*
X515788D02*
D03*
X498268D02*
D03*
X491103D02*
D03*
X473583D02*
D03*
X374056D02*
D03*
X356536D02*
D03*
X349371D02*
D03*
X331851D02*
D03*
X215886D02*
D03*
X198366D02*
D03*
X191201D02*
D03*
X173681D02*
D03*
X49410D02*
D03*
X31890D02*
D03*
X74095D02*
D03*
X56575D02*
D03*
D23*
X669396Y329319D02*
D03*
X678057D02*
D03*
X372265Y328728D02*
D03*
X380926D02*
D03*
X72146Y328488D02*
D03*
X80807D02*
D03*
D24*
X689513Y345592D02*
D03*
Y334568D02*
D03*
X392284Y345057D02*
D03*
Y334034D02*
D03*
X92067Y344801D02*
D03*
Y333777D02*
D03*
D25*
X693405Y484488D02*
D03*
X699508D02*
D03*
X693405Y529134D02*
D03*
X699508D02*
D03*
X693405Y573780D02*
D03*
X699508D02*
D03*
X394193Y484488D02*
D03*
X400295D02*
D03*
X394193Y529134D02*
D03*
X400295D02*
D03*
X394193Y573780D02*
D03*
X400295D02*
D03*
X101083Y484488D02*
D03*
X94980D02*
D03*
X101083Y529134D02*
D03*
X94980D02*
D03*
X101083Y573780D02*
D03*
X94980D02*
D03*
X601279Y405512D02*
D03*
X607382D02*
D03*
X241154Y484449D02*
D03*
X235051D02*
D03*
X241154Y529134D02*
D03*
X235051D02*
D03*
X241154Y573819D02*
D03*
X235051D02*
D03*
X534303D02*
D03*
X540406D02*
D03*
X534303Y529134D02*
D03*
X540406D02*
D03*
X534303Y484449D02*
D03*
X540406D02*
D03*
X833516Y573819D02*
D03*
X839618D02*
D03*
X833516Y529134D02*
D03*
X839618D02*
D03*
X833516Y484449D02*
D03*
X839618D02*
D03*
X308169Y405512D02*
D03*
X302067D02*
D03*
M02*
