G04*
G04 #@! TF.GenerationSoftware,Altium Limited,Altium Designer,18.1.11 (251)*
G04*
G04 Layer_Color=8388736*
%FSLAX25Y25*%
%MOIN*%
G70*
G01*
G75*
%ADD26O,0.03162X0.08083*%
%ADD27R,0.04343X0.04147*%
%ADD28R,0.18910X0.11036*%
%ADD29R,0.05918X0.06509*%
%ADD30R,0.06509X0.05918*%
%ADD31R,0.05918X0.07887*%
%ADD32R,0.05328X0.14973*%
%ADD33R,0.07099X0.07493*%
%ADD34R,0.07887X0.05918*%
%ADD35R,0.04147X0.04343*%
%ADD36C,0.06312*%
%ADD37C,0.14186*%
%ADD38O,0.14580X0.14186*%
%ADD39C,0.07099*%
%ADD40C,0.08674*%
%ADD41R,0.12611X0.12611*%
%ADD42C,0.22453*%
%ADD43C,0.06706*%
D26*
X784669Y291283D02*
D03*
X789669D02*
D03*
X794669D02*
D03*
X799669D02*
D03*
X784669Y328488D02*
D03*
X789669D02*
D03*
X794669D02*
D03*
X799669D02*
D03*
X642641Y291283D02*
D03*
X647641D02*
D03*
X652641D02*
D03*
X657641D02*
D03*
X642641Y328488D02*
D03*
X647641D02*
D03*
X652641D02*
D03*
X657641D02*
D03*
X487186Y291283D02*
D03*
X492186D02*
D03*
X497186D02*
D03*
X502186D02*
D03*
X487186Y328488D02*
D03*
X492186D02*
D03*
X497186D02*
D03*
X502186D02*
D03*
X345453Y291283D02*
D03*
X350453D02*
D03*
X355453D02*
D03*
X360453D02*
D03*
X345453Y328488D02*
D03*
X350453D02*
D03*
X355453D02*
D03*
X360453D02*
D03*
X187284Y291283D02*
D03*
X192283D02*
D03*
X197283D02*
D03*
X202284D02*
D03*
X187284Y328488D02*
D03*
X192283D02*
D03*
X197283D02*
D03*
X202284D02*
D03*
X45493Y291283D02*
D03*
X50493D02*
D03*
X55493D02*
D03*
X60493D02*
D03*
X45493Y328488D02*
D03*
X50493D02*
D03*
X55493D02*
D03*
X60493D02*
D03*
D27*
X502638Y247146D02*
D03*
Y241043D02*
D03*
X472638Y247146D02*
D03*
Y241043D02*
D03*
X402638Y247146D02*
D03*
Y241043D02*
D03*
X795259Y282256D02*
D03*
Y276154D02*
D03*
X789078Y282256D02*
D03*
Y276154D02*
D03*
X679435Y340273D02*
D03*
Y346376D02*
D03*
X653232Y282523D02*
D03*
Y276421D02*
D03*
X647051Y282523D02*
D03*
Y276421D02*
D03*
X497776Y282256D02*
D03*
Y276154D02*
D03*
X491595Y282256D02*
D03*
Y276154D02*
D03*
X382304Y339683D02*
D03*
Y345785D02*
D03*
X356044Y281933D02*
D03*
Y275831D02*
D03*
X349863Y281933D02*
D03*
Y275831D02*
D03*
X197874Y282256D02*
D03*
Y276154D02*
D03*
X191693Y282256D02*
D03*
Y276154D02*
D03*
X56083Y281835D02*
D03*
Y275732D02*
D03*
X49902Y281835D02*
D03*
Y275732D02*
D03*
X82185Y339584D02*
D03*
Y345687D02*
D03*
X828543Y409830D02*
D03*
Y415933D02*
D03*
X784154Y409830D02*
D03*
Y415933D02*
D03*
X719737Y438918D02*
D03*
Y445020D02*
D03*
X675315Y438918D02*
D03*
Y445020D02*
D03*
X695315Y599351D02*
D03*
Y593248D02*
D03*
X739737Y599351D02*
D03*
Y593248D02*
D03*
X808563Y628359D02*
D03*
Y622256D02*
D03*
X764173Y628359D02*
D03*
Y622256D02*
D03*
X529331Y409830D02*
D03*
Y415933D02*
D03*
X484941Y409830D02*
D03*
Y415933D02*
D03*
X420524Y438918D02*
D03*
Y445020D02*
D03*
X376102Y438918D02*
D03*
Y445020D02*
D03*
X509350Y628359D02*
D03*
Y622256D02*
D03*
X464961Y628359D02*
D03*
Y622256D02*
D03*
X440524Y599351D02*
D03*
Y593248D02*
D03*
X396102Y599351D02*
D03*
Y593248D02*
D03*
X230118Y415933D02*
D03*
Y409830D02*
D03*
X185728Y415933D02*
D03*
Y409830D02*
D03*
X121273Y445020D02*
D03*
Y438918D02*
D03*
X76850Y445020D02*
D03*
Y438918D02*
D03*
X96850Y593248D02*
D03*
Y599351D02*
D03*
X141273Y593248D02*
D03*
Y599351D02*
D03*
X210138Y622256D02*
D03*
Y628359D02*
D03*
X165650Y622256D02*
D03*
Y628359D02*
D03*
D28*
X133287Y379095D02*
D03*
X99232D02*
D03*
X433504D02*
D03*
X399449D02*
D03*
X730775D02*
D03*
X696720D02*
D03*
D29*
X767917Y282622D02*
D03*
X774216D02*
D03*
X767917Y291283D02*
D03*
X774216D02*
D03*
X625889Y282622D02*
D03*
X632189D02*
D03*
X625889Y291283D02*
D03*
X632189D02*
D03*
X470434Y282622D02*
D03*
X476733D02*
D03*
X470434Y291283D02*
D03*
X476733D02*
D03*
X328701Y282622D02*
D03*
X335001D02*
D03*
X328701Y291283D02*
D03*
X335001D02*
D03*
X170531Y282622D02*
D03*
X176831D02*
D03*
X170531Y291283D02*
D03*
X176831D02*
D03*
X28741Y282622D02*
D03*
X35040D02*
D03*
X28741Y291283D02*
D03*
X35040D02*
D03*
D30*
X830102Y291386D02*
D03*
Y285086D02*
D03*
Y327575D02*
D03*
Y333874D02*
D03*
Y341972D02*
D03*
Y348271D02*
D03*
X699748Y341972D02*
D03*
Y348271D02*
D03*
Y327575D02*
D03*
Y333874D02*
D03*
Y291386D02*
D03*
Y285086D02*
D03*
X532206Y291386D02*
D03*
Y285086D02*
D03*
Y327575D02*
D03*
Y333874D02*
D03*
Y341972D02*
D03*
Y348271D02*
D03*
X402519Y327575D02*
D03*
Y333874D02*
D03*
Y341972D02*
D03*
Y348271D02*
D03*
Y291386D02*
D03*
Y285086D02*
D03*
X232363Y327575D02*
D03*
Y333874D02*
D03*
Y341972D02*
D03*
Y348271D02*
D03*
Y291386D02*
D03*
Y285086D02*
D03*
X102303Y291386D02*
D03*
Y285086D02*
D03*
Y327575D02*
D03*
Y333874D02*
D03*
Y341972D02*
D03*
Y348271D02*
D03*
D31*
X810137Y329007D02*
D03*
X821161D02*
D03*
X512598Y328909D02*
D03*
X523622D02*
D03*
X212697Y328909D02*
D03*
X223720D02*
D03*
D32*
X813271Y344998D02*
D03*
X795751D02*
D03*
X788586D02*
D03*
X771066D02*
D03*
X671244D02*
D03*
X653724D02*
D03*
X646559D02*
D03*
X629039D02*
D03*
X515788D02*
D03*
X498268D02*
D03*
X491103D02*
D03*
X473583D02*
D03*
X374056D02*
D03*
X356536D02*
D03*
X349371D02*
D03*
X331851D02*
D03*
X215886D02*
D03*
X198366D02*
D03*
X191201D02*
D03*
X173681D02*
D03*
X49410D02*
D03*
X31890D02*
D03*
X74095D02*
D03*
X56575D02*
D03*
D33*
X669396Y329319D02*
D03*
X678057D02*
D03*
X372265Y328728D02*
D03*
X380926D02*
D03*
X72146Y328488D02*
D03*
X80807D02*
D03*
D34*
X689513Y345592D02*
D03*
Y334568D02*
D03*
X392284Y345057D02*
D03*
Y334034D02*
D03*
X92067Y344801D02*
D03*
Y333777D02*
D03*
D35*
X693405Y484488D02*
D03*
X699508D02*
D03*
X693405Y529134D02*
D03*
X699508D02*
D03*
X693405Y573780D02*
D03*
X699508D02*
D03*
X394193Y484488D02*
D03*
X400295D02*
D03*
X394193Y529134D02*
D03*
X400295D02*
D03*
X394193Y573780D02*
D03*
X400295D02*
D03*
X101083Y484488D02*
D03*
X94980D02*
D03*
X101083Y529134D02*
D03*
X94980D02*
D03*
X101083Y573780D02*
D03*
X94980D02*
D03*
X601279Y405512D02*
D03*
X607382D02*
D03*
X241154Y484449D02*
D03*
X235051D02*
D03*
X241154Y529134D02*
D03*
X235051D02*
D03*
X241154Y573819D02*
D03*
X235051D02*
D03*
X534303D02*
D03*
X540406D02*
D03*
X534303Y529134D02*
D03*
X540406D02*
D03*
X534303Y484449D02*
D03*
X540406D02*
D03*
X833516Y573819D02*
D03*
X839618D02*
D03*
X833516Y529134D02*
D03*
X839618D02*
D03*
X833516Y484449D02*
D03*
X839618D02*
D03*
X308169Y405512D02*
D03*
X302067D02*
D03*
D36*
X522638Y218347D02*
D03*
Y228346D02*
D03*
X392638Y218347D02*
D03*
Y228346D02*
D03*
X412638Y218347D02*
D03*
Y228346D02*
D03*
X382638Y218347D02*
D03*
X402638D02*
D03*
X422638D02*
D03*
X432638D02*
D03*
X442638D02*
D03*
X452638D02*
D03*
X462638D02*
D03*
X472638D02*
D03*
X482638D02*
D03*
X492638D02*
D03*
X502638D02*
D03*
X512638D02*
D03*
X522638D02*
D03*
X382638Y228346D02*
D03*
X402638D02*
D03*
X422638D02*
D03*
X432638D02*
D03*
X442638D02*
D03*
X452638D02*
D03*
X462638D02*
D03*
X472638D02*
D03*
X482638D02*
D03*
X492638D02*
D03*
X502638D02*
D03*
X512638D02*
D03*
X522638D02*
D03*
D37*
X114173Y19685D02*
D03*
Y167323D02*
D03*
X74016D02*
D03*
X256201D02*
D03*
X296358D02*
D03*
Y19685D02*
D03*
X374048Y167323D02*
D03*
X414206D02*
D03*
Y19685D02*
D03*
X491896Y167323D02*
D03*
X532054D02*
D03*
Y19685D02*
D03*
X609744Y167323D02*
D03*
X649902D02*
D03*
Y19685D02*
D03*
X791634Y167323D02*
D03*
X831791D02*
D03*
Y19685D02*
D03*
D38*
X74016D02*
D03*
X256201D02*
D03*
X374048D02*
D03*
X491896D02*
D03*
X609744D02*
D03*
X791634D02*
D03*
D39*
X885827Y344331D02*
D03*
Y354331D02*
D03*
D40*
X845299Y285086D02*
D03*
Y295086D02*
D03*
Y325086D02*
D03*
Y335086D02*
D03*
Y345086D02*
D03*
X714948Y285086D02*
D03*
Y295086D02*
D03*
Y325086D02*
D03*
Y335086D02*
D03*
Y345086D02*
D03*
X547422Y285086D02*
D03*
Y295086D02*
D03*
Y325086D02*
D03*
Y335086D02*
D03*
Y345086D02*
D03*
X417677Y285086D02*
D03*
Y295086D02*
D03*
Y325086D02*
D03*
Y335086D02*
D03*
Y345086D02*
D03*
X247520Y285086D02*
D03*
Y295086D02*
D03*
Y325086D02*
D03*
Y335086D02*
D03*
Y345086D02*
D03*
X117461Y285086D02*
D03*
Y295086D02*
D03*
Y325086D02*
D03*
Y335086D02*
D03*
Y345086D02*
D03*
D41*
X740787Y55276D02*
D03*
X730787D02*
D03*
X720787D02*
D03*
X710787D02*
D03*
X700787D02*
D03*
X740787Y65276D02*
D03*
X730787D02*
D03*
X720787D02*
D03*
X710787D02*
D03*
X700787D02*
D03*
X740787Y75276D02*
D03*
X730787D02*
D03*
X720787D02*
D03*
X710787D02*
D03*
X700787D02*
D03*
X740787Y85276D02*
D03*
X730787D02*
D03*
X720787D02*
D03*
X710787D02*
D03*
X700787D02*
D03*
Y45276D02*
D03*
X710787D02*
D03*
X720787D02*
D03*
X730787D02*
D03*
X740787D02*
D03*
D03*
X730787D02*
D03*
X720787D02*
D03*
X710787D02*
D03*
X700787D02*
D03*
X165354D02*
D03*
X175354D02*
D03*
X185354D02*
D03*
X195354D02*
D03*
X205354D02*
D03*
D03*
X195354D02*
D03*
X185354D02*
D03*
X175354D02*
D03*
X165354D02*
D03*
Y85276D02*
D03*
X175354D02*
D03*
X185354D02*
D03*
X195354D02*
D03*
X205354D02*
D03*
X165354Y75276D02*
D03*
X175354D02*
D03*
X185354D02*
D03*
X195354D02*
D03*
X205354D02*
D03*
X165354Y65276D02*
D03*
X175354D02*
D03*
X185354D02*
D03*
X195354D02*
D03*
X205354D02*
D03*
X165354Y55276D02*
D03*
X175354D02*
D03*
X185354D02*
D03*
X195354D02*
D03*
X205354D02*
D03*
X771969Y509134D02*
D03*
X761969D02*
D03*
X751968D02*
D03*
X741968D02*
D03*
X731968D02*
D03*
X771969Y519134D02*
D03*
X761969D02*
D03*
X751968D02*
D03*
X741968D02*
D03*
X731968D02*
D03*
X771969Y529134D02*
D03*
X761969D02*
D03*
X751968D02*
D03*
X741968D02*
D03*
X731968D02*
D03*
X771969Y539134D02*
D03*
X761969D02*
D03*
X751968D02*
D03*
X741968D02*
D03*
X731968D02*
D03*
Y499134D02*
D03*
X741968D02*
D03*
X751968D02*
D03*
X761969D02*
D03*
X771969D02*
D03*
D03*
X761969D02*
D03*
X751968D02*
D03*
X741968D02*
D03*
X731968D02*
D03*
X432756D02*
D03*
X442756D02*
D03*
X452756D02*
D03*
X462756D02*
D03*
X472756D02*
D03*
D03*
X462756D02*
D03*
X452756D02*
D03*
X442756D02*
D03*
X432756D02*
D03*
Y539134D02*
D03*
X442756D02*
D03*
X452756D02*
D03*
X462756D02*
D03*
X472756D02*
D03*
X432756Y529134D02*
D03*
X442756D02*
D03*
X452756D02*
D03*
X462756D02*
D03*
X472756D02*
D03*
X432756Y519134D02*
D03*
X442756D02*
D03*
X452756D02*
D03*
X462756D02*
D03*
X472756D02*
D03*
X432756Y509134D02*
D03*
X442756D02*
D03*
X452756D02*
D03*
X462756D02*
D03*
X472756D02*
D03*
X173543D02*
D03*
X163543D02*
D03*
X153543D02*
D03*
X143543D02*
D03*
X133543D02*
D03*
X173543Y519134D02*
D03*
X163543D02*
D03*
X153543D02*
D03*
X143543D02*
D03*
X133543D02*
D03*
X173543Y529134D02*
D03*
X163543D02*
D03*
X153543D02*
D03*
X143543D02*
D03*
X133543D02*
D03*
X173543Y539134D02*
D03*
X163543D02*
D03*
X153543D02*
D03*
X143543D02*
D03*
X133543D02*
D03*
Y499134D02*
D03*
X143543D02*
D03*
X153543D02*
D03*
X163543D02*
D03*
X173543D02*
D03*
D03*
X163543D02*
D03*
X153543D02*
D03*
X143543D02*
D03*
X133543D02*
D03*
D42*
X885827Y649606D02*
D03*
Y216535D02*
D03*
Y19685D02*
D03*
X19685Y649606D02*
D03*
Y216535D02*
D03*
Y19685D02*
D03*
D43*
X70177Y222244D02*
D03*
X51279Y236417D02*
D03*
X70177D02*
D03*
X89075D02*
D03*
M02*
