G04*
G04 #@! TF.GenerationSoftware,Altium Limited,Altium Designer,18.1.11 (251)*
G04*
G04 Layer_Color=128*
%FSLAX25Y25*%
%MOIN*%
G70*
G01*
G75*
%ADD17R,0.03543X0.03347*%
%ADD19R,0.05118X0.05709*%
%ADD20R,0.05709X0.05118*%
%ADD25R,0.03347X0.03543*%
%ADD57O,0.02559X0.08858*%
%ADD58R,0.02362X0.03740*%
%ADD59R,0.02874X0.11969*%
%ADD60R,0.02874X0.01968*%
%ADD61R,0.14843X0.21260*%
%ADD62R,0.34449X0.34252*%
%ADD63R,0.04134X0.15551*%
%ADD64R,0.34252X0.34449*%
%ADD65R,0.15551X0.04134*%
%ADD66R,0.10630X0.15748*%
%ADD67R,0.03937X0.07874*%
%ADD68R,0.13780X0.08661*%
%ADD69R,0.04921X0.06890*%
D17*
X453149Y163090D02*
D03*
Y169192D02*
D03*
X451427Y104842D02*
D03*
Y98740D02*
D03*
X204626Y347185D02*
D03*
Y353288D02*
D03*
X212500Y347185D02*
D03*
Y353288D02*
D03*
X504626Y346972D02*
D03*
Y353075D02*
D03*
X512500Y346972D02*
D03*
Y353075D02*
D03*
X802169Y347059D02*
D03*
Y353162D02*
D03*
X810043Y347059D02*
D03*
Y353162D02*
D03*
D19*
X205413Y339527D02*
D03*
X211712D02*
D03*
X505413Y339314D02*
D03*
X511712D02*
D03*
X802956Y339401D02*
D03*
X809255D02*
D03*
D20*
X193563Y339133D02*
D03*
Y345432D02*
D03*
Y281678D02*
D03*
Y275378D02*
D03*
X283542Y345432D02*
D03*
Y339133D02*
D03*
Y275378D02*
D03*
Y281678D02*
D03*
X493563Y338921D02*
D03*
Y345220D02*
D03*
Y281678D02*
D03*
Y275378D02*
D03*
X791106Y339007D02*
D03*
Y345307D02*
D03*
Y281678D02*
D03*
Y275378D02*
D03*
X435610Y147086D02*
D03*
Y153385D02*
D03*
D25*
X297440Y354331D02*
D03*
X303542D02*
D03*
X285531D02*
D03*
X291634D02*
D03*
D57*
X293543Y291791D02*
D03*
X303542D02*
D03*
X223563D02*
D03*
X213563D02*
D03*
X203563D02*
D03*
X193563D02*
D03*
X223563Y327814D02*
D03*
X213563D02*
D03*
X203563D02*
D03*
X193563D02*
D03*
X283542D02*
D03*
X293543D02*
D03*
X303542D02*
D03*
X313543D02*
D03*
X283542Y291791D02*
D03*
X313543D02*
D03*
X523563D02*
D03*
X513563D02*
D03*
X503563D02*
D03*
X493563D02*
D03*
X523563Y327814D02*
D03*
X513563D02*
D03*
X503563D02*
D03*
X493563D02*
D03*
X821106Y291791D02*
D03*
X811106D02*
D03*
X801106D02*
D03*
X791106D02*
D03*
X821106Y327814D02*
D03*
X811106D02*
D03*
X801106D02*
D03*
X791106D02*
D03*
D58*
X443996Y144822D02*
D03*
X451476D02*
D03*
Y155649D02*
D03*
X447736D02*
D03*
X443996D02*
D03*
D59*
X459646Y95531D02*
D03*
D60*
Y105532D02*
D03*
D61*
X475984Y98032D02*
D03*
D62*
X685315Y636654D02*
D03*
X729737D02*
D03*
X774160Y605945D02*
D03*
X818582D02*
D03*
X685315Y401615D02*
D03*
X729737D02*
D03*
X774160Y432324D02*
D03*
X818582D02*
D03*
X386102Y636654D02*
D03*
X430524D02*
D03*
X474947Y605945D02*
D03*
X519369D02*
D03*
Y432324D02*
D03*
X474947D02*
D03*
X430524Y401615D02*
D03*
X386102D02*
D03*
X220117Y432324D02*
D03*
X175695D02*
D03*
X131273Y401615D02*
D03*
X86850D02*
D03*
X220117Y605945D02*
D03*
X175695D02*
D03*
X131273Y636654D02*
D03*
X86850D02*
D03*
D63*
X675315Y596300D02*
D03*
X695315D02*
D03*
X719737D02*
D03*
X739737D02*
D03*
X784160Y646300D02*
D03*
X764160D02*
D03*
X828582D02*
D03*
X808582D02*
D03*
X695315Y441969D02*
D03*
X675315D02*
D03*
X739737D02*
D03*
X719737D02*
D03*
X784160Y391969D02*
D03*
X764160D02*
D03*
X808582D02*
D03*
X828582D02*
D03*
X376102Y596300D02*
D03*
X396102D02*
D03*
X420524D02*
D03*
X440524D02*
D03*
X484947Y646300D02*
D03*
X464947D02*
D03*
X529369D02*
D03*
X509369D02*
D03*
Y391969D02*
D03*
X529369D02*
D03*
X464947D02*
D03*
X484947D02*
D03*
X440524Y441969D02*
D03*
X420524D02*
D03*
X396102D02*
D03*
X376102D02*
D03*
X210118Y391969D02*
D03*
X230118D02*
D03*
X165695D02*
D03*
X185695D02*
D03*
X141273Y441969D02*
D03*
X121273D02*
D03*
X96850D02*
D03*
X76850D02*
D03*
X230118Y646300D02*
D03*
X210118D02*
D03*
X185695D02*
D03*
X165695D02*
D03*
X121273Y596300D02*
D03*
X141273D02*
D03*
X76850D02*
D03*
X96850D02*
D03*
D64*
X817126Y563780D02*
D03*
X656102D02*
D03*
Y519134D02*
D03*
Y474488D02*
D03*
X817126Y519134D02*
D03*
Y474488D02*
D03*
X356890Y563780D02*
D03*
Y519134D02*
D03*
Y474488D02*
D03*
X517913Y563780D02*
D03*
Y519134D02*
D03*
Y474488D02*
D03*
X218701Y563780D02*
D03*
Y519134D02*
D03*
Y474488D02*
D03*
X57677D02*
D03*
Y519134D02*
D03*
Y563780D02*
D03*
D65*
X857480Y553780D02*
D03*
Y573780D02*
D03*
X696457Y553780D02*
D03*
Y573780D02*
D03*
Y509134D02*
D03*
Y529134D02*
D03*
Y464488D02*
D03*
Y484488D02*
D03*
X857480Y509134D02*
D03*
Y529134D02*
D03*
Y464488D02*
D03*
Y484488D02*
D03*
X397244Y553780D02*
D03*
Y573780D02*
D03*
Y509134D02*
D03*
Y529134D02*
D03*
Y464488D02*
D03*
Y484488D02*
D03*
X558268Y553780D02*
D03*
Y573780D02*
D03*
Y509134D02*
D03*
Y529134D02*
D03*
Y464488D02*
D03*
Y484488D02*
D03*
X259055Y553780D02*
D03*
Y573780D02*
D03*
Y509134D02*
D03*
Y529134D02*
D03*
Y464488D02*
D03*
Y484488D02*
D03*
X98032Y464488D02*
D03*
Y484488D02*
D03*
Y509134D02*
D03*
Y529134D02*
D03*
Y553780D02*
D03*
Y573780D02*
D03*
D66*
X893117Y426476D02*
D03*
X860440D02*
D03*
X562871D02*
D03*
X595548D02*
D03*
X295571D02*
D03*
X262894D02*
D03*
D67*
X881306Y439075D02*
D03*
X872251D02*
D03*
X574682D02*
D03*
X583738D02*
D03*
X283760D02*
D03*
X274705D02*
D03*
D68*
X891542Y438681D02*
D03*
X862015D02*
D03*
X564446D02*
D03*
X593974D02*
D03*
X293996D02*
D03*
X264469D02*
D03*
D69*
X554370Y121329D02*
D03*
X543543D02*
D03*
X518544D02*
D03*
X507717D02*
D03*
X518544Y112049D02*
D03*
X507717D02*
D03*
X554370D02*
D03*
X543543D02*
D03*
X518544Y102769D02*
D03*
X507717D02*
D03*
X554370D02*
D03*
X543543D02*
D03*
X518544Y93489D02*
D03*
X507717D02*
D03*
X554370D02*
D03*
X543543D02*
D03*
X554370Y84209D02*
D03*
X543543D02*
D03*
X518544D02*
D03*
X507717D02*
D03*
X554370Y74929D02*
D03*
X543543D02*
D03*
X518544D02*
D03*
X507717D02*
D03*
X518544Y65649D02*
D03*
X507717D02*
D03*
X554370D02*
D03*
X543543D02*
D03*
X590197Y121329D02*
D03*
X579370D02*
D03*
X572284D02*
D03*
X561457D02*
D03*
X536457D02*
D03*
X525630D02*
D03*
X500630D02*
D03*
X489804D02*
D03*
X590197Y112049D02*
D03*
X579370D02*
D03*
X572284D02*
D03*
X561457D02*
D03*
X536457D02*
D03*
X525630D02*
D03*
X500630D02*
D03*
X489804D02*
D03*
X590197Y102769D02*
D03*
X579370D02*
D03*
X572284D02*
D03*
X561457D02*
D03*
X536457D02*
D03*
X525630D02*
D03*
X500630D02*
D03*
X489804D02*
D03*
X590197Y93489D02*
D03*
X579370D02*
D03*
X572284D02*
D03*
X561457D02*
D03*
X536457D02*
D03*
X525630D02*
D03*
X500630D02*
D03*
X489804D02*
D03*
X590197Y84209D02*
D03*
X579370D02*
D03*
X572284D02*
D03*
X561457D02*
D03*
X536457D02*
D03*
X525630D02*
D03*
X500630D02*
D03*
X489804D02*
D03*
X590197Y74929D02*
D03*
X579370D02*
D03*
X572284D02*
D03*
X561457D02*
D03*
X536457D02*
D03*
X525630D02*
D03*
X500630D02*
D03*
X489804D02*
D03*
X590197Y65649D02*
D03*
X579370D02*
D03*
X572284D02*
D03*
X561457D02*
D03*
X536457D02*
D03*
X525630D02*
D03*
X500630D02*
D03*
X489804D02*
D03*
X590197Y130610D02*
D03*
X579370D02*
D03*
X572284D02*
D03*
X561457D02*
D03*
X554370D02*
D03*
X543543D02*
D03*
X536457D02*
D03*
X525630D02*
D03*
X518544D02*
D03*
X507717D02*
D03*
X500630D02*
D03*
X489804D02*
D03*
M02*
