G04*
G04 #@! TF.GenerationSoftware,Altium Limited,Altium Designer,18.1.11 (251)*
G04*
G04 Layer_Physical_Order=3*
G04 Layer_Color=16440176*
%FSLAX25Y25*%
%MOIN*%
G70*
G01*
G75*
%ADD45C,0.05512*%
%ADD46C,0.13386*%
%ADD47O,0.13780X0.13386*%
%ADD49C,0.07874*%
%ADD50R,0.11811X0.11811*%
%ADD53C,0.02756*%
%ADD54C,0.03937*%
%ADD55C,0.01000*%
%ADD56C,0.09843*%
G36*
X609842Y667323D02*
Y390649D01*
X609842D01*
X609842Y324803D01*
X630537D01*
X630618Y324697D01*
X631728Y323846D01*
X633021Y323310D01*
X634409Y323127D01*
X635796Y323310D01*
X637089Y323846D01*
X638199Y324697D01*
X638280Y324803D01*
X684982Y324803D01*
X685764Y323784D01*
X686874Y322932D01*
X688167Y322397D01*
X689555Y322214D01*
X690942Y322397D01*
X692235Y322932D01*
X693345Y323784D01*
X694128Y324803D01*
X707064D01*
X707188Y323543D01*
X707639Y322059D01*
X708370Y320691D01*
X709354Y319492D01*
X710553Y318508D01*
X711920Y317776D01*
X713405Y317326D01*
X714948Y317174D01*
X716492Y317326D01*
X717976Y317776D01*
X719344Y318508D01*
X720543Y319492D01*
X721527Y320691D01*
X722258Y322059D01*
X722708Y323543D01*
X722832Y324803D01*
X734941D01*
X734941Y392914D01*
X840931Y392914D01*
X841312Y391657D01*
X842043Y390289D01*
X843027Y389090D01*
X844226Y388106D01*
X844747Y387828D01*
X844647Y386811D01*
X844747Y385794D01*
X844226Y385516D01*
X843027Y384532D01*
X842043Y383333D01*
X841312Y381965D01*
X840862Y380481D01*
X840710Y378937D01*
X840862Y377393D01*
X841312Y375909D01*
X842043Y374541D01*
X843027Y373342D01*
X844226Y372358D01*
X845594Y371627D01*
X847079Y371177D01*
X848622Y371025D01*
X850166Y371177D01*
X851650Y371627D01*
X852756Y372218D01*
X853862Y371627D01*
X855346Y371177D01*
X856890Y371025D01*
X858433Y371177D01*
X859918Y371627D01*
X860827Y372113D01*
X861736Y371627D01*
X863220Y371177D01*
X864764Y371025D01*
X866307Y371177D01*
X867792Y371627D01*
X869160Y372358D01*
X870358Y373342D01*
X871342Y374541D01*
X872074Y375909D01*
X872218Y376386D01*
D01*
X872524Y377393D01*
X872676Y378937D01*
X872524Y380481D01*
X872074Y381965D01*
X871342Y383333D01*
X870358Y384532D01*
X869160Y385516D01*
X868639Y385794D01*
X868739Y386811D01*
X868639Y387828D01*
X869160Y388106D01*
X870358Y389090D01*
X871342Y390289D01*
X872074Y391657D01*
X872524Y393141D01*
X872676Y394685D01*
X872524Y396229D01*
X872074Y397713D01*
X871342Y399081D01*
X870358Y400280D01*
X869160Y401264D01*
X868639Y401542D01*
X868739Y402559D01*
X868639Y403576D01*
X869160Y403854D01*
X870358Y404838D01*
X871342Y406037D01*
X872074Y407405D01*
X872524Y408889D01*
X872676Y410433D01*
X872524Y411977D01*
X872074Y413461D01*
X871342Y414829D01*
X870358Y416028D01*
X869160Y417012D01*
X867792Y417743D01*
X866307Y418193D01*
X864764Y418345D01*
X863220Y418193D01*
X862606Y418007D01*
X862205Y418305D01*
Y582337D01*
X862705Y582755D01*
X863878Y582639D01*
X865421Y582791D01*
X866906Y583241D01*
X867815Y583727D01*
X868724Y583241D01*
X870208Y582791D01*
X871752Y582639D01*
X873295Y582791D01*
X874780Y583241D01*
X876148Y583973D01*
X877347Y584957D01*
X878331Y586155D01*
X879062Y587523D01*
X879512Y589008D01*
X879664Y590551D01*
X879512Y592095D01*
X879062Y593579D01*
X878331Y594947D01*
X877347Y596146D01*
X876148Y597130D01*
X875627Y597408D01*
X875727Y598425D01*
X875627Y599442D01*
X876148Y599720D01*
X877347Y600704D01*
X878331Y601903D01*
X879062Y603271D01*
X879512Y604756D01*
X879664Y606299D01*
X879512Y607843D01*
X879062Y609327D01*
X878331Y610695D01*
X877347Y611894D01*
X876148Y612878D01*
X875627Y613156D01*
X875727Y614173D01*
X875627Y615190D01*
X876148Y615469D01*
X877347Y616453D01*
X878331Y617652D01*
X879062Y619019D01*
X879512Y620504D01*
X879664Y622047D01*
X879512Y623591D01*
X879062Y625075D01*
X878331Y626443D01*
X877347Y627642D01*
X876148Y628626D01*
X875627Y628904D01*
X875727Y629921D01*
X875575Y631465D01*
X875125Y632949D01*
X874394Y634317D01*
X873410Y635516D01*
X872211Y636500D01*
X871690Y636778D01*
X871790Y637795D01*
X871638Y639339D01*
X871188Y640823D01*
X870457Y642191D01*
X869473Y643390D01*
X868274Y644374D01*
X867379Y644852D01*
X867459Y645669D01*
X867379Y646486D01*
X868274Y646965D01*
X869473Y647949D01*
X870457Y649148D01*
X870540Y649303D01*
X871050Y649196D01*
X871200Y647290D01*
X871742Y645030D01*
X872631Y642883D01*
X873846Y640902D01*
X875355Y639135D01*
X877122Y637625D01*
X879103Y636411D01*
X881250Y635522D01*
X883510Y634979D01*
X885827Y634797D01*
X888144Y634979D01*
X890403Y635522D01*
X892550Y636411D01*
X894532Y637625D01*
X896299Y639135D01*
X897808Y640902D01*
X899022Y642883D01*
X899911Y645030D01*
X900454Y647290D01*
X900636Y649606D01*
X900454Y651923D01*
X899911Y654183D01*
X899022Y656330D01*
X897808Y658311D01*
X896299Y660078D01*
X894532Y661587D01*
X892550Y662802D01*
X890403Y663691D01*
X888144Y664233D01*
X885827Y664416D01*
X883510Y664233D01*
X881250Y663691D01*
X879103Y662802D01*
X877122Y661587D01*
X876126Y660737D01*
X875683Y660968D01*
X875727Y661417D01*
X875575Y662961D01*
X875125Y664445D01*
X874394Y665813D01*
X873565Y666823D01*
X873801Y667323D01*
X883760Y667323D01*
X883760Y667323D01*
Y667323D01*
X885057Y667323D01*
X887628Y666984D01*
X890133Y666313D01*
X892529Y665321D01*
X894775Y664024D01*
X896832Y662445D01*
X898666Y660611D01*
X900245Y658554D01*
X901541Y656308D01*
X902534Y653912D01*
X903205Y651407D01*
X903543Y648836D01*
Y647539D01*
X903543Y375984D01*
X903543D01*
X903543Y21654D01*
X903543Y21653D01*
X903543Y20363D01*
X903206Y17805D01*
X902538Y15312D01*
X901551Y12928D01*
X900261Y10693D01*
X898690Y8646D01*
X896865Y6822D01*
X894818Y5251D01*
X892583Y3961D01*
X890199Y2973D01*
X887707Y2305D01*
X885148Y1969D01*
X883858Y1969D01*
X21654D01*
X21653Y1969D01*
X20363Y1969D01*
X17805Y2305D01*
X15312Y2973D01*
X12928Y3961D01*
X10693Y5251D01*
X8646Y6822D01*
X6821Y8647D01*
X5251Y10694D01*
X3960Y12928D01*
X2973Y15312D01*
X2305Y17805D01*
X1968Y20363D01*
X1969Y21654D01*
X1969Y324803D01*
X33388D01*
X33469Y324697D01*
X34580Y323846D01*
X35873Y323310D01*
X37260Y323127D01*
X38647Y323310D01*
X39940Y323846D01*
X41051Y324697D01*
X41132Y324803D01*
X87494Y324803D01*
X88276Y323784D01*
X89387Y322932D01*
X90680Y322397D01*
X92067Y322214D01*
X93454Y322397D01*
X94747Y322932D01*
X95858Y323784D01*
X96640Y324803D01*
X109576D01*
X109700Y323543D01*
X110151Y322059D01*
X110882Y320691D01*
X111866Y319492D01*
X113065Y318508D01*
X114433Y317776D01*
X115917Y317326D01*
X117461Y317174D01*
X119004Y317326D01*
X120488Y317776D01*
X121856Y318508D01*
X123055Y319492D01*
X124039Y320691D01*
X124770Y322059D01*
X125221Y323543D01*
X125345Y324803D01*
X137008D01*
X137008Y392913D01*
X242506Y392913D01*
X242887Y391657D01*
X243618Y390289D01*
X244602Y389090D01*
X245801Y388106D01*
X246322Y387828D01*
X246222Y386811D01*
X246322Y385794D01*
X245801Y385516D01*
X244602Y384532D01*
X243618Y383333D01*
X242887Y381965D01*
X242437Y380481D01*
X242285Y378937D01*
X242437Y377393D01*
X242887Y375909D01*
X243618Y374541D01*
X244602Y373342D01*
X245801Y372358D01*
X247169Y371627D01*
X248653Y371177D01*
X250197Y371025D01*
X251740Y371177D01*
X253225Y371627D01*
X254331Y372218D01*
X255437Y371627D01*
X256921Y371177D01*
X258465Y371025D01*
X260008Y371177D01*
X261492Y371627D01*
X262402Y372113D01*
X263311Y371627D01*
X264795Y371177D01*
X266339Y371025D01*
X267882Y371177D01*
X269366Y371627D01*
X270734Y372358D01*
X271933Y373342D01*
X272917Y374541D01*
X273648Y375909D01*
X274099Y377393D01*
X274251Y378937D01*
X274099Y380481D01*
X273648Y381965D01*
X272917Y383333D01*
X271933Y384532D01*
X270734Y385516D01*
X270214Y385794D01*
X270314Y386811D01*
X270214Y387828D01*
X270734Y388106D01*
X271933Y389090D01*
X272917Y390289D01*
X273648Y391657D01*
X274029Y392913D01*
D01*
X274099Y393141D01*
X274251Y394685D01*
X274099Y396229D01*
X273648Y397713D01*
X272917Y399081D01*
X271933Y400280D01*
X270734Y401264D01*
X270214Y401542D01*
X270314Y402559D01*
X270214Y403576D01*
X270734Y403854D01*
X271933Y404838D01*
X272917Y406037D01*
X273648Y407405D01*
X274099Y408889D01*
X274251Y410433D01*
X274099Y411977D01*
X273648Y413461D01*
X272917Y414829D01*
X271933Y416028D01*
X270734Y417012D01*
X269366Y417743D01*
X267882Y418193D01*
X266339Y418345D01*
X264795Y418193D01*
X263311Y417743D01*
X262402Y417257D01*
X261811Y417573D01*
Y583083D01*
X262240Y583340D01*
X262425Y583241D01*
X263909Y582791D01*
X265453Y582639D01*
X266996Y582791D01*
X268481Y583241D01*
X269390Y583727D01*
X270299Y583241D01*
X271783Y582791D01*
X273327Y582639D01*
X274870Y582791D01*
X276355Y583241D01*
X277723Y583973D01*
X278922Y584957D01*
X279906Y586155D01*
X280637Y587523D01*
X281087Y589008D01*
X281239Y590551D01*
X281087Y592095D01*
X280637Y593579D01*
X279906Y594947D01*
X278922Y596146D01*
X277723Y597130D01*
X277202Y597408D01*
X277302Y598425D01*
X277202Y599442D01*
X277723Y599720D01*
X278922Y600704D01*
X279906Y601903D01*
X280637Y603271D01*
X281087Y604756D01*
X281239Y606299D01*
X281087Y607843D01*
X280637Y609327D01*
X279906Y610695D01*
X278922Y611894D01*
X277723Y612878D01*
X277202Y613156D01*
X277302Y614173D01*
X277202Y615190D01*
X277723Y615469D01*
X278922Y616453D01*
X279906Y617652D01*
X280637Y619019D01*
X281087Y620504D01*
X281239Y622047D01*
X281087Y623591D01*
X280637Y625075D01*
X279906Y626443D01*
X278922Y627642D01*
X277723Y628626D01*
X277202Y628904D01*
X277302Y629921D01*
X277202Y630938D01*
X277723Y631217D01*
X278922Y632201D01*
X279906Y633399D01*
X280637Y634767D01*
X281087Y636252D01*
X281239Y637795D01*
X281087Y639339D01*
X280637Y640823D01*
X279906Y642191D01*
X278922Y643390D01*
X277723Y644374D01*
X277202Y644652D01*
X277302Y645669D01*
X277202Y646686D01*
X277723Y646965D01*
X278922Y647949D01*
X279906Y649148D01*
X280637Y650516D01*
X281087Y652000D01*
X281239Y653543D01*
X281087Y655087D01*
X280637Y656571D01*
X279906Y657939D01*
X278922Y659138D01*
X277723Y660122D01*
X277202Y660400D01*
X277302Y661417D01*
X277150Y662961D01*
X276700Y664445D01*
X275968Y665813D01*
X275140Y666823D01*
X275376Y667323D01*
X309842Y667323D01*
Y390626D01*
X309842D01*
X309842Y324803D01*
X333349D01*
X333430Y324697D01*
X334540Y323846D01*
X335833Y323310D01*
X337221Y323127D01*
X338608Y323310D01*
X339901Y323846D01*
X341011Y324697D01*
X341092Y324803D01*
X387711Y324803D01*
X388493Y323784D01*
X389603Y322932D01*
X390896Y322397D01*
X392284Y322214D01*
X393671Y322397D01*
X394964Y322932D01*
X396075Y323784D01*
X396856Y324803D01*
X409793D01*
X409917Y323543D01*
X410367Y322059D01*
X411099Y320691D01*
X412083Y319492D01*
X413282Y318508D01*
X414649Y317776D01*
X416134Y317326D01*
X417677Y317174D01*
X419221Y317326D01*
X420705Y317776D01*
X422073Y318508D01*
X423272Y319492D01*
X424256Y320691D01*
X424987Y322059D01*
X425437Y323543D01*
X425562Y324803D01*
X437402D01*
X437402Y392913D01*
X541718Y392913D01*
X542100Y391657D01*
X542831Y390289D01*
X543815Y389090D01*
X545014Y388106D01*
X545535Y387828D01*
X545434Y386811D01*
X545535Y385794D01*
X545014Y385516D01*
X543815Y384532D01*
X542831Y383333D01*
X542100Y381965D01*
X541649Y380481D01*
X541497Y378937D01*
X541649Y377393D01*
X542100Y375909D01*
X542831Y374541D01*
X543815Y373342D01*
X545014Y372358D01*
X546382Y371627D01*
X547866Y371177D01*
X549409Y371025D01*
X550953Y371177D01*
X552437Y371627D01*
X553543Y372218D01*
X554649Y371627D01*
X556134Y371177D01*
X557677Y371025D01*
X559221Y371177D01*
X560705Y371627D01*
X561614Y372113D01*
X562523Y371627D01*
X564008Y371177D01*
X565551Y371025D01*
X567095Y371177D01*
X568579Y371627D01*
X569947Y372358D01*
X571146Y373342D01*
X572130Y374541D01*
X572861Y375909D01*
X573311Y377393D01*
X573463Y378937D01*
X573311Y380481D01*
X572861Y381965D01*
X572130Y383333D01*
X571146Y384532D01*
X569947Y385516D01*
X569426Y385794D01*
X569526Y386811D01*
X569426Y387828D01*
X569947Y388106D01*
X571146Y389090D01*
X572130Y390289D01*
X572861Y391657D01*
X573242Y392913D01*
X573311Y393141D01*
X573463Y394685D01*
X573311Y396229D01*
X572861Y397713D01*
X572130Y399081D01*
X571146Y400280D01*
X569947Y401264D01*
X569426Y401542D01*
X569526Y402559D01*
X569426Y403576D01*
X569947Y403854D01*
X571146Y404838D01*
X572130Y406037D01*
X572861Y407405D01*
X573311Y408889D01*
X573463Y410433D01*
X573311Y411977D01*
X572861Y413461D01*
X572130Y414829D01*
X571146Y416028D01*
X569947Y417012D01*
X568579Y417743D01*
X567095Y418193D01*
X565551Y418345D01*
X564008Y418193D01*
X562523Y417743D01*
X561614Y417257D01*
X561024Y417573D01*
Y583083D01*
X561452Y583340D01*
X561637Y583241D01*
X563122Y582791D01*
X564665Y582639D01*
X566209Y582791D01*
X567693Y583241D01*
X568602Y583727D01*
X569512Y583241D01*
X570996Y582791D01*
X572539Y582639D01*
X574083Y582791D01*
X575567Y583241D01*
X576935Y583973D01*
X578134Y584957D01*
X579118Y586155D01*
X579849Y587523D01*
X580299Y589008D01*
X580451Y590551D01*
X580299Y592095D01*
X579849Y593579D01*
X579118Y594947D01*
X578134Y596146D01*
X576935Y597130D01*
X576414Y597408D01*
X576514Y598425D01*
X576414Y599442D01*
X576935Y599720D01*
X578134Y600704D01*
X579118Y601903D01*
X579849Y603271D01*
X580299Y604756D01*
X580451Y606299D01*
X580299Y607843D01*
X579849Y609327D01*
X579118Y610695D01*
X578134Y611894D01*
X576935Y612878D01*
X576414Y613156D01*
X576514Y614173D01*
X576414Y615190D01*
X576935Y615469D01*
X578134Y616453D01*
X579118Y617652D01*
X579849Y619019D01*
X580299Y620504D01*
X580451Y622047D01*
X580299Y623591D01*
X579849Y625075D01*
X579118Y626443D01*
X578134Y627642D01*
X576935Y628626D01*
X576414Y628904D01*
X576514Y629921D01*
X576414Y630938D01*
X576935Y631217D01*
X578134Y632201D01*
X579118Y633399D01*
X579849Y634767D01*
X580299Y636252D01*
X580451Y637795D01*
X580299Y639339D01*
X579849Y640823D01*
X579118Y642191D01*
X578134Y643390D01*
X576935Y644374D01*
X576414Y644652D01*
X576514Y645669D01*
X576414Y646686D01*
X576935Y646965D01*
X578134Y647949D01*
X579118Y649148D01*
X579849Y650516D01*
X580299Y652000D01*
X580451Y653543D01*
X580299Y655087D01*
X579849Y656571D01*
X579118Y657939D01*
X578134Y659138D01*
X576935Y660122D01*
X576414Y660400D01*
X576514Y661417D01*
X576362Y662961D01*
X575912Y664445D01*
X575181Y665813D01*
X574352Y666823D01*
X574589Y667323D01*
X609842Y667323D01*
D02*
G37*
G36*
X690346Y609783D02*
X690600Y609283D01*
X690137Y608163D01*
X689954Y606776D01*
X690137Y605388D01*
X690672Y604095D01*
X691524Y602985D01*
X692634Y602133D01*
X693927Y601598D01*
X695315Y601415D01*
X696702Y601598D01*
X697995Y602133D01*
X699106Y602985D01*
X699958Y604095D01*
X700493Y605388D01*
X700676Y606776D01*
X700493Y608163D01*
X700032Y609277D01*
X700290Y609777D01*
X734741Y609756D01*
X735012Y609256D01*
X734559Y608163D01*
X734376Y606776D01*
X734559Y605388D01*
X735095Y604095D01*
X735947Y602985D01*
X737057Y602133D01*
X738350Y601598D01*
X739737Y601415D01*
X741125Y601598D01*
X742418Y602133D01*
X743528Y602985D01*
X744380Y604095D01*
X744915Y605388D01*
X745098Y606776D01*
X744915Y608163D01*
X744465Y609250D01*
X744739Y609750D01*
X836024Y609695D01*
X836024Y428445D01*
X724665D01*
X724435Y428945D01*
X724915Y430106D01*
X725098Y431493D01*
X724915Y432881D01*
X724380Y434173D01*
X723528Y435284D01*
X722418Y436136D01*
X721125Y436671D01*
X719737Y436854D01*
X718350Y436671D01*
X717057Y436136D01*
X715947Y435284D01*
X715095Y434173D01*
X714559Y432881D01*
X714376Y431493D01*
X714559Y430106D01*
X715040Y428945D01*
X714809Y428445D01*
X680243D01*
X680012Y428945D01*
X680493Y430106D01*
X680676Y431493D01*
X680493Y432881D01*
X679957Y434173D01*
X679106Y435284D01*
X677995Y436136D01*
X676702Y436671D01*
X675315Y436854D01*
X673927Y436671D01*
X673644Y436554D01*
X673228Y436832D01*
X673228Y609440D01*
X673582Y609793D01*
X690346Y609783D01*
D02*
G37*
G36*
X391133D02*
X391388Y609283D01*
X390924Y608163D01*
X390741Y606776D01*
X390924Y605388D01*
X391459Y604095D01*
X392311Y602985D01*
X393422Y602133D01*
X394714Y601598D01*
X396102Y601415D01*
X397489Y601598D01*
X398782Y602133D01*
X399893Y602985D01*
X400745Y604095D01*
X401280Y605388D01*
X401463Y606776D01*
X401280Y608163D01*
X400819Y609277D01*
X401077Y609777D01*
X435529Y609756D01*
X435799Y609256D01*
X435346Y608163D01*
X435163Y606776D01*
X435346Y605388D01*
X435882Y604095D01*
X436734Y602985D01*
X437844Y602133D01*
X439137Y601598D01*
X440524Y601415D01*
X441912Y601598D01*
X443205Y602133D01*
X444315Y602985D01*
X445167Y604095D01*
X445703Y605388D01*
X445885Y606776D01*
X445703Y608163D01*
X445252Y609250D01*
X445526Y609750D01*
X536811Y609695D01*
X536811Y428445D01*
X425452D01*
X425222Y428945D01*
X425702Y430106D01*
X425885Y431493D01*
X425702Y432881D01*
X425167Y434173D01*
X424315Y435284D01*
X423205Y436136D01*
X421912Y436671D01*
X420524Y436854D01*
X419137Y436671D01*
X417844Y436136D01*
X416734Y435284D01*
X415882Y434173D01*
X415346Y432881D01*
X415164Y431493D01*
X415346Y430106D01*
X415827Y428945D01*
X415596Y428445D01*
X381030D01*
X380799Y428945D01*
X381280Y430106D01*
X381463Y431493D01*
X381280Y432881D01*
X380745Y434173D01*
X379893Y435284D01*
X378782Y436136D01*
X377489Y436671D01*
X376102Y436854D01*
X374714Y436671D01*
X374431Y436554D01*
X374016Y436832D01*
X374016Y609440D01*
X374369Y609793D01*
X391133Y609783D01*
D02*
G37*
G36*
X91881Y609783D02*
X92136Y609283D01*
X91672Y608163D01*
X91490Y606776D01*
X91672Y605388D01*
X92208Y604095D01*
X93060Y602985D01*
X94170Y602133D01*
X95463Y601598D01*
X96850Y601415D01*
X98238Y601598D01*
X99531Y602133D01*
X100641Y602985D01*
X101493Y604095D01*
X102029Y605388D01*
X102211Y606776D01*
X102029Y608163D01*
X101567Y609277D01*
X101825Y609777D01*
X136277Y609756D01*
X136547Y609256D01*
X136095Y608163D01*
X135912Y606776D01*
X136095Y605388D01*
X136630Y604095D01*
X137482Y602985D01*
X138592Y602133D01*
X139885Y601598D01*
X141273Y601415D01*
X142660Y601598D01*
X143953Y602133D01*
X145063Y602985D01*
X145915Y604095D01*
X146451Y605388D01*
X146634Y606776D01*
X146451Y608163D01*
X146001Y609250D01*
X146275Y609750D01*
X237598Y609695D01*
X237598Y428445D01*
X126201D01*
X125970Y428945D01*
X126451Y430106D01*
X126634Y431493D01*
X126451Y432881D01*
X125915Y434173D01*
X125063Y435284D01*
X123953Y436136D01*
X122660Y436671D01*
X121273Y436854D01*
X119885Y436671D01*
X118592Y436136D01*
X117482Y435284D01*
X116630Y434173D01*
X116095Y432881D01*
X115912Y431493D01*
X116095Y430106D01*
X116575Y428945D01*
X116345Y428445D01*
X81778D01*
X81548Y428945D01*
X82029Y430106D01*
X82211Y431493D01*
X82029Y432881D01*
X81493Y434173D01*
X80641Y435284D01*
X79531Y436136D01*
X78238Y436671D01*
X76850Y436854D01*
X75463Y436671D01*
X75219Y436570D01*
X74803Y436848D01*
X74803Y609440D01*
X75157Y609793D01*
X91881Y609783D01*
D02*
G37*
%LPC*%
G36*
X795751Y361955D02*
X794364Y361773D01*
X793960Y361605D01*
X793556Y361773D01*
X792169Y361955D01*
X790781Y361773D01*
X790377Y361605D01*
X789974Y361773D01*
X788586Y361955D01*
X787199Y361773D01*
X785906Y361237D01*
X784795Y360385D01*
X783944Y359275D01*
X783408Y357982D01*
X783225Y356594D01*
X783408Y355207D01*
X783944Y353914D01*
X784795Y352804D01*
X785906Y351952D01*
X787199Y351416D01*
X788586Y351234D01*
X789974Y351416D01*
X790377Y351584D01*
X790781Y351416D01*
X792169Y351234D01*
X793556Y351416D01*
X793960Y351584D01*
X794364Y351416D01*
X795751Y351234D01*
X797139Y351416D01*
X798432Y351952D01*
X799542Y352804D01*
X800394Y353914D01*
X800930Y355207D01*
X801112Y356594D01*
X800930Y357982D01*
X800394Y359275D01*
X799542Y360385D01*
X798432Y361237D01*
X797139Y361773D01*
X795751Y361955D01*
D02*
G37*
G36*
X498268D02*
X496881Y361773D01*
X496477Y361605D01*
X496073Y361773D01*
X494686Y361955D01*
X493298Y361773D01*
X492894Y361605D01*
X492490Y361773D01*
X491103Y361955D01*
X489715Y361773D01*
X488423Y361237D01*
X487312Y360385D01*
X486460Y359275D01*
X485925Y357982D01*
X485742Y356594D01*
X485925Y355207D01*
X486460Y353914D01*
X487312Y352804D01*
X488423Y351952D01*
X489715Y351416D01*
X491103Y351234D01*
X492490Y351416D01*
X492894Y351584D01*
X493298Y351416D01*
X494686Y351234D01*
X496073Y351416D01*
X496477Y351584D01*
X496881Y351416D01*
X498268Y351234D01*
X499656Y351416D01*
X500949Y351952D01*
X502059Y352804D01*
X502911Y353914D01*
X503446Y355207D01*
X503629Y356594D01*
X503446Y357982D01*
X502911Y359275D01*
X502059Y360385D01*
X500949Y361237D01*
X499656Y361773D01*
X498268Y361955D01*
D02*
G37*
G36*
X198366D02*
X196979Y361773D01*
X196575Y361605D01*
X196171Y361773D01*
X194783Y361955D01*
X193396Y361773D01*
X192992Y361605D01*
X192588Y361773D01*
X191201Y361955D01*
X189813Y361773D01*
X188520Y361237D01*
X187410Y360385D01*
X186558Y359275D01*
X186023Y357982D01*
X185840Y356594D01*
X186023Y355207D01*
X186558Y353914D01*
X187410Y352804D01*
X188520Y351952D01*
X189813Y351416D01*
X191201Y351234D01*
X192588Y351416D01*
X192992Y351584D01*
X193396Y351416D01*
X194783Y351234D01*
X196171Y351416D01*
X196575Y351584D01*
X196979Y351416D01*
X198366Y351234D01*
X199754Y351416D01*
X201047Y351952D01*
X202157Y352804D01*
X203009Y353914D01*
X203544Y355207D01*
X203727Y356594D01*
X203544Y357982D01*
X203009Y359275D01*
X202157Y360385D01*
X201047Y361237D01*
X199754Y361773D01*
X198366Y361955D01*
D02*
G37*
G36*
X279134Y359692D02*
X277746Y359509D01*
X276453Y358973D01*
X275343Y358121D01*
X274491Y357011D01*
X273956Y355718D01*
X273773Y354331D01*
X273956Y352943D01*
X274491Y351650D01*
X275343Y350540D01*
X276453Y349688D01*
X277746Y349153D01*
X279134Y348970D01*
X280521Y349153D01*
X281814Y349688D01*
X282925Y350540D01*
X283776Y351650D01*
X284312Y352943D01*
X284495Y354331D01*
X284312Y355718D01*
X283776Y357011D01*
X282925Y358121D01*
X281814Y358973D01*
X280521Y359509D01*
X279134Y359692D01*
D02*
G37*
G36*
X885827Y361452D02*
X884438Y361315D01*
X883102Y360910D01*
X881871Y360251D01*
X880791Y359366D01*
X879906Y358287D01*
X879248Y357056D01*
X878843Y355720D01*
X878706Y354331D01*
X878843Y352941D01*
X879248Y351606D01*
X879906Y350375D01*
X880763Y349331D01*
X879906Y348287D01*
X879248Y347056D01*
X878843Y345720D01*
X878706Y344331D01*
X878843Y342941D01*
X879248Y341606D01*
X879906Y340374D01*
X880791Y339296D01*
X881871Y338410D01*
X883102Y337752D01*
X884438Y337347D01*
X885827Y337210D01*
X887216Y337347D01*
X888552Y337752D01*
X889783Y338410D01*
X890862Y339296D01*
X891748Y340374D01*
X892406Y341606D01*
X892811Y342941D01*
X892948Y344331D01*
X892811Y345720D01*
X892406Y347056D01*
X891748Y348287D01*
X890891Y349331D01*
X891748Y350375D01*
X892406Y351606D01*
X892811Y352941D01*
X892948Y354331D01*
X892811Y355720D01*
X892406Y357056D01*
X891748Y358287D01*
X890862Y359366D01*
X889783Y360251D01*
X888552Y360910D01*
X887216Y361315D01*
X885827Y361452D01*
D02*
G37*
G36*
X845299Y352998D02*
X843755Y352847D01*
X842271Y352396D01*
X840903Y351665D01*
X839704Y350681D01*
X838720Y349482D01*
X837989Y348114D01*
X837539Y346630D01*
X837387Y345086D01*
X837539Y343543D01*
X837989Y342058D01*
X838720Y340691D01*
X839216Y340086D01*
X838720Y339482D01*
X837989Y338114D01*
X837539Y336630D01*
X837387Y335086D01*
X837539Y333543D01*
X837989Y332059D01*
X838720Y330691D01*
X839216Y330086D01*
X838720Y329482D01*
X837989Y328114D01*
X837539Y326630D01*
X837387Y325086D01*
X837539Y323543D01*
X837989Y322059D01*
X838720Y320691D01*
X839704Y319492D01*
X840903Y318508D01*
X842271Y317776D01*
X843755Y317326D01*
X845299Y317174D01*
X846842Y317326D01*
X848327Y317776D01*
X849695Y318508D01*
X850894Y319492D01*
X851878Y320691D01*
X852609Y322059D01*
X853059Y323543D01*
X853211Y325086D01*
X853059Y326630D01*
X852609Y328114D01*
X851878Y329482D01*
X851382Y330086D01*
X851878Y330691D01*
X852609Y332059D01*
X853059Y333543D01*
X853211Y335086D01*
X853059Y336630D01*
X852609Y338114D01*
X851878Y339482D01*
X851382Y340086D01*
X851878Y340691D01*
X852609Y342058D01*
X853059Y343543D01*
X853211Y345086D01*
X853059Y346630D01*
X852609Y348114D01*
X851878Y349482D01*
X850894Y350681D01*
X849695Y351665D01*
X848327Y352396D01*
X846842Y352847D01*
X845299Y352998D01*
D02*
G37*
G36*
X547422D02*
X545879Y352847D01*
X544394Y352396D01*
X543026Y351665D01*
X541827Y350681D01*
X540843Y349482D01*
X540112Y348114D01*
X539662Y346630D01*
X539510Y345086D01*
X539662Y343543D01*
X540112Y342058D01*
X540843Y340691D01*
X541339Y340086D01*
X540843Y339482D01*
X540112Y338114D01*
X539662Y336630D01*
X539510Y335086D01*
X539662Y333543D01*
X540112Y332059D01*
X540843Y330691D01*
X541339Y330086D01*
X540843Y329482D01*
X540112Y328114D01*
X539662Y326630D01*
X539510Y325086D01*
X539662Y323543D01*
X540112Y322059D01*
X540843Y320691D01*
X541827Y319492D01*
X543026Y318508D01*
X544394Y317776D01*
X545879Y317326D01*
X547422Y317174D01*
X548966Y317326D01*
X550450Y317776D01*
X551818Y318508D01*
X553017Y319492D01*
X554001Y320691D01*
X554732Y322059D01*
X555182Y323543D01*
X555334Y325086D01*
X555182Y326630D01*
X554732Y328114D01*
X554001Y329482D01*
X553505Y330086D01*
X554001Y330691D01*
X554732Y332059D01*
X555182Y333543D01*
X555334Y335086D01*
X555182Y336630D01*
X554732Y338114D01*
X554001Y339482D01*
X553505Y340086D01*
X554001Y340691D01*
X554732Y342058D01*
X555182Y343543D01*
X555334Y345086D01*
X555182Y346630D01*
X554732Y348114D01*
X554001Y349482D01*
X553017Y350681D01*
X551818Y351665D01*
X550450Y352396D01*
X548966Y352847D01*
X547422Y352998D01*
D02*
G37*
G36*
X247520D02*
X245976Y352847D01*
X244492Y352396D01*
X243124Y351665D01*
X241925Y350681D01*
X240941Y349482D01*
X240210Y348114D01*
X239760Y346630D01*
X239608Y345086D01*
X239760Y343543D01*
X240210Y342058D01*
X240941Y340691D01*
X241437Y340086D01*
X240941Y339482D01*
X240210Y338114D01*
X239760Y336630D01*
X239608Y335086D01*
X239760Y333543D01*
X240210Y332059D01*
X240941Y330691D01*
X241437Y330086D01*
X240941Y329482D01*
X240210Y328114D01*
X239760Y326630D01*
X239608Y325086D01*
X239760Y323543D01*
X240210Y322059D01*
X240941Y320691D01*
X241925Y319492D01*
X243124Y318508D01*
X244492Y317776D01*
X245976Y317326D01*
X247520Y317174D01*
X249063Y317326D01*
X250548Y317776D01*
X251916Y318508D01*
X253115Y319492D01*
X254099Y320691D01*
X254830Y322059D01*
X255280Y323543D01*
X255432Y325086D01*
X255280Y326630D01*
X254830Y328114D01*
X254099Y329482D01*
X253603Y330086D01*
X254099Y330691D01*
X254830Y332059D01*
X255280Y333543D01*
X255432Y335086D01*
X255280Y336630D01*
X254830Y338114D01*
X254099Y339482D01*
X253603Y340086D01*
X254099Y340691D01*
X254830Y342058D01*
X255280Y343543D01*
X255432Y345086D01*
X255280Y346630D01*
X254830Y348114D01*
X254099Y349482D01*
X253115Y350681D01*
X251916Y351665D01*
X250548Y352396D01*
X249063Y352847D01*
X247520Y352998D01*
D02*
G37*
G36*
X781641Y287983D02*
X780254Y287801D01*
X778961Y287265D01*
X777850Y286413D01*
X776998Y285303D01*
X776463Y284010D01*
X776280Y282622D01*
X776463Y281235D01*
X776998Y279942D01*
X777850Y278832D01*
X778961Y277980D01*
X780254Y277444D01*
X781641Y277261D01*
X783029Y277444D01*
X784321Y277980D01*
X785432Y278832D01*
X786284Y279942D01*
X786819Y281235D01*
X787002Y282622D01*
X786819Y284010D01*
X786284Y285303D01*
X785432Y286413D01*
X784321Y287265D01*
X783029Y287801D01*
X781641Y287983D01*
D02*
G37*
G36*
X639613D02*
X638226Y287801D01*
X636933Y287265D01*
X635823Y286413D01*
X634971Y285303D01*
X634435Y284010D01*
X634253Y282622D01*
X634435Y281235D01*
X634971Y279942D01*
X635823Y278832D01*
X636933Y277980D01*
X638226Y277444D01*
X639613Y277261D01*
X641001Y277444D01*
X642294Y277980D01*
X643404Y278832D01*
X644256Y279942D01*
X644792Y281235D01*
X644974Y282622D01*
X644792Y284010D01*
X644256Y285303D01*
X643404Y286413D01*
X642294Y287265D01*
X641001Y287801D01*
X639613Y287983D01*
D02*
G37*
G36*
X342426D02*
X341038Y287801D01*
X339745Y287265D01*
X338635Y286413D01*
X337783Y285303D01*
X337247Y284010D01*
X337065Y282622D01*
X337247Y281235D01*
X337783Y279942D01*
X338635Y278832D01*
X339745Y277980D01*
X341038Y277444D01*
X342426Y277261D01*
X343813Y277444D01*
X345106Y277980D01*
X346216Y278832D01*
X347068Y279942D01*
X347604Y281235D01*
X347786Y282622D01*
X347604Y284010D01*
X347068Y285303D01*
X346216Y286413D01*
X345106Y287265D01*
X343813Y287801D01*
X342426Y287983D01*
D02*
G37*
G36*
X42465D02*
X41077Y287801D01*
X39785Y287265D01*
X38674Y286413D01*
X37822Y285303D01*
X37287Y284010D01*
X37104Y282622D01*
X37287Y281235D01*
X37822Y279942D01*
X38674Y278832D01*
X39785Y277980D01*
X41077Y277444D01*
X42465Y277261D01*
X43852Y277444D01*
X45145Y277980D01*
X46255Y278832D01*
X47107Y279942D01*
X47643Y281235D01*
X47826Y282622D01*
X47643Y284010D01*
X47107Y285303D01*
X46255Y286413D01*
X45145Y287265D01*
X43852Y287801D01*
X42465Y287983D01*
D02*
G37*
G36*
X223563Y287978D02*
X222175Y287795D01*
X220882Y287260D01*
X219772Y286408D01*
X218920Y285298D01*
X218385Y284005D01*
X218202Y282617D01*
X218385Y281230D01*
X218920Y279937D01*
X219772Y278826D01*
X220882Y277975D01*
X222175Y277439D01*
X223563Y277256D01*
X224950Y277439D01*
X226243Y277975D01*
X227353Y278826D01*
X228205Y279937D01*
X228741Y281230D01*
X228924Y282617D01*
X228741Y284005D01*
X228205Y285298D01*
X227353Y286408D01*
X226243Y287260D01*
X224950Y287795D01*
X223563Y287978D01*
D02*
G37*
G36*
X845299Y302998D02*
X843755Y302847D01*
X842271Y302396D01*
X840903Y301665D01*
X839704Y300681D01*
X838720Y299482D01*
X837989Y298114D01*
X837539Y296630D01*
X837387Y295086D01*
X837539Y293543D01*
X837989Y292058D01*
X838720Y290691D01*
X839216Y290086D01*
X838720Y289482D01*
X837989Y288114D01*
X837539Y286630D01*
X837387Y285086D01*
X837539Y283543D01*
X837989Y282059D01*
X838720Y280691D01*
X839704Y279492D01*
X840903Y278508D01*
X842271Y277777D01*
X843755Y277326D01*
X845299Y277174D01*
X846842Y277326D01*
X848327Y277777D01*
X849695Y278508D01*
X850894Y279492D01*
X851878Y280691D01*
X852609Y282059D01*
X853059Y283543D01*
X853211Y285086D01*
X853059Y286630D01*
X852609Y288114D01*
X851878Y289482D01*
X851382Y290086D01*
X851878Y290691D01*
X852609Y292058D01*
X853059Y293543D01*
X853211Y295086D01*
X853059Y296630D01*
X852609Y298114D01*
X851878Y299482D01*
X850894Y300681D01*
X849695Y301665D01*
X848327Y302396D01*
X846842Y302847D01*
X845299Y302998D01*
D02*
G37*
G36*
X714948D02*
X713405Y302847D01*
X711920Y302396D01*
X710553Y301665D01*
X709354Y300681D01*
X708370Y299482D01*
X707639Y298114D01*
X707188Y296630D01*
X707036Y295086D01*
X707188Y293543D01*
X707639Y292058D01*
X708370Y290691D01*
X708865Y290086D01*
X708370Y289482D01*
X707639Y288114D01*
X707188Y286630D01*
X707036Y285086D01*
X707188Y283543D01*
X707639Y282059D01*
X708370Y280691D01*
X709354Y279492D01*
X710553Y278508D01*
X711920Y277777D01*
X713405Y277326D01*
X714948Y277174D01*
X716492Y277326D01*
X717976Y277777D01*
X719344Y278508D01*
X720543Y279492D01*
X721527Y280691D01*
X722258Y282059D01*
X722708Y283543D01*
X722860Y285086D01*
X722708Y286630D01*
X722258Y288114D01*
X721527Y289482D01*
X721031Y290086D01*
X721527Y290691D01*
X722258Y292058D01*
X722708Y293543D01*
X722860Y295086D01*
X722708Y296630D01*
X722258Y298114D01*
X721527Y299482D01*
X720543Y300681D01*
X719344Y301665D01*
X717976Y302396D01*
X716492Y302847D01*
X714948Y302998D01*
D02*
G37*
G36*
X547422D02*
X545879Y302847D01*
X544394Y302396D01*
X543026Y301665D01*
X541827Y300681D01*
X540843Y299482D01*
X540112Y298114D01*
X539662Y296630D01*
X539510Y295086D01*
X539662Y293543D01*
X540112Y292058D01*
X540843Y290691D01*
X541339Y290086D01*
X540843Y289482D01*
X540112Y288114D01*
X539662Y286630D01*
X539510Y285086D01*
X539662Y283543D01*
X540112Y282059D01*
X540843Y280691D01*
X541827Y279492D01*
X543026Y278508D01*
X544394Y277777D01*
X545879Y277326D01*
X547422Y277174D01*
X548966Y277326D01*
X550450Y277777D01*
X551818Y278508D01*
X553017Y279492D01*
X554001Y280691D01*
X554732Y282059D01*
X555182Y283543D01*
X555334Y285086D01*
X555182Y286630D01*
X554732Y288114D01*
X554001Y289482D01*
X553505Y290086D01*
X554001Y290691D01*
X554732Y292058D01*
X555182Y293543D01*
X555334Y295086D01*
X555182Y296630D01*
X554732Y298114D01*
X554001Y299482D01*
X553017Y300681D01*
X551818Y301665D01*
X550450Y302396D01*
X548966Y302847D01*
X547422Y302998D01*
D02*
G37*
G36*
X417677D02*
X416134Y302847D01*
X414649Y302396D01*
X413282Y301665D01*
X412083Y300681D01*
X411099Y299482D01*
X410367Y298114D01*
X409917Y296630D01*
X409765Y295086D01*
X409917Y293543D01*
X410367Y292058D01*
X411099Y290691D01*
X411594Y290086D01*
X411099Y289482D01*
X410367Y288114D01*
X409917Y286630D01*
X409765Y285086D01*
X409917Y283543D01*
X410367Y282059D01*
X411099Y280691D01*
X412083Y279492D01*
X413282Y278508D01*
X414649Y277777D01*
X416134Y277326D01*
X417677Y277174D01*
X419221Y277326D01*
X420705Y277777D01*
X422073Y278508D01*
X423272Y279492D01*
X424256Y280691D01*
X424987Y282059D01*
X425437Y283543D01*
X425590Y285086D01*
X425437Y286630D01*
X424987Y288114D01*
X424256Y289482D01*
X423760Y290086D01*
X424256Y290691D01*
X424987Y292058D01*
X425437Y293543D01*
X425590Y295086D01*
X425437Y296630D01*
X424987Y298114D01*
X424256Y299482D01*
X423272Y300681D01*
X422073Y301665D01*
X420705Y302396D01*
X419221Y302847D01*
X417677Y302998D01*
D02*
G37*
G36*
X247520D02*
X245976Y302847D01*
X244492Y302396D01*
X243124Y301665D01*
X241925Y300681D01*
X240941Y299482D01*
X240210Y298114D01*
X239760Y296630D01*
X239608Y295086D01*
X239760Y293543D01*
X240210Y292058D01*
X240941Y290691D01*
X241437Y290086D01*
X240941Y289482D01*
X240210Y288114D01*
X239760Y286630D01*
X239608Y285086D01*
X239760Y283543D01*
X240210Y282059D01*
X240941Y280691D01*
X241925Y279492D01*
X243124Y278508D01*
X244492Y277777D01*
X245976Y277326D01*
X247520Y277174D01*
X249063Y277326D01*
X250548Y277777D01*
X251916Y278508D01*
X253115Y279492D01*
X254099Y280691D01*
X254830Y282059D01*
X255280Y283543D01*
X255432Y285086D01*
X255280Y286630D01*
X254830Y288114D01*
X254099Y289482D01*
X253603Y290086D01*
X254099Y290691D01*
X254830Y292058D01*
X255280Y293543D01*
X255432Y295086D01*
X255280Y296630D01*
X254830Y298114D01*
X254099Y299482D01*
X253115Y300681D01*
X251916Y301665D01*
X250548Y302396D01*
X249063Y302847D01*
X247520Y302998D01*
D02*
G37*
G36*
X117461D02*
X115917Y302847D01*
X114433Y302396D01*
X113065Y301665D01*
X111866Y300681D01*
X110882Y299482D01*
X110151Y298114D01*
X109700Y296630D01*
X109548Y295086D01*
X109700Y293543D01*
X110151Y292058D01*
X110882Y290691D01*
X111378Y290086D01*
X110882Y289482D01*
X110151Y288114D01*
X109700Y286630D01*
X109548Y285086D01*
X109700Y283543D01*
X110151Y282059D01*
X110882Y280691D01*
X111866Y279492D01*
X113065Y278508D01*
X114433Y277777D01*
X115917Y277326D01*
X117461Y277174D01*
X119004Y277326D01*
X120488Y277777D01*
X121856Y278508D01*
X123055Y279492D01*
X124039Y280691D01*
X124770Y282059D01*
X125221Y283543D01*
X125373Y285086D01*
X125221Y286630D01*
X124770Y288114D01*
X124039Y289482D01*
X123543Y290086D01*
X124039Y290691D01*
X124770Y292058D01*
X125221Y293543D01*
X125373Y295086D01*
X125221Y296630D01*
X124770Y298114D01*
X124039Y299482D01*
X123055Y300681D01*
X121856Y301665D01*
X120488Y302396D01*
X119004Y302847D01*
X117461Y302998D01*
D02*
G37*
G36*
X821106Y287852D02*
X819718Y287669D01*
X818425Y287134D01*
X817315Y286282D01*
X816463Y285172D01*
X815927Y283879D01*
X815745Y282491D01*
X815927Y281104D01*
X816463Y279811D01*
X817315Y278701D01*
X818425Y277849D01*
X819718Y277313D01*
X821106Y277131D01*
X822493Y277313D01*
X823786Y277849D01*
X824896Y278701D01*
X825748Y279811D01*
X826284Y281104D01*
X826466Y282491D01*
X826284Y283879D01*
X825748Y285172D01*
X824896Y286282D01*
X823786Y287134D01*
X822493Y287669D01*
X821106Y287852D01*
D02*
G37*
G36*
X523563Y287765D02*
X522175Y287583D01*
X520882Y287047D01*
X519772Y286195D01*
X518920Y285085D01*
X518385Y283792D01*
X518202Y282404D01*
X518385Y281017D01*
X518920Y279724D01*
X519772Y278614D01*
X520882Y277762D01*
X522175Y277226D01*
X523563Y277044D01*
X524950Y277226D01*
X526243Y277762D01*
X527353Y278614D01*
X528205Y279724D01*
X528741Y281017D01*
X528924Y282404D01*
X528741Y283792D01*
X528205Y285085D01*
X527353Y286195D01*
X526243Y287047D01*
X524950Y287583D01*
X523563Y287765D01*
D02*
G37*
G36*
X313543Y287387D02*
X312155Y287205D01*
X310862Y286669D01*
X309752Y285817D01*
X308900Y284707D01*
X308364Y283414D01*
X308182Y282027D01*
X308364Y280639D01*
X308900Y279346D01*
X309752Y278236D01*
X310862Y277384D01*
X312155Y276849D01*
X313543Y276666D01*
X314930Y276849D01*
X316223Y277384D01*
X317333Y278236D01*
X318185Y279346D01*
X318721Y280639D01*
X318903Y282027D01*
X318721Y283414D01*
X318185Y284707D01*
X317333Y285817D01*
X316223Y286669D01*
X314930Y287205D01*
X313543Y287387D01*
D02*
G37*
G36*
X502949Y280739D02*
X501561Y280557D01*
X500268Y280021D01*
X499158Y279169D01*
X498306Y278059D01*
X497771Y276766D01*
X497588Y275378D01*
X497758Y274086D01*
X496389Y273906D01*
X495096Y273371D01*
X494686Y273056D01*
X494276Y273371D01*
X492983Y273906D01*
X491595Y274089D01*
X490208Y273906D01*
X488915Y273371D01*
X487805Y272519D01*
X486952Y271408D01*
X486417Y270115D01*
X486234Y268728D01*
X486417Y267341D01*
X486952Y266048D01*
X487805Y264937D01*
X488915Y264085D01*
X490208Y263550D01*
X491595Y263367D01*
X492983Y263550D01*
X494276Y264085D01*
X494686Y264400D01*
X495096Y264085D01*
X496389Y263550D01*
X497776Y263367D01*
X499164Y263550D01*
X500457Y264085D01*
X501567Y264937D01*
X502419Y266048D01*
X502954Y267341D01*
X503137Y268728D01*
X502967Y270020D01*
X504336Y270200D01*
X505629Y270736D01*
X506739Y271588D01*
X507591Y272698D01*
X508127Y273991D01*
X508310Y275378D01*
X508127Y276766D01*
X507591Y278059D01*
X506739Y279169D01*
X505629Y280021D01*
X504336Y280557D01*
X502949Y280739D01*
D02*
G37*
G36*
X356044Y273766D02*
X354656Y273583D01*
X353363Y273048D01*
X352953Y272733D01*
X352543Y273048D01*
X351250Y273583D01*
X349863Y273766D01*
X348475Y273583D01*
X347182Y273048D01*
X346072Y272196D01*
X345220Y271085D01*
X344685Y269793D01*
X344502Y268405D01*
X344685Y267018D01*
X345220Y265725D01*
X346072Y264614D01*
X347182Y263762D01*
X348475Y263227D01*
X349863Y263044D01*
X351250Y263227D01*
X352543Y263762D01*
X352953Y264077D01*
X353363Y263762D01*
X354656Y263227D01*
X356044Y263044D01*
X357431Y263227D01*
X358724Y263762D01*
X359835Y264614D01*
X360686Y265725D01*
X361222Y267018D01*
X361405Y268405D01*
X361222Y269793D01*
X360686Y271085D01*
X359835Y272196D01*
X358724Y273048D01*
X357431Y273583D01*
X356044Y273766D01*
D02*
G37*
G36*
X56083Y273667D02*
X54696Y273485D01*
X53403Y272949D01*
X52993Y272635D01*
X52583Y272949D01*
X51289Y273485D01*
X49902Y273667D01*
X48515Y273485D01*
X47222Y272949D01*
X46111Y272097D01*
X45259Y270987D01*
X44724Y269694D01*
X44541Y268307D01*
X44724Y266919D01*
X45259Y265626D01*
X46111Y264516D01*
X47222Y263664D01*
X48515Y263128D01*
X49902Y262946D01*
X51289Y263128D01*
X52583Y263664D01*
X52993Y263979D01*
X53403Y263664D01*
X54696Y263128D01*
X56083Y262946D01*
X57471Y263128D01*
X58764Y263664D01*
X59874Y264516D01*
X60726Y265626D01*
X61261Y266919D01*
X61444Y268307D01*
X61261Y269694D01*
X60726Y270987D01*
X59874Y272097D01*
X58764Y272949D01*
X57471Y273485D01*
X56083Y273667D01*
D02*
G37*
G36*
X467520Y278196D02*
X466132Y278013D01*
X464839Y277477D01*
X463729Y276625D01*
X462877Y275515D01*
X462341Y274222D01*
X462159Y272835D01*
X462341Y271447D01*
X462877Y270154D01*
X463729Y269044D01*
X464839Y268192D01*
X466132Y267656D01*
X467520Y267474D01*
X468907Y267656D01*
X470200Y268192D01*
X471310Y269044D01*
X472162Y270154D01*
X472698Y271447D01*
X472881Y272835D01*
X472698Y274222D01*
X472162Y275515D01*
X471310Y276625D01*
X470200Y277477D01*
X468907Y278013D01*
X467520Y278196D01*
D02*
G37*
G36*
X647051Y274356D02*
X645663Y274174D01*
X644370Y273638D01*
X643260Y272786D01*
X642408Y271676D01*
X641873Y270383D01*
X641690Y268996D01*
X641873Y267608D01*
X642408Y266315D01*
X643260Y265205D01*
X644370Y264353D01*
X645663Y263818D01*
X647051Y263635D01*
X648438Y263818D01*
X649731Y264353D01*
X650841Y265205D01*
X651693Y266315D01*
X652229Y267608D01*
X652412Y268996D01*
X652229Y270383D01*
X651693Y271676D01*
X650841Y272786D01*
X649731Y273638D01*
X648438Y274174D01*
X647051Y274356D01*
D02*
G37*
G36*
X184256Y287983D02*
X182868Y287801D01*
X181575Y287265D01*
X180465Y286413D01*
X179613Y285303D01*
X179078Y284010D01*
X178895Y282622D01*
X179078Y281235D01*
X179613Y279942D01*
X180465Y278832D01*
X181575Y277980D01*
X181734Y277914D01*
X181799Y277418D01*
X181150Y276921D01*
X180298Y275810D01*
X179763Y274517D01*
X179580Y273130D01*
X179763Y271742D01*
X180298Y270449D01*
X181150Y269339D01*
X182261Y268487D01*
X183554Y267952D01*
X184941Y267769D01*
X185970Y267905D01*
X186492Y267513D01*
X186515Y267341D01*
X187050Y266048D01*
X187902Y264937D01*
X189013Y264085D01*
X190305Y263550D01*
X191693Y263367D01*
X193080Y263550D01*
X194373Y264085D01*
X194783Y264400D01*
X195194Y264085D01*
X196487Y263550D01*
X197874Y263367D01*
X199261Y263550D01*
X200554Y264085D01*
X201665Y264937D01*
X202517Y266048D01*
X203052Y267341D01*
X203235Y268728D01*
X203052Y270115D01*
X202517Y271409D01*
X201665Y272519D01*
X200554Y273371D01*
X199261Y273906D01*
X197874Y274089D01*
X196487Y273906D01*
X195194Y273371D01*
X194783Y273056D01*
X194373Y273371D01*
X193080Y273906D01*
X191693Y274089D01*
X190664Y273953D01*
X190142Y274345D01*
X190119Y274517D01*
X189584Y275810D01*
X188732Y276921D01*
X187621Y277772D01*
X187463Y277838D01*
X187398Y278334D01*
X188046Y278832D01*
X188898Y279942D01*
X189434Y281235D01*
X189617Y282622D01*
X189434Y284010D01*
X188898Y285303D01*
X188046Y286413D01*
X186936Y287265D01*
X185643Y287801D01*
X184256Y287983D01*
D02*
G37*
G36*
X800492Y280739D02*
X799104Y280557D01*
X797811Y280021D01*
X796701Y279169D01*
X795849Y278059D01*
X795313Y276766D01*
X795131Y275378D01*
X795237Y274573D01*
X794804Y274029D01*
X793872Y273906D01*
X792579Y273371D01*
X791469Y272519D01*
X790617Y271408D01*
X790081Y270115D01*
X789898Y268728D01*
X790081Y267340D01*
X790617Y266048D01*
X791469Y264937D01*
X792579Y264085D01*
X793872Y263550D01*
X795259Y263367D01*
X796647Y263550D01*
X797940Y264085D01*
X799050Y264937D01*
X799902Y266048D01*
X800438Y267340D01*
X800620Y268728D01*
X800514Y269533D01*
X800947Y270078D01*
X801879Y270200D01*
X803172Y270736D01*
X804282Y271588D01*
X805134Y272698D01*
X805670Y273991D01*
X805852Y275378D01*
X805670Y276766D01*
X805134Y278059D01*
X804282Y279169D01*
X803172Y280021D01*
X801879Y280557D01*
X800492Y280739D01*
D02*
G37*
G36*
X283542Y273844D02*
X282155Y273662D01*
X280862Y273126D01*
X279752Y272274D01*
X278900Y271164D01*
X278364Y269871D01*
X278182Y268483D01*
X278364Y267096D01*
X278900Y265803D01*
X279752Y264693D01*
X280862Y263841D01*
X282155Y263305D01*
X283542Y263123D01*
X284930Y263305D01*
X286223Y263841D01*
X287333Y264693D01*
X288185Y265803D01*
X288721Y267096D01*
X288903Y268483D01*
X288721Y269871D01*
X288185Y271164D01*
X287333Y272274D01*
X286223Y273126D01*
X284930Y273662D01*
X283542Y273844D01*
D02*
G37*
G36*
X417520Y266286D02*
X416132Y266103D01*
X414839Y265568D01*
X413729Y264716D01*
X412877Y263606D01*
X412341Y262313D01*
X412159Y260925D01*
X412341Y259538D01*
X412877Y258245D01*
X413729Y257135D01*
X414839Y256283D01*
X416132Y255747D01*
X417520Y255564D01*
X418907Y255747D01*
X420200Y256283D01*
X421310Y257135D01*
X422162Y258245D01*
X422698Y259538D01*
X422881Y260925D01*
X422698Y262313D01*
X422162Y263606D01*
X421310Y264716D01*
X420200Y265568D01*
X418907Y266103D01*
X417520Y266286D01*
D02*
G37*
G36*
X117461Y256798D02*
X116073Y256615D01*
X114780Y256080D01*
X113670Y255228D01*
X112818Y254117D01*
X112282Y252825D01*
X112100Y251437D01*
X112282Y250050D01*
X112818Y248757D01*
X113670Y247646D01*
X114780Y246795D01*
X116073Y246259D01*
X117461Y246076D01*
X118848Y246259D01*
X120141Y246795D01*
X121251Y247646D01*
X122103Y248757D01*
X122639Y250050D01*
X122821Y251437D01*
X122639Y252825D01*
X122103Y254117D01*
X121251Y255228D01*
X120141Y256080D01*
X118848Y256615D01*
X117461Y256798D01*
D02*
G37*
G36*
X239075Y259790D02*
X237687Y259607D01*
X236394Y259072D01*
X235284Y258220D01*
X234432Y257109D01*
X233897Y255817D01*
X233714Y254429D01*
X233897Y253042D01*
X234432Y251749D01*
X235284Y250639D01*
X236394Y249786D01*
X237687Y249251D01*
X239075Y249068D01*
X240462Y249251D01*
X241755Y249786D01*
X242568Y250410D01*
X243238Y250359D01*
X243552Y249950D01*
X244662Y249098D01*
X245955Y248562D01*
X246624Y248474D01*
X246735Y248205D01*
X247587Y247095D01*
X248698Y246243D01*
X249991Y245708D01*
X251378Y245525D01*
X252765Y245708D01*
X254058Y246243D01*
X255169Y247095D01*
X256021Y248205D01*
X256556Y249498D01*
X256739Y250886D01*
X256556Y252273D01*
X256021Y253566D01*
X255169Y254677D01*
X254058Y255528D01*
X252765Y256064D01*
X252096Y256152D01*
X251985Y256421D01*
X251133Y257531D01*
X250023Y258383D01*
X248730Y258918D01*
X247342Y259101D01*
X245955Y258918D01*
X244662Y258383D01*
X243849Y257759D01*
X243180Y257810D01*
X242865Y258220D01*
X241755Y259072D01*
X240462Y259607D01*
X239075Y259790D01*
D02*
G37*
G36*
X342323Y252408D02*
X340935Y252225D01*
X339642Y251690D01*
X338532Y250838D01*
X337680Y249728D01*
X337145Y248435D01*
X336962Y247047D01*
X337145Y245660D01*
X337680Y244367D01*
X338532Y243257D01*
X339642Y242405D01*
X340935Y241869D01*
X342323Y241686D01*
X343710Y241869D01*
X345003Y242405D01*
X346113Y243257D01*
X346965Y244367D01*
X347501Y245660D01*
X347684Y247047D01*
X347501Y248435D01*
X346965Y249728D01*
X346113Y250838D01*
X345003Y251690D01*
X343710Y252225D01*
X342323Y252408D01*
D02*
G37*
G36*
X522638Y235072D02*
X521326Y234943D01*
X520064Y234560D01*
X518901Y233938D01*
X517882Y233102D01*
X517393D01*
X516374Y233938D01*
X515211Y234560D01*
X513950Y234943D01*
X512638Y235072D01*
X511326Y234943D01*
X510064Y234560D01*
X508901Y233938D01*
X507882Y233102D01*
X507393D01*
X506374Y233938D01*
X505211Y234560D01*
X503950Y234943D01*
X502638Y235072D01*
X501326Y234943D01*
X500064Y234560D01*
X498901Y233938D01*
X497882Y233102D01*
X497393D01*
X496374Y233938D01*
X495212Y234560D01*
X493950Y234943D01*
X492638Y235072D01*
X491326Y234943D01*
X490064Y234560D01*
X488901Y233938D01*
X487882Y233102D01*
X487393D01*
X486374Y233938D01*
X485212Y234560D01*
X483950Y234943D01*
X482638Y235072D01*
X481326Y234943D01*
X480064Y234560D01*
X478901Y233938D01*
X477882Y233102D01*
X477393D01*
X476374Y233938D01*
X475211Y234560D01*
X473950Y234943D01*
X472638Y235072D01*
X471326Y234943D01*
X470064Y234560D01*
X468901Y233938D01*
X467882Y233102D01*
X467393D01*
X466374Y233938D01*
X465211Y234560D01*
X463950Y234943D01*
X462638Y235072D01*
X461326Y234943D01*
X460064Y234560D01*
X458901Y233938D01*
X457882Y233102D01*
X457393D01*
X456374Y233938D01*
X455211Y234560D01*
X453950Y234943D01*
X452638Y235072D01*
X451326Y234943D01*
X450064Y234560D01*
X448901Y233938D01*
X447882Y233102D01*
X447393D01*
X446374Y233938D01*
X445212Y234560D01*
X443950Y234943D01*
X442638Y235072D01*
X441326Y234943D01*
X440064Y234560D01*
X438901Y233938D01*
X437882Y233102D01*
X437393D01*
X436374Y233938D01*
X435212Y234560D01*
X433950Y234943D01*
X432638Y235072D01*
X431326Y234943D01*
X430064Y234560D01*
X428901Y233938D01*
X427882Y233102D01*
X427393D01*
X426374Y233938D01*
X425211Y234560D01*
X423950Y234943D01*
X422638Y235072D01*
X421326Y234943D01*
X420064Y234560D01*
X418901Y233938D01*
X417882Y233102D01*
X417393D01*
X416374Y233938D01*
X415211Y234560D01*
X413950Y234943D01*
X412638Y235072D01*
X411326Y234943D01*
X410064Y234560D01*
X408901Y233938D01*
X407882Y233102D01*
X407393D01*
X406374Y233938D01*
X405211Y234560D01*
X403950Y234943D01*
X402638Y235072D01*
X401326Y234943D01*
X400064Y234560D01*
X398901Y233938D01*
X397882Y233102D01*
X397393D01*
X396374Y233938D01*
X395212Y234560D01*
X393950Y234943D01*
X392638Y235072D01*
X391326Y234943D01*
X390064Y234560D01*
X388901Y233938D01*
X387882Y233102D01*
X387393D01*
X386374Y233938D01*
X385211Y234560D01*
X383950Y234943D01*
X382638Y235072D01*
X381326Y234943D01*
X380064Y234560D01*
X378901Y233938D01*
X377882Y233102D01*
X377046Y232083D01*
X376424Y230920D01*
X376042Y229659D01*
X375912Y228346D01*
X376042Y227034D01*
X376424Y225773D01*
X377046Y224610D01*
X377882Y223591D01*
Y223102D01*
X377046Y222083D01*
X376424Y220920D01*
X376042Y219658D01*
X375912Y218347D01*
X376042Y217034D01*
X376424Y215773D01*
X377046Y214610D01*
X377882Y213591D01*
X378901Y212755D01*
X380064Y212133D01*
X381326Y211750D01*
X382638Y211621D01*
X383950Y211750D01*
X385211Y212133D01*
X386374Y212755D01*
X387393Y213591D01*
X387882D01*
X388901Y212755D01*
X390064Y212133D01*
X391326Y211750D01*
X392638Y211621D01*
X393950Y211750D01*
X395212Y212133D01*
X396374Y212755D01*
X397393Y213591D01*
X397882D01*
X398901Y212755D01*
X400064Y212133D01*
X401326Y211750D01*
X402638Y211621D01*
X403950Y211750D01*
X405211Y212133D01*
X406374Y212755D01*
X407393Y213591D01*
X407882D01*
X408901Y212755D01*
X410064Y212133D01*
X411326Y211750D01*
X412638Y211621D01*
X413950Y211750D01*
X415211Y212133D01*
X416374Y212755D01*
X417393Y213591D01*
X417882D01*
X418901Y212755D01*
X420064Y212133D01*
X421326Y211750D01*
X422638Y211621D01*
X423950Y211750D01*
X425211Y212133D01*
X426374Y212755D01*
X427393Y213591D01*
X427882D01*
X428901Y212755D01*
X430064Y212133D01*
X431326Y211750D01*
X432638Y211621D01*
X433950Y211750D01*
X435212Y212133D01*
X436374Y212755D01*
X437393Y213591D01*
X437882D01*
X438901Y212755D01*
X440064Y212133D01*
X441326Y211750D01*
X442638Y211621D01*
X443950Y211750D01*
X445212Y212133D01*
X446374Y212755D01*
X447393Y213591D01*
X447882D01*
X448901Y212755D01*
X450064Y212133D01*
X451326Y211750D01*
X452638Y211621D01*
X453950Y211750D01*
X455211Y212133D01*
X456374Y212755D01*
X457393Y213591D01*
X457882D01*
X458901Y212755D01*
X460064Y212133D01*
X461326Y211750D01*
X462638Y211621D01*
X463950Y211750D01*
X465211Y212133D01*
X466374Y212755D01*
X467393Y213591D01*
X467882D01*
X468901Y212755D01*
X470064Y212133D01*
X471326Y211750D01*
X472638Y211621D01*
X473950Y211750D01*
X475211Y212133D01*
X476374Y212755D01*
X477393Y213591D01*
X477882D01*
X478901Y212755D01*
X480064Y212133D01*
X481326Y211750D01*
X482638Y211621D01*
X483950Y211750D01*
X485212Y212133D01*
X486374Y212755D01*
X487393Y213591D01*
X487882D01*
X488901Y212755D01*
X490064Y212133D01*
X490143Y212109D01*
X490243Y211556D01*
X489615Y211074D01*
X488763Y209964D01*
X488227Y208671D01*
X488045Y207283D01*
X488227Y205896D01*
X488763Y204603D01*
X489615Y203493D01*
X490725Y202641D01*
X492018Y202105D01*
X493405Y201923D01*
X494793Y202105D01*
X496086Y202641D01*
X497196Y203493D01*
X498048Y204603D01*
X498584Y205896D01*
X498766Y207283D01*
X498584Y208671D01*
X498048Y209964D01*
X497196Y211074D01*
X496086Y211926D01*
X495915Y211997D01*
X495891Y212496D01*
X496374Y212755D01*
X497393Y213591D01*
X497882D01*
X498901Y212755D01*
X500064Y212133D01*
X501326Y211750D01*
X502638Y211621D01*
X503950Y211750D01*
X505211Y212133D01*
X506374Y212755D01*
X507393Y213591D01*
X507882D01*
X508901Y212755D01*
X510064Y212133D01*
X511326Y211750D01*
X512638Y211621D01*
X513950Y211750D01*
X515211Y212133D01*
X516374Y212755D01*
X517393Y213591D01*
X517882D01*
X518901Y212755D01*
X520064Y212133D01*
X521326Y211750D01*
X522638Y211621D01*
X523950Y211750D01*
X525211Y212133D01*
X526374Y212755D01*
X527393Y213591D01*
X528230Y214610D01*
X528851Y215773D01*
X529234Y217034D01*
X529363Y218347D01*
X529234Y219658D01*
X528851Y220920D01*
X528230Y222083D01*
X527393Y223102D01*
Y223591D01*
X528230Y224610D01*
X528851Y225773D01*
X529234Y227034D01*
X529363Y228346D01*
X529234Y229659D01*
X528851Y230920D01*
X528230Y232083D01*
X527393Y233102D01*
X526374Y233938D01*
X525211Y234560D01*
X523950Y234943D01*
X522638Y235072D01*
D02*
G37*
G36*
X238484Y243156D02*
X237097Y242973D01*
X235804Y242438D01*
X234694Y241586D01*
X233842Y240476D01*
X233306Y239183D01*
X233123Y237795D01*
X233306Y236408D01*
X233842Y235115D01*
X234694Y234005D01*
X235804Y233153D01*
X237097Y232617D01*
X238484Y232435D01*
X239872Y232617D01*
X241165Y233153D01*
X242275Y234005D01*
X243127Y235115D01*
X243662Y236408D01*
X243845Y237795D01*
X243662Y239183D01*
X243127Y240476D01*
X242275Y241586D01*
X241165Y242438D01*
X239872Y242973D01*
X238484Y243156D01*
D02*
G37*
G36*
X714948Y248176D02*
X713561Y247993D01*
X712268Y247458D01*
X711158Y246606D01*
X710306Y245495D01*
X709770Y244202D01*
X709587Y242815D01*
X709770Y241427D01*
X710306Y240135D01*
X711158Y239024D01*
X712268Y238172D01*
X713561Y237637D01*
X714948Y237454D01*
X716336Y237637D01*
X717151Y237975D01*
X717548Y237670D01*
X717474Y237106D01*
X717657Y235719D01*
X718192Y234426D01*
X719044Y233316D01*
X720154Y232464D01*
X721447Y231928D01*
X722835Y231746D01*
X724222Y231928D01*
X725515Y232464D01*
X726625Y233316D01*
X727477Y234426D01*
X728013Y235719D01*
X728195Y237106D01*
X728013Y238494D01*
X727477Y239787D01*
X726625Y240897D01*
X725515Y241749D01*
X724222Y242284D01*
X722835Y242467D01*
X721447Y242284D01*
X720632Y241947D01*
X720235Y242251D01*
X720309Y242815D01*
X720126Y244202D01*
X719591Y245495D01*
X718739Y246606D01*
X717629Y247458D01*
X716336Y247993D01*
X714948Y248176D01*
D02*
G37*
G36*
X89075Y243340D02*
X87724Y243207D01*
X86425Y242813D01*
X85229Y242174D01*
X84179Y241313D01*
X83318Y240264D01*
X82679Y239067D01*
X82285Y237768D01*
X82152Y236417D01*
X82285Y235067D01*
X82679Y233768D01*
X83318Y232571D01*
X84179Y231522D01*
X85229Y230661D01*
X86425Y230021D01*
X87724Y229627D01*
X89075Y229494D01*
X90425Y229627D01*
X91724Y230021D01*
X92921Y230661D01*
X93970Y231522D01*
X94831Y232571D01*
X95471Y233768D01*
X95865Y235067D01*
X95998Y236417D01*
X95865Y237768D01*
X95471Y239067D01*
X94831Y240264D01*
X93970Y241313D01*
X92921Y242174D01*
X91724Y242813D01*
X90425Y243207D01*
X89075Y243340D01*
D02*
G37*
G36*
X51279D02*
X49929Y243207D01*
X48630Y242813D01*
X47433Y242174D01*
X46384Y241313D01*
X45523Y240264D01*
X44883Y239067D01*
X44489Y237768D01*
X44356Y236417D01*
X44489Y235067D01*
X44883Y233768D01*
X45523Y232571D01*
X46384Y231522D01*
X47433Y230661D01*
X48630Y230021D01*
X49929Y229627D01*
X51279Y229494D01*
X52630Y229627D01*
X53929Y230021D01*
X55126Y230661D01*
X56175Y231522D01*
X57036Y232571D01*
X57676Y233768D01*
X58070Y235067D01*
X58203Y236417D01*
X58070Y237768D01*
X57676Y239067D01*
X57036Y240264D01*
X56175Y241313D01*
X55126Y242174D01*
X53929Y242813D01*
X52630Y243207D01*
X51279Y243340D01*
D02*
G37*
G36*
X70177D02*
X68827Y243207D01*
X67528Y242813D01*
X66331Y242174D01*
X65282Y241313D01*
X64421Y240264D01*
X63781Y239067D01*
X63387Y237768D01*
X63254Y236417D01*
X63387Y235067D01*
X63781Y233768D01*
X64421Y232571D01*
X65282Y231522D01*
X66331Y230661D01*
X67528Y230021D01*
X68827Y229627D01*
X69287Y229582D01*
Y229080D01*
X68827Y229034D01*
X67528Y228640D01*
X66331Y228000D01*
X65282Y227139D01*
X64421Y226090D01*
X63781Y224893D01*
X63387Y223595D01*
X63254Y222244D01*
X63387Y220894D01*
X63781Y219595D01*
X64421Y218398D01*
X65282Y217349D01*
X66331Y216488D01*
X67528Y215848D01*
X68827Y215454D01*
X70177Y215321D01*
X71528Y215454D01*
X72826Y215848D01*
X74023Y216488D01*
X75072Y217349D01*
X75933Y218398D01*
X76573Y219595D01*
X76967Y220894D01*
X77100Y222244D01*
X76967Y223595D01*
X76573Y224893D01*
X75933Y226090D01*
X75072Y227139D01*
X74023Y228000D01*
X72826Y228640D01*
X71528Y229034D01*
X71068Y229080D01*
Y229582D01*
X71528Y229627D01*
X72826Y230021D01*
X74023Y230661D01*
X75072Y231522D01*
X75933Y232571D01*
X76573Y233768D01*
X76967Y235067D01*
X77100Y236417D01*
X76967Y237768D01*
X76573Y239067D01*
X75933Y240264D01*
X75072Y241313D01*
X74023Y242174D01*
X72826Y242813D01*
X71528Y243207D01*
X70177Y243340D01*
D02*
G37*
G36*
X215286Y227044D02*
X213898Y226862D01*
X212605Y226326D01*
X211495Y225474D01*
X210643Y224364D01*
X210108Y223071D01*
X209925Y221683D01*
X210108Y220296D01*
X210643Y219003D01*
X211197Y218281D01*
X211034Y217672D01*
X210705Y217536D01*
X209595Y216684D01*
X208743Y215574D01*
X208208Y214281D01*
X208025Y212894D01*
X208208Y211506D01*
X208743Y210213D01*
X209595Y209103D01*
X210705Y208251D01*
X211998Y207716D01*
X213386Y207533D01*
X214773Y207716D01*
X216066Y208251D01*
X217177Y209103D01*
X218028Y210213D01*
X218564Y211506D01*
X218747Y212894D01*
X218564Y214281D01*
X218028Y215574D01*
X217475Y216296D01*
X217638Y216905D01*
X217966Y217041D01*
X219076Y217893D01*
X219928Y219003D01*
X220464Y220296D01*
X220647Y221683D01*
X220464Y223071D01*
X219928Y224364D01*
X219076Y225474D01*
X217966Y226326D01*
X216673Y226862D01*
X215286Y227044D01*
D02*
G37*
G36*
X714948Y216680D02*
X713561Y216497D01*
X712268Y215962D01*
X711158Y215110D01*
X710306Y213999D01*
X709770Y212706D01*
X709587Y211319D01*
X709770Y209931D01*
X710306Y208639D01*
X711158Y207528D01*
X712268Y206676D01*
X713561Y206141D01*
X714948Y205958D01*
X716336Y206141D01*
X717178Y206490D01*
X717611Y206240D01*
X717657Y205896D01*
X718192Y204603D01*
X719044Y203493D01*
X720154Y202641D01*
X721447Y202105D01*
X722835Y201923D01*
X724222Y202105D01*
X725515Y202641D01*
X726625Y203493D01*
X727477Y204603D01*
X728013Y205896D01*
X728195Y207283D01*
X728013Y208671D01*
X727477Y209964D01*
X726625Y211074D01*
X725515Y211926D01*
X724222Y212462D01*
X722835Y212644D01*
X721447Y212462D01*
X720605Y212113D01*
X720172Y212363D01*
X720126Y212706D01*
X719591Y213999D01*
X718739Y215110D01*
X717629Y215962D01*
X716336Y216497D01*
X714948Y216680D01*
D02*
G37*
G36*
X885827Y231345D02*
X883510Y231163D01*
X881250Y230620D01*
X879103Y229731D01*
X877122Y228517D01*
X875355Y227007D01*
X873846Y225240D01*
X872631Y223259D01*
X871742Y221112D01*
X871200Y218852D01*
X871017Y216535D01*
X871200Y214219D01*
X871742Y211959D01*
X872631Y209812D01*
X873846Y207831D01*
X875355Y206064D01*
X877122Y204554D01*
X879103Y203340D01*
X881250Y202451D01*
X883510Y201908D01*
X885827Y201726D01*
X888144Y201908D01*
X890403Y202451D01*
X892550Y203340D01*
X894532Y204554D01*
X896299Y206064D01*
X897808Y207831D01*
X899022Y209812D01*
X899911Y211959D01*
X900454Y214219D01*
X900636Y216535D01*
X900454Y218852D01*
X899911Y221112D01*
X899022Y223259D01*
X897808Y225240D01*
X896299Y227007D01*
X894532Y228517D01*
X892550Y229731D01*
X890403Y230620D01*
X888144Y231163D01*
X885827Y231345D01*
D02*
G37*
G36*
X19685D02*
X17368Y231163D01*
X15109Y230620D01*
X12962Y229731D01*
X10980Y228517D01*
X9213Y227007D01*
X7704Y225240D01*
X6490Y223259D01*
X5600Y221112D01*
X5058Y218852D01*
X4876Y216535D01*
X5058Y214219D01*
X5600Y211959D01*
X6490Y209812D01*
X7704Y207831D01*
X9213Y206064D01*
X10980Y204554D01*
X12962Y203340D01*
X15109Y202451D01*
X17368Y201908D01*
X19685Y201726D01*
X22002Y201908D01*
X24261Y202451D01*
X26408Y203340D01*
X28390Y204554D01*
X30157Y206064D01*
X31666Y207831D01*
X32880Y209812D01*
X33770Y211959D01*
X34312Y214219D01*
X34495Y216535D01*
X34312Y218852D01*
X33770Y221112D01*
X32880Y223259D01*
X31666Y225240D01*
X30157Y227007D01*
X28390Y228517D01*
X26408Y229731D01*
X24261Y230620D01*
X22002Y231163D01*
X19685Y231345D01*
D02*
G37*
G36*
X831791Y177986D02*
X830123Y177854D01*
X828496Y177464D01*
X826950Y176823D01*
X825524Y175949D01*
X824252Y174863D01*
X823165Y173590D01*
X822291Y172164D01*
X821650Y170618D01*
X821260Y168991D01*
X821128Y167323D01*
X821260Y165655D01*
X821650Y164028D01*
X822291Y162482D01*
X823165Y161055D01*
X824252Y159783D01*
X825524Y158696D01*
X826950Y157822D01*
X828496Y157182D01*
X830123Y156791D01*
X831791Y156660D01*
X833459Y156791D01*
X835086Y157182D01*
X836632Y157822D01*
X838059Y158696D01*
X839331Y159783D01*
X840418Y161055D01*
X841292Y162482D01*
X841932Y164028D01*
X842323Y165655D01*
X842454Y167323D01*
X842323Y168991D01*
X841932Y170618D01*
X841292Y172164D01*
X840418Y173590D01*
X839331Y174863D01*
X838059Y175949D01*
X836632Y176823D01*
X835086Y177464D01*
X833459Y177854D01*
X831791Y177986D01*
D02*
G37*
G36*
X791634D02*
X789966Y177854D01*
X788339Y177464D01*
X786793Y176823D01*
X785366Y175949D01*
X784094Y174863D01*
X783007Y173590D01*
X782133Y172164D01*
X781493Y170618D01*
X781102Y168991D01*
X780971Y167323D01*
X781102Y165655D01*
X781493Y164028D01*
X782133Y162482D01*
X783007Y161055D01*
X784094Y159783D01*
X785366Y158696D01*
X786793Y157822D01*
X788339Y157182D01*
X789966Y156791D01*
X791634Y156660D01*
X793302Y156791D01*
X794929Y157182D01*
X796475Y157822D01*
X797901Y158696D01*
X799174Y159783D01*
X800260Y161055D01*
X801134Y162482D01*
X801775Y164028D01*
X802165Y165655D01*
X802297Y167323D01*
X802165Y168991D01*
X801775Y170618D01*
X801134Y172164D01*
X800260Y173590D01*
X799174Y174863D01*
X797901Y175949D01*
X796475Y176823D01*
X794929Y177464D01*
X793302Y177854D01*
X791634Y177986D01*
D02*
G37*
G36*
X649902D02*
X648234Y177854D01*
X646607Y177464D01*
X645061Y176823D01*
X643634Y175949D01*
X642362Y174863D01*
X641275Y173590D01*
X640401Y172164D01*
X639761Y170618D01*
X639370Y168991D01*
X639239Y167323D01*
X639370Y165655D01*
X639761Y164028D01*
X640401Y162482D01*
X641275Y161055D01*
X642362Y159783D01*
X643634Y158696D01*
X645061Y157822D01*
X646607Y157182D01*
X648234Y156791D01*
X649902Y156660D01*
X651570Y156791D01*
X653196Y157182D01*
X654742Y157822D01*
X656169Y158696D01*
X657441Y159783D01*
X658528Y161055D01*
X659402Y162482D01*
X660042Y164028D01*
X660433Y165655D01*
X660564Y167323D01*
X660433Y168991D01*
X660042Y170618D01*
X659402Y172164D01*
X658528Y173590D01*
X657441Y174863D01*
X656169Y175949D01*
X654742Y176823D01*
X653196Y177464D01*
X651570Y177854D01*
X649902Y177986D01*
D02*
G37*
G36*
X609744D02*
X608076Y177854D01*
X606449Y177464D01*
X604903Y176823D01*
X603477Y175949D01*
X602204Y174863D01*
X601118Y173590D01*
X600244Y172164D01*
X599603Y170618D01*
X599213Y168991D01*
X599081Y167323D01*
X599213Y165655D01*
X599603Y164028D01*
X600244Y162482D01*
X601118Y161055D01*
X602204Y159783D01*
X603477Y158696D01*
X604903Y157822D01*
X606449Y157182D01*
X608076Y156791D01*
X609744Y156660D01*
X611412Y156791D01*
X613039Y157182D01*
X614585Y157822D01*
X616011Y158696D01*
X617284Y159783D01*
X618370Y161055D01*
X619245Y162482D01*
X619885Y164028D01*
X620276Y165655D01*
X620407Y167323D01*
X620276Y168991D01*
X619885Y170618D01*
X619245Y172164D01*
X618370Y173590D01*
X617284Y174863D01*
X616011Y175949D01*
X614585Y176823D01*
X613039Y177464D01*
X611412Y177854D01*
X609744Y177986D01*
D02*
G37*
G36*
X532054D02*
X530386Y177854D01*
X528759Y177464D01*
X527213Y176823D01*
X525786Y175949D01*
X524514Y174863D01*
X523427Y173590D01*
X522553Y172164D01*
X521913Y170618D01*
X521522Y168991D01*
X521391Y167323D01*
X521522Y165655D01*
X521913Y164028D01*
X522553Y162482D01*
X523427Y161055D01*
X524514Y159783D01*
X525786Y158696D01*
X527213Y157822D01*
X528759Y157182D01*
X530386Y156791D01*
X532054Y156660D01*
X533722Y156791D01*
X535349Y157182D01*
X536895Y157822D01*
X538321Y158696D01*
X539594Y159783D01*
X540680Y161055D01*
X541554Y162482D01*
X542195Y164028D01*
X542585Y165655D01*
X542717Y167323D01*
X542585Y168991D01*
X542195Y170618D01*
X541554Y172164D01*
X540680Y173590D01*
X539594Y174863D01*
X538321Y175949D01*
X536895Y176823D01*
X535349Y177464D01*
X533722Y177854D01*
X532054Y177986D01*
D02*
G37*
G36*
X491896D02*
X490228Y177854D01*
X488601Y177464D01*
X487055Y176823D01*
X485629Y175949D01*
X484357Y174863D01*
X483270Y173590D01*
X482396Y172164D01*
X481755Y170618D01*
X481365Y168991D01*
X481234Y167323D01*
X481365Y165655D01*
X481755Y164028D01*
X482396Y162482D01*
X483270Y161055D01*
X484357Y159783D01*
X485629Y158696D01*
X487055Y157822D01*
X488601Y157182D01*
X490228Y156791D01*
X491896Y156660D01*
X493564Y156791D01*
X495191Y157182D01*
X496737Y157822D01*
X498164Y158696D01*
X499436Y159783D01*
X500523Y161055D01*
X501397Y162482D01*
X502037Y164028D01*
X502428Y165655D01*
X502559Y167323D01*
X502428Y168991D01*
X502037Y170618D01*
X501397Y172164D01*
X500523Y173590D01*
X499436Y174863D01*
X498164Y175949D01*
X496737Y176823D01*
X495191Y177464D01*
X493564Y177854D01*
X491896Y177986D01*
D02*
G37*
G36*
X414206D02*
X412538Y177854D01*
X410911Y177464D01*
X409365Y176823D01*
X407939Y175949D01*
X406666Y174863D01*
X405580Y173590D01*
X404705Y172164D01*
X404065Y170618D01*
X403675Y168991D01*
X403543Y167323D01*
X403675Y165655D01*
X404065Y164028D01*
X404705Y162482D01*
X405580Y161055D01*
X406666Y159783D01*
X407939Y158696D01*
X409365Y157822D01*
X410911Y157182D01*
X412538Y156791D01*
X414206Y156660D01*
X415874Y156791D01*
X417501Y157182D01*
X419047Y157822D01*
X420473Y158696D01*
X421746Y159783D01*
X422832Y161055D01*
X423707Y162482D01*
X424347Y164028D01*
X424738Y165655D01*
X424869Y167323D01*
X424738Y168991D01*
X424347Y170618D01*
X423707Y172164D01*
X422832Y173590D01*
X421746Y174863D01*
X420473Y175949D01*
X419047Y176823D01*
X417501Y177464D01*
X415874Y177854D01*
X414206Y177986D01*
D02*
G37*
G36*
X374048D02*
X372380Y177854D01*
X370754Y177464D01*
X369208Y176823D01*
X367781Y175949D01*
X366509Y174863D01*
X365422Y173590D01*
X364548Y172164D01*
X363908Y170618D01*
X363517Y168991D01*
X363386Y167323D01*
X363517Y165655D01*
X363908Y164028D01*
X364548Y162482D01*
X365422Y161055D01*
X366509Y159783D01*
X367781Y158696D01*
X369208Y157822D01*
X370754Y157182D01*
X372380Y156791D01*
X374048Y156660D01*
X375717Y156791D01*
X377344Y157182D01*
X378889Y157822D01*
X380316Y158696D01*
X381588Y159783D01*
X382675Y161055D01*
X383549Y162482D01*
X384190Y164028D01*
X384580Y165655D01*
X384711Y167323D01*
X384580Y168991D01*
X384190Y170618D01*
X383549Y172164D01*
X382675Y173590D01*
X381588Y174863D01*
X380316Y175949D01*
X378889Y176823D01*
X377344Y177464D01*
X375717Y177854D01*
X374048Y177986D01*
D02*
G37*
G36*
X296358D02*
X294690Y177854D01*
X293063Y177464D01*
X291517Y176823D01*
X290091Y175949D01*
X288819Y174863D01*
X287732Y173590D01*
X286858Y172164D01*
X286217Y170618D01*
X285827Y168991D01*
X285696Y167323D01*
X285827Y165655D01*
X286217Y164028D01*
X286858Y162482D01*
X287732Y161055D01*
X288819Y159783D01*
X290091Y158696D01*
X291517Y157822D01*
X293063Y157182D01*
X294690Y156791D01*
X296358Y156660D01*
X298026Y156791D01*
X299653Y157182D01*
X301199Y157822D01*
X302626Y158696D01*
X303898Y159783D01*
X304985Y161055D01*
X305859Y162482D01*
X306499Y164028D01*
X306890Y165655D01*
X307021Y167323D01*
X306890Y168991D01*
X306499Y170618D01*
X305859Y172164D01*
X304985Y173590D01*
X303898Y174863D01*
X302626Y175949D01*
X301199Y176823D01*
X299653Y177464D01*
X298026Y177854D01*
X296358Y177986D01*
D02*
G37*
G36*
X256201D02*
X254533Y177854D01*
X252906Y177464D01*
X251360Y176823D01*
X249933Y175949D01*
X248661Y174863D01*
X247574Y173590D01*
X246700Y172164D01*
X246060Y170618D01*
X245669Y168991D01*
X245538Y167323D01*
X245669Y165655D01*
X246060Y164028D01*
X246700Y162482D01*
X247574Y161055D01*
X248661Y159783D01*
X249933Y158696D01*
X251360Y157822D01*
X252906Y157182D01*
X254533Y156791D01*
X256201Y156660D01*
X257869Y156791D01*
X259496Y157182D01*
X261042Y157822D01*
X262468Y158696D01*
X263740Y159783D01*
X264827Y161055D01*
X265701Y162482D01*
X266342Y164028D01*
X266732Y165655D01*
X266864Y167323D01*
X266732Y168991D01*
X266342Y170618D01*
X265701Y172164D01*
X264827Y173590D01*
X263740Y174863D01*
X262468Y175949D01*
X261042Y176823D01*
X259496Y177464D01*
X257869Y177854D01*
X256201Y177986D01*
D02*
G37*
G36*
X114173D02*
X112505Y177854D01*
X110878Y177464D01*
X109332Y176823D01*
X107906Y175949D01*
X106633Y174863D01*
X105547Y173590D01*
X104673Y172164D01*
X104032Y170618D01*
X103642Y168991D01*
X103510Y167323D01*
X103642Y165655D01*
X104032Y164028D01*
X104673Y162482D01*
X105547Y161055D01*
X106633Y159783D01*
X107906Y158696D01*
X109332Y157822D01*
X110878Y157182D01*
X112505Y156791D01*
X114173Y156660D01*
X115841Y156791D01*
X117468Y157182D01*
X119014Y157822D01*
X120441Y158696D01*
X121713Y159783D01*
X122800Y161055D01*
X123674Y162482D01*
X124314Y164028D01*
X124705Y165655D01*
X124836Y167323D01*
X124705Y168991D01*
X124314Y170618D01*
X123674Y172164D01*
X122800Y173590D01*
X121713Y174863D01*
X120441Y175949D01*
X119014Y176823D01*
X117468Y177464D01*
X115841Y177854D01*
X114173Y177986D01*
D02*
G37*
G36*
X74016D02*
X72348Y177854D01*
X70721Y177464D01*
X69175Y176823D01*
X67748Y175949D01*
X66476Y174863D01*
X65389Y173590D01*
X64515Y172164D01*
X63875Y170618D01*
X63484Y168991D01*
X63353Y167323D01*
X63484Y165655D01*
X63875Y164028D01*
X64515Y162482D01*
X65389Y161055D01*
X66476Y159783D01*
X67748Y158696D01*
X69175Y157822D01*
X70721Y157182D01*
X72348Y156791D01*
X74016Y156660D01*
X75684Y156791D01*
X77311Y157182D01*
X78857Y157822D01*
X80283Y158696D01*
X81555Y159783D01*
X82642Y161055D01*
X83516Y162482D01*
X84157Y164028D01*
X84547Y165655D01*
X84679Y167323D01*
X84547Y168991D01*
X84157Y170618D01*
X83516Y172164D01*
X82642Y173590D01*
X81555Y174863D01*
X80283Y175949D01*
X78857Y176823D01*
X77311Y177464D01*
X75684Y177854D01*
X74016Y177986D01*
D02*
G37*
G36*
X607382Y135380D02*
X605994Y135198D01*
X604702Y134662D01*
X603591Y133810D01*
X602909Y132921D01*
X602885Y132909D01*
X602332D01*
X602307Y132921D01*
X601625Y133810D01*
X600515Y134662D01*
X599222Y135198D01*
X597835Y135380D01*
X596447Y135198D01*
X595154Y134662D01*
X594044Y133810D01*
X593192Y132700D01*
X592657Y131407D01*
X592474Y130020D01*
X592657Y128632D01*
X593192Y127339D01*
X593571Y126845D01*
X593192Y126352D01*
X592657Y125059D01*
X592474Y123671D01*
X592657Y122284D01*
X593192Y120991D01*
X593571Y120497D01*
X593192Y120003D01*
X592657Y118710D01*
X592474Y117323D01*
X592657Y115935D01*
X593192Y114642D01*
X593571Y114149D01*
X593192Y113655D01*
X592657Y112362D01*
X592474Y110974D01*
X592657Y109587D01*
X593192Y108294D01*
X593571Y107800D01*
X593192Y107306D01*
X592657Y106013D01*
X592474Y104626D01*
X592657Y103238D01*
X593192Y101945D01*
X593571Y101452D01*
X593192Y100958D01*
X592657Y99665D01*
X592474Y98277D01*
X592657Y96890D01*
X593192Y95597D01*
X593571Y95103D01*
X593192Y94609D01*
X592657Y93317D01*
X592474Y91929D01*
X592657Y90542D01*
X593192Y89249D01*
X593571Y88755D01*
X593192Y88261D01*
X592657Y86968D01*
X592474Y85581D01*
X592657Y84193D01*
X593192Y82900D01*
X593571Y82407D01*
X593192Y81913D01*
X592657Y80620D01*
X592474Y79232D01*
X592657Y77845D01*
X593192Y76552D01*
X593571Y76058D01*
X593192Y75564D01*
X592657Y74271D01*
X592474Y72884D01*
X592657Y71496D01*
X593192Y70203D01*
X593571Y69710D01*
X593192Y69216D01*
X592657Y67923D01*
X592474Y66535D01*
X592657Y65148D01*
X593192Y63855D01*
X594044Y62745D01*
X595154Y61893D01*
X596447Y61357D01*
X597835Y61175D01*
X599222Y61357D01*
X600515Y61893D01*
X601625Y62745D01*
X602307Y63634D01*
X602332Y63646D01*
X602885D01*
X602909Y63634D01*
X603591Y62745D01*
X604702Y61893D01*
X605994Y61357D01*
X607382Y61175D01*
X608769Y61357D01*
X610062Y61893D01*
X611173Y62745D01*
X612024Y63855D01*
X612560Y65148D01*
X612743Y66535D01*
X612560Y67923D01*
X612024Y69216D01*
X611646Y69710D01*
X612024Y70203D01*
X612560Y71496D01*
X612743Y72884D01*
X612560Y74271D01*
X612024Y75564D01*
X611646Y76058D01*
X612024Y76552D01*
X612560Y77845D01*
X612743Y79232D01*
X612560Y80620D01*
X612024Y81913D01*
X611646Y82407D01*
X612024Y82900D01*
X612560Y84193D01*
X612743Y85581D01*
X612560Y86968D01*
X612024Y88261D01*
X611646Y88755D01*
X612024Y89249D01*
X612560Y90542D01*
X612743Y91929D01*
X612560Y93317D01*
X612024Y94609D01*
X611646Y95103D01*
X612024Y95597D01*
X612560Y96890D01*
X612743Y98277D01*
X612560Y99665D01*
X612024Y100958D01*
X611646Y101452D01*
X612024Y101945D01*
X612560Y103238D01*
X612743Y104626D01*
X612560Y106013D01*
X612024Y107306D01*
X611646Y107800D01*
X612024Y108294D01*
X612560Y109587D01*
X612743Y110974D01*
X612560Y112362D01*
X612024Y113655D01*
X611646Y114149D01*
X612024Y114642D01*
X612560Y115935D01*
X612743Y117323D01*
X612560Y118710D01*
X612024Y120003D01*
X611646Y120497D01*
X612024Y120991D01*
X612560Y122284D01*
X612743Y123671D01*
X612560Y125059D01*
X612024Y126352D01*
X611646Y126845D01*
X612024Y127339D01*
X612560Y128632D01*
X612743Y130020D01*
X612560Y131407D01*
X612024Y132700D01*
X611173Y133810D01*
X610062Y134662D01*
X608769Y135198D01*
X607382Y135380D01*
D02*
G37*
G36*
X750630Y95118D02*
X690945D01*
Y75433D01*
Y65433D01*
Y55433D01*
Y45433D01*
Y35433D01*
X750630D01*
Y55118D01*
Y65433D01*
Y75433D01*
Y95118D01*
D02*
G37*
G36*
X885827Y34495D02*
X883510Y34312D01*
X881250Y33770D01*
X879103Y32880D01*
X877122Y31666D01*
X875355Y30157D01*
X873846Y28390D01*
X872631Y26408D01*
X871742Y24261D01*
X871200Y22002D01*
X871017Y19685D01*
X871200Y17368D01*
X871742Y15109D01*
X872631Y12962D01*
X873846Y10980D01*
X875355Y9213D01*
X877122Y7704D01*
X879103Y6490D01*
X881250Y5600D01*
X883510Y5058D01*
X885827Y4876D01*
X888144Y5058D01*
X890403Y5600D01*
X892550Y6490D01*
X894532Y7704D01*
X896299Y9213D01*
X897808Y10980D01*
X899022Y12962D01*
X899911Y15109D01*
X900454Y17368D01*
X900636Y19685D01*
X900454Y22002D01*
X899911Y24261D01*
X899022Y26408D01*
X897808Y28390D01*
X896299Y30157D01*
X894532Y31666D01*
X892550Y32880D01*
X890403Y33770D01*
X888144Y34312D01*
X885827Y34495D01*
D02*
G37*
G36*
X19685D02*
X17368Y34312D01*
X15109Y33770D01*
X12962Y32880D01*
X10980Y31666D01*
X9213Y30157D01*
X7704Y28390D01*
X6490Y26408D01*
X5600Y24261D01*
X5058Y22002D01*
X4876Y19685D01*
X5058Y17368D01*
X5600Y15109D01*
X6490Y12962D01*
X7704Y10980D01*
X9213Y9213D01*
X10980Y7704D01*
X12962Y6490D01*
X15109Y5600D01*
X17368Y5058D01*
X19685Y4876D01*
X22002Y5058D01*
X24261Y5600D01*
X26408Y6490D01*
X28390Y7704D01*
X30157Y9213D01*
X31666Y10980D01*
X32880Y12962D01*
X33770Y15109D01*
X34312Y17368D01*
X34495Y19685D01*
X34312Y22002D01*
X33770Y24261D01*
X32880Y26408D01*
X31666Y28390D01*
X30157Y30157D01*
X28390Y31666D01*
X26408Y32880D01*
X24261Y33770D01*
X22002Y34312D01*
X19685Y34495D01*
D02*
G37*
G36*
X685981Y579141D02*
X684593Y578958D01*
X683300Y578422D01*
X682190Y577570D01*
X681338Y576460D01*
X680802Y575167D01*
X680620Y573780D01*
X680802Y572392D01*
X681338Y571100D01*
X682190Y569989D01*
X683300Y569137D01*
X684593Y568602D01*
X685981Y568419D01*
X687368Y568602D01*
X688661Y569137D01*
X689771Y569989D01*
X690623Y571100D01*
X691159Y572392D01*
X691341Y573780D01*
X691159Y575167D01*
X690623Y576460D01*
X689771Y577570D01*
X688661Y578422D01*
X687368Y578958D01*
X685981Y579141D01*
D02*
G37*
G36*
Y534495D02*
X684593Y534312D01*
X683300Y533777D01*
X682190Y532925D01*
X681338Y531815D01*
X680802Y530522D01*
X680620Y529134D01*
X680802Y527747D01*
X681338Y526454D01*
X682190Y525344D01*
X683300Y524492D01*
X684593Y523956D01*
X685981Y523773D01*
X687368Y523956D01*
X688661Y524492D01*
X689771Y525344D01*
X690623Y526454D01*
X691159Y527747D01*
X691341Y529134D01*
X691159Y530522D01*
X690623Y531815D01*
X689771Y532925D01*
X688661Y533777D01*
X687368Y534312D01*
X685981Y534495D01*
D02*
G37*
G36*
Y489849D02*
X684593Y489667D01*
X683300Y489131D01*
X682190Y488279D01*
X681338Y487169D01*
X680802Y485876D01*
X680620Y484488D01*
X680802Y483101D01*
X681338Y481808D01*
X682190Y480698D01*
X683300Y479846D01*
X684593Y479310D01*
X685981Y479128D01*
X687368Y479310D01*
X688661Y479846D01*
X689771Y480698D01*
X690623Y481808D01*
X691159Y483101D01*
X691341Y484488D01*
X691159Y485876D01*
X690623Y487169D01*
X689771Y488279D01*
X688661Y489131D01*
X687368Y489667D01*
X685981Y489849D01*
D02*
G37*
G36*
X386768Y579141D02*
X385380Y578958D01*
X384087Y578422D01*
X382977Y577570D01*
X382125Y576460D01*
X381590Y575167D01*
X381407Y573780D01*
X381590Y572392D01*
X382125Y571100D01*
X382977Y569989D01*
X384087Y569137D01*
X385380Y568602D01*
X386768Y568419D01*
X388155Y568602D01*
X389448Y569137D01*
X390559Y569989D01*
X391410Y571100D01*
X391946Y572392D01*
X392129Y573780D01*
X391946Y575167D01*
X391410Y576460D01*
X390559Y577570D01*
X389448Y578422D01*
X388155Y578958D01*
X386768Y579141D01*
D02*
G37*
G36*
Y534495D02*
X385380Y534312D01*
X384087Y533777D01*
X382977Y532925D01*
X382125Y531815D01*
X381590Y530522D01*
X381407Y529134D01*
X381590Y527747D01*
X382125Y526454D01*
X382977Y525344D01*
X384087Y524492D01*
X385380Y523956D01*
X386768Y523773D01*
X388155Y523956D01*
X389448Y524492D01*
X390559Y525344D01*
X391410Y526454D01*
X391946Y527747D01*
X392129Y529134D01*
X391946Y530522D01*
X391410Y531815D01*
X390559Y532925D01*
X389448Y533777D01*
X388155Y534312D01*
X386768Y534495D01*
D02*
G37*
G36*
Y489849D02*
X385380Y489667D01*
X384087Y489131D01*
X382977Y488279D01*
X382125Y487169D01*
X381590Y485876D01*
X381407Y484488D01*
X381590Y483101D01*
X382125Y481808D01*
X382977Y480698D01*
X384087Y479846D01*
X385380Y479310D01*
X386768Y479128D01*
X388155Y479310D01*
X389448Y479846D01*
X390559Y480698D01*
X391410Y481808D01*
X391946Y483101D01*
X392129Y484488D01*
X391946Y485876D01*
X391410Y487169D01*
X390559Y488279D01*
X389448Y489131D01*
X388155Y489667D01*
X386768Y489849D01*
D02*
G37*
G36*
X87555Y579141D02*
X86168Y578958D01*
X84875Y578422D01*
X83765Y577570D01*
X82913Y576460D01*
X82377Y575167D01*
X82195Y573780D01*
X82377Y572392D01*
X82913Y571100D01*
X83765Y569989D01*
X84875Y569137D01*
X86168Y568602D01*
X87555Y568419D01*
X88943Y568602D01*
X90236Y569137D01*
X91346Y569989D01*
X92198Y571100D01*
X92733Y572392D01*
X92916Y573780D01*
X92733Y575167D01*
X92198Y576460D01*
X91346Y577570D01*
X90236Y578422D01*
X88943Y578958D01*
X87555Y579141D01*
D02*
G37*
G36*
Y534495D02*
X86168Y534312D01*
X84875Y533777D01*
X83765Y532925D01*
X82913Y531815D01*
X82377Y530522D01*
X82195Y529134D01*
X82377Y527747D01*
X82913Y526454D01*
X83765Y525344D01*
X84875Y524492D01*
X86168Y523956D01*
X87555Y523773D01*
X88943Y523956D01*
X90236Y524492D01*
X91346Y525344D01*
X92198Y526454D01*
X92733Y527747D01*
X92916Y529134D01*
X92733Y530522D01*
X92198Y531815D01*
X91346Y532925D01*
X90236Y533777D01*
X88943Y534312D01*
X87555Y534495D01*
D02*
G37*
G36*
Y489849D02*
X86168Y489667D01*
X84875Y489131D01*
X83765Y488279D01*
X82913Y487169D01*
X82377Y485876D01*
X82195Y484488D01*
X82377Y483101D01*
X82913Y481808D01*
X83765Y480698D01*
X84875Y479846D01*
X86168Y479310D01*
X87555Y479128D01*
X88943Y479310D01*
X90236Y479846D01*
X91346Y480698D01*
X92198Y481808D01*
X92733Y483101D01*
X92916Y484488D01*
X92733Y485876D01*
X92198Y487169D01*
X91346Y488279D01*
X90236Y489131D01*
X88943Y489667D01*
X87555Y489849D01*
D02*
G37*
%LPD*%
D45*
X522638Y218347D02*
D03*
Y228346D02*
D03*
Y218347D02*
D03*
Y228346D02*
D03*
D46*
X114173Y19685D02*
D03*
X296358D02*
D03*
X414206D02*
D03*
X532054D02*
D03*
X649902D02*
D03*
X831791D02*
D03*
D47*
X74016D02*
D03*
X256201D02*
D03*
X374048D02*
D03*
X491896D02*
D03*
X609744D02*
D03*
X791634D02*
D03*
D49*
X590158Y516929D02*
D03*
X601968Y461811D02*
D03*
X590158Y453937D02*
D03*
X598032D02*
D03*
X594095Y461811D02*
D03*
X598032Y469685D02*
D03*
X590158D02*
D03*
X594095Y477559D02*
D03*
X601968D02*
D03*
X598032Y485433D02*
D03*
X590158D02*
D03*
X601968Y493307D02*
D03*
X594095D02*
D03*
Y524803D02*
D03*
X601968D02*
D03*
X598032Y516929D02*
D03*
X601968Y509055D02*
D03*
X594095D02*
D03*
X590158Y501181D02*
D03*
X598032D02*
D03*
X301575Y462598D02*
D03*
X289764Y454724D02*
D03*
X297638D02*
D03*
X293701Y462598D02*
D03*
X297638Y470472D02*
D03*
X289764D02*
D03*
X293701Y478346D02*
D03*
X301575D02*
D03*
X297638Y486220D02*
D03*
X289764D02*
D03*
X301575Y494094D02*
D03*
X293701D02*
D03*
X301575Y525591D02*
D03*
X289764Y517717D02*
D03*
X297638D02*
D03*
X301575Y509842D02*
D03*
X293701D02*
D03*
X289764Y501968D02*
D03*
X297638D02*
D03*
X598032Y627953D02*
D03*
X590158D02*
D03*
X594095Y635827D02*
D03*
X601968D02*
D03*
X598032Y643701D02*
D03*
X590158D02*
D03*
X601968Y651575D02*
D03*
X594095D02*
D03*
X297638Y627953D02*
D03*
X289764D02*
D03*
X293701Y635827D02*
D03*
X301575D02*
D03*
X297638Y643701D02*
D03*
X289764D02*
D03*
X301575Y651575D02*
D03*
X293701D02*
D03*
Y620079D02*
D03*
X301575D02*
D03*
X289764Y612205D02*
D03*
X297638D02*
D03*
X301575Y604331D02*
D03*
X293701D02*
D03*
X289764Y596457D02*
D03*
X297638D02*
D03*
Y564961D02*
D03*
X289764D02*
D03*
X293701Y572835D02*
D03*
X301575D02*
D03*
X297638Y580709D02*
D03*
X289764D02*
D03*
X301575Y588583D02*
D03*
X293701D02*
D03*
Y557087D02*
D03*
X301575D02*
D03*
X289764Y549213D02*
D03*
X297638D02*
D03*
X301575Y541339D02*
D03*
X293701D02*
D03*
X289764Y533464D02*
D03*
X297638D02*
D03*
X293701Y525591D02*
D03*
X594095Y619291D02*
D03*
X601968D02*
D03*
X590158Y611417D02*
D03*
X598032D02*
D03*
X601968Y603543D02*
D03*
X594095D02*
D03*
X590158Y595669D02*
D03*
X598032D02*
D03*
Y564173D02*
D03*
X590158D02*
D03*
X594095Y572047D02*
D03*
X601968D02*
D03*
X598032Y579921D02*
D03*
X590158D02*
D03*
X601968Y587795D02*
D03*
X594095D02*
D03*
Y556299D02*
D03*
X601968D02*
D03*
X590158Y548425D02*
D03*
X598032D02*
D03*
X601968Y540551D02*
D03*
X594095D02*
D03*
X590158Y532677D02*
D03*
X598032D02*
D03*
X894488Y383071D02*
D03*
X886614D02*
D03*
X890551Y390945D02*
D03*
X898425D02*
D03*
X894488Y398819D02*
D03*
X886614D02*
D03*
X898425Y406693D02*
D03*
X890551D02*
D03*
X886614Y470472D02*
D03*
X894488Y454724D02*
D03*
X886614D02*
D03*
X890551Y462598D02*
D03*
X898425D02*
D03*
X894488Y470472D02*
D03*
X890551Y478346D02*
D03*
X898425D02*
D03*
X894488Y486220D02*
D03*
X886614D02*
D03*
X898425Y494094D02*
D03*
X890551D02*
D03*
X894488Y501968D02*
D03*
X886614D02*
D03*
X890551Y509842D02*
D03*
X898425D02*
D03*
X894488Y517717D02*
D03*
X886614D02*
D03*
X898425Y525591D02*
D03*
X890551D02*
D03*
X894488Y533464D02*
D03*
X886614D02*
D03*
X890551Y541338D02*
D03*
X898425D02*
D03*
X894488Y549213D02*
D03*
X886614D02*
D03*
X898425Y557087D02*
D03*
X890551D02*
D03*
Y588583D02*
D03*
X898425D02*
D03*
X886614Y580709D02*
D03*
X894488D02*
D03*
X898425Y572835D02*
D03*
X890551D02*
D03*
X886614Y564961D02*
D03*
X894488D02*
D03*
Y596457D02*
D03*
X886614D02*
D03*
X890551Y604331D02*
D03*
X898425D02*
D03*
X894488Y612205D02*
D03*
X886614D02*
D03*
X898425Y620079D02*
D03*
X890551D02*
D03*
X196851Y574803D02*
D03*
Y559056D02*
D03*
Y543307D02*
D03*
Y527559D02*
D03*
Y511811D02*
D03*
Y496063D02*
D03*
Y480315D02*
D03*
Y464567D02*
D03*
X192914Y582678D02*
D03*
X188977Y574803D02*
D03*
X192914Y566929D02*
D03*
X188977Y559056D02*
D03*
X192914Y551182D02*
D03*
X188977Y543307D02*
D03*
X192914Y535433D02*
D03*
X188977Y527559D02*
D03*
X192914Y519685D02*
D03*
X188977Y511811D02*
D03*
X192914Y503937D02*
D03*
X188977Y496063D02*
D03*
X192914Y488189D02*
D03*
X188977Y480315D02*
D03*
X192914Y472441D02*
D03*
X188977Y464567D02*
D03*
X192914Y456693D02*
D03*
X185039Y582678D02*
D03*
X181103Y574803D02*
D03*
X185039Y566929D02*
D03*
X181103Y559056D02*
D03*
X185039Y551182D02*
D03*
Y535433D02*
D03*
Y519685D02*
D03*
Y503937D02*
D03*
Y488189D02*
D03*
X181103Y480315D02*
D03*
X185039Y472441D02*
D03*
X181103Y464567D02*
D03*
X185039Y456693D02*
D03*
X177165Y582678D02*
D03*
X173229Y574803D02*
D03*
X177165Y566929D02*
D03*
X173229Y559056D02*
D03*
X177165Y551182D02*
D03*
Y488189D02*
D03*
X173229Y480315D02*
D03*
X177165Y472441D02*
D03*
X173229Y464567D02*
D03*
X177165Y456693D02*
D03*
X169291Y582678D02*
D03*
X165355Y574803D02*
D03*
X169291Y566929D02*
D03*
X165355Y559056D02*
D03*
X169291Y551182D02*
D03*
Y488189D02*
D03*
X165355Y480315D02*
D03*
X169291Y472441D02*
D03*
X165355Y464567D02*
D03*
X169291Y456693D02*
D03*
X161417Y582678D02*
D03*
X157481Y574803D02*
D03*
X161417Y566929D02*
D03*
X157481Y559056D02*
D03*
X161417Y551182D02*
D03*
Y488189D02*
D03*
X157481Y480315D02*
D03*
X161417Y472441D02*
D03*
X157481Y464567D02*
D03*
X161417Y456693D02*
D03*
X153543Y582678D02*
D03*
X149606Y574803D02*
D03*
X153543Y566929D02*
D03*
X149606Y559056D02*
D03*
X153543Y551182D02*
D03*
Y488189D02*
D03*
X149606Y480315D02*
D03*
X153543Y472441D02*
D03*
X149606Y464567D02*
D03*
X153543Y456693D02*
D03*
X141732Y574803D02*
D03*
X145669Y566929D02*
D03*
X141732Y559056D02*
D03*
X145669Y551182D02*
D03*
Y488189D02*
D03*
X141732Y480315D02*
D03*
X145669Y472441D02*
D03*
X141732Y464567D02*
D03*
X145669Y456693D02*
D03*
X133858Y574803D02*
D03*
X137795Y566929D02*
D03*
X133858Y559056D02*
D03*
X137795Y551182D02*
D03*
Y488189D02*
D03*
X133858Y480315D02*
D03*
X137795Y472441D02*
D03*
X133858Y464567D02*
D03*
X137795Y456693D02*
D03*
X125984Y574803D02*
D03*
X129921Y566929D02*
D03*
X125984Y559056D02*
D03*
X129921Y551182D02*
D03*
Y488189D02*
D03*
X125984Y480315D02*
D03*
X129921Y472441D02*
D03*
X125984Y464567D02*
D03*
X118110Y574803D02*
D03*
X122047Y566929D02*
D03*
X118110Y559056D02*
D03*
X122047Y551182D02*
D03*
X118110Y543307D02*
D03*
X122047Y535433D02*
D03*
X118110Y527559D02*
D03*
X122047Y519685D02*
D03*
X118110Y511811D02*
D03*
X122047Y503937D02*
D03*
X118110Y496063D02*
D03*
X122047Y488189D02*
D03*
X118110Y480315D02*
D03*
X122047Y472441D02*
D03*
X114173Y566929D02*
D03*
Y551182D02*
D03*
Y535433D02*
D03*
Y519685D02*
D03*
Y503937D02*
D03*
Y488189D02*
D03*
X496063Y574803D02*
D03*
Y559056D02*
D03*
Y543307D02*
D03*
Y527559D02*
D03*
Y511811D02*
D03*
Y496063D02*
D03*
Y480315D02*
D03*
Y464567D02*
D03*
X492126Y582678D02*
D03*
X488189Y574803D02*
D03*
X492126Y566929D02*
D03*
X488189Y559056D02*
D03*
X492126Y551182D02*
D03*
X488189Y543307D02*
D03*
X492126Y535433D02*
D03*
X488189Y527559D02*
D03*
X492126Y519685D02*
D03*
X488189Y511811D02*
D03*
X492126Y503937D02*
D03*
X488189Y496063D02*
D03*
X492126Y488189D02*
D03*
X488189Y480315D02*
D03*
X492126Y472441D02*
D03*
X488189Y464567D02*
D03*
X492126Y456693D02*
D03*
X484252Y582678D02*
D03*
X480315Y574803D02*
D03*
X484252Y566929D02*
D03*
X480315Y559056D02*
D03*
X484252Y551182D02*
D03*
Y535433D02*
D03*
Y519685D02*
D03*
Y503937D02*
D03*
Y488189D02*
D03*
X480315Y480315D02*
D03*
X484252Y472441D02*
D03*
X480315Y464567D02*
D03*
X484252Y456693D02*
D03*
X476378Y582678D02*
D03*
X472441Y574803D02*
D03*
X476378Y566929D02*
D03*
X472441Y559056D02*
D03*
X476378Y551182D02*
D03*
Y488189D02*
D03*
X472441Y480315D02*
D03*
X476378Y472441D02*
D03*
X472441Y464567D02*
D03*
X476378Y456693D02*
D03*
X468504Y582678D02*
D03*
X464567Y574803D02*
D03*
X468504Y566929D02*
D03*
X464567Y559056D02*
D03*
X468504Y551182D02*
D03*
Y488189D02*
D03*
X464567Y480315D02*
D03*
X468504Y472441D02*
D03*
X464567Y464567D02*
D03*
X468504Y456693D02*
D03*
X460630Y582678D02*
D03*
X456693Y574803D02*
D03*
X460630Y566929D02*
D03*
X456693Y559056D02*
D03*
X460630Y551182D02*
D03*
Y488189D02*
D03*
X456693Y480315D02*
D03*
X460630Y472441D02*
D03*
X456693Y464567D02*
D03*
X460630Y456693D02*
D03*
X452756Y582678D02*
D03*
X448819Y574803D02*
D03*
X452756Y566929D02*
D03*
X448819Y559056D02*
D03*
X452756Y551182D02*
D03*
Y488189D02*
D03*
X448819Y480315D02*
D03*
X452756Y472441D02*
D03*
X448819Y464567D02*
D03*
X452756Y456693D02*
D03*
X440945Y574803D02*
D03*
X444882Y566929D02*
D03*
X440945Y559056D02*
D03*
X444882Y551182D02*
D03*
Y488189D02*
D03*
X440945Y480315D02*
D03*
X444882Y472441D02*
D03*
X440945Y464567D02*
D03*
X444882Y456693D02*
D03*
X433071Y574803D02*
D03*
X437008Y566929D02*
D03*
X433071Y559056D02*
D03*
X437008Y551182D02*
D03*
Y488189D02*
D03*
X433071Y480315D02*
D03*
X437008Y472441D02*
D03*
X433071Y464567D02*
D03*
X437008Y456693D02*
D03*
X425197Y574803D02*
D03*
X429134Y566929D02*
D03*
X425197Y559056D02*
D03*
X429134Y551182D02*
D03*
Y488189D02*
D03*
X425197Y480315D02*
D03*
X429134Y472441D02*
D03*
X425197Y464567D02*
D03*
X417323Y574803D02*
D03*
X421260Y566929D02*
D03*
X417323Y559056D02*
D03*
X421260Y551182D02*
D03*
X417323Y543307D02*
D03*
X421260Y535433D02*
D03*
X417323Y527559D02*
D03*
X421260Y519685D02*
D03*
X417323Y511811D02*
D03*
X421260Y503937D02*
D03*
X417323Y496063D02*
D03*
X421260Y488189D02*
D03*
X417323Y480315D02*
D03*
X421260Y472441D02*
D03*
X413386Y566929D02*
D03*
Y551182D02*
D03*
Y535433D02*
D03*
Y519685D02*
D03*
Y503937D02*
D03*
Y488189D02*
D03*
X795276Y574803D02*
D03*
Y559056D02*
D03*
Y543307D02*
D03*
Y527559D02*
D03*
Y511811D02*
D03*
Y496063D02*
D03*
Y480315D02*
D03*
Y464567D02*
D03*
X791339Y582678D02*
D03*
X787402Y574803D02*
D03*
X791339Y566929D02*
D03*
X787402Y559056D02*
D03*
X791339Y551182D02*
D03*
X787402Y543307D02*
D03*
X791339Y535433D02*
D03*
X787402Y527559D02*
D03*
X791339Y519685D02*
D03*
X787402Y511811D02*
D03*
X791339Y503937D02*
D03*
X787402Y496063D02*
D03*
X791339Y488189D02*
D03*
X787402Y480315D02*
D03*
X791339Y472441D02*
D03*
X787402Y464567D02*
D03*
X791339Y456693D02*
D03*
X783465Y582678D02*
D03*
X779528Y574803D02*
D03*
X783465Y566929D02*
D03*
X779528Y559056D02*
D03*
X783465Y551182D02*
D03*
Y535433D02*
D03*
Y519685D02*
D03*
Y503937D02*
D03*
Y488189D02*
D03*
X779528Y480315D02*
D03*
X783465Y472441D02*
D03*
X779528Y464567D02*
D03*
X783465Y456693D02*
D03*
X775591Y582678D02*
D03*
X771654Y574803D02*
D03*
X775591Y566929D02*
D03*
X771654Y559056D02*
D03*
X775591Y551182D02*
D03*
Y488189D02*
D03*
X771654Y480315D02*
D03*
X775591Y472441D02*
D03*
X771654Y464567D02*
D03*
X775591Y456693D02*
D03*
X767717Y582678D02*
D03*
X763780Y574803D02*
D03*
X767717Y566929D02*
D03*
X763780Y559056D02*
D03*
X767717Y551182D02*
D03*
Y488189D02*
D03*
X763780Y480315D02*
D03*
X767717Y472441D02*
D03*
X763780Y464567D02*
D03*
X767717Y456693D02*
D03*
X759843Y582678D02*
D03*
X755906Y574803D02*
D03*
X759843Y566929D02*
D03*
X755906Y559056D02*
D03*
X759843Y551182D02*
D03*
Y488189D02*
D03*
X755906Y480315D02*
D03*
X759843Y472441D02*
D03*
X755906Y464567D02*
D03*
X759843Y456693D02*
D03*
X751969Y582678D02*
D03*
X748032Y574803D02*
D03*
X751969Y566929D02*
D03*
X748032Y559056D02*
D03*
X751969Y551182D02*
D03*
Y488189D02*
D03*
X748032Y480315D02*
D03*
X751969Y472441D02*
D03*
X748032Y464567D02*
D03*
X751969Y456693D02*
D03*
X740158Y574803D02*
D03*
X744095Y566929D02*
D03*
X740158Y559056D02*
D03*
X744095Y551182D02*
D03*
Y488189D02*
D03*
X740158Y480315D02*
D03*
X744095Y472441D02*
D03*
X740158Y464567D02*
D03*
X744095Y456693D02*
D03*
X732284Y574803D02*
D03*
X736221Y566929D02*
D03*
X732284Y559056D02*
D03*
X736221Y551182D02*
D03*
Y488189D02*
D03*
X732284Y480315D02*
D03*
X736221Y472441D02*
D03*
X732284Y464567D02*
D03*
X736221Y456693D02*
D03*
X724410Y574803D02*
D03*
X728347Y566929D02*
D03*
X724410Y559056D02*
D03*
X728347Y551182D02*
D03*
Y488189D02*
D03*
X724410Y480315D02*
D03*
X728347Y472441D02*
D03*
X724410Y464567D02*
D03*
X716536Y574803D02*
D03*
X720473Y566929D02*
D03*
X716536Y559056D02*
D03*
X720473Y551182D02*
D03*
X716536Y543307D02*
D03*
X720473Y535433D02*
D03*
X716536Y527559D02*
D03*
X720473Y519685D02*
D03*
X716536Y511811D02*
D03*
X720473Y503937D02*
D03*
X716536Y496063D02*
D03*
X720473Y488189D02*
D03*
X716536Y480315D02*
D03*
X720473Y472441D02*
D03*
X712599Y566929D02*
D03*
Y551182D02*
D03*
Y535433D02*
D03*
Y519685D02*
D03*
Y503937D02*
D03*
Y488189D02*
D03*
D50*
X740787Y55276D02*
D03*
X730787D02*
D03*
X720787D02*
D03*
X710787D02*
D03*
X700787D02*
D03*
X740787Y65276D02*
D03*
X730787D02*
D03*
X720787D02*
D03*
X710787D02*
D03*
X700787D02*
D03*
X740787Y75276D02*
D03*
X730787D02*
D03*
X720787D02*
D03*
X710787D02*
D03*
X700787D02*
D03*
X740787Y85276D02*
D03*
X730787D02*
D03*
X720787D02*
D03*
X710787D02*
D03*
X700787D02*
D03*
Y45276D02*
D03*
X710787D02*
D03*
X720787D02*
D03*
X730787D02*
D03*
X740787D02*
D03*
D03*
X730787D02*
D03*
X720787D02*
D03*
X710787D02*
D03*
X700787D02*
D03*
X165354D02*
D03*
X175354D02*
D03*
X185354D02*
D03*
X195354D02*
D03*
X205354D02*
D03*
D03*
X195354D02*
D03*
X185354D02*
D03*
X175354D02*
D03*
X165354D02*
D03*
Y85276D02*
D03*
X175354D02*
D03*
X185354D02*
D03*
X195354D02*
D03*
X205354D02*
D03*
X165354Y75276D02*
D03*
X175354D02*
D03*
X185354D02*
D03*
X195354D02*
D03*
X205354D02*
D03*
X165354Y65276D02*
D03*
X175354D02*
D03*
X185354D02*
D03*
X195354D02*
D03*
X205354D02*
D03*
X165354Y55276D02*
D03*
X175354D02*
D03*
X185354D02*
D03*
X195354D02*
D03*
X205354D02*
D03*
X771969Y509134D02*
D03*
X761969D02*
D03*
X751968D02*
D03*
X741968D02*
D03*
X731968D02*
D03*
X771969Y519134D02*
D03*
X761969D02*
D03*
X751968D02*
D03*
X741968D02*
D03*
X731968D02*
D03*
X771969Y529134D02*
D03*
X761969D02*
D03*
X751968D02*
D03*
X741968D02*
D03*
X731968D02*
D03*
X771969Y539134D02*
D03*
X761969D02*
D03*
X751968D02*
D03*
X741968D02*
D03*
X731968D02*
D03*
Y499134D02*
D03*
X741968D02*
D03*
X751968D02*
D03*
X761969D02*
D03*
X771969D02*
D03*
D03*
X761969D02*
D03*
X751968D02*
D03*
X741968D02*
D03*
X731968D02*
D03*
X432756D02*
D03*
X442756D02*
D03*
X452756D02*
D03*
X462756D02*
D03*
X472756D02*
D03*
D03*
X462756D02*
D03*
X452756D02*
D03*
X442756D02*
D03*
X432756D02*
D03*
Y539134D02*
D03*
X442756D02*
D03*
X452756D02*
D03*
X462756D02*
D03*
X472756D02*
D03*
X432756Y529134D02*
D03*
X442756D02*
D03*
X452756D02*
D03*
X462756D02*
D03*
X472756D02*
D03*
X432756Y519134D02*
D03*
X442756D02*
D03*
X452756D02*
D03*
X462756D02*
D03*
X472756D02*
D03*
X432756Y509134D02*
D03*
X442756D02*
D03*
X452756D02*
D03*
X462756D02*
D03*
X472756D02*
D03*
X173543D02*
D03*
X163543D02*
D03*
X153543D02*
D03*
X143543D02*
D03*
X133543D02*
D03*
X173543Y519134D02*
D03*
X163543D02*
D03*
X153543D02*
D03*
X143543D02*
D03*
X133543D02*
D03*
X173543Y529134D02*
D03*
X163543D02*
D03*
X153543D02*
D03*
X143543D02*
D03*
X133543D02*
D03*
X173543Y539134D02*
D03*
X163543D02*
D03*
X153543D02*
D03*
X143543D02*
D03*
X133543D02*
D03*
Y499134D02*
D03*
X143543D02*
D03*
X153543D02*
D03*
X163543D02*
D03*
X173543D02*
D03*
D03*
X163543D02*
D03*
X153543D02*
D03*
X143543D02*
D03*
X133543D02*
D03*
D53*
X298735Y358679D02*
D03*
X646559Y356594D02*
D03*
X653724D02*
D03*
X650141D02*
D03*
X49410D02*
D03*
X56575D02*
D03*
X52993D02*
D03*
X349371D02*
D03*
X356536D02*
D03*
X352953D02*
D03*
X321949Y367127D02*
D03*
X452756Y90945D02*
D03*
Y84596D02*
D03*
Y78248D02*
D03*
Y71900D02*
D03*
Y65551D02*
D03*
X447982Y68725D02*
D03*
Y75074D02*
D03*
Y81422D02*
D03*
Y87771D02*
D03*
X443209Y65551D02*
D03*
Y71900D02*
D03*
Y78248D02*
D03*
Y84596D02*
D03*
Y90945D02*
D03*
X764160Y635823D02*
D03*
X808582D02*
D03*
X847004Y573780D02*
D03*
Y529134D02*
D03*
Y484488D02*
D03*
X828582Y402446D02*
D03*
X784160D02*
D03*
X529369D02*
D03*
X484947D02*
D03*
X464947Y635823D02*
D03*
X509369D02*
D03*
X547791Y573780D02*
D03*
Y529134D02*
D03*
Y484488D02*
D03*
X248579D02*
D03*
Y529134D02*
D03*
Y573780D02*
D03*
X210118Y635823D02*
D03*
X165695D02*
D03*
X230118Y402446D02*
D03*
X185695D02*
D03*
D54*
X737153Y366339D02*
D03*
X743059Y370571D02*
D03*
X439882Y366339D02*
D03*
X445788Y370571D02*
D03*
X145571D02*
D03*
X139665Y366339D02*
D03*
D55*
X847043Y420907D02*
Y613331D01*
X547830Y420907D02*
Y613331D01*
X300098Y367127D02*
X321949D01*
X764160Y635823D02*
X808582D01*
X824551D01*
X847043Y613331D01*
X828582Y402446D02*
X847043Y420907D01*
X784160Y402446D02*
X828582D01*
X464947Y635823D02*
X509369D01*
X525338D01*
X547830Y613331D01*
X529369Y402446D02*
X547830Y420907D01*
X484947Y402446D02*
X529369D01*
X185695D02*
X230118D01*
X248579Y420907D01*
Y484488D01*
Y529134D02*
Y573780D01*
Y484488D02*
Y529134D01*
Y573780D02*
Y613331D01*
X226086Y635823D02*
X248579Y613331D01*
X210118Y635823D02*
X226086D01*
X165695D02*
X210118D01*
D56*
X650141Y356594D02*
X687404Y393858D01*
Y432874D01*
X352953Y356594D02*
X390217Y393858D01*
Y432874D01*
X90256Y393858D02*
Y432874D01*
X52993Y356594D02*
X90256Y393858D01*
M02*
