G04*
G04 #@! TF.GenerationSoftware,Altium Limited,Altium Designer,18.1.11 (251)*
G04*
G04 Layer_Physical_Order=1*
G04 Layer_Color=255*
%FSLAX25Y25*%
%MOIN*%
G70*
G01*
G75*
%ADD14C,0.03937*%
%ADD15C,0.01181*%
%ADD16O,0.02362X0.07284*%
%ADD17R,0.03543X0.03347*%
%ADD18R,0.18110X0.10236*%
%ADD19R,0.05118X0.05709*%
%ADD20R,0.05709X0.05118*%
%ADD21R,0.05118X0.07087*%
%ADD22R,0.04528X0.14173*%
%ADD23R,0.06299X0.06693*%
%ADD24R,0.07087X0.05118*%
%ADD25R,0.03347X0.03543*%
%ADD44C,0.01575*%
%ADD45C,0.05512*%
%ADD46C,0.13386*%
%ADD47O,0.13780X0.13386*%
%ADD48C,0.06299*%
%ADD49C,0.07874*%
%ADD50R,0.11811X0.11811*%
%ADD51C,0.21654*%
%ADD52C,0.05906*%
%ADD53C,0.02756*%
%ADD54C,0.03937*%
G36*
X798034Y358268D02*
X798034Y337894D01*
X786322Y337894D01*
X786322Y358268D01*
X798034Y358268D01*
D02*
G37*
G36*
X656007D02*
X656007Y337894D01*
X644294Y337894D01*
X644294Y358268D01*
X656007Y358268D01*
D02*
G37*
G36*
X500551D02*
X500551Y337894D01*
X488839Y337894D01*
X488839Y358268D01*
X500551Y358268D01*
D02*
G37*
G36*
X358819D02*
X358819Y337894D01*
X347106Y337894D01*
X347106Y358268D01*
X358819Y358268D01*
D02*
G37*
G36*
X200649D02*
X200649Y337894D01*
X188936Y337894D01*
X188937Y358268D01*
X200649Y358268D01*
D02*
G37*
G36*
X58858D02*
X58858Y337894D01*
X47146Y337894D01*
X47146Y358268D01*
X58858Y358268D01*
D02*
G37*
G36*
X903543Y204035D02*
X1969D01*
Y295276D01*
X31038D01*
X31481Y295138D01*
Y287429D01*
X33217D01*
Y286477D01*
X31481D01*
Y278768D01*
X38599D01*
Y280800D01*
X40912D01*
X41537Y280382D01*
X42465Y280198D01*
X43393Y280382D01*
X44179Y280908D01*
X44705Y281695D01*
X44889Y282622D01*
X44705Y283550D01*
X44179Y284337D01*
X43393Y284862D01*
X42465Y285047D01*
X41537Y284862D01*
X40912Y284445D01*
X38599D01*
Y286477D01*
X36862D01*
Y287429D01*
X38599D01*
Y289461D01*
X43269D01*
Y288823D01*
X43438Y287972D01*
X43920Y287250D01*
X44642Y286768D01*
X45493Y286599D01*
X46344Y286768D01*
X47065Y287250D01*
X47547Y287972D01*
X47716Y288823D01*
Y293744D01*
X47547Y294595D01*
X47387Y294835D01*
X47623Y295276D01*
X48362D01*
X48598Y294835D01*
X48438Y294595D01*
X48269Y293744D01*
Y288823D01*
X48438Y287972D01*
X48871Y287324D01*
Y284508D01*
X47130D01*
Y279161D01*
X52674D01*
Y284508D01*
X52114D01*
Y287324D01*
X52547Y287972D01*
X52716Y288823D01*
Y293744D01*
X52547Y294595D01*
X52387Y294835D01*
X52623Y295276D01*
X53363D01*
X53598Y294835D01*
X53438Y294595D01*
X53269Y293744D01*
Y288823D01*
X53438Y287972D01*
X53871Y287324D01*
Y284508D01*
X53312D01*
Y279161D01*
X58855D01*
Y284508D01*
X57114D01*
Y287324D01*
X57547Y287972D01*
X57716Y288823D01*
Y293744D01*
X57547Y294595D01*
X57387Y294835D01*
X57623Y295276D01*
X172829D01*
X173272Y295138D01*
Y287429D01*
X175008D01*
Y286477D01*
X173272D01*
Y278768D01*
X175008D01*
Y269232D01*
X175008Y269232D01*
X175147Y268535D01*
X175542Y267944D01*
X183554Y259932D01*
X183554Y259932D01*
X184145Y259537D01*
X184843Y259398D01*
X231529D01*
X236688Y254239D01*
X236835Y253501D01*
X237360Y252715D01*
X238147Y252189D01*
X239075Y252005D01*
X240003Y252189D01*
X240789Y252715D01*
X241315Y253501D01*
X241499Y254429D01*
X241315Y255357D01*
X240789Y256144D01*
X240003Y256669D01*
X239265Y256816D01*
X233572Y262509D01*
X232981Y262904D01*
X232283Y263043D01*
X232283Y263043D01*
X185597D01*
X178653Y269987D01*
Y278768D01*
X180390D01*
Y280800D01*
X182703D01*
X183328Y280382D01*
X184256Y280198D01*
X185184Y280382D01*
X185970Y280908D01*
X186496Y281695D01*
X186680Y282622D01*
X186496Y283550D01*
X185970Y284337D01*
X185184Y284862D01*
X184256Y285047D01*
X183328Y284862D01*
X182703Y284445D01*
X180390D01*
Y286477D01*
X178653D01*
Y287429D01*
X180390D01*
Y289461D01*
X185060D01*
Y288823D01*
X185229Y287972D01*
X185711Y287250D01*
X186433Y286768D01*
X187284Y286599D01*
X188135Y286768D01*
X188856Y287250D01*
X189338Y287972D01*
X189507Y288823D01*
Y293744D01*
X189338Y294595D01*
X189178Y294835D01*
X189414Y295276D01*
X190153D01*
X190389Y294835D01*
X190229Y294595D01*
X190060Y293744D01*
Y288823D01*
X190229Y287972D01*
X190662Y287324D01*
Y284929D01*
X188921D01*
Y279583D01*
X194465D01*
Y284929D01*
X193905D01*
Y287324D01*
X194338Y287972D01*
X194507Y288823D01*
Y293744D01*
X194338Y294595D01*
X194178Y294835D01*
X194414Y295276D01*
X195153D01*
X195389Y294835D01*
X195229Y294595D01*
X195060Y293744D01*
Y288823D01*
X195229Y287972D01*
X195662Y287324D01*
Y284929D01*
X195102D01*
Y279583D01*
X200646D01*
Y284929D01*
X198905D01*
Y287324D01*
X199338Y287972D01*
X199507Y288823D01*
Y293744D01*
X199338Y294595D01*
X199178Y294835D01*
X199414Y295276D01*
X301823D01*
Y249016D01*
X301947Y248395D01*
X302298Y247869D01*
X310271Y239897D01*
X310797Y239545D01*
X311417Y239422D01*
X399866D01*
Y238370D01*
X401016D01*
Y231740D01*
X400744Y231627D01*
X399959Y231025D01*
X399357Y230241D01*
X398979Y229327D01*
X398850Y228346D01*
X398979Y227366D01*
X399357Y226452D01*
X399959Y225668D01*
X400744Y225066D01*
X401657Y224687D01*
X402638Y224558D01*
X403618Y224687D01*
X404532Y225066D01*
X405316Y225668D01*
X405919Y226452D01*
X406297Y227366D01*
X406426Y228346D01*
X406297Y229327D01*
X405919Y230241D01*
X405316Y231025D01*
X404532Y231627D01*
X404259Y231740D01*
Y238370D01*
X405409D01*
Y243717D01*
X399866D01*
Y242665D01*
X312089D01*
X305067Y249688D01*
Y295276D01*
X330999D01*
X331442Y295138D01*
Y287429D01*
X333178D01*
Y286477D01*
X331442D01*
Y278768D01*
X338560D01*
Y280800D01*
X340500D01*
Y248600D01*
X340083Y247975D01*
X339898Y247047D01*
X340083Y246119D01*
X340608Y245333D01*
X341395Y244807D01*
X342323Y244623D01*
X343251Y244807D01*
X344023Y245323D01*
X399866D01*
Y244472D01*
X405409D01*
Y245323D01*
X413084D01*
X429008Y229399D01*
X428979Y229327D01*
X428850Y228346D01*
X428979Y227366D01*
X429357Y226452D01*
X429959Y225668D01*
X430744Y225066D01*
X431657Y224687D01*
X432638Y224558D01*
X433618Y224687D01*
X434532Y225066D01*
X435317Y225668D01*
X435919Y226452D01*
X436297Y227366D01*
X436426Y228346D01*
X436297Y229327D01*
X435919Y230241D01*
X435317Y231025D01*
X434532Y231627D01*
X433618Y232006D01*
X432638Y232135D01*
X431657Y232006D01*
X431586Y231976D01*
X415127Y248434D01*
X414536Y248829D01*
X413839Y248968D01*
X413838Y248968D01*
X405409D01*
Y249819D01*
X399866D01*
Y248968D01*
X344145D01*
Y280916D01*
X344666Y281695D01*
X344850Y282622D01*
X344666Y283550D01*
X344140Y284337D01*
X343354Y284862D01*
X342426Y285047D01*
X341498Y284862D01*
X340873Y284445D01*
X338560D01*
Y286477D01*
X336823D01*
Y287429D01*
X338560D01*
Y289461D01*
X343230D01*
Y288823D01*
X343399Y287972D01*
X343881Y287250D01*
X344602Y286768D01*
X345453Y286599D01*
X346304Y286768D01*
X347026Y287250D01*
X347508Y287972D01*
X347677Y288823D01*
Y293744D01*
X347508Y294595D01*
X347348Y294835D01*
X347584Y295276D01*
X348323D01*
X348559Y294835D01*
X348399Y294595D01*
X348230Y293744D01*
Y288823D01*
X348399Y287972D01*
X348832Y287324D01*
Y284606D01*
X347091D01*
Y279260D01*
X352635D01*
Y284606D01*
X352075D01*
Y287324D01*
X352508Y287972D01*
X352677Y288823D01*
Y293744D01*
X352508Y294595D01*
X352348Y294835D01*
X352584Y295276D01*
X353323D01*
X353559Y294835D01*
X353399Y294595D01*
X353229Y293744D01*
Y288823D01*
X353399Y287972D01*
X353832Y287324D01*
Y284606D01*
X353272D01*
Y279260D01*
X358816D01*
Y284606D01*
X357075D01*
Y287324D01*
X357508Y287972D01*
X357677Y288823D01*
Y293744D01*
X357508Y294595D01*
X357348Y294835D01*
X357583Y295276D01*
X472731D01*
X473174Y295138D01*
Y287429D01*
X474910D01*
Y286477D01*
X473174D01*
Y278768D01*
X474910D01*
Y249819D01*
X469866D01*
Y244472D01*
X475410D01*
Y245323D01*
X490815D01*
Y231657D01*
X490744Y231627D01*
X489959Y231025D01*
X489357Y230241D01*
X488979Y229327D01*
X488849Y228346D01*
X488979Y227366D01*
X489357Y226452D01*
X489959Y225668D01*
X490744Y225066D01*
X491657Y224687D01*
X492638Y224558D01*
X493618Y224687D01*
X494532Y225066D01*
X495317Y225668D01*
X495919Y226452D01*
X496297Y227366D01*
X496426Y228346D01*
X496297Y229327D01*
X495919Y230241D01*
X495317Y231025D01*
X494532Y231627D01*
X494460Y231657D01*
Y245323D01*
X499866D01*
Y244472D01*
X505409D01*
Y249819D01*
X499866D01*
Y248968D01*
X492717D01*
X492717Y248968D01*
X492717Y248968D01*
X478555D01*
Y278768D01*
X480292D01*
Y286477D01*
X478555D01*
Y287429D01*
X480292D01*
Y289461D01*
X484962D01*
Y288823D01*
X485131Y287972D01*
X485613Y287250D01*
X486335Y286768D01*
X487186Y286599D01*
X488037Y286768D01*
X488758Y287250D01*
X489240Y287972D01*
X489409Y288823D01*
Y293744D01*
X489240Y294595D01*
X489080Y294835D01*
X489316Y295276D01*
X490056D01*
X490291Y294835D01*
X490131Y294595D01*
X489962Y293744D01*
Y288823D01*
X490131Y287972D01*
X490564Y287324D01*
Y284929D01*
X488824D01*
Y279583D01*
X494367D01*
Y284929D01*
X493807D01*
Y287324D01*
X494240Y287972D01*
X494410Y288823D01*
Y293744D01*
X494240Y294595D01*
X494080Y294835D01*
X494316Y295276D01*
X495055D01*
X495291Y294835D01*
X495131Y294595D01*
X494962Y293744D01*
Y288823D01*
X495131Y287972D01*
X495564Y287324D01*
Y284929D01*
X495005D01*
Y279583D01*
X500548D01*
Y284929D01*
X498807D01*
Y287324D01*
X499240Y287972D01*
X499409Y288823D01*
Y293744D01*
X499240Y294595D01*
X499080Y294835D01*
X499316Y295276D01*
X601036D01*
Y248900D01*
X594801Y242665D01*
X505409D01*
Y243717D01*
X499866D01*
Y238370D01*
X501016D01*
Y231740D01*
X500744Y231627D01*
X499959Y231025D01*
X499357Y230241D01*
X498979Y229327D01*
X498849Y228346D01*
X498979Y227366D01*
X499357Y226452D01*
X499959Y225668D01*
X500744Y225066D01*
X501657Y224687D01*
X502638Y224558D01*
X503618Y224687D01*
X504532Y225066D01*
X505316Y225668D01*
X505919Y226452D01*
X506297Y227366D01*
X506426Y228346D01*
X506297Y229327D01*
X505919Y230241D01*
X505316Y231025D01*
X504532Y231627D01*
X504259Y231740D01*
Y238370D01*
X505409D01*
Y239422D01*
X595472D01*
X596093Y239545D01*
X596619Y239897D01*
X603804Y247082D01*
X604156Y247608D01*
X604279Y248228D01*
Y295276D01*
X628187D01*
X628629Y295138D01*
Y287429D01*
X630366D01*
Y286477D01*
X628629D01*
Y278768D01*
X635747D01*
Y280800D01*
X638061D01*
X638686Y280382D01*
X639613Y280198D01*
X640541Y280382D01*
X641328Y280908D01*
X641853Y281695D01*
X642038Y282622D01*
X641853Y283550D01*
X641328Y284337D01*
X640541Y284862D01*
X639613Y285047D01*
X638686Y284862D01*
X638061Y284445D01*
X635747D01*
Y286477D01*
X634011D01*
Y287429D01*
X635747D01*
Y289461D01*
X640417D01*
Y288823D01*
X640587Y287972D01*
X641069Y287250D01*
X641790Y286768D01*
X642641Y286599D01*
X643492Y286768D01*
X644214Y287250D01*
X644696Y287972D01*
X644865Y288823D01*
Y293744D01*
X644696Y294595D01*
X644536Y294835D01*
X644771Y295276D01*
X645511D01*
X645747Y294835D01*
X645587Y294595D01*
X645417Y293744D01*
Y288823D01*
X645587Y287972D01*
X646020Y287324D01*
Y285197D01*
X644279D01*
Y279850D01*
X649822D01*
Y285197D01*
X649263D01*
Y287324D01*
X649696Y287972D01*
X649865Y288823D01*
Y293744D01*
X649696Y294595D01*
X649536Y294835D01*
X649771Y295276D01*
X650511D01*
X650747Y294835D01*
X650587Y294595D01*
X650417Y293744D01*
Y288823D01*
X650587Y287972D01*
X651019Y287324D01*
Y285197D01*
X650460D01*
Y279850D01*
X656003D01*
Y285197D01*
X654263D01*
Y287324D01*
X654696Y287972D01*
X654865Y288823D01*
Y293744D01*
X654696Y294595D01*
X654536Y294835D01*
X654771Y295276D01*
X770214D01*
X770657Y295138D01*
Y287429D01*
X772594D01*
Y286477D01*
X770657D01*
Y278768D01*
X777775D01*
Y281001D01*
X779865D01*
X779927Y280908D01*
X780713Y280382D01*
X781641Y280198D01*
X782569Y280382D01*
X783356Y280908D01*
X783881Y281695D01*
X784066Y282622D01*
X783881Y283550D01*
X783356Y284337D01*
X782569Y284862D01*
X781641Y285047D01*
X780713Y284862D01*
X779927Y284337D01*
X779865Y284244D01*
X777775D01*
Y286477D01*
X775838D01*
Y287429D01*
X777775D01*
Y289662D01*
X782445D01*
Y288823D01*
X782614Y287972D01*
X783096Y287250D01*
X783818Y286768D01*
X784669Y286599D01*
X785520Y286768D01*
X786241Y287250D01*
X786723Y287972D01*
X786893Y288823D01*
Y293744D01*
X786723Y294595D01*
X786563Y294835D01*
X786799Y295276D01*
X787539D01*
X787774Y294835D01*
X787614Y294595D01*
X787445Y293744D01*
Y288823D01*
X787614Y287972D01*
X788047Y287324D01*
Y284929D01*
X786307D01*
Y279583D01*
X791850D01*
Y284929D01*
X791291D01*
Y287324D01*
X791723Y287972D01*
X791893Y288823D01*
Y293744D01*
X791723Y294595D01*
X791563Y294835D01*
X791799Y295276D01*
X792539D01*
X792774Y294835D01*
X792614Y294595D01*
X792445Y293744D01*
Y288823D01*
X792614Y287972D01*
X793047Y287324D01*
Y284929D01*
X792488D01*
Y279583D01*
X798031D01*
Y284929D01*
X796290D01*
Y287324D01*
X796723Y287972D01*
X796893Y288823D01*
Y293744D01*
X796723Y294595D01*
X796563Y294835D01*
X796799Y295276D01*
X903543D01*
Y204035D01*
D02*
G37*
%LPC*%
G36*
X845299Y290066D02*
X844010Y289896D01*
X842809Y289399D01*
X841778Y288608D01*
X840986Y287576D01*
X840627Y286708D01*
X833956D01*
Y288645D01*
X826248D01*
Y281527D01*
X833956D01*
Y283465D01*
X840627D01*
X840986Y282597D01*
X841778Y281565D01*
X842809Y280774D01*
X844010Y280276D01*
X845299Y280107D01*
X846588Y280276D01*
X847789Y280774D01*
X848820Y281565D01*
X849611Y282597D01*
X850109Y283798D01*
X850278Y285086D01*
X850109Y286375D01*
X849611Y287576D01*
X848820Y288608D01*
X847789Y289399D01*
X846588Y289896D01*
X845299Y290066D01*
D02*
G37*
G36*
X714948D02*
X713659Y289896D01*
X712459Y289399D01*
X711427Y288608D01*
X710636Y287576D01*
X710276Y286708D01*
X703603D01*
Y288645D01*
X695894D01*
Y281527D01*
X703603D01*
Y283465D01*
X710276D01*
X710636Y282597D01*
X711427Y281565D01*
X712459Y280774D01*
X713659Y280276D01*
X714948Y280107D01*
X716237Y280276D01*
X717438Y280774D01*
X718469Y281565D01*
X719261Y282597D01*
X719758Y283798D01*
X719928Y285086D01*
X719758Y286375D01*
X719261Y287576D01*
X718469Y288608D01*
X717438Y289399D01*
X716237Y289896D01*
X714948Y290066D01*
D02*
G37*
G36*
X547422D02*
X546133Y289896D01*
X544932Y289399D01*
X543901Y288608D01*
X543110Y287576D01*
X542750Y286708D01*
X536060D01*
Y288645D01*
X528352D01*
Y281527D01*
X536060D01*
Y283465D01*
X542750D01*
X543110Y282597D01*
X543901Y281565D01*
X544932Y280774D01*
X546133Y280276D01*
X547422Y280107D01*
X548711Y280276D01*
X549912Y280774D01*
X550943Y281565D01*
X551735Y282597D01*
X552232Y283798D01*
X552402Y285086D01*
X552232Y286375D01*
X551735Y287576D01*
X550943Y288608D01*
X549912Y289399D01*
X548711Y289896D01*
X547422Y290066D01*
D02*
G37*
G36*
X417677D02*
X416389Y289896D01*
X415188Y289399D01*
X414156Y288608D01*
X413365Y287576D01*
X413005Y286708D01*
X406374D01*
Y288645D01*
X398665D01*
Y281527D01*
X406374D01*
Y283465D01*
X413005D01*
X413365Y282597D01*
X414156Y281565D01*
X415188Y280774D01*
X415697Y280563D01*
Y262478D01*
X415280Y261853D01*
X415095Y260925D01*
X415280Y259997D01*
X415805Y259211D01*
X416592Y258685D01*
X417520Y258501D01*
X418447Y258685D01*
X419234Y259211D01*
X419760Y259997D01*
X419944Y260925D01*
X419760Y261853D01*
X419342Y262478D01*
Y280432D01*
X420167Y280774D01*
X421198Y281565D01*
X421990Y282597D01*
X422487Y283798D01*
X422657Y285086D01*
X422487Y286375D01*
X421990Y287576D01*
X421198Y288608D01*
X420167Y289399D01*
X418966Y289896D01*
X417677Y290066D01*
D02*
G37*
G36*
X247520D02*
X246231Y289896D01*
X245030Y289399D01*
X243999Y288608D01*
X243207Y287576D01*
X242848Y286708D01*
X236217D01*
Y288645D01*
X228508D01*
Y281527D01*
X236217D01*
Y283465D01*
X242848D01*
X243207Y282597D01*
X243999Y281565D01*
X245030Y280774D01*
X246231Y280276D01*
X247520Y280107D01*
X248809Y280276D01*
X250010Y280774D01*
X251041Y281565D01*
X251832Y282597D01*
X252330Y283798D01*
X252500Y285086D01*
X252330Y286375D01*
X251832Y287576D01*
X251041Y288608D01*
X250010Y289399D01*
X248809Y289896D01*
X247520Y290066D01*
D02*
G37*
G36*
X117461D02*
X116172Y289896D01*
X114971Y289399D01*
X113939Y288608D01*
X113148Y287576D01*
X112788Y286708D01*
X106158D01*
Y288645D01*
X98449D01*
Y281527D01*
X106158D01*
Y283465D01*
X112788D01*
X113148Y282597D01*
X113939Y281565D01*
X114971Y280774D01*
X115638Y280498D01*
Y252990D01*
X115220Y252365D01*
X115036Y251437D01*
X115220Y250509D01*
X115746Y249723D01*
X116533Y249197D01*
X117461Y249013D01*
X118388Y249197D01*
X119175Y249723D01*
X119701Y250509D01*
X119885Y251437D01*
X119701Y252365D01*
X119283Y252990D01*
Y280498D01*
X119950Y280774D01*
X120982Y281565D01*
X121773Y282597D01*
X122270Y283798D01*
X122440Y285086D01*
X122270Y286375D01*
X121773Y287576D01*
X120982Y288608D01*
X119950Y289399D01*
X118749Y289896D01*
X117461Y290066D01*
D02*
G37*
G36*
X656003Y279094D02*
X650460D01*
Y273748D01*
X651331D01*
Y247621D01*
X619112Y215401D01*
X525742D01*
X525496Y215901D01*
X525919Y216452D01*
X526297Y217366D01*
X526426Y218347D01*
X526297Y219327D01*
X525919Y220241D01*
X525316Y221025D01*
X524532Y221627D01*
X523618Y222006D01*
X522638Y222135D01*
X521657Y222006D01*
X520744Y221627D01*
X519959Y221025D01*
X519357Y220241D01*
X518979Y219327D01*
X518850Y218347D01*
X518979Y217366D01*
X519357Y216452D01*
X519780Y215901D01*
X519533Y215401D01*
X517876D01*
X516184Y217093D01*
X516297Y217366D01*
X516426Y218347D01*
X516297Y219327D01*
X515919Y220241D01*
X515316Y221025D01*
X514532Y221627D01*
X513618Y222006D01*
X512638Y222135D01*
X511657Y222006D01*
X510744Y221627D01*
X509959Y221025D01*
X509357Y220241D01*
X508979Y219327D01*
X508849Y218347D01*
X508979Y217366D01*
X509357Y216452D01*
X509959Y215668D01*
X510744Y215066D01*
X511657Y214687D01*
X512638Y214558D01*
X513618Y214687D01*
X513891Y214800D01*
X516058Y212633D01*
X516584Y212281D01*
X517205Y212158D01*
X619783D01*
X620404Y212281D01*
X620930Y212633D01*
X654100Y245802D01*
X654451Y246328D01*
X654574Y246949D01*
Y273748D01*
X656003D01*
Y274532D01*
X786307Y274532D01*
Y273480D01*
X791850D01*
Y278827D01*
X786307D01*
Y277775D01*
X656003Y277775D01*
Y279094D01*
D02*
G37*
G36*
X649822D02*
X644279D01*
Y273748D01*
X645429D01*
Y270772D01*
X645336Y270710D01*
X644811Y269923D01*
X644626Y268996D01*
X644811Y268068D01*
X645336Y267281D01*
X646123Y266756D01*
X647051Y266571D01*
X647978Y266756D01*
X648765Y267281D01*
X649291Y268068D01*
X649475Y268996D01*
X649291Y269923D01*
X648765Y270710D01*
X648672Y270772D01*
Y273748D01*
X649822D01*
Y279094D01*
D02*
G37*
G36*
X200646Y278827D02*
X195102D01*
Y273480D01*
X196252D01*
Y270504D01*
X196160Y270443D01*
X195634Y269656D01*
X195449Y268728D01*
X195634Y267800D01*
X196160Y267014D01*
X196946Y266488D01*
X197874Y266303D01*
X198802Y266488D01*
X199588Y267014D01*
X200114Y267800D01*
X200299Y268728D01*
X200114Y269656D01*
X199588Y270443D01*
X199496Y270504D01*
Y273480D01*
X200646D01*
Y278827D01*
D02*
G37*
G36*
X194465D02*
X188921D01*
Y273480D01*
X190071D01*
Y270504D01*
X189979Y270443D01*
X189453Y269656D01*
X189268Y268728D01*
X189453Y267800D01*
X189979Y267014D01*
X190765Y266488D01*
X191693Y266303D01*
X192621Y266488D01*
X193407Y267014D01*
X193933Y267800D01*
X194117Y268728D01*
X193933Y269656D01*
X193407Y270443D01*
X193315Y270504D01*
Y273480D01*
X194465D01*
Y278827D01*
D02*
G37*
G36*
X500548Y278827D02*
X495005D01*
Y273480D01*
X496154D01*
Y270504D01*
X496062Y270443D01*
X495536Y269656D01*
X495352Y268728D01*
X495536Y267800D01*
X496062Y267014D01*
X496848Y266488D01*
X497776Y266303D01*
X498704Y266488D01*
X499491Y267014D01*
X500016Y267800D01*
X500201Y268728D01*
X500016Y269656D01*
X499491Y270443D01*
X499398Y270504D01*
Y273480D01*
X500548D01*
Y278827D01*
D02*
G37*
G36*
X494367D02*
X488824D01*
Y273480D01*
X489973D01*
Y270504D01*
X489881Y270443D01*
X489355Y269656D01*
X489171Y268728D01*
X489355Y267800D01*
X489881Y267014D01*
X490667Y266488D01*
X491595Y266303D01*
X492523Y266488D01*
X493309Y267014D01*
X493835Y267800D01*
X494020Y268728D01*
X493835Y269656D01*
X493309Y270443D01*
X493217Y270504D01*
Y273480D01*
X494367D01*
Y278827D01*
D02*
G37*
G36*
X798031Y278827D02*
X792488D01*
Y273480D01*
X793638D01*
Y270504D01*
X793545Y270442D01*
X793019Y269656D01*
X792835Y268728D01*
X793019Y267800D01*
X793545Y267014D01*
X794332Y266488D01*
X795259Y266303D01*
X796187Y266488D01*
X796974Y267014D01*
X797499Y267800D01*
X797684Y268728D01*
X797499Y269656D01*
X796974Y270442D01*
X796881Y270504D01*
Y273480D01*
X798031D01*
Y278827D01*
D02*
G37*
G36*
X358816Y278504D02*
X353272D01*
Y273157D01*
X354422D01*
Y270181D01*
X354329Y270120D01*
X353804Y269333D01*
X353619Y268405D01*
X353804Y267477D01*
X354329Y266691D01*
X355116Y266165D01*
X356044Y265981D01*
X356972Y266165D01*
X357758Y266691D01*
X358284Y267477D01*
X358468Y268405D01*
X358284Y269333D01*
X357758Y270120D01*
X357666Y270181D01*
Y273157D01*
X358816D01*
Y278504D01*
D02*
G37*
G36*
X352635D02*
X347091D01*
Y273157D01*
X348241D01*
Y270181D01*
X348148Y270120D01*
X347623Y269333D01*
X347438Y268405D01*
X347623Y267477D01*
X348148Y266691D01*
X348935Y266165D01*
X349863Y265981D01*
X350791Y266165D01*
X351577Y266691D01*
X352103Y267477D01*
X352287Y268405D01*
X352103Y269333D01*
X351577Y270120D01*
X351484Y270181D01*
Y273157D01*
X352635D01*
Y278504D01*
D02*
G37*
G36*
X58855Y278405D02*
X53312D01*
Y273059D01*
X54461D01*
Y270083D01*
X54369Y270021D01*
X53843Y269234D01*
X53659Y268307D01*
X53843Y267379D01*
X54369Y266592D01*
X55155Y266067D01*
X56083Y265882D01*
X57011Y266067D01*
X57798Y266592D01*
X58323Y267379D01*
X58508Y268307D01*
X58323Y269234D01*
X57798Y270021D01*
X57705Y270083D01*
Y273059D01*
X58855D01*
Y278405D01*
D02*
G37*
G36*
X52674D02*
X47130D01*
Y273059D01*
X48280D01*
Y270083D01*
X48188Y270021D01*
X47662Y269234D01*
X47477Y268307D01*
X47662Y267379D01*
X48188Y266592D01*
X48974Y266067D01*
X49902Y265882D01*
X50830Y266067D01*
X51617Y266592D01*
X52142Y267379D01*
X52327Y268307D01*
X52142Y269234D01*
X51617Y270021D01*
X51524Y270083D01*
Y273059D01*
X52674D01*
Y278405D01*
D02*
G37*
G36*
X247342Y256165D02*
X246415Y255980D01*
X245628Y255455D01*
X245103Y254668D01*
X244956Y253931D01*
X215095Y224070D01*
X214358Y223923D01*
X213571Y223398D01*
X213046Y222611D01*
X212861Y221683D01*
X213046Y220756D01*
X213571Y219969D01*
X214358Y219443D01*
X215286Y219259D01*
X216213Y219443D01*
X217000Y219969D01*
X217526Y220756D01*
X217672Y221493D01*
X247533Y251354D01*
X248270Y251500D01*
X248425Y251604D01*
X248899Y251327D01*
X248903Y250988D01*
X238048Y240133D01*
X237556Y240035D01*
X236770Y239510D01*
X236244Y238723D01*
X236146Y238232D01*
X213195Y215280D01*
X212458Y215134D01*
X211671Y214608D01*
X211146Y213822D01*
X210961Y212894D01*
X211146Y211966D01*
X211671Y211179D01*
X212458Y210654D01*
X213386Y210469D01*
X214314Y210654D01*
X215100Y211179D01*
X215626Y211966D01*
X215772Y212703D01*
X238447Y235378D01*
X238484Y235371D01*
X239412Y235555D01*
X240199Y236081D01*
X240724Y236867D01*
X240909Y237795D01*
X240901Y237832D01*
X251569Y248499D01*
X252306Y248646D01*
X253092Y249171D01*
X253618Y249958D01*
X253802Y250886D01*
X253618Y251814D01*
X253092Y252600D01*
X252306Y253126D01*
X251378Y253310D01*
X250450Y253126D01*
X250109Y252898D01*
X249659Y253199D01*
X249767Y253740D01*
X249583Y254668D01*
X249057Y255455D01*
X248270Y255980D01*
X247342Y256165D01*
D02*
G37*
G36*
X89075Y240404D02*
X88043Y240268D01*
X87081Y239870D01*
X86256Y239236D01*
X85622Y238411D01*
X85224Y237449D01*
X85088Y236417D01*
X85224Y235385D01*
X85622Y234424D01*
X86256Y233598D01*
X87081Y232965D01*
X88043Y232566D01*
X89075Y232431D01*
X90107Y232566D01*
X91068Y232965D01*
X91894Y233598D01*
X92528Y234424D01*
X92926Y235385D01*
X93062Y236417D01*
X92926Y237449D01*
X92528Y238411D01*
X91894Y239236D01*
X91068Y239870D01*
X90107Y240268D01*
X89075Y240404D01*
D02*
G37*
G36*
X70177D02*
X69145Y240268D01*
X68184Y239870D01*
X67358Y239236D01*
X66724Y238411D01*
X66326Y237449D01*
X66190Y236417D01*
X66326Y235385D01*
X66724Y234424D01*
X67358Y233598D01*
X68184Y232965D01*
X69145Y232566D01*
X70177Y232431D01*
X71209Y232566D01*
X72171Y232965D01*
X72996Y233598D01*
X73630Y234424D01*
X74028Y235385D01*
X74164Y236417D01*
X74028Y237449D01*
X73630Y238411D01*
X72996Y239236D01*
X72171Y239870D01*
X71209Y240268D01*
X70177Y240404D01*
D02*
G37*
G36*
X51279D02*
X50248Y240268D01*
X49286Y239870D01*
X48460Y239236D01*
X47827Y238411D01*
X47429Y237449D01*
X47293Y236417D01*
X47429Y235385D01*
X47827Y234424D01*
X48460Y233598D01*
X49286Y232965D01*
X50248Y232566D01*
X51279Y232431D01*
X52311Y232566D01*
X53273Y232965D01*
X54099Y233598D01*
X54732Y234424D01*
X55130Y235385D01*
X55266Y236417D01*
X55130Y237449D01*
X54732Y238411D01*
X54099Y239236D01*
X53273Y239870D01*
X52311Y240268D01*
X51279Y240404D01*
D02*
G37*
G36*
X467520Y275259D02*
X466592Y275075D01*
X465805Y274549D01*
X465280Y273762D01*
X465095Y272835D01*
X465280Y271907D01*
X465697Y271282D01*
Y231290D01*
X465197Y231117D01*
X464532Y231627D01*
X463618Y232006D01*
X462638Y232135D01*
X461657Y232006D01*
X460744Y231627D01*
X459959Y231025D01*
X459357Y230241D01*
X458979Y229327D01*
X458849Y228346D01*
X458979Y227366D01*
X459357Y226452D01*
X459898Y225748D01*
X459763Y225248D01*
X455513D01*
X455378Y225748D01*
X455919Y226452D01*
X456297Y227366D01*
X456426Y228346D01*
X456297Y229327D01*
X455919Y230241D01*
X455316Y231025D01*
X454532Y231627D01*
X453618Y232006D01*
X452638Y232135D01*
X451657Y232006D01*
X450744Y231627D01*
X449959Y231025D01*
X449357Y230241D01*
X448979Y229327D01*
X448849Y228346D01*
X448979Y227366D01*
X449357Y226452D01*
X449898Y225748D01*
X449763Y225248D01*
X448314D01*
X446267Y227294D01*
X446297Y227366D01*
X446426Y228346D01*
X446297Y229327D01*
X445919Y230241D01*
X445317Y231025D01*
X444532Y231627D01*
X443618Y232006D01*
X442638Y232135D01*
X441657Y232006D01*
X440744Y231627D01*
X439959Y231025D01*
X439357Y230241D01*
X438979Y229327D01*
X438849Y228346D01*
X438979Y227366D01*
X439357Y226452D01*
X439959Y225668D01*
X440744Y225066D01*
X441657Y224687D01*
X442638Y224558D01*
X443618Y224687D01*
X443690Y224717D01*
X446270Y222137D01*
X446270Y222136D01*
X446862Y221742D01*
X447559Y221603D01*
X449934D01*
X450095Y221129D01*
X449959Y221025D01*
X449357Y220241D01*
X448979Y219327D01*
X448849Y218347D01*
X448979Y217366D01*
X449357Y216452D01*
X449959Y215668D01*
X450744Y215066D01*
X451657Y214687D01*
X452638Y214558D01*
X453618Y214687D01*
X454532Y215066D01*
X455316Y215668D01*
X455919Y216452D01*
X456297Y217366D01*
X456426Y218347D01*
X456297Y219327D01*
X455919Y220241D01*
X455316Y221025D01*
X455181Y221129D01*
X455342Y221603D01*
X459934D01*
X460095Y221129D01*
X459959Y221025D01*
X459357Y220241D01*
X458979Y219327D01*
X458849Y218347D01*
X458979Y217366D01*
X459357Y216452D01*
X459959Y215668D01*
X460744Y215066D01*
X461657Y214687D01*
X462638Y214558D01*
X463618Y214687D01*
X464532Y215066D01*
X465197Y215576D01*
X465697Y215403D01*
Y212894D01*
X465697Y212894D01*
X465836Y212196D01*
X466231Y211605D01*
X471841Y205995D01*
X471841Y205995D01*
X472433Y205600D01*
X473130Y205461D01*
X473130Y205461D01*
X491853D01*
X492478Y205044D01*
X493405Y204859D01*
X494333Y205044D01*
X495120Y205569D01*
X495646Y206356D01*
X495830Y207283D01*
X495646Y208211D01*
X495120Y208998D01*
X494333Y209523D01*
X493405Y209708D01*
X492478Y209523D01*
X491853Y209106D01*
X473885D01*
X469342Y213649D01*
Y215650D01*
X469842Y215820D01*
X469959Y215668D01*
X470744Y215066D01*
X471657Y214687D01*
X472638Y214558D01*
X473618Y214687D01*
X474532Y215066D01*
X475316Y215668D01*
X475919Y216452D01*
X476297Y217366D01*
X476426Y218347D01*
X476297Y219327D01*
X475919Y220241D01*
X475316Y221025D01*
X474532Y221627D01*
X473618Y222006D01*
X472638Y222135D01*
X471657Y222006D01*
X470744Y221627D01*
X469959Y221025D01*
X469842Y220873D01*
X469342Y221042D01*
Y225650D01*
X469842Y225820D01*
X469959Y225668D01*
X470744Y225066D01*
X471657Y224687D01*
X472638Y224558D01*
X473618Y224687D01*
X474532Y225066D01*
X475316Y225668D01*
X475919Y226452D01*
X476297Y227366D01*
X476426Y228346D01*
X476297Y229327D01*
X475919Y230241D01*
X475316Y231025D01*
X474532Y231627D01*
X474260Y231740D01*
Y238370D01*
X475410D01*
Y243717D01*
X469866D01*
Y238370D01*
X471016D01*
Y231740D01*
X470744Y231627D01*
X469959Y231025D01*
X469842Y230873D01*
X469342Y231043D01*
Y271282D01*
X469760Y271907D01*
X469944Y272835D01*
X469760Y273762D01*
X469234Y274549D01*
X468447Y275075D01*
X467520Y275259D01*
D02*
G37*
G36*
X522638Y232135D02*
X521657Y232006D01*
X520744Y231627D01*
X519959Y231025D01*
X519357Y230241D01*
X518979Y229327D01*
X518850Y228346D01*
X518979Y227366D01*
X519357Y226452D01*
X519959Y225668D01*
X520744Y225066D01*
X521657Y224687D01*
X522638Y224558D01*
X523618Y224687D01*
X524532Y225066D01*
X525316Y225668D01*
X525919Y226452D01*
X526297Y227366D01*
X526426Y228346D01*
X526297Y229327D01*
X525919Y230241D01*
X525316Y231025D01*
X524532Y231627D01*
X523618Y232006D01*
X522638Y232135D01*
D02*
G37*
G36*
X512638D02*
X511657Y232006D01*
X510744Y231627D01*
X509959Y231025D01*
X509357Y230241D01*
X508979Y229327D01*
X508849Y228346D01*
X508979Y227366D01*
X509357Y226452D01*
X509959Y225668D01*
X510744Y225066D01*
X511657Y224687D01*
X512638Y224558D01*
X513618Y224687D01*
X514532Y225066D01*
X515316Y225668D01*
X515919Y226452D01*
X516297Y227366D01*
X516426Y228346D01*
X516297Y229327D01*
X515919Y230241D01*
X515316Y231025D01*
X514532Y231627D01*
X513618Y232006D01*
X512638Y232135D01*
D02*
G37*
G36*
X482638D02*
X481657Y232006D01*
X480744Y231627D01*
X479959Y231025D01*
X479357Y230241D01*
X478979Y229327D01*
X478850Y228346D01*
X478979Y227366D01*
X479357Y226452D01*
X479959Y225668D01*
X480744Y225066D01*
X481657Y224687D01*
X482638Y224558D01*
X483618Y224687D01*
X484532Y225066D01*
X485317Y225668D01*
X485919Y226452D01*
X486297Y227366D01*
X486426Y228346D01*
X486297Y229327D01*
X485919Y230241D01*
X485317Y231025D01*
X484532Y231627D01*
X483618Y232006D01*
X482638Y232135D01*
D02*
G37*
G36*
X422638D02*
X421657Y232006D01*
X420744Y231627D01*
X419959Y231025D01*
X419357Y230241D01*
X418979Y229327D01*
X418850Y228346D01*
X418979Y227366D01*
X419357Y226452D01*
X419959Y225668D01*
X420744Y225066D01*
X421657Y224687D01*
X422638Y224558D01*
X423618Y224687D01*
X424532Y225066D01*
X425316Y225668D01*
X425919Y226452D01*
X426297Y227366D01*
X426426Y228346D01*
X426297Y229327D01*
X425919Y230241D01*
X425316Y231025D01*
X424532Y231627D01*
X423618Y232006D01*
X422638Y232135D01*
D02*
G37*
G36*
X412638D02*
X411657Y232006D01*
X410744Y231627D01*
X409959Y231025D01*
X409357Y230241D01*
X408979Y229327D01*
X408849Y228346D01*
X408979Y227366D01*
X409357Y226452D01*
X409959Y225668D01*
X410744Y225066D01*
X411657Y224687D01*
X412638Y224558D01*
X413618Y224687D01*
X414532Y225066D01*
X415316Y225668D01*
X415919Y226452D01*
X416297Y227366D01*
X416426Y228346D01*
X416297Y229327D01*
X415919Y230241D01*
X415316Y231025D01*
X414532Y231627D01*
X413618Y232006D01*
X412638Y232135D01*
D02*
G37*
G36*
X392638D02*
X391657Y232006D01*
X390744Y231627D01*
X389959Y231025D01*
X389357Y230241D01*
X388979Y229327D01*
X388849Y228346D01*
X388979Y227366D01*
X389357Y226452D01*
X389959Y225668D01*
X390744Y225066D01*
X391657Y224687D01*
X392638Y224558D01*
X393618Y224687D01*
X394532Y225066D01*
X395317Y225668D01*
X395919Y226452D01*
X396297Y227366D01*
X396426Y228346D01*
X396297Y229327D01*
X395919Y230241D01*
X395317Y231025D01*
X394532Y231627D01*
X393618Y232006D01*
X392638Y232135D01*
D02*
G37*
G36*
X382638D02*
X381657Y232006D01*
X380744Y231627D01*
X379959Y231025D01*
X379357Y230241D01*
X378979Y229327D01*
X378850Y228346D01*
X378979Y227366D01*
X379357Y226452D01*
X379959Y225668D01*
X380744Y225066D01*
X381657Y224687D01*
X382638Y224558D01*
X383618Y224687D01*
X384532Y225066D01*
X385316Y225668D01*
X385919Y226452D01*
X386297Y227366D01*
X386426Y228346D01*
X386297Y229327D01*
X385919Y230241D01*
X385316Y231025D01*
X384532Y231627D01*
X383618Y232006D01*
X382638Y232135D01*
D02*
G37*
G36*
X402638Y222135D02*
X401657Y222006D01*
X400744Y221627D01*
X399959Y221025D01*
X399357Y220241D01*
X398979Y219327D01*
X398850Y218347D01*
X398979Y217366D01*
X399357Y216452D01*
X399959Y215668D01*
X400744Y215066D01*
X401657Y214687D01*
X402638Y214558D01*
X403618Y214687D01*
X404532Y215066D01*
X405316Y215668D01*
X405919Y216452D01*
X406297Y217366D01*
X406426Y218347D01*
X406297Y219327D01*
X405919Y220241D01*
X405316Y221025D01*
X404532Y221627D01*
X403618Y222006D01*
X402638Y222135D01*
D02*
G37*
G36*
X392638D02*
X391657Y222006D01*
X390744Y221627D01*
X389959Y221025D01*
X389357Y220241D01*
X388979Y219327D01*
X388849Y218347D01*
X388979Y217366D01*
X389357Y216452D01*
X389959Y215668D01*
X390744Y215066D01*
X391657Y214687D01*
X392638Y214558D01*
X393618Y214687D01*
X394532Y215066D01*
X395317Y215668D01*
X395919Y216452D01*
X396297Y217366D01*
X396426Y218347D01*
X396297Y219327D01*
X395919Y220241D01*
X395317Y221025D01*
X394532Y221627D01*
X393618Y222006D01*
X392638Y222135D01*
D02*
G37*
G36*
X382638D02*
X381657Y222006D01*
X380744Y221627D01*
X379959Y221025D01*
X379357Y220241D01*
X378979Y219327D01*
X378850Y218347D01*
X378979Y217366D01*
X379357Y216452D01*
X379959Y215668D01*
X380744Y215066D01*
X381657Y214687D01*
X382638Y214558D01*
X383618Y214687D01*
X384532Y215066D01*
X385316Y215668D01*
X385919Y216452D01*
X386297Y217366D01*
X386426Y218347D01*
X386297Y219327D01*
X385919Y220241D01*
X385316Y221025D01*
X384532Y221627D01*
X383618Y222006D01*
X382638Y222135D01*
D02*
G37*
G36*
X714948Y245239D02*
X714020Y245055D01*
X713234Y244529D01*
X712708Y243743D01*
X712524Y242815D01*
X712708Y241887D01*
X713126Y241262D01*
Y212872D01*
X712708Y212247D01*
X712524Y211319D01*
X712708Y210391D01*
X713234Y209605D01*
X714020Y209079D01*
X714948Y208894D01*
X715876Y209079D01*
X716663Y209605D01*
X717188Y210391D01*
X717373Y211319D01*
X717188Y212247D01*
X716771Y212872D01*
Y241262D01*
X717188Y241887D01*
X717373Y242815D01*
X717188Y243743D01*
X716663Y244529D01*
X715876Y245055D01*
X714948Y245239D01*
D02*
G37*
G36*
X722835Y239531D02*
X721907Y239346D01*
X721120Y238821D01*
X720595Y238034D01*
X720410Y237106D01*
X720595Y236178D01*
X721012Y235554D01*
Y208836D01*
X720595Y208211D01*
X720410Y207283D01*
X720595Y206356D01*
X721120Y205569D01*
X721907Y205044D01*
X722835Y204859D01*
X723763Y205044D01*
X724549Y205569D01*
X725075Y206356D01*
X725259Y207283D01*
X725075Y208211D01*
X724657Y208836D01*
Y235554D01*
X725075Y236178D01*
X725259Y237106D01*
X725075Y238034D01*
X724549Y238821D01*
X723763Y239346D01*
X722835Y239531D01*
D02*
G37*
G36*
X885827Y228399D02*
X883971Y228253D01*
X882161Y227818D01*
X880441Y227106D01*
X878854Y226133D01*
X877438Y224924D01*
X876229Y223509D01*
X875257Y221921D01*
X874544Y220201D01*
X874109Y218391D01*
X873963Y216535D01*
X874109Y214680D01*
X874544Y212870D01*
X875257Y211150D01*
X876229Y209562D01*
X877438Y208147D01*
X878854Y206938D01*
X880441Y205965D01*
X882161Y205253D01*
X883971Y204818D01*
X885827Y204672D01*
X887683Y204818D01*
X889493Y205253D01*
X891213Y205965D01*
X892800Y206938D01*
X894215Y208147D01*
X895424Y209562D01*
X896397Y211150D01*
X897110Y212870D01*
X897544Y214680D01*
X897690Y216535D01*
X897544Y218391D01*
X897110Y220201D01*
X896397Y221921D01*
X895424Y223509D01*
X894215Y224924D01*
X892800Y226133D01*
X891213Y227106D01*
X889493Y227818D01*
X887683Y228253D01*
X885827Y228399D01*
D02*
G37*
G36*
X19685D02*
X17829Y228253D01*
X16019Y227818D01*
X14299Y227106D01*
X12712Y226133D01*
X11296Y224924D01*
X10087Y223509D01*
X9115Y221921D01*
X8402Y220201D01*
X7968Y218391D01*
X7822Y216535D01*
X7968Y214680D01*
X8402Y212870D01*
X9115Y211150D01*
X10087Y209562D01*
X11296Y208147D01*
X12712Y206938D01*
X14299Y205965D01*
X16019Y205253D01*
X17829Y204818D01*
X19685Y204672D01*
X21541Y204818D01*
X23351Y205253D01*
X25071Y205965D01*
X26658Y206938D01*
X28074Y208147D01*
X29283Y209562D01*
X30255Y211150D01*
X30968Y212870D01*
X31402Y214680D01*
X31548Y216535D01*
X31402Y218391D01*
X30968Y220201D01*
X30255Y221921D01*
X29283Y223509D01*
X28074Y224924D01*
X26658Y226133D01*
X25071Y227106D01*
X23351Y227818D01*
X21541Y228253D01*
X19685Y228399D01*
D02*
G37*
%LPD*%
D14*
X730775Y379095D02*
X734535D01*
X743059Y370571D01*
X730775Y368583D02*
Y379095D01*
Y368583D02*
X733019Y366339D01*
X737153D01*
X433504Y379095D02*
X437264D01*
X445788Y370571D01*
X433504Y368583D02*
Y379095D01*
Y368583D02*
X435748Y366339D01*
X439882D01*
X135531D02*
X139665D01*
X133287Y368583D02*
X135531Y366339D01*
X133287Y368583D02*
Y379095D01*
X137047D02*
X145571Y370571D01*
X133287Y379095D02*
X137047D01*
D15*
X602658Y248228D02*
Y404134D01*
X595472Y241043D02*
X602658Y248228D01*
X502638Y241043D02*
X595472D01*
X653232Y276154D02*
X789078Y276154D01*
X652964Y276154D02*
X653232D01*
X619783Y213779D02*
X652953Y246949D01*
X517205Y213779D02*
X619783D01*
X512638Y218347D02*
X517205Y213779D01*
X830102Y285110D02*
X830126Y285086D01*
X502638Y228346D02*
Y241043D01*
X417520Y284929D02*
X417677Y285086D01*
X472638Y228346D02*
Y241043D01*
X491595Y268728D02*
Y276154D01*
X497776Y268728D02*
Y276154D01*
X311417Y241043D02*
X402638D01*
X303445Y249016D02*
X311417Y241043D01*
X303445Y249016D02*
Y404134D01*
X402638Y228346D02*
Y241043D01*
X306201Y291283D02*
X328701D01*
X306201D02*
Y403543D01*
X771066Y333858D02*
X776436Y328488D01*
X771066Y333858D02*
Y344998D01*
X776436Y328488D02*
X784669D01*
Y326003D02*
X787204Y323468D01*
X817015D01*
X821105Y327559D01*
X187284Y326003D02*
X189818Y323468D01*
X219629D01*
X223720Y327559D01*
X380926Y328728D02*
X382304Y330106D01*
Y339683D01*
X524901Y327630D02*
X532264D01*
X523622Y327559D02*
Y328909D01*
X519531Y323468D02*
X523622Y327559D01*
X489721Y323468D02*
X519531D01*
X487186Y326003D02*
X489721Y323468D01*
X487186Y326003D02*
Y328488D01*
X605413Y291283D02*
X625889D01*
X605413D02*
Y403543D01*
X652953Y246949D02*
Y276142D01*
X653232Y276154D02*
Y276421D01*
X652953Y276142D02*
X652964Y276154D01*
X795259Y268728D02*
Y276154D01*
X647051Y268996D02*
Y276421D01*
X356044Y268405D02*
Y275831D01*
X349863Y268405D02*
Y275831D01*
X197874Y268728D02*
Y276154D01*
X191693Y268728D02*
Y276154D01*
X56083Y268307D02*
Y275732D01*
X49902Y268307D02*
Y275732D01*
X605413Y403543D02*
X607382Y405512D01*
X306201Y403543D02*
X308169Y405512D01*
X302067D02*
X303445Y404134D01*
X847004Y573780D02*
X847043D01*
X839618D02*
X847004D01*
Y529134D02*
X847043D01*
X839618D02*
X847004D01*
Y484488D02*
X847043D01*
X839618D02*
X847004D01*
X828582Y402446D02*
Y409870D01*
X784160Y402446D02*
Y409870D01*
Y402446D02*
X793168D01*
X794669Y330902D02*
X804613Y340846D01*
X794669Y328488D02*
Y330902D01*
X793168Y402446D02*
X804613Y391001D01*
Y340846D02*
Y391001D01*
X547791Y573780D02*
X547830D01*
X540405D02*
X547791D01*
Y529134D02*
X547830D01*
X540405D02*
X547791D01*
Y484488D02*
X547830D01*
X540405D02*
X547791D01*
X529369Y402446D02*
Y409870D01*
X484947Y402446D02*
Y409870D01*
X497186Y330902D02*
X507130Y340846D01*
X497186Y328488D02*
Y330902D01*
X484947Y402446D02*
X495685D01*
X507130Y391001D01*
Y340846D02*
Y391001D01*
X779724Y411504D02*
X784154Y415933D01*
X779724Y340846D02*
Y411504D01*
X534264Y420866D02*
Y597342D01*
X481299Y412291D02*
X484941Y415933D01*
X481299Y341789D02*
Y412291D01*
Y341789D02*
X492186Y330902D01*
X464961Y622256D02*
X509350D01*
X464862D02*
X464961D01*
X784154Y415933D02*
X828543D01*
X833477Y420866D01*
X764075Y622256D02*
X808563D01*
X833477Y597342D01*
Y420866D02*
Y597342D01*
X484941Y415933D02*
X529331D01*
X534264Y420866D01*
X509350Y622256D02*
X534264Y597342D01*
X182339Y412543D02*
X185728Y415933D01*
X764160Y628398D02*
Y635823D01*
X808582Y628398D02*
Y635823D01*
X464947Y628398D02*
Y635823D01*
X509369Y628398D02*
Y635823D01*
X241154Y573780D02*
X248579D01*
X241154Y484488D02*
X248579D01*
X230118Y402446D02*
Y409870D01*
X185695Y402446D02*
Y409870D01*
X207228Y340846D02*
Y391001D01*
X195783Y402446D02*
X207228Y391001D01*
X185695Y402446D02*
X195783D01*
X235051Y573819D02*
Y597342D01*
X210138Y622256D02*
X235051Y597342D01*
X165650Y622256D02*
X210138D01*
X235051Y529134D02*
Y573819D01*
Y484449D02*
Y529134D01*
Y420866D02*
Y484449D01*
X230118Y415933D02*
X235051Y420866D01*
X185728Y415933D02*
X230118D01*
X182339Y340846D02*
Y412543D01*
X241154Y529134D02*
X248579D01*
X210118Y628398D02*
Y635823D01*
X165695Y628398D02*
Y635823D01*
X121273Y431493D02*
Y438918D01*
X662586Y340846D02*
Y418764D01*
X675315Y431493D01*
X65437Y340846D02*
Y420080D01*
X76850Y431493D01*
X365398Y420789D02*
X376102Y431493D01*
X365398Y340846D02*
Y420789D01*
X637697Y407402D02*
X675315Y445020D01*
X637697Y340846D02*
Y407402D01*
X340509Y409427D02*
X376102Y445020D01*
X340509Y340846D02*
Y409427D01*
X40548Y408718D02*
X76850Y445020D01*
X40548Y340846D02*
Y408718D01*
X695315Y593248D02*
X739737D01*
X695315Y578012D02*
Y593248D01*
Y578012D02*
X699547Y573780D01*
Y465211D02*
Y573780D01*
Y465211D02*
X719737Y445020D01*
X675315D02*
X679357D01*
X699547Y465211D01*
X396102Y593248D02*
X440524D01*
X396102Y578012D02*
Y593248D01*
Y578012D02*
X400334Y573780D01*
Y465211D02*
Y573780D01*
Y465211D02*
X420524Y445020D01*
X376102D02*
X380144D01*
X400334Y465211D01*
X80893Y445020D02*
X101083Y465211D01*
X76850Y445020D02*
X80893D01*
X101083Y465211D02*
X121273Y445020D01*
X101083Y465211D02*
Y484488D01*
Y529134D02*
Y573780D01*
Y484488D02*
Y529134D01*
X96850Y578012D02*
X101083Y573780D01*
X96850Y578012D02*
Y593248D01*
X141273D01*
X689555Y328134D02*
X689834Y327854D01*
X689555D02*
X689834D01*
X92067D02*
X92347D01*
X92067Y328134D02*
X92347Y327854D01*
X392284Y328134D02*
X392564Y327854D01*
X392284D02*
X392564D01*
X225000Y327630D02*
X232363D01*
X234906Y325086D01*
X646559Y344998D02*
X653724D01*
X491103D02*
X498268D01*
X349371D02*
X356536D01*
X191201D02*
X198366D01*
X49410D02*
X56575D01*
X696720Y379095D02*
X699748Y376066D01*
Y348271D02*
Y376066D01*
X402519Y347681D02*
X415177D01*
X399449Y379095D02*
X402519Y376024D01*
Y348271D02*
Y376024D01*
X102303Y347582D02*
X114961D01*
X102303Y348271D02*
Y376023D01*
X99232Y379095D02*
X102303Y376023D01*
X694043Y348271D02*
X699748D01*
X690573Y344801D02*
X694043Y348271D01*
X396814D02*
X402519D01*
X393344Y344801D02*
X396814Y348271D01*
X92067Y344801D02*
X93128D01*
X96598Y348271D01*
X102303D01*
X114961Y347582D02*
X117461Y345082D01*
X799669Y288897D02*
X805948Y282617D01*
X799669Y288897D02*
Y291283D01*
X657641Y288897D02*
X663921Y282617D01*
X657641Y288897D02*
Y291283D01*
X502186Y288897D02*
X508465Y282617D01*
X502186Y288897D02*
Y291283D01*
X360453Y288897D02*
X366733Y282617D01*
X360453Y288897D02*
Y291283D01*
X60493Y288897D02*
X66772Y282617D01*
X60493Y288897D02*
Y291283D01*
X202284Y288897D02*
Y291283D01*
Y288897D02*
X208563Y282617D01*
X719737Y431493D02*
Y438918D01*
X675315Y431493D02*
Y438918D01*
X685981Y484488D02*
X693405D01*
X685981Y529134D02*
X693405D01*
X685981Y573780D02*
X693405D01*
X695315Y599351D02*
Y606776D01*
X739737Y599351D02*
Y606776D01*
X420524Y431493D02*
Y438918D01*
X376102Y431493D02*
Y438918D01*
X386768Y484488D02*
X394193D01*
X386768Y529134D02*
X394193D01*
X386768Y573780D02*
X394193D01*
X396102Y599351D02*
Y606776D01*
X440524Y599351D02*
Y606776D01*
X141273Y599351D02*
Y606776D01*
X96850Y599351D02*
Y606776D01*
X87555Y573780D02*
X94980D01*
X87555Y529134D02*
X94980D01*
X87555Y484488D02*
X94980D01*
X76850Y431493D02*
Y438918D01*
X21316Y282622D02*
X28741D01*
X21316Y291283D02*
X28741D01*
X163107Y282622D02*
X170531D01*
X163107Y291283D02*
X170531D01*
X321276Y282622D02*
X328701D01*
X463009D02*
X470434D01*
X463009Y291283D02*
X470434D01*
X760492Y282622D02*
X767917D01*
X760492Y291283D02*
X767917D01*
X618464Y282622D02*
X625889D01*
X774216D02*
X781641D01*
X652641Y283114D02*
X653232Y282523D01*
X652641Y283114D02*
Y291283D01*
X647051Y282523D02*
X647641Y283114D01*
Y291283D01*
X689555Y327854D02*
Y328134D01*
Y333777D01*
Y327575D02*
X692043Y325086D01*
X714948D01*
X392284Y327854D02*
Y328134D01*
Y333777D01*
Y327575D02*
X394772Y325086D01*
X417677D01*
X94555D02*
X117461D01*
X92067Y327575D02*
X94555Y325086D01*
X92067Y328134D02*
Y333777D01*
Y327854D02*
Y328134D01*
X232363Y347610D02*
X245020D01*
X214469Y348271D02*
X232363D01*
X212696Y328488D02*
X214173Y329964D01*
X212696Y328488D02*
X212697D01*
X514567Y348271D02*
X532206D01*
X502186Y328909D02*
X512599D01*
X830102Y347610D02*
X842775D01*
X811558Y348271D02*
X830102D01*
X811558Y329964D02*
Y348271D01*
X810082Y328488D02*
X811558Y329964D01*
X774216Y291283D02*
X784669D01*
X774216Y282622D02*
Y291283D01*
X657641Y328488D02*
X669294D01*
X671244Y330437D01*
Y344998D01*
X360453Y328488D02*
X372107D01*
X374056Y330437D01*
Y344998D01*
X214173Y329964D02*
Y342863D01*
X215886Y344576D01*
X212696Y328488D02*
X212696Y328488D01*
X202284D02*
X212696D01*
X810081Y328488D02*
X810082Y328488D01*
X799669D02*
X810082D01*
X810082D01*
X512599Y328909D02*
X512599D01*
X512599D02*
X514075Y330386D01*
X512598Y328909D02*
X512599Y328909D01*
X514075Y343285D02*
X515788Y344998D01*
X514075Y330386D02*
Y343285D01*
X532206Y348271D02*
X544237D01*
X547422Y345086D01*
X679435Y330697D02*
Y340273D01*
X678057Y329319D02*
X679435Y330697D01*
X234906Y325086D02*
X247520D01*
X532264Y327630D02*
X534807Y325086D01*
X547422D01*
X699791Y285086D02*
X714948D01*
X703492Y295086D02*
X714948D01*
X699791Y291386D02*
X703492Y295086D01*
X532265Y285086D02*
X547422D01*
X535966Y295086D02*
X547422D01*
X532265Y291386D02*
X535966Y295086D01*
X402520Y285086D02*
X417677D01*
X406221Y295086D02*
X417677D01*
X402520Y291386D02*
X406221Y295086D01*
X232363Y285086D02*
X247520D01*
X236063Y295086D02*
X247520D01*
X232363Y291386D02*
X236063Y295086D01*
X232363Y333929D02*
X233544Y335110D01*
X232323Y333969D02*
Y341311D01*
Y333969D02*
X232363Y333929D01*
X233544Y335110D02*
X247520D01*
X402520Y333929D02*
X403701Y335110D01*
X402480Y333969D02*
Y341311D01*
Y333969D02*
X402520Y333929D01*
X403701Y335110D02*
X417677D01*
X532265Y333929D02*
X533446Y335110D01*
X532225Y333969D02*
Y341311D01*
Y333969D02*
X532265Y333929D01*
X533446Y335110D02*
X547422D01*
X699791Y333929D02*
X700972Y335110D01*
X699751Y333969D02*
Y341311D01*
Y333969D02*
X699791Y333929D01*
X700972Y335110D02*
X714948D01*
X629039Y333858D02*
Y344998D01*
Y333858D02*
X634409Y328488D01*
X642641D01*
X473583Y333858D02*
Y344998D01*
Y333858D02*
X478953Y328488D01*
X487186D01*
X331851Y333858D02*
Y344998D01*
Y333858D02*
X337221Y328488D01*
X345453D01*
X173681Y333858D02*
Y344998D01*
Y333858D02*
X179051Y328488D01*
X187284D01*
X37260D02*
X45493D01*
X31890Y333858D02*
X37260Y328488D01*
X31890Y333858D02*
Y344998D01*
X102303Y291386D02*
X106004Y295086D01*
X117461D01*
X102303Y285086D02*
X117461D01*
X102303Y334154D02*
X103236Y335086D01*
X117461D01*
X102303Y334154D02*
Y341283D01*
X80807Y328488D02*
X82185Y329866D01*
Y339584D01*
X74095Y330437D02*
Y344998D01*
X72146Y328488D02*
X74095Y330437D01*
X50493Y328488D02*
Y330902D01*
X40548Y340846D02*
X50493Y330902D01*
X55493Y328488D02*
Y330902D01*
X65437Y340846D01*
X197283Y328488D02*
Y330902D01*
X207228Y340846D01*
X192283Y328488D02*
Y330902D01*
X182339Y340846D02*
X192283Y330902D01*
X350453Y328488D02*
Y330902D01*
X340509Y340846D02*
X350453Y330902D01*
X355453Y328488D02*
Y330902D01*
X365398Y340846D01*
X492186Y328488D02*
Y330902D01*
X647641Y328488D02*
Y330902D01*
X637697Y340846D02*
X647641Y330902D01*
X652641Y328488D02*
Y330902D01*
X662586Y340846D01*
X779724D02*
X789669Y330902D01*
Y328488D02*
Y330902D01*
X833779Y295086D02*
X845299D01*
X830102Y291409D02*
X833779Y295086D01*
X830126Y285086D02*
X845299D01*
X832590Y325086D02*
X845299D01*
X830102Y327575D02*
X832590Y325086D01*
X842775Y347610D02*
X845299Y345086D01*
X831323Y335110D02*
X845299D01*
X830102Y333969D02*
X830142Y333929D01*
X830102Y333969D02*
Y341311D01*
X788586Y344998D02*
X795751D01*
X794669Y282846D02*
X795259Y282256D01*
X794669Y282846D02*
Y291283D01*
X789078Y282256D02*
X789669Y282846D01*
Y291283D01*
X497186Y282846D02*
X497776Y282256D01*
X497186Y282846D02*
Y291283D01*
X491595Y282256D02*
X492186Y282846D01*
Y291283D01*
X355453Y282523D02*
X356044Y281933D01*
X355453Y282523D02*
Y291283D01*
X349863Y281933D02*
X350453Y282523D01*
Y291283D01*
X55493Y282425D02*
X56083Y281835D01*
X55493Y282425D02*
Y291283D01*
X49902Y281835D02*
X50493Y282425D01*
Y291283D01*
X712406Y348271D02*
X714905Y345772D01*
X699748Y348271D02*
X712406D01*
X415177Y347681D02*
X417677Y345181D01*
X679435Y346376D02*
X688432D01*
X689317Y345490D01*
X382304Y345785D02*
X391300D01*
X392186Y344899D01*
X91181Y345687D02*
X92067Y344801D01*
X82185Y345687D02*
X91181D01*
X60493Y328488D02*
X72146D01*
X821161Y329007D02*
X822441Y327727D01*
X829803D01*
X523622Y328909D02*
X524901Y327630D01*
X223720Y328909D02*
X225000Y327630D01*
X830142Y333929D02*
X831323Y335110D01*
X245020Y347610D02*
X247520Y345110D01*
X197283Y282846D02*
X197874Y282256D01*
X197283Y282846D02*
Y291705D01*
X191693Y282256D02*
X192283Y282846D01*
Y291705D01*
D16*
X784669Y291283D02*
D03*
X789669D02*
D03*
X794669D02*
D03*
X799669D02*
D03*
X784669Y328488D02*
D03*
X789669D02*
D03*
X794669D02*
D03*
X799669D02*
D03*
X642641Y291283D02*
D03*
X647641D02*
D03*
X652641D02*
D03*
X657641D02*
D03*
X642641Y328488D02*
D03*
X647641D02*
D03*
X652641D02*
D03*
X657641D02*
D03*
X487186Y291283D02*
D03*
X492186D02*
D03*
X497186D02*
D03*
X502186D02*
D03*
X487186Y328488D02*
D03*
X492186D02*
D03*
X497186D02*
D03*
X502186D02*
D03*
X345453Y291283D02*
D03*
X350453D02*
D03*
X355453D02*
D03*
X360453D02*
D03*
X345453Y328488D02*
D03*
X350453D02*
D03*
X355453D02*
D03*
X360453D02*
D03*
X187284Y291283D02*
D03*
X192283D02*
D03*
X197283D02*
D03*
X202284D02*
D03*
X187284Y328488D02*
D03*
X192283D02*
D03*
X197283D02*
D03*
X202284D02*
D03*
X45493Y291283D02*
D03*
X50493D02*
D03*
X55493D02*
D03*
X60493D02*
D03*
X45493Y328488D02*
D03*
X50493D02*
D03*
X55493D02*
D03*
X60493D02*
D03*
D17*
X502638Y247146D02*
D03*
Y241043D02*
D03*
X472638Y247146D02*
D03*
Y241043D02*
D03*
X402638Y247146D02*
D03*
Y241043D02*
D03*
X795259Y282256D02*
D03*
Y276154D02*
D03*
X789078Y282256D02*
D03*
Y276154D02*
D03*
X679435Y340273D02*
D03*
Y346376D02*
D03*
X653232Y282523D02*
D03*
Y276421D02*
D03*
X647051Y282523D02*
D03*
Y276421D02*
D03*
X497776Y282256D02*
D03*
Y276154D02*
D03*
X491595Y282256D02*
D03*
Y276154D02*
D03*
X382304Y339683D02*
D03*
Y345785D02*
D03*
X356044Y281933D02*
D03*
Y275831D02*
D03*
X349863Y281933D02*
D03*
Y275831D02*
D03*
X197874Y282256D02*
D03*
Y276154D02*
D03*
X191693Y282256D02*
D03*
Y276154D02*
D03*
X56083Y281835D02*
D03*
Y275732D02*
D03*
X49902Y281835D02*
D03*
Y275732D02*
D03*
X82185Y339584D02*
D03*
Y345687D02*
D03*
X828543Y409830D02*
D03*
Y415933D02*
D03*
X784154Y409830D02*
D03*
Y415933D02*
D03*
X719737Y438918D02*
D03*
Y445020D02*
D03*
X675315Y438918D02*
D03*
Y445020D02*
D03*
X695315Y599351D02*
D03*
Y593248D02*
D03*
X739737Y599351D02*
D03*
Y593248D02*
D03*
X808563Y628359D02*
D03*
Y622256D02*
D03*
X764173Y628359D02*
D03*
Y622256D02*
D03*
X529331Y409830D02*
D03*
Y415933D02*
D03*
X484941Y409830D02*
D03*
Y415933D02*
D03*
X420524Y438918D02*
D03*
Y445020D02*
D03*
X376102Y438918D02*
D03*
Y445020D02*
D03*
X509350Y628359D02*
D03*
Y622256D02*
D03*
X464961Y628359D02*
D03*
Y622256D02*
D03*
X440524Y599351D02*
D03*
Y593248D02*
D03*
X396102Y599351D02*
D03*
Y593248D02*
D03*
X230118Y415933D02*
D03*
Y409830D02*
D03*
X185728Y415933D02*
D03*
Y409830D02*
D03*
X121273Y445020D02*
D03*
Y438918D02*
D03*
X76850Y445020D02*
D03*
Y438918D02*
D03*
X96850Y593248D02*
D03*
Y599351D02*
D03*
X141273Y593248D02*
D03*
Y599351D02*
D03*
X210138Y622256D02*
D03*
Y628359D02*
D03*
X165650Y622256D02*
D03*
Y628359D02*
D03*
D18*
X133287Y379095D02*
D03*
X99232D02*
D03*
X433504D02*
D03*
X399449D02*
D03*
X730775D02*
D03*
X696720D02*
D03*
D19*
X767917Y282622D02*
D03*
X774216D02*
D03*
X767917Y291283D02*
D03*
X774216D02*
D03*
X625889Y282622D02*
D03*
X632189D02*
D03*
X625889Y291283D02*
D03*
X632189D02*
D03*
X470434Y282622D02*
D03*
X476733D02*
D03*
X470434Y291283D02*
D03*
X476733D02*
D03*
X328701Y282622D02*
D03*
X335001D02*
D03*
X328701Y291283D02*
D03*
X335001D02*
D03*
X170531Y282622D02*
D03*
X176831D02*
D03*
X170531Y291283D02*
D03*
X176831D02*
D03*
X28741Y282622D02*
D03*
X35040D02*
D03*
X28741Y291283D02*
D03*
X35040D02*
D03*
D20*
X830102Y291386D02*
D03*
Y285086D02*
D03*
Y327575D02*
D03*
Y333874D02*
D03*
Y341972D02*
D03*
Y348271D02*
D03*
X699748Y341972D02*
D03*
Y348271D02*
D03*
Y327575D02*
D03*
Y333874D02*
D03*
Y291386D02*
D03*
Y285086D02*
D03*
X532206Y291386D02*
D03*
Y285086D02*
D03*
Y327575D02*
D03*
Y333874D02*
D03*
Y341972D02*
D03*
Y348271D02*
D03*
X402519Y327575D02*
D03*
Y333874D02*
D03*
Y341972D02*
D03*
Y348271D02*
D03*
Y291386D02*
D03*
Y285086D02*
D03*
X232363Y327575D02*
D03*
Y333874D02*
D03*
Y341972D02*
D03*
Y348271D02*
D03*
Y291386D02*
D03*
Y285086D02*
D03*
X102303Y291386D02*
D03*
Y285086D02*
D03*
Y327575D02*
D03*
Y333874D02*
D03*
Y341972D02*
D03*
Y348271D02*
D03*
D21*
X810137Y329007D02*
D03*
X821161D02*
D03*
X512598Y328909D02*
D03*
X523622D02*
D03*
X212697Y328909D02*
D03*
X223720D02*
D03*
D22*
X813271Y344998D02*
D03*
X795751D02*
D03*
X788586D02*
D03*
X771066D02*
D03*
X671244D02*
D03*
X653724D02*
D03*
X646559D02*
D03*
X629039D02*
D03*
X515788D02*
D03*
X498268D02*
D03*
X491103D02*
D03*
X473583D02*
D03*
X374056D02*
D03*
X356536D02*
D03*
X349371D02*
D03*
X331851D02*
D03*
X215886D02*
D03*
X198366D02*
D03*
X191201D02*
D03*
X173681D02*
D03*
X49410D02*
D03*
X31890D02*
D03*
X74095D02*
D03*
X56575D02*
D03*
D23*
X669396Y329319D02*
D03*
X678057D02*
D03*
X372265Y328728D02*
D03*
X380926D02*
D03*
X72146Y328488D02*
D03*
X80807D02*
D03*
D24*
X689513Y345592D02*
D03*
Y334568D02*
D03*
X392284Y345057D02*
D03*
Y334034D02*
D03*
X92067Y344801D02*
D03*
Y333777D02*
D03*
D25*
X693405Y484488D02*
D03*
X699508D02*
D03*
X693405Y529134D02*
D03*
X699508D02*
D03*
X693405Y573780D02*
D03*
X699508D02*
D03*
X394193Y484488D02*
D03*
X400295D02*
D03*
X394193Y529134D02*
D03*
X400295D02*
D03*
X394193Y573780D02*
D03*
X400295D02*
D03*
X101083Y484488D02*
D03*
X94980D02*
D03*
X101083Y529134D02*
D03*
X94980D02*
D03*
X101083Y573780D02*
D03*
X94980D02*
D03*
X601279Y405512D02*
D03*
X607382D02*
D03*
X241154Y484449D02*
D03*
X235051D02*
D03*
X241154Y529134D02*
D03*
X235051D02*
D03*
X241154Y573819D02*
D03*
X235051D02*
D03*
X534303D02*
D03*
X540406D02*
D03*
X534303Y529134D02*
D03*
X540406D02*
D03*
X534303Y484449D02*
D03*
X540406D02*
D03*
X833516Y573819D02*
D03*
X839618D02*
D03*
X833516Y529134D02*
D03*
X839618D02*
D03*
X833516Y484449D02*
D03*
X839618D02*
D03*
X308169Y405512D02*
D03*
X302067D02*
D03*
D44*
X213386Y212894D02*
X251378Y250886D01*
X467520Y223425D02*
Y272835D01*
Y212894D02*
Y223425D01*
X447559D02*
X467520D01*
X442638Y228346D02*
X447559Y223425D01*
X467520Y212894D02*
X473130Y207283D01*
X493405D01*
X714948Y211319D02*
Y242815D01*
X722835Y207283D02*
Y237106D01*
X417520Y260925D02*
Y284929D01*
X476870Y247146D02*
X492717D01*
X472638D02*
X476870D01*
X476733Y247283D02*
X476870Y247146D01*
X476733Y247283D02*
Y282622D01*
X492717Y247146D02*
X502638D01*
X492638Y247067D02*
X492717Y247146D01*
X492638Y228346D02*
Y247067D01*
X402638Y247146D02*
X413839D01*
X432638Y228346D01*
X342323Y247047D02*
X342421Y247146D01*
X402638D01*
X342323Y247047D02*
Y282520D01*
X342426Y282622D01*
X232283Y261221D02*
X239075Y254429D01*
X184843Y261221D02*
X232283D01*
X176831Y269232D02*
X184843Y261221D01*
X176831Y269232D02*
Y282622D01*
X215286Y221683D02*
X247342Y253740D01*
X117461Y251437D02*
Y285086D01*
X632189Y282622D02*
X639613D01*
X335001D02*
X342426D01*
X176831D02*
X184256D01*
X35040D02*
X42465D01*
X176831Y291283D02*
X187284D01*
X176831Y282622D02*
Y291283D01*
X632189D02*
X642641D01*
X632189Y282622D02*
Y291283D01*
X335001Y282622D02*
Y291283D01*
X345453D01*
X476733D02*
X487186D01*
X476733Y282622D02*
Y291283D01*
X35040Y282622D02*
Y291283D01*
X45493D01*
D45*
X522638Y218347D02*
D03*
Y228346D02*
D03*
X392638Y218347D02*
D03*
Y228346D02*
D03*
X412638Y218347D02*
D03*
Y228346D02*
D03*
X382638Y218347D02*
D03*
X402638D02*
D03*
X422638D02*
D03*
X432638D02*
D03*
X442638D02*
D03*
X452638D02*
D03*
X462638D02*
D03*
X472638D02*
D03*
X482638D02*
D03*
X492638D02*
D03*
X502638D02*
D03*
X512638D02*
D03*
X522638D02*
D03*
X382638Y228346D02*
D03*
X402638D02*
D03*
X422638D02*
D03*
X432638D02*
D03*
X442638D02*
D03*
X452638D02*
D03*
X462638D02*
D03*
X472638D02*
D03*
X482638D02*
D03*
X492638D02*
D03*
X502638D02*
D03*
X512638D02*
D03*
X522638D02*
D03*
D46*
X114173Y19685D02*
D03*
Y167323D02*
D03*
X74016D02*
D03*
X256201D02*
D03*
X296358D02*
D03*
Y19685D02*
D03*
X374048Y167323D02*
D03*
X414206D02*
D03*
Y19685D02*
D03*
X491896Y167323D02*
D03*
X532054D02*
D03*
Y19685D02*
D03*
X609744Y167323D02*
D03*
X649902D02*
D03*
Y19685D02*
D03*
X791634Y167323D02*
D03*
X831791D02*
D03*
Y19685D02*
D03*
D47*
X74016D02*
D03*
X256201D02*
D03*
X374048D02*
D03*
X491896D02*
D03*
X609744D02*
D03*
X791634D02*
D03*
D48*
X885827Y344331D02*
D03*
Y354331D02*
D03*
D49*
X845299Y285086D02*
D03*
Y295086D02*
D03*
Y325086D02*
D03*
Y335086D02*
D03*
Y345086D02*
D03*
X714948Y285086D02*
D03*
Y295086D02*
D03*
Y325086D02*
D03*
Y335086D02*
D03*
Y345086D02*
D03*
X547422Y285086D02*
D03*
Y295086D02*
D03*
Y325086D02*
D03*
Y335086D02*
D03*
Y345086D02*
D03*
X417677Y285086D02*
D03*
Y295086D02*
D03*
Y325086D02*
D03*
Y335086D02*
D03*
Y345086D02*
D03*
X247520Y285086D02*
D03*
Y295086D02*
D03*
Y325086D02*
D03*
Y335086D02*
D03*
Y345086D02*
D03*
X117461Y285086D02*
D03*
Y295086D02*
D03*
Y325086D02*
D03*
Y335086D02*
D03*
Y345086D02*
D03*
X860827Y386811D02*
D03*
X856890Y378937D02*
D03*
X864764D02*
D03*
Y394685D02*
D03*
X856890D02*
D03*
X860827Y402559D02*
D03*
X864764Y410433D02*
D03*
X856890D02*
D03*
X852559Y386811D02*
D03*
X848622Y378937D02*
D03*
Y394685D02*
D03*
X852559Y402559D02*
D03*
X848622Y410433D02*
D03*
X561614Y386811D02*
D03*
X557677Y378937D02*
D03*
X565551D02*
D03*
Y394685D02*
D03*
X557677D02*
D03*
X561614Y402559D02*
D03*
X565551Y410433D02*
D03*
X557677D02*
D03*
X553346Y386811D02*
D03*
X549409Y378937D02*
D03*
Y394685D02*
D03*
X553346Y402559D02*
D03*
X549409Y410433D02*
D03*
X250197D02*
D03*
X254134Y402559D02*
D03*
X250197Y394685D02*
D03*
Y378937D02*
D03*
X254134Y386811D02*
D03*
X258465Y410433D02*
D03*
X266339D02*
D03*
X262402Y402559D02*
D03*
X258465Y394685D02*
D03*
X266339D02*
D03*
Y378937D02*
D03*
X258465D02*
D03*
X262402Y386811D02*
D03*
X855610Y637795D02*
D03*
X847736D02*
D03*
X851673Y645669D02*
D03*
X859547D02*
D03*
X855610Y653543D02*
D03*
X847736D02*
D03*
X859547Y661417D02*
D03*
X851673D02*
D03*
Y629921D02*
D03*
X859547D02*
D03*
X855610Y622047D02*
D03*
X859547Y614173D02*
D03*
X855610Y606299D02*
D03*
Y590551D02*
D03*
X859547Y598425D02*
D03*
X863878Y637795D02*
D03*
Y653543D02*
D03*
X867815Y661417D02*
D03*
Y629921D02*
D03*
X863878Y622047D02*
D03*
X871752D02*
D03*
X867815Y614173D02*
D03*
X863878Y606299D02*
D03*
X871752D02*
D03*
Y590551D02*
D03*
X863878D02*
D03*
X867815Y598425D02*
D03*
X556398Y637795D02*
D03*
X548524D02*
D03*
X552461Y645669D02*
D03*
X560335D02*
D03*
X556398Y653543D02*
D03*
X548524D02*
D03*
X560335Y661417D02*
D03*
X552461D02*
D03*
Y629921D02*
D03*
X560335D02*
D03*
X556398Y622047D02*
D03*
X560335Y614173D02*
D03*
X556398Y606299D02*
D03*
Y590551D02*
D03*
X560335Y598425D02*
D03*
X572539Y637795D02*
D03*
X564665D02*
D03*
X568602Y645669D02*
D03*
X572539Y653543D02*
D03*
X564665D02*
D03*
X568602Y661417D02*
D03*
Y629921D02*
D03*
X564665Y622047D02*
D03*
X572539D02*
D03*
X568602Y614173D02*
D03*
X564665Y606299D02*
D03*
X572539D02*
D03*
Y590551D02*
D03*
X564665D02*
D03*
X568602Y598425D02*
D03*
X269390D02*
D03*
X265453Y590551D02*
D03*
X273327D02*
D03*
Y606299D02*
D03*
X265453D02*
D03*
X269390Y614173D02*
D03*
X273327Y622047D02*
D03*
X265453D02*
D03*
X269390Y629921D02*
D03*
Y661417D02*
D03*
X265453Y653543D02*
D03*
X273327D02*
D03*
X269390Y645669D02*
D03*
X265453Y637795D02*
D03*
X273327D02*
D03*
X261122Y598425D02*
D03*
X257185Y590551D02*
D03*
Y606299D02*
D03*
X261122Y614173D02*
D03*
X257185Y622047D02*
D03*
X261122Y629921D02*
D03*
X253248D02*
D03*
Y661417D02*
D03*
X261122D02*
D03*
X249311Y653543D02*
D03*
X257185D02*
D03*
X261122Y645669D02*
D03*
X253248D02*
D03*
X249311Y637795D02*
D03*
X257185D02*
D03*
X590158Y516929D02*
D03*
X601968Y461811D02*
D03*
X590158Y453937D02*
D03*
X598032D02*
D03*
X594095Y461811D02*
D03*
X598032Y469685D02*
D03*
X590158D02*
D03*
X594095Y477559D02*
D03*
X601968D02*
D03*
X598032Y485433D02*
D03*
X590158D02*
D03*
X601968Y493307D02*
D03*
X594095D02*
D03*
Y524803D02*
D03*
X601968D02*
D03*
X598032Y516929D02*
D03*
X601968Y509055D02*
D03*
X594095D02*
D03*
X590158Y501181D02*
D03*
X598032D02*
D03*
X301575Y462598D02*
D03*
X289764Y454724D02*
D03*
X297638D02*
D03*
X293701Y462598D02*
D03*
X297638Y470472D02*
D03*
X289764D02*
D03*
X293701Y478346D02*
D03*
X301575D02*
D03*
X297638Y486220D02*
D03*
X289764D02*
D03*
X301575Y494094D02*
D03*
X293701D02*
D03*
X301575Y525591D02*
D03*
X289764Y517717D02*
D03*
X297638D02*
D03*
X301575Y509842D02*
D03*
X293701D02*
D03*
X289764Y501968D02*
D03*
X297638D02*
D03*
X598032Y627953D02*
D03*
X590158D02*
D03*
X594095Y635827D02*
D03*
X601968D02*
D03*
X598032Y643701D02*
D03*
X590158D02*
D03*
X601968Y651575D02*
D03*
X594095D02*
D03*
X297638Y627953D02*
D03*
X289764D02*
D03*
X293701Y635827D02*
D03*
X301575D02*
D03*
X297638Y643701D02*
D03*
X289764D02*
D03*
X301575Y651575D02*
D03*
X293701D02*
D03*
Y620079D02*
D03*
X301575D02*
D03*
X289764Y612205D02*
D03*
X297638D02*
D03*
X301575Y604331D02*
D03*
X293701D02*
D03*
X289764Y596457D02*
D03*
X297638D02*
D03*
Y564961D02*
D03*
X289764D02*
D03*
X293701Y572835D02*
D03*
X301575D02*
D03*
X297638Y580709D02*
D03*
X289764D02*
D03*
X301575Y588583D02*
D03*
X293701D02*
D03*
Y557087D02*
D03*
X301575D02*
D03*
X289764Y549213D02*
D03*
X297638D02*
D03*
X301575Y541339D02*
D03*
X293701D02*
D03*
X289764Y533464D02*
D03*
X297638D02*
D03*
X293701Y525591D02*
D03*
X594095Y619291D02*
D03*
X601968D02*
D03*
X590158Y611417D02*
D03*
X598032D02*
D03*
X601968Y603543D02*
D03*
X594095D02*
D03*
X590158Y595669D02*
D03*
X598032D02*
D03*
Y564173D02*
D03*
X590158D02*
D03*
X594095Y572047D02*
D03*
X601968D02*
D03*
X598032Y579921D02*
D03*
X590158D02*
D03*
X601968Y587795D02*
D03*
X594095D02*
D03*
Y556299D02*
D03*
X601968D02*
D03*
X590158Y548425D02*
D03*
X598032D02*
D03*
X601968Y540551D02*
D03*
X594095D02*
D03*
X590158Y532677D02*
D03*
X598032D02*
D03*
X894488Y383071D02*
D03*
X886614D02*
D03*
X890551Y390945D02*
D03*
X898425D02*
D03*
X894488Y398819D02*
D03*
X886614D02*
D03*
X898425Y406693D02*
D03*
X890551D02*
D03*
X886614Y470472D02*
D03*
X894488Y454724D02*
D03*
X886614D02*
D03*
X890551Y462598D02*
D03*
X898425D02*
D03*
X894488Y470472D02*
D03*
X890551Y478346D02*
D03*
X898425D02*
D03*
X894488Y486220D02*
D03*
X886614D02*
D03*
X898425Y494094D02*
D03*
X890551D02*
D03*
X894488Y501968D02*
D03*
X886614D02*
D03*
X890551Y509842D02*
D03*
X898425D02*
D03*
X894488Y517717D02*
D03*
X886614D02*
D03*
X898425Y525591D02*
D03*
X890551D02*
D03*
X894488Y533464D02*
D03*
X886614D02*
D03*
X890551Y541338D02*
D03*
X898425D02*
D03*
X894488Y549213D02*
D03*
X886614D02*
D03*
X898425Y557087D02*
D03*
X890551D02*
D03*
Y588583D02*
D03*
X898425D02*
D03*
X886614Y580709D02*
D03*
X894488D02*
D03*
X898425Y572835D02*
D03*
X890551D02*
D03*
X886614Y564961D02*
D03*
X894488D02*
D03*
Y596457D02*
D03*
X886614D02*
D03*
X890551Y604331D02*
D03*
X898425D02*
D03*
X894488Y612205D02*
D03*
X886614D02*
D03*
X898425Y620079D02*
D03*
X890551D02*
D03*
X59055Y440945D02*
D03*
X11811Y456693D02*
D03*
X354331Y637796D02*
D03*
X338583Y622048D02*
D03*
X31496Y574803D02*
D03*
X322835Y511811D02*
D03*
X625985Y535433D02*
D03*
X19685Y598426D02*
D03*
X31496Y543307D02*
D03*
X35433Y598426D02*
D03*
X661418Y637796D02*
D03*
X7874Y622048D02*
D03*
X637796Y606300D02*
D03*
X649607Y440945D02*
D03*
X330709Y496063D02*
D03*
X354331Y448819D02*
D03*
X444882Y661418D02*
D03*
X645670Y590552D02*
D03*
X330709Y653544D02*
D03*
X35433Y582678D02*
D03*
X7874Y590552D02*
D03*
X35433Y503937D02*
D03*
X653544Y606300D02*
D03*
X641733Y645670D02*
D03*
X358268Y661418D02*
D03*
X633859Y566929D02*
D03*
X55118Y448819D02*
D03*
X7874D02*
D03*
X23622Y543307D02*
D03*
X326772Y551182D02*
D03*
X7874Y433071D02*
D03*
X326772Y488189D02*
D03*
X661418Y590552D02*
D03*
X74803Y661418D02*
D03*
X35433Y488189D02*
D03*
X649607Y661418D02*
D03*
X19685Y472441D02*
D03*
X330709Y637796D02*
D03*
X645670Y433071D02*
D03*
X326772Y582678D02*
D03*
X622048Y433071D02*
D03*
X330709Y511811D02*
D03*
X629922Y653544D02*
D03*
X342520Y629922D02*
D03*
X23622Y496063D02*
D03*
X19685Y488189D02*
D03*
X649607Y629922D02*
D03*
X27559D02*
D03*
X90551Y661418D02*
D03*
X346457Y637796D02*
D03*
X39370Y433071D02*
D03*
X358268Y598426D02*
D03*
X381890Y661418D02*
D03*
X19685Y456693D02*
D03*
X59055Y614174D02*
D03*
X645670Y448819D02*
D03*
X641733Y629922D02*
D03*
X35433Y551182D02*
D03*
X661418Y448819D02*
D03*
X622048Y496063D02*
D03*
X23622Y574803D02*
D03*
X326772Y535433D02*
D03*
X330709Y559056D02*
D03*
X51181Y440945D02*
D03*
X633859Y661418D02*
D03*
X35433Y519685D02*
D03*
X358268Y645670D02*
D03*
X366142Y614174D02*
D03*
X51181Y661418D02*
D03*
X629922Y574803D02*
D03*
Y496063D02*
D03*
X342520Y598426D02*
D03*
X362205Y606300D02*
D03*
X633859Y488189D02*
D03*
X11811Y629922D02*
D03*
X326772Y503937D02*
D03*
X7874Y606300D02*
D03*
X334646Y456693D02*
D03*
X7874Y574803D02*
D03*
X59055Y661418D02*
D03*
X7874Y559056D02*
D03*
X657481Y661418D02*
D03*
X15748Y464567D02*
D03*
X31496Y559056D02*
D03*
X622048Y543307D02*
D03*
X334646Y566929D02*
D03*
X114173Y661418D02*
D03*
X35433Y614174D02*
D03*
X350394Y645670D02*
D03*
X27559Y425197D02*
D03*
X736221Y661418D02*
D03*
X649607Y598426D02*
D03*
X322835Y637796D02*
D03*
X23622Y511811D02*
D03*
X350394Y614174D02*
D03*
X421260Y661418D02*
D03*
X625985Y551182D02*
D03*
X350394Y629922D02*
D03*
X374016Y661418D02*
D03*
X362205Y590552D02*
D03*
X326772Y425197D02*
D03*
X342520Y645670D02*
D03*
X59055D02*
D03*
X330709Y433071D02*
D03*
X326772Y661418D02*
D03*
X330709Y606300D02*
D03*
X334646Y582678D02*
D03*
X322835Y496063D02*
D03*
X330709Y622048D02*
D03*
X338583Y448819D02*
D03*
X681103Y661418D02*
D03*
X27559Y472441D02*
D03*
X39370Y653544D02*
D03*
X633859Y440945D02*
D03*
X665355Y614174D02*
D03*
X338583Y653544D02*
D03*
X362205Y448819D02*
D03*
X661418Y606300D02*
D03*
X342520Y425197D02*
D03*
X629922Y559056D02*
D03*
X641733Y598426D02*
D03*
X39370Y622048D02*
D03*
X625985Y503937D02*
D03*
X354331Y606300D02*
D03*
X7874Y511811D02*
D03*
X62992Y653544D02*
D03*
X322835Y480315D02*
D03*
X622048Y622048D02*
D03*
X23622Y590552D02*
D03*
X346457Y622048D02*
D03*
X625985Y456693D02*
D03*
X633859Y503937D02*
D03*
X657481Y629922D02*
D03*
X27559Y503937D02*
D03*
X625985Y566929D02*
D03*
X23622Y559056D02*
D03*
X35433Y566929D02*
D03*
X47244Y448819D02*
D03*
Y653544D02*
D03*
X645670Y606300D02*
D03*
X338583Y637796D02*
D03*
X27559Y614174D02*
D03*
X51181Y598426D02*
D03*
X43307Y661418D02*
D03*
X15748Y590552D02*
D03*
X39370Y606300D02*
D03*
X322835Y590552D02*
D03*
X15748Y559056D02*
D03*
X47244Y590552D02*
D03*
X15748Y622048D02*
D03*
X629922Y480315D02*
D03*
X23622Y464567D02*
D03*
X31496Y527559D02*
D03*
X15748Y543307D02*
D03*
X334646Y598426D02*
D03*
X629922Y448819D02*
D03*
X334646Y645670D02*
D03*
X59055Y629922D02*
D03*
X11811Y582678D02*
D03*
X661418Y622048D02*
D03*
X35433Y629922D02*
D03*
X625985Y519685D02*
D03*
X653544Y590552D02*
D03*
X43307Y614174D02*
D03*
X625985Y440945D02*
D03*
X330709Y464567D02*
D03*
X350394Y440945D02*
D03*
X23622Y622048D02*
D03*
X405512Y661418D02*
D03*
X622048Y511811D02*
D03*
X35433Y440945D02*
D03*
X55118Y622048D02*
D03*
X354331D02*
D03*
X11811Y488189D02*
D03*
X7874Y527559D02*
D03*
X657481Y645670D02*
D03*
X27559Y566929D02*
D03*
X633859Y582678D02*
D03*
X322835Y574803D02*
D03*
X653544Y433071D02*
D03*
X27559Y456693D02*
D03*
X55118Y606300D02*
D03*
X622048Y527559D02*
D03*
X637796Y496063D02*
D03*
X11811Y566929D02*
D03*
X35433Y425197D02*
D03*
X326772Y440945D02*
D03*
X23622Y606300D02*
D03*
X342520Y440945D02*
D03*
X622048Y653544D02*
D03*
Y606300D02*
D03*
X653544Y448819D02*
D03*
X66929Y614174D02*
D03*
X330709Y590552D02*
D03*
X62992Y448819D02*
D03*
X712599Y661418D02*
D03*
X649607Y614174D02*
D03*
X106299Y661418D02*
D03*
X322835Y559056D02*
D03*
X11811Y598426D02*
D03*
X622048Y590552D02*
D03*
X350394Y598426D02*
D03*
X346457Y590552D02*
D03*
X625985Y614174D02*
D03*
X62992Y606300D02*
D03*
X27559Y488189D02*
D03*
X19685Y582678D02*
D03*
X39370Y590552D02*
D03*
X322835Y527559D02*
D03*
X413386Y661418D02*
D03*
X7874Y480315D02*
D03*
X330709D02*
D03*
X366142Y661418D02*
D03*
X629922Y511811D02*
D03*
X334646Y551182D02*
D03*
X23622Y480315D02*
D03*
X334646Y661418D02*
D03*
X326772Y456693D02*
D03*
X665355Y661418D02*
D03*
X31496Y433071D02*
D03*
X55118Y637796D02*
D03*
X322835Y464567D02*
D03*
X346457Y653544D02*
D03*
X358268Y629922D02*
D03*
X326772Y519685D02*
D03*
X688977Y661418D02*
D03*
X629922Y527559D02*
D03*
X322835Y606300D02*
D03*
X362205Y622048D02*
D03*
X11811Y440945D02*
D03*
X637796Y448819D02*
D03*
X27559Y582678D02*
D03*
X31496Y590552D02*
D03*
X637796Y433071D02*
D03*
X704725Y661418D02*
D03*
X334646Y425197D02*
D03*
X11811Y519685D02*
D03*
X15748Y574803D02*
D03*
X19685Y425197D02*
D03*
X334646Y629922D02*
D03*
X330709Y527559D02*
D03*
X19685Y440945D02*
D03*
X31496Y448819D02*
D03*
X637796Y637796D02*
D03*
X629922Y543307D02*
D03*
X661418Y653544D02*
D03*
X15748Y511811D02*
D03*
X622048Y464567D02*
D03*
X11811Y535433D02*
D03*
X43307Y598426D02*
D03*
X62992Y590552D02*
D03*
X47244Y433071D02*
D03*
X35433Y456693D02*
D03*
X625985Y472441D02*
D03*
X43307Y645670D02*
D03*
X622048Y448819D02*
D03*
X31496Y480315D02*
D03*
X15748Y606300D02*
D03*
X641733Y425197D02*
D03*
X19685Y551182D02*
D03*
X31496Y511811D02*
D03*
X657481Y440945D02*
D03*
X354331Y590552D02*
D03*
X358268Y614174D02*
D03*
X633859Y535433D02*
D03*
X11811Y472441D02*
D03*
X641733Y614174D02*
D03*
X31496Y622048D02*
D03*
X622048Y559056D02*
D03*
X326772Y629922D02*
D03*
Y598426D02*
D03*
X19685Y519685D02*
D03*
X43307Y425197D02*
D03*
X55118Y653544D02*
D03*
X657481Y614174D02*
D03*
X334646D02*
D03*
X15748Y433071D02*
D03*
X23622D02*
D03*
X27559Y535433D02*
D03*
X7874Y464567D02*
D03*
X338583Y496063D02*
D03*
X51181Y614174D02*
D03*
X633859Y472441D02*
D03*
X27559Y598426D02*
D03*
X358268Y440945D02*
D03*
X629922Y606300D02*
D03*
X330709Y574803D02*
D03*
X338583Y433071D02*
D03*
X15748Y527559D02*
D03*
X633859Y629922D02*
D03*
X11811Y551182D02*
D03*
X19685Y629922D02*
D03*
X637796Y653544D02*
D03*
X622048Y574803D02*
D03*
X322835Y433071D02*
D03*
X437008Y661418D02*
D03*
X27559Y551182D02*
D03*
X334646Y440945D02*
D03*
X728347Y661418D02*
D03*
X31496Y496063D02*
D03*
X62992Y637796D02*
D03*
X43307Y629922D02*
D03*
X15748Y496063D02*
D03*
Y448819D02*
D03*
X641733Y661418D02*
D03*
X19685Y535433D02*
D03*
X338583Y590552D02*
D03*
X47244Y622048D02*
D03*
X633859Y551182D02*
D03*
X23622Y448819D02*
D03*
X326772Y645670D02*
D03*
X633859Y456693D02*
D03*
X322835Y543307D02*
D03*
X55118Y590552D02*
D03*
X43307Y440945D02*
D03*
X334646Y472441D02*
D03*
X629922Y622048D02*
D03*
X641733Y440945D02*
D03*
X39370Y637796D02*
D03*
Y448819D02*
D03*
X645670Y637796D02*
D03*
X673229Y661418D02*
D03*
X322835Y448819D02*
D03*
X645670Y653544D02*
D03*
X35433Y535433D02*
D03*
X23622Y527559D02*
D03*
X19685Y503937D02*
D03*
X11811D02*
D03*
X137795Y661418D02*
D03*
X15748Y480315D02*
D03*
X334646Y503937D02*
D03*
X346457Y606300D02*
D03*
Y433071D02*
D03*
X334646Y488189D02*
D03*
X330709Y448819D02*
D03*
X622048Y637796D02*
D03*
X629922Y464567D02*
D03*
X633859Y425197D02*
D03*
X51181Y645670D02*
D03*
X657481Y598426D02*
D03*
X625985Y488189D02*
D03*
X62992Y622048D02*
D03*
X82677Y661418D02*
D03*
X334646Y519685D02*
D03*
X633859Y645670D02*
D03*
X322835Y622048D02*
D03*
X653544D02*
D03*
X625985Y629922D02*
D03*
X350394Y661418D02*
D03*
X7874Y543307D02*
D03*
X27559Y440945D02*
D03*
X39370Y496063D02*
D03*
X633859Y598426D02*
D03*
X629922Y637796D02*
D03*
X326772Y614174D02*
D03*
X47244Y606300D02*
D03*
Y637796D02*
D03*
X389764Y661418D02*
D03*
X31496Y606300D02*
D03*
X362205Y653544D02*
D03*
X645670Y622048D02*
D03*
X625985Y661418D02*
D03*
X633859Y614174D02*
D03*
X342520D02*
D03*
X354331Y653544D02*
D03*
X11811Y425197D02*
D03*
X720473Y661418D02*
D03*
X7874Y496063D02*
D03*
X338583Y606300D02*
D03*
X19685Y566929D02*
D03*
X35433Y472441D02*
D03*
X66929Y661418D02*
D03*
X362205Y637796D02*
D03*
X653544Y653544D02*
D03*
X31496Y464567D02*
D03*
X653544Y637796D02*
D03*
X342520Y661418D02*
D03*
X129921D02*
D03*
X633859Y519685D02*
D03*
X27559D02*
D03*
X11811Y614174D02*
D03*
X55118Y433071D02*
D03*
X629922Y590552D02*
D03*
X354331Y433071D02*
D03*
X625985Y425197D02*
D03*
X35433Y661418D02*
D03*
X59055Y598426D02*
D03*
X326772Y472441D02*
D03*
X330709Y543307D02*
D03*
X649607Y645670D02*
D03*
X19685Y614174D02*
D03*
X122047Y661418D02*
D03*
X346457Y448819D02*
D03*
X322835Y653544D02*
D03*
X51181Y629922D02*
D03*
X326772Y566929D02*
D03*
X625985Y598426D02*
D03*
Y645670D02*
D03*
X629922Y433071D02*
D03*
X637796Y622048D02*
D03*
X429134Y661418D02*
D03*
X625985Y582678D02*
D03*
X637796Y590552D02*
D03*
X622048Y480315D02*
D03*
X145669Y661418D02*
D03*
X334646Y535433D02*
D03*
X196851Y574803D02*
D03*
Y559056D02*
D03*
Y543307D02*
D03*
Y527559D02*
D03*
Y511811D02*
D03*
Y496063D02*
D03*
Y480315D02*
D03*
Y464567D02*
D03*
X192914Y582678D02*
D03*
X188977Y574803D02*
D03*
X192914Y566929D02*
D03*
X188977Y559056D02*
D03*
X192914Y551182D02*
D03*
X188977Y543307D02*
D03*
X192914Y535433D02*
D03*
X188977Y527559D02*
D03*
X192914Y519685D02*
D03*
X188977Y511811D02*
D03*
X192914Y503937D02*
D03*
X188977Y496063D02*
D03*
X192914Y488189D02*
D03*
X188977Y480315D02*
D03*
X192914Y472441D02*
D03*
X188977Y464567D02*
D03*
X192914Y456693D02*
D03*
X185039Y582678D02*
D03*
X181103Y574803D02*
D03*
X185039Y566929D02*
D03*
X181103Y559056D02*
D03*
X185039Y551182D02*
D03*
Y535433D02*
D03*
Y519685D02*
D03*
Y503937D02*
D03*
Y488189D02*
D03*
X181103Y480315D02*
D03*
X185039Y472441D02*
D03*
X181103Y464567D02*
D03*
X185039Y456693D02*
D03*
X177165Y582678D02*
D03*
X173229Y574803D02*
D03*
X177165Y566929D02*
D03*
X173229Y559056D02*
D03*
X177165Y551182D02*
D03*
Y488189D02*
D03*
X173229Y480315D02*
D03*
X177165Y472441D02*
D03*
X173229Y464567D02*
D03*
X177165Y456693D02*
D03*
X169291Y582678D02*
D03*
X165355Y574803D02*
D03*
X169291Y566929D02*
D03*
X165355Y559056D02*
D03*
X169291Y551182D02*
D03*
Y488189D02*
D03*
X165355Y480315D02*
D03*
X169291Y472441D02*
D03*
X165355Y464567D02*
D03*
X169291Y456693D02*
D03*
X161417Y582678D02*
D03*
X157481Y574803D02*
D03*
X161417Y566929D02*
D03*
X157481Y559056D02*
D03*
X161417Y551182D02*
D03*
Y488189D02*
D03*
X157481Y480315D02*
D03*
X161417Y472441D02*
D03*
X157481Y464567D02*
D03*
X161417Y456693D02*
D03*
X153543Y582678D02*
D03*
X149606Y574803D02*
D03*
X153543Y566929D02*
D03*
X149606Y559056D02*
D03*
X153543Y551182D02*
D03*
Y488189D02*
D03*
X149606Y480315D02*
D03*
X153543Y472441D02*
D03*
X149606Y464567D02*
D03*
X153543Y456693D02*
D03*
X141732Y574803D02*
D03*
X145669Y566929D02*
D03*
X141732Y559056D02*
D03*
X145669Y551182D02*
D03*
Y488189D02*
D03*
X141732Y480315D02*
D03*
X145669Y472441D02*
D03*
X141732Y464567D02*
D03*
X145669Y456693D02*
D03*
X133858Y574803D02*
D03*
X137795Y566929D02*
D03*
X133858Y559056D02*
D03*
X137795Y551182D02*
D03*
Y488189D02*
D03*
X133858Y480315D02*
D03*
X137795Y472441D02*
D03*
X133858Y464567D02*
D03*
X137795Y456693D02*
D03*
X125984Y574803D02*
D03*
X129921Y566929D02*
D03*
X125984Y559056D02*
D03*
X129921Y551182D02*
D03*
Y488189D02*
D03*
X125984Y480315D02*
D03*
X129921Y472441D02*
D03*
X125984Y464567D02*
D03*
X118110Y574803D02*
D03*
X122047Y566929D02*
D03*
X118110Y559056D02*
D03*
X122047Y551182D02*
D03*
X118110Y543307D02*
D03*
X122047Y535433D02*
D03*
X118110Y527559D02*
D03*
X122047Y519685D02*
D03*
X118110Y511811D02*
D03*
X122047Y503937D02*
D03*
X118110Y496063D02*
D03*
X122047Y488189D02*
D03*
X118110Y480315D02*
D03*
X122047Y472441D02*
D03*
X114173Y566929D02*
D03*
Y551182D02*
D03*
Y535433D02*
D03*
Y519685D02*
D03*
Y503937D02*
D03*
Y488189D02*
D03*
X496063Y574803D02*
D03*
Y559056D02*
D03*
Y543307D02*
D03*
Y527559D02*
D03*
Y511811D02*
D03*
Y496063D02*
D03*
Y480315D02*
D03*
Y464567D02*
D03*
X492126Y582678D02*
D03*
X488189Y574803D02*
D03*
X492126Y566929D02*
D03*
X488189Y559056D02*
D03*
X492126Y551182D02*
D03*
X488189Y543307D02*
D03*
X492126Y535433D02*
D03*
X488189Y527559D02*
D03*
X492126Y519685D02*
D03*
X488189Y511811D02*
D03*
X492126Y503937D02*
D03*
X488189Y496063D02*
D03*
X492126Y488189D02*
D03*
X488189Y480315D02*
D03*
X492126Y472441D02*
D03*
X488189Y464567D02*
D03*
X492126Y456693D02*
D03*
X484252Y582678D02*
D03*
X480315Y574803D02*
D03*
X484252Y566929D02*
D03*
X480315Y559056D02*
D03*
X484252Y551182D02*
D03*
Y535433D02*
D03*
Y519685D02*
D03*
Y503937D02*
D03*
Y488189D02*
D03*
X480315Y480315D02*
D03*
X484252Y472441D02*
D03*
X480315Y464567D02*
D03*
X484252Y456693D02*
D03*
X476378Y582678D02*
D03*
X472441Y574803D02*
D03*
X476378Y566929D02*
D03*
X472441Y559056D02*
D03*
X476378Y551182D02*
D03*
Y488189D02*
D03*
X472441Y480315D02*
D03*
X476378Y472441D02*
D03*
X472441Y464567D02*
D03*
X476378Y456693D02*
D03*
X468504Y582678D02*
D03*
X464567Y574803D02*
D03*
X468504Y566929D02*
D03*
X464567Y559056D02*
D03*
X468504Y551182D02*
D03*
Y488189D02*
D03*
X464567Y480315D02*
D03*
X468504Y472441D02*
D03*
X464567Y464567D02*
D03*
X468504Y456693D02*
D03*
X460630Y582678D02*
D03*
X456693Y574803D02*
D03*
X460630Y566929D02*
D03*
X456693Y559056D02*
D03*
X460630Y551182D02*
D03*
Y488189D02*
D03*
X456693Y480315D02*
D03*
X460630Y472441D02*
D03*
X456693Y464567D02*
D03*
X460630Y456693D02*
D03*
X452756Y582678D02*
D03*
X448819Y574803D02*
D03*
X452756Y566929D02*
D03*
X448819Y559056D02*
D03*
X452756Y551182D02*
D03*
Y488189D02*
D03*
X448819Y480315D02*
D03*
X452756Y472441D02*
D03*
X448819Y464567D02*
D03*
X452756Y456693D02*
D03*
X440945Y574803D02*
D03*
X444882Y566929D02*
D03*
X440945Y559056D02*
D03*
X444882Y551182D02*
D03*
Y488189D02*
D03*
X440945Y480315D02*
D03*
X444882Y472441D02*
D03*
X440945Y464567D02*
D03*
X444882Y456693D02*
D03*
X433071Y574803D02*
D03*
X437008Y566929D02*
D03*
X433071Y559056D02*
D03*
X437008Y551182D02*
D03*
Y488189D02*
D03*
X433071Y480315D02*
D03*
X437008Y472441D02*
D03*
X433071Y464567D02*
D03*
X437008Y456693D02*
D03*
X425197Y574803D02*
D03*
X429134Y566929D02*
D03*
X425197Y559056D02*
D03*
X429134Y551182D02*
D03*
Y488189D02*
D03*
X425197Y480315D02*
D03*
X429134Y472441D02*
D03*
X425197Y464567D02*
D03*
X417323Y574803D02*
D03*
X421260Y566929D02*
D03*
X417323Y559056D02*
D03*
X421260Y551182D02*
D03*
X417323Y543307D02*
D03*
X421260Y535433D02*
D03*
X417323Y527559D02*
D03*
X421260Y519685D02*
D03*
X417323Y511811D02*
D03*
X421260Y503937D02*
D03*
X417323Y496063D02*
D03*
X421260Y488189D02*
D03*
X417323Y480315D02*
D03*
X421260Y472441D02*
D03*
X413386Y566929D02*
D03*
Y551182D02*
D03*
Y535433D02*
D03*
Y519685D02*
D03*
Y503937D02*
D03*
Y488189D02*
D03*
X795276Y574803D02*
D03*
Y559056D02*
D03*
Y543307D02*
D03*
Y527559D02*
D03*
Y511811D02*
D03*
Y496063D02*
D03*
Y480315D02*
D03*
Y464567D02*
D03*
X791339Y582678D02*
D03*
X787402Y574803D02*
D03*
X791339Y566929D02*
D03*
X787402Y559056D02*
D03*
X791339Y551182D02*
D03*
X787402Y543307D02*
D03*
X791339Y535433D02*
D03*
X787402Y527559D02*
D03*
X791339Y519685D02*
D03*
X787402Y511811D02*
D03*
X791339Y503937D02*
D03*
X787402Y496063D02*
D03*
X791339Y488189D02*
D03*
X787402Y480315D02*
D03*
X791339Y472441D02*
D03*
X787402Y464567D02*
D03*
X791339Y456693D02*
D03*
X783465Y582678D02*
D03*
X779528Y574803D02*
D03*
X783465Y566929D02*
D03*
X779528Y559056D02*
D03*
X783465Y551182D02*
D03*
Y535433D02*
D03*
Y519685D02*
D03*
Y503937D02*
D03*
Y488189D02*
D03*
X779528Y480315D02*
D03*
X783465Y472441D02*
D03*
X779528Y464567D02*
D03*
X783465Y456693D02*
D03*
X775591Y582678D02*
D03*
X771654Y574803D02*
D03*
X775591Y566929D02*
D03*
X771654Y559056D02*
D03*
X775591Y551182D02*
D03*
Y488189D02*
D03*
X771654Y480315D02*
D03*
X775591Y472441D02*
D03*
X771654Y464567D02*
D03*
X775591Y456693D02*
D03*
X767717Y582678D02*
D03*
X763780Y574803D02*
D03*
X767717Y566929D02*
D03*
X763780Y559056D02*
D03*
X767717Y551182D02*
D03*
Y488189D02*
D03*
X763780Y480315D02*
D03*
X767717Y472441D02*
D03*
X763780Y464567D02*
D03*
X767717Y456693D02*
D03*
X759843Y582678D02*
D03*
X755906Y574803D02*
D03*
X759843Y566929D02*
D03*
X755906Y559056D02*
D03*
X759843Y551182D02*
D03*
Y488189D02*
D03*
X755906Y480315D02*
D03*
X759843Y472441D02*
D03*
X755906Y464567D02*
D03*
X759843Y456693D02*
D03*
X751969Y582678D02*
D03*
X748032Y574803D02*
D03*
X751969Y566929D02*
D03*
X748032Y559056D02*
D03*
X751969Y551182D02*
D03*
Y488189D02*
D03*
X748032Y480315D02*
D03*
X751969Y472441D02*
D03*
X748032Y464567D02*
D03*
X751969Y456693D02*
D03*
X740158Y574803D02*
D03*
X744095Y566929D02*
D03*
X740158Y559056D02*
D03*
X744095Y551182D02*
D03*
Y488189D02*
D03*
X740158Y480315D02*
D03*
X744095Y472441D02*
D03*
X740158Y464567D02*
D03*
X744095Y456693D02*
D03*
X732284Y574803D02*
D03*
X736221Y566929D02*
D03*
X732284Y559056D02*
D03*
X736221Y551182D02*
D03*
Y488189D02*
D03*
X732284Y480315D02*
D03*
X736221Y472441D02*
D03*
X732284Y464567D02*
D03*
X736221Y456693D02*
D03*
X724410Y574803D02*
D03*
X728347Y566929D02*
D03*
X724410Y559056D02*
D03*
X728347Y551182D02*
D03*
Y488189D02*
D03*
X724410Y480315D02*
D03*
X728347Y472441D02*
D03*
X724410Y464567D02*
D03*
X716536Y574803D02*
D03*
X720473Y566929D02*
D03*
X716536Y559056D02*
D03*
X720473Y551182D02*
D03*
X716536Y543307D02*
D03*
X720473Y535433D02*
D03*
X716536Y527559D02*
D03*
X720473Y519685D02*
D03*
X716536Y511811D02*
D03*
X720473Y503937D02*
D03*
X716536Y496063D02*
D03*
X720473Y488189D02*
D03*
X716536Y480315D02*
D03*
X720473Y472441D02*
D03*
X712599Y566929D02*
D03*
Y551182D02*
D03*
Y535433D02*
D03*
Y519685D02*
D03*
Y503937D02*
D03*
Y488189D02*
D03*
D50*
X740787Y55276D02*
D03*
X730787D02*
D03*
X720787D02*
D03*
X710787D02*
D03*
X700787D02*
D03*
X740787Y65276D02*
D03*
X730787D02*
D03*
X720787D02*
D03*
X710787D02*
D03*
X700787D02*
D03*
X740787Y75276D02*
D03*
X730787D02*
D03*
X720787D02*
D03*
X710787D02*
D03*
X700787D02*
D03*
X740787Y85276D02*
D03*
X730787D02*
D03*
X720787D02*
D03*
X710787D02*
D03*
X700787D02*
D03*
Y45276D02*
D03*
X710787D02*
D03*
X720787D02*
D03*
X730787D02*
D03*
X740787D02*
D03*
D03*
X730787D02*
D03*
X720787D02*
D03*
X710787D02*
D03*
X700787D02*
D03*
X165354D02*
D03*
X175354D02*
D03*
X185354D02*
D03*
X195354D02*
D03*
X205354D02*
D03*
D03*
X195354D02*
D03*
X185354D02*
D03*
X175354D02*
D03*
X165354D02*
D03*
Y85276D02*
D03*
X175354D02*
D03*
X185354D02*
D03*
X195354D02*
D03*
X205354D02*
D03*
X165354Y75276D02*
D03*
X175354D02*
D03*
X185354D02*
D03*
X195354D02*
D03*
X205354D02*
D03*
X165354Y65276D02*
D03*
X175354D02*
D03*
X185354D02*
D03*
X195354D02*
D03*
X205354D02*
D03*
X165354Y55276D02*
D03*
X175354D02*
D03*
X185354D02*
D03*
X195354D02*
D03*
X205354D02*
D03*
X771969Y509134D02*
D03*
X761969D02*
D03*
X751968D02*
D03*
X741968D02*
D03*
X731968D02*
D03*
X771969Y519134D02*
D03*
X761969D02*
D03*
X751968D02*
D03*
X741968D02*
D03*
X731968D02*
D03*
X771969Y529134D02*
D03*
X761969D02*
D03*
X751968D02*
D03*
X741968D02*
D03*
X731968D02*
D03*
X771969Y539134D02*
D03*
X761969D02*
D03*
X751968D02*
D03*
X741968D02*
D03*
X731968D02*
D03*
Y499134D02*
D03*
X741968D02*
D03*
X751968D02*
D03*
X761969D02*
D03*
X771969D02*
D03*
D03*
X761969D02*
D03*
X751968D02*
D03*
X741968D02*
D03*
X731968D02*
D03*
X432756D02*
D03*
X442756D02*
D03*
X452756D02*
D03*
X462756D02*
D03*
X472756D02*
D03*
D03*
X462756D02*
D03*
X452756D02*
D03*
X442756D02*
D03*
X432756D02*
D03*
Y539134D02*
D03*
X442756D02*
D03*
X452756D02*
D03*
X462756D02*
D03*
X472756D02*
D03*
X432756Y529134D02*
D03*
X442756D02*
D03*
X452756D02*
D03*
X462756D02*
D03*
X472756D02*
D03*
X432756Y519134D02*
D03*
X442756D02*
D03*
X452756D02*
D03*
X462756D02*
D03*
X472756D02*
D03*
X432756Y509134D02*
D03*
X442756D02*
D03*
X452756D02*
D03*
X462756D02*
D03*
X472756D02*
D03*
X173543D02*
D03*
X163543D02*
D03*
X153543D02*
D03*
X143543D02*
D03*
X133543D02*
D03*
X173543Y519134D02*
D03*
X163543D02*
D03*
X153543D02*
D03*
X143543D02*
D03*
X133543D02*
D03*
X173543Y529134D02*
D03*
X163543D02*
D03*
X153543D02*
D03*
X143543D02*
D03*
X133543D02*
D03*
X173543Y539134D02*
D03*
X163543D02*
D03*
X153543D02*
D03*
X143543D02*
D03*
X133543D02*
D03*
Y499134D02*
D03*
X143543D02*
D03*
X153543D02*
D03*
X163543D02*
D03*
X173543D02*
D03*
D03*
X163543D02*
D03*
X153543D02*
D03*
X143543D02*
D03*
X133543D02*
D03*
D51*
X885827Y649606D02*
D03*
Y216535D02*
D03*
Y19685D02*
D03*
X19685Y649606D02*
D03*
Y216535D02*
D03*
Y19685D02*
D03*
D52*
X70177Y222244D02*
D03*
X51279Y236417D02*
D03*
X70177D02*
D03*
X89075D02*
D03*
D53*
X467520Y272835D02*
D03*
X493405Y207283D02*
D03*
X722835D02*
D03*
Y237106D02*
D03*
X714948Y242815D02*
D03*
Y211319D02*
D03*
X417520Y260925D02*
D03*
X491595Y268728D02*
D03*
X497776D02*
D03*
X342323Y247047D02*
D03*
X213386Y212894D02*
D03*
X239075Y254429D02*
D03*
X251378Y250886D02*
D03*
X313543Y282027D02*
D03*
X238484Y237795D02*
D03*
X184941Y273130D02*
D03*
X283542Y268483D02*
D03*
X215286Y221683D02*
D03*
X247342Y253740D02*
D03*
X117461Y251437D02*
D03*
X800492Y275378D02*
D03*
X502949D02*
D03*
X795259Y268728D02*
D03*
X647051Y268996D02*
D03*
X356044Y268405D02*
D03*
X349863D02*
D03*
X197874Y268728D02*
D03*
X191693D02*
D03*
X56083Y268307D02*
D03*
X49902D02*
D03*
X298735Y358679D02*
D03*
X279134Y354331D02*
D03*
X788586Y356594D02*
D03*
X795751D02*
D03*
X792169D02*
D03*
X646559D02*
D03*
X653724D02*
D03*
X650141D02*
D03*
X49410D02*
D03*
X56575D02*
D03*
X52993D02*
D03*
X191201D02*
D03*
X198366D02*
D03*
X194783D02*
D03*
X349371D02*
D03*
X356536D02*
D03*
X352953D02*
D03*
X494686D02*
D03*
X498268D02*
D03*
X491103D02*
D03*
X321949Y367127D02*
D03*
X121273Y431493D02*
D03*
X452756Y90945D02*
D03*
Y84596D02*
D03*
Y78248D02*
D03*
Y71900D02*
D03*
Y65551D02*
D03*
X447982Y68725D02*
D03*
Y75074D02*
D03*
Y81422D02*
D03*
Y87771D02*
D03*
X443209Y65551D02*
D03*
Y71900D02*
D03*
Y78248D02*
D03*
Y84596D02*
D03*
Y90945D02*
D03*
X597835Y130020D02*
D03*
Y123671D02*
D03*
Y117323D02*
D03*
Y110974D02*
D03*
Y104626D02*
D03*
Y98277D02*
D03*
Y91929D02*
D03*
Y85581D02*
D03*
Y79232D02*
D03*
Y72884D02*
D03*
Y66535D02*
D03*
X602608Y126845D02*
D03*
Y120497D02*
D03*
Y114149D02*
D03*
Y107800D02*
D03*
Y101452D02*
D03*
Y95103D02*
D03*
Y88755D02*
D03*
Y82407D02*
D03*
Y76058D02*
D03*
Y69710D02*
D03*
X607382Y66535D02*
D03*
Y72884D02*
D03*
Y79232D02*
D03*
Y85581D02*
D03*
Y91929D02*
D03*
Y98277D02*
D03*
Y104626D02*
D03*
Y110974D02*
D03*
Y117323D02*
D03*
Y123671D02*
D03*
Y130020D02*
D03*
X719737Y431493D02*
D03*
X675315D02*
D03*
X685981Y484488D02*
D03*
Y529134D02*
D03*
Y573780D02*
D03*
X695315Y606776D02*
D03*
X739737D02*
D03*
X764160Y635823D02*
D03*
X808582D02*
D03*
X847004Y573780D02*
D03*
Y529134D02*
D03*
Y484488D02*
D03*
X828582Y402446D02*
D03*
X784160D02*
D03*
X529369D02*
D03*
X484947D02*
D03*
X420524Y431493D02*
D03*
X376102D02*
D03*
X386768Y484488D02*
D03*
Y529134D02*
D03*
Y573780D02*
D03*
X396102Y606776D02*
D03*
X440524D02*
D03*
X464947Y635823D02*
D03*
X509369D02*
D03*
X547791Y573780D02*
D03*
Y529134D02*
D03*
Y484488D02*
D03*
X248579D02*
D03*
Y529134D02*
D03*
Y573780D02*
D03*
X210118Y635823D02*
D03*
X165695D02*
D03*
X141273Y606776D02*
D03*
X96850D02*
D03*
X87555Y573780D02*
D03*
Y529134D02*
D03*
Y484488D02*
D03*
X76850Y431493D02*
D03*
X230118Y402446D02*
D03*
X185695D02*
D03*
X634409Y328488D02*
D03*
X337221D02*
D03*
X37260D02*
D03*
X781641Y282622D02*
D03*
X639613D02*
D03*
X342426D02*
D03*
X184256D02*
D03*
X42465D02*
D03*
X689555Y327575D02*
D03*
X392284D02*
D03*
X92067D02*
D03*
X523563Y282404D02*
D03*
X821106Y282491D02*
D03*
X223563Y282617D02*
D03*
D54*
X737153Y366339D02*
D03*
X743059Y370571D02*
D03*
X439882Y366339D02*
D03*
X445788Y370571D02*
D03*
X145571D02*
D03*
X139665Y366339D02*
D03*
M02*
