G04*
G04 #@! TF.GenerationSoftware,Altium Limited,Altium Designer,18.1.11 (251)*
G04*
G04 Layer_Color=65535*
%FSLAX25Y25*%
%MOIN*%
G70*
G01*
G75*
%ADD10C,0.00984*%
%ADD11C,0.02362*%
%ADD12C,0.00787*%
%ADD13C,0.01968*%
%ADD14C,0.03937*%
%ADD15C,0.01181*%
G36*
X317430Y651901D02*
Y651101D01*
X318230D01*
Y650301D01*
X319030D01*
Y649501D01*
Y648701D01*
Y647901D01*
X319830D01*
Y647101D01*
Y646301D01*
X321430D01*
Y645501D01*
Y644701D01*
X322230D01*
Y643901D01*
Y643101D01*
X323030D01*
Y642301D01*
X323830D01*
Y641501D01*
Y640701D01*
X324630D01*
Y639901D01*
X325430D01*
Y639101D01*
Y638301D01*
X326230D01*
Y637501D01*
Y636701D01*
X327830D01*
Y635901D01*
Y635101D01*
Y634301D01*
X329430D01*
Y633501D01*
Y632701D01*
Y631901D01*
X330230D01*
Y631101D01*
Y630301D01*
X331030D01*
Y629501D01*
X331830D01*
Y628701D01*
X332630D01*
Y627901D01*
Y627101D01*
Y626301D01*
X334230D01*
Y625501D01*
Y624701D01*
X335030D01*
Y623901D01*
X335830D01*
Y623101D01*
Y622301D01*
Y621501D01*
X336630D01*
Y620701D01*
Y619901D01*
X338230D01*
Y619101D01*
Y618301D01*
Y617501D01*
X339030D01*
Y616701D01*
Y615901D01*
X339830D01*
Y615101D01*
X340630D01*
Y614301D01*
Y613501D01*
X342230D01*
Y612701D01*
Y611901D01*
X343030D01*
Y611101D01*
Y610301D01*
X343830D01*
Y609501D01*
X344630D01*
Y608701D01*
X345430D01*
Y607901D01*
Y607101D01*
X346230D01*
Y606301D01*
Y605501D01*
Y604701D01*
X347830D01*
Y603901D01*
Y603101D01*
X348630D01*
Y602301D01*
X349430D01*
Y601501D01*
Y600701D01*
Y599901D01*
X350230D01*
Y599101D01*
Y598301D01*
X351830D01*
Y597501D01*
Y596701D01*
X352630D01*
Y595901D01*
Y595101D01*
Y594301D01*
X353430D01*
Y593501D01*
X354230D01*
Y592701D01*
X355030D01*
Y591901D01*
Y591101D01*
X355830D01*
Y590301D01*
Y589501D01*
X356630D01*
Y588701D01*
X357430D01*
Y587901D01*
X358230D01*
Y587101D01*
Y586301D01*
Y585501D01*
X359830D01*
Y584701D01*
Y583901D01*
Y583101D01*
X360630D01*
Y582301D01*
X361430D01*
Y581501D01*
X362230D01*
Y580701D01*
Y579901D01*
X363030D01*
Y579101D01*
Y578301D01*
Y577501D01*
Y576701D01*
Y575901D01*
Y575101D01*
X362230D01*
Y574301D01*
X361430D01*
Y573501D01*
X267830D01*
Y574301D01*
Y575101D01*
X266230D01*
Y575901D01*
Y576701D01*
X265430D01*
Y577501D01*
X266230D01*
Y578301D01*
Y579101D01*
Y579901D01*
X267030D01*
Y580701D01*
X267830D01*
Y581501D01*
Y582301D01*
X268630D01*
Y583101D01*
Y583901D01*
Y584701D01*
X270230D01*
Y585501D01*
Y586301D01*
X271030D01*
Y587101D01*
X271830D01*
Y587901D01*
Y588701D01*
X272630D01*
Y589501D01*
Y590301D01*
Y591101D01*
X274230D01*
Y591901D01*
Y592701D01*
X275030D01*
Y593501D01*
X275830D01*
Y594301D01*
Y595101D01*
Y595901D01*
X276630D01*
Y596701D01*
X277430D01*
Y597501D01*
Y598301D01*
X278230D01*
Y599101D01*
X279030D01*
Y599901D01*
Y600701D01*
X279830D01*
Y601501D01*
Y602301D01*
X280630D01*
Y603101D01*
X281430D01*
Y603901D01*
X282230D01*
Y604701D01*
Y605501D01*
Y606301D01*
X283030D01*
Y607101D01*
Y607901D01*
X283830D01*
Y608701D01*
X284630D01*
Y609501D01*
X285430D01*
Y610301D01*
Y611101D01*
Y611901D01*
X287030D01*
Y612701D01*
Y613501D01*
Y614301D01*
X288630D01*
Y615101D01*
Y615901D01*
X289430D01*
Y616701D01*
Y617501D01*
X290230D01*
Y618301D01*
X291030D01*
Y619101D01*
X291830D01*
Y619901D01*
Y620701D01*
Y621501D01*
X292630D01*
Y622301D01*
Y623101D01*
X293430D01*
Y623901D01*
X294230D01*
Y624701D01*
Y625501D01*
X295030D01*
Y626301D01*
X295830D01*
Y627101D01*
Y627901D01*
Y628701D01*
X297430D01*
Y629501D01*
X298230D01*
Y630301D01*
Y631101D01*
X299030D01*
Y631901D01*
Y632701D01*
Y633501D01*
X299830D01*
Y634301D01*
X300630D01*
Y635101D01*
Y635901D01*
X302230D01*
Y636701D01*
Y637501D01*
Y638301D01*
X303030D01*
Y639101D01*
Y639901D01*
X303830D01*
Y640701D01*
X304630D01*
Y641501D01*
X305430D01*
Y642301D01*
X306230D01*
Y643101D01*
Y643901D01*
Y644701D01*
X307030D01*
Y645501D01*
Y646301D01*
X308630D01*
Y647101D01*
Y647901D01*
X309430D01*
Y648701D01*
Y649501D01*
Y650301D01*
X310230D01*
Y651101D01*
Y651901D01*
X311030D01*
Y651101D01*
X311830D01*
Y651901D01*
X312630D01*
Y652701D01*
X317430D01*
Y651901D01*
D02*
G37*
G36*
X587667Y255219D02*
X587560D01*
Y255325D01*
X587667D01*
Y255219D01*
D02*
G37*
G36*
X587560Y255113D02*
X587454D01*
Y255219D01*
X587560D01*
Y255113D01*
D02*
G37*
G36*
X559144Y237126D02*
X560208D01*
Y237020D01*
X560847D01*
Y236913D01*
X561379D01*
Y236807D01*
X561805D01*
Y236700D01*
X562230D01*
Y236594D01*
X562550D01*
Y236488D01*
X562869D01*
Y236381D01*
X563188D01*
Y236275D01*
X563401D01*
Y236168D01*
X563614D01*
Y236062D01*
X563827D01*
Y235955D01*
X563295D01*
Y236062D01*
X562550D01*
Y236168D01*
X561592D01*
Y236275D01*
X560102D01*
Y236168D01*
X559037D01*
Y236062D01*
X558399D01*
Y235955D01*
X557867D01*
Y235849D01*
X557441D01*
Y235743D01*
X557015D01*
Y235636D01*
X556696D01*
Y235530D01*
X556483D01*
Y235423D01*
X556164D01*
Y235317D01*
X555845D01*
Y235210D01*
X555632D01*
Y235104D01*
X555419D01*
Y234998D01*
X555100D01*
Y234891D01*
X554887D01*
Y234785D01*
X554674D01*
Y234678D01*
X554461D01*
Y234572D01*
X554248D01*
Y234465D01*
X554142D01*
Y234359D01*
X553929D01*
Y234253D01*
X553716D01*
Y234146D01*
X553610D01*
Y234040D01*
X553397D01*
Y233933D01*
X553290D01*
Y233827D01*
X553078D01*
Y233720D01*
X552971D01*
Y233614D01*
X552758D01*
Y233508D01*
X552652D01*
Y233401D01*
X552545D01*
Y233295D01*
X552332D01*
Y233188D01*
X552226D01*
Y233082D01*
X552120D01*
Y232975D01*
X552013D01*
Y232869D01*
X551907D01*
Y232763D01*
X551694D01*
Y232656D01*
X551587D01*
Y232550D01*
X551481D01*
Y232443D01*
X551375D01*
Y232337D01*
X551268D01*
Y232230D01*
X551162D01*
Y232124D01*
X551055D01*
Y232018D01*
X550949D01*
Y231911D01*
X550843D01*
Y231805D01*
X550736D01*
Y231698D01*
X550630D01*
Y231592D01*
X550523D01*
Y231379D01*
X550417D01*
Y231273D01*
X550310D01*
Y231166D01*
X550204D01*
Y231060D01*
X550098D01*
Y230953D01*
X549991D01*
Y230847D01*
X549885D01*
Y230634D01*
X549778D01*
Y230528D01*
X549672D01*
Y230421D01*
X549565D01*
Y230208D01*
X549459D01*
Y230102D01*
X549353D01*
Y229889D01*
X549246D01*
Y229783D01*
X549140D01*
Y229570D01*
X549033D01*
Y229463D01*
X548927D01*
Y229250D01*
X548820D01*
Y229038D01*
X548714D01*
Y228931D01*
X548607D01*
Y228718D01*
X548501D01*
Y228505D01*
X548395D01*
Y228293D01*
X548288D01*
Y228080D01*
X548182D01*
Y227867D01*
X548075D01*
Y227548D01*
X547969D01*
Y227335D01*
X547862D01*
Y227122D01*
X547756D01*
Y226803D01*
X547650D01*
Y226590D01*
X547543D01*
Y226270D01*
X547437D01*
Y225951D01*
X547330D01*
Y225632D01*
X547224D01*
Y225206D01*
X547118D01*
Y224674D01*
X547011D01*
Y224142D01*
X546905D01*
Y223503D01*
X546798D01*
Y222226D01*
X546692D01*
Y220630D01*
X546798D01*
Y219353D01*
X546905D01*
Y218608D01*
X547011D01*
Y218075D01*
X547118D01*
Y217543D01*
X547224D01*
Y217224D01*
X547330D01*
Y216798D01*
X547437D01*
Y216479D01*
X547543D01*
Y216160D01*
X547650D01*
Y215947D01*
X547756D01*
Y215734D01*
X547862D01*
Y215415D01*
X547969D01*
Y215202D01*
X548075D01*
Y214882D01*
X548182D01*
Y214670D01*
X548288D01*
Y214457D01*
X548395D01*
Y214244D01*
X548501D01*
Y214031D01*
X548607D01*
Y213925D01*
X548714D01*
Y213712D01*
X548820D01*
Y213499D01*
X548927D01*
Y213392D01*
X549033D01*
Y213180D01*
X549140D01*
Y213073D01*
X549246D01*
Y212860D01*
X549353D01*
Y212648D01*
X549459D01*
Y212541D01*
X549565D01*
Y212435D01*
X549672D01*
Y212328D01*
X549778D01*
Y212222D01*
X549885D01*
Y212009D01*
X549991D01*
Y211903D01*
X550098D01*
Y211796D01*
X550204D01*
Y211690D01*
X550310D01*
Y211583D01*
X550417D01*
Y211370D01*
X550523D01*
Y211264D01*
X550630D01*
Y211157D01*
X550736D01*
Y211051D01*
X550843D01*
Y210945D01*
X550949D01*
Y210838D01*
X551055D01*
Y210732D01*
X551162D01*
Y210625D01*
X551268D01*
Y210519D01*
X551375D01*
Y210413D01*
X551587D01*
Y210306D01*
X551694D01*
Y210200D01*
X551800D01*
Y210093D01*
X551907D01*
Y209987D01*
X552013D01*
Y209880D01*
X552120D01*
Y209774D01*
X552332D01*
Y209667D01*
X552439D01*
Y209561D01*
X552545D01*
Y209455D01*
X552652D01*
Y209348D01*
X552332D01*
Y209455D01*
X552120D01*
Y209561D01*
X551800D01*
Y209667D01*
X551694D01*
Y209774D01*
X551481D01*
Y209880D01*
X551268D01*
Y209987D01*
X551162D01*
Y210093D01*
X550949D01*
Y210200D01*
X550843D01*
Y210306D01*
X550630D01*
Y210413D01*
X550523D01*
Y210519D01*
X550310D01*
Y210625D01*
X550204D01*
Y210732D01*
X549991D01*
Y210838D01*
X549885D01*
Y210945D01*
X549778D01*
Y211051D01*
X549672D01*
Y211157D01*
X549459D01*
Y211264D01*
X549353D01*
Y211370D01*
X549246D01*
Y211477D01*
X549140D01*
Y211583D01*
X549033D01*
Y211690D01*
X548927D01*
Y211796D01*
X548820D01*
Y211903D01*
X548714D01*
Y212009D01*
X548607D01*
Y212115D01*
X548501D01*
Y212222D01*
X548395D01*
Y212328D01*
X548288D01*
Y212435D01*
X548182D01*
Y212541D01*
X548075D01*
Y212648D01*
X547969D01*
Y212754D01*
X547862D01*
Y212860D01*
X547756D01*
Y212967D01*
X547650D01*
Y213073D01*
X547543D01*
Y213180D01*
X547437D01*
Y213392D01*
X547330D01*
Y213499D01*
X547224D01*
Y213605D01*
X547118D01*
Y213712D01*
X547011D01*
Y213925D01*
X546905D01*
Y214031D01*
X546798D01*
Y214138D01*
X546692D01*
Y214350D01*
X546585D01*
Y214457D01*
X546479D01*
Y214670D01*
X546373D01*
Y214882D01*
X546266D01*
Y214989D01*
X546160D01*
Y215202D01*
X546053D01*
Y215415D01*
X545947D01*
Y215521D01*
X545840D01*
Y215734D01*
X545734D01*
Y215947D01*
X545627D01*
Y216160D01*
X545521D01*
Y216373D01*
X545415D01*
Y216585D01*
X545308D01*
Y216798D01*
X545202D01*
Y217118D01*
X545095D01*
Y217330D01*
X544989D01*
Y217650D01*
X544882D01*
Y217863D01*
X544776D01*
Y218182D01*
X544670D01*
Y218501D01*
X544563D01*
Y218927D01*
X544457D01*
Y219246D01*
X544350D01*
Y219778D01*
X544244D01*
Y220310D01*
X544137D01*
Y220417D01*
X544031D01*
Y220523D01*
X535304D01*
Y220630D01*
X535517D01*
Y220736D01*
X535623D01*
Y220843D01*
X535730D01*
Y220949D01*
X535943D01*
Y221055D01*
X536049D01*
Y221162D01*
X536262D01*
Y221268D01*
X536368D01*
Y221375D01*
X536581D01*
Y221481D01*
X536688D01*
Y221588D01*
X536900D01*
Y221694D01*
X537007D01*
Y221800D01*
X537113D01*
Y221907D01*
X537326D01*
Y222013D01*
X537432D01*
Y222120D01*
X537645D01*
Y222226D01*
X537752D01*
Y222333D01*
X537965D01*
Y222439D01*
X538071D01*
Y222545D01*
X538284D01*
Y222652D01*
X538390D01*
Y222758D01*
X538497D01*
Y222865D01*
X538710D01*
Y222971D01*
X538816D01*
Y223078D01*
X543925D01*
Y223503D01*
X544031D01*
Y224142D01*
X543925D01*
Y224248D01*
X544031D01*
Y224887D01*
X544137D01*
Y225525D01*
X544244D01*
Y226058D01*
X544350D01*
Y226590D01*
X544457D01*
Y227015D01*
X544563D01*
Y227335D01*
X544670D01*
Y227654D01*
X544776D01*
Y227973D01*
X544882D01*
Y228293D01*
X544989D01*
Y228505D01*
X545095D01*
Y228718D01*
X545202D01*
Y229038D01*
X545308D01*
Y229250D01*
X545415D01*
Y229463D01*
X545521D01*
Y229676D01*
X545627D01*
Y229889D01*
X545734D01*
Y229995D01*
X545840D01*
Y230208D01*
X545947D01*
Y230528D01*
X538710D01*
Y230634D01*
X538923D01*
Y230740D01*
X539135D01*
Y230847D01*
X539242D01*
Y230953D01*
X539348D01*
Y231060D01*
X539561D01*
Y231166D01*
X539668D01*
Y231273D01*
X539880D01*
Y231379D01*
X539987D01*
Y231485D01*
X540200D01*
Y231592D01*
X540306D01*
Y231698D01*
X540519D01*
Y231805D01*
X540625D01*
Y231911D01*
X540732D01*
Y232018D01*
X540945D01*
Y232124D01*
X541051D01*
Y232230D01*
X541264D01*
Y232337D01*
X541370D01*
Y232443D01*
X541583D01*
Y232550D01*
X541690D01*
Y232656D01*
X541902D01*
Y232763D01*
X542009D01*
Y232869D01*
X542115D01*
Y232975D01*
X547969D01*
Y233082D01*
X548075D01*
Y233188D01*
X548182D01*
Y233295D01*
X548288D01*
Y233401D01*
X548395D01*
Y233508D01*
X548501D01*
Y233614D01*
X548607D01*
Y233720D01*
X548820D01*
Y233827D01*
X548927D01*
Y233933D01*
X549033D01*
Y234040D01*
X549140D01*
Y234146D01*
X549246D01*
Y234253D01*
X549459D01*
Y234359D01*
X549565D01*
Y234465D01*
X549778D01*
Y234572D01*
X549885D01*
Y234678D01*
X549991D01*
Y234785D01*
X550204D01*
Y234891D01*
X550310D01*
Y234998D01*
X550523D01*
Y235104D01*
X550630D01*
Y235210D01*
X550843D01*
Y235317D01*
X551055D01*
Y235423D01*
X551268D01*
Y235530D01*
X551481D01*
Y235636D01*
X551587D01*
Y235743D01*
X551800D01*
Y235849D01*
X552013D01*
Y235955D01*
X552226D01*
Y236062D01*
X552545D01*
Y236168D01*
X552758D01*
Y236275D01*
X553078D01*
Y236381D01*
X553397D01*
Y236488D01*
X553716D01*
Y236594D01*
X554035D01*
Y236700D01*
X554461D01*
Y236807D01*
X554887D01*
Y236913D01*
X555419D01*
Y237020D01*
X556058D01*
Y237126D01*
X557015D01*
Y237233D01*
X559144D01*
Y237126D01*
D02*
G37*
G36*
X722086Y235636D02*
X722193D01*
Y235423D01*
X722299D01*
Y235210D01*
X722405D01*
Y234891D01*
X722512D01*
Y234678D01*
X722618D01*
Y234465D01*
X722725D01*
Y234253D01*
X722831D01*
Y234146D01*
X722938D01*
Y233933D01*
X723044D01*
Y233720D01*
X723150D01*
Y233508D01*
X723257D01*
Y233188D01*
X723363D01*
Y232975D01*
X723470D01*
Y232763D01*
X707186D01*
Y233082D01*
X707293D01*
Y235849D01*
X722086D01*
Y235636D01*
D02*
G37*
G36*
X625768D02*
X625875D01*
Y235530D01*
X625981D01*
Y235317D01*
X626088D01*
Y235104D01*
X626194D01*
Y234998D01*
X626300D01*
Y234785D01*
X626407D01*
Y234572D01*
X626513D01*
Y234465D01*
X626620D01*
Y234253D01*
X626726D01*
Y234040D01*
X626833D01*
Y233933D01*
X626939D01*
Y233720D01*
X627045D01*
Y233508D01*
X627152D01*
Y233401D01*
X627258D01*
Y233188D01*
X627365D01*
Y232975D01*
X627471D01*
Y232869D01*
X627578D01*
Y232763D01*
X607143D01*
Y232975D01*
X607037D01*
Y233188D01*
X606930D01*
Y233295D01*
X606824D01*
Y233508D01*
X606718D01*
Y233720D01*
X606611D01*
Y233827D01*
X606505D01*
Y234040D01*
X606398D01*
Y234253D01*
X606292D01*
Y234359D01*
X606185D01*
Y234572D01*
X606079D01*
Y234785D01*
X605973D01*
Y234891D01*
X605866D01*
Y235104D01*
X605760D01*
Y235210D01*
X605653D01*
Y235423D01*
X605547D01*
Y235636D01*
X605440D01*
Y235743D01*
X605334D01*
Y235849D01*
X625768D01*
Y235636D01*
D02*
G37*
G36*
X719638Y228612D02*
X719745D01*
Y228399D01*
X719851D01*
Y228186D01*
X719958D01*
Y227973D01*
X720064D01*
Y227760D01*
X720170D01*
Y227441D01*
X720277D01*
Y227228D01*
X720383D01*
Y227015D01*
X720490D01*
Y226803D01*
X720596D01*
Y226590D01*
X720703D01*
Y226377D01*
X720809D01*
Y226164D01*
X720916D01*
Y225951D01*
X721022D01*
Y225738D01*
X721128D01*
Y225632D01*
X707506D01*
Y225738D01*
X707612D01*
Y228612D01*
X707506D01*
Y228718D01*
X719638D01*
Y228612D01*
D02*
G37*
G36*
X622788Y228505D02*
X622895D01*
Y228399D01*
X623001D01*
Y228186D01*
X623108D01*
Y227973D01*
X623214D01*
Y227867D01*
X623320D01*
Y227548D01*
X623427D01*
Y227441D01*
X623533D01*
Y227228D01*
X623640D01*
Y227122D01*
X623746D01*
Y226909D01*
X623853D01*
Y226696D01*
X623959D01*
Y226590D01*
X624065D01*
Y226377D01*
X624172D01*
Y226164D01*
X624278D01*
Y226058D01*
X624385D01*
Y225845D01*
X624491D01*
Y225738D01*
X624598D01*
Y225632D01*
X607675D01*
Y228718D01*
X622788D01*
Y228505D01*
D02*
G37*
G36*
X722086Y221375D02*
X722193D01*
Y221162D01*
X722299D01*
Y220949D01*
X722405D01*
Y220630D01*
X722512D01*
Y220417D01*
X722618D01*
Y220204D01*
X722725D01*
Y219991D01*
X722831D01*
Y219778D01*
X722938D01*
Y219459D01*
X723044D01*
Y219353D01*
X723150D01*
Y219140D01*
X723257D01*
Y218927D01*
X723363D01*
Y218714D01*
X723470D01*
Y218501D01*
X707506D01*
Y218608D01*
X707612D01*
Y221588D01*
X722086D01*
Y221375D01*
D02*
G37*
G36*
X706441Y218608D02*
X706548D01*
Y218501D01*
X703355D01*
Y232763D01*
X703248D01*
Y232869D01*
X703142D01*
Y232975D01*
X703035D01*
Y233082D01*
X702929D01*
Y233188D01*
X702716D01*
Y233295D01*
X702610D01*
Y233401D01*
X702503D01*
Y233508D01*
X702397D01*
Y233614D01*
X702184D01*
Y233720D01*
X702078D01*
Y233827D01*
X701971D01*
Y233933D01*
X701758D01*
Y234040D01*
X701652D01*
Y234146D01*
X701545D01*
Y234253D01*
X701439D01*
Y234359D01*
X701226D01*
Y234465D01*
X701120D01*
Y234572D01*
X700907D01*
Y234678D01*
X700801D01*
Y234785D01*
X700694D01*
Y234891D01*
X700481D01*
Y234998D01*
X700375D01*
Y235104D01*
X700268D01*
Y235210D01*
X700162D01*
Y235317D01*
X699949D01*
Y235423D01*
X699843D01*
Y235530D01*
X699736D01*
Y235636D01*
X699630D01*
Y235743D01*
X699417D01*
Y235849D01*
X706441D01*
Y218608D01*
D02*
G37*
G36*
X694628Y235743D02*
X695266D01*
Y235636D01*
X695692D01*
Y235530D01*
X695905D01*
Y235423D01*
X696224D01*
Y235317D01*
X696437D01*
Y235210D01*
X696650D01*
Y235104D01*
X696863D01*
Y234998D01*
X696969D01*
Y234891D01*
X697182D01*
Y234785D01*
X697288D01*
Y234678D01*
X697501D01*
Y234572D01*
X697608D01*
Y234465D01*
X697714D01*
Y234359D01*
X697821D01*
Y234253D01*
X697927D01*
Y234146D01*
X698033D01*
Y234040D01*
X698140D01*
Y233933D01*
X698246D01*
Y233720D01*
X698353D01*
Y233614D01*
X698459D01*
Y233508D01*
X698565D01*
Y233295D01*
X698672D01*
Y233188D01*
X698778D01*
Y232975D01*
X698885D01*
Y232763D01*
X698991D01*
Y232656D01*
X699098D01*
Y232337D01*
X699204D01*
Y232018D01*
X699310D01*
Y231698D01*
X699417D01*
Y231379D01*
X699523D01*
Y230740D01*
X699630D01*
Y228718D01*
X699523D01*
Y228186D01*
X699417D01*
Y227760D01*
X699310D01*
Y227441D01*
X699204D01*
Y227228D01*
X699098D01*
Y227015D01*
X698991D01*
Y226803D01*
X698885D01*
Y226590D01*
X698778D01*
Y226377D01*
X698672D01*
Y226164D01*
X698565D01*
Y226058D01*
X698459D01*
Y225845D01*
X698353D01*
Y225738D01*
X698246D01*
Y225632D01*
X698140D01*
Y225525D01*
X698033D01*
Y225419D01*
X697927D01*
Y225313D01*
X697821D01*
Y225206D01*
X697714D01*
Y225100D01*
X697608D01*
Y224993D01*
X697501D01*
Y224887D01*
X697395D01*
Y224780D01*
X697182D01*
Y224674D01*
X697076D01*
Y224568D01*
X696863D01*
Y224461D01*
X696650D01*
Y224355D01*
X696437D01*
Y224248D01*
X696224D01*
Y224142D01*
X696011D01*
Y224035D01*
X695692D01*
Y223929D01*
X695373D01*
Y223823D01*
X694947D01*
Y223716D01*
X694202D01*
Y223503D01*
X694308D01*
Y223397D01*
X694415D01*
Y223290D01*
X694521D01*
Y223078D01*
X694628D01*
Y222971D01*
X694734D01*
Y222865D01*
X694840D01*
Y222758D01*
X694947D01*
Y222652D01*
X695053D01*
Y222439D01*
X695160D01*
Y222333D01*
X695266D01*
Y222226D01*
X695373D01*
Y222120D01*
X695479D01*
Y221907D01*
X695585D01*
Y221800D01*
X695692D01*
Y221588D01*
X695905D01*
Y221375D01*
X696011D01*
Y221268D01*
X696118D01*
Y221162D01*
X696224D01*
Y221055D01*
X696330D01*
Y220949D01*
X696437D01*
Y220736D01*
X696543D01*
Y220630D01*
X696650D01*
Y220417D01*
X696863D01*
Y220204D01*
X696969D01*
Y220098D01*
X697076D01*
Y219885D01*
X697288D01*
Y219778D01*
X697395D01*
Y219565D01*
X697501D01*
Y219459D01*
X697608D01*
Y219246D01*
X697821D01*
Y219033D01*
X697927D01*
Y218927D01*
X698033D01*
Y218714D01*
X698246D01*
Y218608D01*
X698353D01*
Y218501D01*
X694628D01*
Y218608D01*
X694521D01*
Y218714D01*
X694415D01*
Y218927D01*
X694308D01*
Y219033D01*
X694202D01*
Y219140D01*
X694096D01*
Y219246D01*
X693989D01*
Y219459D01*
X693883D01*
Y219565D01*
X693776D01*
Y219672D01*
X693670D01*
Y219778D01*
X693563D01*
Y219991D01*
X693457D01*
Y220098D01*
X693351D01*
Y220204D01*
X693244D01*
Y220310D01*
X693138D01*
Y220417D01*
X693031D01*
Y220630D01*
X692925D01*
Y220736D01*
X692818D01*
Y220843D01*
X692712D01*
Y220949D01*
X692605D01*
Y221162D01*
X692499D01*
Y221268D01*
X692393D01*
Y221481D01*
X692180D01*
Y221694D01*
X692073D01*
Y221800D01*
X691967D01*
Y222013D01*
X691754D01*
Y222226D01*
X691648D01*
Y222333D01*
X691541D01*
Y222439D01*
X691435D01*
Y222652D01*
X691328D01*
Y222758D01*
X691222D01*
Y222865D01*
X691116D01*
Y222971D01*
X691009D01*
Y223184D01*
X690903D01*
Y223290D01*
X690796D01*
Y223397D01*
X690690D01*
Y223503D01*
X690583D01*
Y223610D01*
X684623D01*
Y223716D01*
X684517D01*
Y224035D01*
X684410D01*
Y224248D01*
X684304D01*
Y224461D01*
X684198D01*
Y224780D01*
X684091D01*
Y224993D01*
X683985D01*
Y225206D01*
X683878D01*
Y225419D01*
X683772D01*
Y225632D01*
X683666D01*
Y225845D01*
X683559D01*
Y226058D01*
X683453D01*
Y226270D01*
X683346D01*
Y226483D01*
X683240D01*
Y226696D01*
X693457D01*
Y226803D01*
X694308D01*
Y226909D01*
X694734D01*
Y227015D01*
X694947D01*
Y227122D01*
X695160D01*
Y227228D01*
X695373D01*
Y227335D01*
X695479D01*
Y227441D01*
X695585D01*
Y227548D01*
X695798D01*
Y227654D01*
X695905D01*
Y227760D01*
X696011D01*
Y227973D01*
X696118D01*
Y228080D01*
X696224D01*
Y228293D01*
X696330D01*
Y228399D01*
X696437D01*
Y228612D01*
X696543D01*
Y228931D01*
X696650D01*
Y229676D01*
X696756D01*
Y229889D01*
X696650D01*
Y230634D01*
X696543D01*
Y230953D01*
X696437D01*
Y231060D01*
X696330D01*
Y231273D01*
X696224D01*
Y231379D01*
X696118D01*
Y231592D01*
X696011D01*
Y231698D01*
X695905D01*
Y231805D01*
X695798D01*
Y231911D01*
X695692D01*
Y232018D01*
X695585D01*
Y232124D01*
X695373D01*
Y232230D01*
X695266D01*
Y232337D01*
X695053D01*
Y232443D01*
X694840D01*
Y232550D01*
X694521D01*
Y232656D01*
X693989D01*
Y232763D01*
X678876D01*
Y232975D01*
X678770D01*
Y233188D01*
X678663D01*
Y233401D01*
X678557D01*
Y233614D01*
X678450D01*
Y233827D01*
X678344D01*
Y234040D01*
X678238D01*
Y234359D01*
X678131D01*
Y234572D01*
X678025D01*
Y234785D01*
X677918D01*
Y234998D01*
X677812D01*
Y235210D01*
X677705D01*
Y235530D01*
X677599D01*
Y235743D01*
X677493D01*
Y235849D01*
X694628D01*
Y235743D01*
D02*
G37*
G36*
X673448D02*
X673555D01*
Y235530D01*
X673661D01*
Y235423D01*
X673768D01*
Y235210D01*
X673874D01*
Y234998D01*
X673981D01*
Y234891D01*
X674087D01*
Y234678D01*
X674193D01*
Y234465D01*
X674300D01*
Y234359D01*
X674406D01*
Y234146D01*
X674513D01*
Y234040D01*
X674619D01*
Y233827D01*
X674725D01*
Y233614D01*
X674832D01*
Y233508D01*
X674938D01*
Y233188D01*
X675045D01*
Y233082D01*
X675151D01*
Y232975D01*
X675258D01*
Y232763D01*
X665253D01*
Y218501D01*
X662060D01*
Y222439D01*
X662167D01*
Y222652D01*
X662060D01*
Y222758D01*
X662167D01*
Y223078D01*
X662060D01*
Y223184D01*
X662167D01*
Y223397D01*
X662060D01*
Y223503D01*
X662167D01*
Y223716D01*
X662060D01*
Y223823D01*
X662167D01*
Y224035D01*
X662060D01*
Y224142D01*
X662167D01*
Y224355D01*
X662060D01*
Y224461D01*
X662167D01*
Y224674D01*
X662060D01*
Y224780D01*
X662167D01*
Y224993D01*
X662060D01*
Y225100D01*
X662167D01*
Y225313D01*
X662060D01*
Y225632D01*
X662167D01*
Y225951D01*
X662060D01*
Y226058D01*
X662167D01*
Y226270D01*
X662060D01*
Y226377D01*
X662167D01*
Y226590D01*
X662060D01*
Y226696D01*
X662167D01*
Y226909D01*
X662060D01*
Y227015D01*
X662167D01*
Y227228D01*
X662060D01*
Y227335D01*
X662167D01*
Y227548D01*
X662060D01*
Y227654D01*
X662167D01*
Y227867D01*
X662060D01*
Y227973D01*
X662167D01*
Y228293D01*
X662060D01*
Y228399D01*
X662167D01*
Y228612D01*
X662060D01*
Y228825D01*
X662167D01*
Y232763D01*
X654185D01*
Y232869D01*
X654078D01*
Y233082D01*
X653972D01*
Y233188D01*
X653865D01*
Y233401D01*
X653759D01*
Y233614D01*
X653653D01*
Y233720D01*
X653546D01*
Y233933D01*
X653440D01*
Y234146D01*
X653333D01*
Y234253D01*
X653227D01*
Y234465D01*
X653121D01*
Y234572D01*
X653014D01*
Y234785D01*
X652908D01*
Y234998D01*
X652801D01*
Y235104D01*
X652695D01*
Y235317D01*
X652588D01*
Y235530D01*
X652482D01*
Y235636D01*
X652376D01*
Y235849D01*
X673448D01*
Y235743D01*
D02*
G37*
G36*
X648331Y235636D02*
X648438D01*
Y235530D01*
X648544D01*
Y235317D01*
X648651D01*
Y235104D01*
X648757D01*
Y234998D01*
X648863D01*
Y234785D01*
X648970D01*
Y234572D01*
X649076D01*
Y234465D01*
X649183D01*
Y234253D01*
X649289D01*
Y234146D01*
X649395D01*
Y233933D01*
X649502D01*
Y233720D01*
X649608D01*
Y233614D01*
X649715D01*
Y233401D01*
X649821D01*
Y233188D01*
X649928D01*
Y232975D01*
X650034D01*
Y232869D01*
X650140D01*
Y232763D01*
X636624D01*
Y232656D01*
X636198D01*
Y232550D01*
X635879D01*
Y232443D01*
X635666D01*
Y232337D01*
X635453D01*
Y232230D01*
X635240D01*
Y232124D01*
X635134D01*
Y232018D01*
X635028D01*
Y231911D01*
X634921D01*
Y231805D01*
X634815D01*
Y231698D01*
X634708D01*
Y231592D01*
X634602D01*
Y231485D01*
X634495D01*
Y231379D01*
X634389D01*
Y231273D01*
X634283D01*
Y231166D01*
X634176D01*
Y230953D01*
X634070D01*
Y230847D01*
X633963D01*
Y230634D01*
X633857D01*
Y230528D01*
X633750D01*
Y230315D01*
X633644D01*
Y230102D01*
X633538D01*
Y229889D01*
X633431D01*
Y229570D01*
X633325D01*
Y229144D01*
X633218D01*
Y228612D01*
X633112D01*
Y227654D01*
X633005D01*
Y226696D01*
X633112D01*
Y225632D01*
X633218D01*
Y225206D01*
X633325D01*
Y224780D01*
X633431D01*
Y224568D01*
X633538D01*
Y224248D01*
X633644D01*
Y224035D01*
X633750D01*
Y223823D01*
X633857D01*
Y223716D01*
X633963D01*
Y223503D01*
X634070D01*
Y223397D01*
X634176D01*
Y223184D01*
X634283D01*
Y223078D01*
X634389D01*
Y222971D01*
X634495D01*
Y222865D01*
X634602D01*
Y222758D01*
X634708D01*
Y222652D01*
X634815D01*
Y222545D01*
X634921D01*
Y222439D01*
X635134D01*
Y222333D01*
X635240D01*
Y222226D01*
X635453D01*
Y222120D01*
X635560D01*
Y222013D01*
X635773D01*
Y221907D01*
X636092D01*
Y221800D01*
X636411D01*
Y221694D01*
X636943D01*
Y221588D01*
X650885D01*
Y218501D01*
X636411D01*
Y218608D01*
X635773D01*
Y218714D01*
X635347D01*
Y218820D01*
X634921D01*
Y218927D01*
X634708D01*
Y219033D01*
X634495D01*
Y219140D01*
X634283D01*
Y219246D01*
X634070D01*
Y219353D01*
X633963D01*
Y219459D01*
X633750D01*
Y219565D01*
X633538D01*
Y219672D01*
X633431D01*
Y219778D01*
X633325D01*
Y219885D01*
X633112D01*
Y219991D01*
X633005D01*
Y220098D01*
X632899D01*
Y220204D01*
X632793D01*
Y220310D01*
X632580D01*
Y220417D01*
X632473D01*
Y220523D01*
X632367D01*
Y220736D01*
X632260D01*
Y220843D01*
X632154D01*
Y220949D01*
X632048D01*
Y221162D01*
X631941D01*
Y221268D01*
X631835D01*
Y221375D01*
X631728D01*
Y221588D01*
X631622D01*
Y221694D01*
X631515D01*
Y221907D01*
X631409D01*
Y222013D01*
X631303D01*
Y222226D01*
X631196D01*
Y222439D01*
X631090D01*
Y222652D01*
X630983D01*
Y222971D01*
X630877D01*
Y223184D01*
X630770D01*
Y223397D01*
X630664D01*
Y223716D01*
X630558D01*
Y224035D01*
X630451D01*
Y224461D01*
X630345D01*
Y224887D01*
X630238D01*
Y225525D01*
X630132D01*
Y226803D01*
X630025D01*
Y227654D01*
X630132D01*
Y228293D01*
X630025D01*
Y228399D01*
X630132D01*
Y228931D01*
X630238D01*
Y229570D01*
X630345D01*
Y229995D01*
X630451D01*
Y230421D01*
X630558D01*
Y230740D01*
X630664D01*
Y231060D01*
X630770D01*
Y231379D01*
X630877D01*
Y231592D01*
X630983D01*
Y231805D01*
X631090D01*
Y232018D01*
X631196D01*
Y232230D01*
X631303D01*
Y232443D01*
X631409D01*
Y232656D01*
X631515D01*
Y232763D01*
X631622D01*
Y232869D01*
X631728D01*
Y233082D01*
X631835D01*
Y233188D01*
X631941D01*
Y233401D01*
X632048D01*
Y233508D01*
X632154D01*
Y233614D01*
X632260D01*
Y233720D01*
X632367D01*
Y233827D01*
X632473D01*
Y233933D01*
X632580D01*
Y234040D01*
X632686D01*
Y234146D01*
X632793D01*
Y234253D01*
X632899D01*
Y234359D01*
X633005D01*
Y234465D01*
X633112D01*
Y234572D01*
X633325D01*
Y234678D01*
X633431D01*
Y234785D01*
X633538D01*
Y234891D01*
X633750D01*
Y234998D01*
X633963D01*
Y235104D01*
X634176D01*
Y235210D01*
X634389D01*
Y235317D01*
X634602D01*
Y235423D01*
X634921D01*
Y235530D01*
X635347D01*
Y235636D01*
X635666D01*
Y235743D01*
X636305D01*
Y235849D01*
X648331D01*
Y235636D01*
D02*
G37*
G36*
X625768Y221375D02*
X625875D01*
Y221162D01*
X625981D01*
Y221055D01*
X626088D01*
Y220843D01*
X626194D01*
Y220736D01*
X626300D01*
Y220523D01*
X626407D01*
Y220310D01*
X626513D01*
Y220204D01*
X626620D01*
Y219991D01*
X626726D01*
Y219778D01*
X626833D01*
Y219672D01*
X626939D01*
Y219459D01*
X627045D01*
Y219246D01*
X627152D01*
Y219140D01*
X627258D01*
Y218927D01*
X627365D01*
Y218714D01*
X627471D01*
Y218608D01*
X627578D01*
Y218501D01*
X607675D01*
Y221588D01*
X625768D01*
Y221375D01*
D02*
G37*
G36*
X598948Y235743D02*
X599587D01*
Y235636D01*
X599906D01*
Y235530D01*
X600225D01*
Y235423D01*
X600545D01*
Y235317D01*
X600758D01*
Y235210D01*
X600864D01*
Y235104D01*
X601077D01*
Y234998D01*
X601183D01*
Y234891D01*
X601396D01*
Y234785D01*
X601503D01*
Y234678D01*
X601609D01*
Y234572D01*
X601822D01*
Y234465D01*
X601928D01*
Y234359D01*
X602035D01*
Y234253D01*
X602141D01*
Y234146D01*
X602248D01*
Y234040D01*
X602354D01*
Y233827D01*
X602460D01*
Y233720D01*
X602567D01*
Y233614D01*
X602673D01*
Y233401D01*
X602780D01*
Y233295D01*
X602886D01*
Y232975D01*
X602993D01*
Y232869D01*
X603099D01*
Y232550D01*
X603205D01*
Y232337D01*
X603312D01*
Y232018D01*
X603418D01*
Y231698D01*
X603525D01*
Y231273D01*
X603631D01*
Y230528D01*
X603738D01*
Y229357D01*
X603631D01*
Y229144D01*
X603738D01*
Y229038D01*
X603631D01*
Y228718D01*
X603525D01*
Y228293D01*
X603418D01*
Y227867D01*
X603312D01*
Y227654D01*
X603205D01*
Y227335D01*
X603099D01*
Y227122D01*
X602993D01*
Y226909D01*
X602886D01*
Y226696D01*
X602780D01*
Y226483D01*
X602673D01*
Y226377D01*
X602567D01*
Y226270D01*
X602460D01*
Y226058D01*
X602354D01*
Y225951D01*
X602248D01*
Y225845D01*
X602141D01*
Y225738D01*
X602035D01*
Y225632D01*
X601928D01*
Y225525D01*
X601822D01*
Y225419D01*
X601715D01*
Y225313D01*
X601609D01*
Y225206D01*
X601396D01*
Y225100D01*
X601290D01*
Y224993D01*
X601183D01*
Y224887D01*
X600970D01*
Y224780D01*
X600758D01*
Y224674D01*
X600545D01*
Y224568D01*
X600332D01*
Y224461D01*
X600119D01*
Y224355D01*
X599693D01*
Y224248D01*
X599268D01*
Y224142D01*
X598097D01*
Y224035D01*
X586070D01*
Y218501D01*
X582984D01*
Y227015D01*
X598416D01*
Y227122D01*
X598842D01*
Y227228D01*
X599161D01*
Y227335D01*
X599374D01*
Y227441D01*
X599480D01*
Y227548D01*
X599693D01*
Y227654D01*
X599800D01*
Y227760D01*
X599906D01*
Y227867D01*
X600013D01*
Y227973D01*
X600119D01*
Y228080D01*
X600225D01*
Y228293D01*
X600332D01*
Y228505D01*
X600438D01*
Y228718D01*
X600545D01*
Y229038D01*
X600651D01*
Y229676D01*
X600758D01*
Y229995D01*
X600651D01*
Y230740D01*
X600545D01*
Y231060D01*
X600438D01*
Y231273D01*
X600332D01*
Y231485D01*
X600225D01*
Y231592D01*
X600119D01*
Y231805D01*
X600013D01*
Y231911D01*
X599906D01*
Y232018D01*
X599800D01*
Y232124D01*
X599587D01*
Y232230D01*
X599480D01*
Y232337D01*
X599268D01*
Y232443D01*
X599055D01*
Y232550D01*
X598735D01*
Y232656D01*
X597990D01*
Y232763D01*
X582558D01*
Y232869D01*
X582452D01*
Y233082D01*
X582345D01*
Y233295D01*
X582239D01*
Y233401D01*
X582132D01*
Y233614D01*
X582026D01*
Y233827D01*
X581920D01*
Y233933D01*
X581813D01*
Y234146D01*
X581707D01*
Y234359D01*
X581600D01*
Y234465D01*
X581494D01*
Y234678D01*
X581388D01*
Y234891D01*
X581281D01*
Y234998D01*
X581175D01*
Y235210D01*
X581068D01*
Y235423D01*
X580962D01*
Y235530D01*
X580855D01*
Y235743D01*
X580749D01*
Y235849D01*
X598948D01*
Y235743D01*
D02*
G37*
G36*
X584261Y214138D02*
X584155D01*
Y213712D01*
X584048D01*
Y213286D01*
X583942D01*
Y212860D01*
X583835D01*
Y212328D01*
X583729D01*
Y212009D01*
X583623D01*
Y211583D01*
X583516D01*
Y211051D01*
X583410D01*
Y210838D01*
X583303D01*
Y210732D01*
X583410D01*
Y210625D01*
X583303D01*
Y210413D01*
X583197D01*
Y209987D01*
X583090D01*
Y209561D01*
X582984D01*
Y209135D01*
X582877D01*
Y208710D01*
X582771D01*
Y208284D01*
X582665D01*
Y207858D01*
X582558D01*
Y207433D01*
X581600D01*
Y207539D01*
X581707D01*
Y207965D01*
X581813D01*
Y208390D01*
X581920D01*
Y208816D01*
X582026D01*
Y209135D01*
X582132D01*
Y209561D01*
X582239D01*
Y209987D01*
X582345D01*
Y210413D01*
X582452D01*
Y210838D01*
X582558D01*
Y211264D01*
X582665D01*
Y211583D01*
X582771D01*
Y212115D01*
X582877D01*
Y212435D01*
X582984D01*
Y212754D01*
X583090D01*
Y213073D01*
X583197D01*
Y213499D01*
X582984D01*
Y213286D01*
X582877D01*
Y213180D01*
X582771D01*
Y213073D01*
X582665D01*
Y212860D01*
X582558D01*
Y212754D01*
X582452D01*
Y212541D01*
X582345D01*
Y212435D01*
X582239D01*
Y212328D01*
X582132D01*
Y212115D01*
X582026D01*
Y212009D01*
X581920D01*
Y211903D01*
X581813D01*
Y211796D01*
X581707D01*
Y211583D01*
X581600D01*
Y211477D01*
X581494D01*
Y211370D01*
X581388D01*
Y211157D01*
X581281D01*
Y211051D01*
X581175D01*
Y210945D01*
X581068D01*
Y210838D01*
X580962D01*
Y210625D01*
X580855D01*
Y210519D01*
X580749D01*
Y210413D01*
X580643D01*
Y210200D01*
X580536D01*
Y210093D01*
X580430D01*
Y209987D01*
X580323D01*
Y209880D01*
X580217D01*
Y209667D01*
X580110D01*
Y209561D01*
X580004D01*
Y209455D01*
X579897D01*
Y209242D01*
X579791D01*
Y209135D01*
X579685D01*
Y208923D01*
X579472D01*
Y208710D01*
X579365D01*
Y208603D01*
X579259D01*
Y208390D01*
X579152D01*
Y208284D01*
X579046D01*
Y208177D01*
X578940D01*
Y207965D01*
X578833D01*
Y207858D01*
X578727D01*
Y207752D01*
X578620D01*
Y207645D01*
X578514D01*
Y207433D01*
X577982D01*
Y207858D01*
X577875D01*
Y208284D01*
X577769D01*
Y208710D01*
X577663D01*
Y209135D01*
X577556D01*
Y209561D01*
X577450D01*
Y209987D01*
X577343D01*
Y210413D01*
X577237D01*
Y210732D01*
X577130D01*
Y211157D01*
X577024D01*
Y211583D01*
X576918D01*
Y212009D01*
X576811D01*
Y212435D01*
X576705D01*
Y212967D01*
X576598D01*
Y213392D01*
X576492D01*
Y213499D01*
X576279D01*
Y212967D01*
X576172D01*
Y212435D01*
X576066D01*
Y211903D01*
X575960D01*
Y211477D01*
X575853D01*
Y211051D01*
X575747D01*
Y210732D01*
X575640D01*
Y210306D01*
X575534D01*
Y209880D01*
X575427D01*
Y209455D01*
X575321D01*
Y209029D01*
X575215D01*
Y208603D01*
X575108D01*
Y208177D01*
X575002D01*
Y207752D01*
X574895D01*
Y207433D01*
X573938D01*
Y207539D01*
X574044D01*
Y207858D01*
X574150D01*
Y208284D01*
X574257D01*
Y208710D01*
X574363D01*
Y209135D01*
X574470D01*
Y209561D01*
X574576D01*
Y209987D01*
X574683D01*
Y210306D01*
X574789D01*
Y210732D01*
X574895D01*
Y211157D01*
X575002D01*
Y211690D01*
X575108D01*
Y212115D01*
X575215D01*
Y212435D01*
X575321D01*
Y212860D01*
X575427D01*
Y213286D01*
X575534D01*
Y213712D01*
X575640D01*
Y214138D01*
X575747D01*
Y214350D01*
X577130D01*
Y214244D01*
X577237D01*
Y213818D01*
X577343D01*
Y213392D01*
X577450D01*
Y212967D01*
X577556D01*
Y212541D01*
X577663D01*
Y212115D01*
X577769D01*
Y211690D01*
X577875D01*
Y211157D01*
X577982D01*
Y210732D01*
X578088D01*
Y210306D01*
X578195D01*
Y209880D01*
X578301D01*
Y209561D01*
X578407D01*
Y208923D01*
X578514D01*
Y208710D01*
X578727D01*
Y208923D01*
X578833D01*
Y209029D01*
X578940D01*
Y209242D01*
X579046D01*
Y209348D01*
X579152D01*
Y209455D01*
X579259D01*
Y209667D01*
X579365D01*
Y209774D01*
X579472D01*
Y209987D01*
X579578D01*
Y210093D01*
X579685D01*
Y210200D01*
X579791D01*
Y210413D01*
X579897D01*
Y210519D01*
X580004D01*
Y210625D01*
X580110D01*
Y210838D01*
X580217D01*
Y210945D01*
X580323D01*
Y211051D01*
X580430D01*
Y211264D01*
X580536D01*
Y211370D01*
X580643D01*
Y211477D01*
X580749D01*
Y211583D01*
X580855D01*
Y211796D01*
X580962D01*
Y211903D01*
X581068D01*
Y212009D01*
X581175D01*
Y212222D01*
X581281D01*
Y212328D01*
X581388D01*
Y212435D01*
X581494D01*
Y212541D01*
X581600D01*
Y212754D01*
X581707D01*
Y212860D01*
X581813D01*
Y212967D01*
X581920D01*
Y213180D01*
X582026D01*
Y213286D01*
X582132D01*
Y213392D01*
X582239D01*
Y213605D01*
X582345D01*
Y213712D01*
X582452D01*
Y213818D01*
X582558D01*
Y213925D01*
X582665D01*
Y214138D01*
X582771D01*
Y214244D01*
X582877D01*
Y214350D01*
X584261D01*
Y214138D01*
D02*
G37*
G36*
X623214Y214244D02*
X623108D01*
Y213712D01*
X623001D01*
Y213286D01*
X622895D01*
Y212860D01*
X622788D01*
Y212435D01*
X622682D01*
Y212222D01*
X622575D01*
Y211796D01*
X622469D01*
Y211370D01*
X622363D01*
Y210945D01*
X622256D01*
Y210519D01*
X622150D01*
Y209987D01*
X622043D01*
Y209667D01*
X621937D01*
Y209242D01*
X621830D01*
Y208710D01*
X621724D01*
Y208284D01*
X621618D01*
Y207858D01*
X621511D01*
Y207433D01*
X620447D01*
Y207645D01*
X620340D01*
Y207752D01*
X620234D01*
Y207965D01*
X620128D01*
Y208071D01*
X620021D01*
Y208284D01*
X619915D01*
Y208497D01*
X619808D01*
Y208603D01*
X619702D01*
Y208816D01*
X619595D01*
Y209029D01*
X619489D01*
Y209135D01*
X619383D01*
Y209348D01*
X619276D01*
Y209561D01*
X619170D01*
Y209667D01*
X619063D01*
Y209880D01*
X618957D01*
Y209987D01*
X618850D01*
Y210200D01*
X618744D01*
Y210413D01*
X618638D01*
Y210519D01*
X618531D01*
Y210732D01*
X618425D01*
Y210945D01*
X618318D01*
Y211051D01*
X618212D01*
Y211264D01*
X618105D01*
Y211477D01*
X617999D01*
Y211690D01*
X617893D01*
Y211796D01*
X617786D01*
Y212009D01*
X617680D01*
Y212222D01*
X617573D01*
Y212435D01*
X617467D01*
Y212541D01*
X617360D01*
Y212754D01*
X617254D01*
Y212967D01*
X617148D01*
Y213180D01*
X617041D01*
Y213286D01*
X616828D01*
Y212860D01*
X616722D01*
Y212222D01*
X616615D01*
Y211796D01*
X616509D01*
Y211264D01*
X616403D01*
Y211051D01*
X616296D01*
Y210945D01*
X616403D01*
Y210838D01*
X616296D01*
Y210625D01*
X616190D01*
Y210200D01*
X616083D01*
Y209774D01*
X615977D01*
Y209348D01*
X615870D01*
Y208923D01*
X615764D01*
Y208497D01*
X615658D01*
Y208071D01*
X615551D01*
Y207645D01*
X615445D01*
Y207433D01*
X614593D01*
Y207752D01*
X614700D01*
Y208177D01*
X614806D01*
Y208603D01*
X614913D01*
Y209029D01*
X615019D01*
Y209348D01*
X615125D01*
Y209774D01*
X615232D01*
Y210200D01*
X615338D01*
Y210625D01*
X615445D01*
Y211051D01*
X615551D01*
Y211477D01*
X615658D01*
Y211903D01*
X615764D01*
Y212328D01*
X615870D01*
Y212754D01*
X615977D01*
Y213180D01*
X616083D01*
Y213605D01*
X616190D01*
Y214031D01*
X616296D01*
Y214350D01*
X617360D01*
Y214138D01*
X617467D01*
Y213925D01*
X617573D01*
Y213818D01*
X617680D01*
Y213605D01*
X617786D01*
Y213392D01*
X617893D01*
Y213286D01*
X617999D01*
Y213073D01*
X618105D01*
Y212860D01*
X618212D01*
Y212754D01*
X618318D01*
Y212541D01*
X618425D01*
Y212328D01*
X618531D01*
Y212222D01*
X618638D01*
Y212009D01*
X618744D01*
Y211796D01*
X618850D01*
Y211690D01*
X618957D01*
Y211477D01*
X619063D01*
Y211264D01*
X619170D01*
Y211157D01*
X619276D01*
Y210945D01*
X619383D01*
Y210732D01*
X619489D01*
Y210625D01*
X619595D01*
Y210413D01*
X619702D01*
Y210200D01*
X619808D01*
Y210093D01*
X619915D01*
Y209880D01*
X620021D01*
Y209667D01*
X620128D01*
Y209561D01*
X620234D01*
Y209348D01*
X620340D01*
Y209135D01*
X620447D01*
Y208923D01*
X620553D01*
Y208710D01*
X620660D01*
Y208497D01*
X620873D01*
Y208603D01*
X620979D01*
Y209242D01*
X621085D01*
Y209667D01*
X621192D01*
Y210200D01*
X621298D01*
Y210625D01*
X621405D01*
Y210945D01*
X621511D01*
Y211370D01*
X621618D01*
Y211796D01*
X621724D01*
Y212222D01*
X621830D01*
Y212648D01*
X621937D01*
Y213073D01*
X622043D01*
Y213499D01*
X622150D01*
Y213925D01*
X622256D01*
Y214350D01*
X623214D01*
Y214244D01*
D02*
G37*
G36*
X604270Y214138D02*
X604163D01*
Y213712D01*
X604057D01*
Y213286D01*
X603950D01*
Y212860D01*
X603844D01*
Y212435D01*
X603738D01*
Y212009D01*
X603631D01*
Y211690D01*
X603525D01*
Y211264D01*
X603418D01*
Y210945D01*
X603312D01*
Y210519D01*
X603205D01*
Y209987D01*
X603099D01*
Y209561D01*
X602993D01*
Y209135D01*
X602886D01*
Y208710D01*
X602780D01*
Y208284D01*
X602673D01*
Y207858D01*
X602567D01*
Y207433D01*
X601609D01*
Y207645D01*
X601715D01*
Y208071D01*
X601822D01*
Y208497D01*
X601928D01*
Y208923D01*
X602035D01*
Y209348D01*
X602141D01*
Y209774D01*
X602248D01*
Y210093D01*
X602354D01*
Y210519D01*
X602460D01*
Y210945D01*
X602567D01*
Y211370D01*
X602673D01*
Y211796D01*
X602780D01*
Y212222D01*
X602886D01*
Y212541D01*
X602993D01*
Y213073D01*
X603099D01*
Y213499D01*
X603205D01*
Y213925D01*
X603312D01*
Y214350D01*
X604270D01*
Y214138D01*
D02*
G37*
G36*
X601822Y214031D02*
X601715D01*
Y213712D01*
X598842D01*
Y213605D01*
X598735D01*
Y213180D01*
X598629D01*
Y212967D01*
X598523D01*
Y212860D01*
X598629D01*
Y212754D01*
X598523D01*
Y212541D01*
X598416D01*
Y212115D01*
X598310D01*
Y211690D01*
X598203D01*
Y211264D01*
X598097D01*
Y210838D01*
X597990D01*
Y210413D01*
X597884D01*
Y209880D01*
X597778D01*
Y209561D01*
X597671D01*
Y209135D01*
X597565D01*
Y208603D01*
X597458D01*
Y208177D01*
X597352D01*
Y207965D01*
X597245D01*
Y207858D01*
X597352D01*
Y207752D01*
X597245D01*
Y207433D01*
X596288D01*
Y207539D01*
X596394D01*
Y207965D01*
X596500D01*
Y208390D01*
X596607D01*
Y208816D01*
X596713D01*
Y209242D01*
X596820D01*
Y209667D01*
X596926D01*
Y210093D01*
X597032D01*
Y210519D01*
X597139D01*
Y210945D01*
X597245D01*
Y211264D01*
X597352D01*
Y211690D01*
X597458D01*
Y212115D01*
X597565D01*
Y212541D01*
X597671D01*
Y212967D01*
X597778D01*
Y213392D01*
X597884D01*
Y213605D01*
X597778D01*
Y213712D01*
X595010D01*
Y213925D01*
X595117D01*
Y214350D01*
X601822D01*
Y214031D01*
D02*
G37*
G36*
X611400Y214350D02*
X611720D01*
Y214244D01*
X612039D01*
Y214138D01*
X612252D01*
Y214031D01*
X612358D01*
Y213925D01*
X612571D01*
Y213818D01*
X612678D01*
Y213712D01*
X612784D01*
Y213605D01*
X612890D01*
Y213499D01*
X612997D01*
Y213286D01*
X613103D01*
Y213180D01*
X613210D01*
Y212967D01*
X613316D01*
Y212648D01*
X613423D01*
Y211051D01*
X613316D01*
Y210732D01*
X613210D01*
Y210306D01*
X613103D01*
Y210093D01*
X612997D01*
Y209880D01*
X612890D01*
Y209667D01*
X612784D01*
Y209561D01*
X612678D01*
Y209348D01*
X612571D01*
Y209242D01*
X612465D01*
Y209135D01*
X612358D01*
Y209029D01*
X612252D01*
Y208816D01*
X612145D01*
Y208710D01*
X612039D01*
Y208603D01*
X611826D01*
Y208497D01*
X611720D01*
Y208390D01*
X611613D01*
Y208284D01*
X611507D01*
Y208177D01*
X611294D01*
Y208071D01*
X611081D01*
Y207965D01*
X610975D01*
Y207858D01*
X610762D01*
Y207752D01*
X610443D01*
Y207645D01*
X610230D01*
Y207539D01*
X609804D01*
Y207433D01*
X609485D01*
Y207326D01*
X607463D01*
Y207433D01*
X607143D01*
Y207539D01*
X606824D01*
Y207645D01*
X606611D01*
Y207752D01*
X606398D01*
Y207858D01*
X606185D01*
Y207965D01*
X606079D01*
Y208071D01*
X605973D01*
Y208177D01*
X605866D01*
Y208284D01*
X605760D01*
Y208390D01*
X605653D01*
Y208603D01*
X605547D01*
Y208816D01*
X605440D01*
Y209242D01*
X605334D01*
Y210625D01*
X605440D01*
Y211051D01*
X605547D01*
Y211370D01*
X605653D01*
Y211690D01*
X605760D01*
Y211903D01*
X605866D01*
Y212115D01*
X605973D01*
Y212222D01*
X606079D01*
Y212435D01*
X606185D01*
Y212541D01*
X606292D01*
Y212754D01*
X606398D01*
Y212860D01*
X606505D01*
Y212967D01*
X606611D01*
Y213073D01*
X606718D01*
Y213180D01*
X606824D01*
Y213286D01*
X606930D01*
Y213392D01*
X607143D01*
Y213499D01*
X607250D01*
Y213605D01*
X607356D01*
Y213712D01*
X607569D01*
Y213818D01*
X607782D01*
Y213925D01*
X607995D01*
Y214031D01*
X608208D01*
Y214138D01*
X608527D01*
Y214244D01*
X608846D01*
Y214350D01*
X609272D01*
Y214457D01*
X611400D01*
Y214350D01*
D02*
G37*
G36*
X590328Y214457D02*
X591392D01*
Y214350D01*
X591711D01*
Y214244D01*
X592030D01*
Y214138D01*
X592243D01*
Y214031D01*
X592456D01*
Y213925D01*
X592563D01*
Y213818D01*
X592669D01*
Y213712D01*
X592775D01*
Y213605D01*
X592882D01*
Y213499D01*
X592988D01*
Y213392D01*
X593095D01*
Y213180D01*
X593201D01*
Y213073D01*
X593307D01*
Y212648D01*
X593414D01*
Y212435D01*
X593520D01*
Y212328D01*
X593414D01*
Y211477D01*
X593520D01*
Y211370D01*
X593414D01*
Y211051D01*
X593307D01*
Y210732D01*
X593201D01*
Y210306D01*
X593095D01*
Y210093D01*
X592988D01*
Y209880D01*
X592882D01*
Y209667D01*
X592775D01*
Y209561D01*
X592669D01*
Y209348D01*
X592563D01*
Y209135D01*
X592456D01*
Y209029D01*
X592350D01*
Y208923D01*
X592243D01*
Y208816D01*
X592137D01*
Y208710D01*
X592030D01*
Y208603D01*
X591924D01*
Y208497D01*
X591818D01*
Y208390D01*
X591711D01*
Y208284D01*
X591498D01*
Y208177D01*
X591392D01*
Y208071D01*
X591073D01*
Y207965D01*
X590966D01*
Y207858D01*
X590753D01*
Y207752D01*
X590434D01*
Y207645D01*
X590221D01*
Y207539D01*
X589902D01*
Y207433D01*
X589476D01*
Y207326D01*
X587454D01*
Y207433D01*
X587135D01*
Y207539D01*
X586815D01*
Y207645D01*
X586602D01*
Y207752D01*
X586390D01*
Y207858D01*
X586283D01*
Y207965D01*
X586070D01*
Y208071D01*
X585964D01*
Y208177D01*
X585857D01*
Y208390D01*
X585751D01*
Y208497D01*
X585645D01*
Y208710D01*
X585538D01*
Y208923D01*
X585432D01*
Y209242D01*
X585325D01*
Y210625D01*
X585432D01*
Y211051D01*
X585538D01*
Y211370D01*
X585645D01*
Y211690D01*
X585751D01*
Y211903D01*
X585857D01*
Y212009D01*
X585964D01*
Y212222D01*
X586070D01*
Y212328D01*
X586177D01*
Y212541D01*
X586283D01*
Y212648D01*
X586390D01*
Y212860D01*
X586496D01*
Y212967D01*
X586602D01*
Y213073D01*
X586709D01*
Y213180D01*
X586815D01*
Y213286D01*
X586922D01*
Y213392D01*
X587135D01*
Y213499D01*
X587241D01*
Y213605D01*
X587454D01*
Y213712D01*
X587560D01*
Y213818D01*
X587773D01*
Y213925D01*
X587986D01*
Y214031D01*
X588199D01*
Y214138D01*
X588518D01*
Y214244D01*
X588838D01*
Y214350D01*
X589263D01*
Y214457D01*
X590221D01*
Y214563D01*
X590328D01*
Y214457D01*
D02*
G37*
G36*
X623001Y206049D02*
X622788D01*
Y205943D01*
X622682D01*
Y205836D01*
X622469D01*
Y205730D01*
X622363D01*
Y205623D01*
X622150D01*
Y205517D01*
X622043D01*
Y205410D01*
X621830D01*
Y205304D01*
X621724D01*
Y205198D01*
X571170D01*
Y205304D01*
X571277D01*
Y205410D01*
X571490D01*
Y205517D01*
X571596D01*
Y205623D01*
X571809D01*
Y205730D01*
X571915D01*
Y205836D01*
X572128D01*
Y205943D01*
X572235D01*
Y206049D01*
X572447D01*
Y206155D01*
X623001D01*
Y206049D01*
D02*
G37*
G36*
X587454Y254900D02*
X587348D01*
Y254793D01*
X587241D01*
Y254580D01*
X587135D01*
Y254474D01*
X587028D01*
Y254368D01*
X586922D01*
Y254155D01*
X586815D01*
Y254048D01*
X586709D01*
Y253835D01*
X586602D01*
Y253729D01*
X586496D01*
Y253516D01*
X586390D01*
Y253410D01*
X586283D01*
Y253197D01*
X586177D01*
Y253090D01*
X586070D01*
Y252984D01*
X585964D01*
Y252771D01*
X585857D01*
Y252665D01*
X585751D01*
Y252452D01*
X585645D01*
Y252345D01*
X585538D01*
Y252133D01*
X585432D01*
Y252026D01*
X585325D01*
Y251813D01*
X585219D01*
Y251707D01*
X585112D01*
Y251494D01*
X585006D01*
Y251281D01*
X584793D01*
Y251068D01*
X584687D01*
Y250962D01*
X584580D01*
Y250749D01*
X584474D01*
Y250536D01*
X584368D01*
Y250430D01*
X584261D01*
Y250217D01*
X584155D01*
Y250110D01*
X584048D01*
Y249898D01*
X583942D01*
Y249791D01*
X583835D01*
Y249578D01*
X583729D01*
Y249472D01*
X583623D01*
Y249365D01*
X583516D01*
Y249153D01*
X583410D01*
Y249046D01*
X583303D01*
Y248833D01*
X583197D01*
Y248727D01*
X583090D01*
Y248514D01*
X582984D01*
Y248408D01*
X582877D01*
Y248195D01*
X582771D01*
Y248088D01*
X582665D01*
Y247982D01*
X582558D01*
Y247769D01*
X582452D01*
Y247663D01*
X582345D01*
Y247450D01*
X582239D01*
Y247343D01*
X582132D01*
Y247130D01*
X582026D01*
Y247024D01*
X581920D01*
Y246811D01*
X581813D01*
Y246598D01*
X581707D01*
Y246492D01*
X581600D01*
Y246279D01*
X581388D01*
Y246066D01*
X581281D01*
Y245853D01*
X581175D01*
Y245747D01*
X581068D01*
Y245534D01*
X580962D01*
Y245428D01*
X580855D01*
Y245215D01*
X580749D01*
Y245108D01*
X580643D01*
Y244895D01*
X580536D01*
Y244789D01*
X580430D01*
Y244576D01*
X580323D01*
Y244470D01*
X580217D01*
Y244363D01*
X580110D01*
Y244150D01*
X580004D01*
Y244044D01*
X579897D01*
Y243831D01*
X579791D01*
Y243725D01*
X579685D01*
Y243512D01*
X579578D01*
Y243405D01*
X579472D01*
Y243193D01*
X579365D01*
Y242980D01*
X579259D01*
Y242873D01*
X579152D01*
Y242767D01*
X579046D01*
Y242660D01*
X578940D01*
Y242448D01*
X578833D01*
Y242341D01*
X578727D01*
Y242128D01*
X578620D01*
Y241915D01*
X578514D01*
Y241809D01*
X578407D01*
Y241596D01*
X578301D01*
Y241490D01*
X578195D01*
Y241277D01*
X578088D01*
Y241170D01*
X577982D01*
Y241064D01*
X577875D01*
Y240851D01*
X577769D01*
Y240745D01*
X577663D01*
Y240532D01*
X577556D01*
Y240425D01*
X577450D01*
Y240213D01*
X577343D01*
Y240106D01*
X577237D01*
Y239893D01*
X577130D01*
Y239787D01*
X577024D01*
Y239574D01*
X576918D01*
Y239468D01*
X576811D01*
Y239255D01*
X576705D01*
Y239148D01*
X576598D01*
Y239042D01*
X576492D01*
Y238829D01*
X576385D01*
Y238723D01*
X576279D01*
Y238510D01*
X576172D01*
Y238297D01*
X576066D01*
Y238190D01*
X575960D01*
Y237978D01*
X575853D01*
Y237871D01*
X575747D01*
Y237658D01*
X575640D01*
Y237552D01*
X575534D01*
Y237339D01*
X575427D01*
Y237233D01*
X575321D01*
Y237126D01*
X575215D01*
Y236913D01*
X575108D01*
Y236807D01*
X575002D01*
Y236594D01*
X574895D01*
Y236488D01*
X574789D01*
Y236275D01*
X574683D01*
Y236168D01*
X574576D01*
Y235955D01*
X574470D01*
Y235849D01*
X574363D01*
Y235636D01*
X574257D01*
Y235530D01*
X574150D01*
Y235317D01*
X574044D01*
Y235210D01*
X573938D01*
Y235104D01*
X573831D01*
Y234891D01*
X573725D01*
Y234678D01*
X573618D01*
Y234572D01*
X573512D01*
Y234359D01*
X573405D01*
Y234253D01*
X573299D01*
Y234040D01*
X573193D01*
Y233933D01*
X573086D01*
Y233720D01*
X572980D01*
Y233614D01*
X572873D01*
Y233508D01*
X572767D01*
Y233295D01*
X572660D01*
Y233188D01*
X572554D01*
Y232975D01*
X572447D01*
Y232869D01*
X572341D01*
Y232656D01*
X572235D01*
Y232550D01*
X572128D01*
Y232337D01*
X572022D01*
Y232230D01*
X571915D01*
Y232018D01*
X571809D01*
Y231911D01*
X571702D01*
Y231698D01*
X571596D01*
Y231592D01*
X571490D01*
Y231485D01*
X571383D01*
Y231273D01*
X571277D01*
Y231060D01*
X571170D01*
Y230953D01*
X571064D01*
Y230740D01*
X570958D01*
Y230634D01*
X570851D01*
Y230421D01*
X570745D01*
Y230315D01*
X570638D01*
Y230102D01*
X570532D01*
Y229995D01*
X570425D01*
Y229889D01*
X570319D01*
Y229676D01*
X570213D01*
Y229570D01*
X570106D01*
Y229357D01*
X570000D01*
Y229250D01*
X569893D01*
Y229038D01*
X570958D01*
Y229144D01*
X572554D01*
Y229250D01*
X574044D01*
Y229357D01*
X575640D01*
Y229463D01*
X577237D01*
Y229570D01*
X578088D01*
Y229676D01*
X579685D01*
Y229783D01*
X581281D01*
Y229889D01*
X582771D01*
Y229783D01*
X582665D01*
Y229676D01*
X582558D01*
Y229570D01*
X582452D01*
Y229463D01*
X582345D01*
Y229357D01*
X582239D01*
Y229250D01*
X582026D01*
Y229144D01*
X581920D01*
Y229038D01*
X581813D01*
Y228931D01*
X581707D01*
Y228825D01*
X581600D01*
Y228718D01*
X581494D01*
Y228612D01*
X581388D01*
Y228505D01*
X581281D01*
Y228399D01*
X581175D01*
Y228293D01*
X581068D01*
Y228186D01*
X580962D01*
Y228080D01*
X580855D01*
Y227973D01*
X580749D01*
Y227867D01*
X580643D01*
Y227760D01*
X580536D01*
Y227654D01*
X580430D01*
Y227548D01*
X580323D01*
Y227441D01*
X580217D01*
Y227335D01*
X580110D01*
Y227228D01*
X580004D01*
Y227122D01*
X579897D01*
Y227015D01*
X579791D01*
Y226909D01*
X579578D01*
Y226803D01*
X579472D01*
Y226696D01*
X579365D01*
Y226590D01*
X579259D01*
Y226483D01*
X579152D01*
Y226377D01*
X579046D01*
Y226270D01*
X578940D01*
Y226164D01*
X578833D01*
Y226058D01*
X578727D01*
Y225951D01*
X578620D01*
Y225845D01*
X578514D01*
Y225738D01*
X578407D01*
Y225632D01*
X578301D01*
Y225525D01*
X578195D01*
Y225419D01*
X578088D01*
Y225313D01*
X577875D01*
Y225206D01*
X577769D01*
Y225100D01*
X577663D01*
Y224993D01*
X577556D01*
Y224887D01*
X577450D01*
Y224780D01*
X577343D01*
Y224568D01*
X577130D01*
Y224461D01*
X577024D01*
Y224355D01*
X576918D01*
Y224248D01*
X576811D01*
Y224142D01*
X576705D01*
Y224035D01*
X576598D01*
Y223929D01*
X576492D01*
Y223823D01*
X576385D01*
Y223716D01*
X576279D01*
Y223610D01*
X576172D01*
Y223503D01*
X576066D01*
Y223397D01*
X575853D01*
Y223290D01*
X575747D01*
Y223184D01*
X575640D01*
Y223078D01*
X575534D01*
Y222971D01*
X575427D01*
Y222865D01*
X575321D01*
Y222758D01*
X575215D01*
Y222652D01*
X575108D01*
Y222545D01*
X575002D01*
Y222439D01*
X574895D01*
Y222333D01*
X574789D01*
Y222226D01*
X574683D01*
Y222120D01*
X574576D01*
Y222013D01*
X574470D01*
Y221907D01*
X574363D01*
Y221800D01*
X574257D01*
Y221694D01*
X574150D01*
Y221588D01*
X574044D01*
Y221481D01*
X573938D01*
Y221375D01*
X573831D01*
Y221268D01*
X573725D01*
Y221162D01*
X573618D01*
Y221055D01*
X573405D01*
Y220949D01*
X573299D01*
Y220843D01*
X573193D01*
Y220736D01*
X573086D01*
Y220630D01*
X572980D01*
Y220523D01*
X572873D01*
Y220417D01*
X572767D01*
Y220310D01*
X572660D01*
Y220204D01*
X572554D01*
Y220098D01*
X572447D01*
Y219991D01*
X572341D01*
Y219885D01*
X572235D01*
Y219778D01*
X572128D01*
Y219672D01*
X572022D01*
Y219565D01*
X571915D01*
Y219459D01*
X571809D01*
Y219353D01*
X571702D01*
Y219246D01*
X571596D01*
Y219140D01*
X571490D01*
Y219033D01*
X571383D01*
Y218927D01*
X571277D01*
Y218820D01*
X571170D01*
Y218714D01*
X570958D01*
Y218608D01*
X570851D01*
Y218501D01*
X570745D01*
Y218395D01*
X570638D01*
Y218288D01*
X570532D01*
Y218182D01*
X570425D01*
Y218075D01*
X570319D01*
Y217969D01*
X570213D01*
Y217863D01*
X570106D01*
Y217756D01*
X570000D01*
Y217650D01*
X569893D01*
Y217543D01*
X569787D01*
Y217437D01*
X569680D01*
Y217330D01*
X569574D01*
Y217224D01*
X569467D01*
Y217118D01*
X569361D01*
Y217011D01*
X569255D01*
Y216905D01*
X569148D01*
Y216798D01*
X569042D01*
Y216692D01*
X568935D01*
Y216585D01*
X568829D01*
Y216479D01*
X568722D01*
Y216373D01*
X568510D01*
Y216266D01*
X568403D01*
Y216160D01*
X568297D01*
Y216053D01*
X568190D01*
Y215947D01*
X568084D01*
Y215840D01*
X567978D01*
Y215734D01*
X567871D01*
Y215628D01*
X567765D01*
Y215521D01*
X567658D01*
Y215415D01*
X567552D01*
Y215308D01*
X567445D01*
Y215202D01*
X567339D01*
Y215095D01*
X567233D01*
Y214989D01*
X567126D01*
Y214882D01*
X567020D01*
Y214776D01*
X566913D01*
Y214670D01*
X566807D01*
Y214563D01*
X566700D01*
Y214457D01*
X566594D01*
Y214350D01*
X566488D01*
Y214244D01*
X566381D01*
Y214138D01*
X566168D01*
Y214031D01*
X566062D01*
Y213925D01*
X565955D01*
Y213818D01*
X565849D01*
Y213712D01*
X565742D01*
Y213605D01*
X565636D01*
Y213499D01*
X565530D01*
Y213392D01*
X565423D01*
Y213286D01*
X565317D01*
Y213180D01*
X565210D01*
Y213073D01*
X565104D01*
Y212967D01*
X564997D01*
Y212860D01*
X564891D01*
Y212754D01*
X564785D01*
Y212648D01*
X564678D01*
Y212541D01*
X564572D01*
Y212435D01*
X564465D01*
Y212328D01*
X564359D01*
Y212222D01*
X564253D01*
Y212115D01*
X564146D01*
Y212009D01*
X564040D01*
Y211903D01*
X563933D01*
Y211796D01*
X563827D01*
Y211690D01*
X563720D01*
Y211583D01*
X563614D01*
Y211477D01*
X563508D01*
Y211370D01*
X563401D01*
Y211264D01*
X563295D01*
Y211157D01*
X563188D01*
Y211051D01*
X563082D01*
Y210945D01*
X562869D01*
Y210838D01*
X562762D01*
Y210732D01*
X562656D01*
Y210625D01*
X562550D01*
Y210519D01*
X562443D01*
Y210413D01*
X562337D01*
Y210306D01*
X562230D01*
Y210200D01*
X562124D01*
Y210093D01*
X562017D01*
Y209987D01*
X561911D01*
Y209880D01*
X561805D01*
Y209774D01*
X561698D01*
Y209667D01*
X561592D01*
Y209561D01*
X561485D01*
Y209455D01*
X561379D01*
Y209348D01*
X561272D01*
Y209242D01*
X561166D01*
Y209135D01*
X561060D01*
Y209029D01*
X560953D01*
Y208923D01*
X560847D01*
Y208816D01*
X560740D01*
Y208710D01*
X560634D01*
Y208603D01*
X560528D01*
Y208497D01*
X560315D01*
Y208390D01*
X560208D01*
Y208284D01*
X560102D01*
Y208177D01*
X559995D01*
Y208071D01*
X559889D01*
Y207965D01*
X559783D01*
Y207858D01*
X559676D01*
Y207752D01*
X559570D01*
Y207645D01*
X559463D01*
Y207539D01*
X559357D01*
Y207433D01*
X559250D01*
Y207326D01*
X559144D01*
Y207220D01*
X559037D01*
Y207113D01*
X558931D01*
Y207007D01*
X558825D01*
Y206900D01*
X558718D01*
Y206794D01*
X558612D01*
Y206688D01*
X558505D01*
Y206581D01*
X558399D01*
Y206475D01*
X558292D01*
Y206368D01*
X558186D01*
Y206262D01*
X557973D01*
Y206155D01*
X557867D01*
Y206049D01*
X557760D01*
Y205943D01*
X557654D01*
Y205836D01*
X557548D01*
Y205730D01*
X557441D01*
Y205623D01*
X557335D01*
Y205517D01*
X557228D01*
Y205410D01*
X557122D01*
Y205304D01*
X557015D01*
Y205198D01*
X556909D01*
Y205091D01*
X556803D01*
Y204985D01*
X556696D01*
Y204878D01*
X556590D01*
Y204772D01*
X556483D01*
Y204665D01*
X556377D01*
Y204559D01*
X556270D01*
Y204452D01*
X556164D01*
Y204346D01*
X556058D01*
Y204240D01*
X555951D01*
Y204133D01*
X555845D01*
Y204027D01*
X555738D01*
Y203920D01*
X555632D01*
Y203814D01*
X555419D01*
Y203708D01*
X555312D01*
Y203601D01*
X555206D01*
Y203495D01*
X555100D01*
Y203388D01*
X554993D01*
Y203282D01*
X554887D01*
Y203175D01*
X554780D01*
Y203069D01*
X554674D01*
Y202962D01*
X554567D01*
Y202856D01*
X554461D01*
Y202750D01*
X554355D01*
Y202643D01*
X554248D01*
Y202537D01*
X554142D01*
Y202430D01*
X554035D01*
Y202324D01*
X553929D01*
Y202218D01*
X553823D01*
Y202111D01*
X553716D01*
Y202005D01*
X553610D01*
Y201898D01*
X553503D01*
Y201792D01*
X553397D01*
Y201685D01*
X553290D01*
Y201579D01*
X553184D01*
Y201472D01*
X552971D01*
Y201366D01*
X552865D01*
Y201260D01*
X552758D01*
Y201153D01*
X552652D01*
Y201047D01*
X552545D01*
Y200940D01*
X552439D01*
Y200834D01*
X552332D01*
Y200728D01*
X552226D01*
Y200621D01*
X552120D01*
Y200515D01*
X552013D01*
Y200408D01*
X551907D01*
Y200302D01*
X551800D01*
Y200195D01*
X551694D01*
Y200089D01*
X551587D01*
Y199983D01*
X551375D01*
Y199876D01*
X551268D01*
Y199770D01*
X551162D01*
Y199663D01*
X551055D01*
Y199557D01*
X550949D01*
Y199450D01*
X550843D01*
Y199344D01*
X550736D01*
Y199238D01*
X550630D01*
Y199131D01*
X550523D01*
Y199025D01*
X550417D01*
Y198918D01*
X550310D01*
Y198812D01*
X550204D01*
Y198705D01*
X550098D01*
Y198599D01*
X549991D01*
Y198493D01*
X549885D01*
Y198386D01*
X549778D01*
Y198280D01*
X549672D01*
Y198173D01*
X549565D01*
Y198067D01*
X549459D01*
Y197960D01*
X549246D01*
Y197854D01*
X549140D01*
Y197748D01*
X549033D01*
Y197641D01*
X548927D01*
Y197535D01*
X548820D01*
Y197428D01*
X548714D01*
Y197322D01*
X548607D01*
Y197215D01*
X548501D01*
Y197109D01*
X548395D01*
Y197002D01*
X548288D01*
Y196896D01*
X548182D01*
Y196790D01*
X548075D01*
Y196683D01*
X547969D01*
Y196577D01*
X547862D01*
Y196470D01*
X547756D01*
Y196364D01*
X547650D01*
Y196257D01*
X547543D01*
Y196151D01*
X547437D01*
Y196045D01*
X547330D01*
Y196257D01*
X547437D01*
Y196364D01*
X547543D01*
Y196577D01*
X547650D01*
Y196683D01*
X547756D01*
Y196896D01*
X547862D01*
Y197002D01*
X547969D01*
Y197215D01*
X548075D01*
Y197322D01*
X548182D01*
Y197535D01*
X548288D01*
Y197641D01*
X548395D01*
Y197854D01*
X548501D01*
Y197960D01*
X548607D01*
Y198173D01*
X548714D01*
Y198280D01*
X548820D01*
Y198386D01*
X548927D01*
Y198599D01*
X549033D01*
Y198705D01*
X549140D01*
Y198918D01*
X549246D01*
Y199025D01*
X549353D01*
Y199238D01*
X549459D01*
Y199344D01*
X549565D01*
Y199557D01*
X549672D01*
Y199663D01*
X549778D01*
Y199876D01*
X549885D01*
Y199983D01*
X549991D01*
Y200195D01*
X550098D01*
Y200302D01*
X550204D01*
Y200515D01*
X550310D01*
Y200621D01*
X550417D01*
Y200834D01*
X550523D01*
Y200940D01*
X550630D01*
Y201153D01*
X550736D01*
Y201260D01*
X550843D01*
Y201472D01*
X550949D01*
Y201579D01*
X551055D01*
Y201792D01*
X551162D01*
Y201898D01*
X551268D01*
Y202005D01*
X551375D01*
Y202218D01*
X551481D01*
Y202324D01*
X551587D01*
Y202537D01*
X551694D01*
Y202643D01*
X551800D01*
Y202856D01*
X551907D01*
Y202962D01*
X552013D01*
Y203175D01*
X552120D01*
Y203282D01*
X552226D01*
Y203495D01*
X552332D01*
Y203601D01*
X552439D01*
Y203814D01*
X552545D01*
Y203920D01*
X552652D01*
Y204133D01*
X552758D01*
Y204240D01*
X552865D01*
Y204452D01*
X552971D01*
Y204559D01*
X553078D01*
Y204772D01*
X553184D01*
Y204878D01*
X553290D01*
Y204985D01*
X553397D01*
Y205198D01*
X553503D01*
Y205304D01*
X553610D01*
Y205517D01*
X553716D01*
Y205623D01*
X553823D01*
Y205836D01*
X553929D01*
Y205943D01*
X554035D01*
Y206155D01*
X554142D01*
Y206262D01*
X554248D01*
Y206475D01*
X554355D01*
Y206581D01*
X554461D01*
Y206794D01*
X554567D01*
Y206900D01*
X554674D01*
Y207113D01*
X554780D01*
Y207220D01*
X554887D01*
Y207433D01*
X554993D01*
Y207539D01*
X555100D01*
Y207752D01*
X555206D01*
Y207858D01*
X555312D01*
Y208071D01*
X555419D01*
Y208177D01*
X555525D01*
Y208284D01*
X555632D01*
Y208497D01*
X555738D01*
Y208603D01*
X555845D01*
Y208816D01*
X555951D01*
Y208923D01*
X556058D01*
Y209135D01*
X556164D01*
Y209242D01*
X556270D01*
Y209455D01*
X556377D01*
Y209561D01*
X556483D01*
Y209774D01*
X556590D01*
Y209880D01*
X556696D01*
Y210093D01*
X556803D01*
Y210200D01*
X556909D01*
Y210413D01*
X557015D01*
Y210519D01*
X557122D01*
Y210732D01*
X557228D01*
Y210838D01*
X557335D01*
Y211051D01*
X557441D01*
Y211157D01*
X557548D01*
Y211370D01*
X557654D01*
Y211477D01*
X557760D01*
Y211583D01*
X557867D01*
Y211796D01*
X557973D01*
Y211903D01*
X558080D01*
Y212115D01*
X558186D01*
Y212222D01*
X558292D01*
Y212435D01*
X558399D01*
Y212541D01*
X558505D01*
Y212754D01*
X558612D01*
Y212967D01*
X558718D01*
Y213073D01*
X558825D01*
Y213286D01*
X558931D01*
Y213392D01*
X559037D01*
Y213605D01*
X559144D01*
Y213712D01*
X559250D01*
Y213925D01*
X559357D01*
Y214031D01*
X559463D01*
Y214138D01*
X559570D01*
Y214350D01*
X559676D01*
Y214457D01*
X559783D01*
Y214670D01*
X559889D01*
Y214776D01*
X559995D01*
Y214989D01*
X560102D01*
Y215095D01*
X560208D01*
Y215308D01*
X560315D01*
Y215415D01*
X560421D01*
Y215628D01*
X560528D01*
Y215734D01*
X560634D01*
Y215947D01*
X560740D01*
Y216053D01*
X560847D01*
Y216266D01*
X560953D01*
Y216373D01*
X561060D01*
Y216585D01*
X561166D01*
Y216692D01*
X561272D01*
Y216905D01*
X561379D01*
Y217011D01*
X561485D01*
Y217224D01*
X561592D01*
Y217330D01*
X561698D01*
Y217543D01*
X561805D01*
Y217650D01*
X561911D01*
Y217863D01*
X562017D01*
Y217969D01*
X562124D01*
Y218182D01*
X562230D01*
Y218288D01*
X562337D01*
Y218501D01*
X562443D01*
Y218608D01*
X562550D01*
Y218714D01*
X562656D01*
Y218927D01*
X562762D01*
Y219033D01*
X562869D01*
Y219246D01*
X562975D01*
Y219353D01*
X563082D01*
Y219565D01*
X563188D01*
Y219672D01*
X563295D01*
Y219885D01*
X563401D01*
Y219991D01*
X563508D01*
Y220204D01*
X563614D01*
Y220310D01*
X563720D01*
Y220417D01*
X563827D01*
Y220630D01*
X563933D01*
Y220843D01*
X564040D01*
Y220949D01*
X564146D01*
Y221162D01*
X564253D01*
Y221268D01*
X564359D01*
Y221481D01*
X564465D01*
Y221588D01*
X564572D01*
Y221800D01*
X564678D01*
Y222013D01*
X563614D01*
Y221907D01*
X562017D01*
Y221800D01*
X560421D01*
Y221694D01*
X558825D01*
Y221588D01*
X557228D01*
Y221481D01*
X556377D01*
Y221375D01*
X554780D01*
Y221268D01*
X553184D01*
Y221162D01*
X551907D01*
Y221268D01*
X552013D01*
Y221375D01*
X552120D01*
Y221481D01*
X552226D01*
Y221588D01*
X552332D01*
Y221694D01*
X552439D01*
Y221800D01*
X552545D01*
Y221907D01*
X552652D01*
Y222013D01*
X552758D01*
Y222120D01*
X552865D01*
Y222226D01*
X553078D01*
Y222333D01*
X553184D01*
Y222439D01*
X553290D01*
Y222545D01*
X553397D01*
Y222652D01*
X553503D01*
Y222758D01*
X553610D01*
Y222865D01*
X553716D01*
Y222971D01*
X553823D01*
Y223078D01*
X553929D01*
Y223184D01*
X554035D01*
Y223290D01*
X554142D01*
Y223397D01*
X554248D01*
Y223503D01*
X554355D01*
Y223610D01*
X554461D01*
Y223716D01*
X554567D01*
Y223823D01*
X554674D01*
Y223929D01*
X554780D01*
Y224035D01*
X554887D01*
Y224142D01*
X554993D01*
Y224248D01*
X555100D01*
Y224355D01*
X555206D01*
Y224461D01*
X555312D01*
Y224568D01*
X555419D01*
Y224674D01*
X555632D01*
Y224780D01*
X555738D01*
Y224887D01*
X555845D01*
Y224993D01*
X555951D01*
Y225100D01*
X556058D01*
Y225206D01*
X556164D01*
Y225313D01*
X556270D01*
Y225419D01*
X556377D01*
Y225525D01*
X556483D01*
Y225632D01*
X556590D01*
Y225738D01*
X556696D01*
Y225845D01*
X556803D01*
Y225951D01*
X556909D01*
Y226058D01*
X557015D01*
Y226164D01*
X557122D01*
Y226270D01*
X557228D01*
Y226377D01*
X557335D01*
Y226483D01*
X557441D01*
Y226590D01*
X557548D01*
Y226696D01*
X557654D01*
Y226803D01*
X557760D01*
Y226909D01*
X557867D01*
Y227015D01*
X557973D01*
Y227122D01*
X558186D01*
Y227228D01*
X558292D01*
Y227335D01*
X558399D01*
Y227441D01*
X558505D01*
Y227548D01*
X558612D01*
Y227654D01*
X558718D01*
Y227760D01*
X558825D01*
Y227867D01*
X558931D01*
Y227973D01*
X559037D01*
Y228080D01*
X559144D01*
Y228186D01*
X559250D01*
Y228293D01*
X559357D01*
Y228399D01*
X559463D01*
Y228505D01*
X559570D01*
Y228612D01*
X559676D01*
Y228718D01*
X559783D01*
Y228825D01*
X559889D01*
Y228931D01*
X559995D01*
Y229038D01*
X560102D01*
Y229144D01*
X560208D01*
Y229250D01*
X560315D01*
Y229357D01*
X560421D01*
Y229463D01*
X560634D01*
Y229570D01*
X560740D01*
Y229676D01*
X560847D01*
Y229783D01*
X560953D01*
Y229889D01*
X561060D01*
Y229995D01*
X561166D01*
Y230102D01*
X561272D01*
Y230208D01*
X561379D01*
Y230315D01*
X561485D01*
Y230421D01*
X561592D01*
Y230528D01*
X561698D01*
Y230634D01*
X561805D01*
Y230740D01*
X561911D01*
Y230847D01*
X562017D01*
Y230953D01*
X562124D01*
Y231060D01*
X562230D01*
Y231166D01*
X562337D01*
Y231273D01*
X562443D01*
Y231379D01*
X562550D01*
Y231485D01*
X562656D01*
Y231592D01*
X562762D01*
Y231698D01*
X562869D01*
Y231805D01*
X562975D01*
Y231911D01*
X563188D01*
Y232018D01*
X563295D01*
Y232124D01*
X563401D01*
Y232230D01*
X563508D01*
Y232337D01*
X563614D01*
Y232443D01*
X563720D01*
Y232550D01*
X563827D01*
Y232656D01*
X563933D01*
Y232763D01*
X564040D01*
Y232869D01*
X564146D01*
Y232975D01*
X564253D01*
Y233082D01*
X564359D01*
Y233188D01*
X564465D01*
Y233295D01*
X564572D01*
Y233401D01*
X564678D01*
Y233508D01*
X564785D01*
Y233614D01*
X564891D01*
Y233720D01*
X564997D01*
Y233827D01*
X565104D01*
Y233933D01*
X565210D01*
Y234040D01*
X565317D01*
Y234146D01*
X565423D01*
Y234253D01*
X565636D01*
Y234359D01*
X565742D01*
Y234465D01*
X565849D01*
Y234572D01*
X565955D01*
Y234678D01*
X566062D01*
Y234785D01*
X566168D01*
Y234891D01*
X566275D01*
Y234998D01*
X566381D01*
Y235104D01*
X566488D01*
Y235210D01*
X566594D01*
Y235317D01*
X566700D01*
Y235423D01*
X566807D01*
Y235530D01*
X566913D01*
Y235636D01*
X567020D01*
Y235743D01*
X567126D01*
Y235849D01*
X567233D01*
Y235955D01*
X567339D01*
Y236062D01*
X567445D01*
Y236168D01*
X567552D01*
Y236275D01*
X567658D01*
Y236381D01*
X567765D01*
Y236488D01*
X567871D01*
Y236594D01*
X568084D01*
Y236700D01*
X568190D01*
Y236807D01*
X568297D01*
Y236913D01*
X568403D01*
Y237020D01*
X568510D01*
Y237126D01*
X568616D01*
Y237233D01*
X568722D01*
Y237339D01*
X568829D01*
Y237445D01*
X568935D01*
Y237552D01*
X569042D01*
Y237658D01*
X569148D01*
Y237765D01*
X569255D01*
Y237871D01*
X569361D01*
Y237978D01*
X569467D01*
Y238084D01*
X569574D01*
Y238190D01*
X569680D01*
Y238297D01*
X569787D01*
Y238403D01*
X569893D01*
Y238510D01*
X570000D01*
Y238616D01*
X570106D01*
Y238723D01*
X570213D01*
Y238829D01*
X570319D01*
Y238935D01*
X570425D01*
Y239042D01*
X570638D01*
Y239148D01*
X570745D01*
Y239255D01*
X570851D01*
Y239361D01*
X570958D01*
Y239468D01*
X571064D01*
Y239574D01*
X571170D01*
Y239680D01*
X571277D01*
Y239787D01*
X571383D01*
Y239893D01*
X571490D01*
Y240000D01*
X571596D01*
Y240106D01*
X571702D01*
Y240213D01*
X571809D01*
Y240319D01*
X571915D01*
Y240425D01*
X572022D01*
Y240532D01*
X572128D01*
Y240638D01*
X572235D01*
Y240745D01*
X572341D01*
Y240851D01*
X572447D01*
Y240958D01*
X572554D01*
Y241064D01*
X572660D01*
Y241170D01*
X572767D01*
Y241277D01*
X572873D01*
Y241383D01*
X573086D01*
Y241490D01*
X573193D01*
Y241596D01*
X573299D01*
Y241703D01*
X573405D01*
Y241809D01*
X573512D01*
Y241915D01*
X573618D01*
Y242022D01*
X573725D01*
Y242128D01*
X573831D01*
Y242235D01*
X573938D01*
Y242341D01*
X574044D01*
Y242448D01*
X574150D01*
Y242554D01*
X574257D01*
Y242660D01*
X574470D01*
Y242767D01*
X574576D01*
Y242873D01*
X574683D01*
Y242980D01*
X574789D01*
Y243086D01*
X574895D01*
Y243193D01*
X575002D01*
Y243299D01*
X575108D01*
Y243405D01*
X575215D01*
Y243512D01*
X575321D01*
Y243618D01*
X575427D01*
Y243725D01*
X575534D01*
Y243831D01*
X575640D01*
Y243938D01*
X575747D01*
Y244044D01*
X575853D01*
Y244150D01*
X575960D01*
Y244257D01*
X576066D01*
Y244363D01*
X576172D01*
Y244470D01*
X576279D01*
Y244576D01*
X576385D01*
Y244683D01*
X576492D01*
Y244789D01*
X576598D01*
Y244895D01*
X576705D01*
Y245002D01*
X576918D01*
Y245108D01*
X577024D01*
Y245215D01*
X577130D01*
Y245321D01*
X577237D01*
Y245428D01*
X577343D01*
Y245534D01*
X577450D01*
Y245640D01*
X577556D01*
Y245747D01*
X577663D01*
Y245853D01*
X577769D01*
Y245960D01*
X577875D01*
Y246066D01*
X577982D01*
Y246173D01*
X578088D01*
Y246279D01*
X578195D01*
Y246385D01*
X578301D01*
Y246492D01*
X578407D01*
Y246598D01*
X578514D01*
Y246705D01*
X578620D01*
Y246811D01*
X578727D01*
Y246918D01*
X578833D01*
Y247024D01*
X578940D01*
Y247130D01*
X579046D01*
Y247237D01*
X579152D01*
Y247343D01*
X579365D01*
Y247450D01*
X579472D01*
Y247556D01*
X579578D01*
Y247663D01*
X579685D01*
Y247769D01*
X579791D01*
Y247875D01*
X579897D01*
Y247982D01*
X580004D01*
Y248088D01*
X580110D01*
Y248195D01*
X580217D01*
Y248301D01*
X580323D01*
Y248408D01*
X580430D01*
Y248514D01*
X580536D01*
Y248620D01*
X580643D01*
Y248727D01*
X580749D01*
Y248833D01*
X580855D01*
Y248940D01*
X580962D01*
Y249046D01*
X581068D01*
Y249153D01*
X581175D01*
Y249259D01*
X581281D01*
Y249365D01*
X581388D01*
Y249472D01*
X581494D01*
Y249578D01*
X581600D01*
Y249685D01*
X581813D01*
Y249791D01*
X581920D01*
Y249898D01*
X582026D01*
Y250004D01*
X582132D01*
Y250110D01*
X582239D01*
Y250217D01*
X582345D01*
Y250323D01*
X582452D01*
Y250430D01*
X582558D01*
Y250536D01*
X582665D01*
Y250643D01*
X582771D01*
Y250749D01*
X582877D01*
Y250855D01*
X582984D01*
Y250962D01*
X583090D01*
Y251068D01*
X583197D01*
Y251175D01*
X583303D01*
Y251281D01*
X583410D01*
Y251388D01*
X583516D01*
Y251494D01*
X583623D01*
Y251600D01*
X583729D01*
Y251707D01*
X583835D01*
Y251813D01*
X583942D01*
Y251920D01*
X584048D01*
Y252026D01*
X584261D01*
Y252133D01*
X584368D01*
Y252239D01*
X584474D01*
Y252345D01*
X584580D01*
Y252452D01*
X584687D01*
Y252558D01*
X584793D01*
Y252665D01*
X584900D01*
Y252771D01*
X585006D01*
Y252878D01*
X585112D01*
Y252984D01*
X585219D01*
Y253090D01*
X585325D01*
Y253197D01*
X585432D01*
Y253303D01*
X585538D01*
Y253410D01*
X585645D01*
Y253516D01*
X585751D01*
Y253623D01*
X585857D01*
Y253729D01*
X585964D01*
Y253835D01*
X586070D01*
Y253942D01*
X586177D01*
Y254048D01*
X586283D01*
Y254155D01*
X586390D01*
Y254261D01*
X586496D01*
Y254368D01*
X586709D01*
Y254474D01*
X586815D01*
Y254580D01*
X586922D01*
Y254687D01*
X587028D01*
Y254793D01*
X587135D01*
Y254900D01*
X587241D01*
Y255006D01*
X587348D01*
Y255113D01*
X587454D01*
Y254900D01*
D02*
G37*
G36*
X547330Y195938D02*
X547224D01*
Y196045D01*
X547330D01*
Y195938D01*
D02*
G37*
G36*
X547224Y195832D02*
X547118D01*
Y195938D01*
X547224D01*
Y195832D01*
D02*
G37*
G36*
X547118Y195725D02*
X547011D01*
Y195832D01*
X547118D01*
Y195725D01*
D02*
G37*
G36*
X547011Y195619D02*
X546905D01*
Y195725D01*
X547011D01*
Y195619D01*
D02*
G37*
%LPC*%
G36*
X315030Y644701D02*
X313430D01*
Y643901D01*
X312630D01*
Y643101D01*
Y642301D01*
Y641501D01*
Y640701D01*
X311030D01*
Y639901D01*
Y639101D01*
Y638301D01*
X309430D01*
Y637501D01*
Y636701D01*
X308630D01*
Y635901D01*
Y635101D01*
X307830D01*
Y634301D01*
X307030D01*
Y633501D01*
Y632701D01*
X306230D01*
Y631901D01*
Y631101D01*
X305430D01*
Y630301D01*
Y629501D01*
X304630D01*
Y628701D01*
X303830D01*
Y627901D01*
X303030D01*
Y627101D01*
Y626301D01*
X302230D01*
Y625501D01*
Y624701D01*
Y623901D01*
X300630D01*
Y623101D01*
X299830D01*
Y622301D01*
Y621501D01*
X299030D01*
Y620701D01*
Y619901D01*
Y619101D01*
X298230D01*
Y618301D01*
Y617501D01*
X296630D01*
Y616701D01*
Y615901D01*
X295830D01*
Y615101D01*
Y614301D01*
X295030D01*
Y613501D01*
X294230D01*
Y612701D01*
Y611901D01*
X293430D01*
Y611101D01*
X292630D01*
Y610301D01*
Y609501D01*
Y608701D01*
X291830D01*
Y607901D01*
X291030D01*
Y607101D01*
Y606301D01*
X290230D01*
Y605501D01*
X289430D01*
Y604701D01*
Y603901D01*
Y603101D01*
X288630D01*
Y602301D01*
X287030D01*
Y601501D01*
Y600701D01*
X286230D01*
Y599901D01*
X285430D01*
Y599101D01*
Y598301D01*
Y597501D01*
X284630D01*
Y596701D01*
X283830D01*
Y595901D01*
X283030D01*
Y595101D01*
Y594301D01*
X282230D01*
Y593501D01*
Y592701D01*
Y591901D01*
X281430D01*
Y591101D01*
X280630D01*
Y590301D01*
X279830D01*
Y589501D01*
Y588701D01*
X279030D01*
Y587901D01*
X278230D01*
Y587101D01*
Y586301D01*
Y585501D01*
X277430D01*
Y584701D01*
X276630D01*
Y583901D01*
X275830D01*
Y583101D01*
Y582301D01*
X275030D01*
Y581501D01*
Y580701D01*
X274230D01*
Y579901D01*
X279830D01*
Y579101D01*
X280630D01*
Y579901D01*
X355030D01*
Y580701D01*
X354230D01*
Y581501D01*
Y582301D01*
X352630D01*
Y583101D01*
Y583901D01*
Y584701D01*
X351830D01*
Y585501D01*
Y586301D01*
X351030D01*
Y587101D01*
X350230D01*
Y587901D01*
X349430D01*
Y588701D01*
Y589501D01*
Y590301D01*
X348630D01*
Y591101D01*
X347830D01*
Y591901D01*
Y592701D01*
X347030D01*
Y593501D01*
X346230D01*
Y594301D01*
Y595101D01*
X345430D01*
Y595901D01*
Y596701D01*
X343830D01*
Y597501D01*
Y598301D01*
X343030D01*
Y599101D01*
Y599901D01*
Y600701D01*
X342230D01*
Y601501D01*
X341430D01*
Y602301D01*
X340630D01*
Y603101D01*
X339830D01*
Y603901D01*
X339030D01*
Y604701D01*
Y605501D01*
Y606301D01*
X338230D01*
Y607101D01*
Y607901D01*
X337430D01*
Y608701D01*
X336630D01*
Y609501D01*
X335830D01*
Y610301D01*
Y611101D01*
Y611901D01*
X334230D01*
Y612701D01*
Y613501D01*
Y614301D01*
X332630D01*
Y615101D01*
Y615901D01*
Y616701D01*
X331830D01*
Y617501D01*
X331030D01*
Y618301D01*
X330230D01*
Y619101D01*
Y619901D01*
X329430D01*
Y620701D01*
Y621501D01*
Y622301D01*
X328630D01*
Y623101D01*
X327830D01*
Y623901D01*
X327030D01*
Y624701D01*
X326230D01*
Y625501D01*
Y626301D01*
Y627101D01*
X325430D01*
Y627901D01*
Y628701D01*
X323830D01*
Y629501D01*
Y630301D01*
X323030D01*
Y631101D01*
X322230D01*
Y631901D01*
Y632701D01*
X321430D01*
Y633501D01*
Y634301D01*
Y635101D01*
X319830D01*
Y635901D01*
Y636701D01*
X319030D01*
Y637501D01*
Y638301D01*
X318230D01*
Y639101D01*
Y639901D01*
X317430D01*
Y640701D01*
X316630D01*
Y641501D01*
X315830D01*
Y642301D01*
Y643101D01*
Y643901D01*
X315030D01*
Y644701D01*
D02*
G37*
%LPD*%
G36*
X319030Y627901D02*
Y627101D01*
X318230D01*
Y626301D01*
X317430D01*
Y625501D01*
Y624701D01*
X316630D01*
Y623901D01*
Y623101D01*
X315830D01*
Y622301D01*
Y621501D01*
Y620701D01*
X315030D01*
Y619901D01*
Y619101D01*
X314230D01*
Y618301D01*
Y617501D01*
X313430D01*
Y616701D01*
X312630D01*
Y615901D01*
Y615101D01*
Y614301D01*
Y613501D01*
X311830D01*
Y612701D01*
X311030D01*
Y611901D01*
Y611101D01*
X310230D01*
Y610301D01*
Y609501D01*
X311030D01*
Y610301D01*
X311830D01*
Y611101D01*
X314230D01*
Y611901D01*
X315830D01*
Y612701D01*
Y613501D01*
X317430D01*
Y614301D01*
X319830D01*
Y615101D01*
X321430D01*
Y615901D01*
X322230D01*
Y615101D01*
Y614301D01*
X321430D01*
Y613501D01*
Y612701D01*
Y611901D01*
Y611101D01*
X320630D01*
Y610301D01*
Y609501D01*
X319830D01*
Y608701D01*
Y607901D01*
Y607101D01*
Y606301D01*
X319030D01*
Y605501D01*
Y604701D01*
Y603901D01*
Y603101D01*
Y602301D01*
X318230D01*
Y601501D01*
Y600701D01*
X317430D01*
Y599901D01*
Y599101D01*
Y598301D01*
Y597501D01*
X316630D01*
Y596701D01*
X315830D01*
Y595901D01*
Y595101D01*
Y594301D01*
Y593501D01*
Y592701D01*
X316630D01*
Y593501D01*
X318230D01*
Y592701D01*
X317430D01*
Y591901D01*
Y591101D01*
X315830D01*
Y590301D01*
Y589501D01*
X315030D01*
Y588701D01*
Y587901D01*
X313430D01*
Y587101D01*
X312630D01*
Y586301D01*
Y585501D01*
X311830D01*
Y584701D01*
X311030D01*
Y585501D01*
Y586301D01*
Y587101D01*
Y587901D01*
Y588701D01*
X310230D01*
Y589501D01*
Y590301D01*
Y591101D01*
X309430D01*
Y591901D01*
Y592701D01*
Y593501D01*
Y594301D01*
X311030D01*
Y593501D01*
X311830D01*
Y592701D01*
X312630D01*
Y593501D01*
Y594301D01*
Y595101D01*
Y595901D01*
Y596701D01*
Y597501D01*
Y598301D01*
Y599101D01*
Y599901D01*
X313430D01*
Y600701D01*
Y601501D01*
Y602301D01*
Y603101D01*
Y603901D01*
Y604701D01*
Y605501D01*
X314230D01*
Y606301D01*
Y607101D01*
Y607901D01*
X315030D01*
Y608701D01*
X313430D01*
Y607901D01*
X312630D01*
Y607101D01*
X311030D01*
Y606301D01*
X309430D01*
Y605501D01*
X307030D01*
Y604701D01*
X306230D01*
Y603901D01*
X304630D01*
Y603101D01*
X303030D01*
Y603901D01*
X303830D01*
Y604701D01*
X303030D01*
Y605501D01*
X303830D01*
Y606301D01*
X304630D01*
Y607101D01*
Y607901D01*
Y608701D01*
X305430D01*
Y609501D01*
Y610301D01*
Y611101D01*
X306230D01*
Y611901D01*
Y612701D01*
Y613501D01*
Y614301D01*
X307030D01*
Y615101D01*
Y615901D01*
Y616701D01*
Y617501D01*
X307830D01*
Y618301D01*
Y619101D01*
X308630D01*
Y619901D01*
Y620701D01*
Y621501D01*
X309430D01*
Y622301D01*
Y623101D01*
Y623901D01*
Y624701D01*
Y625501D01*
Y626301D01*
X310230D01*
Y627101D01*
X311030D01*
Y627901D01*
Y628701D01*
X319030D01*
Y627901D01*
D02*
G37*
%LPC*%
G36*
X610123Y213925D02*
X610017D01*
Y213818D01*
X609378D01*
Y213712D01*
X608953D01*
Y213605D01*
X608633D01*
Y213499D01*
X608314D01*
Y213392D01*
X608208D01*
Y213286D01*
X607995D01*
Y213180D01*
X607782D01*
Y213073D01*
X607675D01*
Y212967D01*
X607569D01*
Y212860D01*
X607356D01*
Y212648D01*
X607250D01*
Y212541D01*
X607143D01*
Y212435D01*
X607037D01*
Y212328D01*
X606930D01*
Y212222D01*
X606824D01*
Y212009D01*
X606718D01*
Y211796D01*
X606611D01*
Y211583D01*
X606505D01*
Y211264D01*
X606398D01*
Y210945D01*
X606292D01*
Y210625D01*
X606185D01*
Y210413D01*
X606292D01*
Y210306D01*
X606185D01*
Y210093D01*
X606292D01*
Y209987D01*
X606185D01*
Y209561D01*
X606292D01*
Y209242D01*
X606398D01*
Y209029D01*
X606505D01*
Y208816D01*
X606611D01*
Y208603D01*
X606824D01*
Y208497D01*
X606930D01*
Y208390D01*
X607037D01*
Y208284D01*
X607250D01*
Y208177D01*
X607569D01*
Y208071D01*
X607995D01*
Y207965D01*
X609378D01*
Y208071D01*
X609804D01*
Y208177D01*
X610123D01*
Y208284D01*
X610336D01*
Y208390D01*
X610655D01*
Y208497D01*
X610762D01*
Y208603D01*
X610975D01*
Y208710D01*
X611081D01*
Y208816D01*
X611188D01*
Y208923D01*
X611294D01*
Y209029D01*
X611400D01*
Y209135D01*
X611507D01*
Y209242D01*
X611613D01*
Y209348D01*
X611720D01*
Y209455D01*
X611826D01*
Y209561D01*
X611933D01*
Y209774D01*
X612039D01*
Y209987D01*
X612145D01*
Y210200D01*
X612252D01*
Y210519D01*
X612358D01*
Y210732D01*
X612465D01*
Y211157D01*
X612571D01*
Y211264D01*
X612465D01*
Y211370D01*
X612571D01*
Y212328D01*
X612465D01*
Y212648D01*
X612358D01*
Y212754D01*
X612252D01*
Y212967D01*
X612145D01*
Y213073D01*
X612039D01*
Y213180D01*
X611933D01*
Y213286D01*
X611826D01*
Y213392D01*
X611720D01*
Y213499D01*
X611507D01*
Y213605D01*
X611294D01*
Y213712D01*
X610868D01*
Y213818D01*
X610123D01*
Y213925D01*
D02*
G37*
G36*
X590221D02*
X590115D01*
Y213818D01*
X589370D01*
Y213712D01*
X588944D01*
Y213605D01*
X588625D01*
Y213499D01*
X588305D01*
Y213392D01*
X588199D01*
Y213286D01*
X587986D01*
Y213180D01*
X587773D01*
Y213073D01*
X587667D01*
Y212967D01*
X587560D01*
Y212860D01*
X587454D01*
Y212754D01*
X587348D01*
Y212648D01*
X587241D01*
Y212541D01*
X587135D01*
Y212435D01*
X587028D01*
Y212222D01*
X586922D01*
Y212115D01*
X586815D01*
Y211903D01*
X586709D01*
Y211796D01*
X586602D01*
Y211583D01*
X586496D01*
Y211264D01*
X586390D01*
Y210945D01*
X586283D01*
Y209348D01*
X586390D01*
Y209029D01*
X586496D01*
Y208816D01*
X586602D01*
Y208710D01*
X586709D01*
Y208603D01*
X586815D01*
Y208497D01*
X586922D01*
Y208390D01*
X587135D01*
Y208284D01*
X587241D01*
Y208177D01*
X587560D01*
Y208071D01*
X587986D01*
Y207965D01*
X589370D01*
Y208071D01*
X589902D01*
Y208177D01*
X590115D01*
Y208284D01*
X590434D01*
Y208390D01*
X590647D01*
Y208497D01*
X590753D01*
Y208603D01*
X590966D01*
Y208710D01*
X591073D01*
Y208816D01*
X591179D01*
Y208923D01*
X591285D01*
Y209029D01*
X591392D01*
Y209135D01*
X591498D01*
Y209242D01*
X591605D01*
Y209348D01*
X591711D01*
Y209455D01*
X591818D01*
Y209561D01*
X591924D01*
Y209774D01*
X592030D01*
Y209880D01*
X592137D01*
Y210093D01*
X592243D01*
Y210413D01*
X592350D01*
Y210732D01*
X592456D01*
Y211157D01*
X592563D01*
Y212328D01*
X592456D01*
Y212648D01*
X592350D01*
Y212860D01*
X592243D01*
Y212967D01*
X592137D01*
Y213073D01*
X592030D01*
Y213180D01*
X591924D01*
Y213286D01*
X591818D01*
Y213392D01*
X591711D01*
Y213499D01*
X591498D01*
Y213605D01*
X591285D01*
Y213712D01*
X590860D01*
Y213818D01*
X590221D01*
Y213925D01*
D02*
G37*
%LPD*%
D10*
X781814Y291283D02*
G03*
X781814Y291283I-492J0D01*
G01*
X639787D02*
G03*
X639787Y291283I-492J0D01*
G01*
X484331D02*
G03*
X484331Y291283I-492J0D01*
G01*
X342599D02*
G03*
X342599Y291283I-492J0D01*
G01*
X184429D02*
G03*
X184429Y291283I-492J0D01*
G01*
X42638D02*
G03*
X42638Y291283I-492J0D01*
G01*
D11*
X785279Y300437D02*
G03*
X785279Y300437I-1181J0D01*
G01*
X643251D02*
G03*
X643251Y300437I-1181J0D01*
G01*
X487796D02*
G03*
X487796Y300437I-1181J0D01*
G01*
X346064D02*
G03*
X346064Y300437I-1181J0D01*
G01*
X187894D02*
G03*
X187894Y300437I-1181J0D01*
G01*
X46103D02*
G03*
X46103Y300437I-1181J0D01*
G01*
X878740Y289366D02*
Y277559D01*
X886612D01*
X890547Y289366D02*
Y281495D01*
X894483Y277559D01*
X898419Y281495D01*
Y289366D01*
X7087Y190154D02*
Y178347D01*
Y184250D01*
X14958D01*
Y190154D01*
Y178347D01*
X18894Y190154D02*
Y182282D01*
X22829Y178347D01*
X26765Y182282D01*
Y190154D01*
X5118Y340154D02*
Y328346D01*
Y334250D01*
X12990D01*
Y340154D01*
Y328346D01*
X16925Y340154D02*
Y332282D01*
X20861Y328346D01*
X24797Y332282D01*
Y340154D01*
D12*
X901575Y19685D02*
G03*
X901575Y19685I-15748J0D01*
G01*
Y216535D02*
G03*
X901575Y216535I-15748J0D01*
G01*
Y649606D02*
G03*
X901575Y649606I-15748J0D01*
G01*
X35433D02*
G03*
X35433Y649606I-15748J0D01*
G01*
Y216535D02*
G03*
X35433Y216535I-15748J0D01*
G01*
Y19685D02*
G03*
X35433Y19685I-15748J0D01*
G01*
X780161Y296500D02*
X804177D01*
X780161Y323272D02*
X804177D01*
X780161Y296500D02*
Y323272D01*
X804177Y296500D02*
Y323272D01*
X103366Y358425D02*
X136929D01*
Y372796D01*
Y385394D02*
Y399764D01*
X103366D02*
X136929D01*
X95590Y366201D02*
Y372796D01*
Y366201D02*
X103366Y358425D01*
X95590Y391988D02*
X103366Y399764D01*
X95590Y385394D02*
Y391988D01*
X403582Y358425D02*
X437145D01*
Y372796D01*
Y385394D02*
Y399764D01*
X403582D02*
X437145D01*
X395807Y366201D02*
Y372796D01*
Y366201D02*
X403582Y358425D01*
X395807Y391988D02*
X403582Y399764D01*
X395807Y385394D02*
Y391988D01*
X700853Y358425D02*
X734416D01*
Y372796D01*
Y385394D02*
Y399764D01*
X700853D02*
X734416D01*
X693078Y366201D02*
Y372796D01*
Y366201D02*
X700853Y358425D01*
X693078Y391988D02*
X700853Y399764D01*
X693078Y385394D02*
Y391988D01*
X814271Y332157D02*
X817027D01*
X814271Y325857D02*
X817027D01*
X799590Y338305D02*
X809433D01*
X799590Y351691D02*
X809433D01*
X774905Y338305D02*
X784748D01*
X774905Y351691D02*
X784748D01*
X657562Y338305D02*
X667405D01*
X657562Y351691D02*
X667405D01*
X632877Y338305D02*
X642720D01*
X632877Y351691D02*
X642720D01*
X638133Y296500D02*
X662149D01*
X638133Y323272D02*
X662149D01*
X638133Y296500D02*
Y323272D01*
X662149Y296500D02*
Y323272D01*
X663884Y325382D02*
Y333846D01*
X692663Y338702D02*
Y341458D01*
X686364Y338702D02*
Y341458D01*
X516732Y332059D02*
X519488D01*
X516732Y325760D02*
X519488D01*
X502107Y338305D02*
X511949D01*
X502107Y351691D02*
X511949D01*
X477422Y338305D02*
X487264D01*
X477422Y351691D02*
X487264D01*
X482678Y296500D02*
X506694D01*
X482678Y323272D02*
X506694D01*
X482678Y296500D02*
Y323272D01*
X506694Y296500D02*
Y323272D01*
X395433Y338168D02*
Y340924D01*
X389134Y338168D02*
Y340924D01*
X360375Y338305D02*
X370217D01*
X360375Y351691D02*
X370217D01*
X335690Y338305D02*
X345532D01*
X335690Y351691D02*
X345532D01*
X366753Y324791D02*
Y333256D01*
X340946Y296500D02*
X364961D01*
X340946Y323272D02*
X364961D01*
X340946Y296500D02*
Y323272D01*
X364961Y296500D02*
Y323272D01*
X216831Y332059D02*
X219586D01*
X216831Y325760D02*
X219586D01*
X202205Y338305D02*
X212047D01*
X202205Y351691D02*
X212047D01*
X177520Y338305D02*
X187362D01*
X177520Y351691D02*
X187362D01*
X182776Y296500D02*
X206791D01*
X182776Y323272D02*
X206791D01*
X182776Y296500D02*
Y323272D01*
X206791Y296500D02*
Y323272D01*
X95217Y337911D02*
Y340667D01*
X88917Y337911D02*
Y340667D01*
X66634Y324551D02*
Y333016D01*
X40985Y296500D02*
X65000D01*
X40985Y323272D02*
X65000D01*
X40985Y296500D02*
Y323272D01*
X65000Y296500D02*
Y323272D01*
X35729Y338305D02*
X45571D01*
X35729Y351691D02*
X45571D01*
X60414Y338305D02*
X70256D01*
X60414Y351691D02*
X70256D01*
X1969Y324311D02*
X903543D01*
X1969Y295374D02*
X903543D01*
X673327Y609547D02*
X673425Y609646D01*
X74902Y609547D02*
X75000Y609646D01*
X0Y196850D02*
X905512D01*
X895242Y356466D02*
X894586Y357122D01*
X893274D01*
X892618Y356466D01*
Y353842D01*
X893274Y353186D01*
X894586D01*
X895242Y353842D01*
Y355154D01*
X893930D01*
X896554Y353186D02*
Y357122D01*
X899178Y353186D01*
Y357122D01*
X900490D02*
Y353186D01*
X902458D01*
X903113Y353842D01*
Y356466D01*
X902458Y357122D01*
X900490D01*
X895242Y343896D02*
X892618D01*
Y341929D01*
X893930Y342584D01*
X894586D01*
X895242Y341929D01*
Y340617D01*
X894586Y339961D01*
X893274D01*
X892618Y340617D01*
X896554Y343896D02*
Y341272D01*
X897866Y339961D01*
X899178Y341272D01*
Y343896D01*
X885543Y366809D02*
X884231D01*
X884887D01*
Y363530D01*
X884231Y362874D01*
X883575D01*
X882919Y363530D01*
X886855Y366809D02*
X889478D01*
Y366153D01*
X886855Y363530D01*
Y362874D01*
X414665Y407062D02*
X414009Y407718D01*
X412697D01*
X412041Y407062D01*
Y404438D01*
X412697Y403782D01*
X414009D01*
X414665Y404438D01*
X418601Y407718D02*
X417289Y407062D01*
X415977Y405750D01*
Y404438D01*
X416633Y403782D01*
X417944D01*
X418601Y404438D01*
Y405094D01*
X417944Y405750D01*
X415977D01*
X419912Y407718D02*
X422536D01*
Y407062D01*
X419912Y404438D01*
Y403782D01*
X712162Y406865D02*
X711506Y407521D01*
X710194D01*
X709538Y406865D01*
Y404241D01*
X710194Y403585D01*
X711506D01*
X712162Y404241D01*
X716097Y407521D02*
X714785Y406865D01*
X713474Y405553D01*
Y404241D01*
X714129Y403585D01*
X715441D01*
X716097Y404241D01*
Y404897D01*
X715441Y405553D01*
X713474D01*
X720033Y407521D02*
X718721Y406865D01*
X717409Y405553D01*
Y404241D01*
X718065Y403585D01*
X719377D01*
X720033Y404241D01*
Y404897D01*
X719377Y405553D01*
X717409D01*
X381162Y240073D02*
X379850D01*
X380506D01*
Y236794D01*
X379850Y236138D01*
X379194D01*
X378538Y236794D01*
X385097Y236138D02*
X382473D01*
X385097Y238762D01*
Y239418D01*
X384441Y240073D01*
X383130D01*
X382473Y239418D01*
X176662Y304879D02*
X179942D01*
X180598Y305535D01*
Y306847D01*
X179942Y307503D01*
X176662D01*
X180598Y308815D02*
Y310126D01*
Y309470D01*
X176662D01*
X177318Y308815D01*
X180598Y314718D02*
Y312094D01*
X177974Y314718D01*
X177318D01*
X176662Y314062D01*
Y312750D01*
X177318Y312094D01*
X266292Y358392D02*
Y355113D01*
X266948Y354457D01*
X268260D01*
X268916Y355113D01*
Y358392D01*
X270228Y354457D02*
X271540D01*
X270884D01*
Y358392D01*
X270228Y357736D01*
X273508Y354457D02*
X274820D01*
X274164D01*
Y358392D01*
X273508Y357736D01*
X34241Y305994D02*
X37520D01*
X38176Y306650D01*
Y307962D01*
X37520Y308617D01*
X34241D01*
X38176Y309929D02*
Y311241D01*
Y310585D01*
X34241D01*
X34897Y309929D01*
Y313209D02*
X34241Y313865D01*
Y315177D01*
X34897Y315833D01*
X37520D01*
X38176Y315177D01*
Y313865D01*
X37520Y313209D01*
X34897D01*
X138851Y357999D02*
Y354719D01*
X139507Y354063D01*
X140819D01*
X141475Y354719D01*
Y357999D01*
X142787Y354719D02*
X143443Y354063D01*
X144755D01*
X145411Y354719D01*
Y357343D01*
X144755Y357999D01*
X143443D01*
X142787Y357343D01*
Y356687D01*
X143443Y356031D01*
X145411D01*
X476170Y306550D02*
X479450D01*
X480105Y307206D01*
Y308518D01*
X479450Y309174D01*
X476170D01*
X476826Y310486D02*
X476170Y311142D01*
Y312454D01*
X476826Y313110D01*
X477482D01*
X478138Y312454D01*
X478794Y313110D01*
X479450D01*
X480105Y312454D01*
Y311142D01*
X479450Y310486D01*
X478794D01*
X478138Y311142D01*
X477482Y310486D01*
X476826D01*
X478138Y311142D02*
Y312454D01*
X570523Y358589D02*
Y355310D01*
X571179Y354654D01*
X572491D01*
X573147Y355310D01*
Y358589D01*
X574459D02*
X577082D01*
Y357933D01*
X574459Y355310D01*
Y354654D01*
X334536Y306583D02*
X337816D01*
X338472Y307239D01*
Y308551D01*
X337816Y309207D01*
X334536D01*
Y313142D02*
X335192Y311830D01*
X336504Y310518D01*
X337816D01*
X338472Y311174D01*
Y312486D01*
X337816Y313142D01*
X337160D01*
X336504Y312486D01*
Y310518D01*
X439248Y357999D02*
Y354719D01*
X439904Y354063D01*
X441216D01*
X441872Y354719D01*
Y357999D01*
X445808D02*
X443184D01*
Y356031D01*
X444496Y356687D01*
X445152D01*
X445808Y356031D01*
Y354719D01*
X445152Y354063D01*
X443840D01*
X443184Y354719D01*
X773906Y305527D02*
X777186D01*
X777842Y306183D01*
Y307495D01*
X777186Y308151D01*
X773906D01*
X777842Y311430D02*
X773906D01*
X775874Y309462D01*
Y312086D01*
X866947Y358589D02*
Y355310D01*
X867602Y354654D01*
X868914D01*
X869570Y355310D01*
Y358589D01*
X870882Y357933D02*
X871538Y358589D01*
X872850D01*
X873506Y357933D01*
Y357277D01*
X872850Y356621D01*
X872194D01*
X872850D01*
X873506Y355965D01*
Y355310D01*
X872850Y354654D01*
X871538D01*
X870882Y355310D01*
X630697Y306047D02*
X633977D01*
X634633Y306702D01*
Y308014D01*
X633977Y308670D01*
X630697D01*
X634633Y312606D02*
Y309982D01*
X632009Y312606D01*
X631353D01*
X630697Y311950D01*
Y310638D01*
X631353Y309982D01*
X737139Y358294D02*
Y355014D01*
X737794Y354358D01*
X739107D01*
X739762Y355014D01*
Y358294D01*
X741074Y354358D02*
X742386D01*
X741730D01*
Y358294D01*
X741074Y357638D01*
X599338Y411138D02*
Y415073D01*
X601306D01*
X601962Y414418D01*
Y413106D01*
X601306Y412450D01*
X599338D01*
X600650D02*
X601962Y411138D01*
X605241D02*
Y415073D01*
X603273Y413106D01*
X605897D01*
X607209Y415073D02*
X609833D01*
Y414418D01*
X607209Y411794D01*
Y411138D01*
X300138D02*
Y415073D01*
X302106D01*
X302762Y414418D01*
Y413106D01*
X302106Y412450D01*
X300138D01*
X301450D02*
X302762Y411138D01*
X306041D02*
Y415073D01*
X304074Y413106D01*
X306697D01*
X310633Y415073D02*
X308009D01*
Y413106D01*
X309321Y413762D01*
X309977D01*
X310633Y413106D01*
Y411794D01*
X309977Y411138D01*
X308665D01*
X308009Y411794D01*
X510699Y238907D02*
X506764D01*
Y240875D01*
X507419Y241531D01*
X508731D01*
X509387Y240875D01*
Y238907D01*
Y240219D02*
X510699Y241531D01*
Y244811D02*
X506764D01*
X508731Y242843D01*
Y245467D01*
X510699Y249402D02*
Y246778D01*
X508075Y249402D01*
X507419D01*
X506764Y248746D01*
Y247434D01*
X507419Y246778D01*
X480884Y239835D02*
X476949D01*
Y241803D01*
X477604Y242459D01*
X478916D01*
X479572Y241803D01*
Y239835D01*
Y241147D02*
X480884Y242459D01*
Y245739D02*
X476949D01*
X478916Y243771D01*
Y246395D01*
X480884Y247707D02*
Y249019D01*
Y248362D01*
X476949D01*
X477604Y247707D01*
X410226Y239071D02*
X406290D01*
Y241039D01*
X406946Y241695D01*
X408258D01*
X408914Y241039D01*
Y239071D01*
Y240383D02*
X410226Y241695D01*
Y244974D02*
X406290D01*
X408258Y243007D01*
Y245631D01*
X406946Y246942D02*
X406290Y247598D01*
Y248910D01*
X406946Y249566D01*
X409570D01*
X410226Y248910D01*
Y247598D01*
X409570Y246942D01*
X406946D01*
X194299Y402437D02*
X190364D01*
Y404405D01*
X191019Y405061D01*
X192331D01*
X192987Y404405D01*
Y402437D01*
Y403749D02*
X194299Y405061D01*
X191019Y406373D02*
X190364Y407029D01*
Y408341D01*
X191019Y408997D01*
X191675D01*
X192331Y408341D01*
Y407685D01*
Y408341D01*
X192987Y408997D01*
X193643D01*
X194299Y408341D01*
Y407029D01*
X193643Y406373D01*
Y410309D02*
X194299Y410964D01*
Y412276D01*
X193643Y412932D01*
X191019D01*
X190364Y412276D01*
Y410964D01*
X191019Y410309D01*
X191675D01*
X192331Y410964D01*
Y412932D01*
X194955Y414244D02*
Y416868D01*
X190364Y418180D02*
X194299D01*
Y420804D01*
X191019Y424740D02*
X190364Y424084D01*
Y422772D01*
X191019Y422116D01*
X193643D01*
X194299Y422772D01*
Y424084D01*
X193643Y424740D01*
X129372Y428391D02*
X125437D01*
Y430359D01*
X126093Y431015D01*
X127405D01*
X128060Y430359D01*
Y428391D01*
Y429703D02*
X129372Y431015D01*
X126093Y432327D02*
X125437Y432983D01*
Y434295D01*
X126093Y434951D01*
X126749D01*
X127405Y434295D01*
Y433639D01*
Y434295D01*
X128060Y434951D01*
X128717D01*
X129372Y434295D01*
Y432983D01*
X128717Y432327D01*
Y436263D02*
X129372Y436919D01*
Y438231D01*
X128717Y438887D01*
X126093D01*
X125437Y438231D01*
Y436919D01*
X126093Y436263D01*
X126749D01*
X127405Y436919D01*
Y438887D01*
X130028Y440199D02*
Y442822D01*
X125437Y444134D02*
X129372D01*
X127405D01*
Y446758D01*
X125437D01*
X129372D01*
X126093Y450694D02*
X125437Y450038D01*
Y448726D01*
X126093Y448070D01*
X128717D01*
X129372Y448726D01*
Y450038D01*
X128717Y450694D01*
X239179Y402558D02*
X235243D01*
Y404526D01*
X235899Y405182D01*
X237211D01*
X237867Y404526D01*
Y402558D01*
Y403870D02*
X239179Y405182D01*
X235899Y406494D02*
X235243Y407149D01*
Y408461D01*
X235899Y409117D01*
X236555D01*
X237211Y408461D01*
Y407805D01*
Y408461D01*
X237867Y409117D01*
X238523D01*
X239179Y408461D01*
Y407149D01*
X238523Y406494D01*
X235899Y410429D02*
X235243Y411085D01*
Y412397D01*
X235899Y413053D01*
X236555D01*
X237211Y412397D01*
X237867Y413053D01*
X238523D01*
X239179Y412397D01*
Y411085D01*
X238523Y410429D01*
X237867D01*
X237211Y411085D01*
X236555Y410429D01*
X235899D01*
X237211Y411085D02*
Y412397D01*
X239835Y414365D02*
Y416989D01*
X235243Y418301D02*
X239179D01*
Y420925D01*
X235899Y424860D02*
X235243Y424204D01*
Y422892D01*
X235899Y422236D01*
X238523D01*
X239179Y422892D01*
Y424204D01*
X238523Y424860D01*
X85770Y428576D02*
X81834D01*
Y430544D01*
X82490Y431200D01*
X83802D01*
X84458Y430544D01*
Y428576D01*
Y429888D02*
X85770Y431200D01*
X82490Y432512D02*
X81834Y433168D01*
Y434480D01*
X82490Y435136D01*
X83146D01*
X83802Y434480D01*
Y433824D01*
Y434480D01*
X84458Y435136D01*
X85114D01*
X85770Y434480D01*
Y433168D01*
X85114Y432512D01*
X82490Y436448D02*
X81834Y437104D01*
Y438416D01*
X82490Y439072D01*
X83146D01*
X83802Y438416D01*
X84458Y439072D01*
X85114D01*
X85770Y438416D01*
Y437104D01*
X85114Y436448D01*
X84458D01*
X83802Y437104D01*
X83146Y436448D01*
X82490D01*
X83802Y437104D02*
Y438416D01*
X86426Y440384D02*
Y443007D01*
X81834Y444319D02*
X85770D01*
X83802D01*
Y446943D01*
X81834D01*
X85770D01*
X82490Y450879D02*
X81834Y450223D01*
Y448911D01*
X82490Y448255D01*
X85114D01*
X85770Y448911D01*
Y450223D01*
X85114Y450879D01*
X233073Y490726D02*
Y494662D01*
X235041D01*
X235697Y494006D01*
Y492694D01*
X235041Y492038D01*
X233073D01*
X234385D02*
X235697Y490726D01*
X237009Y494006D02*
X237665Y494662D01*
X238976D01*
X239632Y494006D01*
Y493350D01*
X238976Y492694D01*
X238320D01*
X238976D01*
X239632Y492038D01*
Y491382D01*
X238976Y490726D01*
X237665D01*
X237009Y491382D01*
X240944Y494662D02*
X243568D01*
Y494006D01*
X240944Y491382D01*
Y490726D01*
X244880Y490070D02*
X247504D01*
X248816Y494662D02*
Y490726D01*
X251440D01*
X255375Y494006D02*
X254719Y494662D01*
X253407D01*
X252751Y494006D01*
Y491382D01*
X253407Y490726D01*
X254719D01*
X255375Y491382D01*
X84869Y488573D02*
Y492508D01*
X86836D01*
X87492Y491852D01*
Y490540D01*
X86836Y489884D01*
X84869D01*
X86180D02*
X87492Y488573D01*
X88804Y491852D02*
X89460Y492508D01*
X90772D01*
X91428Y491852D01*
Y491196D01*
X90772Y490540D01*
X90116D01*
X90772D01*
X91428Y489884D01*
Y489228D01*
X90772Y488573D01*
X89460D01*
X88804Y489228D01*
X92740Y492508D02*
X95364D01*
Y491852D01*
X92740Y489228D01*
Y488573D01*
X96676Y487917D02*
X99300D01*
X100611Y492508D02*
Y488573D01*
Y490540D01*
X103235D01*
Y492508D01*
Y488573D01*
X107171Y491852D02*
X106515Y492508D01*
X105203D01*
X104547Y491852D01*
Y489228D01*
X105203Y488573D01*
X106515D01*
X107171Y489228D01*
X233038Y535438D02*
Y539373D01*
X235006D01*
X235662Y538718D01*
Y537406D01*
X235006Y536750D01*
X233038D01*
X234350D02*
X235662Y535438D01*
X236974Y538718D02*
X237630Y539373D01*
X238941D01*
X239597Y538718D01*
Y538062D01*
X238941Y537406D01*
X238285D01*
X238941D01*
X239597Y536750D01*
Y536094D01*
X238941Y535438D01*
X237630D01*
X236974Y536094D01*
X243533Y539373D02*
X242221Y538718D01*
X240909Y537406D01*
Y536094D01*
X241565Y535438D01*
X242877D01*
X243533Y536094D01*
Y536750D01*
X242877Y537406D01*
X240909D01*
X244845Y534782D02*
X247469D01*
X248781Y539373D02*
Y535438D01*
X251405D01*
X255340Y538718D02*
X254684Y539373D01*
X253373D01*
X252716Y538718D01*
Y536094D01*
X253373Y535438D01*
X254684D01*
X255340Y536094D01*
X85262Y533174D02*
Y537110D01*
X87230D01*
X87886Y536454D01*
Y535142D01*
X87230Y534486D01*
X85262D01*
X86574D02*
X87886Y533174D01*
X89198Y536454D02*
X89854Y537110D01*
X91166D01*
X91822Y536454D01*
Y535798D01*
X91166Y535142D01*
X90510D01*
X91166D01*
X91822Y534486D01*
Y533830D01*
X91166Y533174D01*
X89854D01*
X89198Y533830D01*
X95758Y537110D02*
X94446Y536454D01*
X93134Y535142D01*
Y533830D01*
X93790Y533174D01*
X95102D01*
X95758Y533830D01*
Y534486D01*
X95102Y535142D01*
X93134D01*
X97069Y532518D02*
X99693D01*
X101005Y537110D02*
Y533174D01*
Y535142D01*
X103629D01*
Y537110D01*
Y533174D01*
X107565Y536454D02*
X106909Y537110D01*
X105597D01*
X104941Y536454D01*
Y533830D01*
X105597Y533174D01*
X106909D01*
X107565Y533830D01*
X233113Y580138D02*
Y584073D01*
X235081D01*
X235737Y583418D01*
Y582106D01*
X235081Y581450D01*
X233113D01*
X234425D02*
X235737Y580138D01*
X237049Y583418D02*
X237704Y584073D01*
X239016D01*
X239672Y583418D01*
Y582762D01*
X239016Y582106D01*
X238360D01*
X239016D01*
X239672Y581450D01*
Y580794D01*
X239016Y580138D01*
X237704D01*
X237049Y580794D01*
X243608Y584073D02*
X240984D01*
Y582106D01*
X242296Y582762D01*
X242952D01*
X243608Y582106D01*
Y580794D01*
X242952Y580138D01*
X241640D01*
X240984Y580794D01*
X244920Y579482D02*
X247544D01*
X248856Y584073D02*
Y580138D01*
X251480D01*
X255415Y583418D02*
X254759Y584073D01*
X253447D01*
X252792Y583418D01*
Y580794D01*
X253447Y580138D01*
X254759D01*
X255415Y580794D01*
X84672Y577971D02*
Y581907D01*
X86639D01*
X87296Y581251D01*
Y579939D01*
X86639Y579283D01*
X84672D01*
X85984D02*
X87296Y577971D01*
X88607Y581251D02*
X89263Y581907D01*
X90575D01*
X91231Y581251D01*
Y580595D01*
X90575Y579939D01*
X89919D01*
X90575D01*
X91231Y579283D01*
Y578627D01*
X90575Y577971D01*
X89263D01*
X88607Y578627D01*
X95167Y581907D02*
X92543D01*
Y579939D01*
X93855Y580595D01*
X94511D01*
X95167Y579939D01*
Y578627D01*
X94511Y577971D01*
X93199D01*
X92543Y578627D01*
X96479Y577315D02*
X99103D01*
X100415Y581907D02*
Y577971D01*
Y579939D01*
X103038D01*
Y581907D01*
Y577971D01*
X106974Y581251D02*
X106318Y581907D01*
X105006D01*
X104350Y581251D01*
Y578627D01*
X105006Y577971D01*
X106318D01*
X106974Y578627D01*
X219728Y617777D02*
X215793D01*
Y619744D01*
X216449Y620400D01*
X217761D01*
X218417Y619744D01*
Y617777D01*
Y619089D02*
X219728Y620400D01*
X216449Y621712D02*
X215793Y622368D01*
Y623680D01*
X216449Y624336D01*
X217105D01*
X217761Y623680D01*
Y623024D01*
Y623680D01*
X218417Y624336D01*
X219073D01*
X219728Y623680D01*
Y622368D01*
X219073Y621712D01*
X219728Y627616D02*
X215793D01*
X217761Y625648D01*
Y628272D01*
X220384Y629584D02*
Y632208D01*
X215793Y633520D02*
X219728D01*
Y636143D01*
X216449Y640079D02*
X215793Y639423D01*
Y638111D01*
X216449Y637455D01*
X219073D01*
X219728Y638111D01*
Y639423D01*
X219073Y640079D01*
X105781Y588734D02*
X101845D01*
Y590702D01*
X102501Y591358D01*
X103813D01*
X104469Y590702D01*
Y588734D01*
Y590046D02*
X105781Y591358D01*
X102501Y592670D02*
X101845Y593326D01*
Y594637D01*
X102501Y595293D01*
X103157D01*
X103813Y594637D01*
Y593982D01*
Y594637D01*
X104469Y595293D01*
X105125D01*
X105781Y594637D01*
Y593326D01*
X105125Y592670D01*
X105781Y598573D02*
X101845D01*
X103813Y596605D01*
Y599229D01*
X106437Y600541D02*
Y603165D01*
X101845Y604477D02*
X105781D01*
X103813D01*
Y607101D01*
X101845D01*
X105781D01*
X102501Y611036D02*
X101845Y610380D01*
Y609068D01*
X102501Y608413D01*
X105125D01*
X105781Y609068D01*
Y610380D01*
X105125Y611036D01*
X174618Y617777D02*
X170682D01*
Y619744D01*
X171338Y620400D01*
X172650D01*
X173305Y619744D01*
Y617777D01*
Y619089D02*
X174618Y620400D01*
X171338Y621712D02*
X170682Y622368D01*
Y623680D01*
X171338Y624336D01*
X171994D01*
X172650Y623680D01*
Y623024D01*
Y623680D01*
X173305Y624336D01*
X173961D01*
X174618Y623680D01*
Y622368D01*
X173961Y621712D01*
X171338Y625648D02*
X170682Y626304D01*
Y627616D01*
X171338Y628272D01*
X171994D01*
X172650Y627616D01*
Y626960D01*
Y627616D01*
X173305Y628272D01*
X173961D01*
X174618Y627616D01*
Y626304D01*
X173961Y625648D01*
X175273Y629584D02*
Y632208D01*
X170682Y633520D02*
X174618D01*
Y636143D01*
X171338Y640079D02*
X170682Y639423D01*
Y638111D01*
X171338Y637455D01*
X173961D01*
X174618Y638111D01*
Y639423D01*
X173961Y640079D01*
X150171Y588746D02*
X146235D01*
Y590714D01*
X146891Y591369D01*
X148203D01*
X148859Y590714D01*
Y588746D01*
Y590058D02*
X150171Y591369D01*
X146891Y592681D02*
X146235Y593337D01*
Y594649D01*
X146891Y595305D01*
X147547D01*
X148203Y594649D01*
Y593993D01*
Y594649D01*
X148859Y595305D01*
X149515D01*
X150171Y594649D01*
Y593337D01*
X149515Y592681D01*
X146891Y596617D02*
X146235Y597273D01*
Y598585D01*
X146891Y599241D01*
X147547D01*
X148203Y598585D01*
Y597929D01*
Y598585D01*
X148859Y599241D01*
X149515D01*
X150171Y598585D01*
Y597273D01*
X149515Y596617D01*
X150827Y600553D02*
Y603177D01*
X146235Y604489D02*
X150171D01*
X148203D01*
Y607113D01*
X146235D01*
X150171D01*
X146891Y611048D02*
X146235Y610392D01*
Y609080D01*
X146891Y608424D01*
X149515D01*
X150171Y609080D01*
Y610392D01*
X149515Y611048D01*
X212261Y274676D02*
X208325D01*
Y276644D01*
X208981Y277300D01*
X210293D01*
X210949Y276644D01*
Y274676D01*
Y275988D02*
X212261Y277300D01*
X208981Y278612D02*
X208325Y279268D01*
Y280580D01*
X208981Y281236D01*
X209637D01*
X210293Y280580D01*
Y279924D01*
Y280580D01*
X210949Y281236D01*
X211605D01*
X212261Y280580D01*
Y279268D01*
X211605Y278612D01*
X212261Y285172D02*
Y282548D01*
X209637Y285172D01*
X208981D01*
X208325Y284516D01*
Y283204D01*
X208981Y282548D01*
X206552Y274677D02*
X202616D01*
Y276645D01*
X203272Y277301D01*
X204584D01*
X205240Y276645D01*
Y274677D01*
Y275989D02*
X206552Y277301D01*
X203272Y278613D02*
X202616Y279269D01*
Y280581D01*
X203272Y281237D01*
X203928D01*
X204584Y280581D01*
Y279925D01*
Y280581D01*
X205240Y281237D01*
X205896D01*
X206552Y280581D01*
Y279269D01*
X205896Y278613D01*
X206552Y282549D02*
Y283861D01*
Y283205D01*
X202616D01*
X203272Y282549D01*
X70536Y273231D02*
X66601D01*
Y275199D01*
X67256Y275854D01*
X68568D01*
X69224Y275199D01*
Y273231D01*
Y274543D02*
X70536Y275854D01*
Y279790D02*
Y277167D01*
X67912Y279790D01*
X67256D01*
X66601Y279134D01*
Y277822D01*
X67256Y277167D01*
X69880Y281102D02*
X70536Y281758D01*
Y283070D01*
X69880Y283726D01*
X67256D01*
X66601Y283070D01*
Y281758D01*
X67256Y281102D01*
X67912D01*
X68568Y281758D01*
Y283726D01*
X64631Y273330D02*
X60695D01*
Y275298D01*
X61351Y275954D01*
X62663D01*
X63319Y275298D01*
Y273330D01*
Y274642D02*
X64631Y275954D01*
Y279889D02*
Y277266D01*
X62007Y279889D01*
X61351D01*
X60695Y279234D01*
Y277922D01*
X61351Y277266D01*
Y281201D02*
X60695Y281857D01*
Y283169D01*
X61351Y283825D01*
X62007D01*
X62663Y283169D01*
X63319Y283825D01*
X63975D01*
X64631Y283169D01*
Y281857D01*
X63975Y281201D01*
X63319D01*
X62663Y281857D01*
X62007Y281201D01*
X61351D01*
X62663Y281857D02*
Y283169D01*
X84392Y349921D02*
X80456D01*
Y351889D01*
X81112Y352545D01*
X82424D01*
X83080Y351889D01*
Y349921D01*
Y351233D02*
X84392Y352545D01*
Y356481D02*
Y353857D01*
X81768Y356481D01*
X81112D01*
X80456Y355825D01*
Y354513D01*
X81112Y353857D01*
X80456Y357793D02*
Y360417D01*
X81112D01*
X83736Y357793D01*
X84392D01*
X493516Y401991D02*
X489580D01*
Y403959D01*
X490236Y404615D01*
X491548D01*
X492204Y403959D01*
Y401991D01*
Y403303D02*
X493516Y404615D01*
Y408550D02*
Y405927D01*
X490892Y408550D01*
X490236D01*
X489580Y407894D01*
Y406582D01*
X490236Y405927D01*
X489580Y412486D02*
X490236Y411174D01*
X491548Y409862D01*
X492860D01*
X493516Y410518D01*
Y411830D01*
X492860Y412486D01*
X492204D01*
X491548Y411830D01*
Y409862D01*
X494172Y413798D02*
Y416422D01*
X489580Y417734D02*
X493516D01*
Y420358D01*
X489580Y421669D02*
X493516D01*
Y423637D01*
X492860Y424293D01*
X492204D01*
X491548Y423637D01*
Y421669D01*
Y423637D01*
X490892Y424293D01*
X490236D01*
X489580Y423637D01*
Y421669D01*
X429569Y428674D02*
X425634D01*
Y430642D01*
X426290Y431298D01*
X427601D01*
X428257Y430642D01*
Y428674D01*
Y429986D02*
X429569Y431298D01*
Y435234D02*
Y432610D01*
X426945Y435234D01*
X426290D01*
X425634Y434578D01*
Y433266D01*
X426290Y432610D01*
X425634Y439169D02*
X426290Y437857D01*
X427601Y436546D01*
X428913D01*
X429569Y437201D01*
Y438513D01*
X428913Y439169D01*
X428257D01*
X427601Y438513D01*
Y436546D01*
X430225Y440481D02*
Y443105D01*
X425634Y444417D02*
X429569D01*
X427601D01*
Y447041D01*
X425634D01*
X429569D01*
X425634Y448353D02*
X429569D01*
Y450321D01*
X428913Y450977D01*
X428257D01*
X427601Y450321D01*
Y448353D01*
Y450321D01*
X426945Y450977D01*
X426290D01*
X425634Y450321D01*
Y448353D01*
X539626Y401760D02*
X535690D01*
Y403728D01*
X536346Y404384D01*
X537658D01*
X538314Y403728D01*
Y401760D01*
Y403072D02*
X539626Y404384D01*
Y408320D02*
Y405696D01*
X537002Y408320D01*
X536346D01*
X535690Y407664D01*
Y406352D01*
X536346Y405696D01*
X535690Y412256D02*
Y409632D01*
X537658D01*
X537002Y410944D01*
Y411600D01*
X537658Y412256D01*
X538970D01*
X539626Y411600D01*
Y410288D01*
X538970Y409632D01*
X540281Y413568D02*
Y416191D01*
X535690Y417503D02*
X539626D01*
Y420127D01*
X535690Y421439D02*
X539626D01*
Y423407D01*
X538970Y424063D01*
X538314D01*
X537658Y423407D01*
Y421439D01*
Y423407D01*
X537002Y424063D01*
X536346D01*
X535690Y423407D01*
Y421439D01*
X384884Y428270D02*
X380948D01*
Y430238D01*
X381605Y430894D01*
X382916D01*
X383572Y430238D01*
Y428270D01*
Y429582D02*
X384884Y430894D01*
Y434830D02*
Y432206D01*
X382260Y434830D01*
X381605D01*
X380948Y434174D01*
Y432862D01*
X381605Y432206D01*
X380948Y438765D02*
Y436142D01*
X382916D01*
X382260Y437454D01*
Y438109D01*
X382916Y438765D01*
X384228D01*
X384884Y438109D01*
Y436798D01*
X384228Y436142D01*
X385540Y440077D02*
Y442701D01*
X380948Y444013D02*
X384884D01*
X382916D01*
Y446637D01*
X380948D01*
X384884D01*
X380948Y447949D02*
X384884D01*
Y449917D01*
X384228Y450573D01*
X383572D01*
X382916Y449917D01*
Y447949D01*
Y449917D01*
X382260Y450573D01*
X381605D01*
X380948Y449917D01*
Y447949D01*
X532292Y490719D02*
Y494655D01*
X534260D01*
X534916Y493999D01*
Y492687D01*
X534260Y492031D01*
X532292D01*
X533604D02*
X534916Y490719D01*
X538852D02*
X536228D01*
X538852Y493343D01*
Y493999D01*
X538196Y494655D01*
X536884D01*
X536228Y493999D01*
X542131Y490719D02*
Y494655D01*
X540164Y492687D01*
X542787D01*
X544099Y490063D02*
X546723D01*
X548035Y494655D02*
Y490719D01*
X550659D01*
X551971Y494655D02*
Y490719D01*
X553939D01*
X554595Y491375D01*
Y492031D01*
X553939Y492687D01*
X551971D01*
X553939D01*
X554595Y493343D01*
Y493999D01*
X553939Y494655D01*
X551971D01*
X383872Y489163D02*
Y493099D01*
X385840D01*
X386495Y492443D01*
Y491131D01*
X385840Y490475D01*
X383872D01*
X385184D02*
X386495Y489163D01*
X390431D02*
X387807D01*
X390431Y491787D01*
Y492443D01*
X389775Y493099D01*
X388463D01*
X387807Y492443D01*
X393711Y489163D02*
Y493099D01*
X391743Y491131D01*
X394367D01*
X395679Y488507D02*
X398303D01*
X399615Y493099D02*
Y489163D01*
Y491131D01*
X402238D01*
Y493099D01*
Y489163D01*
X403550Y493099D02*
Y489163D01*
X405518D01*
X406174Y489819D01*
Y490475D01*
X405518Y491131D01*
X403550D01*
X405518D01*
X406174Y491787D01*
Y492443D01*
X405518Y493099D01*
X403550D01*
X532338Y535438D02*
Y539373D01*
X534306D01*
X534962Y538718D01*
Y537406D01*
X534306Y536750D01*
X532338D01*
X533650D02*
X534962Y535438D01*
X538897D02*
X536273D01*
X538897Y538062D01*
Y538718D01*
X538241Y539373D01*
X536930D01*
X536273Y538718D01*
X540209D02*
X540865Y539373D01*
X542177D01*
X542833Y538718D01*
Y538062D01*
X542177Y537406D01*
X541521D01*
X542177D01*
X542833Y536750D01*
Y536094D01*
X542177Y535438D01*
X540865D01*
X540209Y536094D01*
X544145Y534782D02*
X546769D01*
X548081Y539373D02*
Y535438D01*
X550705D01*
X552016Y539373D02*
Y535438D01*
X553984D01*
X554640Y536094D01*
Y536750D01*
X553984Y537406D01*
X552016D01*
X553984D01*
X554640Y538062D01*
Y538718D01*
X553984Y539373D01*
X552016D01*
X385053Y533568D02*
Y537503D01*
X387021D01*
X387677Y536847D01*
Y535536D01*
X387021Y534880D01*
X385053D01*
X386365D02*
X387677Y533568D01*
X391612D02*
X388988D01*
X391612Y536192D01*
Y536847D01*
X390956Y537503D01*
X389645D01*
X388988Y536847D01*
X392924D02*
X393580Y537503D01*
X394892D01*
X395548Y536847D01*
Y536192D01*
X394892Y535536D01*
X394236D01*
X394892D01*
X395548Y534880D01*
Y534224D01*
X394892Y533568D01*
X393580D01*
X392924Y534224D01*
X396860Y532912D02*
X399484D01*
X400796Y537503D02*
Y533568D01*
Y535536D01*
X403419D01*
Y537503D01*
Y533568D01*
X404732Y537503D02*
Y533568D01*
X406699D01*
X407355Y534224D01*
Y534880D01*
X406699Y535536D01*
X404732D01*
X406699D01*
X407355Y536192D01*
Y536847D01*
X406699Y537503D01*
X404732D01*
X532338Y580138D02*
Y584073D01*
X534306D01*
X534962Y583418D01*
Y582106D01*
X534306Y581450D01*
X532338D01*
X533650D02*
X534962Y580138D01*
X538897D02*
X536273D01*
X538897Y582762D01*
Y583418D01*
X538241Y584073D01*
X536930D01*
X536273Y583418D01*
X542833Y580138D02*
X540209D01*
X542833Y582762D01*
Y583418D01*
X542177Y584073D01*
X540865D01*
X540209Y583418D01*
X544145Y579482D02*
X546769D01*
X548081Y584073D02*
Y580138D01*
X550705D01*
X552016Y584073D02*
Y580138D01*
X553984D01*
X554640Y580794D01*
Y581450D01*
X553984Y582106D01*
X552016D01*
X553984D01*
X554640Y582762D01*
Y583418D01*
X553984Y584073D01*
X552016D01*
X385250Y578168D02*
Y582103D01*
X387217D01*
X387873Y581448D01*
Y580136D01*
X387217Y579480D01*
X385250D01*
X386561D02*
X387873Y578168D01*
X391809D02*
X389185D01*
X391809Y580792D01*
Y581448D01*
X391153Y582103D01*
X389841D01*
X389185Y581448D01*
X395745Y578168D02*
X393121D01*
X395745Y580792D01*
Y581448D01*
X395089Y582103D01*
X393777D01*
X393121Y581448D01*
X397057Y577512D02*
X399681D01*
X400993Y582103D02*
Y578168D01*
Y580136D01*
X403616D01*
Y582103D01*
Y578168D01*
X404928Y582103D02*
Y578168D01*
X406896D01*
X407552Y578824D01*
Y579480D01*
X406896Y580136D01*
X404928D01*
X406896D01*
X407552Y580792D01*
Y581448D01*
X406896Y582103D01*
X404928D01*
X518118Y618322D02*
X514183D01*
Y620290D01*
X514839Y620946D01*
X516150D01*
X516806Y620290D01*
Y618322D01*
Y619634D02*
X518118Y620946D01*
Y624882D02*
Y622258D01*
X515494Y624882D01*
X514839D01*
X514183Y624226D01*
Y622914D01*
X514839Y622258D01*
X518118Y626193D02*
Y627505D01*
Y626849D01*
X514183D01*
X514839Y626193D01*
X518774Y629473D02*
Y632097D01*
X514183Y633409D02*
X518118D01*
Y636033D01*
X514183Y637345D02*
X518118D01*
Y639313D01*
X517462Y639968D01*
X516806D01*
X516150Y639313D01*
Y637345D01*
Y639313D01*
X515494Y639968D01*
X514839D01*
X514183Y639313D01*
Y637345D01*
X404994Y588034D02*
X401058D01*
Y590002D01*
X401714Y590658D01*
X403026D01*
X403682Y590002D01*
Y588034D01*
Y589346D02*
X404994Y590658D01*
Y594593D02*
Y591970D01*
X402370Y594593D01*
X401714D01*
X401058Y593937D01*
Y592626D01*
X401714Y591970D01*
X404994Y595905D02*
Y597217D01*
Y596561D01*
X401058D01*
X401714Y595905D01*
X405650Y599185D02*
Y601809D01*
X401058Y603121D02*
X404994D01*
X403026D01*
Y605745D01*
X401058D01*
X404994D01*
X401058Y607057D02*
X404994D01*
Y609024D01*
X404338Y609680D01*
X403682D01*
X403026Y609024D01*
Y607057D01*
Y609024D01*
X402370Y609680D01*
X401714D01*
X401058Y609024D01*
Y607057D01*
X473631Y618056D02*
X469696D01*
Y620024D01*
X470352Y620680D01*
X471664D01*
X472320Y620024D01*
Y618056D01*
Y619368D02*
X473631Y620680D01*
Y624615D02*
Y621992D01*
X471008Y624615D01*
X470352D01*
X469696Y623959D01*
Y622648D01*
X470352Y621992D01*
Y625927D02*
X469696Y626583D01*
Y627895D01*
X470352Y628551D01*
X472975D01*
X473631Y627895D01*
Y626583D01*
X472975Y625927D01*
X470352D01*
X474287Y629863D02*
Y632487D01*
X469696Y633799D02*
X473631D01*
Y636423D01*
X469696Y637735D02*
X473631D01*
Y639703D01*
X472975Y640358D01*
X472320D01*
X471664Y639703D01*
Y637735D01*
Y639703D01*
X471008Y640358D01*
X470352D01*
X469696Y639703D01*
Y637735D01*
X448990Y589324D02*
X445054D01*
Y591292D01*
X445710Y591948D01*
X447022D01*
X447678Y591292D01*
Y589324D01*
Y590635D02*
X448990Y591948D01*
Y595883D02*
Y593259D01*
X446366Y595883D01*
X445710D01*
X445054Y595227D01*
Y593915D01*
X445710Y593259D01*
Y597195D02*
X445054Y597851D01*
Y599163D01*
X445710Y599819D01*
X448334D01*
X448990Y599163D01*
Y597851D01*
X448334Y597195D01*
X445710D01*
X449646Y601131D02*
Y603755D01*
X445054Y605067D02*
X448990D01*
X447022D01*
Y607690D01*
X445054D01*
X448990D01*
X445054Y609002D02*
X448990D01*
Y610970D01*
X448334Y611626D01*
X447678D01*
X447022Y610970D01*
Y609002D01*
Y610970D01*
X446366Y611626D01*
X445710D01*
X445054Y610970D01*
Y609002D01*
X514524Y273986D02*
X510589D01*
Y275954D01*
X511245Y276610D01*
X512557D01*
X513212Y275954D01*
Y273986D01*
Y275298D02*
X514524Y276610D01*
Y277922D02*
Y279234D01*
Y278577D01*
X510589D01*
X511245Y277922D01*
X513869Y281201D02*
X514524Y281857D01*
Y283169D01*
X513869Y283825D01*
X511245D01*
X510589Y283169D01*
Y281857D01*
X511245Y281201D01*
X511901D01*
X512557Y281857D01*
Y283825D01*
X509013Y274085D02*
X505077D01*
Y276053D01*
X505733Y276709D01*
X507045D01*
X507701Y276053D01*
Y274085D01*
Y275397D02*
X509013Y276709D01*
Y278021D02*
Y279333D01*
Y278677D01*
X505077D01*
X505733Y278021D01*
Y281301D02*
X505077Y281957D01*
Y283268D01*
X505733Y283924D01*
X506389D01*
X507045Y283268D01*
X507701Y283924D01*
X508357D01*
X509013Y283268D01*
Y281957D01*
X508357Y281301D01*
X507701D01*
X507045Y281957D01*
X506389Y281301D01*
X505733D01*
X507045Y281957D02*
Y283268D01*
X370633Y273918D02*
X366697D01*
Y275886D01*
X367353Y276542D01*
X368665D01*
X369321Y275886D01*
Y273918D01*
Y275230D02*
X370633Y276542D01*
Y277854D02*
Y279166D01*
Y278510D01*
X366697D01*
X367353Y277854D01*
X366697Y283757D02*
X367353Y282446D01*
X368665Y281134D01*
X369977D01*
X370633Y281790D01*
Y283102D01*
X369977Y283757D01*
X369321D01*
X368665Y283102D01*
Y281134D01*
X364924Y274117D02*
X360989D01*
Y276085D01*
X361645Y276741D01*
X362957D01*
X363613Y276085D01*
Y274117D01*
Y275429D02*
X364924Y276741D01*
Y278053D02*
Y279365D01*
Y278709D01*
X360989D01*
X361645Y278053D01*
X360989Y283957D02*
Y281333D01*
X362957D01*
X362301Y282645D01*
Y283301D01*
X362957Y283957D01*
X364268D01*
X364924Y283301D01*
Y281989D01*
X364268Y281333D01*
X384587Y349628D02*
X380652D01*
Y351595D01*
X381308Y352251D01*
X382620D01*
X383276Y351595D01*
Y349628D01*
Y350939D02*
X384587Y352251D01*
Y353563D02*
Y354875D01*
Y354219D01*
X380652D01*
X381308Y353563D01*
X384587Y358811D02*
X380652D01*
X382620Y356843D01*
Y359467D01*
X792990Y401435D02*
X789054D01*
Y403402D01*
X789710Y404058D01*
X791022D01*
X791678Y403402D01*
Y401435D01*
Y402746D02*
X792990Y404058D01*
Y405370D02*
Y406682D01*
Y406026D01*
X789054D01*
X789710Y405370D01*
Y408650D02*
X789054Y409306D01*
Y410618D01*
X789710Y411274D01*
X790366D01*
X791022Y410618D01*
Y409962D01*
Y410618D01*
X791678Y411274D01*
X792334D01*
X792990Y410618D01*
Y409306D01*
X792334Y408650D01*
X793646Y412586D02*
Y415210D01*
X789054Y416522D02*
X792990D01*
Y419145D01*
Y420457D02*
X790366D01*
X789054Y421769D01*
X790366Y423081D01*
X792990D01*
X791022D01*
Y420457D01*
X728290Y429153D02*
X724354D01*
Y431121D01*
X725010Y431777D01*
X726322D01*
X726978Y431121D01*
Y429153D01*
Y430465D02*
X728290Y431777D01*
Y433089D02*
Y434401D01*
Y433745D01*
X724354D01*
X725010Y433089D01*
Y436369D02*
X724354Y437025D01*
Y438337D01*
X725010Y438993D01*
X725666D01*
X726322Y438337D01*
Y437681D01*
Y438337D01*
X726978Y438993D01*
X727634D01*
X728290Y438337D01*
Y437025D01*
X727634Y436369D01*
X728946Y440305D02*
Y442929D01*
X724354Y444241D02*
X728290D01*
X726322D01*
Y446864D01*
X724354D01*
X728290D01*
Y448176D02*
X725666D01*
X724354Y449488D01*
X725666Y450800D01*
X728290D01*
X726322D01*
Y448176D01*
X837681Y401547D02*
X833746D01*
Y403515D01*
X834402Y404171D01*
X835714D01*
X836370Y403515D01*
Y401547D01*
Y402859D02*
X837681Y404171D01*
Y405483D02*
Y406795D01*
Y406139D01*
X833746D01*
X834402Y405483D01*
X837681Y411387D02*
Y408763D01*
X835058Y411387D01*
X834402D01*
X833746Y410731D01*
Y409419D01*
X834402Y408763D01*
X838337Y412699D02*
Y415322D01*
X833746Y416634D02*
X837681D01*
Y419258D01*
Y420570D02*
X835058D01*
X833746Y421882D01*
X835058Y423194D01*
X837681D01*
X835714D01*
Y420570D01*
X683309Y430226D02*
X679374D01*
Y432194D01*
X680030Y432850D01*
X681342D01*
X681997Y432194D01*
Y430226D01*
Y431538D02*
X683309Y432850D01*
Y434162D02*
Y435474D01*
Y434818D01*
X679374D01*
X680030Y434162D01*
X683309Y440065D02*
Y437441D01*
X680686Y440065D01*
X680030D01*
X679374Y439409D01*
Y438097D01*
X680030Y437441D01*
X683965Y441377D02*
Y444001D01*
X679374Y445313D02*
X683309D01*
X681342D01*
Y447937D01*
X679374D01*
X683309D01*
Y449249D02*
X680686D01*
X679374Y450561D01*
X680686Y451872D01*
X683309D01*
X681342D01*
Y449249D01*
X831540Y490743D02*
Y494679D01*
X833508D01*
X834164Y494023D01*
Y492711D01*
X833508Y492056D01*
X831540D01*
X832852D02*
X834164Y490743D01*
X835476D02*
X836788D01*
X836132D01*
Y494679D01*
X835476Y494023D01*
X838756Y490743D02*
X840068D01*
X839412D01*
Y494679D01*
X838756Y494023D01*
X842036Y490088D02*
X844660D01*
X845971Y494679D02*
Y490743D01*
X848595D01*
X849907D02*
Y493367D01*
X851219Y494679D01*
X852531Y493367D01*
Y490743D01*
Y492711D01*
X849907D01*
X684351Y488769D02*
Y492705D01*
X686319D01*
X686975Y492049D01*
Y490737D01*
X686319Y490081D01*
X684351D01*
X685663D02*
X686975Y488769D01*
X688287D02*
X689599D01*
X688943D01*
Y492705D01*
X688287Y492049D01*
X691567Y488769D02*
X692879D01*
X692223D01*
Y492705D01*
X691567Y492049D01*
X694846Y488113D02*
X697470D01*
X698782Y492705D02*
Y488769D01*
Y490737D01*
X701406D01*
Y492705D01*
Y488769D01*
X702718D02*
Y491393D01*
X704030Y492705D01*
X705342Y491393D01*
Y488769D01*
Y490737D01*
X702718D01*
X831538Y535438D02*
Y539373D01*
X833506D01*
X834162Y538718D01*
Y537406D01*
X833506Y536750D01*
X831538D01*
X832850D02*
X834162Y535438D01*
X835474D02*
X836785D01*
X836129D01*
Y539373D01*
X835474Y538718D01*
X838753D02*
X839409Y539373D01*
X840721D01*
X841377Y538718D01*
Y536094D01*
X840721Y535438D01*
X839409D01*
X838753Y536094D01*
Y538718D01*
X842689Y534782D02*
X845313D01*
X846625Y539373D02*
Y535438D01*
X849249D01*
X850560D02*
Y538062D01*
X851873Y539373D01*
X853184Y538062D01*
Y535438D01*
Y537406D01*
X850560D01*
X684450Y533469D02*
Y537405D01*
X686417D01*
X687073Y536749D01*
Y535437D01*
X686417Y534781D01*
X684450D01*
X685761D02*
X687073Y533469D01*
X688385D02*
X689697D01*
X689041D01*
Y537405D01*
X688385Y536749D01*
X691665D02*
X692321Y537405D01*
X693633D01*
X694289Y536749D01*
Y534125D01*
X693633Y533469D01*
X692321D01*
X691665Y534125D01*
Y536749D01*
X695601Y532813D02*
X698225D01*
X699537Y537405D02*
Y533469D01*
Y535437D01*
X702160D01*
Y537405D01*
Y533469D01*
X703472D02*
Y536093D01*
X704784Y537405D01*
X706096Y536093D01*
Y533469D01*
Y535437D01*
X703472D01*
X831511Y580160D02*
Y584096D01*
X833478D01*
X834134Y583440D01*
Y582128D01*
X833478Y581472D01*
X831511D01*
X832822D02*
X834134Y580160D01*
X835446Y580816D02*
X836102Y580160D01*
X837414D01*
X838070Y580816D01*
Y583440D01*
X837414Y584096D01*
X836102D01*
X835446Y583440D01*
Y582784D01*
X836102Y582128D01*
X838070D01*
X839382Y579504D02*
X842006D01*
X843318Y584096D02*
Y580160D01*
X845942D01*
X847254D02*
Y582784D01*
X848565Y584096D01*
X849877Y582784D01*
Y580160D01*
Y582128D01*
X847254D01*
X685532Y578758D02*
Y582694D01*
X687500D01*
X688156Y582038D01*
Y580726D01*
X687500Y580070D01*
X685532D01*
X686844D02*
X688156Y578758D01*
X689468Y579414D02*
X690124Y578758D01*
X691436D01*
X692092Y579414D01*
Y582038D01*
X691436Y582694D01*
X690124D01*
X689468Y582038D01*
Y581382D01*
X690124Y580726D01*
X692092D01*
X693404Y578102D02*
X696028D01*
X697339Y582694D02*
Y578758D01*
Y580726D01*
X699963D01*
Y582694D01*
Y578758D01*
X701275D02*
Y581382D01*
X702587Y582694D01*
X703899Y581382D01*
Y578758D01*
Y580726D01*
X701275D01*
X818612Y620022D02*
X814676D01*
Y621990D01*
X815332Y622646D01*
X816644D01*
X817300Y621990D01*
Y620022D01*
Y621334D02*
X818612Y622646D01*
X815332Y623958D02*
X814676Y624614D01*
Y625926D01*
X815332Y626582D01*
X815988D01*
X816644Y625926D01*
X817300Y626582D01*
X817956D01*
X818612Y625926D01*
Y624614D01*
X817956Y623958D01*
X817300D01*
X816644Y624614D01*
X815988Y623958D01*
X815332D01*
X816644Y624614D02*
Y625926D01*
X819268Y627893D02*
Y630517D01*
X814676Y631829D02*
X818612D01*
Y634453D01*
Y635765D02*
X815988D01*
X814676Y637077D01*
X815988Y638389D01*
X818612D01*
X816644D01*
Y635765D01*
X704403Y590974D02*
X700467D01*
Y592942D01*
X701123Y593598D01*
X702435D01*
X703091Y592942D01*
Y590974D01*
Y592286D02*
X704403Y593598D01*
X701123Y594910D02*
X700467Y595566D01*
Y596878D01*
X701123Y597534D01*
X701779D01*
X702435Y596878D01*
X703091Y597534D01*
X703747D01*
X704403Y596878D01*
Y595566D01*
X703747Y594910D01*
X703091D01*
X702435Y595566D01*
X701779Y594910D01*
X701123D01*
X702435Y595566D02*
Y596878D01*
X705059Y598845D02*
Y601469D01*
X700467Y602781D02*
X704403D01*
X702435D01*
Y605405D01*
X700467D01*
X704403D01*
Y606717D02*
X701779D01*
X700467Y608029D01*
X701779Y609341D01*
X704403D01*
X702435D01*
Y606717D01*
X773886Y619941D02*
X769950D01*
Y621909D01*
X770606Y622565D01*
X771918D01*
X772574Y621909D01*
Y619941D01*
Y621253D02*
X773886Y622565D01*
X769950Y623876D02*
Y626500D01*
X770606D01*
X773230Y623876D01*
X773886D01*
X774542Y627812D02*
Y630436D01*
X769950Y631748D02*
X773886D01*
Y634372D01*
Y635684D02*
X771262D01*
X769950Y636996D01*
X771262Y638308D01*
X773886D01*
X771918D01*
Y635684D01*
X748891Y590984D02*
X744956D01*
Y592952D01*
X745612Y593608D01*
X746923D01*
X747579Y592952D01*
Y590984D01*
Y592296D02*
X748891Y593608D01*
X744956Y594920D02*
Y597544D01*
X745612D01*
X748235Y594920D01*
X748891D01*
X749547Y598856D02*
Y601480D01*
X744956Y602792D02*
X748891D01*
X746923D01*
Y605415D01*
X744956D01*
X748891D01*
Y606727D02*
X746268D01*
X744956Y608039D01*
X746268Y609351D01*
X748891D01*
X746923D01*
Y606727D01*
X797300Y265384D02*
X793364D01*
Y267351D01*
X794020Y268007D01*
X795332D01*
X795988Y267351D01*
Y265384D01*
Y266695D02*
X797300Y268007D01*
X793364Y271943D02*
X794020Y270631D01*
X795332Y269319D01*
X796644D01*
X797300Y269975D01*
Y271287D01*
X796644Y271943D01*
X795988D01*
X795332Y271287D01*
Y269319D01*
X790804Y265187D02*
X786868D01*
Y267155D01*
X787524Y267811D01*
X788836D01*
X789492Y267155D01*
Y265187D01*
Y266499D02*
X790804Y267811D01*
X786868Y271747D02*
Y269123D01*
X788836D01*
X788180Y270435D01*
Y271091D01*
X788836Y271747D01*
X790148D01*
X790804Y271091D01*
Y269779D01*
X790148Y269123D01*
X655368Y265606D02*
X651432D01*
Y267574D01*
X652088Y268230D01*
X653400D01*
X654056Y267574D01*
Y265606D01*
Y266918D02*
X655368Y268230D01*
X652088Y269542D02*
X651432Y270198D01*
Y271510D01*
X652088Y272166D01*
X652744D01*
X653400Y271510D01*
Y270854D01*
Y271510D01*
X654056Y272166D01*
X654712D01*
X655368Y271510D01*
Y270198D01*
X654712Y269542D01*
X648675Y265213D02*
X644739D01*
Y267181D01*
X645395Y267837D01*
X646707D01*
X647363Y267181D01*
Y265213D01*
Y266525D02*
X648675Y267837D01*
Y271773D02*
Y269149D01*
X646051Y271773D01*
X645395D01*
X644739Y271117D01*
Y269805D01*
X645395Y269149D01*
X681330Y351058D02*
X677394D01*
Y353026D01*
X678050Y353682D01*
X679362D01*
X680018Y353026D01*
Y351058D01*
Y352370D02*
X681330Y353682D01*
Y354994D02*
Y356306D01*
Y355650D01*
X677394D01*
X678050Y354994D01*
X130662Y552174D02*
X129350D01*
X130006D01*
Y548894D01*
X129350Y548238D01*
X128694D01*
X128038Y548894D01*
X134597Y552174D02*
X133285Y551518D01*
X131974Y550206D01*
Y548894D01*
X132630Y548238D01*
X133941D01*
X134597Y548894D01*
Y549550D01*
X133941Y550206D01*
X131974D01*
X429862Y552174D02*
X428550D01*
X429206D01*
Y548894D01*
X428550Y548238D01*
X427894D01*
X427238Y548894D01*
X433797Y552174D02*
X431174D01*
Y550206D01*
X432485Y550862D01*
X433141D01*
X433797Y550206D01*
Y548894D01*
X433141Y548238D01*
X431830D01*
X431174Y548894D01*
X729062Y552174D02*
X727750D01*
X728406D01*
Y548894D01*
X727750Y548238D01*
X727094D01*
X726438Y548894D01*
X732341Y548238D02*
Y552174D01*
X730373Y550206D01*
X732997D01*
X162462Y98273D02*
X161150D01*
X161806D01*
Y94994D01*
X161150Y94338D01*
X160494D01*
X159838Y94994D01*
X163774Y97618D02*
X164429Y98273D01*
X165741D01*
X166397Y97618D01*
Y96962D01*
X165741Y96306D01*
X165085D01*
X165741D01*
X166397Y95650D01*
Y94994D01*
X165741Y94338D01*
X164429D01*
X163774Y94994D01*
X697862Y98273D02*
X696550D01*
X697206D01*
Y94994D01*
X696550Y94338D01*
X695894D01*
X695238Y94994D01*
X699173Y94338D02*
X700486D01*
X699829D01*
Y98273D01*
X699173Y97618D01*
X73337Y322457D02*
Y318521D01*
X75305D01*
X75961Y319177D01*
Y321801D01*
X75305Y322457D01*
X73337D01*
X77273Y321801D02*
X77929Y322457D01*
X79241D01*
X79897Y321801D01*
Y321145D01*
X79241Y320489D01*
X78585D01*
X79241D01*
X79897Y319833D01*
Y319177D01*
X79241Y318521D01*
X77929D01*
X77273Y319177D01*
X373023Y322275D02*
Y318339D01*
X374991D01*
X375647Y318995D01*
Y321619D01*
X374991Y322275D01*
X373023D01*
X379583Y318339D02*
X376959D01*
X379583Y320963D01*
Y321619D01*
X378926Y322275D01*
X377615D01*
X376959Y321619D01*
X671121Y321891D02*
Y317955D01*
X673089D01*
X673745Y318611D01*
Y321235D01*
X673089Y321891D01*
X671121D01*
X675057Y317955D02*
X676369D01*
X675713D01*
Y321891D01*
X675057Y321235D01*
X42362Y180244D02*
X41706Y180900D01*
X40394D01*
X39738Y180244D01*
Y177620D01*
X40394Y176964D01*
X41706D01*
X42362Y177620D01*
X46297Y180900D02*
X44985Y180244D01*
X43674Y178932D01*
Y177620D01*
X44330Y176964D01*
X45641D01*
X46297Y177620D01*
Y178276D01*
X45641Y178932D01*
X43674D01*
X50233Y180900D02*
X47609D01*
Y178932D01*
X48921Y179588D01*
X49577D01*
X50233Y178932D01*
Y177620D01*
X49577Y176964D01*
X48265D01*
X47609Y177620D01*
X224562Y180244D02*
X223906Y180900D01*
X222594D01*
X221938Y180244D01*
Y177620D01*
X222594Y176964D01*
X223906D01*
X224562Y177620D01*
X228497Y180900D02*
X227185Y180244D01*
X225873Y178932D01*
Y177620D01*
X226530Y176964D01*
X227841D01*
X228497Y177620D01*
Y178276D01*
X227841Y178932D01*
X225873D01*
X231777Y176964D02*
Y180900D01*
X229809Y178932D01*
X232433D01*
X342462Y180244D02*
X341806Y180900D01*
X340494D01*
X339838Y180244D01*
Y177620D01*
X340494Y176964D01*
X341806D01*
X342462Y177620D01*
X346397Y180900D02*
X345085Y180244D01*
X343774Y178932D01*
Y177620D01*
X344429Y176964D01*
X345741D01*
X346397Y177620D01*
Y178276D01*
X345741Y178932D01*
X343774D01*
X347709Y180244D02*
X348365Y180900D01*
X349677D01*
X350333Y180244D01*
Y179588D01*
X349677Y178932D01*
X349021D01*
X349677D01*
X350333Y178276D01*
Y177620D01*
X349677Y176964D01*
X348365D01*
X347709Y177620D01*
X460262Y180244D02*
X459606Y180900D01*
X458294D01*
X457638Y180244D01*
Y177620D01*
X458294Y176964D01*
X459606D01*
X460262Y177620D01*
X464197Y180900D02*
X462886Y180244D01*
X461574Y178932D01*
Y177620D01*
X462229Y176964D01*
X463541D01*
X464197Y177620D01*
Y178276D01*
X463541Y178932D01*
X461574D01*
X468133Y176964D02*
X465509D01*
X468133Y179588D01*
Y180244D01*
X467477Y180900D01*
X466165D01*
X465509Y180244D01*
X578162D02*
X577506Y180900D01*
X576194D01*
X575538Y180244D01*
Y177620D01*
X576194Y176964D01*
X577506D01*
X578162Y177620D01*
X582097Y180900D02*
X580786Y180244D01*
X579473Y178932D01*
Y177620D01*
X580129Y176964D01*
X581441D01*
X582097Y177620D01*
Y178276D01*
X581441Y178932D01*
X579473D01*
X583409Y176964D02*
X584721D01*
X584065D01*
Y180900D01*
X583409Y180244D01*
X759962D02*
X759306Y180900D01*
X757994D01*
X757338Y180244D01*
Y177620D01*
X757994Y176964D01*
X759306D01*
X759962Y177620D01*
X763897Y180900D02*
X762585Y180244D01*
X761273Y178932D01*
Y177620D01*
X761930Y176964D01*
X763241D01*
X763897Y177620D01*
Y178276D01*
X763241Y178932D01*
X761273D01*
X765209Y180244D02*
X765865Y180900D01*
X767177D01*
X767833Y180244D01*
Y177620D01*
X767177Y176964D01*
X765865D01*
X765209Y177620D01*
Y180244D01*
X180281Y357611D02*
X179625Y358266D01*
X178313D01*
X177657Y357611D01*
Y354987D01*
X178313Y354331D01*
X179625D01*
X180281Y354987D01*
X183561Y354331D02*
Y358266D01*
X181593Y356299D01*
X184217D01*
X185529Y354987D02*
X186185Y354331D01*
X187497D01*
X188153Y354987D01*
Y357611D01*
X187497Y358266D01*
X186185D01*
X185529Y357611D01*
Y356955D01*
X186185Y356299D01*
X188153D01*
X204170Y358233D02*
X203514Y358889D01*
X202202D01*
X201547Y358233D01*
Y355609D01*
X202202Y354954D01*
X203514D01*
X204170Y355609D01*
X207450Y354954D02*
Y358889D01*
X205482Y356921D01*
X208106D01*
X209418Y358233D02*
X210074Y358889D01*
X211386D01*
X212042Y358233D01*
Y357577D01*
X211386Y356921D01*
X212042Y356265D01*
Y355609D01*
X211386Y354954D01*
X210074D01*
X209418Y355609D01*
Y356265D01*
X210074Y356921D01*
X209418Y357577D01*
Y358233D01*
X210074Y356921D02*
X211386D01*
X170852Y270670D02*
X170196Y271326D01*
X168884D01*
X168228Y270670D01*
Y268046D01*
X168884Y267390D01*
X170196D01*
X170852Y268046D01*
X174132Y267390D02*
Y271326D01*
X172164Y269358D01*
X174788D01*
X176100Y271326D02*
X178724D01*
Y270670D01*
X176100Y268046D01*
Y267390D01*
X170852Y276418D02*
X170196Y277074D01*
X168884D01*
X168228Y276418D01*
Y273794D01*
X168884Y273138D01*
X170196D01*
X170852Y273794D01*
X174132Y273138D02*
Y277074D01*
X172164Y275106D01*
X174788D01*
X178724Y277074D02*
X177412Y276418D01*
X176100Y275106D01*
Y273794D01*
X176756Y273138D01*
X178068D01*
X178724Y273794D01*
Y274450D01*
X178068Y275106D01*
X176100D01*
X231087Y314143D02*
X230431Y313488D01*
Y312176D01*
X231087Y311520D01*
X233711D01*
X234367Y312176D01*
Y313488D01*
X233711Y314143D01*
X234367Y317423D02*
X230431D01*
X232399Y315455D01*
Y318079D01*
X230431Y322015D02*
Y319391D01*
X232399D01*
X231743Y320703D01*
Y321359D01*
X232399Y322015D01*
X233711D01*
X234367Y321359D01*
Y320047D01*
X233711Y319391D01*
X215316Y321409D02*
X214660Y322065D01*
X213348D01*
X212692Y321409D01*
Y318785D01*
X213348Y318129D01*
X214660D01*
X215316Y318785D01*
X218596Y318129D02*
Y322065D01*
X216628Y320097D01*
X219252D01*
X222532Y318129D02*
Y322065D01*
X220564Y320097D01*
X223187D01*
X230674Y272411D02*
X230018Y271755D01*
Y270443D01*
X230674Y269787D01*
X233298D01*
X233953Y270443D01*
Y271755D01*
X233298Y272411D01*
X233953Y275691D02*
X230018D01*
X231986Y273723D01*
Y276347D01*
X230674Y277659D02*
X230018Y278315D01*
Y279627D01*
X230674Y280283D01*
X231330D01*
X231986Y279627D01*
Y278971D01*
Y279627D01*
X232642Y280283D01*
X233298D01*
X233953Y279627D01*
Y278315D01*
X233298Y277659D01*
X231451Y356368D02*
X230795Y355712D01*
Y354400D01*
X231451Y353744D01*
X234075D01*
X234731Y354400D01*
Y355712D01*
X234075Y356368D01*
X234731Y359648D02*
X230795D01*
X232763Y357680D01*
Y360304D01*
X234731Y364239D02*
Y361616D01*
X232107Y364239D01*
X231451D01*
X230795Y363583D01*
Y362271D01*
X231451Y361616D01*
X38556Y358332D02*
X37900Y358988D01*
X36588D01*
X35932Y358332D01*
Y355708D01*
X36588Y355052D01*
X37900D01*
X38556Y355708D01*
X41836Y355052D02*
Y358988D01*
X39868Y357020D01*
X42492D01*
X43804Y355052D02*
X45116D01*
X44460D01*
Y358988D01*
X43804Y358332D01*
X62173Y359021D02*
X61518Y359677D01*
X60206D01*
X59550Y359021D01*
Y356397D01*
X60206Y355741D01*
X61518D01*
X62173Y356397D01*
X65453Y355741D02*
Y359677D01*
X63485Y357709D01*
X66109D01*
X67421Y359021D02*
X68077Y359677D01*
X69389D01*
X70045Y359021D01*
Y356397D01*
X69389Y355741D01*
X68077D01*
X67421Y356397D01*
Y359021D01*
X115154Y407160D02*
X114498Y407816D01*
X113186D01*
X112530Y407160D01*
Y404536D01*
X113186Y403880D01*
X114498D01*
X115154Y404536D01*
X116466Y407160D02*
X117122Y407816D01*
X118433D01*
X119089Y407160D01*
Y406504D01*
X118433Y405848D01*
X117778D01*
X118433D01*
X119089Y405192D01*
Y404536D01*
X118433Y403880D01*
X117122D01*
X116466Y404536D01*
X120401D02*
X121057Y403880D01*
X122369D01*
X123025Y404536D01*
Y407160D01*
X122369Y407816D01*
X121057D01*
X120401Y407160D01*
Y406504D01*
X121057Y405848D01*
X123025D01*
X29347Y270375D02*
X28692Y271031D01*
X27380D01*
X26724Y270375D01*
Y267751D01*
X27380Y267095D01*
X28692D01*
X29347Y267751D01*
X30659Y270375D02*
X31315Y271031D01*
X32627D01*
X33283Y270375D01*
Y269719D01*
X32627Y269063D01*
X31971D01*
X32627D01*
X33283Y268407D01*
Y267751D01*
X32627Y267095D01*
X31315D01*
X30659Y267751D01*
X34595Y270375D02*
X35251Y271031D01*
X36563D01*
X37219Y270375D01*
Y269719D01*
X36563Y269063D01*
X37219Y268407D01*
Y267751D01*
X36563Y267095D01*
X35251D01*
X34595Y267751D01*
Y268407D01*
X35251Y269063D01*
X34595Y269719D01*
Y270375D01*
X35251Y269063D02*
X36563D01*
X29249Y276122D02*
X28593Y276778D01*
X27281D01*
X26625Y276122D01*
Y273499D01*
X27281Y272843D01*
X28593D01*
X29249Y273499D01*
X30561Y276122D02*
X31217Y276778D01*
X32529D01*
X33185Y276122D01*
Y275466D01*
X32529Y274810D01*
X31873D01*
X32529D01*
X33185Y274154D01*
Y273499D01*
X32529Y272843D01*
X31217D01*
X30561Y273499D01*
X34497Y276778D02*
X37121D01*
Y276122D01*
X34497Y273499D01*
Y272843D01*
X101577Y314221D02*
X100921Y313565D01*
Y312253D01*
X101577Y311597D01*
X104201D01*
X104857Y312253D01*
Y313565D01*
X104201Y314221D01*
X101577Y315532D02*
X100921Y316189D01*
Y317500D01*
X101577Y318156D01*
X102233D01*
X102889Y317500D01*
Y316844D01*
Y317500D01*
X103545Y318156D01*
X104201D01*
X104857Y317500D01*
Y316189D01*
X104201Y315532D01*
X100921Y322092D02*
X101577Y320780D01*
X102889Y319468D01*
X104201D01*
X104857Y320124D01*
Y321436D01*
X104201Y322092D01*
X103545D01*
X102889Y321436D01*
Y319468D01*
X90758Y352377D02*
X90102Y351721D01*
Y350410D01*
X90758Y349753D01*
X93382D01*
X94038Y350410D01*
Y351721D01*
X93382Y352377D01*
X90758Y353689D02*
X90102Y354345D01*
Y355657D01*
X90758Y356313D01*
X91414D01*
X92070Y355657D01*
Y355001D01*
Y355657D01*
X92726Y356313D01*
X93382D01*
X94038Y355657D01*
Y354345D01*
X93382Y353689D01*
X90102Y360249D02*
Y357625D01*
X92070D01*
X91414Y358937D01*
Y359593D01*
X92070Y360249D01*
X93382D01*
X94038Y359593D01*
Y358281D01*
X93382Y357625D01*
X101048Y272134D02*
X100392Y271478D01*
Y270166D01*
X101048Y269510D01*
X103672D01*
X104328Y270166D01*
Y271478D01*
X103672Y272134D01*
X101048Y273446D02*
X100392Y274102D01*
Y275414D01*
X101048Y276070D01*
X101704D01*
X102360Y275414D01*
Y274758D01*
Y275414D01*
X103016Y276070D01*
X103672D01*
X104328Y275414D01*
Y274102D01*
X103672Y273446D01*
X104328Y279350D02*
X100392D01*
X102360Y277382D01*
Y280006D01*
X101170Y355754D02*
X100514Y356410D01*
X99202D01*
X98546Y355754D01*
Y353130D01*
X99202Y352474D01*
X100514D01*
X101170Y353130D01*
X102481Y355754D02*
X103137Y356410D01*
X104449D01*
X105105Y355754D01*
Y355098D01*
X104449Y354442D01*
X103793D01*
X104449D01*
X105105Y353786D01*
Y353130D01*
X104449Y352474D01*
X103137D01*
X102481Y353130D01*
X106417Y355754D02*
X107073Y356410D01*
X108385D01*
X109041Y355754D01*
Y355098D01*
X108385Y354442D01*
X107729D01*
X108385D01*
X109041Y353786D01*
Y353130D01*
X108385Y352474D01*
X107073D01*
X106417Y353130D01*
X480059Y357446D02*
X479403Y358102D01*
X478091D01*
X477435Y357446D01*
Y354822D01*
X478091Y354166D01*
X479403D01*
X480059Y354822D01*
X481371Y357446D02*
X482027Y358102D01*
X483339D01*
X483995Y357446D01*
Y356790D01*
X483339Y356134D01*
X482683D01*
X483339D01*
X483995Y355478D01*
Y354822D01*
X483339Y354166D01*
X482027D01*
X481371Y354822D01*
X487931Y354166D02*
X485307D01*
X487931Y356790D01*
Y357446D01*
X487275Y358102D01*
X485963D01*
X485307Y357446D01*
X505703Y357544D02*
X505048Y358200D01*
X503736D01*
X503080Y357544D01*
Y354921D01*
X503736Y354265D01*
X505048D01*
X505703Y354921D01*
X507015Y357544D02*
X507671Y358200D01*
X508983D01*
X509639Y357544D01*
Y356888D01*
X508983Y356232D01*
X508327D01*
X508983D01*
X509639Y355576D01*
Y354921D01*
X508983Y354265D01*
X507671D01*
X507015Y354921D01*
X510951Y354265D02*
X512263D01*
X511607D01*
Y358200D01*
X510951Y357544D01*
X469866Y268407D02*
X469210Y269062D01*
X467899D01*
X467242Y268407D01*
Y265783D01*
X467899Y265127D01*
X469210D01*
X469866Y265783D01*
X471178Y268407D02*
X471834Y269062D01*
X473146D01*
X473802Y268407D01*
Y267751D01*
X473146Y267095D01*
X472490D01*
X473146D01*
X473802Y266439D01*
Y265783D01*
X473146Y265127D01*
X471834D01*
X471178Y265783D01*
X475114Y268407D02*
X475770Y269062D01*
X477082D01*
X477738Y268407D01*
Y265783D01*
X477082Y265127D01*
X475770D01*
X475114Y265783D01*
Y268407D01*
X469866Y274351D02*
X469210Y275007D01*
X467899D01*
X467242Y274351D01*
Y271727D01*
X467899Y271071D01*
X469210D01*
X469866Y271727D01*
X473802Y271071D02*
X471178D01*
X473802Y273695D01*
Y274351D01*
X473146Y275007D01*
X471834D01*
X471178Y274351D01*
X475114Y271727D02*
X475770Y271071D01*
X477082D01*
X477738Y271727D01*
Y274351D01*
X477082Y275007D01*
X475770D01*
X475114Y274351D01*
Y273695D01*
X475770Y273039D01*
X477738D01*
X530989Y314140D02*
X530333Y313484D01*
Y312173D01*
X530989Y311516D01*
X533612D01*
X534269Y312173D01*
Y313484D01*
X533612Y314140D01*
X534269Y318076D02*
Y315452D01*
X531645Y318076D01*
X530989D01*
X530333Y317420D01*
Y316108D01*
X530989Y315452D01*
Y319388D02*
X530333Y320044D01*
Y321356D01*
X530989Y322012D01*
X531645D01*
X532301Y321356D01*
X532957Y322012D01*
X533612D01*
X534269Y321356D01*
Y320044D01*
X533612Y319388D01*
X532957D01*
X532301Y320044D01*
X531645Y319388D01*
X530989D01*
X532301Y320044D02*
Y321356D01*
X515905Y321114D02*
X515249Y321770D01*
X513937D01*
X513281Y321114D01*
Y318490D01*
X513937Y317834D01*
X515249D01*
X515905Y318490D01*
X519841Y317834D02*
X517217D01*
X519841Y320458D01*
Y321114D01*
X519185Y321770D01*
X517873D01*
X517217Y321114D01*
X521153Y321770D02*
X523776D01*
Y321114D01*
X521153Y318490D01*
Y317834D01*
X530674Y272113D02*
X530018Y271457D01*
Y270145D01*
X530674Y269489D01*
X533298D01*
X533954Y270145D01*
Y271457D01*
X533298Y272113D01*
X533954Y276048D02*
Y273425D01*
X531330Y276048D01*
X530674D01*
X530018Y275393D01*
Y274081D01*
X530674Y273425D01*
X530018Y279984D02*
X530674Y278672D01*
X531986Y277361D01*
X533298D01*
X533954Y278016D01*
Y279328D01*
X533298Y279984D01*
X532642D01*
X531986Y279328D01*
Y277361D01*
X530467Y356857D02*
X529811Y356201D01*
Y354889D01*
X530467Y354233D01*
X533090D01*
X533746Y354889D01*
Y356201D01*
X533090Y356857D01*
X533746Y360793D02*
Y358169D01*
X531123Y360793D01*
X530467D01*
X529811Y360137D01*
Y358825D01*
X530467Y358169D01*
X529811Y364728D02*
Y362105D01*
X531779D01*
X531123Y363417D01*
Y364072D01*
X531779Y364728D01*
X533090D01*
X533746Y364072D01*
Y362760D01*
X533090Y362105D01*
X338261Y357741D02*
X337605Y358397D01*
X336293D01*
X335637Y357741D01*
Y355117D01*
X336293Y354461D01*
X337605D01*
X338261Y355117D01*
X342197Y354461D02*
X339573D01*
X342197Y357085D01*
Y357741D01*
X341541Y358397D01*
X340229D01*
X339573Y357741D01*
X345476Y354461D02*
Y358397D01*
X343509Y356429D01*
X346132D01*
X362861Y357741D02*
X362205Y358397D01*
X360893D01*
X360237Y357741D01*
Y355117D01*
X360893Y354461D01*
X362205D01*
X362861Y355117D01*
X366797Y354461D02*
X364173D01*
X366797Y357085D01*
Y357741D01*
X366141Y358397D01*
X364829D01*
X364173Y357741D01*
X368109D02*
X368764Y358397D01*
X370076D01*
X370732Y357741D01*
Y357085D01*
X370076Y356429D01*
X369420D01*
X370076D01*
X370732Y355773D01*
Y355117D01*
X370076Y354461D01*
X368764D01*
X368109Y355117D01*
X329249Y270277D02*
X328593Y270933D01*
X327281D01*
X326625Y270277D01*
Y267653D01*
X327281Y266997D01*
X328593D01*
X329249Y267653D01*
X333185Y266997D02*
X330561D01*
X333185Y269621D01*
Y270277D01*
X332529Y270933D01*
X331217D01*
X330561Y270277D01*
X337121Y266997D02*
X334497D01*
X337121Y269621D01*
Y270277D01*
X336465Y270933D01*
X335153D01*
X334497Y270277D01*
X329741Y276122D02*
X329085Y276778D01*
X327773D01*
X327117Y276122D01*
Y273499D01*
X327773Y272843D01*
X329085D01*
X329741Y273499D01*
X333677Y272843D02*
X331053D01*
X333677Y275466D01*
Y276122D01*
X333021Y276778D01*
X331709D01*
X331053Y276122D01*
X334989Y272843D02*
X336301D01*
X335645D01*
Y276778D01*
X334989Y276122D01*
X400969Y314559D02*
X400313Y313902D01*
Y312591D01*
X400969Y311935D01*
X403593D01*
X404249Y312591D01*
Y313902D01*
X403593Y314559D01*
X404249Y318494D02*
Y315870D01*
X401625Y318494D01*
X400969D01*
X400313Y317838D01*
Y316526D01*
X400969Y315870D01*
Y319806D02*
X400313Y320462D01*
Y321774D01*
X400969Y322430D01*
X403593D01*
X404249Y321774D01*
Y320462D01*
X403593Y319806D01*
X400969D01*
X390656Y352873D02*
X390001Y352217D01*
Y350905D01*
X390656Y350249D01*
X393280D01*
X393936Y350905D01*
Y352217D01*
X393280Y352873D01*
X393936Y354185D02*
Y355497D01*
Y354840D01*
X390001D01*
X390656Y354185D01*
X393280Y357464D02*
X393936Y358120D01*
Y359432D01*
X393280Y360088D01*
X390656D01*
X390001Y359432D01*
Y358120D01*
X390656Y357464D01*
X391312D01*
X391968Y358120D01*
Y360088D01*
X401245Y272629D02*
X400589Y271973D01*
Y270661D01*
X401245Y270005D01*
X403868D01*
X404524Y270661D01*
Y271973D01*
X403868Y272629D01*
X404524Y273941D02*
Y275253D01*
Y274597D01*
X400589D01*
X401245Y273941D01*
Y277221D02*
X400589Y277877D01*
Y279189D01*
X401245Y279845D01*
X401901D01*
X402557Y279189D01*
X403212Y279845D01*
X403868D01*
X404524Y279189D01*
Y277877D01*
X403868Y277221D01*
X403212D01*
X402557Y277877D01*
X401901Y277221D01*
X401245D01*
X402557Y277877D02*
Y279189D01*
X402157Y356541D02*
X401501Y357197D01*
X400189D01*
X399533Y356541D01*
Y353917D01*
X400189Y353261D01*
X401501D01*
X402157Y353917D01*
X403469Y353261D02*
X404781D01*
X404125D01*
Y357197D01*
X403469Y356541D01*
X406749Y357197D02*
X409372D01*
Y356541D01*
X406749Y353917D01*
Y353261D01*
X778150Y358726D02*
X777494Y359381D01*
X776182D01*
X775526Y358726D01*
Y356102D01*
X776182Y355446D01*
X777494D01*
X778150Y356102D01*
X779462Y355446D02*
X780774D01*
X780118D01*
Y359381D01*
X779462Y358726D01*
X785365Y359381D02*
X784053Y358726D01*
X782741Y357414D01*
Y356102D01*
X783397Y355446D01*
X784709D01*
X785365Y356102D01*
Y356758D01*
X784709Y357414D01*
X782741D01*
X802259Y357840D02*
X801603Y358496D01*
X800291D01*
X799635Y357840D01*
Y355216D01*
X800291Y354560D01*
X801603D01*
X802259Y355216D01*
X803571Y354560D02*
X804883D01*
X804227D01*
Y358496D01*
X803571Y357840D01*
X809475Y358496D02*
X806851D01*
Y356528D01*
X808163Y357184D01*
X808819D01*
X809475Y356528D01*
Y355216D01*
X808819Y354560D01*
X807507D01*
X806851Y355216D01*
X768252Y270670D02*
X767596Y271326D01*
X766284D01*
X765628Y270670D01*
Y268046D01*
X766284Y267390D01*
X767596D01*
X768252Y268046D01*
X769564Y267390D02*
X770876D01*
X770220D01*
Y271326D01*
X769564Y270670D01*
X774812Y267390D02*
Y271326D01*
X772844Y269358D01*
X775468D01*
X768252Y276614D02*
X767596Y277270D01*
X766284D01*
X765628Y276614D01*
Y273991D01*
X766284Y273335D01*
X767596D01*
X768252Y273991D01*
X769564Y273335D02*
X770876D01*
X770220D01*
Y277270D01*
X769564Y276614D01*
X772844D02*
X773500Y277270D01*
X774812D01*
X775468Y276614D01*
Y275958D01*
X774812Y275303D01*
X774156D01*
X774812D01*
X775468Y274647D01*
Y273991D01*
X774812Y273335D01*
X773500D01*
X772844Y273991D01*
X828627Y314993D02*
X827971Y314337D01*
Y313025D01*
X828627Y312369D01*
X831250D01*
X831906Y313025D01*
Y314337D01*
X831250Y314993D01*
X831906Y316305D02*
Y317617D01*
Y316961D01*
X827971D01*
X828627Y316305D01*
X831906Y322209D02*
Y319585D01*
X829282Y322209D01*
X828627D01*
X827971Y321553D01*
Y320241D01*
X828627Y319585D01*
X813995Y321312D02*
X813340Y321968D01*
X812028D01*
X811372Y321312D01*
Y318688D01*
X812028Y318032D01*
X813340D01*
X813995Y318688D01*
X815307Y318032D02*
X816619D01*
X815963D01*
Y321968D01*
X815307Y321312D01*
X818587Y318032D02*
X819899D01*
X819243D01*
Y321968D01*
X818587Y321312D01*
X828312Y272670D02*
X827656Y272014D01*
Y270702D01*
X828312Y270046D01*
X830935D01*
X831591Y270702D01*
Y272014D01*
X830935Y272670D01*
X831591Y273982D02*
Y275294D01*
Y274638D01*
X827656D01*
X828312Y273982D01*
Y277262D02*
X827656Y277918D01*
Y279230D01*
X828312Y279886D01*
X830935D01*
X831591Y279230D01*
Y277918D01*
X830935Y277262D01*
X828312D01*
X828892Y356332D02*
X828236Y355676D01*
Y354364D01*
X828892Y353708D01*
X831516D01*
X832172Y354364D01*
Y355676D01*
X831516Y356332D01*
Y357644D02*
X832172Y358300D01*
Y359612D01*
X831516Y360267D01*
X828892D01*
X828236Y359612D01*
Y358300D01*
X828892Y357644D01*
X829548D01*
X830204Y358300D01*
Y360267D01*
X636837Y357938D02*
X636181Y358594D01*
X634869D01*
X634213Y357938D01*
Y355314D01*
X634869Y354658D01*
X636181D01*
X636837Y355314D01*
X638149Y357938D02*
X638805Y358594D01*
X640117D01*
X640773Y357938D01*
Y357282D01*
X640117Y356626D01*
X640773Y355970D01*
Y355314D01*
X640117Y354658D01*
X638805D01*
X638149Y355314D01*
Y355970D01*
X638805Y356626D01*
X638149Y357282D01*
Y357938D01*
X638805Y356626D02*
X640117D01*
X662718Y357446D02*
X662062Y358102D01*
X660750D01*
X660094Y357446D01*
Y354822D01*
X660750Y354166D01*
X662062D01*
X662718Y354822D01*
X664030Y358102D02*
X666654D01*
Y357446D01*
X664030Y354822D01*
Y354166D01*
X628024Y276122D02*
X627368Y276778D01*
X626056D01*
X625400Y276122D01*
Y273499D01*
X626056Y272843D01*
X627368D01*
X628024Y273499D01*
X631960Y276778D02*
X630648Y276122D01*
X629336Y274810D01*
Y273499D01*
X629992Y272843D01*
X631304D01*
X631960Y273499D01*
Y274154D01*
X631304Y274810D01*
X629336D01*
X628024Y270277D02*
X627368Y270933D01*
X626056D01*
X625400Y270277D01*
Y267653D01*
X626056Y266997D01*
X627368D01*
X628024Y267653D01*
X631960Y270933D02*
X629336D01*
Y268965D01*
X630648Y269621D01*
X631304D01*
X631960Y268965D01*
Y267653D01*
X631304Y266997D01*
X629992D01*
X629336Y267653D01*
X698804Y317666D02*
X698148Y317010D01*
Y315698D01*
X698804Y315042D01*
X701428D01*
X702083Y315698D01*
Y317010D01*
X701428Y317666D01*
X702083Y320945D02*
X698148D01*
X700116Y318977D01*
Y321601D01*
X687891Y353321D02*
X687235Y352665D01*
Y351353D01*
X687891Y350697D01*
X690515D01*
X691171Y351353D01*
Y352665D01*
X690515Y353321D01*
X687891Y354633D02*
X687235Y355289D01*
Y356600D01*
X687891Y357256D01*
X688547D01*
X689203Y356600D01*
Y355944D01*
Y356600D01*
X689859Y357256D01*
X690515D01*
X691171Y356600D01*
Y355289D01*
X690515Y354633D01*
X698193Y274752D02*
X697538Y274096D01*
Y272784D01*
X698193Y272128D01*
X700817D01*
X701473Y272784D01*
Y274096D01*
X700817Y274752D01*
X701473Y278688D02*
Y276064D01*
X698849Y278688D01*
X698193D01*
X697538Y278032D01*
Y276720D01*
X698193Y276064D01*
X700343Y356443D02*
X699687Y357099D01*
X698375D01*
X697719Y356443D01*
Y353819D01*
X698375Y353163D01*
X699687D01*
X700343Y353819D01*
X701655Y353163D02*
X702967D01*
X702311D01*
Y357099D01*
X701655Y356443D01*
D13*
X64893Y215910D02*
X63581Y217222D01*
X60958D01*
X59646Y215910D01*
Y210662D01*
X60958Y209350D01*
X63581D01*
X64893Y210662D01*
Y213286D01*
X62270D01*
X67517Y209350D02*
Y217222D01*
X72765Y209350D01*
Y217222D01*
X75389D02*
Y209350D01*
X79324D01*
X80636Y210662D01*
Y215910D01*
X79324Y217222D01*
X75389D01*
X76673Y237626D02*
X78528Y239482D01*
X77601Y238554D01*
X72035Y244120D01*
X72035Y242265D01*
X85022Y245975D02*
X81312Y242265D01*
Y249686D01*
X80384Y250614D01*
X78528D01*
X76673Y248758D01*
X76673Y246903D01*
X81312Y253397D02*
X85022Y249686D01*
X88733D01*
Y253397D01*
X85022Y257107D01*
X777559Y215351D02*
Y223223D01*
X781495D01*
X782807Y221911D01*
Y219287D01*
X781495Y217975D01*
X777559D01*
X786742Y215351D02*
X789366D01*
X790678Y216663D01*
Y219287D01*
X789366Y220599D01*
X786742D01*
X785430Y219287D01*
Y216663D01*
X786742Y215351D01*
X793302Y220599D02*
Y216663D01*
X794614Y215351D01*
X795926Y216663D01*
X797238Y215351D01*
X798550Y216663D01*
Y220599D01*
X805109Y215351D02*
X802485D01*
X801173Y216663D01*
Y219287D01*
X802485Y220599D01*
X805109D01*
X806421Y219287D01*
Y217975D01*
X801173D01*
X809045Y220599D02*
Y215351D01*
Y217975D01*
X810357Y219287D01*
X811669Y220599D01*
X812981D01*
X824788Y223223D02*
Y215351D01*
X828724D01*
X830036Y216663D01*
Y217975D01*
X828724Y219287D01*
X824788D01*
X828724D01*
X830036Y220599D01*
Y221911D01*
X828724Y223223D01*
X824788D01*
X833971Y215351D02*
X836595D01*
X837907Y216663D01*
Y219287D01*
X836595Y220599D01*
X833971D01*
X832659Y219287D01*
Y216663D01*
X833971Y215351D01*
X841843Y220599D02*
X844467D01*
X845778Y219287D01*
Y215351D01*
X841843D01*
X840531Y216663D01*
X841843Y217975D01*
X845778D01*
X848402Y220599D02*
Y215351D01*
Y217975D01*
X849714Y219287D01*
X851026Y220599D01*
X852338D01*
X861522Y223223D02*
Y215351D01*
X857586D01*
X856274Y216663D01*
Y219287D01*
X857586Y220599D01*
X861522D01*
X777559Y201181D02*
Y209053D01*
X781495D01*
X782807Y207741D01*
Y205117D01*
X781495Y203805D01*
X777559D01*
X780183D02*
X782807Y201181D01*
X790678Y209053D02*
X785430D01*
Y201181D01*
X790678D01*
X785430Y205117D02*
X788054D01*
X793302Y209053D02*
Y203805D01*
X795926Y201181D01*
X798550Y203805D01*
Y209053D01*
X809045Y207741D02*
X810357Y209053D01*
X812981D01*
X814293Y207741D01*
Y202493D01*
X812981Y201181D01*
X810357D01*
X809045Y202493D01*
Y207741D01*
X90933Y242265D02*
X90933Y244120D01*
X92788Y245975D01*
X94643Y245975D01*
X95571Y245048D01*
Y243192D01*
X94643Y242265D01*
X95571Y243192D01*
X97426Y243192D01*
X98354Y242265D01*
Y240409D01*
X96499Y238554D01*
X94643D01*
X95571Y248758D02*
X99282Y245048D01*
X102992D01*
Y248758D01*
X99282Y252469D01*
X102065Y253397D02*
Y255252D01*
X103920Y257107D01*
X105775Y257107D01*
X106703Y256180D01*
Y254324D01*
X105775Y253397D01*
X106703Y254324D01*
X108558Y254324D01*
X109486Y253397D01*
Y251541D01*
X107631Y249686D01*
X105775D01*
X55920Y246903D02*
X52210Y243192D01*
X54993Y240409D01*
X55920Y243192D01*
X56848Y244120D01*
X58703D01*
X60559Y242265D01*
Y240409D01*
X58703Y238554D01*
X56848D01*
X57776Y248758D02*
X61486Y245048D01*
X65197D01*
Y248758D01*
X61486Y252469D01*
D14*
X160265Y485001D02*
X156985Y488281D01*
X150426D01*
X147146Y485001D01*
Y471882D01*
X150426Y468602D01*
X156985D01*
X160265Y471882D01*
X745571Y468602D02*
Y481721D01*
X752130Y488281D01*
X758690Y481721D01*
Y468602D01*
Y478442D01*
X745571D01*
X446358Y488281D02*
Y468602D01*
X456198D01*
X459477Y471882D01*
Y475162D01*
X456198Y478442D01*
X446358D01*
X456198D01*
X459477Y481721D01*
Y485001D01*
X456198Y488281D01*
X446358D01*
X159547Y123124D02*
Y103445D01*
X169387D01*
X172666Y106725D01*
Y119844D01*
X169387Y123124D01*
X159547D01*
X192345Y119844D02*
X189065Y123124D01*
X182506D01*
X179226Y119844D01*
Y106725D01*
X182506Y103445D01*
X189065D01*
X192345Y106725D01*
X198905Y113284D02*
X212024D01*
X694980Y123124D02*
Y103445D01*
X704820D01*
X708099Y106725D01*
Y119844D01*
X704820Y123124D01*
X694980D01*
X727778Y119844D02*
X724498Y123124D01*
X717939D01*
X714659Y119844D01*
Y106725D01*
X717939Y103445D01*
X724498D01*
X727778Y106725D01*
X734338Y113284D02*
X747457D01*
X740897Y119844D02*
Y106725D01*
D15*
X806692Y9053D02*
X804724D01*
X805708D01*
Y4134D01*
X804724Y3150D01*
X803740D01*
X802756Y4134D01*
X809643Y7085D02*
X811611D01*
X812595Y6101D01*
Y3150D01*
X809643D01*
X808659Y4134D01*
X809643Y5117D01*
X812595D01*
X814563Y7085D02*
Y3150D01*
Y5117D01*
X815547Y6101D01*
X816531Y7085D01*
X817515D01*
X821451Y3150D02*
X823419D01*
X824402Y4134D01*
Y6101D01*
X823419Y7085D01*
X821451D01*
X820467Y6101D01*
Y4134D01*
X821451Y3150D01*
X830306Y9053D02*
Y3150D01*
X827354D01*
X826370Y4134D01*
Y6101D01*
X827354Y7085D01*
X830306D01*
X838177Y9053D02*
Y3150D01*
Y5117D01*
X842113Y9053D01*
X839161Y6101D01*
X842113Y3150D01*
X844081Y7085D02*
Y3150D01*
Y5117D01*
X845065Y6101D01*
X846049Y7085D01*
X847033D01*
X850969D02*
X852936D01*
X853920Y6101D01*
Y3150D01*
X850969D01*
X849985Y4134D01*
X850969Y5117D01*
X853920D01*
X855888Y3150D02*
Y7085D01*
X858840D01*
X859824Y6101D01*
Y3150D01*
X864744D02*
X862776D01*
X861792Y4134D01*
Y6101D01*
X862776Y7085D01*
X864744D01*
X865728Y6101D01*
Y5117D01*
X861792D01*
M02*
