M48
;Layer_Color=9474304
;FILE_FORMAT=2:5
INCH,LZ
;TYPE=PLATED
T1F00S00C0.01575
T2F00S00C0.01968
T3F00S00C0.02362
T4F00S00C0.03937
;TYPE=NON_PLATED
T5F00S00C0.03740
T6F00S00C0.04331
T7F00S00C0.04528
T8F00S00C0.05512
T10F00S00C0.21654
%
T01
X0722835Y0207283
X0607382Y013002
Y0123671
Y0117323
Y0110974
Y0104626
Y0098277
Y0091929
Y0085581
Y0079232
Y0072884
Y0066535
X0602608Y006971
Y0076058
Y0082407
Y0088755
Y0095103
Y0101452
Y01078
Y0114149
Y0120497
Y0126845
X0597835Y013002
Y0123671
Y0117323
Y0110974
Y0104626
Y0098277
Y0091929
Y0085581
Y0079232
Y0072884
Y0066535
X0452756Y0065551
Y00719
Y0078248
Y0084596
Y0090945
X0447982Y0087771
Y0081422
Y0075074
Y0068725
X0443209Y0065551
Y00719
Y0078248
Y0084596
Y0090945
X0493405Y0207283
X0049902Y0268307
X0042465Y0282622
X003726Y0328488
X004941Y0356594
X0052993
X0056575
X0092067Y0327575
X0056083Y0268307
X0117461Y0251437
X0184941Y027313
X0184256Y0282622
X0191693Y0268728
X0197874
X0198366Y0356594
X0194783
X0191201
X0279134Y0354331
X0298735Y0358679
X0349371Y0356594
X0352953
X0356536
X0337221Y0328488
X0342426Y0282622
X0349863Y0268405
X0356044
X0342323Y0247047
X0313543Y0282027
X0283542Y0268483
X0251378Y0250886
X0247342Y025374
X0239075Y0254429
X0238484Y0237795
X0215286Y0221683
X0213386Y0212894
X0223563Y0282617
X0392284Y0327575
X041752Y0260925
X046752Y0272835
X0491595Y0268728
X0497776
X0502949Y0275378
X0498268Y0356594
X0494686
X0491103
X0523563Y0282404
X0639613Y0282622
X0647051Y0268996
X0634409Y0328488
X0646559Y0356594
X0650141
X0653724
X0689555Y0327575
X0714948Y0242815
X0722835Y0237106
X0714948Y0211319
X0795259Y0268728
X0800492Y0275378
X0781641Y0282622
X0821106Y0282491
X0795751Y0356594
X0792169
X0788586
X0847004Y0484488
X0828582Y0402446
X078416
X0719737Y0431493
X0685981Y0484488
X0675315Y0431493
X0529369Y0402446
X0547791Y0484488
X0484947Y0402446
X0420524Y0431493
X0376102
X0386768Y0484488
X0248579
X0230118Y0402446
X0321949Y0367127
X0185695Y0402446
X0121273Y0431493
X007685
X0087555Y0484488
Y0529134
Y057378
X009685Y0606776
X0141273
X0165695Y0635823
X0210118
X0248579Y057378
Y0529134
X0386768
Y057378
X0396102Y0606776
X0440524
X0464947Y0635823
X0509369
X0547791Y057378
Y0529134
X0685981
Y057378
X0695315Y0606776
X0739737
X076416Y0635823
X0808582
X0847004Y057378
Y0529134
T02
X0051279Y0236417
X0070177
Y0222244
X0089075Y0236417
T03
X0139665Y0366339
X0439882
X0737153
X0743059Y0370571
X0445788
X0145571
T04
X0848622Y0378937
X085689
X0864764
X0860827Y0386811
X0852559
X0848622Y0394685
X085689
X0864764
X0860827Y0402559
X0852559
X0848622Y0410433
X085689
X0864764
X0890551Y0406693
X0898425
X0894488Y0398819
X0886614
X0890551Y0390945
X0898425
X0894488Y0383071
X0886614
Y0454724
X0894488
X0890551Y0462598
X0898425
X0894488Y0470472
X0886614
X0890551Y0478346
X0898425
X0894488Y048622
X0886614
X0890551Y0494094
X0898425
X0894488Y0501968
X0886614
X0890551Y0509842
X0898425
X0894488Y0517717
X0886614
X0795276Y0511811
X0787402
X0791339Y0519685
X0783465
Y0503937
X0791339
X0795276Y0496063
X0787402
X0791339Y0488189
X0783465
X0775591
X0767717
X0759843
X0751969
X0744095
X0736221
X0728347
X0720473
X0712599
X0716536Y0496063
X0720473Y0503937
X0712599
X0716536Y0511811
X0720473Y0519685
X0712599
X0716536Y0480315
X072441
X0732284
X0740158
X0748032
X0755906
X076378
X0771654
X0779528
X0787402
X0795276
X0791339Y0472441
X0783465
X0775591
X0767717
X0759843
X0751969
X0744095
X0736221
X0728347
X0720473
X072441Y0464567
X0732284
X0740158
X0748032
X0755906
X076378
X0771654
X0779528
X0787402
X0795276
X0791339Y0456693
X0783465
X0775591
X0767717
X0759843
X0751969
X0744095
X0736221
X0661418Y0448819
X0653544
X064567
X0637796
X0629922
X0622048
X0625985Y0456693
X0633859
X0629922Y0464567
X0622048
X0625985Y0472441
X0633859
X0629922Y0480315
X0622048
X0625985Y0488189
X0633859
X0629922Y0496063
X0622048
X0625985Y0503937
X0633859
X0637796Y0496063
X0629922Y0511811
X0622048
X0625985Y0519685
X0633859
X0598032Y0516929
X0590158
X0594095Y0509055
X0601968
X0598032Y0501181
X0590158
X0594095Y0493307
X0601968
X0598032Y0485433
X0590158
X0594095Y0477559
X0601968
X0598032Y0469685
X0590158
X0594095Y0461811
X0601968
X0598032Y0453937
X0590158
X0625985Y0440945
X0633859
X0641733
X0649607
X0657481
X0653544Y0433071
X064567
X0637796
X0629922
X0622048
X0625985Y0425197
X0633859
X0641733
X0565551Y0410433
X0557677
X0549409
X0553346Y0402559
X0561614
X0565551Y0394685
X0557677
X0549409
X0553346Y0386811
X0561614
X0557677Y0378937
X0565551
X0549409
X0492126Y0456693
X0484252
X0476378
X0468504
X046063
X0452756
X0444882
X0437008
X0440945Y0464567
X0448819
X0456693
X0464567
X0472441
X0480315
X0488189
X0496063
X0492126Y0472441
X0484252
X0476378
X0468504
X046063
X0452756
X0444882
X0437008
X0429134
X042126
X0425197Y0480315
X0433071
X0440945
X0448819
X0456693
X0464567
X0472441
X0480315
X0488189
X0496063
X0492126Y0488189
X0484252
X0476378
X0468504
X046063
X0452756
X0444882
X0437008
X0429134
X042126
X0413386
X0417323Y0496063
X042126Y0503937
X0413386
X0417323Y0511811
X042126Y0519685
X0413386
X0417323Y0480315
X0425197Y0464567
X0433071
X0488189Y0496063
X0496063
X0492126Y0503937
X0484252
X0488189Y0511811
X0496063
X0492126Y0519685
X0484252
X0334646
X0326772
X0322835Y0511811
X0330709
X0326772Y0503937
X0334646
X0330709Y0496063
X0322835
X0326772Y0488189
X0334646
X0330709Y0480315
X0322835
X0326772Y0472441
X0334646
X0330709Y0464567
X0322835
X0326772Y0456693
X0334646
X0338583Y0448819
X0330709
X0322835
X0326772Y0440945
X0334646
X034252
X0350394
X0358268
X0354331Y0448819
X0362205
X0346457
Y0433071
X0338583
X0330709
X0322835
X0326772Y0425197
X0334646
X034252
X0354331Y0433071
X0297638Y0454724
X0289764
X0293701Y0462598
X0301575
X0297638Y0470472
X0289764
X0293701Y0478346
X0301575
X0297638Y048622
X0289764
X0293701Y0494094
X0301575
X0297638Y0501968
X0289764
X0293701Y0509842
X0301575
X0297638Y0517717
X0289764
X0338583Y0496063
X0266339Y0410433
X0258465
X0250197
X0254134Y0402559
X0262402
X0258465Y0394685
X0266339
X0262402Y0386811
X0254134
X0250197Y0394685
Y0378937
X0258465
X0266339
X0192914Y0456693
X0185039
X0177165
X0169291
X0161417
X0153543
X0145669
X0137795
X0141732Y0464567
X0149606
X0157481
X0165355
X0173229
X0181103
X0188977
X0196851
X0192914Y0472441
X0185039
X0177165
X0169291
X0161417
X0153543
X0145669
X0137795
X0129921
X0122047
X0125984Y0480315
X0133858
X0141732
X0149606
X0157481
X0165355
X0173229
X0181103
X0188977
X0196851
X0192914Y0488189
X0185039
X0177165
X0169291
X0161417
X0153543
X0145669
X0137795
X0129921
X0122047
X0114173
X011811Y0496063
X0122047Y0503937
X0114173
X011811Y0511811
X0122047Y0519685
X0114173
X011811Y0480315
X0125984Y0464567
X0133858
X0062992Y0448819
X0055118
X0059055Y0440945
X0055118Y0433071
X0188977Y0496063
X0196851
X0192914Y0503937
X0185039
X0188977Y0511811
X0196851
X0192914Y0519685
X0185039
X0035433
X0027559
X0019685
X0011811
X0007874Y0511811
X0015748
X0023622
X0031496
X0035433Y0503937
X0027559
X0019685
X0011811
X0015748Y0496063
X0023622
X0031496
X003937
X0035433Y0488189
X0027559
X0019685
X0011811
X0007874Y0480315
X0015748
X0023622
X0031496
X0027559Y0472441
X0019685
X0011811
X0015748Y0464567
X0023622
X0031496
X0027559Y0456693
X0019685
X0011811
X0007874Y0448819
X0015748
X0023622
X0031496
X003937
X0047244
X0051181Y0440945
X0043307
X0035433
X0027559
X0019685
X0011811
X0007874Y0433071
X0015748
X0023622
X0031496
X003937
X0047244
X0043307Y0425197
X0035433
X0027559
X0019685
X0011811
X0007874Y0464567
Y0496063
X0035433Y0472441
Y0456693
X0031496Y0527559
X0023622
X0015748
X0007874
X0011811Y0535433
X0019685
X0027559
X0035433
X0031496Y0543307
X0023622
X0015748
X0007874
X0011811Y0551182
X0019685
X0027559
X0035433
X0031496Y0559056
X0023622
X0015748
X0007874
X0011811Y0566929
X0019685
X0027559
X0035433
X0031496Y0574803
X0023622
X0015748
X0007874
X0011811Y0582678
X0019685
X0027559
X0035433
X003937Y0590552
X0047244
X0051181Y0598426
X0043307
X0035433
X0027559
X0019685
X0011811
X0007874Y0590552
X0015748
X0023622
X0031496
Y06063
X003937
X0047244
X0043307Y0614174
X0035433
X0027559
X0019685
X0011811
X0007874Y0622048
X0015748
X0023622
X0031496
X003937
X0047244
X0051181Y0614174
Y0629922
X0043307
X0035433
X0027559
X0019685
X0011811
X0007874Y06063
X0015748
X0023622
X003937Y0637796
X0047244
X0043307Y064567
X0051181
X0047244Y0653544
X003937
X0043307Y0661418
X0051181
X0035433
X0059055
X0066929
X0074803
X0082677
X0090551
X0106299
X0114173
X0122047
X0129921
X0137795
X0145669
X0153543Y0582678
X0161417
X0169291
X0177165
X0185039
X0192914
X0196851Y0574803
X0188977
X0181103
X0173229
X0165355
X0157481
X0149606
X0141732
X0133858
X0125984
X011811
X0122047Y0566929
X0129921
X0137795
X0145669
X0153543
X0161417
X0169291
X0177165
X0185039
X0192914
X0196851Y0559056
X0188977
X0181103
X0173229
X0165355
X0157481
X0149606
X0141732
X0133858
X0125984
X011811
X0122047Y0551182
X0129921
X0137795
X0145669
X0153543
X0161417
X0169291
X0177165
X0185039
X0192914
X0196851Y0543307
X0188977
X0192914Y0535433
X0185039
X0188977Y0527559
X0196851
X011811
X0122047Y0535433
X0114173
X011811Y0543307
X0114173Y0551182
Y0566929
X0062992Y0590552
X0055118
X0059055Y0598426
X0055118Y06063
X0062992
X0059055Y0614174
X0066929
X0062992Y0622048
X0055118
X0059055Y0629922
X0055118Y0637796
X0062992
X0059055Y064567
X0062992Y0653544
X0055118
X0249311Y0653543
X0257185
X0265453
X0273327
X026939Y0661417
X0261122
X0253248
Y0645669
X0261122
X026939
X0265453Y0637795
X0273327
X026939Y0629921
X0261122
X0253248
X0249311Y0637795
X0257185
Y0622047
X0265453
X0273327
X026939Y0614173
X0261122
X0257185Y0606299
X0265453
X0273327
X026939Y0598425
X0261122
X0257185Y0590551
X0265453
X0273327
X0293701Y0588583
X0301575
X0297638Y0596457
X0289764
X0293701Y0604331
X0301575
X0297638Y0612205
X0289764
X0293701Y0620079
X0301575
X0297638Y0627953
X0289764
X0293701Y0635827
X0301575
X0297638Y0643701
X0289764
X0293701Y0651575
X0301575
X0322835Y0653544
X0330709
X0338583
X0346457
X0354331
X0362205
X0358268Y0661418
X0366142
X0350394
X034252
X0334646
X0326772
Y064567
X0334646
X034252
X0350394
X0358268
X0354331Y0637796
X0346457
X0338583
X0330709
X0322835
X0326772Y0629922
X0334646
X034252
X0350394
X0358268
X0354331Y0622048
X0346457
X0338583
X0330709
X0322835
X0326772Y0614174
X0334646
X034252
X0350394
X0358268
X0366142
X0362205Y06063
X0354331
X0346457
X0338583
X0330709
X0322835
X0326772Y0598426
X0334646
X034252
X0350394
X0358268
X0362205Y0590552
X0354331
X0346457
X0338583
X0330709
X0322835
X0326772Y0582678
X0334646
X0330709Y0574803
X0322835
X0326772Y0566929
X0334646
X0330709Y0559056
X0322835
X0326772Y0551182
X0334646
X0330709Y0543307
X0322835
X0326772Y0535433
X0334646
X0330709Y0527559
X0322835
X0301575Y0525591
X0293701
X0289764Y0533464
X0297638
X0301575Y0541339
X0293701
X0289764Y0549213
X0297638
X0293701Y0557087
X0301575
X0297638Y0564961
X0289764
X0293701Y0572835
X0301575
X0297638Y0580709
X0289764
X0362205Y0622048
Y0637796
X0374016Y0661418
X038189
X0389764
X0405512
X0413386
X042126
X0429134
X0437008
X0444882
X0452756Y0582678
X046063
X0468504
X0476378
X0484252
X0492126
X0496063Y0574803
X0488189
X0480315
X0472441
X0464567
X0456693
X0448819
X0440945
X0433071
X0425197
X0417323
X042126Y0566929
X0429134
X0437008
X0444882
X0452756
X046063
X0468504
X0476378
X0484252
X0492126
X0496063Y0559056
X0488189
X0480315
X0472441
X0464567
X0456693
X0448819
X0440945
X0433071
X0425197
X0417323
X042126Y0551182
X0429134
X0437008
X0444882
X0452756
X046063
X0468504
X0476378
X0484252
X0492126
X0496063Y0543307
X0488189
X0492126Y0535433
X0484252
X0488189Y0527559
X0496063
X0417323
X042126Y0535433
X0413386
X0417323Y0543307
X0413386Y0551182
Y0566929
X0556398Y0590551
X0564665
X0572539
X0568602Y0598425
X0560335
X0556398Y0606299
X0564665
X0572539
X0568602Y0614173
X0560335
X0556398Y0622047
X0564665
X0572539
X0568602Y0629921
X0560335
X0552461
X0556398Y0637795
X0548524
X0552461Y0645669
X0560335
X0568602
X0572539Y0637795
X0564665
Y0653543
X0572539
X0568602Y0661417
X0560335
X0552461
X0556398Y0653543
X0548524
X0594095Y0651575
X0601968
X0598032Y0643701
X0590158
X0594095Y0635827
X0601968
X0598032Y0627953
X0590158
X0594095Y0619291
X0601968
X0598032Y0611417
X0590158
X0594095Y0603543
X0601968
X0598032Y0595669
X0590158
X0594095Y0587795
X0601968
X0598032Y0579921
X0590158
X0594095Y0572047
X0601968
X0598032Y0564173
X0590158
X0594095Y0556299
X0601968
X0598032Y0548425
X0590158
X0594095Y0540551
X0601968
X0598032Y0532677
X0590158
X0594095Y0524803
X0601968
X0622048Y0527559
X0629922
X0625985Y0535433
X0633859
X0629922Y0543307
X0622048
X0625985Y0551182
X0633859
X0629922Y0559056
X0622048
X0625985Y0566929
X0633859
X0629922Y0574803
X0622048
X0625985Y0582678
X0633859
X0629922Y0590552
X0622048
X0625985Y0598426
X0633859
X0641733
X0649607
X0657481
X0653544Y06063
X0661418
X0665355Y0614174
X0657481
X0649607
X0641733
X0633859
X0625985
X0622048Y0622048
X0629922
X0637796
X064567
X0653544
X0661418
X0657481Y0629922
X0649607
X0641733
X0633859
X0625985
X0622048Y0637796
X0629922
X0637796
X064567
X0653544
X0661418
X0657481Y064567
X0649607
X0641733
X0633859
X0625985
X0629922Y0653544
X0622048
X0625985Y0661418
X0633859
X0641733
X0649607
X0657481
X0665355
X0673229
X0661418Y0653544
X0653544
X064567
X0637796
Y06063
X064567
Y0590552
X0653544
X0661418
X0637796
X0629922Y06063
X0622048
X0681103Y0661418
X0688977
X0704725
X0712599
X0720473
X0728347
X0736221
X0740158Y0574803
X0748032
X0755906
X076378
X0771654
X0779528
X0787402
X0795276
X0791339Y0582678
X0783465
X0775591
X0767717
X0759843
X0751969
Y0566929
X0759843
X0767717
X0775591
X0783465
X0791339
X0795276Y0559056
X0787402
X0779528
X0771654
X076378
X0755906
X0748032
X0740158
X0732284
X072441
X0716536
X0720473Y0566929
X0728347
X0736221
X0744095
Y0551182
X0751969
X0759843
X0767717
X0775591
X0783465
X0791339
X0795276Y0543307
X0787402
X0791339Y0535433
X0783465
X0787402Y0527559
X0795276
X0716536
X0720473Y0535433
X0712599
X0716536Y0543307
X0720473Y0551182
X0728347
X0736221
X0712599
Y0566929
X0716536Y0574803
X072441
X0732284
X085561Y0590551
X0863878
X0871752
X0867815Y0598425
X0859547
X085561Y0606299
X0863878
X0871752
X0867815Y0614173
X0859547
X085561Y0622047
X0863878
X0871752
X0867815Y0629921
X0859547
X0851673
X085561Y0637795
X0847736
X0851673Y0645669
X0859547
X085561Y0653543
X0847736
X0851673Y0661417
X0859547
X0867815
X0863878Y0653543
Y0637795
X0890551Y0620079
X0898425
X0894488Y0612205
X0886614
X0890551Y0604331
X0898425
X0894488Y0596457
X0886614
X0890551Y0588583
X0898425
X0894488Y0580709
X0886614
X0890551Y0572835
X0898425
X0894488Y0564961
X0886614
X0890551Y0557087
X0898425
X0894488Y0549213
X0886614
X0890551Y0541338
X0898425
X0894488Y0533464
X0886614
X0890551Y0525591
X0898425
T05
X0382638Y0218347
X0392638
Y0228346
X0382638
X0402638
X0412638
Y0218347
X0402638
X0422638
X0432638
X0442638
X0452638
X0462638
X0472638
X0482638
X0492638
X0502638
X0512638
Y0228346
X0502638
X0492638
X0482638
X0472638
X0462638
X0452638
X0442638
X0432638
X0422638
X0522638
Y0218347
T06
X0885827Y0344331
Y0354331
T07
X0117461Y0285086
Y0295086
Y0325086
Y0335086
Y0345086
X024752
Y0335086
Y0325086
Y0295086
Y0285086
X0417677
Y0295086
Y0325086
Y0335086
Y0345086
X0547422
Y0335086
Y0325086
Y0295086
Y0285086
X0714948
Y0295086
Y0325086
Y0335086
Y0345086
X0845299
Y0335086
Y0325086
Y0295086
Y0285086
T08
X0074016Y0019685
X0114173
X0256201
X0296358
X0374048
X0414206
X0491896
X0532054
X0609744
X0649902
X0791634
X0831791
Y0167323
X0791634
X0649902
X0609744
X0532054
X0491896
X0414206
X0374048
X0296358
X0256201
X0114173
X0074016
T10
X0019685Y0019685
X0885827
X0019685Y0216535
X0885827
X0019685Y0649606
X0885827
M30
