G04*
G04 #@! TF.GenerationSoftware,Altium Limited,Altium Designer,18.1.11 (251)*
G04*
G04 Layer_Physical_Order=2*
G04 Layer_Color=36540*
%FSLAX25Y25*%
%MOIN*%
G70*
G01*
G75*
%ADD15C,0.01181*%
%ADD45C,0.05512*%
%ADD46C,0.13386*%
%ADD49C,0.07874*%
%ADD50R,0.11811X0.11811*%
%ADD53C,0.02756*%
%ADD55C,0.01000*%
G36*
X600365Y659317D02*
X598941Y658885D01*
X598032Y658399D01*
X597122Y658885D01*
X595638Y659335D01*
X594095Y659487D01*
X592551Y659335D01*
X591067Y658885D01*
X589699Y658153D01*
X588500Y657169D01*
X587516Y655971D01*
X586785Y654603D01*
X586334Y653118D01*
X586182Y651575D01*
X586282Y650558D01*
X585762Y650280D01*
X584563Y649296D01*
X583579Y648097D01*
X582848Y646729D01*
X582397Y645244D01*
X582245Y643701D01*
X582397Y642157D01*
X582848Y640673D01*
X583579Y639305D01*
X584563Y638106D01*
X585762Y637122D01*
X586282Y636844D01*
X586182Y635827D01*
X586282Y634810D01*
X585762Y634531D01*
X584563Y633547D01*
X583579Y632348D01*
X582848Y630981D01*
X582397Y629496D01*
X582245Y627953D01*
X582397Y626409D01*
X582848Y624925D01*
X583579Y623557D01*
X584563Y622358D01*
X585762Y621374D01*
X586395Y621035D01*
X586334Y620835D01*
X586182Y619291D01*
X586282Y618274D01*
X585762Y617996D01*
X584563Y617012D01*
X583579Y615813D01*
X582848Y614445D01*
X582397Y612961D01*
X582245Y611417D01*
X582397Y609874D01*
X582848Y608390D01*
X583579Y607022D01*
X584563Y605823D01*
X585762Y604839D01*
X586282Y604560D01*
X586182Y603543D01*
X586282Y602526D01*
X585762Y602248D01*
X584563Y601264D01*
X583579Y600065D01*
X582848Y598697D01*
X582397Y597213D01*
X582245Y595669D01*
X582397Y594126D01*
X582848Y592641D01*
X583579Y591273D01*
X584563Y590075D01*
X585762Y589091D01*
X586282Y588812D01*
X586182Y587795D01*
X586282Y586778D01*
X585762Y586500D01*
X584563Y585516D01*
X583579Y584317D01*
X582848Y582949D01*
X582397Y581465D01*
X582245Y579921D01*
X582397Y578378D01*
X582848Y576893D01*
X583579Y575526D01*
X584563Y574327D01*
X585762Y573343D01*
X586282Y573064D01*
X586182Y572047D01*
X586282Y571030D01*
X585762Y570752D01*
X584563Y569768D01*
X583579Y568569D01*
X582848Y567201D01*
X582397Y565717D01*
X582245Y564173D01*
X582397Y562630D01*
X582848Y561145D01*
X583579Y559777D01*
X584563Y558578D01*
X585762Y557594D01*
X586282Y557316D01*
X586182Y556299D01*
X586282Y555282D01*
X585762Y555004D01*
X584563Y554020D01*
X583579Y552821D01*
X582848Y551453D01*
X582397Y549969D01*
X582245Y548425D01*
X582397Y546882D01*
X582848Y545397D01*
X583579Y544029D01*
X584563Y542831D01*
X585762Y541847D01*
X586282Y541568D01*
X586182Y540551D01*
X586282Y539534D01*
X585762Y539256D01*
X584563Y538272D01*
X583579Y537073D01*
X582848Y535705D01*
X582397Y534221D01*
X582245Y532677D01*
X582397Y531134D01*
X582848Y529649D01*
X583579Y528281D01*
X584563Y527082D01*
X585762Y526098D01*
X586282Y525820D01*
X586182Y524803D01*
X586282Y523786D01*
X585762Y523508D01*
X584563Y522524D01*
X583579Y521325D01*
X582848Y519957D01*
X582397Y518473D01*
X582245Y516929D01*
X582397Y515385D01*
X582848Y513901D01*
X583579Y512533D01*
X584563Y511334D01*
X585762Y510350D01*
X586282Y510072D01*
X586182Y509055D01*
X586282Y508038D01*
X585762Y507760D01*
X584563Y506776D01*
X583579Y505577D01*
X582848Y504209D01*
X582397Y502725D01*
X582245Y501181D01*
X582397Y499638D01*
X582848Y498153D01*
X583579Y496785D01*
X584563Y495586D01*
X585762Y494602D01*
X586282Y494324D01*
X586182Y493307D01*
X586282Y492290D01*
X585762Y492012D01*
X584563Y491028D01*
X583579Y489829D01*
X582848Y488461D01*
X582397Y486977D01*
X582245Y485433D01*
X582397Y483889D01*
X582848Y482405D01*
X583579Y481037D01*
X584563Y479838D01*
X585762Y478854D01*
X586282Y478576D01*
X586182Y477559D01*
X586282Y476542D01*
X585762Y476264D01*
X584563Y475280D01*
X583579Y474081D01*
X582848Y472713D01*
X582397Y471229D01*
X582245Y469685D01*
X582397Y468141D01*
X582848Y466657D01*
X583579Y465289D01*
X584563Y464090D01*
X585762Y463106D01*
X586282Y462828D01*
X586182Y461811D01*
X586282Y460794D01*
X585762Y460516D01*
X584563Y459532D01*
X583579Y458333D01*
X582848Y456965D01*
X582397Y455480D01*
X582245Y453937D01*
X582397Y452393D01*
X582848Y450909D01*
X583579Y449541D01*
X584563Y448342D01*
X585762Y447358D01*
X587130Y446627D01*
X588614Y446177D01*
X590158Y446025D01*
X591701Y446177D01*
X593185Y446627D01*
X594095Y447113D01*
X595004Y446627D01*
X596488Y446177D01*
X598032Y446025D01*
X599575Y446177D01*
X599964Y446295D01*
X600365Y445997D01*
Y354331D01*
X458690D01*
Y428139D01*
X459023Y428496D01*
X536811Y428543D01*
Y609547D01*
X458690D01*
Y667323D01*
X600365D01*
Y659317D01*
D02*
G37*
G36*
X301152Y659445D02*
X300031Y659335D01*
X298547Y658885D01*
X297638Y658399D01*
X296729Y658885D01*
X295244Y659335D01*
X293701Y659487D01*
X292157Y659335D01*
X290673Y658885D01*
X289305Y658153D01*
X288106Y657169D01*
X287122Y655971D01*
X286391Y654603D01*
X285941Y653118D01*
X285789Y651575D01*
X285889Y650558D01*
X285368Y650280D01*
X284169Y649296D01*
X283185Y648097D01*
X282454Y646729D01*
X282004Y645244D01*
X281852Y643701D01*
X282004Y642157D01*
X282454Y640673D01*
X283185Y639305D01*
X284169Y638106D01*
X285368Y637122D01*
X285889Y636844D01*
X285789Y635827D01*
X285889Y634810D01*
X285368Y634531D01*
X284169Y633547D01*
X283185Y632348D01*
X282454Y630981D01*
X282004Y629496D01*
X281852Y627953D01*
X282004Y626409D01*
X282454Y624925D01*
X283185Y623557D01*
X284169Y622358D01*
X285368Y621374D01*
X285889Y621096D01*
X285789Y620079D01*
X285889Y619062D01*
X285368Y618783D01*
X284169Y617799D01*
X283185Y616601D01*
X282454Y615233D01*
X282004Y613748D01*
X281852Y612205D01*
X282004Y610661D01*
X282454Y609177D01*
X283185Y607809D01*
X284169Y606610D01*
X285368Y605626D01*
X285889Y605348D01*
X285789Y604331D01*
X285889Y603314D01*
X285368Y603035D01*
X284169Y602051D01*
X283185Y600852D01*
X282454Y599484D01*
X282004Y598000D01*
X281852Y596457D01*
X282004Y594913D01*
X282454Y593429D01*
X283185Y592061D01*
X284169Y590862D01*
X285368Y589878D01*
X285889Y589600D01*
X285789Y588583D01*
X285889Y587566D01*
X285368Y587287D01*
X284169Y586303D01*
X283185Y585104D01*
X282454Y583737D01*
X282004Y582252D01*
X281852Y580709D01*
X282004Y579165D01*
X282454Y577681D01*
X283185Y576313D01*
X284169Y575114D01*
X285368Y574130D01*
X285889Y573852D01*
X285789Y572835D01*
X285889Y571818D01*
X285368Y571539D01*
X284169Y570555D01*
X283185Y569356D01*
X282454Y567988D01*
X282004Y566504D01*
X281852Y564961D01*
X282004Y563417D01*
X282454Y561933D01*
X283185Y560565D01*
X284169Y559366D01*
X285368Y558382D01*
X285889Y558104D01*
X285789Y557087D01*
X285889Y556070D01*
X285368Y555791D01*
X284169Y554807D01*
X283185Y553608D01*
X282454Y552240D01*
X282004Y550756D01*
X281852Y549213D01*
X282004Y547669D01*
X282454Y546185D01*
X283185Y544817D01*
X284169Y543618D01*
X285368Y542634D01*
X285889Y542355D01*
X285789Y541339D01*
X285889Y540322D01*
X285368Y540043D01*
X284169Y539059D01*
X283185Y537860D01*
X282454Y536492D01*
X282004Y535008D01*
X281852Y533464D01*
X282004Y531921D01*
X282454Y530437D01*
X283185Y529069D01*
X284169Y527870D01*
X285368Y526886D01*
X285889Y526608D01*
X285789Y525591D01*
X285889Y524574D01*
X285368Y524295D01*
X284169Y523311D01*
X283185Y522112D01*
X282454Y520744D01*
X282004Y519260D01*
X281852Y517717D01*
X282004Y516173D01*
X282454Y514689D01*
X283185Y513321D01*
X284169Y512122D01*
X285368Y511138D01*
X285889Y510859D01*
X285789Y509842D01*
X285889Y508825D01*
X285368Y508547D01*
X284169Y507563D01*
X283185Y506364D01*
X282454Y504996D01*
X282004Y503512D01*
X281852Y501968D01*
X282004Y500425D01*
X282454Y498941D01*
X283185Y497573D01*
X284169Y496374D01*
X285368Y495390D01*
X285889Y495111D01*
X285789Y494094D01*
X285889Y493078D01*
X285368Y492799D01*
X284169Y491815D01*
X283185Y490616D01*
X282454Y489248D01*
X282004Y487764D01*
X281852Y486220D01*
X282004Y484677D01*
X282454Y483193D01*
X283185Y481825D01*
X284169Y480626D01*
X285368Y479642D01*
X285889Y479363D01*
X285789Y478346D01*
X285889Y477329D01*
X285368Y477051D01*
X284169Y476067D01*
X283185Y474868D01*
X282454Y473500D01*
X282004Y472016D01*
X281852Y470472D01*
X282004Y468929D01*
X282454Y467445D01*
X283185Y466077D01*
X284169Y464878D01*
X285368Y463894D01*
X285889Y463615D01*
X285789Y462598D01*
X285889Y461581D01*
X285368Y461303D01*
X284169Y460319D01*
X283185Y459120D01*
X282454Y457752D01*
X282004Y456268D01*
X281852Y454724D01*
X282004Y453181D01*
X282454Y451696D01*
X283185Y450329D01*
X284169Y449130D01*
X285368Y448146D01*
X286736Y447414D01*
X288220Y446964D01*
X289764Y446812D01*
X291307Y446964D01*
X292792Y447414D01*
X293701Y447900D01*
X294610Y447414D01*
X296094Y446964D01*
X297638Y446812D01*
X299181Y446964D01*
X300666Y447414D01*
X300724Y447445D01*
X301152Y447188D01*
X301152Y363880D01*
X300737Y363603D01*
X300122Y363857D01*
X298735Y364040D01*
X297348Y363857D01*
X296055Y363321D01*
X294944Y362470D01*
X294092Y361359D01*
X293557Y360066D01*
X293403Y358897D01*
X281913D01*
X281814Y358973D01*
X280521Y359509D01*
X279134Y359692D01*
X277746Y359509D01*
X276453Y358973D01*
X275343Y358121D01*
X274491Y357011D01*
X273956Y355718D01*
X273773Y354331D01*
X159477D01*
Y428139D01*
X159810Y428496D01*
X237598Y428543D01*
Y609547D01*
X159477D01*
Y667323D01*
X159477Y667323D01*
X301152D01*
Y659445D01*
D02*
G37*
G36*
X887707Y666888D02*
X890200Y666220D01*
X892584Y665233D01*
X894818Y663942D01*
X896866Y662371D01*
X898690Y660547D01*
X900261Y658499D01*
X901552Y656265D01*
X902539Y653881D01*
X903207Y651388D01*
X903543Y648830D01*
X903543Y647539D01*
X903543D01*
X903543Y647539D01*
Y626649D01*
X903091Y626436D01*
X902821Y626657D01*
X901453Y627389D01*
X899969Y627839D01*
X898425Y627991D01*
X896882Y627839D01*
X895397Y627389D01*
X894488Y626903D01*
X893579Y627389D01*
X892095Y627839D01*
X890551Y627991D01*
X889008Y627839D01*
X887523Y627389D01*
X886155Y626657D01*
X884956Y625673D01*
X883972Y624474D01*
X883241Y623107D01*
X882791Y621622D01*
X882639Y620079D01*
X882739Y619062D01*
X882218Y618783D01*
X881019Y617799D01*
X880035Y616601D01*
X879304Y615233D01*
X878854Y613748D01*
X878702Y612205D01*
X878854Y610661D01*
X879304Y609177D01*
X880035Y607809D01*
X881019Y606610D01*
X882218Y605626D01*
X882739Y605348D01*
X882639Y604331D01*
X882739Y603314D01*
X882218Y603035D01*
X881019Y602051D01*
X880035Y600852D01*
X879304Y599484D01*
X878854Y598000D01*
X878702Y596457D01*
X878854Y594913D01*
X879304Y593429D01*
X880035Y592061D01*
X881019Y590862D01*
X882218Y589878D01*
X882739Y589600D01*
X882639Y588583D01*
X882739Y587566D01*
X882218Y587287D01*
X881019Y586303D01*
X880035Y585104D01*
X879304Y583737D01*
X878854Y582252D01*
X878702Y580709D01*
X878854Y579165D01*
X879304Y577681D01*
X880035Y576313D01*
X881019Y575114D01*
X882218Y574130D01*
X882739Y573852D01*
X882639Y572835D01*
X882739Y571818D01*
X882218Y571539D01*
X881019Y570555D01*
X880035Y569356D01*
X879304Y567988D01*
X878854Y566504D01*
X878702Y564961D01*
X878854Y563417D01*
X879304Y561933D01*
X880035Y560565D01*
X881019Y559366D01*
X882218Y558382D01*
X882739Y558104D01*
X882639Y557087D01*
X882739Y556070D01*
X882218Y555791D01*
X881019Y554807D01*
X880035Y553608D01*
X879304Y552240D01*
X878854Y550756D01*
X878702Y549213D01*
X878854Y547669D01*
X879304Y546185D01*
X880035Y544817D01*
X881019Y543618D01*
X882218Y542634D01*
X882739Y542355D01*
X882639Y541338D01*
X882739Y540322D01*
X882218Y540043D01*
X881019Y539059D01*
X880035Y537860D01*
X879304Y536492D01*
X878854Y535008D01*
X878702Y533464D01*
X878854Y531921D01*
X879304Y530437D01*
X880035Y529069D01*
X881019Y527870D01*
X882218Y526886D01*
X882739Y526608D01*
X882639Y525591D01*
X882739Y524574D01*
X882218Y524295D01*
X881019Y523311D01*
X880035Y522112D01*
X879304Y520744D01*
X878854Y519260D01*
X878702Y517717D01*
X878854Y516173D01*
X879304Y514689D01*
X880035Y513321D01*
X881019Y512122D01*
X882218Y511138D01*
X882739Y510859D01*
X882639Y509842D01*
X882739Y508825D01*
X882218Y508547D01*
X881019Y507563D01*
X880035Y506364D01*
X879304Y504996D01*
X878854Y503512D01*
X878702Y501968D01*
X878854Y500425D01*
X879304Y498941D01*
X880035Y497573D01*
X881019Y496374D01*
X882218Y495390D01*
X882739Y495111D01*
X882639Y494094D01*
X882739Y493078D01*
X882218Y492799D01*
X881019Y491815D01*
X880035Y490616D01*
X879304Y489248D01*
X878854Y487764D01*
X878702Y486220D01*
X878854Y484677D01*
X879304Y483193D01*
X880035Y481825D01*
X881019Y480626D01*
X882218Y479642D01*
X882739Y479363D01*
X882639Y478346D01*
X882739Y477329D01*
X882218Y477051D01*
X881019Y476067D01*
X880035Y474868D01*
X879304Y473500D01*
X878854Y472016D01*
X878702Y470472D01*
X878854Y468929D01*
X879304Y467445D01*
X880035Y466077D01*
X881019Y464878D01*
X882218Y463894D01*
X882739Y463615D01*
X882639Y462598D01*
X882739Y461581D01*
X882218Y461303D01*
X881019Y460319D01*
X880035Y459120D01*
X879304Y457752D01*
X878854Y456268D01*
X878702Y454724D01*
X878854Y453181D01*
X879304Y451696D01*
X880035Y450329D01*
X881019Y449130D01*
X882218Y448146D01*
X883586Y447414D01*
X885071Y446964D01*
X886614Y446812D01*
X888158Y446964D01*
X889642Y447414D01*
X890551Y447900D01*
X891460Y447414D01*
X892945Y446964D01*
X894488Y446812D01*
X896032Y446964D01*
X897516Y447414D01*
X898884Y448146D01*
X900083Y449130D01*
X901067Y450329D01*
X901798Y451696D01*
X902248Y453181D01*
X902400Y454724D01*
X902300Y455741D01*
X902821Y456020D01*
X903091Y456242D01*
X903543Y456028D01*
X903543Y413264D01*
X903091Y413050D01*
X902821Y413272D01*
X901453Y414003D01*
X899969Y414453D01*
X898425Y414605D01*
X896882Y414453D01*
X895397Y414003D01*
X894488Y413517D01*
X893579Y414003D01*
X892095Y414453D01*
X890551Y414605D01*
X889008Y414453D01*
X887523Y414003D01*
X886155Y413272D01*
X884956Y412288D01*
X883972Y411089D01*
X883241Y409721D01*
X882791Y408237D01*
X882639Y406693D01*
X882739Y405676D01*
X882218Y405398D01*
X881019Y404414D01*
X880035Y403215D01*
X879304Y401847D01*
X878854Y400362D01*
X878702Y398819D01*
X878854Y397275D01*
X879304Y395791D01*
X880035Y394423D01*
X881019Y393224D01*
X882218Y392240D01*
X882739Y391962D01*
X882639Y390945D01*
X882739Y389928D01*
X882218Y389650D01*
X881019Y388666D01*
X880035Y387467D01*
X879304Y386099D01*
X878854Y384614D01*
X878702Y383071D01*
X878854Y381527D01*
X879304Y380043D01*
X880035Y378675D01*
X881019Y377476D01*
X882218Y376492D01*
X883586Y375761D01*
X885071Y375311D01*
X886614Y375159D01*
X888158Y375311D01*
X889642Y375761D01*
X890551Y376247D01*
X891460Y375761D01*
X892945Y375311D01*
X894488Y375159D01*
X896032Y375311D01*
X897516Y375761D01*
X898884Y376492D01*
X900083Y377476D01*
X901067Y378675D01*
X901798Y380043D01*
X902248Y381527D01*
X902400Y383071D01*
X902300Y384088D01*
X902821Y384366D01*
X903091Y384588D01*
X903543Y384374D01*
X903543Y354331D01*
X892948D01*
X892811Y355720D01*
X892406Y357056D01*
X891748Y358287D01*
X890862Y359366D01*
X889783Y360251D01*
X888552Y360910D01*
X887216Y361315D01*
X885827Y361452D01*
X884438Y361315D01*
X883102Y360910D01*
X881871Y360251D01*
X880791Y359366D01*
X879906Y358287D01*
X879248Y357056D01*
X878843Y355720D01*
X878706Y354331D01*
X757903Y354331D01*
Y428139D01*
X758236Y428496D01*
X836024Y428543D01*
Y609547D01*
X757903D01*
Y667224D01*
X883858Y667224D01*
X885149Y667225D01*
X887707Y666888D01*
D02*
G37*
G36*
X21654Y667323D02*
X153543Y667323D01*
Y609547D01*
X145845D01*
X145063Y610566D01*
X143953Y611418D01*
X142660Y611954D01*
X141273Y612137D01*
X139885Y611954D01*
X138592Y611418D01*
X138374Y611251D01*
X99749D01*
X99531Y611418D01*
X98238Y611954D01*
X96850Y612137D01*
X95463Y611954D01*
X94170Y611418D01*
X93060Y610566D01*
X92278Y609547D01*
X75000D01*
Y436480D01*
X74170Y436136D01*
X73060Y435284D01*
X72208Y434173D01*
X71672Y432881D01*
X71490Y431493D01*
X71672Y430106D01*
X72208Y428813D01*
X73060Y427702D01*
X74170Y426851D01*
X75463Y426315D01*
X76850Y426132D01*
X78238Y426315D01*
X79531Y426851D01*
X79749Y427018D01*
X118374D01*
X118592Y426851D01*
X119885Y426315D01*
X121273Y426132D01*
X122660Y426315D01*
X123953Y426851D01*
X125063Y427702D01*
X125657Y428476D01*
X153190Y428492D01*
X153543Y428139D01*
Y316929D01*
X307087Y316929D01*
X307087Y456936D01*
X307170Y457004D01*
X308154Y458203D01*
X308885Y459571D01*
X309335Y461055D01*
X309487Y462598D01*
X309335Y464142D01*
X308885Y465626D01*
X308154Y466994D01*
X307170Y468193D01*
X307087Y468261D01*
Y472684D01*
X307170Y472752D01*
X308154Y473951D01*
X308885Y475319D01*
X309335Y476803D01*
X309487Y478346D01*
X309335Y479890D01*
X308885Y481374D01*
X308154Y482742D01*
X307170Y483941D01*
X307087Y484009D01*
Y488432D01*
X307170Y488500D01*
X308154Y489699D01*
X308885Y491067D01*
X309335Y492551D01*
X309487Y494094D01*
X309335Y495638D01*
X308885Y497122D01*
X308154Y498490D01*
X307170Y499689D01*
X307087Y499757D01*
Y504180D01*
X307170Y504248D01*
X308154Y505447D01*
X308885Y506815D01*
X309335Y508299D01*
X309487Y509842D01*
X309335Y511386D01*
X308885Y512870D01*
X308154Y514238D01*
X307170Y515437D01*
X307087Y515505D01*
Y519928D01*
X307170Y519996D01*
X308154Y521195D01*
X308885Y522563D01*
X309335Y524047D01*
X309487Y525591D01*
X309335Y527134D01*
X308885Y528618D01*
X308154Y529986D01*
X307170Y531185D01*
X307087Y531253D01*
Y535676D01*
X307170Y535744D01*
X308154Y536943D01*
X308885Y538311D01*
X309335Y539795D01*
X309487Y541339D01*
X309335Y542882D01*
X308885Y544366D01*
X308154Y545734D01*
X307170Y546933D01*
X307087Y547001D01*
Y551424D01*
X307170Y551492D01*
X308154Y552691D01*
X308885Y554059D01*
X309335Y555543D01*
X309487Y557087D01*
X309335Y558630D01*
X308885Y560114D01*
X308154Y561482D01*
X307170Y562681D01*
X307087Y562749D01*
Y567172D01*
X307170Y567240D01*
X308154Y568439D01*
X308885Y569807D01*
X309335Y571291D01*
X309487Y572835D01*
X309335Y574378D01*
X308885Y575863D01*
X308154Y577230D01*
X307170Y578429D01*
X307087Y578497D01*
Y582920D01*
X307170Y582988D01*
X308154Y584187D01*
X308885Y585555D01*
X309335Y587039D01*
X309487Y588583D01*
X309335Y590126D01*
X308885Y591610D01*
X308154Y592978D01*
X307170Y594177D01*
X307087Y594245D01*
Y598668D01*
X307170Y598736D01*
X308154Y599935D01*
X308885Y601303D01*
X309335Y602787D01*
X309487Y604331D01*
X309335Y605874D01*
X308885Y607359D01*
X308154Y608727D01*
X307170Y609925D01*
X307087Y609994D01*
Y614416D01*
X307170Y614484D01*
X308154Y615683D01*
X308885Y617051D01*
X309335Y618535D01*
X309487Y620079D01*
X309335Y621622D01*
X308885Y623107D01*
X308154Y624474D01*
X307170Y625673D01*
X307087Y625741D01*
Y630164D01*
X307170Y630232D01*
X308154Y631431D01*
X308885Y632799D01*
X309335Y634283D01*
X309487Y635827D01*
X309335Y637370D01*
X308885Y638855D01*
X308154Y640223D01*
X307170Y641422D01*
X307087Y641490D01*
Y645912D01*
X307170Y645980D01*
X308154Y647179D01*
X308885Y648547D01*
X309335Y650031D01*
X309487Y651575D01*
X309335Y653118D01*
X308885Y654603D01*
X308154Y655971D01*
X307170Y657169D01*
X307087Y657238D01*
Y667323D01*
X452756D01*
Y609547D01*
X445097D01*
X444315Y610566D01*
X443205Y611418D01*
X441912Y611954D01*
X440524Y612137D01*
X439137Y611954D01*
X437844Y611418D01*
X437626Y611251D01*
X399000D01*
X398782Y611418D01*
X397489Y611954D01*
X396102Y612137D01*
X394714Y611954D01*
X393422Y611418D01*
X392311Y610566D01*
X391529Y609547D01*
X374213D01*
Y436463D01*
X373422Y436136D01*
X372311Y435284D01*
X371459Y434173D01*
X370924Y432881D01*
X370741Y431493D01*
X370924Y430106D01*
X371459Y428813D01*
X372311Y427702D01*
X373422Y426851D01*
X374714Y426315D01*
X376102Y426132D01*
X377489Y426315D01*
X378782Y426851D01*
X379000Y427018D01*
X417626D01*
X417844Y426851D01*
X419137Y426315D01*
X420524Y426132D01*
X421912Y426315D01*
X423205Y426851D01*
X424315Y427702D01*
X424908Y428476D01*
X452402Y428492D01*
X452756Y428139D01*
Y316929D01*
X606299D01*
Y455197D01*
X606364Y455232D01*
X607563Y456216D01*
X608547Y457415D01*
X609278Y458783D01*
X609729Y460267D01*
X609881Y461811D01*
X609729Y463354D01*
X609278Y464839D01*
X608547Y466207D01*
X607563Y467406D01*
X606364Y468390D01*
X606299Y468424D01*
Y470946D01*
X606364Y470980D01*
X607563Y471964D01*
X608547Y473163D01*
X609278Y474531D01*
X609729Y476015D01*
X609881Y477559D01*
X609729Y479103D01*
X609278Y480587D01*
X608547Y481955D01*
X607563Y483154D01*
X606364Y484138D01*
X606299Y484172D01*
Y486694D01*
X606364Y486728D01*
X607563Y487712D01*
X608547Y488911D01*
X609278Y490279D01*
X609729Y491763D01*
X609881Y493307D01*
X609729Y494851D01*
X609278Y496335D01*
X608547Y497703D01*
X607563Y498902D01*
X606364Y499886D01*
X606299Y499921D01*
Y502442D01*
X606364Y502476D01*
X607563Y503460D01*
X608547Y504659D01*
X609278Y506027D01*
X609729Y507512D01*
X609881Y509055D01*
X609729Y510599D01*
X609278Y512083D01*
X608547Y513451D01*
X607563Y514650D01*
X606364Y515634D01*
X606299Y515668D01*
Y518190D01*
X606364Y518224D01*
X607563Y519208D01*
X608547Y520407D01*
X609278Y521775D01*
X609729Y523259D01*
X609881Y524803D01*
X609729Y526347D01*
X609278Y527831D01*
X608547Y529199D01*
X607563Y530398D01*
X606364Y531382D01*
X606299Y531417D01*
Y533938D01*
X606364Y533973D01*
X607563Y534956D01*
X608547Y536155D01*
X609278Y537523D01*
X609729Y539008D01*
X609881Y540551D01*
X609729Y542095D01*
X609278Y543579D01*
X608547Y544947D01*
X607563Y546146D01*
X606364Y547130D01*
X606299Y547165D01*
Y549686D01*
X606364Y549720D01*
X607563Y550704D01*
X608547Y551903D01*
X609278Y553271D01*
X609729Y554756D01*
X609881Y556299D01*
X609729Y557843D01*
X609278Y559327D01*
X608547Y560695D01*
X607563Y561894D01*
X606364Y562878D01*
X606299Y562913D01*
Y565434D01*
X606364Y565469D01*
X607563Y566453D01*
X608547Y567652D01*
X609278Y569019D01*
X609729Y570504D01*
X609881Y572047D01*
X609729Y573591D01*
X609278Y575075D01*
X608547Y576443D01*
X607563Y577642D01*
X606364Y578626D01*
X606299Y578661D01*
Y581182D01*
X606364Y581217D01*
X607563Y582201D01*
X608547Y583399D01*
X609278Y584767D01*
X609729Y586252D01*
X609881Y587795D01*
X609729Y589339D01*
X609278Y590823D01*
X608547Y592191D01*
X607563Y593390D01*
X606364Y594374D01*
X606299Y594409D01*
Y596930D01*
X606364Y596965D01*
X607563Y597949D01*
X608547Y599148D01*
X609278Y600516D01*
X609729Y602000D01*
X609881Y603543D01*
X609729Y605087D01*
X609278Y606571D01*
X608547Y607939D01*
X607563Y609138D01*
X606364Y610122D01*
X606299Y610157D01*
Y612678D01*
X606364Y612713D01*
X607563Y613697D01*
X608547Y614896D01*
X609278Y616263D01*
X609729Y617748D01*
X609881Y619291D01*
X609729Y620835D01*
X609278Y622319D01*
X608547Y623687D01*
X607563Y624886D01*
X606364Y625870D01*
X606299Y625905D01*
Y629213D01*
X606364Y629248D01*
X607563Y630232D01*
X608547Y631431D01*
X609278Y632799D01*
X609729Y634283D01*
X609881Y635827D01*
X609729Y637370D01*
X609278Y638855D01*
X608547Y640223D01*
X607563Y641422D01*
X606364Y642406D01*
X606299Y642440D01*
Y644961D01*
X606364Y644996D01*
X607563Y645980D01*
X608547Y647179D01*
X609278Y648547D01*
X609729Y650031D01*
X609881Y651575D01*
X609729Y653118D01*
X609278Y654603D01*
X608547Y655971D01*
X607563Y657169D01*
X606364Y658153D01*
X606299Y658188D01*
Y667323D01*
X751968D01*
Y609547D01*
X744310D01*
X743528Y610566D01*
X742418Y611418D01*
X741125Y611954D01*
X739737Y612137D01*
X738350Y611954D01*
X737057Y611418D01*
X736839Y611251D01*
X698213D01*
X697995Y611418D01*
X696702Y611954D01*
X695315Y612137D01*
X693927Y611954D01*
X692634Y611418D01*
X691524Y610566D01*
X690742Y609547D01*
X673425D01*
Y436463D01*
X672635Y436136D01*
X671524Y435284D01*
X670672Y434173D01*
X670137Y432881D01*
X669954Y431493D01*
X670137Y430106D01*
X670672Y428813D01*
X671524Y427702D01*
X672635Y426851D01*
X673927Y426315D01*
X675315Y426132D01*
X676702Y426315D01*
X677995Y426851D01*
X678213Y427018D01*
X716839D01*
X717057Y426851D01*
X718350Y426315D01*
X719737Y426132D01*
X721125Y426315D01*
X722418Y426851D01*
X723528Y427702D01*
X724121Y428476D01*
X751615Y428492D01*
X751968Y428139D01*
Y316929D01*
X903543Y316929D01*
X903543Y21654D01*
X903543Y21653D01*
X903543Y20363D01*
X903206Y17805D01*
X902538Y15312D01*
X901551Y12928D01*
X900261Y10694D01*
X898690Y8646D01*
X896865Y6822D01*
X894818Y5251D01*
X892583Y3961D01*
X890199Y2973D01*
X887707Y2305D01*
X885149Y1969D01*
X21654D01*
X21653Y1969D01*
X20363Y1969D01*
X17805Y2305D01*
X15312Y2973D01*
X12928Y3961D01*
X10693Y5251D01*
X8646Y6822D01*
X6821Y8647D01*
X5251Y10694D01*
X3960Y12928D01*
X2973Y15312D01*
X2305Y17805D01*
X1968Y20363D01*
X1969Y21654D01*
X1969Y647167D01*
X1969Y647638D01*
X1969Y647638D01*
X1969Y647638D01*
X1969Y647638D01*
X1968Y648928D01*
X2305Y651486D01*
X2973Y653979D01*
X3960Y656363D01*
X5251Y658598D01*
X6822Y660645D01*
X8646Y662470D01*
X10694Y664041D01*
X12928Y665331D01*
X15312Y666318D01*
X17805Y666986D01*
X20363Y667323D01*
X21654Y667323D01*
D02*
G37*
%LPC*%
G36*
X509369Y641184D02*
X507982Y641002D01*
X506689Y640466D01*
X505579Y639614D01*
X504727Y638504D01*
X504191Y637211D01*
X504008Y635823D01*
X504191Y634436D01*
X504727Y633143D01*
X505579Y632033D01*
X506689Y631181D01*
X507982Y630645D01*
X509369Y630463D01*
X510757Y630645D01*
X512049Y631181D01*
X513160Y632033D01*
X514012Y633143D01*
X514547Y634436D01*
X514730Y635823D01*
X514547Y637211D01*
X514012Y638504D01*
X513160Y639614D01*
X512049Y640466D01*
X510757Y641002D01*
X509369Y641184D01*
D02*
G37*
G36*
X464947D02*
X463559Y641002D01*
X462266Y640466D01*
X461156Y639614D01*
X460304Y638504D01*
X459769Y637211D01*
X459586Y635823D01*
X459769Y634436D01*
X460304Y633143D01*
X461156Y632033D01*
X462266Y631181D01*
X463559Y630645D01*
X464947Y630463D01*
X466334Y630645D01*
X467627Y631181D01*
X468737Y632033D01*
X469589Y633143D01*
X470125Y634436D01*
X470308Y635823D01*
X470125Y637211D01*
X469589Y638504D01*
X468737Y639614D01*
X467627Y640466D01*
X466334Y641002D01*
X464947Y641184D01*
D02*
G37*
G36*
X547791Y579141D02*
X546404Y578958D01*
X545111Y578422D01*
X544001Y577570D01*
X543149Y576460D01*
X542613Y575167D01*
X542431Y573780D01*
X542613Y572392D01*
X543149Y571100D01*
X544001Y569989D01*
X545111Y569137D01*
X546404Y568602D01*
X547791Y568419D01*
X549179Y568602D01*
X550472Y569137D01*
X551582Y569989D01*
X552434Y571100D01*
X552970Y572392D01*
X553152Y573780D01*
X552970Y575167D01*
X552434Y576460D01*
X551582Y577570D01*
X550472Y578422D01*
X549179Y578958D01*
X547791Y579141D01*
D02*
G37*
G36*
Y534495D02*
X546404Y534312D01*
X545111Y533777D01*
X544001Y532925D01*
X543149Y531815D01*
X542613Y530522D01*
X542431Y529134D01*
X542613Y527747D01*
X543149Y526454D01*
X544001Y525344D01*
X545111Y524492D01*
X546404Y523956D01*
X547791Y523773D01*
X549179Y523956D01*
X550472Y524492D01*
X551582Y525344D01*
X552434Y526454D01*
X552970Y527747D01*
X553152Y529134D01*
X552970Y530522D01*
X552434Y531815D01*
X551582Y532925D01*
X550472Y533777D01*
X549179Y534312D01*
X547791Y534495D01*
D02*
G37*
G36*
Y489849D02*
X546404Y489667D01*
X545111Y489131D01*
X544001Y488279D01*
X543149Y487169D01*
X542613Y485876D01*
X542431Y484488D01*
X542613Y483101D01*
X543149Y481808D01*
X544001Y480698D01*
X545111Y479846D01*
X546404Y479310D01*
X547791Y479128D01*
X549179Y479310D01*
X550472Y479846D01*
X551582Y480698D01*
X552434Y481808D01*
X552970Y483101D01*
X553152Y484488D01*
X552970Y485876D01*
X552434Y487169D01*
X551582Y488279D01*
X550472Y489131D01*
X549179Y489667D01*
X547791Y489849D01*
D02*
G37*
G36*
X529369Y407806D02*
X527982Y407624D01*
X526689Y407088D01*
X525578Y406236D01*
X524726Y405126D01*
X524191Y403833D01*
X524008Y402446D01*
X524191Y401058D01*
X524726Y399765D01*
X525578Y398655D01*
X526689Y397803D01*
X527982Y397267D01*
X529369Y397085D01*
X530757Y397267D01*
X532050Y397803D01*
X533160Y398655D01*
X534012Y399765D01*
X534547Y401058D01*
X534730Y402446D01*
X534547Y403833D01*
X534012Y405126D01*
X533160Y406236D01*
X532050Y407088D01*
X530757Y407624D01*
X529369Y407806D01*
D02*
G37*
G36*
X484947D02*
X483559Y407624D01*
X482266Y407088D01*
X481156Y406236D01*
X480304Y405126D01*
X479769Y403833D01*
X479586Y402446D01*
X479769Y401058D01*
X480304Y399765D01*
X481156Y398655D01*
X482266Y397803D01*
X483559Y397267D01*
X484947Y397085D01*
X486334Y397267D01*
X487627Y397803D01*
X488737Y398655D01*
X489589Y399765D01*
X490125Y401058D01*
X490308Y402446D01*
X490125Y403833D01*
X489589Y405126D01*
X488737Y406236D01*
X487627Y407088D01*
X486334Y407624D01*
X484947Y407806D01*
D02*
G37*
G36*
X210118Y641184D02*
X208730Y641002D01*
X207437Y640466D01*
X206327Y639614D01*
X205475Y638504D01*
X204939Y637211D01*
X204757Y635823D01*
X204939Y634436D01*
X205475Y633143D01*
X206327Y632033D01*
X207437Y631181D01*
X208730Y630645D01*
X210118Y630463D01*
X211505Y630645D01*
X212798Y631181D01*
X213908Y632033D01*
X214760Y633143D01*
X215296Y634436D01*
X215478Y635823D01*
X215296Y637211D01*
X214760Y638504D01*
X213908Y639614D01*
X212798Y640466D01*
X211505Y641002D01*
X210118Y641184D01*
D02*
G37*
G36*
X165695D02*
X164308Y641002D01*
X163015Y640466D01*
X161905Y639614D01*
X161053Y638504D01*
X160517Y637211D01*
X160334Y635823D01*
X160517Y634436D01*
X161053Y633143D01*
X161905Y632033D01*
X163015Y631181D01*
X164308Y630645D01*
X165695Y630463D01*
X167083Y630645D01*
X168376Y631181D01*
X169486Y632033D01*
X170338Y633143D01*
X170873Y634436D01*
X171056Y635823D01*
X170873Y637211D01*
X170338Y638504D01*
X169486Y639614D01*
X168376Y640466D01*
X167083Y641002D01*
X165695Y641184D01*
D02*
G37*
G36*
X248579Y579141D02*
X247191Y578958D01*
X245899Y578422D01*
X244788Y577570D01*
X243936Y576460D01*
X243401Y575167D01*
X243218Y573780D01*
X243401Y572392D01*
X243936Y571100D01*
X244788Y569989D01*
X245899Y569137D01*
X247191Y568602D01*
X248579Y568419D01*
X249966Y568602D01*
X251259Y569137D01*
X252370Y569989D01*
X253222Y571100D01*
X253757Y572392D01*
X253940Y573780D01*
X253757Y575167D01*
X253222Y576460D01*
X252370Y577570D01*
X251259Y578422D01*
X249966Y578958D01*
X248579Y579141D01*
D02*
G37*
G36*
Y534495D02*
X247191Y534312D01*
X245899Y533777D01*
X244788Y532925D01*
X243936Y531815D01*
X243401Y530522D01*
X243218Y529134D01*
X243401Y527747D01*
X243936Y526454D01*
X244788Y525344D01*
X245899Y524492D01*
X247191Y523956D01*
X248579Y523773D01*
X249966Y523956D01*
X251259Y524492D01*
X252370Y525344D01*
X253222Y526454D01*
X253757Y527747D01*
X253940Y529134D01*
X253757Y530522D01*
X253222Y531815D01*
X252370Y532925D01*
X251259Y533777D01*
X249966Y534312D01*
X248579Y534495D01*
D02*
G37*
G36*
Y489849D02*
X247191Y489667D01*
X245899Y489131D01*
X244788Y488279D01*
X243936Y487169D01*
X243401Y485876D01*
X243218Y484488D01*
X243401Y483101D01*
X243936Y481808D01*
X244788Y480698D01*
X245899Y479846D01*
X247191Y479310D01*
X248579Y479128D01*
X249966Y479310D01*
X251259Y479846D01*
X252370Y480698D01*
X253222Y481808D01*
X253757Y483101D01*
X253940Y484488D01*
X253757Y485876D01*
X253222Y487169D01*
X252370Y488279D01*
X251259Y489131D01*
X249966Y489667D01*
X248579Y489849D01*
D02*
G37*
G36*
X230118Y407806D02*
X228730Y407624D01*
X227437Y407088D01*
X226327Y406236D01*
X225475Y405126D01*
X224939Y403833D01*
X224757Y402446D01*
X224939Y401058D01*
X225475Y399765D01*
X226327Y398655D01*
X227437Y397803D01*
X228730Y397267D01*
X230118Y397085D01*
X231505Y397267D01*
X232798Y397803D01*
X233908Y398655D01*
X234760Y399765D01*
X235296Y401058D01*
X235478Y402446D01*
X235296Y403833D01*
X234760Y405126D01*
X233908Y406236D01*
X232798Y407088D01*
X231505Y407624D01*
X230118Y407806D01*
D02*
G37*
G36*
X185695D02*
X184308Y407624D01*
X183015Y407088D01*
X181904Y406236D01*
X181052Y405126D01*
X180517Y403833D01*
X180334Y402446D01*
X180517Y401058D01*
X181052Y399765D01*
X181904Y398655D01*
X183015Y397803D01*
X184308Y397267D01*
X185695Y397085D01*
X187083Y397267D01*
X188376Y397803D01*
X189486Y398655D01*
X190338Y399765D01*
X190873Y401058D01*
X191056Y402446D01*
X190873Y403833D01*
X190338Y405126D01*
X189486Y406236D01*
X188376Y407088D01*
X187083Y407624D01*
X185695Y407806D01*
D02*
G37*
G36*
X885827Y664416D02*
X883510Y664233D01*
X881250Y663691D01*
X879103Y662802D01*
X877122Y661587D01*
X875355Y660078D01*
X873846Y658311D01*
X872631Y656330D01*
X871742Y654183D01*
X871200Y651923D01*
X871017Y649606D01*
X871200Y647290D01*
X871742Y645030D01*
X872631Y642883D01*
X873846Y640902D01*
X875355Y639135D01*
X877122Y637625D01*
X879103Y636411D01*
X881250Y635522D01*
X883510Y634979D01*
X885827Y634797D01*
X888144Y634979D01*
X890403Y635522D01*
X892550Y636411D01*
X894532Y637625D01*
X896299Y639135D01*
X897808Y640902D01*
X899022Y642883D01*
X899911Y645030D01*
X900454Y647290D01*
X900636Y649606D01*
X900454Y651923D01*
X899911Y654183D01*
X899022Y656330D01*
X897808Y658311D01*
X896299Y660078D01*
X894532Y661587D01*
X892550Y662802D01*
X890403Y663691D01*
X888144Y664233D01*
X885827Y664416D01*
D02*
G37*
G36*
X808582Y641184D02*
X807195Y641002D01*
X805902Y640466D01*
X804791Y639614D01*
X803940Y638504D01*
X803404Y637211D01*
X803221Y635823D01*
X803404Y634436D01*
X803940Y633143D01*
X804791Y632033D01*
X805902Y631181D01*
X807195Y630645D01*
X808582Y630463D01*
X809970Y630645D01*
X811263Y631181D01*
X812373Y632033D01*
X813225Y633143D01*
X813760Y634436D01*
X813943Y635823D01*
X813760Y637211D01*
X813225Y638504D01*
X812373Y639614D01*
X811263Y640466D01*
X809970Y641002D01*
X808582Y641184D01*
D02*
G37*
G36*
X764160D02*
X762772Y641002D01*
X761479Y640466D01*
X760369Y639614D01*
X759517Y638504D01*
X758982Y637211D01*
X758799Y635823D01*
X758982Y634436D01*
X759517Y633143D01*
X760369Y632033D01*
X761479Y631181D01*
X762772Y630645D01*
X764160Y630463D01*
X765547Y630645D01*
X766840Y631181D01*
X767950Y632033D01*
X768802Y633143D01*
X769338Y634436D01*
X769521Y635823D01*
X769338Y637211D01*
X768802Y638504D01*
X767950Y639614D01*
X766840Y640466D01*
X765547Y641002D01*
X764160Y641184D01*
D02*
G37*
G36*
X847004Y579141D02*
X845617Y578958D01*
X844324Y578422D01*
X843213Y577570D01*
X842362Y576460D01*
X841826Y575167D01*
X841643Y573780D01*
X841826Y572392D01*
X842362Y571100D01*
X843213Y569989D01*
X844324Y569137D01*
X845617Y568602D01*
X847004Y568419D01*
X848392Y568602D01*
X849685Y569137D01*
X850795Y569989D01*
X851647Y571100D01*
X852182Y572392D01*
X852365Y573780D01*
X852182Y575167D01*
X851647Y576460D01*
X850795Y577570D01*
X849685Y578422D01*
X848392Y578958D01*
X847004Y579141D01*
D02*
G37*
G36*
Y534495D02*
X845617Y534312D01*
X844324Y533777D01*
X843213Y532925D01*
X842362Y531815D01*
X841826Y530522D01*
X841643Y529134D01*
X841826Y527747D01*
X842362Y526454D01*
X843213Y525344D01*
X844324Y524492D01*
X845617Y523956D01*
X847004Y523773D01*
X848392Y523956D01*
X849685Y524492D01*
X850795Y525344D01*
X851647Y526454D01*
X852182Y527747D01*
X852365Y529134D01*
X852182Y530522D01*
X851647Y531815D01*
X850795Y532925D01*
X849685Y533777D01*
X848392Y534312D01*
X847004Y534495D01*
D02*
G37*
G36*
Y489849D02*
X845617Y489667D01*
X844324Y489131D01*
X843213Y488279D01*
X842362Y487169D01*
X841826Y485876D01*
X841643Y484488D01*
X841826Y483101D01*
X842362Y481808D01*
X843213Y480698D01*
X844324Y479846D01*
X845617Y479310D01*
X847004Y479128D01*
X848392Y479310D01*
X849685Y479846D01*
X850795Y480698D01*
X851647Y481808D01*
X852182Y483101D01*
X852365Y484488D01*
X852182Y485876D01*
X851647Y487169D01*
X850795Y488279D01*
X849685Y489131D01*
X848392Y489667D01*
X847004Y489849D01*
D02*
G37*
G36*
X828582Y407806D02*
X827195Y407624D01*
X825902Y407088D01*
X824791Y406236D01*
X823939Y405126D01*
X823404Y403833D01*
X823221Y402446D01*
X823404Y401058D01*
X823939Y399765D01*
X824791Y398655D01*
X825902Y397803D01*
X827195Y397267D01*
X828582Y397085D01*
X829970Y397267D01*
X831262Y397803D01*
X832373Y398655D01*
X833225Y399765D01*
X833760Y401058D01*
X833943Y402446D01*
X833760Y403833D01*
X833225Y405126D01*
X832373Y406236D01*
X831262Y407088D01*
X829970Y407624D01*
X828582Y407806D01*
D02*
G37*
G36*
X784160D02*
X782772Y407624D01*
X781479Y407088D01*
X780369Y406236D01*
X779517Y405126D01*
X778981Y403833D01*
X778799Y402446D01*
X778981Y401058D01*
X779517Y399765D01*
X780369Y398655D01*
X781479Y397803D01*
X782772Y397267D01*
X784160Y397085D01*
X785547Y397267D01*
X786840Y397803D01*
X787950Y398655D01*
X788802Y399765D01*
X789338Y401058D01*
X789521Y402446D01*
X789338Y403833D01*
X788802Y405126D01*
X787950Y406236D01*
X786840Y407088D01*
X785547Y407624D01*
X784160Y407806D01*
D02*
G37*
G36*
X19685Y664416D02*
X17368Y664233D01*
X15109Y663691D01*
X12962Y662802D01*
X10980Y661587D01*
X9213Y660078D01*
X7704Y658311D01*
X6490Y656330D01*
X5600Y654183D01*
X5058Y651923D01*
X4876Y649606D01*
X5058Y647290D01*
X5600Y645030D01*
X6490Y642883D01*
X7704Y640902D01*
X9213Y639135D01*
X10980Y637625D01*
X12962Y636411D01*
X15109Y635522D01*
X17368Y634979D01*
X19685Y634797D01*
X22002Y634979D01*
X24261Y635522D01*
X26408Y636411D01*
X28390Y637625D01*
X30157Y639135D01*
X31666Y640902D01*
X32880Y642883D01*
X33770Y645030D01*
X34312Y647290D01*
X34495Y649606D01*
X34312Y651923D01*
X33770Y654183D01*
X32880Y656330D01*
X31666Y658311D01*
X30157Y660078D01*
X28390Y661587D01*
X26408Y662802D01*
X24261Y663691D01*
X22002Y664233D01*
X19685Y664416D01*
D02*
G37*
G36*
X743059Y376505D02*
X741901Y376391D01*
X740788Y376053D01*
X739762Y375505D01*
X738863Y374767D01*
X738125Y373868D01*
X737576Y372842D01*
X737396Y372249D01*
X737153Y372273D01*
X735995Y372159D01*
X734882Y371821D01*
X733856Y371273D01*
X732957Y370535D01*
X732219Y369635D01*
X731671Y368609D01*
X731333Y367496D01*
X731219Y366339D01*
X731333Y365181D01*
X731671Y364068D01*
X732219Y363042D01*
X732957Y362142D01*
X733856Y361405D01*
X734882Y360856D01*
X735995Y360519D01*
X737153Y360404D01*
X738311Y360519D01*
X739424Y360856D01*
X740450Y361405D01*
X741349Y362142D01*
X742087Y363042D01*
X742635Y364068D01*
X742815Y364661D01*
X743059Y364637D01*
X744216Y364751D01*
X745330Y365089D01*
X746355Y365637D01*
X747255Y366375D01*
X747993Y367274D01*
X748541Y368300D01*
X748879Y369413D01*
X748993Y370571D01*
X748879Y371728D01*
X748541Y372842D01*
X747993Y373868D01*
X747255Y374767D01*
X746355Y375505D01*
X745330Y376053D01*
X744216Y376391D01*
X743059Y376505D01*
D02*
G37*
G36*
X445788D02*
X444630Y376391D01*
X443517Y376053D01*
X442491Y375505D01*
X441592Y374767D01*
X440854Y373868D01*
X440305Y372842D01*
X440125Y372249D01*
X439882Y372273D01*
X438725Y372159D01*
X437611Y371821D01*
X436585Y371273D01*
X435686Y370535D01*
X434948Y369635D01*
X434400Y368609D01*
X434062Y367496D01*
X433948Y366339D01*
X434062Y365181D01*
X434400Y364068D01*
X434948Y363042D01*
X435686Y362142D01*
X436585Y361405D01*
X437611Y360856D01*
X438725Y360519D01*
X439882Y360404D01*
X441040Y360519D01*
X442153Y360856D01*
X443179Y361405D01*
X444078Y362142D01*
X444816Y363042D01*
X445365Y364068D01*
X445544Y364661D01*
X445788Y364637D01*
X446945Y364751D01*
X448059Y365089D01*
X449085Y365637D01*
X449984Y366375D01*
X450722Y367274D01*
X451270Y368300D01*
X451608Y369413D01*
X451722Y370571D01*
X451608Y371728D01*
X451270Y372842D01*
X450722Y373868D01*
X449984Y374767D01*
X449085Y375505D01*
X448059Y376053D01*
X446945Y376391D01*
X445788Y376505D01*
D02*
G37*
G36*
X145571D02*
X144413Y376391D01*
X143300Y376053D01*
X142274Y375505D01*
X141375Y374767D01*
X140637Y373868D01*
X140088Y372842D01*
X139909Y372249D01*
X139665Y372273D01*
X138508Y372159D01*
X137394Y371821D01*
X136369Y371273D01*
X135469Y370535D01*
X134731Y369635D01*
X134183Y368609D01*
X133845Y367496D01*
X133731Y366339D01*
X133845Y365181D01*
X134183Y364068D01*
X134731Y363042D01*
X135469Y362142D01*
X136369Y361405D01*
X137394Y360856D01*
X138508Y360519D01*
X139665Y360404D01*
X140823Y360519D01*
X141936Y360856D01*
X142962Y361405D01*
X143861Y362142D01*
X144599Y363042D01*
X145148Y364068D01*
X145328Y364661D01*
X145571Y364637D01*
X146729Y364751D01*
X147842Y365089D01*
X148868Y365637D01*
X149767Y366375D01*
X150505Y367274D01*
X151053Y368300D01*
X151391Y369413D01*
X151505Y370571D01*
X151391Y371728D01*
X151053Y372842D01*
X150505Y373868D01*
X149767Y374767D01*
X148868Y375505D01*
X147842Y376053D01*
X146729Y376391D01*
X145571Y376505D01*
D02*
G37*
G36*
X321949Y372488D02*
X320561Y372305D01*
X319268Y371769D01*
X318158Y370917D01*
X317306Y369807D01*
X316771Y368514D01*
X316588Y367127D01*
X316771Y365739D01*
X317306Y364446D01*
X318158Y363336D01*
X319268Y362484D01*
X320561Y361949D01*
X321949Y361766D01*
X323336Y361949D01*
X324629Y362484D01*
X325740Y363336D01*
X326591Y364446D01*
X327127Y365739D01*
X327310Y367127D01*
X327127Y368514D01*
X326591Y369807D01*
X325740Y370917D01*
X324629Y371769D01*
X323336Y372305D01*
X321949Y372488D01*
D02*
G37*
G36*
X56575Y361955D02*
X55188Y361773D01*
X54784Y361605D01*
X54380Y361773D01*
X52993Y361955D01*
X51605Y361773D01*
X51201Y361605D01*
X50797Y361773D01*
X49410Y361955D01*
X48022Y361773D01*
X46729Y361237D01*
X45619Y360385D01*
X44767Y359275D01*
X44232Y357982D01*
X44049Y356594D01*
X44232Y355207D01*
X44767Y353914D01*
X45619Y352804D01*
X46729Y351952D01*
X48022Y351416D01*
X49410Y351234D01*
X50797Y351416D01*
X51201Y351584D01*
X51605Y351416D01*
X52993Y351234D01*
X54380Y351416D01*
X54784Y351584D01*
X55188Y351416D01*
X56575Y351234D01*
X57963Y351416D01*
X59256Y351952D01*
X60366Y352804D01*
X61218Y353914D01*
X61753Y355207D01*
X61936Y356594D01*
X61753Y357982D01*
X61218Y359275D01*
X60366Y360385D01*
X59256Y361237D01*
X57963Y361773D01*
X56575Y361955D01*
D02*
G37*
G36*
X653724D02*
X652336Y361773D01*
X651932Y361605D01*
X651529Y361773D01*
X650141Y361955D01*
X648754Y361773D01*
X648350Y361605D01*
X647946Y361773D01*
X646559Y361955D01*
X645171Y361773D01*
X643878Y361237D01*
X642768Y360385D01*
X641916Y359275D01*
X641380Y357982D01*
X641198Y356594D01*
X641380Y355207D01*
X641916Y353914D01*
X642768Y352804D01*
X643878Y351952D01*
X645171Y351416D01*
X646559Y351234D01*
X647946Y351416D01*
X648350Y351584D01*
X648754Y351416D01*
X650141Y351234D01*
X651529Y351416D01*
X651932Y351584D01*
X652336Y351416D01*
X653724Y351234D01*
X655111Y351416D01*
X656404Y351952D01*
X657515Y352804D01*
X658366Y353914D01*
X658902Y355207D01*
X659085Y356594D01*
X658902Y357982D01*
X658366Y359275D01*
X657515Y360385D01*
X656404Y361237D01*
X655111Y361773D01*
X653724Y361955D01*
D02*
G37*
G36*
X356536D02*
X355149Y361773D01*
X354745Y361605D01*
X354341Y361773D01*
X352953Y361955D01*
X351566Y361773D01*
X351162Y361605D01*
X350758Y361773D01*
X349371Y361955D01*
X347983Y361773D01*
X346690Y361237D01*
X345580Y360385D01*
X344728Y359275D01*
X344193Y357982D01*
X344010Y356594D01*
X344193Y355207D01*
X344728Y353914D01*
X345580Y352804D01*
X346690Y351952D01*
X347983Y351416D01*
X349371Y351234D01*
X350758Y351416D01*
X351162Y351584D01*
X351566Y351416D01*
X352953Y351234D01*
X354341Y351416D01*
X354745Y351584D01*
X355149Y351416D01*
X356536Y351234D01*
X357924Y351416D01*
X359216Y351952D01*
X360327Y352804D01*
X361179Y353914D01*
X361714Y355207D01*
X361897Y356594D01*
X361714Y357982D01*
X361179Y359275D01*
X360327Y360385D01*
X359216Y361237D01*
X357924Y361773D01*
X356536Y361955D01*
D02*
G37*
G36*
X634409Y333849D02*
X633021Y333666D01*
X631728Y333131D01*
X630618Y332279D01*
X629766Y331169D01*
X629230Y329876D01*
X629048Y328488D01*
X629230Y327101D01*
X629766Y325808D01*
X630618Y324697D01*
X631728Y323846D01*
X633021Y323310D01*
X634409Y323127D01*
X635796Y323310D01*
X637089Y323846D01*
X638199Y324697D01*
X639051Y325808D01*
X639587Y327101D01*
X639769Y328488D01*
X639587Y329876D01*
X639051Y331169D01*
X638199Y332279D01*
X637089Y333131D01*
X635796Y333666D01*
X634409Y333849D01*
D02*
G37*
G36*
X337221D02*
X335833Y333666D01*
X334540Y333131D01*
X333430Y332279D01*
X332578Y331169D01*
X332043Y329876D01*
X331860Y328488D01*
X332043Y327101D01*
X332578Y325808D01*
X333430Y324697D01*
X334540Y323846D01*
X335833Y323310D01*
X337221Y323127D01*
X338608Y323310D01*
X339901Y323846D01*
X341011Y324697D01*
X341863Y325808D01*
X342399Y327101D01*
X342582Y328488D01*
X342399Y329876D01*
X341863Y331169D01*
X341011Y332279D01*
X339901Y333131D01*
X338608Y333666D01*
X337221Y333849D01*
D02*
G37*
G36*
X37260D02*
X35873Y333666D01*
X34580Y333131D01*
X33469Y332279D01*
X32617Y331169D01*
X32082Y329876D01*
X31899Y328488D01*
X32082Y327101D01*
X32617Y325808D01*
X33469Y324697D01*
X34580Y323846D01*
X35873Y323310D01*
X37260Y323127D01*
X38647Y323310D01*
X39940Y323846D01*
X41051Y324697D01*
X41903Y325808D01*
X42438Y327101D01*
X42621Y328488D01*
X42438Y329876D01*
X41903Y331169D01*
X41051Y332279D01*
X39940Y333131D01*
X38647Y333666D01*
X37260Y333849D01*
D02*
G37*
G36*
X689555Y332936D02*
X688167Y332753D01*
X686874Y332217D01*
X685764Y331365D01*
X684912Y330255D01*
X684377Y328962D01*
X684194Y327575D01*
X684377Y326187D01*
X684912Y324894D01*
X685764Y323784D01*
X686874Y322932D01*
X688167Y322397D01*
X689555Y322214D01*
X690942Y322397D01*
X692235Y322932D01*
X693345Y323784D01*
X694197Y324894D01*
X694733Y326187D01*
X694916Y327575D01*
X694733Y328962D01*
X694197Y330255D01*
X693345Y331365D01*
X692235Y332217D01*
X690942Y332753D01*
X689555Y332936D01*
D02*
G37*
G36*
X392284D02*
X390896Y332753D01*
X389603Y332217D01*
X388493Y331365D01*
X387641Y330255D01*
X387106Y328962D01*
X386923Y327575D01*
X387106Y326187D01*
X387641Y324894D01*
X388493Y323784D01*
X389603Y322932D01*
X390896Y322397D01*
X392284Y322214D01*
X393671Y322397D01*
X394964Y322932D01*
X396075Y323784D01*
X396926Y324894D01*
X397462Y326187D01*
X397645Y327575D01*
X397462Y328962D01*
X396926Y330255D01*
X396075Y331365D01*
X394964Y332217D01*
X393671Y332753D01*
X392284Y332936D01*
D02*
G37*
G36*
X92067D02*
X90680Y332753D01*
X89387Y332217D01*
X88276Y331365D01*
X87424Y330255D01*
X86889Y328962D01*
X86706Y327575D01*
X86889Y326187D01*
X87424Y324894D01*
X88276Y323784D01*
X89387Y322932D01*
X90680Y322397D01*
X92067Y322214D01*
X93454Y322397D01*
X94747Y322932D01*
X95858Y323784D01*
X96710Y324894D01*
X97245Y326187D01*
X97428Y327575D01*
X97245Y328962D01*
X96710Y330255D01*
X95858Y331365D01*
X94747Y332217D01*
X93454Y332753D01*
X92067Y332936D01*
D02*
G37*
G36*
X714948Y352998D02*
X713405Y352847D01*
X711920Y352396D01*
X710553Y351665D01*
X709354Y350681D01*
X708370Y349482D01*
X707639Y348114D01*
X707188Y346630D01*
X707036Y345086D01*
X707188Y343543D01*
X707639Y342058D01*
X708370Y340691D01*
X708865Y340086D01*
X708370Y339482D01*
X707639Y338114D01*
X707188Y336630D01*
X707036Y335086D01*
X707188Y333543D01*
X707639Y332059D01*
X708370Y330691D01*
X708865Y330086D01*
X708370Y329482D01*
X707639Y328114D01*
X707188Y326630D01*
X707036Y325086D01*
X707188Y323543D01*
X707639Y322059D01*
X708370Y320691D01*
X709354Y319492D01*
X710553Y318508D01*
X711920Y317776D01*
X713405Y317326D01*
X714948Y317174D01*
X716492Y317326D01*
X717976Y317776D01*
X719344Y318508D01*
X720543Y319492D01*
X721527Y320691D01*
X722258Y322059D01*
X722708Y323543D01*
X722860Y325086D01*
X722708Y326630D01*
X722258Y328114D01*
X721527Y329482D01*
X721031Y330086D01*
X721527Y330691D01*
X722258Y332059D01*
X722708Y333543D01*
X722860Y335086D01*
X722708Y336630D01*
X722258Y338114D01*
X721527Y339482D01*
X721031Y340086D01*
X721527Y340691D01*
X722258Y342058D01*
X722708Y343543D01*
X722860Y345086D01*
X722708Y346630D01*
X722258Y348114D01*
X721527Y349482D01*
X720543Y350681D01*
X719344Y351665D01*
X717976Y352396D01*
X716492Y352847D01*
X714948Y352998D01*
D02*
G37*
G36*
X417677D02*
X416134Y352847D01*
X414649Y352396D01*
X413282Y351665D01*
X412083Y350681D01*
X411099Y349482D01*
X410367Y348114D01*
X409917Y346630D01*
X409765Y345086D01*
X409917Y343543D01*
X410367Y342058D01*
X411099Y340691D01*
X411594Y340086D01*
X411099Y339482D01*
X410367Y338114D01*
X409917Y336630D01*
X409765Y335086D01*
X409917Y333543D01*
X410367Y332059D01*
X411099Y330691D01*
X411594Y330086D01*
X411099Y329482D01*
X410367Y328114D01*
X409917Y326630D01*
X409765Y325086D01*
X409917Y323543D01*
X410367Y322059D01*
X411099Y320691D01*
X412083Y319492D01*
X413282Y318508D01*
X414649Y317776D01*
X416134Y317326D01*
X417677Y317174D01*
X419221Y317326D01*
X420705Y317776D01*
X422073Y318508D01*
X423272Y319492D01*
X424256Y320691D01*
X424987Y322059D01*
X425437Y323543D01*
X425590Y325086D01*
X425437Y326630D01*
X424987Y328114D01*
X424256Y329482D01*
X423760Y330086D01*
X424256Y330691D01*
X424987Y332059D01*
X425437Y333543D01*
X425590Y335086D01*
X425437Y336630D01*
X424987Y338114D01*
X424256Y339482D01*
X423760Y340086D01*
X424256Y340691D01*
X424987Y342058D01*
X425437Y343543D01*
X425590Y345086D01*
X425437Y346630D01*
X424987Y348114D01*
X424256Y349482D01*
X423272Y350681D01*
X422073Y351665D01*
X420705Y352396D01*
X419221Y352847D01*
X417677Y352998D01*
D02*
G37*
G36*
X117461D02*
X115917Y352847D01*
X114433Y352396D01*
X113065Y351665D01*
X111866Y350681D01*
X110882Y349482D01*
X110151Y348114D01*
X109700Y346630D01*
X109548Y345086D01*
X109700Y343543D01*
X110151Y342058D01*
X110882Y340691D01*
X111378Y340086D01*
X110882Y339482D01*
X110151Y338114D01*
X109700Y336630D01*
X109548Y335086D01*
X109700Y333543D01*
X110151Y332059D01*
X110882Y330691D01*
X111378Y330086D01*
X110882Y329482D01*
X110151Y328114D01*
X109700Y326630D01*
X109548Y325086D01*
X109700Y323543D01*
X110151Y322059D01*
X110882Y320691D01*
X111866Y319492D01*
X113065Y318508D01*
X114433Y317776D01*
X115917Y317326D01*
X117461Y317174D01*
X119004Y317326D01*
X120488Y317776D01*
X121856Y318508D01*
X123055Y319492D01*
X124039Y320691D01*
X124770Y322059D01*
X125221Y323543D01*
X125373Y325086D01*
X125221Y326630D01*
X124770Y328114D01*
X124039Y329482D01*
X123543Y330086D01*
X124039Y330691D01*
X124770Y332059D01*
X125221Y333543D01*
X125373Y335086D01*
X125221Y336630D01*
X124770Y338114D01*
X124039Y339482D01*
X123543Y340086D01*
X124039Y340691D01*
X124770Y342058D01*
X125221Y343543D01*
X125373Y345086D01*
X125221Y346630D01*
X124770Y348114D01*
X124039Y349482D01*
X123055Y350681D01*
X121856Y351665D01*
X120488Y352396D01*
X119004Y352847D01*
X117461Y352998D01*
D02*
G37*
G36*
X781641Y287983D02*
X780254Y287801D01*
X778961Y287265D01*
X777850Y286413D01*
X776998Y285303D01*
X776463Y284010D01*
X776280Y282622D01*
X776463Y281235D01*
X776998Y279942D01*
X777850Y278832D01*
X778961Y277980D01*
X780254Y277444D01*
X781641Y277261D01*
X783029Y277444D01*
X784321Y277980D01*
X785432Y278832D01*
X786284Y279942D01*
X786819Y281235D01*
X787002Y282622D01*
X786819Y284010D01*
X786284Y285303D01*
X785432Y286413D01*
X784321Y287265D01*
X783029Y287801D01*
X781641Y287983D01*
D02*
G37*
G36*
X639613D02*
X638226Y287801D01*
X636933Y287265D01*
X635823Y286413D01*
X634971Y285303D01*
X634435Y284010D01*
X634253Y282622D01*
X634435Y281235D01*
X634971Y279942D01*
X635823Y278832D01*
X636933Y277980D01*
X638226Y277444D01*
X639613Y277261D01*
X641001Y277444D01*
X642294Y277980D01*
X643404Y278832D01*
X644256Y279942D01*
X644792Y281235D01*
X644974Y282622D01*
X644792Y284010D01*
X644256Y285303D01*
X643404Y286413D01*
X642294Y287265D01*
X641001Y287801D01*
X639613Y287983D01*
D02*
G37*
G36*
X342426D02*
X341038Y287801D01*
X339745Y287265D01*
X338635Y286413D01*
X337783Y285303D01*
X337247Y284010D01*
X337065Y282622D01*
X337247Y281235D01*
X337783Y279942D01*
X338635Y278832D01*
X339745Y277980D01*
X341038Y277444D01*
X342426Y277261D01*
X343813Y277444D01*
X345106Y277980D01*
X346216Y278832D01*
X347068Y279942D01*
X347604Y281235D01*
X347786Y282622D01*
X347604Y284010D01*
X347068Y285303D01*
X346216Y286413D01*
X345106Y287265D01*
X343813Y287801D01*
X342426Y287983D01*
D02*
G37*
G36*
X42465D02*
X41077Y287801D01*
X39785Y287265D01*
X38674Y286413D01*
X37822Y285303D01*
X37287Y284010D01*
X37104Y282622D01*
X37287Y281235D01*
X37822Y279942D01*
X38674Y278832D01*
X39785Y277980D01*
X41077Y277444D01*
X42465Y277261D01*
X43852Y277444D01*
X45145Y277980D01*
X46255Y278832D01*
X47107Y279942D01*
X47643Y281235D01*
X47826Y282622D01*
X47643Y284010D01*
X47107Y285303D01*
X46255Y286413D01*
X45145Y287265D01*
X43852Y287801D01*
X42465Y287983D01*
D02*
G37*
G36*
X223563Y287978D02*
X222175Y287795D01*
X220882Y287260D01*
X219772Y286408D01*
X218920Y285298D01*
X218385Y284005D01*
X218202Y282617D01*
X218385Y281230D01*
X218920Y279937D01*
X219772Y278826D01*
X220882Y277975D01*
X222175Y277439D01*
X223563Y277256D01*
X224950Y277439D01*
X226243Y277975D01*
X227353Y278826D01*
X228205Y279937D01*
X228741Y281230D01*
X228924Y282617D01*
X228741Y284005D01*
X228205Y285298D01*
X227353Y286408D01*
X226243Y287260D01*
X224950Y287795D01*
X223563Y287978D01*
D02*
G37*
G36*
X845299Y302998D02*
X843755Y302847D01*
X842271Y302396D01*
X840903Y301665D01*
X839704Y300681D01*
X838720Y299482D01*
X837989Y298114D01*
X837539Y296630D01*
X837387Y295086D01*
X837539Y293543D01*
X837989Y292058D01*
X838720Y290691D01*
X839216Y290086D01*
X838720Y289482D01*
X837989Y288114D01*
X837539Y286630D01*
X837387Y285086D01*
X837539Y283543D01*
X837989Y282059D01*
X838720Y280691D01*
X839704Y279492D01*
X840903Y278508D01*
X842271Y277777D01*
X843755Y277326D01*
X845299Y277174D01*
X846842Y277326D01*
X848327Y277777D01*
X849695Y278508D01*
X850894Y279492D01*
X851878Y280691D01*
X852609Y282059D01*
X853059Y283543D01*
X853211Y285086D01*
X853059Y286630D01*
X852609Y288114D01*
X851878Y289482D01*
X851382Y290086D01*
X851878Y290691D01*
X852609Y292058D01*
X853059Y293543D01*
X853211Y295086D01*
X853059Y296630D01*
X852609Y298114D01*
X851878Y299482D01*
X850894Y300681D01*
X849695Y301665D01*
X848327Y302396D01*
X846842Y302847D01*
X845299Y302998D01*
D02*
G37*
G36*
X714948D02*
X713405Y302847D01*
X711920Y302396D01*
X710553Y301665D01*
X709354Y300681D01*
X708370Y299482D01*
X707639Y298114D01*
X707188Y296630D01*
X707036Y295086D01*
X707188Y293543D01*
X707639Y292058D01*
X708370Y290691D01*
X708865Y290086D01*
X708370Y289482D01*
X707639Y288114D01*
X707188Y286630D01*
X707036Y285086D01*
X707188Y283543D01*
X707639Y282059D01*
X708370Y280691D01*
X709354Y279492D01*
X710553Y278508D01*
X711920Y277777D01*
X713405Y277326D01*
X714948Y277174D01*
X716492Y277326D01*
X717976Y277777D01*
X719344Y278508D01*
X720543Y279492D01*
X721527Y280691D01*
X722258Y282059D01*
X722708Y283543D01*
X722860Y285086D01*
X722708Y286630D01*
X722258Y288114D01*
X721527Y289482D01*
X721031Y290086D01*
X721527Y290691D01*
X722258Y292058D01*
X722708Y293543D01*
X722860Y295086D01*
X722708Y296630D01*
X722258Y298114D01*
X721527Y299482D01*
X720543Y300681D01*
X719344Y301665D01*
X717976Y302396D01*
X716492Y302847D01*
X714948Y302998D01*
D02*
G37*
G36*
X547422D02*
X545879Y302847D01*
X544394Y302396D01*
X543026Y301665D01*
X541827Y300681D01*
X540843Y299482D01*
X540112Y298114D01*
X539662Y296630D01*
X539510Y295086D01*
X539662Y293543D01*
X540112Y292058D01*
X540843Y290691D01*
X541339Y290086D01*
X540843Y289482D01*
X540112Y288114D01*
X539662Y286630D01*
X539510Y285086D01*
X539662Y283543D01*
X540112Y282059D01*
X540843Y280691D01*
X541827Y279492D01*
X543026Y278508D01*
X544394Y277777D01*
X545879Y277326D01*
X547422Y277174D01*
X548966Y277326D01*
X550450Y277777D01*
X551818Y278508D01*
X553017Y279492D01*
X554001Y280691D01*
X554732Y282059D01*
X555182Y283543D01*
X555334Y285086D01*
X555182Y286630D01*
X554732Y288114D01*
X554001Y289482D01*
X553505Y290086D01*
X554001Y290691D01*
X554732Y292058D01*
X555182Y293543D01*
X555334Y295086D01*
X555182Y296630D01*
X554732Y298114D01*
X554001Y299482D01*
X553017Y300681D01*
X551818Y301665D01*
X550450Y302396D01*
X548966Y302847D01*
X547422Y302998D01*
D02*
G37*
G36*
X417677D02*
X416134Y302847D01*
X414649Y302396D01*
X413282Y301665D01*
X412083Y300681D01*
X411099Y299482D01*
X410367Y298114D01*
X409917Y296630D01*
X409765Y295086D01*
X409917Y293543D01*
X410367Y292058D01*
X411099Y290691D01*
X411594Y290086D01*
X411099Y289482D01*
X410367Y288114D01*
X409917Y286630D01*
X409765Y285086D01*
X409917Y283543D01*
X410367Y282059D01*
X411099Y280691D01*
X412083Y279492D01*
X413282Y278508D01*
X414649Y277777D01*
X416134Y277326D01*
X417677Y277174D01*
X419221Y277326D01*
X420705Y277777D01*
X422073Y278508D01*
X423272Y279492D01*
X424256Y280691D01*
X424987Y282059D01*
X425437Y283543D01*
X425590Y285086D01*
X425437Y286630D01*
X424987Y288114D01*
X424256Y289482D01*
X423760Y290086D01*
X424256Y290691D01*
X424987Y292058D01*
X425437Y293543D01*
X425590Y295086D01*
X425437Y296630D01*
X424987Y298114D01*
X424256Y299482D01*
X423272Y300681D01*
X422073Y301665D01*
X420705Y302396D01*
X419221Y302847D01*
X417677Y302998D01*
D02*
G37*
G36*
X247520D02*
X245976Y302847D01*
X244492Y302396D01*
X243124Y301665D01*
X241925Y300681D01*
X240941Y299482D01*
X240210Y298114D01*
X239760Y296630D01*
X239608Y295086D01*
X239760Y293543D01*
X240210Y292058D01*
X240941Y290691D01*
X241437Y290086D01*
X240941Y289482D01*
X240210Y288114D01*
X239760Y286630D01*
X239608Y285086D01*
X239760Y283543D01*
X240210Y282059D01*
X240941Y280691D01*
X241925Y279492D01*
X243124Y278508D01*
X244492Y277777D01*
X245976Y277326D01*
X247520Y277174D01*
X249063Y277326D01*
X250548Y277777D01*
X251916Y278508D01*
X253115Y279492D01*
X254099Y280691D01*
X254830Y282059D01*
X255280Y283543D01*
X255432Y285086D01*
X255280Y286630D01*
X254830Y288114D01*
X254099Y289482D01*
X253603Y290086D01*
X254099Y290691D01*
X254830Y292058D01*
X255280Y293543D01*
X255432Y295086D01*
X255280Y296630D01*
X254830Y298114D01*
X254099Y299482D01*
X253115Y300681D01*
X251916Y301665D01*
X250548Y302396D01*
X249063Y302847D01*
X247520Y302998D01*
D02*
G37*
G36*
X117461D02*
X115917Y302847D01*
X114433Y302396D01*
X113065Y301665D01*
X111866Y300681D01*
X110882Y299482D01*
X110151Y298114D01*
X109700Y296630D01*
X109548Y295086D01*
X109700Y293543D01*
X110151Y292058D01*
X110882Y290691D01*
X111378Y290086D01*
X110882Y289482D01*
X110151Y288114D01*
X109700Y286630D01*
X109548Y285086D01*
X109700Y283543D01*
X110151Y282059D01*
X110882Y280691D01*
X111866Y279492D01*
X113065Y278508D01*
X114433Y277777D01*
X115917Y277326D01*
X117461Y277174D01*
X119004Y277326D01*
X120488Y277777D01*
X121856Y278508D01*
X123055Y279492D01*
X124039Y280691D01*
X124770Y282059D01*
X125221Y283543D01*
X125373Y285086D01*
X125221Y286630D01*
X124770Y288114D01*
X124039Y289482D01*
X123543Y290086D01*
X124039Y290691D01*
X124770Y292058D01*
X125221Y293543D01*
X125373Y295086D01*
X125221Y296630D01*
X124770Y298114D01*
X124039Y299482D01*
X123055Y300681D01*
X121856Y301665D01*
X120488Y302396D01*
X119004Y302847D01*
X117461Y302998D01*
D02*
G37*
G36*
X821106Y287852D02*
X819718Y287669D01*
X818425Y287134D01*
X817315Y286282D01*
X816463Y285172D01*
X815927Y283879D01*
X815745Y282491D01*
X815927Y281104D01*
X816463Y279811D01*
X817315Y278701D01*
X818425Y277849D01*
X819718Y277313D01*
X821106Y277131D01*
X822493Y277313D01*
X823786Y277849D01*
X824896Y278701D01*
X825748Y279811D01*
X826284Y281104D01*
X826466Y282491D01*
X826284Y283879D01*
X825748Y285172D01*
X824896Y286282D01*
X823786Y287134D01*
X822493Y287669D01*
X821106Y287852D01*
D02*
G37*
G36*
X523563Y287765D02*
X522175Y287583D01*
X520882Y287047D01*
X519772Y286195D01*
X518920Y285085D01*
X518385Y283792D01*
X518202Y282404D01*
X518385Y281017D01*
X518920Y279724D01*
X519772Y278614D01*
X520882Y277762D01*
X522175Y277226D01*
X523563Y277044D01*
X524950Y277226D01*
X526243Y277762D01*
X527353Y278614D01*
X528205Y279724D01*
X528741Y281017D01*
X528924Y282404D01*
X528741Y283792D01*
X528205Y285085D01*
X527353Y286195D01*
X526243Y287047D01*
X524950Y287583D01*
X523563Y287765D01*
D02*
G37*
G36*
X313543Y287387D02*
X312155Y287205D01*
X310862Y286669D01*
X309752Y285817D01*
X308900Y284707D01*
X308364Y283414D01*
X308182Y282027D01*
X308364Y280639D01*
X308900Y279346D01*
X309752Y278236D01*
X310862Y277384D01*
X312155Y276849D01*
X313543Y276666D01*
X314930Y276849D01*
X316223Y277384D01*
X317333Y278236D01*
X318185Y279346D01*
X318721Y280639D01*
X318903Y282027D01*
X318721Y283414D01*
X318185Y284707D01*
X317333Y285817D01*
X316223Y286669D01*
X314930Y287205D01*
X313543Y287387D01*
D02*
G37*
G36*
X502949Y280739D02*
X501561Y280557D01*
X500268Y280021D01*
X499158Y279169D01*
X498306Y278059D01*
X497771Y276766D01*
X497588Y275378D01*
X497758Y274086D01*
X496389Y273906D01*
X495096Y273371D01*
X494686Y273056D01*
X494276Y273371D01*
X492983Y273906D01*
X491595Y274089D01*
X490208Y273906D01*
X488915Y273371D01*
X487805Y272519D01*
X486952Y271408D01*
X486417Y270115D01*
X486234Y268728D01*
X486417Y267341D01*
X486952Y266048D01*
X487805Y264937D01*
X488915Y264085D01*
X490208Y263550D01*
X491595Y263367D01*
X492983Y263550D01*
X494276Y264085D01*
X494686Y264400D01*
X495096Y264085D01*
X496389Y263550D01*
X497776Y263367D01*
X499164Y263550D01*
X500457Y264085D01*
X501567Y264937D01*
X502419Y266048D01*
X502954Y267341D01*
X503137Y268728D01*
X502967Y270020D01*
X504336Y270200D01*
X505629Y270736D01*
X506739Y271588D01*
X507591Y272698D01*
X508127Y273991D01*
X508310Y275378D01*
X508127Y276766D01*
X507591Y278059D01*
X506739Y279169D01*
X505629Y280021D01*
X504336Y280557D01*
X502949Y280739D01*
D02*
G37*
G36*
X356044Y273766D02*
X354656Y273583D01*
X353363Y273048D01*
X352953Y272733D01*
X352543Y273048D01*
X351250Y273583D01*
X349863Y273766D01*
X348475Y273583D01*
X347182Y273048D01*
X346072Y272196D01*
X345220Y271085D01*
X344685Y269793D01*
X344502Y268405D01*
X344685Y267018D01*
X345220Y265725D01*
X346072Y264614D01*
X347182Y263762D01*
X348475Y263227D01*
X349863Y263044D01*
X351250Y263227D01*
X352543Y263762D01*
X352953Y264077D01*
X353363Y263762D01*
X354656Y263227D01*
X356044Y263044D01*
X357431Y263227D01*
X358724Y263762D01*
X359835Y264614D01*
X360686Y265725D01*
X361222Y267018D01*
X361405Y268405D01*
X361222Y269793D01*
X360686Y271085D01*
X359835Y272196D01*
X358724Y273048D01*
X357431Y273583D01*
X356044Y273766D01*
D02*
G37*
G36*
X56083Y273667D02*
X54696Y273485D01*
X53403Y272949D01*
X52993Y272635D01*
X52583Y272949D01*
X51289Y273485D01*
X49902Y273667D01*
X48515Y273485D01*
X47222Y272949D01*
X46111Y272097D01*
X45259Y270987D01*
X44724Y269694D01*
X44541Y268307D01*
X44724Y266919D01*
X45259Y265626D01*
X46111Y264516D01*
X47222Y263664D01*
X48515Y263128D01*
X49902Y262946D01*
X51289Y263128D01*
X52583Y263664D01*
X52993Y263979D01*
X53403Y263664D01*
X54696Y263128D01*
X56083Y262946D01*
X57471Y263128D01*
X58764Y263664D01*
X59874Y264516D01*
X60726Y265626D01*
X61261Y266919D01*
X61444Y268307D01*
X61261Y269694D01*
X60726Y270987D01*
X59874Y272097D01*
X58764Y272949D01*
X57471Y273485D01*
X56083Y273667D01*
D02*
G37*
G36*
X467520Y278196D02*
X466132Y278013D01*
X464839Y277477D01*
X463729Y276625D01*
X462877Y275515D01*
X462341Y274222D01*
X462159Y272835D01*
X462341Y271447D01*
X462877Y270154D01*
X463729Y269044D01*
X464839Y268192D01*
X466132Y267656D01*
X467520Y267474D01*
X468907Y267656D01*
X470200Y268192D01*
X471310Y269044D01*
X472162Y270154D01*
X472698Y271447D01*
X472881Y272835D01*
X472698Y274222D01*
X472162Y275515D01*
X471310Y276625D01*
X470200Y277477D01*
X468907Y278013D01*
X467520Y278196D01*
D02*
G37*
G36*
X647051Y274356D02*
X645663Y274174D01*
X644370Y273638D01*
X643260Y272786D01*
X642408Y271676D01*
X641873Y270383D01*
X641690Y268996D01*
X641873Y267608D01*
X642408Y266315D01*
X643260Y265205D01*
X644370Y264353D01*
X645663Y263818D01*
X647051Y263635D01*
X648438Y263818D01*
X649731Y264353D01*
X650841Y265205D01*
X651693Y266315D01*
X652229Y267608D01*
X652412Y268996D01*
X652229Y270383D01*
X651693Y271676D01*
X650841Y272786D01*
X649731Y273638D01*
X648438Y274174D01*
X647051Y274356D01*
D02*
G37*
G36*
X184256Y287983D02*
X182868Y287801D01*
X181575Y287265D01*
X180465Y286413D01*
X179613Y285303D01*
X179078Y284010D01*
X178895Y282622D01*
X179078Y281235D01*
X179613Y279942D01*
X180465Y278832D01*
X181575Y277980D01*
X181734Y277914D01*
X181799Y277418D01*
X181150Y276921D01*
X180298Y275810D01*
X179763Y274517D01*
X179580Y273130D01*
X179763Y271742D01*
X180298Y270449D01*
X181150Y269339D01*
X182261Y268487D01*
X183554Y267952D01*
X184941Y267769D01*
X185970Y267905D01*
X186492Y267513D01*
X186515Y267341D01*
X187050Y266048D01*
X187902Y264937D01*
X189013Y264085D01*
X190305Y263550D01*
X191693Y263367D01*
X193080Y263550D01*
X194373Y264085D01*
X194783Y264400D01*
X195194Y264085D01*
X196487Y263550D01*
X197874Y263367D01*
X199261Y263550D01*
X200554Y264085D01*
X201665Y264937D01*
X202517Y266048D01*
X203052Y267341D01*
X203235Y268728D01*
X203052Y270115D01*
X202517Y271409D01*
X201665Y272519D01*
X200554Y273371D01*
X199261Y273906D01*
X197874Y274089D01*
X196487Y273906D01*
X195194Y273371D01*
X194783Y273056D01*
X194373Y273371D01*
X193080Y273906D01*
X191693Y274089D01*
X190664Y273953D01*
X190142Y274345D01*
X190119Y274517D01*
X189584Y275810D01*
X188732Y276921D01*
X187621Y277772D01*
X187463Y277838D01*
X187398Y278334D01*
X188046Y278832D01*
X188898Y279942D01*
X189434Y281235D01*
X189617Y282622D01*
X189434Y284010D01*
X188898Y285303D01*
X188046Y286413D01*
X186936Y287265D01*
X185643Y287801D01*
X184256Y287983D01*
D02*
G37*
G36*
X800492Y280739D02*
X799104Y280557D01*
X797811Y280021D01*
X796701Y279169D01*
X795849Y278059D01*
X795313Y276766D01*
X795131Y275378D01*
X795237Y274573D01*
X794804Y274029D01*
X793872Y273906D01*
X792579Y273371D01*
X791469Y272519D01*
X790617Y271408D01*
X790081Y270115D01*
X789898Y268728D01*
X790081Y267340D01*
X790617Y266048D01*
X791469Y264937D01*
X792579Y264085D01*
X793872Y263550D01*
X795259Y263367D01*
X796647Y263550D01*
X797940Y264085D01*
X799050Y264937D01*
X799902Y266048D01*
X800438Y267340D01*
X800620Y268728D01*
X800514Y269533D01*
X800947Y270078D01*
X801879Y270200D01*
X803172Y270736D01*
X804282Y271588D01*
X805134Y272698D01*
X805670Y273991D01*
X805852Y275378D01*
X805670Y276766D01*
X805134Y278059D01*
X804282Y279169D01*
X803172Y280021D01*
X801879Y280557D01*
X800492Y280739D01*
D02*
G37*
G36*
X283542Y273844D02*
X282155Y273662D01*
X280862Y273126D01*
X279752Y272274D01*
X278900Y271164D01*
X278364Y269871D01*
X278182Y268483D01*
X278364Y267096D01*
X278900Y265803D01*
X279752Y264693D01*
X280862Y263841D01*
X282155Y263305D01*
X283542Y263123D01*
X284930Y263305D01*
X286223Y263841D01*
X287333Y264693D01*
X288185Y265803D01*
X288721Y267096D01*
X288903Y268483D01*
X288721Y269871D01*
X288185Y271164D01*
X287333Y272274D01*
X286223Y273126D01*
X284930Y273662D01*
X283542Y273844D01*
D02*
G37*
G36*
X417520Y266286D02*
X416132Y266103D01*
X414839Y265568D01*
X413729Y264716D01*
X412877Y263606D01*
X412341Y262313D01*
X412159Y260925D01*
X412341Y259538D01*
X412877Y258245D01*
X413729Y257135D01*
X414839Y256283D01*
X416132Y255747D01*
X417520Y255564D01*
X418907Y255747D01*
X420200Y256283D01*
X421310Y257135D01*
X422162Y258245D01*
X422698Y259538D01*
X422881Y260925D01*
X422698Y262313D01*
X422162Y263606D01*
X421310Y264716D01*
X420200Y265568D01*
X418907Y266103D01*
X417520Y266286D01*
D02*
G37*
G36*
X117461Y256798D02*
X116073Y256615D01*
X114780Y256080D01*
X113670Y255228D01*
X112818Y254117D01*
X112282Y252825D01*
X112100Y251437D01*
X112282Y250050D01*
X112818Y248757D01*
X113670Y247646D01*
X114780Y246795D01*
X116073Y246259D01*
X117461Y246076D01*
X118848Y246259D01*
X120141Y246795D01*
X121251Y247646D01*
X122103Y248757D01*
X122639Y250050D01*
X122821Y251437D01*
X122639Y252825D01*
X122103Y254117D01*
X121251Y255228D01*
X120141Y256080D01*
X118848Y256615D01*
X117461Y256798D01*
D02*
G37*
G36*
X239075Y259790D02*
X237687Y259607D01*
X236394Y259072D01*
X235284Y258220D01*
X234432Y257109D01*
X233897Y255817D01*
X233714Y254429D01*
X233897Y253042D01*
X234432Y251749D01*
X235284Y250639D01*
X236394Y249786D01*
X237687Y249251D01*
X239075Y249068D01*
X240462Y249251D01*
X241755Y249786D01*
X242568Y250410D01*
X243238Y250359D01*
X243552Y249950D01*
X244662Y249098D01*
X245955Y248562D01*
X246624Y248474D01*
X246735Y248205D01*
X247587Y247095D01*
X248698Y246243D01*
X249991Y245708D01*
X251378Y245525D01*
X252765Y245708D01*
X254058Y246243D01*
X255169Y247095D01*
X256021Y248205D01*
X256556Y249498D01*
X256739Y250886D01*
X256556Y252273D01*
X256021Y253566D01*
X255169Y254677D01*
X254058Y255528D01*
X252765Y256064D01*
X252096Y256152D01*
X251985Y256421D01*
X251133Y257531D01*
X250023Y258383D01*
X248730Y258918D01*
X247342Y259101D01*
X245955Y258918D01*
X244662Y258383D01*
X243849Y257759D01*
X243180Y257810D01*
X242865Y258220D01*
X241755Y259072D01*
X240462Y259607D01*
X239075Y259790D01*
D02*
G37*
G36*
X342323Y252408D02*
X340935Y252225D01*
X339642Y251690D01*
X338532Y250838D01*
X337680Y249728D01*
X337145Y248435D01*
X336962Y247047D01*
X337145Y245660D01*
X337680Y244367D01*
X338532Y243257D01*
X339642Y242405D01*
X340935Y241869D01*
X342323Y241686D01*
X343710Y241869D01*
X345003Y242405D01*
X346113Y243257D01*
X346965Y244367D01*
X347501Y245660D01*
X347684Y247047D01*
X347501Y248435D01*
X346965Y249728D01*
X346113Y250838D01*
X345003Y251690D01*
X343710Y252225D01*
X342323Y252408D01*
D02*
G37*
G36*
X522638Y235072D02*
X521326Y234943D01*
X520064Y234560D01*
X518901Y233938D01*
X517882Y233102D01*
X517393D01*
X516374Y233938D01*
X515211Y234560D01*
X513950Y234943D01*
X512638Y235072D01*
X511326Y234943D01*
X510064Y234560D01*
X508901Y233938D01*
X507882Y233102D01*
X507393D01*
X506374Y233938D01*
X505211Y234560D01*
X503950Y234943D01*
X502638Y235072D01*
X501326Y234943D01*
X500064Y234560D01*
X498901Y233938D01*
X497882Y233102D01*
X497393D01*
X496374Y233938D01*
X495212Y234560D01*
X493950Y234943D01*
X492638Y235072D01*
X491326Y234943D01*
X490064Y234560D01*
X488901Y233938D01*
X487882Y233102D01*
X487393D01*
X486374Y233938D01*
X485212Y234560D01*
X483950Y234943D01*
X482638Y235072D01*
X481326Y234943D01*
X480064Y234560D01*
X478901Y233938D01*
X477882Y233102D01*
X477393D01*
X476374Y233938D01*
X475211Y234560D01*
X473950Y234943D01*
X472638Y235072D01*
X471326Y234943D01*
X470064Y234560D01*
X468901Y233938D01*
X467882Y233102D01*
X467393D01*
X466374Y233938D01*
X465211Y234560D01*
X463950Y234943D01*
X462638Y235072D01*
X461326Y234943D01*
X460064Y234560D01*
X458901Y233938D01*
X457882Y233102D01*
X457393D01*
X456374Y233938D01*
X455211Y234560D01*
X453950Y234943D01*
X452638Y235072D01*
X451326Y234943D01*
X450064Y234560D01*
X448901Y233938D01*
X447882Y233102D01*
X447393D01*
X446374Y233938D01*
X445212Y234560D01*
X443950Y234943D01*
X442638Y235072D01*
X441326Y234943D01*
X440064Y234560D01*
X438901Y233938D01*
X437882Y233102D01*
X437393D01*
X436374Y233938D01*
X435212Y234560D01*
X433950Y234943D01*
X432638Y235072D01*
X431326Y234943D01*
X430064Y234560D01*
X428901Y233938D01*
X427882Y233102D01*
X427393D01*
X426374Y233938D01*
X425211Y234560D01*
X423950Y234943D01*
X422638Y235072D01*
X421326Y234943D01*
X420064Y234560D01*
X418901Y233938D01*
X417882Y233102D01*
X417393D01*
X416374Y233938D01*
X415211Y234560D01*
X413950Y234943D01*
X412638Y235072D01*
X411326Y234943D01*
X410064Y234560D01*
X408901Y233938D01*
X407882Y233102D01*
X407393D01*
X406374Y233938D01*
X405211Y234560D01*
X403950Y234943D01*
X402638Y235072D01*
X401326Y234943D01*
X400064Y234560D01*
X398901Y233938D01*
X397882Y233102D01*
X397393D01*
X396374Y233938D01*
X395212Y234560D01*
X393950Y234943D01*
X392638Y235072D01*
X391326Y234943D01*
X390064Y234560D01*
X388901Y233938D01*
X387882Y233102D01*
X387393D01*
X386374Y233938D01*
X385211Y234560D01*
X383950Y234943D01*
X382638Y235072D01*
X381326Y234943D01*
X380064Y234560D01*
X378901Y233938D01*
X377882Y233102D01*
X377046Y232083D01*
X376424Y230920D01*
X376042Y229659D01*
X375912Y228346D01*
X376042Y227034D01*
X376424Y225773D01*
X377046Y224610D01*
X377882Y223591D01*
Y223102D01*
X377046Y222083D01*
X376424Y220920D01*
X376042Y219658D01*
X375912Y218347D01*
X376042Y217034D01*
X376424Y215773D01*
X377046Y214610D01*
X377882Y213591D01*
X378901Y212755D01*
X380064Y212133D01*
X381326Y211750D01*
X382638Y211621D01*
X383950Y211750D01*
X385211Y212133D01*
X386374Y212755D01*
X387393Y213591D01*
X387882D01*
X388901Y212755D01*
X390064Y212133D01*
X391326Y211750D01*
X392638Y211621D01*
X393950Y211750D01*
X395212Y212133D01*
X396374Y212755D01*
X397393Y213591D01*
X397882D01*
X398901Y212755D01*
X400064Y212133D01*
X401326Y211750D01*
X402638Y211621D01*
X403950Y211750D01*
X405211Y212133D01*
X406374Y212755D01*
X407393Y213591D01*
X407882D01*
X408901Y212755D01*
X410064Y212133D01*
X411326Y211750D01*
X412638Y211621D01*
X413950Y211750D01*
X415211Y212133D01*
X416374Y212755D01*
X417393Y213591D01*
X417882D01*
X418901Y212755D01*
X420064Y212133D01*
X421326Y211750D01*
X422638Y211621D01*
X423950Y211750D01*
X425211Y212133D01*
X426374Y212755D01*
X427393Y213591D01*
X427882D01*
X428901Y212755D01*
X430064Y212133D01*
X431326Y211750D01*
X432638Y211621D01*
X433950Y211750D01*
X435212Y212133D01*
X436374Y212755D01*
X437393Y213591D01*
X437882D01*
X438901Y212755D01*
X440064Y212133D01*
X441326Y211750D01*
X442638Y211621D01*
X443950Y211750D01*
X445212Y212133D01*
X446374Y212755D01*
X447393Y213591D01*
X447882D01*
X448901Y212755D01*
X450064Y212133D01*
X451326Y211750D01*
X452638Y211621D01*
X453950Y211750D01*
X455211Y212133D01*
X456374Y212755D01*
X457393Y213591D01*
X457882D01*
X458901Y212755D01*
X460064Y212133D01*
X461326Y211750D01*
X462638Y211621D01*
X463950Y211750D01*
X465211Y212133D01*
X466374Y212755D01*
X467393Y213591D01*
X467882D01*
X468901Y212755D01*
X470064Y212133D01*
X471326Y211750D01*
X472638Y211621D01*
X473950Y211750D01*
X475211Y212133D01*
X476374Y212755D01*
X477393Y213591D01*
X477882D01*
X478901Y212755D01*
X480064Y212133D01*
X481326Y211750D01*
X482638Y211621D01*
X483950Y211750D01*
X485212Y212133D01*
X486374Y212755D01*
X487393Y213591D01*
X487882D01*
X488901Y212755D01*
X490064Y212133D01*
X490143Y212109D01*
X490243Y211556D01*
X489615Y211074D01*
X488763Y209964D01*
X488227Y208671D01*
X488045Y207283D01*
X488227Y205896D01*
X488763Y204603D01*
X489615Y203493D01*
X490725Y202641D01*
X492018Y202105D01*
X493405Y201923D01*
X494793Y202105D01*
X496086Y202641D01*
X497196Y203493D01*
X498048Y204603D01*
X498584Y205896D01*
X498766Y207283D01*
X498584Y208671D01*
X498048Y209964D01*
X497196Y211074D01*
X496086Y211926D01*
X495915Y211997D01*
X495891Y212496D01*
X496374Y212755D01*
X497393Y213591D01*
X497882D01*
X498901Y212755D01*
X500064Y212133D01*
X501326Y211750D01*
X502638Y211621D01*
X503950Y211750D01*
X505211Y212133D01*
X506374Y212755D01*
X507393Y213591D01*
X507882D01*
X508901Y212755D01*
X510064Y212133D01*
X511326Y211750D01*
X512638Y211621D01*
X513950Y211750D01*
X515211Y212133D01*
X516374Y212755D01*
X517393Y213591D01*
X517882D01*
X518901Y212755D01*
X520064Y212133D01*
X521326Y211750D01*
X522638Y211621D01*
X523950Y211750D01*
X525211Y212133D01*
X526374Y212755D01*
X527393Y213591D01*
X528230Y214610D01*
X528851Y215773D01*
X529234Y217034D01*
X529363Y218347D01*
X529234Y219658D01*
X528851Y220920D01*
X528230Y222083D01*
X527393Y223102D01*
Y223591D01*
X528230Y224610D01*
X528851Y225773D01*
X529234Y227034D01*
X529363Y228346D01*
X529234Y229659D01*
X528851Y230920D01*
X528230Y232083D01*
X527393Y233102D01*
X526374Y233938D01*
X525211Y234560D01*
X523950Y234943D01*
X522638Y235072D01*
D02*
G37*
G36*
X238484Y243156D02*
X237097Y242973D01*
X235804Y242438D01*
X234694Y241586D01*
X233842Y240476D01*
X233306Y239183D01*
X233123Y237795D01*
X233306Y236408D01*
X233842Y235115D01*
X234694Y234005D01*
X235804Y233153D01*
X237097Y232617D01*
X238484Y232435D01*
X239872Y232617D01*
X241165Y233153D01*
X242275Y234005D01*
X243127Y235115D01*
X243662Y236408D01*
X243845Y237795D01*
X243662Y239183D01*
X243127Y240476D01*
X242275Y241586D01*
X241165Y242438D01*
X239872Y242973D01*
X238484Y243156D01*
D02*
G37*
G36*
X714948Y248176D02*
X713561Y247993D01*
X712268Y247458D01*
X711158Y246606D01*
X710306Y245495D01*
X709770Y244202D01*
X709587Y242815D01*
X709770Y241427D01*
X710306Y240135D01*
X711158Y239024D01*
X712268Y238172D01*
X713561Y237637D01*
X714948Y237454D01*
X716336Y237637D01*
X717151Y237975D01*
X717548Y237670D01*
X717474Y237106D01*
X717657Y235719D01*
X718192Y234426D01*
X719044Y233316D01*
X720154Y232464D01*
X721447Y231928D01*
X722835Y231746D01*
X724222Y231928D01*
X725515Y232464D01*
X726625Y233316D01*
X727477Y234426D01*
X728013Y235719D01*
X728195Y237106D01*
X728013Y238494D01*
X727477Y239787D01*
X726625Y240897D01*
X725515Y241749D01*
X724222Y242284D01*
X722835Y242467D01*
X721447Y242284D01*
X720632Y241947D01*
X720235Y242251D01*
X720309Y242815D01*
X720126Y244202D01*
X719591Y245495D01*
X718739Y246606D01*
X717629Y247458D01*
X716336Y247993D01*
X714948Y248176D01*
D02*
G37*
G36*
X89075Y243340D02*
X87724Y243207D01*
X86425Y242813D01*
X85229Y242174D01*
X84179Y241313D01*
X83318Y240264D01*
X82679Y239067D01*
X82285Y237768D01*
X82152Y236417D01*
X82285Y235067D01*
X82679Y233768D01*
X83318Y232571D01*
X84179Y231522D01*
X85229Y230661D01*
X86425Y230021D01*
X87724Y229627D01*
X89075Y229494D01*
X90425Y229627D01*
X91724Y230021D01*
X92921Y230661D01*
X93970Y231522D01*
X94831Y232571D01*
X95471Y233768D01*
X95865Y235067D01*
X95998Y236417D01*
X95865Y237768D01*
X95471Y239067D01*
X94831Y240264D01*
X93970Y241313D01*
X92921Y242174D01*
X91724Y242813D01*
X90425Y243207D01*
X89075Y243340D01*
D02*
G37*
G36*
X51279D02*
X49929Y243207D01*
X48630Y242813D01*
X47433Y242174D01*
X46384Y241313D01*
X45523Y240264D01*
X44883Y239067D01*
X44489Y237768D01*
X44356Y236417D01*
X44489Y235067D01*
X44883Y233768D01*
X45523Y232571D01*
X46384Y231522D01*
X47433Y230661D01*
X48630Y230021D01*
X49929Y229627D01*
X51279Y229494D01*
X52630Y229627D01*
X53929Y230021D01*
X55126Y230661D01*
X56175Y231522D01*
X57036Y232571D01*
X57676Y233768D01*
X58070Y235067D01*
X58203Y236417D01*
X58070Y237768D01*
X57676Y239067D01*
X57036Y240264D01*
X56175Y241313D01*
X55126Y242174D01*
X53929Y242813D01*
X52630Y243207D01*
X51279Y243340D01*
D02*
G37*
G36*
X70177D02*
X68827Y243207D01*
X67528Y242813D01*
X66331Y242174D01*
X65282Y241313D01*
X64421Y240264D01*
X63781Y239067D01*
X63387Y237768D01*
X63254Y236417D01*
X63387Y235067D01*
X63781Y233768D01*
X64421Y232571D01*
X65282Y231522D01*
X66331Y230661D01*
X67528Y230021D01*
X68827Y229627D01*
X69287Y229582D01*
Y229080D01*
X68827Y229034D01*
X67528Y228640D01*
X66331Y228000D01*
X65282Y227139D01*
X64421Y226090D01*
X63781Y224893D01*
X63387Y223595D01*
X63254Y222244D01*
X63387Y220894D01*
X63781Y219595D01*
X64421Y218398D01*
X65282Y217349D01*
X66331Y216488D01*
X67528Y215848D01*
X68827Y215454D01*
X70177Y215321D01*
X71528Y215454D01*
X72826Y215848D01*
X74023Y216488D01*
X75072Y217349D01*
X75933Y218398D01*
X76573Y219595D01*
X76967Y220894D01*
X77100Y222244D01*
X76967Y223595D01*
X76573Y224893D01*
X75933Y226090D01*
X75072Y227139D01*
X74023Y228000D01*
X72826Y228640D01*
X71528Y229034D01*
X71068Y229080D01*
Y229582D01*
X71528Y229627D01*
X72826Y230021D01*
X74023Y230661D01*
X75072Y231522D01*
X75933Y232571D01*
X76573Y233768D01*
X76967Y235067D01*
X77100Y236417D01*
X76967Y237768D01*
X76573Y239067D01*
X75933Y240264D01*
X75072Y241313D01*
X74023Y242174D01*
X72826Y242813D01*
X71528Y243207D01*
X70177Y243340D01*
D02*
G37*
G36*
X215286Y227044D02*
X213898Y226862D01*
X212605Y226326D01*
X211495Y225474D01*
X210643Y224364D01*
X210108Y223071D01*
X209925Y221683D01*
X210108Y220296D01*
X210643Y219003D01*
X211197Y218281D01*
X211034Y217672D01*
X210705Y217536D01*
X209595Y216684D01*
X208743Y215574D01*
X208208Y214281D01*
X208025Y212894D01*
X208208Y211506D01*
X208743Y210213D01*
X209595Y209103D01*
X210705Y208251D01*
X211998Y207716D01*
X213386Y207533D01*
X214773Y207716D01*
X216066Y208251D01*
X217177Y209103D01*
X218028Y210213D01*
X218564Y211506D01*
X218747Y212894D01*
X218564Y214281D01*
X218028Y215574D01*
X217475Y216296D01*
X217638Y216905D01*
X217966Y217041D01*
X219076Y217893D01*
X219928Y219003D01*
X220464Y220296D01*
X220647Y221683D01*
X220464Y223071D01*
X219928Y224364D01*
X219076Y225474D01*
X217966Y226326D01*
X216673Y226862D01*
X215286Y227044D01*
D02*
G37*
G36*
X714948Y216680D02*
X713561Y216497D01*
X712268Y215962D01*
X711158Y215110D01*
X710306Y213999D01*
X709770Y212706D01*
X709587Y211319D01*
X709770Y209931D01*
X710306Y208639D01*
X711158Y207528D01*
X712268Y206676D01*
X713561Y206141D01*
X714948Y205958D01*
X716336Y206141D01*
X717178Y206490D01*
X717611Y206240D01*
X717657Y205896D01*
X718192Y204603D01*
X719044Y203493D01*
X720154Y202641D01*
X721447Y202105D01*
X722835Y201923D01*
X724222Y202105D01*
X725515Y202641D01*
X726625Y203493D01*
X727477Y204603D01*
X728013Y205896D01*
X728195Y207283D01*
X728013Y208671D01*
X727477Y209964D01*
X726625Y211074D01*
X725515Y211926D01*
X724222Y212462D01*
X722835Y212644D01*
X721447Y212462D01*
X720605Y212113D01*
X720172Y212363D01*
X720126Y212706D01*
X719591Y213999D01*
X718739Y215110D01*
X717629Y215962D01*
X716336Y216497D01*
X714948Y216680D01*
D02*
G37*
G36*
X885827Y231345D02*
X883510Y231163D01*
X881250Y230620D01*
X879103Y229731D01*
X877122Y228517D01*
X875355Y227007D01*
X873846Y225240D01*
X872631Y223259D01*
X871742Y221112D01*
X871200Y218852D01*
X871017Y216535D01*
X871200Y214219D01*
X871742Y211959D01*
X872631Y209812D01*
X873846Y207831D01*
X875355Y206064D01*
X877122Y204554D01*
X879103Y203340D01*
X881250Y202451D01*
X883510Y201908D01*
X885827Y201726D01*
X888144Y201908D01*
X890403Y202451D01*
X892550Y203340D01*
X894532Y204554D01*
X896299Y206064D01*
X897808Y207831D01*
X899022Y209812D01*
X899911Y211959D01*
X900454Y214219D01*
X900636Y216535D01*
X900454Y218852D01*
X899911Y221112D01*
X899022Y223259D01*
X897808Y225240D01*
X896299Y227007D01*
X894532Y228517D01*
X892550Y229731D01*
X890403Y230620D01*
X888144Y231163D01*
X885827Y231345D01*
D02*
G37*
G36*
X19685D02*
X17368Y231163D01*
X15109Y230620D01*
X12962Y229731D01*
X10980Y228517D01*
X9213Y227007D01*
X7704Y225240D01*
X6490Y223259D01*
X5600Y221112D01*
X5058Y218852D01*
X4876Y216535D01*
X5058Y214219D01*
X5600Y211959D01*
X6490Y209812D01*
X7704Y207831D01*
X9213Y206064D01*
X10980Y204554D01*
X12962Y203340D01*
X15109Y202451D01*
X17368Y201908D01*
X19685Y201726D01*
X22002Y201908D01*
X24261Y202451D01*
X26408Y203340D01*
X28390Y204554D01*
X30157Y206064D01*
X31666Y207831D01*
X32880Y209812D01*
X33770Y211959D01*
X34312Y214219D01*
X34495Y216535D01*
X34312Y218852D01*
X33770Y221112D01*
X32880Y223259D01*
X31666Y225240D01*
X30157Y227007D01*
X28390Y228517D01*
X26408Y229731D01*
X24261Y230620D01*
X22002Y231163D01*
X19685Y231345D01*
D02*
G37*
G36*
X452756Y96306D02*
X451368Y96123D01*
X450075Y95587D01*
X448965Y94735D01*
X448283Y93847D01*
X448259Y93834D01*
X447706D01*
X447681Y93847D01*
X446999Y94735D01*
X445889Y95587D01*
X444596Y96123D01*
X443209Y96306D01*
X441821Y96123D01*
X440528Y95587D01*
X439418Y94735D01*
X438566Y93625D01*
X438030Y92332D01*
X437848Y90945D01*
X438030Y89557D01*
X438566Y88264D01*
X438945Y87771D01*
X438566Y87277D01*
X438030Y85984D01*
X437848Y84596D01*
X438030Y83209D01*
X438566Y81916D01*
X438945Y81422D01*
X438566Y80928D01*
X438030Y79636D01*
X437848Y78248D01*
X438030Y76860D01*
X438566Y75568D01*
X438945Y75074D01*
X438566Y74580D01*
X438030Y73287D01*
X437848Y71900D01*
X438030Y70512D01*
X438566Y69219D01*
X438945Y68725D01*
X438566Y68232D01*
X438030Y66939D01*
X437848Y65551D01*
X438030Y64164D01*
X438566Y62871D01*
X439418Y61760D01*
X440528Y60909D01*
X441821Y60373D01*
X443209Y60190D01*
X444596Y60373D01*
X445889Y60909D01*
X446999Y61760D01*
X447681Y62649D01*
X447706Y62662D01*
X448259D01*
X448283Y62649D01*
X448965Y61760D01*
X450075Y60909D01*
X451368Y60373D01*
X452756Y60190D01*
X454143Y60373D01*
X455436Y60909D01*
X456547Y61760D01*
X457399Y62871D01*
X457934Y64164D01*
X458117Y65551D01*
X457934Y66939D01*
X457399Y68232D01*
X457020Y68725D01*
X457399Y69219D01*
X457934Y70512D01*
X458117Y71900D01*
X457934Y73287D01*
X457399Y74580D01*
X457020Y75074D01*
X457399Y75568D01*
X457934Y76860D01*
X458117Y78248D01*
X457934Y79636D01*
X457399Y80928D01*
X457020Y81422D01*
X457399Y81916D01*
X457934Y83209D01*
X458117Y84596D01*
X457934Y85984D01*
X457399Y87277D01*
X457020Y87771D01*
X457399Y88264D01*
X457934Y89557D01*
X458117Y90945D01*
X457934Y92332D01*
X457399Y93625D01*
X456547Y94735D01*
X455436Y95587D01*
X454143Y96123D01*
X452756Y96306D01*
D02*
G37*
G36*
X215197Y95118D02*
X155512D01*
Y75433D01*
Y65433D01*
Y55433D01*
Y45433D01*
Y35433D01*
X215197D01*
Y45433D01*
Y55433D01*
Y65433D01*
Y75433D01*
Y95118D01*
D02*
G37*
G36*
X831791Y30348D02*
X830123Y30217D01*
X828496Y29826D01*
X826950Y29186D01*
X825524Y28311D01*
X824252Y27225D01*
X823165Y25953D01*
X822291Y24526D01*
X821650Y22980D01*
X821260Y21353D01*
X821128Y19685D01*
X821260Y18017D01*
X821650Y16390D01*
X822291Y14844D01*
X823165Y13418D01*
X824252Y12145D01*
X825524Y11059D01*
X826950Y10184D01*
X828496Y9544D01*
X830123Y9154D01*
X831791Y9022D01*
X833459Y9154D01*
X835086Y9544D01*
X836632Y10184D01*
X838059Y11059D01*
X839331Y12145D01*
X840418Y13418D01*
X841292Y14844D01*
X841932Y16390D01*
X842323Y18017D01*
X842454Y19685D01*
X842323Y21353D01*
X841932Y22980D01*
X841292Y24526D01*
X840418Y25953D01*
X839331Y27225D01*
X838059Y28311D01*
X836632Y29186D01*
X835086Y29826D01*
X833459Y30217D01*
X831791Y30348D01*
D02*
G37*
G36*
X791831D02*
X791437D01*
X789769Y30217D01*
X788142Y29826D01*
X786596Y29186D01*
X785170Y28311D01*
X783897Y27225D01*
X782811Y25953D01*
X781936Y24526D01*
X781296Y22980D01*
X780905Y21353D01*
X780774Y19685D01*
X780905Y18017D01*
X781296Y16390D01*
X781936Y14844D01*
X782811Y13418D01*
X783897Y12145D01*
X785170Y11059D01*
X786596Y10184D01*
X788142Y9544D01*
X789769Y9154D01*
X791437Y9022D01*
X791831D01*
X793499Y9154D01*
X795126Y9544D01*
X796671Y10184D01*
X798098Y11059D01*
X799370Y12145D01*
X800457Y13418D01*
X801331Y14844D01*
X801972Y16390D01*
X802362Y18017D01*
X802493Y19685D01*
X802362Y21353D01*
X801972Y22980D01*
X801331Y24526D01*
X800457Y25953D01*
X799370Y27225D01*
X798098Y28311D01*
X796671Y29186D01*
X795126Y29826D01*
X793499Y30217D01*
X791831Y30348D01*
D02*
G37*
G36*
X649902D02*
X648234Y30217D01*
X646607Y29826D01*
X645061Y29186D01*
X643634Y28311D01*
X642362Y27225D01*
X641275Y25953D01*
X640401Y24526D01*
X639761Y22980D01*
X639370Y21353D01*
X639239Y19685D01*
X639370Y18017D01*
X639761Y16390D01*
X640401Y14844D01*
X641275Y13418D01*
X642362Y12145D01*
X643634Y11059D01*
X645061Y10184D01*
X646607Y9544D01*
X648234Y9154D01*
X649902Y9022D01*
X651570Y9154D01*
X653196Y9544D01*
X654742Y10184D01*
X656169Y11059D01*
X657441Y12145D01*
X658528Y13418D01*
X659402Y14844D01*
X660042Y16390D01*
X660433Y18017D01*
X660564Y19685D01*
X660433Y21353D01*
X660042Y22980D01*
X659402Y24526D01*
X658528Y25953D01*
X657441Y27225D01*
X656169Y28311D01*
X654742Y29186D01*
X653196Y29826D01*
X651570Y30217D01*
X649902Y30348D01*
D02*
G37*
G36*
X609941D02*
X609547D01*
X607879Y30217D01*
X606252Y29826D01*
X604706Y29186D01*
X603280Y28311D01*
X602007Y27225D01*
X600921Y25953D01*
X600047Y24526D01*
X599406Y22980D01*
X599016Y21353D01*
X598884Y19685D01*
X599016Y18017D01*
X599406Y16390D01*
X600047Y14844D01*
X600921Y13418D01*
X602007Y12145D01*
X603280Y11059D01*
X604706Y10184D01*
X606252Y9544D01*
X607879Y9154D01*
X609547Y9022D01*
X609941D01*
X611609Y9154D01*
X613236Y9544D01*
X614782Y10184D01*
X616208Y11059D01*
X617481Y12145D01*
X618567Y13418D01*
X619442Y14844D01*
X620082Y16390D01*
X620472Y18017D01*
X620604Y19685D01*
X620472Y21353D01*
X620082Y22980D01*
X619442Y24526D01*
X618567Y25953D01*
X617481Y27225D01*
X616208Y28311D01*
X614782Y29186D01*
X613236Y29826D01*
X611609Y30217D01*
X609941Y30348D01*
D02*
G37*
G36*
X532054D02*
X530386Y30217D01*
X528759Y29826D01*
X527213Y29186D01*
X525786Y28311D01*
X524514Y27225D01*
X523427Y25953D01*
X522553Y24526D01*
X521913Y22980D01*
X521522Y21353D01*
X521391Y19685D01*
X521522Y18017D01*
X521913Y16390D01*
X522553Y14844D01*
X523427Y13418D01*
X524514Y12145D01*
X525786Y11059D01*
X527213Y10184D01*
X528759Y9544D01*
X530386Y9154D01*
X532054Y9022D01*
X533722Y9154D01*
X535349Y9544D01*
X536895Y10184D01*
X538321Y11059D01*
X539594Y12145D01*
X540680Y13418D01*
X541554Y14844D01*
X542195Y16390D01*
X542585Y18017D01*
X542717Y19685D01*
X542585Y21353D01*
X542195Y22980D01*
X541554Y24526D01*
X540680Y25953D01*
X539594Y27225D01*
X538321Y28311D01*
X536895Y29186D01*
X535349Y29826D01*
X533722Y30217D01*
X532054Y30348D01*
D02*
G37*
G36*
X492093D02*
X491700D01*
X490031Y30217D01*
X488405Y29826D01*
X486859Y29186D01*
X485432Y28311D01*
X484160Y27225D01*
X483073Y25953D01*
X482199Y24526D01*
X481559Y22980D01*
X481168Y21353D01*
X481037Y19685D01*
X481168Y18017D01*
X481559Y16390D01*
X482199Y14844D01*
X483073Y13418D01*
X484160Y12145D01*
X485432Y11059D01*
X486859Y10184D01*
X488405Y9544D01*
X490031Y9154D01*
X491700Y9022D01*
X492093D01*
X493761Y9154D01*
X495388Y9544D01*
X496934Y10184D01*
X498361Y11059D01*
X499633Y12145D01*
X500719Y13418D01*
X501594Y14844D01*
X502234Y16390D01*
X502625Y18017D01*
X502756Y19685D01*
X502625Y21353D01*
X502234Y22980D01*
X501594Y24526D01*
X500719Y25953D01*
X499633Y27225D01*
X498361Y28311D01*
X496934Y29186D01*
X495388Y29826D01*
X493761Y30217D01*
X492093Y30348D01*
D02*
G37*
G36*
X414206D02*
X412538Y30217D01*
X410911Y29826D01*
X409365Y29186D01*
X407939Y28311D01*
X406666Y27225D01*
X405580Y25953D01*
X404705Y24526D01*
X404065Y22980D01*
X403675Y21353D01*
X403543Y19685D01*
X403675Y18017D01*
X404065Y16390D01*
X404705Y14844D01*
X405580Y13418D01*
X406666Y12145D01*
X407939Y11059D01*
X409365Y10184D01*
X410911Y9544D01*
X412538Y9154D01*
X414206Y9022D01*
X415874Y9154D01*
X417501Y9544D01*
X419047Y10184D01*
X420473Y11059D01*
X421746Y12145D01*
X422832Y13418D01*
X423707Y14844D01*
X424347Y16390D01*
X424738Y18017D01*
X424869Y19685D01*
X424738Y21353D01*
X424347Y22980D01*
X423707Y24526D01*
X422832Y25953D01*
X421746Y27225D01*
X420473Y28311D01*
X419047Y29186D01*
X417501Y29826D01*
X415874Y30217D01*
X414206Y30348D01*
D02*
G37*
G36*
X374245D02*
X373852D01*
X372184Y30217D01*
X370557Y29826D01*
X369011Y29186D01*
X367584Y28311D01*
X366312Y27225D01*
X365225Y25953D01*
X364351Y24526D01*
X363711Y22980D01*
X363320Y21353D01*
X363189Y19685D01*
X363320Y18017D01*
X363711Y16390D01*
X364351Y14844D01*
X365225Y13418D01*
X366312Y12145D01*
X367584Y11059D01*
X369011Y10184D01*
X370557Y9544D01*
X372184Y9154D01*
X373852Y9022D01*
X374245D01*
X375913Y9154D01*
X377540Y9544D01*
X379086Y10184D01*
X380513Y11059D01*
X381785Y12145D01*
X382872Y13418D01*
X383746Y14844D01*
X384386Y16390D01*
X384777Y18017D01*
X384908Y19685D01*
X384777Y21353D01*
X384386Y22980D01*
X383746Y24526D01*
X382872Y25953D01*
X381785Y27225D01*
X380513Y28311D01*
X379086Y29186D01*
X377540Y29826D01*
X375913Y30217D01*
X374245Y30348D01*
D02*
G37*
G36*
X296358D02*
X294690Y30217D01*
X293063Y29826D01*
X291517Y29186D01*
X290091Y28311D01*
X288819Y27225D01*
X287732Y25953D01*
X286858Y24526D01*
X286217Y22980D01*
X285827Y21353D01*
X285696Y19685D01*
X285827Y18017D01*
X286217Y16390D01*
X286858Y14844D01*
X287732Y13418D01*
X288819Y12145D01*
X290091Y11059D01*
X291517Y10184D01*
X293063Y9544D01*
X294690Y9154D01*
X296358Y9022D01*
X298026Y9154D01*
X299653Y9544D01*
X301199Y10184D01*
X302626Y11059D01*
X303898Y12145D01*
X304985Y13418D01*
X305859Y14844D01*
X306499Y16390D01*
X306890Y18017D01*
X307021Y19685D01*
X306890Y21353D01*
X306499Y22980D01*
X305859Y24526D01*
X304985Y25953D01*
X303898Y27225D01*
X302626Y28311D01*
X301199Y29186D01*
X299653Y29826D01*
X298026Y30217D01*
X296358Y30348D01*
D02*
G37*
G36*
X256398D02*
X256004D01*
X254336Y30217D01*
X252709Y29826D01*
X251163Y29186D01*
X249736Y28311D01*
X248464Y27225D01*
X247378Y25953D01*
X246503Y24526D01*
X245863Y22980D01*
X245472Y21353D01*
X245341Y19685D01*
X245472Y18017D01*
X245863Y16390D01*
X246503Y14844D01*
X247378Y13418D01*
X248464Y12145D01*
X249736Y11059D01*
X251163Y10184D01*
X252709Y9544D01*
X254336Y9154D01*
X256004Y9022D01*
X256398D01*
X258066Y9154D01*
X259693Y9544D01*
X261239Y10184D01*
X262665Y11059D01*
X263937Y12145D01*
X265024Y13418D01*
X265898Y14844D01*
X266539Y16390D01*
X266929Y18017D01*
X267060Y19685D01*
X266929Y21353D01*
X266539Y22980D01*
X265898Y24526D01*
X265024Y25953D01*
X263937Y27225D01*
X262665Y28311D01*
X261239Y29186D01*
X259693Y29826D01*
X258066Y30217D01*
X256398Y30348D01*
D02*
G37*
G36*
X114173D02*
X112505Y30217D01*
X110878Y29826D01*
X109332Y29186D01*
X107906Y28311D01*
X106633Y27225D01*
X105547Y25953D01*
X104673Y24526D01*
X104032Y22980D01*
X103642Y21353D01*
X103510Y19685D01*
X103642Y18017D01*
X104032Y16390D01*
X104673Y14844D01*
X105547Y13418D01*
X106633Y12145D01*
X107906Y11059D01*
X109332Y10184D01*
X110878Y9544D01*
X112505Y9154D01*
X114173Y9022D01*
X115841Y9154D01*
X117468Y9544D01*
X119014Y10184D01*
X120441Y11059D01*
X121713Y12145D01*
X122800Y13418D01*
X123674Y14844D01*
X124314Y16390D01*
X124705Y18017D01*
X124836Y19685D01*
X124705Y21353D01*
X124314Y22980D01*
X123674Y24526D01*
X122800Y25953D01*
X121713Y27225D01*
X120441Y28311D01*
X119014Y29186D01*
X117468Y29826D01*
X115841Y30217D01*
X114173Y30348D01*
D02*
G37*
G36*
X74213D02*
X73819D01*
X72151Y30217D01*
X70524Y29826D01*
X68978Y29186D01*
X67551Y28311D01*
X66279Y27225D01*
X65193Y25953D01*
X64318Y24526D01*
X63678Y22980D01*
X63287Y21353D01*
X63156Y19685D01*
X63287Y18017D01*
X63678Y16390D01*
X64318Y14844D01*
X65193Y13418D01*
X66279Y12145D01*
X67551Y11059D01*
X68978Y10184D01*
X70524Y9544D01*
X72151Y9154D01*
X73819Y9022D01*
X74213D01*
X75881Y9154D01*
X77508Y9544D01*
X79053Y10184D01*
X80480Y11059D01*
X81752Y12145D01*
X82839Y13418D01*
X83713Y14844D01*
X84354Y16390D01*
X84744Y18017D01*
X84875Y19685D01*
X84744Y21353D01*
X84354Y22980D01*
X83713Y24526D01*
X82839Y25953D01*
X81752Y27225D01*
X80480Y28311D01*
X79053Y29186D01*
X77508Y29826D01*
X75881Y30217D01*
X74213Y30348D01*
D02*
G37*
G36*
X885827Y34495D02*
X883510Y34312D01*
X881250Y33770D01*
X879103Y32880D01*
X877122Y31666D01*
X875355Y30157D01*
X873846Y28390D01*
X872631Y26408D01*
X871742Y24261D01*
X871200Y22002D01*
X871017Y19685D01*
X871200Y17368D01*
X871742Y15109D01*
X872631Y12962D01*
X873846Y10980D01*
X875355Y9213D01*
X877122Y7704D01*
X879103Y6490D01*
X881250Y5600D01*
X883510Y5058D01*
X885827Y4876D01*
X888144Y5058D01*
X890403Y5600D01*
X892550Y6490D01*
X894532Y7704D01*
X896299Y9213D01*
X897808Y10980D01*
X899022Y12962D01*
X899911Y15109D01*
X900454Y17368D01*
X900636Y19685D01*
X900454Y22002D01*
X899911Y24261D01*
X899022Y26408D01*
X897808Y28390D01*
X896299Y30157D01*
X894532Y31666D01*
X892550Y32880D01*
X890403Y33770D01*
X888144Y34312D01*
X885827Y34495D01*
D02*
G37*
G36*
X19685D02*
X17368Y34312D01*
X15109Y33770D01*
X12962Y32880D01*
X10980Y31666D01*
X9213Y30157D01*
X7704Y28390D01*
X6490Y26408D01*
X5600Y24261D01*
X5058Y22002D01*
X4876Y19685D01*
X5058Y17368D01*
X5600Y15109D01*
X6490Y12962D01*
X7704Y10980D01*
X9213Y9213D01*
X10980Y7704D01*
X12962Y6490D01*
X15109Y5600D01*
X17368Y5058D01*
X19685Y4876D01*
X22002Y5058D01*
X24261Y5600D01*
X26408Y6490D01*
X28390Y7704D01*
X30157Y9213D01*
X31666Y10980D01*
X32880Y12962D01*
X33770Y15109D01*
X34312Y17368D01*
X34495Y19685D01*
X34312Y22002D01*
X33770Y24261D01*
X32880Y26408D01*
X31666Y28390D01*
X30157Y30157D01*
X28390Y31666D01*
X26408Y32880D01*
X24261Y33770D01*
X22002Y34312D01*
X19685Y34495D01*
D02*
G37*
%LPD*%
D15*
X279134Y354331D02*
X311417D01*
D45*
X522638Y218347D02*
D03*
Y228346D02*
D03*
Y218347D02*
D03*
Y228346D02*
D03*
D46*
X114173Y167323D02*
D03*
X74016D02*
D03*
X256201D02*
D03*
X296358D02*
D03*
X374048D02*
D03*
X414206D02*
D03*
X491896D02*
D03*
X532054D02*
D03*
X609744D02*
D03*
X649902D02*
D03*
X791634D02*
D03*
X831791D02*
D03*
D49*
X860827Y386811D02*
D03*
X856890Y378937D02*
D03*
X864764D02*
D03*
Y394685D02*
D03*
X856890D02*
D03*
X860827Y402559D02*
D03*
X864764Y410433D02*
D03*
X856890D02*
D03*
X852559Y386811D02*
D03*
X848622Y378937D02*
D03*
Y394685D02*
D03*
X852559Y402559D02*
D03*
X848622Y410433D02*
D03*
X561614Y386811D02*
D03*
X557677Y378937D02*
D03*
X565551D02*
D03*
Y394685D02*
D03*
X557677D02*
D03*
X561614Y402559D02*
D03*
X565551Y410433D02*
D03*
X557677D02*
D03*
X553346Y386811D02*
D03*
X549409Y378937D02*
D03*
Y394685D02*
D03*
X553346Y402559D02*
D03*
X549409Y410433D02*
D03*
X250197D02*
D03*
X254134Y402559D02*
D03*
X250197Y394685D02*
D03*
Y378937D02*
D03*
X254134Y386811D02*
D03*
X258465Y410433D02*
D03*
X266339D02*
D03*
X262402Y402559D02*
D03*
X258465Y394685D02*
D03*
X266339D02*
D03*
Y378937D02*
D03*
X258465D02*
D03*
X262402Y386811D02*
D03*
X855610Y637795D02*
D03*
X847736D02*
D03*
X851673Y645669D02*
D03*
X859547D02*
D03*
X855610Y653543D02*
D03*
X847736D02*
D03*
X859547Y661417D02*
D03*
X851673D02*
D03*
Y629921D02*
D03*
X859547D02*
D03*
X855610Y622047D02*
D03*
X859547Y614173D02*
D03*
X855610Y606299D02*
D03*
Y590551D02*
D03*
X859547Y598425D02*
D03*
X863878Y637795D02*
D03*
Y653543D02*
D03*
X867815Y661417D02*
D03*
Y629921D02*
D03*
X863878Y622047D02*
D03*
X871752D02*
D03*
X867815Y614173D02*
D03*
X863878Y606299D02*
D03*
X871752D02*
D03*
Y590551D02*
D03*
X863878D02*
D03*
X867815Y598425D02*
D03*
X556398Y637795D02*
D03*
X548524D02*
D03*
X552461Y645669D02*
D03*
X560335D02*
D03*
X556398Y653543D02*
D03*
X548524D02*
D03*
X560335Y661417D02*
D03*
X552461D02*
D03*
Y629921D02*
D03*
X560335D02*
D03*
X556398Y622047D02*
D03*
X560335Y614173D02*
D03*
X556398Y606299D02*
D03*
Y590551D02*
D03*
X560335Y598425D02*
D03*
X572539Y637795D02*
D03*
X564665D02*
D03*
X568602Y645669D02*
D03*
X572539Y653543D02*
D03*
X564665D02*
D03*
X568602Y661417D02*
D03*
Y629921D02*
D03*
X564665Y622047D02*
D03*
X572539D02*
D03*
X568602Y614173D02*
D03*
X564665Y606299D02*
D03*
X572539D02*
D03*
Y590551D02*
D03*
X564665D02*
D03*
X568602Y598425D02*
D03*
X269390D02*
D03*
X265453Y590551D02*
D03*
X273327D02*
D03*
Y606299D02*
D03*
X265453D02*
D03*
X269390Y614173D02*
D03*
X273327Y622047D02*
D03*
X265453D02*
D03*
X269390Y629921D02*
D03*
Y661417D02*
D03*
X265453Y653543D02*
D03*
X273327D02*
D03*
X269390Y645669D02*
D03*
X265453Y637795D02*
D03*
X273327D02*
D03*
X261122Y598425D02*
D03*
X257185Y590551D02*
D03*
Y606299D02*
D03*
X261122Y614173D02*
D03*
X257185Y622047D02*
D03*
X261122Y629921D02*
D03*
X253248D02*
D03*
Y661417D02*
D03*
X261122D02*
D03*
X249311Y653543D02*
D03*
X257185D02*
D03*
X261122Y645669D02*
D03*
X253248D02*
D03*
X249311Y637795D02*
D03*
X257185D02*
D03*
X59055Y440945D02*
D03*
X11811Y456693D02*
D03*
X354331Y637796D02*
D03*
X338583Y622048D02*
D03*
X31496Y574803D02*
D03*
X322835Y511811D02*
D03*
X625985Y535433D02*
D03*
X19685Y598426D02*
D03*
X31496Y543307D02*
D03*
X35433Y598426D02*
D03*
X661418Y637796D02*
D03*
X7874Y622048D02*
D03*
X637796Y606300D02*
D03*
X649607Y440945D02*
D03*
X330709Y496063D02*
D03*
X354331Y448819D02*
D03*
X444882Y661418D02*
D03*
X645670Y590552D02*
D03*
X330709Y653544D02*
D03*
X35433Y582678D02*
D03*
X7874Y590552D02*
D03*
X35433Y503937D02*
D03*
X653544Y606300D02*
D03*
X641733Y645670D02*
D03*
X358268Y661418D02*
D03*
X633859Y566929D02*
D03*
X55118Y448819D02*
D03*
X7874D02*
D03*
X23622Y543307D02*
D03*
X326772Y551182D02*
D03*
X7874Y433071D02*
D03*
X326772Y488189D02*
D03*
X661418Y590552D02*
D03*
X74803Y661418D02*
D03*
X35433Y488189D02*
D03*
X649607Y661418D02*
D03*
X19685Y472441D02*
D03*
X330709Y637796D02*
D03*
X645670Y433071D02*
D03*
X326772Y582678D02*
D03*
X622048Y433071D02*
D03*
X330709Y511811D02*
D03*
X629922Y653544D02*
D03*
X342520Y629922D02*
D03*
X23622Y496063D02*
D03*
X19685Y488189D02*
D03*
X649607Y629922D02*
D03*
X27559D02*
D03*
X90551Y661418D02*
D03*
X346457Y637796D02*
D03*
X39370Y433071D02*
D03*
X358268Y598426D02*
D03*
X381890Y661418D02*
D03*
X19685Y456693D02*
D03*
X59055Y614174D02*
D03*
X645670Y448819D02*
D03*
X641733Y629922D02*
D03*
X35433Y551182D02*
D03*
X661418Y448819D02*
D03*
X622048Y496063D02*
D03*
X23622Y574803D02*
D03*
X326772Y535433D02*
D03*
X330709Y559056D02*
D03*
X51181Y440945D02*
D03*
X633859Y661418D02*
D03*
X35433Y519685D02*
D03*
X358268Y645670D02*
D03*
X366142Y614174D02*
D03*
X51181Y661418D02*
D03*
X629922Y574803D02*
D03*
Y496063D02*
D03*
X342520Y598426D02*
D03*
X362205Y606300D02*
D03*
X633859Y488189D02*
D03*
X11811Y629922D02*
D03*
X326772Y503937D02*
D03*
X7874Y606300D02*
D03*
X334646Y456693D02*
D03*
X7874Y574803D02*
D03*
X59055Y661418D02*
D03*
X7874Y559056D02*
D03*
X657481Y661418D02*
D03*
X15748Y464567D02*
D03*
X31496Y559056D02*
D03*
X622048Y543307D02*
D03*
X334646Y566929D02*
D03*
X114173Y661418D02*
D03*
X35433Y614174D02*
D03*
X350394Y645670D02*
D03*
X27559Y425197D02*
D03*
X736221Y661418D02*
D03*
X649607Y598426D02*
D03*
X322835Y637796D02*
D03*
X23622Y511811D02*
D03*
X350394Y614174D02*
D03*
X421260Y661418D02*
D03*
X625985Y551182D02*
D03*
X350394Y629922D02*
D03*
X374016Y661418D02*
D03*
X362205Y590552D02*
D03*
X326772Y425197D02*
D03*
X342520Y645670D02*
D03*
X59055D02*
D03*
X330709Y433071D02*
D03*
X326772Y661418D02*
D03*
X330709Y606300D02*
D03*
X334646Y582678D02*
D03*
X322835Y496063D02*
D03*
X330709Y622048D02*
D03*
X338583Y448819D02*
D03*
X681103Y661418D02*
D03*
X27559Y472441D02*
D03*
X39370Y653544D02*
D03*
X633859Y440945D02*
D03*
X665355Y614174D02*
D03*
X338583Y653544D02*
D03*
X362205Y448819D02*
D03*
X661418Y606300D02*
D03*
X342520Y425197D02*
D03*
X629922Y559056D02*
D03*
X641733Y598426D02*
D03*
X39370Y622048D02*
D03*
X625985Y503937D02*
D03*
X354331Y606300D02*
D03*
X7874Y511811D02*
D03*
X62992Y653544D02*
D03*
X322835Y480315D02*
D03*
X622048Y622048D02*
D03*
X23622Y590552D02*
D03*
X346457Y622048D02*
D03*
X625985Y456693D02*
D03*
X633859Y503937D02*
D03*
X657481Y629922D02*
D03*
X27559Y503937D02*
D03*
X625985Y566929D02*
D03*
X23622Y559056D02*
D03*
X35433Y566929D02*
D03*
X47244Y448819D02*
D03*
Y653544D02*
D03*
X645670Y606300D02*
D03*
X338583Y637796D02*
D03*
X27559Y614174D02*
D03*
X51181Y598426D02*
D03*
X43307Y661418D02*
D03*
X15748Y590552D02*
D03*
X39370Y606300D02*
D03*
X322835Y590552D02*
D03*
X15748Y559056D02*
D03*
X47244Y590552D02*
D03*
X15748Y622048D02*
D03*
X629922Y480315D02*
D03*
X23622Y464567D02*
D03*
X31496Y527559D02*
D03*
X15748Y543307D02*
D03*
X334646Y598426D02*
D03*
X629922Y448819D02*
D03*
X334646Y645670D02*
D03*
X59055Y629922D02*
D03*
X11811Y582678D02*
D03*
X661418Y622048D02*
D03*
X35433Y629922D02*
D03*
X625985Y519685D02*
D03*
X653544Y590552D02*
D03*
X43307Y614174D02*
D03*
X625985Y440945D02*
D03*
X330709Y464567D02*
D03*
X350394Y440945D02*
D03*
X23622Y622048D02*
D03*
X405512Y661418D02*
D03*
X622048Y511811D02*
D03*
X35433Y440945D02*
D03*
X55118Y622048D02*
D03*
X354331D02*
D03*
X11811Y488189D02*
D03*
X7874Y527559D02*
D03*
X657481Y645670D02*
D03*
X27559Y566929D02*
D03*
X633859Y582678D02*
D03*
X322835Y574803D02*
D03*
X653544Y433071D02*
D03*
X27559Y456693D02*
D03*
X55118Y606300D02*
D03*
X622048Y527559D02*
D03*
X637796Y496063D02*
D03*
X11811Y566929D02*
D03*
X35433Y425197D02*
D03*
X326772Y440945D02*
D03*
X23622Y606300D02*
D03*
X342520Y440945D02*
D03*
X622048Y653544D02*
D03*
Y606300D02*
D03*
X653544Y448819D02*
D03*
X66929Y614174D02*
D03*
X330709Y590552D02*
D03*
X62992Y448819D02*
D03*
X712599Y661418D02*
D03*
X649607Y614174D02*
D03*
X106299Y661418D02*
D03*
X322835Y559056D02*
D03*
X11811Y598426D02*
D03*
X622048Y590552D02*
D03*
X350394Y598426D02*
D03*
X346457Y590552D02*
D03*
X625985Y614174D02*
D03*
X62992Y606300D02*
D03*
X27559Y488189D02*
D03*
X19685Y582678D02*
D03*
X39370Y590552D02*
D03*
X322835Y527559D02*
D03*
X413386Y661418D02*
D03*
X7874Y480315D02*
D03*
X330709D02*
D03*
X366142Y661418D02*
D03*
X629922Y511811D02*
D03*
X334646Y551182D02*
D03*
X23622Y480315D02*
D03*
X334646Y661418D02*
D03*
X326772Y456693D02*
D03*
X665355Y661418D02*
D03*
X31496Y433071D02*
D03*
X55118Y637796D02*
D03*
X322835Y464567D02*
D03*
X346457Y653544D02*
D03*
X358268Y629922D02*
D03*
X326772Y519685D02*
D03*
X688977Y661418D02*
D03*
X629922Y527559D02*
D03*
X322835Y606300D02*
D03*
X362205Y622048D02*
D03*
X11811Y440945D02*
D03*
X637796Y448819D02*
D03*
X27559Y582678D02*
D03*
X31496Y590552D02*
D03*
X637796Y433071D02*
D03*
X704725Y661418D02*
D03*
X334646Y425197D02*
D03*
X11811Y519685D02*
D03*
X15748Y574803D02*
D03*
X19685Y425197D02*
D03*
X334646Y629922D02*
D03*
X330709Y527559D02*
D03*
X19685Y440945D02*
D03*
X31496Y448819D02*
D03*
X637796Y637796D02*
D03*
X629922Y543307D02*
D03*
X661418Y653544D02*
D03*
X15748Y511811D02*
D03*
X622048Y464567D02*
D03*
X11811Y535433D02*
D03*
X43307Y598426D02*
D03*
X62992Y590552D02*
D03*
X47244Y433071D02*
D03*
X35433Y456693D02*
D03*
X625985Y472441D02*
D03*
X43307Y645670D02*
D03*
X622048Y448819D02*
D03*
X31496Y480315D02*
D03*
X15748Y606300D02*
D03*
X641733Y425197D02*
D03*
X19685Y551182D02*
D03*
X31496Y511811D02*
D03*
X657481Y440945D02*
D03*
X354331Y590552D02*
D03*
X358268Y614174D02*
D03*
X633859Y535433D02*
D03*
X11811Y472441D02*
D03*
X641733Y614174D02*
D03*
X31496Y622048D02*
D03*
X622048Y559056D02*
D03*
X326772Y629922D02*
D03*
Y598426D02*
D03*
X19685Y519685D02*
D03*
X43307Y425197D02*
D03*
X55118Y653544D02*
D03*
X657481Y614174D02*
D03*
X334646D02*
D03*
X15748Y433071D02*
D03*
X23622D02*
D03*
X27559Y535433D02*
D03*
X7874Y464567D02*
D03*
X338583Y496063D02*
D03*
X51181Y614174D02*
D03*
X633859Y472441D02*
D03*
X27559Y598426D02*
D03*
X358268Y440945D02*
D03*
X629922Y606300D02*
D03*
X330709Y574803D02*
D03*
X338583Y433071D02*
D03*
X15748Y527559D02*
D03*
X633859Y629922D02*
D03*
X11811Y551182D02*
D03*
X19685Y629922D02*
D03*
X637796Y653544D02*
D03*
X622048Y574803D02*
D03*
X322835Y433071D02*
D03*
X437008Y661418D02*
D03*
X27559Y551182D02*
D03*
X334646Y440945D02*
D03*
X728347Y661418D02*
D03*
X31496Y496063D02*
D03*
X62992Y637796D02*
D03*
X43307Y629922D02*
D03*
X15748Y496063D02*
D03*
Y448819D02*
D03*
X641733Y661418D02*
D03*
X19685Y535433D02*
D03*
X338583Y590552D02*
D03*
X47244Y622048D02*
D03*
X633859Y551182D02*
D03*
X23622Y448819D02*
D03*
X326772Y645670D02*
D03*
X633859Y456693D02*
D03*
X322835Y543307D02*
D03*
X55118Y590552D02*
D03*
X43307Y440945D02*
D03*
X334646Y472441D02*
D03*
X629922Y622048D02*
D03*
X641733Y440945D02*
D03*
X39370Y637796D02*
D03*
Y448819D02*
D03*
X645670Y637796D02*
D03*
X673229Y661418D02*
D03*
X322835Y448819D02*
D03*
X645670Y653544D02*
D03*
X35433Y535433D02*
D03*
X23622Y527559D02*
D03*
X19685Y503937D02*
D03*
X11811D02*
D03*
X137795Y661418D02*
D03*
X15748Y480315D02*
D03*
X334646Y503937D02*
D03*
X346457Y606300D02*
D03*
Y433071D02*
D03*
X334646Y488189D02*
D03*
X330709Y448819D02*
D03*
X622048Y637796D02*
D03*
X629922Y464567D02*
D03*
X633859Y425197D02*
D03*
X51181Y645670D02*
D03*
X657481Y598426D02*
D03*
X625985Y488189D02*
D03*
X62992Y622048D02*
D03*
X82677Y661418D02*
D03*
X334646Y519685D02*
D03*
X633859Y645670D02*
D03*
X322835Y622048D02*
D03*
X653544D02*
D03*
X625985Y629922D02*
D03*
X350394Y661418D02*
D03*
X7874Y543307D02*
D03*
X27559Y440945D02*
D03*
X39370Y496063D02*
D03*
X633859Y598426D02*
D03*
X629922Y637796D02*
D03*
X326772Y614174D02*
D03*
X47244Y606300D02*
D03*
Y637796D02*
D03*
X389764Y661418D02*
D03*
X31496Y606300D02*
D03*
X362205Y653544D02*
D03*
X645670Y622048D02*
D03*
X625985Y661418D02*
D03*
X633859Y614174D02*
D03*
X342520D02*
D03*
X354331Y653544D02*
D03*
X11811Y425197D02*
D03*
X720473Y661418D02*
D03*
X7874Y496063D02*
D03*
X338583Y606300D02*
D03*
X19685Y566929D02*
D03*
X35433Y472441D02*
D03*
X66929Y661418D02*
D03*
X362205Y637796D02*
D03*
X653544Y653544D02*
D03*
X31496Y464567D02*
D03*
X653544Y637796D02*
D03*
X342520Y661418D02*
D03*
X129921D02*
D03*
X633859Y519685D02*
D03*
X27559D02*
D03*
X11811Y614174D02*
D03*
X55118Y433071D02*
D03*
X629922Y590552D02*
D03*
X354331Y433071D02*
D03*
X625985Y425197D02*
D03*
X35433Y661418D02*
D03*
X59055Y598426D02*
D03*
X326772Y472441D02*
D03*
X330709Y543307D02*
D03*
X649607Y645670D02*
D03*
X19685Y614174D02*
D03*
X122047Y661418D02*
D03*
X346457Y448819D02*
D03*
X322835Y653544D02*
D03*
X51181Y629922D02*
D03*
X326772Y566929D02*
D03*
X625985Y598426D02*
D03*
Y645670D02*
D03*
X629922Y433071D02*
D03*
X637796Y622048D02*
D03*
X429134Y661418D02*
D03*
X625985Y582678D02*
D03*
X637796Y590552D02*
D03*
X622048Y480315D02*
D03*
X145669Y661418D02*
D03*
X334646Y535433D02*
D03*
D50*
X740787Y55276D02*
D03*
X730787D02*
D03*
X720787D02*
D03*
X710787D02*
D03*
X700787D02*
D03*
X740787Y65276D02*
D03*
X730787D02*
D03*
X720787D02*
D03*
X710787D02*
D03*
X700787D02*
D03*
X740787Y75276D02*
D03*
X730787D02*
D03*
X720787D02*
D03*
X710787D02*
D03*
X700787D02*
D03*
X740787Y85276D02*
D03*
X730787D02*
D03*
X720787D02*
D03*
X710787D02*
D03*
X700787D02*
D03*
Y45276D02*
D03*
X710787D02*
D03*
X720787D02*
D03*
X730787D02*
D03*
X740787D02*
D03*
D03*
X730787D02*
D03*
X720787D02*
D03*
X710787D02*
D03*
X700787D02*
D03*
X165354D02*
D03*
X175354D02*
D03*
X185354D02*
D03*
X195354D02*
D03*
X205354D02*
D03*
D03*
X195354D02*
D03*
X185354D02*
D03*
X175354D02*
D03*
X165354D02*
D03*
Y85276D02*
D03*
X175354D02*
D03*
X185354D02*
D03*
X195354D02*
D03*
X205354D02*
D03*
X165354Y75276D02*
D03*
X175354D02*
D03*
X185354D02*
D03*
X195354D02*
D03*
X205354D02*
D03*
X165354Y65276D02*
D03*
X175354D02*
D03*
X185354D02*
D03*
X195354D02*
D03*
X205354D02*
D03*
X165354Y55276D02*
D03*
X175354D02*
D03*
X185354D02*
D03*
X195354D02*
D03*
X205354D02*
D03*
X771969Y509134D02*
D03*
X761969D02*
D03*
X751968D02*
D03*
X741968D02*
D03*
X731968D02*
D03*
X771969Y519134D02*
D03*
X761969D02*
D03*
X751968D02*
D03*
X741968D02*
D03*
X731968D02*
D03*
X771969Y529134D02*
D03*
X761969D02*
D03*
X751968D02*
D03*
X741968D02*
D03*
X731968D02*
D03*
X771969Y539134D02*
D03*
X761969D02*
D03*
X751968D02*
D03*
X741968D02*
D03*
X731968D02*
D03*
Y499134D02*
D03*
X741968D02*
D03*
X751968D02*
D03*
X761969D02*
D03*
X771969D02*
D03*
D03*
X761969D02*
D03*
X751968D02*
D03*
X741968D02*
D03*
X731968D02*
D03*
X432756D02*
D03*
X442756D02*
D03*
X452756D02*
D03*
X462756D02*
D03*
X472756D02*
D03*
D03*
X462756D02*
D03*
X452756D02*
D03*
X442756D02*
D03*
X432756D02*
D03*
Y539134D02*
D03*
X442756D02*
D03*
X452756D02*
D03*
X462756D02*
D03*
X472756D02*
D03*
X432756Y529134D02*
D03*
X442756D02*
D03*
X452756D02*
D03*
X462756D02*
D03*
X472756D02*
D03*
X432756Y519134D02*
D03*
X442756D02*
D03*
X452756D02*
D03*
X462756D02*
D03*
X472756D02*
D03*
X432756Y509134D02*
D03*
X442756D02*
D03*
X452756D02*
D03*
X462756D02*
D03*
X472756D02*
D03*
X173543D02*
D03*
X163543D02*
D03*
X153543D02*
D03*
X143543D02*
D03*
X133543D02*
D03*
X173543Y519134D02*
D03*
X163543D02*
D03*
X153543D02*
D03*
X143543D02*
D03*
X133543D02*
D03*
X173543Y529134D02*
D03*
X163543D02*
D03*
X153543D02*
D03*
X143543D02*
D03*
X133543D02*
D03*
X173543Y539134D02*
D03*
X163543D02*
D03*
X153543D02*
D03*
X143543D02*
D03*
X133543D02*
D03*
Y499134D02*
D03*
X143543D02*
D03*
X153543D02*
D03*
X163543D02*
D03*
X173543D02*
D03*
D03*
X163543D02*
D03*
X153543D02*
D03*
X143543D02*
D03*
X133543D02*
D03*
D53*
X279134Y354331D02*
D03*
X788586Y356594D02*
D03*
X795751D02*
D03*
X792169D02*
D03*
X191201D02*
D03*
X198366D02*
D03*
X194783D02*
D03*
X494686D02*
D03*
X498268D02*
D03*
X491103D02*
D03*
X121273Y431493D02*
D03*
X597835Y130020D02*
D03*
Y123671D02*
D03*
Y117323D02*
D03*
Y110974D02*
D03*
Y104626D02*
D03*
Y98277D02*
D03*
Y91929D02*
D03*
Y85581D02*
D03*
Y79232D02*
D03*
Y72884D02*
D03*
Y66535D02*
D03*
X602608Y126845D02*
D03*
Y120497D02*
D03*
Y114149D02*
D03*
Y107800D02*
D03*
Y101452D02*
D03*
Y95103D02*
D03*
Y88755D02*
D03*
Y82407D02*
D03*
Y76058D02*
D03*
Y69710D02*
D03*
X607382Y66535D02*
D03*
Y72884D02*
D03*
Y79232D02*
D03*
Y85581D02*
D03*
Y91929D02*
D03*
Y98277D02*
D03*
Y104626D02*
D03*
Y110974D02*
D03*
Y117323D02*
D03*
Y123671D02*
D03*
Y130020D02*
D03*
X719737Y431493D02*
D03*
X675315D02*
D03*
X685981Y484488D02*
D03*
Y529134D02*
D03*
Y573780D02*
D03*
X695315Y606776D02*
D03*
X739737D02*
D03*
X420524Y431493D02*
D03*
X376102D02*
D03*
X386768Y484488D02*
D03*
Y529134D02*
D03*
Y573780D02*
D03*
X396102Y606776D02*
D03*
X440524D02*
D03*
X141273D02*
D03*
X96850D02*
D03*
X87555Y573780D02*
D03*
Y529134D02*
D03*
Y484488D02*
D03*
X76850Y431493D02*
D03*
D55*
X686020D02*
Y484488D01*
X675315Y431493D02*
X686020D01*
X719737D01*
X686020Y484488D02*
Y529134D01*
Y573780D01*
Y597481D01*
X695315Y606776D01*
X739737D01*
X386807Y431493D02*
Y484488D01*
X376102Y431493D02*
X386807D01*
X420524D01*
X386807Y484488D02*
Y529134D01*
Y573780D01*
Y597481D01*
X396102Y606776D01*
X440524D01*
X96850D02*
X141273D01*
X87555Y597481D02*
X96850Y606776D01*
X87555Y573780D02*
Y597481D01*
Y529134D02*
Y573780D01*
Y484488D02*
Y529134D01*
Y431493D02*
X121273D01*
X76850D02*
X87555D01*
Y484488D01*
M02*
