G04*
G04 #@! TF.GenerationSoftware,Altium Limited,Altium Designer,18.1.11 (251)*
G04*
G04 Layer_Physical_Order=1*
G04 Layer_Color=255*
%FSLAX25Y25*%
%MOIN*%
G70*
G01*
G75*
%ADD11C,0.02362*%
%ADD13C,0.01000*%
%ADD14C,0.00787*%
%ADD16C,0.01968*%
%ADD19R,0.03347X0.03543*%
%ADD20R,0.03150X0.03150*%
%ADD21R,0.26772X0.28347*%
%ADD22R,0.04528X0.08661*%
%ADD23O,0.02362X0.05906*%
G04:AMPARAMS|DCode=24|XSize=11.81mil|YSize=57.09mil|CornerRadius=0mil|HoleSize=0mil|Usage=FLASHONLY|Rotation=225.000|XOffset=0mil|YOffset=0mil|HoleType=Round|Shape=Round|*
%AMOVALD24*
21,1,0.04528,0.01181,0.00000,0.00000,315.0*
1,1,0.01181,-0.01601,0.01601*
1,1,0.01181,0.01601,-0.01601*
%
%ADD24OVALD24*%

G04:AMPARAMS|DCode=25|XSize=39.37mil|YSize=29.53mil|CornerRadius=0mil|HoleSize=0mil|Usage=FLASHONLY|Rotation=315.000|XOffset=0mil|YOffset=0mil|HoleType=Round|Shape=Rectangle|*
%AMROTATEDRECTD25*
4,1,4,-0.02436,0.00348,-0.00348,0.02436,0.02436,-0.00348,0.00348,-0.02436,-0.02436,0.00348,0.0*
%
%ADD25ROTATEDRECTD25*%

G04:AMPARAMS|DCode=26|XSize=39.37mil|YSize=41.34mil|CornerRadius=0mil|HoleSize=0mil|Usage=FLASHONLY|Rotation=45.000|XOffset=0mil|YOffset=0mil|HoleType=Round|Shape=Rectangle|*
%AMROTATEDRECTD26*
4,1,4,0.00070,-0.02854,-0.02854,0.00070,-0.00070,0.02854,0.02854,-0.00070,0.00070,-0.02854,0.0*
%
%ADD26ROTATEDRECTD26*%

G04:AMPARAMS|DCode=27|XSize=39.37mil|YSize=41.34mil|CornerRadius=0mil|HoleSize=0mil|Usage=FLASHONLY|Rotation=315.000|XOffset=0mil|YOffset=0mil|HoleType=Round|Shape=Rectangle|*
%AMROTATEDRECTD27*
4,1,4,-0.02854,-0.00070,0.00070,0.02854,0.02854,0.00070,-0.00070,-0.02854,-0.02854,-0.00070,0.0*
%
%ADD27ROTATEDRECTD27*%

%ADD28R,0.28347X0.26772*%
%ADD29R,0.08661X0.04528*%
%ADD30R,0.12205X0.09646*%
%ADD31R,0.03937X0.02953*%
%ADD32R,0.04724X0.07480*%
%ADD33R,0.03937X0.01378*%
%ADD34R,0.03000X0.11000*%
%ADD35R,0.06102X0.05118*%
%ADD36R,0.04724X0.05709*%
%ADD37R,0.03937X0.02362*%
%ADD38R,0.04921X0.06299*%
%ADD39R,0.05709X0.04724*%
G04:AMPARAMS|DCode=40|XSize=11.81mil|YSize=57.09mil|CornerRadius=0mil|HoleSize=0mil|Usage=FLASHONLY|Rotation=315.000|XOffset=0mil|YOffset=0mil|HoleType=Round|Shape=Round|*
%AMOVALD40*
21,1,0.04528,0.01181,0.00000,0.00000,45.0*
1,1,0.01181,-0.01601,-0.01601*
1,1,0.01181,0.01601,0.01601*
%
%ADD40OVALD40*%

%ADD41R,0.02953X0.03937*%
%ADD42O,0.01968X0.05315*%
%ADD43R,0.03543X0.03347*%
%ADD44R,0.07087X0.05118*%
%ADD45R,0.03937X0.04134*%
%ADD46R,0.07480X0.04724*%
%ADD47R,0.01378X0.03937*%
%ADD48R,0.05000X0.07165*%
%ADD49R,0.03937X0.08465*%
%ADD50R,0.12795X0.08465*%
%ADD51R,0.08661X0.10630*%
%ADD52R,0.04134X0.03937*%
%ADD53R,0.09843X0.12598*%
%ADD54O,0.09055X0.02362*%
%ADD55R,0.13583X0.08268*%
%ADD56O,0.01772X0.05512*%
%ADD57O,0.05315X0.01968*%
%ADD58R,0.06102X0.10039*%
%ADD59O,0.01772X0.05709*%
%ADD60R,0.09646X0.21260*%
%ADD61R,0.10039X0.06102*%
%ADD62R,0.14173X0.10630*%
%ADD119C,0.01500*%
%ADD120C,0.04724*%
%ADD121C,0.00606*%
%ADD122C,0.05906*%
%ADD123C,0.01394*%
%ADD124C,0.01575*%
%ADD125C,0.03150*%
%ADD126C,0.01181*%
%ADD127C,0.02953*%
%ADD128C,0.06299*%
%ADD129C,0.21654*%
%ADD130C,0.11811*%
%ADD131C,0.05268*%
%ADD132R,0.05268X0.05268*%
%ADD133C,0.07874*%
%ADD134C,0.09843*%
%ADD135C,0.02362*%
%ADD136C,0.01575*%
%ADD137C,0.02756*%
%ADD138C,0.01968*%
G36*
X298943Y401279D02*
Y397342D01*
X299090Y396607D01*
X299213Y396423D01*
Y395669D01*
X300197Y394685D01*
X316929D01*
X318366Y393248D01*
X318366Y387795D01*
X316791Y386221D01*
X282087D01*
X280512Y387795D01*
Y392717D01*
X282480Y394685D01*
X296654D01*
X297638Y395669D01*
Y396600D01*
X297642Y396607D01*
X297789Y397342D01*
Y401279D01*
X298031Y401575D01*
X298701D01*
X298943Y401279D01*
D02*
G37*
G36*
X859252Y268701D02*
X859252Y248031D01*
X854331Y243110D01*
X814961Y243110D01*
X810039Y248031D01*
Y262795D01*
X815945Y268701D01*
X859252Y268701D01*
D02*
G37*
G36*
X66929Y226907D02*
X31012Y226907D01*
X30512Y227365D01*
Y243110D01*
X35433Y248031D01*
X66929D01*
Y226907D01*
D02*
G37*
G36*
X134843Y229921D02*
Y219052D01*
X132874Y217084D01*
X126531D01*
X123031Y213584D01*
X100002D01*
X95472Y209055D01*
X85630Y209055D01*
X82677Y212008D01*
X71752D01*
X71752Y215059D01*
X76559Y219866D01*
X76886D01*
Y220193D01*
X79652Y222959D01*
X87723Y222959D01*
X92520Y227756D01*
X116465D01*
X120079Y231369D01*
X133395D01*
X134843Y229921D01*
D02*
G37*
G36*
X66929Y220966D02*
X64086Y218123D01*
X48338D01*
X46260Y216045D01*
Y211124D01*
X57087D01*
Y203250D01*
X45276D01*
Y194768D01*
X42323Y191815D01*
Y189031D01*
X31735D01*
X26575Y194191D01*
Y221850D01*
X30612Y225887D01*
X66929Y225887D01*
X66929Y220966D01*
D02*
G37*
G36*
X180020Y249606D02*
Y245571D01*
X180062Y245528D01*
Y243406D01*
X180118Y243125D01*
Y240551D01*
X177165Y237598D01*
X169291D01*
X163779Y232087D01*
Y214370D01*
X148996Y199587D01*
X101378D01*
Y189370D01*
X98155Y186147D01*
X91437D01*
X89567Y188018D01*
Y192975D01*
X90568Y193976D01*
X92520D01*
X94095Y195551D01*
Y204428D01*
X101297Y211631D01*
X123639Y211631D01*
X126969Y214961D01*
X133858D01*
X137795Y218898D01*
Y248836D01*
X140337Y251378D01*
X178248D01*
X180020Y249606D01*
D02*
G37*
G36*
X209646Y238189D02*
Y184492D01*
X204179Y179025D01*
X178354D01*
X175292Y182087D01*
Y202261D01*
X177165Y204134D01*
X183465D01*
X185039Y205709D01*
Y208563D01*
X186122Y209646D01*
X190751D01*
Y227886D01*
X187992Y230645D01*
X185176D01*
X184544Y230771D01*
X183912Y230645D01*
X178642D01*
Y230726D01*
X177657Y231710D01*
Y236725D01*
X177886Y236877D01*
X180839Y239830D01*
X181060Y240161D01*
X181138Y240551D01*
Y241142D01*
X206693D01*
X209646Y238189D01*
D02*
G37*
G36*
X155403Y190463D02*
X155403Y179025D01*
X151575Y175197D01*
X99805Y175197D01*
X96908Y178093D01*
X96909Y183523D01*
X98684Y185298D01*
X98876Y185426D01*
X102099Y188649D01*
X102228Y188842D01*
X102362Y188976D01*
Y189192D01*
X102398Y189370D01*
Y194822D01*
X151044D01*
X155403Y190463D01*
D02*
G37*
G36*
X66732Y133239D02*
X66476Y133028D01*
X64878D01*
Y133225D01*
X57169D01*
Y133028D01*
X55693D01*
Y133166D01*
X47985D01*
Y133028D01*
X30315Y133028D01*
Y149171D01*
X35236Y154092D01*
X66732D01*
Y133239D01*
D02*
G37*
G36*
X133858Y136300D02*
Y125431D01*
X131890Y123463D01*
X125547D01*
X122047Y119963D01*
X98624D01*
X94095Y115434D01*
X84646Y115434D01*
X81693Y118387D01*
X71721Y118387D01*
X71721Y122489D01*
X75535Y126304D01*
X75902D01*
Y126670D01*
X78504Y129272D01*
X86673Y129272D01*
X91594Y134193D01*
X115540D01*
X119095Y137748D01*
X132410D01*
X133858Y136300D01*
D02*
G37*
G36*
X903543Y137795D02*
X903543Y100394D01*
X822835D01*
X817913Y95472D01*
X809055D01*
X809055Y137795D01*
X903543Y137795D01*
D02*
G37*
G36*
X66476Y126777D02*
X63944Y124244D01*
X47354D01*
X45276Y122166D01*
Y117245D01*
X56102D01*
Y109371D01*
X44291D01*
Y100890D01*
X41339Y97937D01*
Y95153D01*
X30751D01*
X25591Y100313D01*
Y127304D01*
X30296Y132009D01*
X66476Y132009D01*
X66476Y126777D01*
D02*
G37*
G36*
X903543Y50021D02*
X869000D01*
X868594Y50248D01*
X868594Y50521D01*
Y62287D01*
X865964D01*
Y63050D01*
X866257Y63246D01*
X866783Y64033D01*
X866967Y64961D01*
X866783Y65889D01*
X866257Y66675D01*
X865471Y67201D01*
X864543Y67385D01*
X863615Y67201D01*
X862828Y66675D01*
X862303Y65889D01*
X862118Y64961D01*
X862303Y64033D01*
X862828Y63246D01*
X863122Y63050D01*
Y62287D01*
X860491D01*
Y50521D01*
X860491Y50248D01*
X860085Y50021D01*
X809076D01*
X809057Y92166D01*
X809410Y92520D01*
X819962D01*
X823899Y96457D01*
X826342D01*
Y89551D01*
X832870D01*
Y93198D01*
X833370Y93465D01*
X833718Y93233D01*
X834646Y93048D01*
X835573Y93233D01*
X836360Y93758D01*
X836886Y94545D01*
X837070Y95472D01*
X836974Y95957D01*
X837384Y96457D01*
X903543Y96457D01*
X903543Y50021D01*
D02*
G37*
G36*
X179035Y155985D02*
Y152299D01*
X179031Y152292D01*
X178884Y151556D01*
Y147816D01*
X179031Y147080D01*
X179035Y147073D01*
Y146832D01*
X176181Y143977D01*
X168307D01*
X162795Y138466D01*
Y120749D01*
X148012Y105966D01*
X99410Y105966D01*
X99409Y96609D01*
X95327Y92527D01*
X90453D01*
X88583Y94397D01*
Y99354D01*
X89583Y100355D01*
X91536D01*
X93504Y102323D01*
Y111201D01*
X100313Y118010D01*
X122655Y118010D01*
X125984Y121340D01*
X132874D01*
X136811Y125277D01*
Y155215D01*
X139353Y157757D01*
X177264D01*
X179035Y155985D01*
D02*
G37*
G36*
X208468Y142599D02*
Y88902D01*
X203001Y83436D01*
X177176D01*
X174213Y86399D01*
Y106770D01*
X175987Y108544D01*
X182287D01*
X183861Y110119D01*
Y112973D01*
X184944Y114056D01*
X189573D01*
Y132297D01*
X186814Y135056D01*
X183998D01*
X183366Y135181D01*
X182734Y135056D01*
X177464D01*
X177464Y135971D01*
X176479Y136955D01*
X176479Y141418D01*
X179629Y144568D01*
Y145552D01*
X205515D01*
X208468Y142599D01*
D02*
G37*
G36*
X153435Y96842D02*
X153435Y85404D01*
X149607Y81576D01*
X97836Y81576D01*
X94940Y84472D01*
X94940Y89902D01*
X100394Y95355D01*
Y96432D01*
X100429Y96609D01*
X100429Y101201D01*
X149075D01*
X153435Y96842D01*
D02*
G37*
G36*
X118110Y62205D02*
Y43307D01*
X91713D01*
X91535Y43342D01*
X53150D01*
X52972Y43307D01*
X49203D01*
X48524Y43986D01*
Y59350D01*
X55991Y66818D01*
X113296Y67019D01*
X118110Y62205D01*
D02*
G37*
G36*
X112205Y38386D02*
X128937D01*
Y25591D01*
X126575Y23228D01*
X96850Y23228D01*
X95472Y24606D01*
X95472Y41339D01*
X109252D01*
X112205Y38386D01*
D02*
G37*
G36*
X91535Y6890D02*
X86614Y1969D01*
X41339D01*
Y30512D01*
X53150Y42323D01*
X91535D01*
Y6890D01*
D02*
G37*
%LPC*%
G36*
X893110Y135679D02*
X891757Y135546D01*
X890455Y135151D01*
X889255Y134510D01*
X888204Y133647D01*
X887341Y132595D01*
X886699Y131396D01*
X886305Y130094D01*
X886171Y128740D01*
X886305Y127386D01*
X886699Y126085D01*
X887341Y124885D01*
X888204Y123834D01*
X889255Y122971D01*
X890455Y122329D01*
X891757Y121935D01*
X893110Y121801D01*
X894464Y121935D01*
X895766Y122329D01*
X896965Y122971D01*
X898017Y123834D01*
X898880Y124885D01*
X899521Y126085D01*
X899916Y127386D01*
X900049Y128740D01*
X899916Y130094D01*
X899521Y131396D01*
X898880Y132595D01*
X898017Y133647D01*
X896965Y134510D01*
X895766Y135151D01*
X894464Y135546D01*
X893110Y135679D01*
D02*
G37*
G36*
X863189D02*
X861835Y135546D01*
X860534Y135151D01*
X859334Y134510D01*
X858282Y133647D01*
X857419Y132595D01*
X856778Y131396D01*
X856383Y130094D01*
X856250Y128740D01*
X856383Y127386D01*
X856778Y126085D01*
X857419Y124885D01*
X858282Y123834D01*
X859334Y122971D01*
X860534Y122329D01*
X861835Y121935D01*
X863189Y121801D01*
X864543Y121935D01*
X865844Y122329D01*
X867044Y122971D01*
X868095Y123834D01*
X868958Y124885D01*
X869600Y126085D01*
X869995Y127386D01*
X870128Y128740D01*
X869995Y130094D01*
X869600Y131396D01*
X868958Y132595D01*
X868095Y133647D01*
X867044Y134510D01*
X865844Y135151D01*
X864543Y135546D01*
X863189Y135679D01*
D02*
G37*
G36*
Y85679D02*
X861835Y85546D01*
X860534Y85151D01*
X859334Y84510D01*
X858282Y83647D01*
X857419Y82595D01*
X856778Y81396D01*
X856383Y80094D01*
X856250Y78740D01*
X856383Y77386D01*
X856778Y76085D01*
X857419Y74885D01*
X858282Y73834D01*
X859334Y72971D01*
X860534Y72329D01*
X861835Y71935D01*
X863189Y71801D01*
X864543Y71935D01*
X865844Y72329D01*
X867044Y72971D01*
X868095Y73834D01*
X868958Y74885D01*
X869600Y76085D01*
X869995Y77386D01*
X870128Y78740D01*
X869995Y80094D01*
X869600Y81396D01*
X868958Y82595D01*
X868095Y83647D01*
X867044Y84510D01*
X865844Y85151D01*
X864543Y85546D01*
X863189Y85679D01*
D02*
G37*
G36*
X893110Y75679D02*
X891757Y75546D01*
X890455Y75151D01*
X889255Y74510D01*
X888204Y73647D01*
X887341Y72595D01*
X886699Y71396D01*
X886305Y70094D01*
X886171Y68740D01*
X886305Y67386D01*
X886699Y66085D01*
X887341Y64885D01*
X888204Y63834D01*
X889255Y62971D01*
X890455Y62329D01*
X891757Y61935D01*
X893110Y61801D01*
X894464Y61935D01*
X895766Y62329D01*
X896965Y62971D01*
X898017Y63834D01*
X898880Y64885D01*
X899521Y66085D01*
X899916Y67386D01*
X900049Y68740D01*
X899916Y70094D01*
X899521Y71396D01*
X898880Y72595D01*
X898017Y73647D01*
X896965Y74510D01*
X895766Y75151D01*
X894464Y75546D01*
X893110Y75679D01*
D02*
G37*
G36*
X91453Y57201D02*
X79413D01*
Y54571D01*
X76615D01*
X76419Y54864D01*
X75633Y55390D01*
X74705Y55574D01*
X73777Y55390D01*
X72990Y54864D01*
X72465Y54077D01*
X72280Y53150D01*
X72465Y52222D01*
X72990Y51435D01*
X73777Y50910D01*
X74705Y50725D01*
X75633Y50910D01*
X76419Y51435D01*
X76615Y51729D01*
X79413D01*
Y49098D01*
X91453D01*
Y57201D01*
D02*
G37*
%LPD*%
D11*
X812992Y169685D02*
Y239961D01*
X809055Y153543D02*
Y237008D01*
X277461Y385925D02*
Y390748D01*
X267756Y450787D02*
X272638D01*
X675000Y363976D02*
X675197Y364173D01*
X675000Y245734D02*
Y363976D01*
X680118Y250000D02*
Y367126D01*
D13*
X457214Y131964D02*
X458534Y130644D01*
X462804Y43692D02*
X466535Y39961D01*
X462804Y43692D02*
Y112393D01*
X460534Y117492D02*
X469267Y108758D01*
X467520Y33078D02*
X469267Y34825D01*
X467520Y15748D02*
Y33078D01*
X469267Y34825D02*
Y108758D01*
X437008Y184055D02*
X438574D01*
X444916Y177712D01*
X571850Y328171D02*
X612835Y287187D01*
X571850Y328171D02*
Y346850D01*
X612835Y155512D02*
Y287187D01*
X639764Y28426D02*
Y106907D01*
X639764Y347244D02*
X639764Y106907D01*
X597933Y347244D02*
X649646D01*
X628185Y26847D02*
Y91159D01*
X612835Y31497D02*
X612835Y155512D01*
X649646Y347244D02*
X653386Y343504D01*
X629134Y380971D02*
X636041D01*
X645252Y392717D02*
X645317Y392782D01*
X650591D01*
Y388880D02*
X656610D01*
X623032Y380971D02*
X623325Y380677D01*
Y374410D02*
Y380677D01*
X671260Y374508D02*
Y377953D01*
X667240Y381972D02*
X671260Y377953D01*
X667240Y381972D02*
Y385140D01*
X671260Y373031D02*
Y374508D01*
X671161Y374410D02*
X671260Y374508D01*
X629624Y374410D02*
X671161D01*
X566510Y346850D02*
X571850D01*
X597933Y347244D02*
Y353543D01*
X566510Y353478D02*
X566575Y353543D01*
X566510Y346850D02*
Y353478D01*
X591831Y341535D02*
Y347244D01*
X560407Y341535D02*
Y346850D01*
X583858Y374637D02*
Y387795D01*
Y361516D02*
Y374637D01*
Y361516D02*
X591831Y353543D01*
X551296Y375590D02*
Y411522D01*
Y362720D02*
Y375590D01*
X551492Y375394D01*
X551296Y362720D02*
X560472Y353543D01*
X583858Y374637D02*
X589845D01*
X583858Y387795D02*
X597555Y401492D01*
Y411522D01*
X551492Y375394D02*
X559726D01*
X524396Y441349D02*
Y441644D01*
X496161Y226181D02*
Y240059D01*
X494488Y162598D02*
Y211757D01*
X523622Y440575D02*
X524396Y441349D01*
X523622Y291657D02*
Y440575D01*
X493392Y441644D02*
X524396D01*
X386890Y436024D02*
X402566Y420348D01*
Y403373D02*
Y420348D01*
X405669Y399508D02*
Y421703D01*
X391890Y435482D02*
X405669Y421703D01*
X391890Y435482D02*
Y443898D01*
X386890Y436024D02*
Y443898D01*
X381890Y437402D02*
Y443898D01*
X374803Y430315D02*
X381890Y437402D01*
X376890Y437008D02*
Y443898D01*
X371772Y431890D02*
X376890Y437008D01*
X371654Y431890D02*
X371772D01*
X311417Y76378D02*
Y85312D01*
X307480Y75590D02*
Y85024D01*
X524691Y459361D02*
Y468062D01*
X493392Y459361D02*
X498966Y464935D01*
Y468219D01*
X864543Y40126D02*
Y47244D01*
X864173Y39756D02*
X864543Y40126D01*
X522392Y182825D02*
X522834Y183267D01*
X522392Y31496D02*
X522392Y182825D01*
X419931Y147480D02*
X425338Y152887D01*
X497047Y226181D02*
X499606Y223622D01*
Y216875D02*
Y223622D01*
X494488Y211757D02*
X499606Y216875D01*
X504261Y218701D02*
X506988D01*
X496776Y211216D02*
X504261Y218701D01*
X840343Y36417D02*
X840438Y36513D01*
Y43110D01*
X394665Y391654D02*
X395276Y391043D01*
X394665Y391654D02*
Y399633D01*
X301977Y409945D02*
X303366Y408556D01*
Y399311D02*
Y408556D01*
X297736Y447756D02*
Y448327D01*
Y443405D02*
Y447756D01*
X301476D02*
Y448327D01*
Y443405D02*
Y447756D01*
X305217D02*
Y450394D01*
X302461Y453150D02*
X305217Y450394D01*
X301476Y453150D02*
X302461D01*
X222835Y121103D02*
X231339Y112600D01*
X222835Y121103D02*
Y148425D01*
X225984Y127954D02*
X231339Y122599D01*
X225984Y127954D02*
Y160630D01*
X237008Y116930D02*
Y153272D01*
Y116930D02*
X241339Y112600D01*
Y122599D02*
X257639D01*
X261024Y125984D01*
Y143307D01*
X293099Y102875D02*
Y106812D01*
Y102875D02*
X293138Y102835D01*
X405748Y133465D02*
Y137953D01*
X435082Y143144D02*
X439173Y147235D01*
X369094Y403353D02*
X369094Y138583D01*
X378346Y145276D02*
Y377953D01*
X375590Y151181D02*
Y377468D01*
X372047Y401870D02*
X372047Y155512D01*
X311417Y85312D02*
X311805Y85699D01*
Y89152D01*
X306805Y85699D02*
X307480Y85024D01*
X306805Y85699D02*
Y89152D01*
X429559Y168060D02*
X434055Y163563D01*
X559726Y381254D02*
Y386025D01*
X596143Y374639D02*
X596144Y374637D01*
X596143Y374639D02*
Y380883D01*
X590041D02*
Y386593D01*
X565828Y381254D02*
X566025Y381057D01*
Y375394D02*
Y381057D01*
X466871Y186024D02*
X469758D01*
X465588Y176389D02*
X469758Y180559D01*
X470295Y177776D02*
X472638Y180118D01*
X469758Y177776D02*
X470295D01*
X465945Y181791D02*
X467224Y183071D01*
X465422Y181791D02*
X465945D01*
X462804Y179173D02*
X465422Y181791D01*
X467224Y183071D02*
X467323D01*
X461412Y180565D02*
X466871Y186024D01*
X444916Y177712D02*
X447091D01*
X444848Y183349D02*
X447984Y180212D01*
X443456Y174135D02*
Y176389D01*
X451649Y183981D02*
X453542Y182088D01*
X451649Y183981D02*
Y187032D01*
X448721Y189961D02*
X451649Y187032D01*
X453937Y185433D02*
Y189075D01*
X449212Y185826D02*
X449605D01*
X439978Y185435D02*
Y185826D01*
Y185435D02*
X443456Y181957D01*
X519685Y226181D02*
X519882Y226378D01*
X519685Y221457D02*
Y226181D01*
X467325Y169685D02*
X469808Y172169D01*
X510705Y37276D02*
Y133855D01*
X507756Y34327D02*
X510705Y37276D01*
X505468Y34327D02*
X507756D01*
X502638Y31496D02*
X505468Y34327D01*
X506890Y36417D02*
Y46850D01*
X506299Y47441D02*
X506890Y46850D01*
X506299Y47441D02*
X509098Y50240D01*
X283465Y408465D02*
X284945Y409945D01*
X272638Y408465D02*
X283465D01*
X272638Y423228D02*
X289862D01*
X272539Y416339D02*
X283366D01*
X247047Y383858D02*
X247835D01*
X252953Y388976D01*
X375590Y377468D02*
X380634Y382512D01*
X400228D01*
X402566Y384849D01*
Y403373D01*
X378346Y377953D02*
X381299Y380906D01*
X401063D01*
X405669Y385512D01*
X375000Y403373D02*
X383878D01*
X372959D02*
X375000D01*
X374803Y403570D02*
X375000Y403373D01*
X374803Y403570D02*
Y430315D01*
X372047Y402461D02*
X372959Y403373D01*
X372047Y401870D02*
Y402461D01*
X369094Y404554D02*
X371654Y407113D01*
X369094Y403353D02*
Y404554D01*
X430839Y141729D02*
X433668Y144558D01*
X399383Y399633D02*
X399508Y399508D01*
X394665Y399633D02*
X399383D01*
X509098Y50240D02*
Y134521D01*
X170374Y63287D02*
X170472Y63386D01*
X170374Y59055D02*
Y63287D01*
X170276Y51891D02*
X170374Y51989D01*
X170276Y47244D02*
Y51891D01*
X219587Y52756D02*
X225590D01*
X225551Y57834D02*
X225590Y57874D01*
X219587Y57834D02*
X225551D01*
X213484Y52756D02*
Y57834D01*
Y47638D02*
Y52756D01*
X212254Y46407D02*
X213484Y47638D01*
X207776Y46407D02*
X212254D01*
X544882Y139126D02*
Y142126D01*
Y139126D02*
X545118Y138891D01*
X544406Y138179D02*
X545118Y138891D01*
X539288Y142520D02*
Y147187D01*
Y137360D02*
Y142520D01*
X546063Y147974D02*
Y152865D01*
X545333Y147244D02*
X546063Y147974D01*
X539034Y147441D02*
X539288Y147187D01*
X468394Y173583D02*
X470587Y175776D01*
X394094Y39961D02*
X402598Y31457D01*
X311805Y105060D02*
Y110412D01*
X434055Y163189D02*
Y163563D01*
X431496Y162025D02*
Y163294D01*
X428145Y166645D02*
X431496Y163294D01*
X316760Y89107D02*
X316805Y89152D01*
X316760Y83858D02*
Y89107D01*
X492661Y149859D02*
X497694D01*
X562598Y31733D02*
Y165354D01*
X517717Y26575D02*
Y120421D01*
X512638Y31496D02*
Y133071D01*
X437008Y41339D02*
Y101109D01*
X394094Y39961D02*
Y175706D01*
X382874Y40748D02*
Y158465D01*
X375984Y33858D02*
X382874Y40748D01*
X375984Y28150D02*
Y33858D01*
X456693Y139370D02*
X458204D01*
X461412Y136162D01*
X436073Y197688D02*
X439173Y200787D01*
X432992Y200769D02*
Y202816D01*
Y200769D02*
X436073Y197688D01*
X431129Y193651D02*
X432037D01*
X427278Y197501D02*
X431129Y193651D01*
X430839Y186421D02*
Y188592D01*
X429536Y189895D02*
X430839Y188592D01*
X429536Y189895D02*
Y191151D01*
X432037Y193651D01*
X428551Y184133D02*
X430839Y186421D01*
X431581Y131202D02*
X439302Y138923D01*
X498805Y144637D02*
X505743Y151575D01*
X505905D01*
X495079Y131986D02*
Y140012D01*
X494630Y140461D02*
X495079Y140012D01*
X522360Y183480D02*
X522620D01*
X522834Y183267D01*
X509842Y135265D02*
X509842D01*
X509098Y134521D02*
X509842Y135265D01*
X509842D02*
Y169685D01*
X510705Y133855D02*
X512638Y135788D01*
Y167323D01*
X497694Y149859D02*
X499981Y152147D01*
X295768Y420669D02*
X295866Y420768D01*
X295768Y415354D02*
Y420669D01*
Y405512D02*
X295866Y405413D01*
Y399311D02*
Y405413D01*
X471284Y151300D02*
X473917Y148667D01*
X453937Y189075D02*
X454823Y189961D01*
X447300Y138614D02*
X448425D01*
X472370Y132057D02*
X475471Y135159D01*
X437795Y134588D02*
X440717Y137509D01*
X477165Y176875D02*
X480315Y173726D01*
X477165Y176875D02*
Y178347D01*
X418629Y183734D02*
X419644D01*
X415354Y187008D02*
X418629Y183734D01*
X460534Y188038D02*
Y189961D01*
X457236Y184741D02*
X460534Y188038D01*
X454823Y196850D02*
X459646D01*
X416083Y163189D02*
X416339D01*
X411537Y167735D02*
X416083Y163189D01*
X411537Y167735D02*
X419931D01*
X424365Y172169D01*
X428189D01*
X430928Y169429D01*
X492126Y169382D02*
Y211024D01*
X489389Y166645D02*
X492126Y169382D01*
X480899Y166645D02*
X489389D01*
X490520Y170047D02*
Y207512D01*
X488724Y168252D02*
X490520Y170047D01*
X480106Y168252D02*
X488724D01*
X476723Y165253D02*
X477107D01*
X480106Y168252D01*
X487402Y210630D02*
X490520Y207512D01*
X489764Y213386D02*
X492126Y211024D01*
X478115Y163861D02*
X480899Y166645D01*
X453542Y169291D02*
Y182088D01*
X439978Y169291D02*
Y171515D01*
X436496Y174997D02*
X439978Y171515D01*
X437795Y160433D02*
Y170914D01*
X435104Y173605D02*
X437795Y170914D01*
X437888Y176389D02*
X442638Y171639D01*
Y158465D02*
Y171639D01*
X515354Y123246D02*
Y160630D01*
X428551Y184133D02*
X432119Y180565D01*
X436496D01*
X439280Y177781D01*
X440672Y179173D02*
X443456Y176389D01*
X430210Y175715D02*
Y176823D01*
Y175715D02*
X433712Y172213D01*
X423820Y179321D02*
Y179558D01*
Y179321D02*
X432320Y170821D01*
X429134Y161024D02*
Y162872D01*
X426753Y165253D02*
X429134Y162872D01*
X428135Y160025D02*
X429134Y161024D01*
X408057Y160025D02*
X428135D01*
X423307Y162025D02*
X423524D01*
X425274Y163775D01*
X418623Y174135D02*
Y174440D01*
X415354Y170866D02*
X418623Y174135D01*
X480803Y140277D02*
X482797D01*
X469685Y112205D02*
X472638Y115157D01*
X469488Y112205D02*
X469685D01*
X465551Y116422D02*
X468462Y119333D01*
X465551Y116273D02*
Y116422D01*
X484491Y177902D02*
X487713Y174680D01*
Y174440D02*
Y174680D01*
X479628Y173726D02*
X480315D01*
X473939Y168037D02*
X479628Y173726D01*
X463542Y162872D02*
X465990D01*
X472547Y169429D01*
X479568Y140277D02*
X480803D01*
X472547Y147297D02*
X479568Y140277D01*
X462598Y150591D02*
X464567Y148622D01*
Y146926D02*
Y148622D01*
Y146926D02*
X468372Y143122D01*
X466980Y147297D02*
Y150591D01*
Y147297D02*
X469764Y144513D01*
X475471Y135159D02*
Y141590D01*
X471156Y145905D02*
X475471Y141590D01*
X465588Y140338D02*
X469764Y136162D01*
X473700Y125036D02*
X479647Y130983D01*
X473586Y125036D02*
X473700D01*
X469410Y129212D02*
Y130947D01*
Y129021D02*
Y129212D01*
X462804Y137554D02*
X469410Y130947D01*
X465551Y126435D02*
X466825D01*
X469410Y129021D01*
X469711Y130538D02*
Y130646D01*
X430928Y147464D02*
X435039Y151575D01*
X471284Y151300D02*
Y153543D01*
X375984Y28150D02*
X382638Y21496D01*
X530512Y113466D02*
Y148736D01*
X527559Y92520D02*
Y146653D01*
X478952Y149244D02*
X482891D01*
X478759Y146653D02*
X480413D01*
X475331Y150081D02*
X478759Y146653D01*
X458653Y144488D02*
X464196Y138946D01*
X455118Y144488D02*
X458653D01*
X460990Y147638D02*
X463542Y145086D01*
X457736Y147638D02*
X460990D01*
X443456Y134770D02*
X447300Y138614D01*
X476723Y151473D02*
X478952Y149244D01*
X407361Y171911D02*
X408131D01*
X446251Y184752D02*
X447194Y183808D01*
X104008Y241929D02*
X104169Y242091D01*
X171161Y98938D02*
X171555Y99331D01*
X524392Y178502D02*
X526476Y180980D01*
X466980Y174997D02*
X469758Y177776D01*
X470587Y175776D02*
X472035D01*
X473424Y177165D01*
X474016Y180118D02*
X475197Y181299D01*
X472638Y180118D02*
X474016D01*
X437795Y132677D02*
Y134588D01*
Y132677D02*
X438976Y131496D01*
Y129528D02*
Y131496D01*
X436734Y127285D02*
X438976Y129528D01*
X441732Y108661D02*
Y130262D01*
X443732Y129434D02*
X446262Y131964D01*
X443732Y107833D02*
Y129434D01*
X439978Y106907D02*
X441732Y108661D01*
X437008Y101109D02*
X443732Y107833D01*
X424409Y130709D02*
X427326Y127792D01*
X436734Y125775D02*
Y127285D01*
Y125775D02*
X439280Y123228D01*
X429725Y134252D02*
X432009Y131968D01*
X426753Y134252D02*
X429725D01*
X432558Y122954D02*
X435827Y119685D01*
X431317Y131202D02*
X431581D01*
X418702Y174440D02*
X423820Y179558D01*
X447194Y183808D02*
X449212Y185826D01*
X405748Y118898D02*
Y124254D01*
Y137953D02*
X409449Y134252D01*
X405748Y137953D02*
Y138821D01*
X405118Y139451D02*
X405748Y138821D01*
X433336Y138614D02*
X436214Y141492D01*
X424681Y138614D02*
X433336D01*
X420319Y134252D02*
X424681Y138614D01*
X409449Y134252D02*
X420319D01*
X434165Y136614D02*
X437888Y140338D01*
X425510Y136614D02*
X434165D01*
X413780Y124884D02*
X425510Y136614D01*
X439173Y147235D02*
Y148622D01*
X441732Y130262D02*
X444848Y133378D01*
X401206Y98664D02*
Y153174D01*
X401181Y98639D02*
X401206Y98664D01*
Y153174D02*
X408057Y160025D01*
X515354Y123246D02*
X515945Y122655D01*
X469758Y162598D02*
X471284D01*
X475331Y166645D01*
X496776Y161539D02*
Y211216D01*
X490748Y155512D02*
X496776Y161539D01*
X481982Y154151D02*
X483268Y152865D01*
X562598Y31733D02*
X562835Y31497D01*
X460042Y173583D02*
X464218Y177759D01*
X460042Y165748D02*
Y173583D01*
X462992Y169685D02*
X467325D01*
X467791Y167323D02*
X471222Y170754D01*
X465551Y167323D02*
X467791D01*
X460042Y134792D02*
X462534Y132301D01*
X799213Y138189D02*
Y185639D01*
X799204Y185647D02*
X799213Y185639D01*
X463542Y145086D02*
X463583Y145126D01*
X462534Y123071D02*
Y132301D01*
X458628Y133378D02*
X460534Y131472D01*
Y117492D02*
Y131472D01*
X458534Y116663D02*
X462804Y112393D01*
X458534Y116663D02*
Y130644D01*
X448721Y189961D02*
Y196850D01*
X582741Y31496D02*
X582741Y190261D01*
X460053Y181923D02*
X465731Y187601D01*
X458639Y183337D02*
X462804Y187502D01*
Y192913D01*
X430928Y152865D02*
X432331D01*
X430210Y152147D02*
X430928Y152865D01*
X418823Y147480D02*
X419931D01*
X417323Y145980D02*
X418823Y147480D01*
X421260Y145980D02*
X426753Y151473D01*
X426910Y146063D02*
X428928Y148081D01*
X424803Y146063D02*
X426910D01*
X430151Y143870D02*
X430455Y144174D01*
X426863Y143870D02*
X430151D01*
X428740Y141729D02*
X430839D01*
X424803Y146063D02*
X424858Y146118D01*
X830197Y95472D02*
X834646D01*
X805118Y17913D02*
X806988Y16043D01*
X805118Y197835D02*
X805118Y17913D01*
X801181Y201772D02*
X805118Y197835D01*
X215555Y17717D02*
Y21654D01*
X214469Y25748D02*
Y29685D01*
X171260Y105966D02*
X175694D01*
X170276Y131281D02*
X180807Y141812D01*
X171161Y93945D02*
Y98938D01*
Y99725D02*
X171555Y99331D01*
X185925Y117993D02*
X186122Y117796D01*
X185925Y117993D02*
Y126458D01*
X180020Y112205D02*
Y117796D01*
X183366Y126458D02*
Y132757D01*
X170276Y125178D02*
X171555Y126458D01*
X178248D01*
X190578Y149686D02*
X190751Y149859D01*
X185925Y149686D02*
X190578D01*
X184544Y222047D02*
Y228346D01*
X181198Y208268D02*
Y214567D01*
X63976Y113466D02*
X66476Y115966D01*
X76378D01*
X94587Y241929D02*
X104008D01*
X133169Y245984D02*
X133169Y245984D01*
X128248Y245984D02*
X133169D01*
X64528Y120966D02*
X72835Y129272D01*
X51575Y120966D02*
X64528D01*
X76378Y110966D02*
X89961D01*
X75394Y96545D02*
X76378Y97529D01*
Y105966D01*
X75394Y96545D02*
X84547D01*
X84646Y105060D02*
X89961D01*
X607874Y26535D02*
Y98639D01*
X602835Y21496D02*
X607874Y26535D01*
X632835Y21497D02*
X639764Y28426D01*
X622834Y21496D02*
X628185Y26847D01*
X612835Y21496D02*
X618185Y26846D01*
Y114707D01*
X592835Y192306D02*
X592835Y31497D01*
X592227Y192913D02*
X592835Y192306D01*
X512638Y21496D02*
X517717Y26575D01*
X522638Y21496D02*
X527287Y26146D01*
Y33933D01*
X524392Y36828D02*
X527287Y33933D01*
X524392Y36828D02*
X524392Y178502D01*
X127165Y152363D02*
X132185D01*
X93504Y148308D02*
X103347D01*
X829606Y94882D02*
X830197Y95472D01*
X847441Y94764D02*
X847559Y94882D01*
X300866Y399311D02*
Y407264D01*
X284945Y409945D02*
X301977D01*
X348898Y450787D02*
X353346D01*
X305217Y443405D02*
Y447756D01*
X285433Y444882D02*
X291339D01*
X284449Y445866D02*
X285433Y444882D01*
X284449Y445866D02*
Y450787D01*
X465731Y187601D02*
Y190261D01*
X475197Y181299D02*
Y186024D01*
X572835Y186024D02*
X572835Y31496D01*
X405118Y124884D02*
X405748Y124254D01*
X618110Y114781D02*
X618185Y114707D01*
X479545Y154151D02*
X481982D01*
X478259Y152865D02*
X479545Y154151D01*
X478115Y152865D02*
X478259D01*
X327756Y216535D02*
Y401476D01*
X330709Y214350D02*
Y403156D01*
X323721Y405512D02*
X327756Y401476D01*
X325400Y408465D02*
X330709Y403156D01*
X320866Y408465D02*
X325400D01*
X318366Y410965D02*
X320866Y408465D01*
X318366Y410965D02*
Y420768D01*
X312992Y405512D02*
X323721Y405512D01*
X310866Y403386D02*
X312992Y405512D01*
X310866Y399311D02*
Y403386D01*
X379429Y406988D02*
X383753D01*
X378642Y399633D02*
X383878D01*
X405669Y385512D02*
Y399508D01*
X389075Y396562D02*
Y403176D01*
X389272Y403373D01*
X383878D02*
X384764D01*
X395551D02*
X402566D01*
X383753Y406988D02*
X383878Y407113D01*
X371654D02*
Y431890D01*
X417323Y145980D02*
X417382D01*
X389173Y386070D02*
Y391043D01*
X389272Y403373D02*
Y404160D01*
X392225Y407113D01*
X394665D01*
X391732Y468504D02*
X391890Y468347D01*
Y459882D02*
Y468347D01*
X386890Y459882D02*
Y468504D01*
X381890Y459882D02*
Y468504D01*
X371890Y468347D02*
X372047Y468504D01*
X371890Y459882D02*
Y468347D01*
X738189Y193521D02*
Y240551D01*
X293099Y91457D02*
X293138Y91497D01*
Y96142D01*
X499484Y267520D02*
X523622Y291657D01*
X499484Y243382D02*
Y267520D01*
X496654Y240551D02*
X499484Y243382D01*
X496161Y226181D02*
X497047D01*
X477559Y218504D02*
X481988D01*
X496161Y240059D02*
X496654Y240551D01*
X503346D02*
X508661D01*
X502165Y233071D02*
X506299D01*
X506988Y222441D02*
X513386D01*
X513583Y226181D02*
X513779Y226378D01*
X506988Y226181D02*
X513583D01*
X487713Y226645D02*
Y231102D01*
X485827Y232988D02*
X487713Y231102D01*
X485827Y232988D02*
Y237402D01*
X475827Y231838D02*
Y237402D01*
Y231838D02*
X481020Y226645D01*
X485827Y237402D02*
X487713Y235515D01*
Y226645D02*
X488091Y226267D01*
Y218504D02*
Y226267D01*
Y218504D02*
X488287Y218701D01*
X496161D01*
X463583Y145126D02*
X466980Y141729D01*
X671260Y373031D02*
X671260Y241142D01*
X676689Y381596D02*
X676983Y381890D01*
X684055D01*
X648146Y405512D02*
X651000D01*
X680429Y415354D02*
X686532D01*
X673736Y409744D02*
Y415354D01*
Y409744D02*
X676886Y406595D01*
X689384Y428839D02*
X689485Y428738D01*
X683776Y428839D02*
X689384D01*
X683776Y435039D02*
X689485D01*
X677673Y428839D02*
Y435039D01*
X662323Y428839D02*
X677673D01*
X659662Y426177D02*
X662323Y428839D01*
X659662Y422539D02*
Y426177D01*
X665862Y416339D02*
X672752D01*
X664780Y422539D02*
X665075Y422244D01*
X670784D01*
X662221Y414665D02*
Y422539D01*
X659957Y412402D02*
X662221Y414665D01*
X672752Y416339D02*
X673736Y415354D01*
X657103Y419390D02*
Y422539D01*
X654051Y416339D02*
X657103Y419390D01*
X637319Y412402D02*
X659957D01*
X623540Y426181D02*
X637319Y412402D01*
X651000Y405512D02*
X652772Y407283D01*
X586138Y426181D02*
X623540D01*
X581217Y431102D02*
X586138Y426181D01*
X581217Y431102D02*
Y461522D01*
X664780Y440059D02*
Y455689D01*
X658946Y461522D02*
X664780Y455689D01*
X627477Y461522D02*
X658946D01*
X645252Y385827D02*
X645939Y385140D01*
X656610D01*
X642043Y422734D02*
X642142Y422833D01*
X636335Y422734D02*
X642043D01*
X652772Y407283D02*
X657693D01*
X648244Y428837D02*
Y429327D01*
Y428738D02*
Y428837D01*
Y422833D02*
Y428738D01*
Y428837D02*
X654345D01*
X648146D02*
X648244D01*
X656217Y440945D02*
X657103Y440059D01*
X651886Y440945D02*
X656217D01*
X645587Y435039D02*
Y441043D01*
X641945Y429327D02*
X642043Y429425D01*
X636335Y429327D02*
X641945D01*
X638303Y440453D02*
X638894Y441043D01*
X638303Y435039D02*
Y440453D01*
X657641Y400538D02*
X657693Y400591D01*
X659662Y434154D02*
Y440059D01*
X654345Y428837D02*
X659662Y434154D01*
X648146Y428837D02*
X648244Y428738D01*
X662221Y433071D02*
Y440059D01*
X657103Y427953D02*
X662221Y433071D01*
X657103Y422539D02*
Y427953D01*
X656610Y392620D02*
Y399508D01*
X187276Y245449D02*
X191929D01*
X187103Y245276D02*
X187276Y245449D01*
X183366Y156292D02*
X183560Y156486D01*
X183366Y149686D02*
Y156292D01*
Y149686D02*
X183539Y149859D01*
X184544Y245276D02*
Y250811D01*
Y245276D02*
X184717Y245449D01*
X224501Y394783D02*
Y403543D01*
X240551Y383858D02*
X247047D01*
X313366Y414370D02*
Y420768D01*
X321915Y389764D02*
Y397638D01*
X320242Y399311D02*
X321915Y397638D01*
X318366Y399311D02*
X320242D01*
X321850Y375984D02*
X321915Y376049D01*
Y383858D01*
X313976Y375984D02*
Y382480D01*
X305118Y375984D02*
Y382480D01*
X294449Y377953D02*
X296417Y375984D01*
X305118D01*
X303366Y413957D02*
Y420768D01*
X301811Y412402D02*
X303366Y413957D01*
X287303Y412402D02*
X301811D01*
X266437Y401772D02*
X266535Y401870D01*
Y408465D01*
X266339Y423228D02*
X266437Y423130D01*
Y416339D02*
Y423130D01*
X283366Y416339D02*
X287303Y412402D01*
X292323Y399311D02*
X295866D01*
X289862Y401772D02*
X292323Y399311D01*
X272736Y401772D02*
X289862D01*
X292323Y420768D02*
X295866D01*
X289862Y423228D02*
X292323Y420768D01*
X297638Y443307D02*
X297736Y443405D01*
X297638Y439732D02*
Y443307D01*
X296299Y438394D02*
X297638Y439732D01*
X296299Y436221D02*
Y438394D01*
X301575Y439614D02*
Y443307D01*
X301476Y443405D02*
X301575Y443307D01*
Y439614D02*
X302795Y438394D01*
Y436221D02*
Y438394D01*
X300866Y420768D02*
Y426016D01*
X302795Y427945D01*
Y430118D01*
X298366Y420768D02*
Y425878D01*
X296299Y427945D02*
X298366Y425878D01*
X296299Y427945D02*
Y430118D01*
X846642Y36417D02*
X851482D01*
X846541Y43110D02*
X851364D01*
D14*
X414173Y137008D02*
X418898D01*
X490687Y136101D02*
X490748Y136162D01*
X484979Y136101D02*
X490687D01*
X428816Y206992D02*
X431692Y209867D01*
X420394Y198879D02*
X423103Y201588D01*
X444882Y138852D02*
Y141732D01*
X442192Y136162D02*
X444882Y138852D01*
X241339Y39289D02*
Y47638D01*
Y57874D01*
X135138Y49016D02*
X142323D01*
X424375Y188308D02*
X424529D01*
X427326Y127792D02*
X427833D01*
X432558Y122954D02*
Y123109D01*
X413780Y137401D02*
X414173Y137008D01*
X413780Y137401D02*
Y139451D01*
X442064Y136162D02*
X442192D01*
X869734Y244094D02*
Y257874D01*
X220571Y25905D02*
X225295D01*
X227992D01*
X225295D02*
Y34301D01*
X171161Y93945D02*
X171366D01*
X171161Y106064D02*
X171260Y105966D01*
X241240Y34449D02*
Y39191D01*
Y29577D02*
Y34449D01*
Y29232D02*
Y29577D01*
X192913Y18307D02*
Y18504D01*
Y11811D02*
Y18307D01*
X89961Y198228D02*
X91437D01*
X85433D02*
X89961D01*
X50806Y96792D02*
X52067D01*
X45276D02*
X50806D01*
X864543Y56267D02*
Y64961D01*
X848622Y174605D02*
X854130D01*
X854130Y181298D02*
X854130Y181298D01*
X848622Y181298D02*
X854130D01*
X842323Y174605D02*
X842520Y174802D01*
Y181298D01*
X864526Y56250D02*
X864543Y56267D01*
X63976Y96545D02*
X69291D01*
X51575Y103229D02*
Y105966D01*
X57185Y96702D02*
Y100572D01*
X51575Y103229D02*
X52873Y101931D01*
X55826D01*
X57185Y100572D01*
X56810Y195552D02*
X58169Y194193D01*
X53858Y195552D02*
X56810D01*
X52559Y196850D02*
X53858Y195552D01*
X187103Y213189D02*
X187300Y212992D01*
X187103Y213189D02*
Y222047D01*
X180017Y232677D02*
X181985Y234646D01*
X175292Y232677D02*
X180017D01*
X169485Y226870D02*
X175292Y232677D01*
X169485Y220768D02*
X179426D01*
X104169Y242091D02*
X104331Y241929D01*
X42126Y229921D02*
X42323Y229724D01*
X90984Y204587D02*
X91437Y204134D01*
X77362Y204587D02*
X90984D01*
X86355Y190323D02*
X86417Y190261D01*
X77854Y190323D02*
X86355D01*
X65764Y214780D02*
X73819Y222835D01*
X52559Y214780D02*
X65764D01*
X77362Y190815D02*
X77854Y190323D01*
X77362Y190815D02*
Y199587D01*
X52559Y214587D02*
Y214780D01*
X46260Y190354D02*
X52036D01*
X64961Y207087D02*
X67461Y209587D01*
X77362D01*
X71721Y190354D02*
X71752Y190323D01*
X66142Y190354D02*
X71721D01*
X52036D02*
X52067Y190323D01*
X58169D02*
Y194193D01*
X52559Y196850D02*
Y199587D01*
X74705Y53150D02*
X85433D01*
X225252Y39187D02*
X225295Y39144D01*
X216539Y39187D02*
X225252D01*
X216535Y39191D02*
X216539Y39187D01*
X163779Y199547D02*
Y204331D01*
Y199547D02*
X163976Y199350D01*
X164272Y186713D02*
Y192323D01*
X164075Y59055D02*
X164272Y58858D01*
Y51989D02*
Y58858D01*
X164961Y105966D02*
X165059Y105867D01*
Y99725D02*
Y105867D01*
X170177Y199251D02*
X170276Y199350D01*
X170177Y192975D02*
Y199251D01*
X187008Y20669D02*
Y30610D01*
X185906Y19567D02*
X187008Y20669D01*
X102264Y19567D02*
X185906D01*
X187008Y30610D02*
X189862Y33465D01*
X207732Y44030D02*
X207776Y43986D01*
X121325Y44030D02*
X207732D01*
X120374Y44980D02*
X121325Y44030D01*
X120374Y44980D02*
Y55415D01*
Y34745D02*
Y40059D01*
X121880Y41565D01*
X207776D01*
X225295Y46407D02*
X229478D01*
X235236Y52165D01*
X228418Y41565D02*
X235138Y34846D01*
X225295Y41565D02*
X228418D01*
X225295Y43986D02*
X231034D01*
X231714Y43307D01*
X235138D01*
X241240Y39191D02*
X241339Y39289D01*
X234459Y43986D02*
X235138Y43307D01*
X196161Y33465D02*
X201841Y39144D01*
X207776D01*
X196161Y27854D02*
Y33465D01*
X193110Y24803D02*
X196161Y27854D01*
X192913Y24803D02*
X193110D01*
X227992Y5709D02*
X228248Y5965D01*
Y10098D02*
Y16791D01*
X215555Y6890D02*
Y11811D01*
X234252Y16890D02*
X234350Y16791D01*
X234252Y16890D02*
Y24606D01*
Y28543D01*
X230315Y32480D02*
X234252Y28543D01*
X230315Y32480D02*
Y35433D01*
X229026Y36722D02*
X230315Y35433D01*
X225295Y36722D02*
X229026D01*
X227992Y24764D02*
X228150Y24606D01*
X207379Y33904D02*
X207776Y34301D01*
X207379Y12267D02*
Y33904D01*
X203452Y36722D02*
X207776D01*
X201575Y34846D02*
X203452Y36722D01*
X201575Y6890D02*
Y34846D01*
X207379Y12267D02*
X207677Y11969D01*
D16*
X627477Y401522D02*
X658723D01*
X242612Y394783D02*
X243005Y395177D01*
X247047D01*
X252461D01*
X410825Y174605D02*
X424529Y188308D01*
X408131Y171911D02*
X410825Y174605D01*
X135730Y55415D02*
X135827Y55512D01*
X120374Y55415D02*
X135730D01*
X627477Y401522D02*
Y417323D01*
X622555Y422244D02*
X627477Y417323D01*
X586138Y422244D02*
X622555D01*
X581217Y417323D02*
X586138Y422244D01*
X581217Y401522D02*
Y417323D01*
X656610Y392620D02*
X660843D01*
X661925Y391537D01*
Y386811D02*
Y391537D01*
Y386811D02*
X663597Y385140D01*
X667240D01*
X676689Y392620D02*
X678264Y394195D01*
X676886D02*
Y400492D01*
X667240Y392620D02*
X676689D01*
X183366Y156292D02*
Y160239D01*
X186686Y255906D02*
X188976D01*
X184544Y253764D02*
X186686Y255906D01*
X184544Y250811D02*
Y253764D01*
D19*
X591831Y347244D02*
D03*
X597933D02*
D03*
Y353543D02*
D03*
X591831D02*
D03*
X566575Y353543D02*
D03*
X560472D02*
D03*
X560407Y346850D02*
D03*
X566510D02*
D03*
X629134Y380971D02*
D03*
X623032D02*
D03*
X590041Y380883D02*
D03*
X596143D02*
D03*
X559726Y381254D02*
D03*
X565828D02*
D03*
X454823Y196850D02*
D03*
X448721D02*
D03*
Y189961D02*
D03*
X454823D02*
D03*
X539075Y138435D02*
D03*
X545177D02*
D03*
X545136Y147441D02*
D03*
X539034D02*
D03*
X395276Y391043D02*
D03*
X389173D02*
D03*
X306398Y80315D02*
D03*
X312500D02*
D03*
X496063Y233071D02*
D03*
X502165D02*
D03*
X519882Y226378D02*
D03*
X513779D02*
D03*
X481988Y218504D02*
D03*
X488091D02*
D03*
X683776Y428839D02*
D03*
X677673D02*
D03*
Y435039D02*
D03*
X683776D02*
D03*
X648244Y422833D02*
D03*
X642142D02*
D03*
X642043Y429425D02*
D03*
X648146D02*
D03*
X277461Y390748D02*
D03*
X283563D02*
D03*
X266437Y416339D02*
D03*
X272539D02*
D03*
X266535Y408465D02*
D03*
X272638D02*
D03*
X842520Y181298D02*
D03*
X848622D02*
D03*
X84547Y96545D02*
D03*
X90650D02*
D03*
X92520Y190261D02*
D03*
X86417D02*
D03*
X77854Y190323D02*
D03*
X71752D02*
D03*
X58169D02*
D03*
X52067D02*
D03*
X75394Y96545D02*
D03*
X69291D02*
D03*
X56909Y96792D02*
D03*
X50806D02*
D03*
X219587Y52756D02*
D03*
X213484D02*
D03*
X219587Y57834D02*
D03*
X213484D02*
D03*
X187300Y214567D02*
D03*
X181198D02*
D03*
X186122Y117796D02*
D03*
X180020D02*
D03*
X170374Y51989D02*
D03*
X164272D02*
D03*
X165059Y99725D02*
D03*
X171161D02*
D03*
X170374Y192323D02*
D03*
X164272D02*
D03*
X189862Y33465D02*
D03*
X195965D02*
D03*
X235138Y43307D02*
D03*
X241240D02*
D03*
X235138Y34449D02*
D03*
X241240D02*
D03*
X234350Y25748D02*
D03*
X228248D02*
D03*
Y16732D02*
D03*
X234350D02*
D03*
X220571Y25748D02*
D03*
X214469D02*
D03*
X201673Y11811D02*
D03*
X207776D02*
D03*
X840438Y43110D02*
D03*
X846541D02*
D03*
D20*
X629624Y374410D02*
D03*
X623325D02*
D03*
X589845Y374637D02*
D03*
X596144D02*
D03*
X559726Y375394D02*
D03*
X566025D02*
D03*
X272736Y401772D02*
D03*
X266437D02*
D03*
X848622Y174605D02*
D03*
X842323D02*
D03*
X170374Y59055D02*
D03*
X164075D02*
D03*
X171260Y105966D02*
D03*
X164961D02*
D03*
X163976Y199350D02*
D03*
X170276D02*
D03*
X846642Y36417D02*
D03*
X840343D02*
D03*
X272638Y423228D02*
D03*
X266339D02*
D03*
D21*
X838583Y120079D02*
D03*
D22*
X847559Y94882D02*
D03*
X829606D02*
D03*
D23*
X301805Y110412D02*
D03*
X316805D02*
D03*
X311805D02*
D03*
X306805D02*
D03*
X316805Y89152D02*
D03*
X311805D02*
D03*
X306805D02*
D03*
X301805D02*
D03*
D24*
X428145Y166645D02*
D03*
X429536Y168037D02*
D03*
X446240Y184741D02*
D03*
X444848Y183349D02*
D03*
X443456Y181957D02*
D03*
X442064Y180565D02*
D03*
X440672Y179173D02*
D03*
X439280Y177781D02*
D03*
X437888Y176389D02*
D03*
X436496Y174997D02*
D03*
X435104Y173605D02*
D03*
X433712Y172213D02*
D03*
X432320Y170821D02*
D03*
X430928Y169429D02*
D03*
X426753Y165253D02*
D03*
X425361Y163861D02*
D03*
X457236Y131986D02*
D03*
X458628Y133378D02*
D03*
X460020Y134770D02*
D03*
X461412Y136162D02*
D03*
X462804Y137554D02*
D03*
X464196Y138946D02*
D03*
X465588Y140338D02*
D03*
X466980Y141729D02*
D03*
X468372Y143122D02*
D03*
X469764Y144513D02*
D03*
X471156Y145905D02*
D03*
X472547Y147297D02*
D03*
X473939Y148689D02*
D03*
X475331Y150081D02*
D03*
X476723Y151473D02*
D03*
X478115Y152865D02*
D03*
D25*
X432037Y193651D02*
D03*
X436073Y197688D02*
D03*
X488624Y146013D02*
D03*
X492661Y150050D02*
D03*
D26*
X432992Y202816D02*
D03*
X428816Y206992D02*
D03*
X424375Y188308D02*
D03*
X428551Y184133D02*
D03*
X427278Y197501D02*
D03*
X423103Y201677D02*
D03*
X472638Y115157D02*
D03*
X468462Y119333D02*
D03*
X411537Y167735D02*
D03*
X407361Y171911D02*
D03*
X418623Y174440D02*
D03*
X414447Y178615D02*
D03*
X419644Y183734D02*
D03*
X423820Y179558D02*
D03*
X479647Y130983D02*
D03*
X475471Y135159D02*
D03*
X480803Y140277D02*
D03*
X484979Y136101D02*
D03*
X469410Y129212D02*
D03*
X473586Y125036D02*
D03*
D27*
X494630Y140461D02*
D03*
X498805Y144637D02*
D03*
X432009Y131968D02*
D03*
X427833Y127792D02*
D03*
X432558Y123109D02*
D03*
X436734Y127285D02*
D03*
X480315Y173726D02*
D03*
X484491Y177902D02*
D03*
D28*
X77067Y28543D02*
D03*
D29*
X102264Y37520D02*
D03*
Y19567D02*
D03*
D30*
X103347Y125867D02*
D03*
Y148308D02*
D03*
X104331Y219488D02*
D03*
Y241929D02*
D03*
D31*
X132185Y152363D02*
D03*
X145374D02*
D03*
X133169Y245984D02*
D03*
X146358D02*
D03*
D32*
X389272Y403373D02*
D03*
D33*
X383878Y407113D02*
D03*
Y403373D02*
D03*
Y399633D02*
D03*
X394665Y407113D02*
D03*
Y403373D02*
D03*
Y399633D02*
D03*
D34*
X391890Y443898D02*
D03*
X386890D02*
D03*
X381890D02*
D03*
X376890D02*
D03*
X371890D02*
D03*
Y459882D02*
D03*
X376890D02*
D03*
X381890D02*
D03*
X386890D02*
D03*
X391890D02*
D03*
D35*
X493392Y459361D02*
D03*
X524691D02*
D03*
X493392Y441644D02*
D03*
X524691D02*
D03*
D36*
X503346Y240551D02*
D03*
X496654D02*
D03*
X487713Y226645D02*
D03*
X481020D02*
D03*
X638894Y441043D02*
D03*
X645587D02*
D03*
X680429Y415354D02*
D03*
X673736D02*
D03*
X233858Y383858D02*
D03*
X240551D02*
D03*
X267520Y437992D02*
D03*
X274213D02*
D03*
D37*
X506988Y218701D02*
D03*
Y222441D02*
D03*
Y226181D02*
D03*
X496161D02*
D03*
Y218701D02*
D03*
X656610Y392620D02*
D03*
Y388880D02*
D03*
Y385140D02*
D03*
X667240D02*
D03*
Y392620D02*
D03*
D38*
X413780Y139451D02*
D03*
Y124884D02*
D03*
X405118D02*
D03*
Y139451D02*
D03*
D39*
X293138Y102835D02*
D03*
Y96142D02*
D03*
X841535Y205709D02*
D03*
Y212402D02*
D03*
X657693Y400591D02*
D03*
Y407283D02*
D03*
X252953Y388976D02*
D03*
Y395669D02*
D03*
X61024Y129863D02*
D03*
Y136556D02*
D03*
X62008Y223425D02*
D03*
Y230118D02*
D03*
X52036D02*
D03*
Y223425D02*
D03*
X313976Y389173D02*
D03*
Y382480D02*
D03*
X305118D02*
D03*
Y389173D02*
D03*
X192913Y25000D02*
D03*
Y18307D02*
D03*
X135827Y48819D02*
D03*
Y55512D02*
D03*
X51839Y136497D02*
D03*
Y129804D02*
D03*
D40*
X478115Y163861D02*
D03*
X476723Y165253D02*
D03*
X475331Y166645D02*
D03*
X473939Y168037D02*
D03*
X472547Y169429D02*
D03*
X471156Y170821D02*
D03*
X469764Y172213D02*
D03*
X468372Y173605D02*
D03*
X466980Y174997D02*
D03*
X465588Y176389D02*
D03*
X464196Y177781D02*
D03*
X462804Y179173D02*
D03*
X461412Y180565D02*
D03*
X460020Y181957D02*
D03*
X458628Y183349D02*
D03*
X457236Y184741D02*
D03*
X425361Y152865D02*
D03*
X426753Y151473D02*
D03*
X428145Y150081D02*
D03*
X429536Y148689D02*
D03*
X430928Y147297D02*
D03*
X432320Y145905D02*
D03*
X433712Y144513D02*
D03*
X435104Y143122D02*
D03*
X436496Y141729D02*
D03*
X437888Y140338D02*
D03*
X439280Y138946D02*
D03*
X440672Y137554D02*
D03*
X442064Y136162D02*
D03*
X443456Y134770D02*
D03*
X444848Y133378D02*
D03*
X446240Y131986D02*
D03*
D41*
X851378Y213326D02*
D03*
Y200137D02*
D03*
D42*
X664780Y440059D02*
D03*
X662221D02*
D03*
X659662D02*
D03*
X657103D02*
D03*
X664780Y422539D02*
D03*
X662221D02*
D03*
X659662D02*
D03*
X657103D02*
D03*
D43*
X676886Y406595D02*
D03*
Y400492D02*
D03*
X302795Y430118D02*
D03*
Y436221D02*
D03*
X296299Y430118D02*
D03*
Y436221D02*
D03*
X169485Y226870D02*
D03*
Y220768D02*
D03*
X170276Y131281D02*
D03*
Y125178D02*
D03*
D44*
X676689Y392620D02*
D03*
Y381596D02*
D03*
X294449Y388976D02*
D03*
Y377953D02*
D03*
X140059Y112126D02*
D03*
Y101103D02*
D03*
X128248Y112126D02*
D03*
Y101103D02*
D03*
X116142D02*
D03*
Y112126D02*
D03*
X104331D02*
D03*
Y101103D02*
D03*
X143701Y205846D02*
D03*
Y194822D02*
D03*
X130905Y205709D02*
D03*
Y194685D02*
D03*
X118405Y205747D02*
D03*
Y194724D02*
D03*
X106299Y205747D02*
D03*
Y194724D02*
D03*
D45*
X645252Y386811D02*
D03*
Y392717D02*
D03*
X321915Y383858D02*
D03*
Y389764D02*
D03*
X89961Y105060D02*
D03*
Y110966D02*
D03*
X89961Y198228D02*
D03*
Y204134D02*
D03*
X42323Y229724D02*
D03*
Y223819D02*
D03*
X42126Y135785D02*
D03*
Y129880D02*
D03*
X215555Y17717D02*
D03*
Y11811D02*
D03*
D46*
X301476Y453150D02*
D03*
D47*
X305217Y458543D02*
D03*
X301476D02*
D03*
X297736D02*
D03*
X305217Y447756D02*
D03*
X301476D02*
D03*
X297736D02*
D03*
D48*
X284449Y450787D02*
D03*
X267756D02*
D03*
X332205D02*
D03*
X348898D02*
D03*
D49*
X224501Y394783D02*
D03*
X233556D02*
D03*
X242612D02*
D03*
D50*
X233556Y417815D02*
D03*
D51*
X144193Y224803D02*
D03*
X127461D02*
D03*
X126476Y131182D02*
D03*
X143209D02*
D03*
D52*
X79724Y222835D02*
D03*
X73819D02*
D03*
X78740Y129272D02*
D03*
X72835D02*
D03*
X241142Y52165D02*
D03*
X235236D02*
D03*
D53*
X63976Y113466D02*
D03*
X64961Y207087D02*
D03*
D54*
X76378Y105966D02*
D03*
Y110966D02*
D03*
Y115966D02*
D03*
Y120966D02*
D03*
X51575Y105966D02*
D03*
Y110966D02*
D03*
Y115966D02*
D03*
Y120966D02*
D03*
X77362Y199587D02*
D03*
Y204587D02*
D03*
Y209587D02*
D03*
Y214587D02*
D03*
X52559Y199587D02*
D03*
Y204587D02*
D03*
Y209587D02*
D03*
Y214587D02*
D03*
D55*
X120374Y55415D02*
D03*
Y34745D02*
D03*
D56*
X187103Y245276D02*
D03*
X184544D02*
D03*
X181985D02*
D03*
X179426D02*
D03*
X187103Y222047D02*
D03*
X184544D02*
D03*
X181985D02*
D03*
X179426D02*
D03*
X185925Y149686D02*
D03*
X183366D02*
D03*
X180807D02*
D03*
X178248D02*
D03*
X185925Y126458D02*
D03*
X183366D02*
D03*
X180807D02*
D03*
X178248D02*
D03*
D57*
X207776Y46407D02*
D03*
Y43986D02*
D03*
Y41565D02*
D03*
Y39144D02*
D03*
Y36722D02*
D03*
Y34301D02*
D03*
X225295Y46407D02*
D03*
Y43986D02*
D03*
Y41565D02*
D03*
Y39144D02*
D03*
Y36722D02*
D03*
Y34301D02*
D03*
D58*
X864543Y56267D02*
D03*
Y40126D02*
D03*
D59*
X318366Y420768D02*
D03*
X315866D02*
D03*
X313366D02*
D03*
X310866D02*
D03*
X308366D02*
D03*
X305866D02*
D03*
X303366D02*
D03*
X300866D02*
D03*
X298366D02*
D03*
X295866D02*
D03*
X318366Y399311D02*
D03*
X315866D02*
D03*
X313366D02*
D03*
X310866D02*
D03*
X308366D02*
D03*
X305866D02*
D03*
X303366D02*
D03*
X300866D02*
D03*
X298366D02*
D03*
X295866D02*
D03*
D60*
X869734Y257874D02*
D03*
X852411D02*
D03*
D61*
X85433Y53150D02*
D03*
X101575D02*
D03*
D62*
X838583Y233760D02*
D03*
Y248524D02*
D03*
D119*
X460236Y38189D02*
X462638Y35787D01*
Y31496D02*
Y35787D01*
X398957Y185682D02*
Y188976D01*
X398956Y46389D02*
X413243Y32101D01*
X311417Y34173D02*
X314134Y31457D01*
X311417Y34173D02*
Y76378D01*
X304134Y31457D02*
X307480Y34803D01*
Y75590D01*
X412638Y31496D02*
X413243Y32101D01*
X398956Y46389D02*
Y97682D01*
X316805Y110412D02*
Y114128D01*
X316212Y114721D02*
X316805Y114128D01*
X311263Y114721D02*
X316212D01*
X310555Y115429D02*
X311263Y114721D01*
X310555Y115429D02*
Y165354D01*
X303304Y114721D02*
X307241D01*
X301969Y113386D02*
X303304Y114721D01*
X301969Y111748D02*
Y113386D01*
X307241Y114721D02*
X308055Y115535D01*
Y166390D01*
X450488Y144484D02*
Y177850D01*
X448127Y180212D02*
X450488Y177850D01*
X447984Y180212D02*
X448127D01*
X447988Y143448D02*
Y176815D01*
X447091Y177712D02*
X447988Y176815D01*
X448721Y142716D02*
X450984Y140453D01*
Y116934D02*
Y140453D01*
X448721Y142716D02*
Y142716D01*
X457736Y26398D02*
X462638Y21496D01*
X450984Y116934D02*
X457736Y110182D01*
Y26398D02*
Y110182D01*
X447988Y143448D02*
X448721Y142716D01*
X453484Y117970D02*
X460236Y111218D01*
Y38189D02*
Y111218D01*
X453484Y117970D02*
Y141488D01*
X450488Y144484D02*
X453484Y141488D01*
X301805Y110412D02*
Y110609D01*
X308071Y166406D02*
Y167323D01*
X308055Y166390D02*
X308071Y166406D01*
X779528Y193929D02*
Y207989D01*
X769685Y184087D02*
X779528Y193929D01*
X769685Y177773D02*
Y184087D01*
X710630Y74803D02*
Y206693D01*
X775683Y207409D02*
X777028Y206065D01*
X775683Y207409D02*
Y209842D01*
X712598Y209148D02*
Y211417D01*
Y209148D02*
X713758Y207989D01*
Y205397D02*
Y207989D01*
X713130Y204769D02*
X713758Y205397D01*
X777028Y194965D02*
Y206065D01*
X775584Y193521D02*
X777028Y194965D01*
X769685Y193521D02*
X775584D01*
X713130Y78209D02*
Y204769D01*
Y78209D02*
X713583Y77756D01*
X396431Y96672D02*
Y103886D01*
Y96672D02*
X396456Y96647D01*
Y45353D02*
Y96647D01*
X398931Y97707D02*
Y102851D01*
Y97707D02*
X398956Y97682D01*
X396456Y45353D02*
X407738Y34071D01*
X398956Y185681D02*
X398957Y185682D01*
X398956Y102876D02*
Y185681D01*
X398931Y102851D02*
X398956Y102876D01*
X407738Y26596D02*
Y34071D01*
X402638Y21496D02*
X407738Y26596D01*
X396457Y186717D02*
Y191652D01*
X396456Y103911D02*
Y186716D01*
X396457Y186717D01*
X396431Y103886D02*
X396456Y103911D01*
D120*
X252461Y395177D02*
X258858D01*
X261811Y382388D02*
Y392224D01*
X258858Y395177D02*
X261811Y392224D01*
X242612Y363189D02*
X261811Y382388D01*
X233858Y288976D02*
Y383858D01*
X200787Y255906D02*
X233858Y288976D01*
X195866Y255906D02*
X200787D01*
X183539Y167890D02*
X185925Y170276D01*
X183346Y165354D02*
Y167696D01*
X185925Y170276D02*
X204179D01*
X213583Y179679D01*
Y250295D01*
X242612Y279324D01*
Y363189D01*
D121*
X469758Y180559D02*
Y180565D01*
X306693Y105118D02*
X306805Y105230D01*
Y110412D01*
X306701Y110713D02*
X306805Y110609D01*
D122*
X446850Y44980D02*
Y91535D01*
X442638Y40768D02*
X446850Y44980D01*
X442638Y31496D02*
Y40768D01*
D123*
X390132Y34228D02*
Y177604D01*
X387738Y25648D02*
Y179077D01*
Y25648D02*
X392264Y21122D01*
X390132Y34228D02*
X392751Y31609D01*
X390529Y178001D02*
Y181518D01*
X390132Y177604D02*
X390529Y178001D01*
D124*
X488727Y146116D02*
X493110Y141732D01*
X488681Y146161D02*
X488727Y146116D01*
X482797Y140277D02*
X488681Y146161D01*
X181985Y234646D02*
Y245276D01*
D125*
X407206Y171911D02*
X407361D01*
X862745Y213326D02*
X863238Y213819D01*
X845620Y233819D02*
X863238D01*
X233858Y383858D02*
Y394482D01*
X233556Y394783D02*
X233858Y394482D01*
D126*
X180807Y141812D02*
Y149686D01*
X332205Y450787D02*
X336614D01*
X267520Y433268D02*
Y437992D01*
X278543D02*
X278543Y437992D01*
X274213Y437992D02*
X278543D01*
X297638Y470472D02*
X297736Y470374D01*
Y458543D02*
Y470374D01*
D127*
X851378Y213326D02*
X862745D01*
X851378Y200137D02*
X855060Y203819D01*
X863238D01*
X841535Y199803D02*
Y205709D01*
Y212402D02*
Y233268D01*
X183346Y165354D02*
X183366Y160239D01*
X188976Y255906D02*
X195866D01*
D128*
X653386Y343504D02*
D03*
X663386D02*
D03*
X314134Y31457D02*
D03*
X304134D02*
D03*
X602835Y31497D02*
D03*
Y21496D02*
D03*
X612835Y31497D02*
D03*
Y21496D02*
D03*
X622834Y31497D02*
D03*
Y21496D02*
D03*
X632835Y31497D02*
D03*
Y21497D02*
D03*
X592835Y21496D02*
D03*
Y31497D02*
D03*
X582834Y31496D02*
D03*
Y21496D02*
D03*
X562835D02*
D03*
Y31497D02*
D03*
X572835Y21496D02*
D03*
Y31496D02*
D03*
X885827Y147480D02*
D03*
Y157480D02*
D03*
X462638Y21496D02*
D03*
Y31496D02*
D03*
X522638D02*
D03*
X512638D02*
D03*
X502638D02*
D03*
X492638D02*
D03*
X482638D02*
D03*
X472638D02*
D03*
X442638D02*
D03*
X432638D02*
D03*
X422638D02*
D03*
X402638D02*
D03*
X392638D02*
D03*
X382638D02*
D03*
X522638Y21496D02*
D03*
X512638D02*
D03*
X502638D02*
D03*
X492638D02*
D03*
X482638D02*
D03*
X472638D02*
D03*
X442638D02*
D03*
X432638D02*
D03*
X422638D02*
D03*
X412638D02*
D03*
X392638D02*
D03*
X382638D02*
D03*
X452638Y31496D02*
D03*
Y21496D02*
D03*
X412638Y31496D02*
D03*
X402638Y21496D02*
D03*
X241339Y142599D02*
D03*
Y132599D02*
D03*
Y122599D02*
D03*
Y112600D02*
D03*
X231339D02*
D03*
Y122599D02*
D03*
Y132599D02*
D03*
Y142599D02*
D03*
X485827Y237402D02*
D03*
X475827D02*
D03*
D129*
X885827Y452756D02*
D03*
Y19685D02*
D03*
X19685Y452756D02*
D03*
Y19685D02*
D03*
D130*
X863189Y78740D02*
D03*
X893110Y68740D02*
D03*
X863189Y128740D02*
D03*
X893110D02*
D03*
X597555Y411522D02*
D03*
X627477Y401522D02*
D03*
X597555Y461522D02*
D03*
X627477D02*
D03*
X551296Y411522D02*
D03*
X581217Y401522D02*
D03*
X551296Y461522D02*
D03*
X581217D02*
D03*
D131*
X863238Y203819D02*
D03*
Y213819D02*
D03*
Y223819D02*
D03*
D132*
Y233819D02*
D03*
D133*
X725197Y39191D02*
D03*
X796457Y45096D02*
D03*
X725197Y237616D02*
D03*
X796457Y231710D02*
D03*
X61811Y298327D02*
D03*
X42323D02*
D03*
Y264862D02*
D03*
X20669Y298327D02*
D03*
D134*
X738189Y83285D02*
D03*
Y99033D02*
D03*
Y114781D02*
D03*
Y130529D02*
D03*
Y146277D02*
D03*
Y162025D02*
D03*
Y177773D02*
D03*
Y193521D02*
D03*
X753937Y91159D02*
D03*
Y106907D02*
D03*
Y122655D02*
D03*
Y138403D02*
D03*
Y154151D02*
D03*
Y169899D02*
D03*
Y185647D02*
D03*
X769685Y83285D02*
D03*
Y99033D02*
D03*
Y114781D02*
D03*
Y130529D02*
D03*
Y146277D02*
D03*
Y162025D02*
D03*
Y177773D02*
D03*
Y193521D02*
D03*
D135*
X466535Y39961D02*
D03*
X467520Y15748D02*
D03*
X524691Y468062D02*
D03*
X498966Y468219D02*
D03*
X405748Y133465D02*
D03*
X446850Y89366D02*
D03*
Y69173D02*
D03*
Y79269D02*
D03*
X382874Y158465D02*
D03*
X405748Y118898D02*
D03*
X418898Y125146D02*
D03*
X823819Y238189D02*
D03*
Y226378D02*
D03*
Y232283D02*
D03*
X818898Y235236D02*
D03*
Y229331D02*
D03*
Y223425D02*
D03*
X869734Y244094D02*
D03*
X66771Y46990D02*
D03*
X57519D02*
D03*
X66771Y61754D02*
D03*
X57519D02*
D03*
X62008Y54864D02*
D03*
X53128Y54864D02*
D03*
X214469Y29685D02*
D03*
X215555Y21654D02*
D03*
X110500Y94371D02*
D03*
Y88466D02*
D03*
X122351Y94397D02*
D03*
Y88269D02*
D03*
X134843Y94397D02*
D03*
Y88269D02*
D03*
X146043Y94397D02*
D03*
X146653Y88269D02*
D03*
X98425Y88466D02*
D03*
X100394Y182087D02*
D03*
X148622Y181890D02*
D03*
X148012Y188018D02*
D03*
X136811Y181890D02*
D03*
Y188018D02*
D03*
X124320Y181890D02*
D03*
Y188018D02*
D03*
X112468Y182087D02*
D03*
Y187992D02*
D03*
X607874Y98639D02*
D03*
X94587Y241929D02*
D03*
X128248Y245984D02*
D03*
X127165Y152363D02*
D03*
X93504Y148308D02*
D03*
X321915Y395669D02*
D03*
X295768Y405512D02*
D03*
X300866Y407264D02*
D03*
X295768Y415354D02*
D03*
X313366Y414370D02*
D03*
X297638Y443307D02*
D03*
X301575D02*
D03*
D136*
X639764Y106907D02*
D03*
X612835Y155512D02*
D03*
X305217Y443405D02*
D03*
X293099Y106812D02*
D03*
X418898Y137008D02*
D03*
X306693Y105118D02*
D03*
X443456Y174135D02*
D03*
X453937Y185433D02*
D03*
X449605Y185826D02*
D03*
X437008Y184055D02*
D03*
X544882Y142126D02*
D03*
X539370Y142520D02*
D03*
X546063Y152865D02*
D03*
X311805Y105060D02*
D03*
X434055Y163189D02*
D03*
X431496Y162025D02*
D03*
X308071Y167323D02*
D03*
X310555Y165354D02*
D03*
X456693Y139370D02*
D03*
X439173Y200787D02*
D03*
X439978Y185826D02*
D03*
X505905Y151575D02*
D03*
X495079Y131986D02*
D03*
X509842Y169685D02*
D03*
X512638Y167323D02*
D03*
X490748Y136162D02*
D03*
X448425Y138614D02*
D03*
X477165Y178347D02*
D03*
X396457Y191652D02*
D03*
X398819Y188976D02*
D03*
X415354Y187008D02*
D03*
X460534Y189961D02*
D03*
X459646Y196850D02*
D03*
X416339Y163189D02*
D03*
X499981Y152147D02*
D03*
X453542Y169291D02*
D03*
X439978D02*
D03*
X442638Y158465D02*
D03*
X437795Y160433D02*
D03*
X431692Y209867D02*
D03*
X430210Y176823D02*
D03*
X423307Y162025D02*
D03*
X469488Y112205D02*
D03*
X465551Y116273D02*
D03*
X463542Y162872D02*
D03*
X487713Y174440D02*
D03*
X466980Y150591D02*
D03*
X472441Y131986D02*
D03*
X476674Y128010D02*
D03*
X469764Y136162D02*
D03*
X465551Y126435D02*
D03*
X435039Y151575D02*
D03*
X471284Y153543D02*
D03*
X530512Y148736D02*
D03*
X527559Y146653D02*
D03*
X480413D02*
D03*
X482638Y149171D02*
D03*
X527559Y92520D02*
D03*
X530512Y113466D02*
D03*
X455118Y144488D02*
D03*
X457736Y147638D02*
D03*
X410825Y174605D02*
D03*
X415354Y170866D02*
D03*
X420394Y198879D02*
D03*
X424409Y130709D02*
D03*
X426753Y134252D02*
D03*
X435827Y119685D02*
D03*
X439280Y123228D02*
D03*
X669291Y133839D02*
D03*
X439173Y148622D02*
D03*
X401181Y98639D02*
D03*
X469758Y162598D02*
D03*
X494095D02*
D03*
X490748Y155512D02*
D03*
X483268Y152865D02*
D03*
X562598Y165354D02*
D03*
X460042Y165748D02*
D03*
X462992Y169685D02*
D03*
X465551Y167323D02*
D03*
X487402Y210630D02*
D03*
X489764Y213386D02*
D03*
X512598Y133071D02*
D03*
X799213Y138189D02*
D03*
X462534Y123071D02*
D03*
X517717Y120421D02*
D03*
X439978Y106907D02*
D03*
X421260Y145980D02*
D03*
X277461Y385925D02*
D03*
X247047Y395177D02*
D03*
X353346Y450787D02*
D03*
X267520Y433268D02*
D03*
X278543Y437992D02*
D03*
X297638Y470472D02*
D03*
X291339Y444882D02*
D03*
X272638Y450787D02*
D03*
X336614D02*
D03*
X582741Y190261D02*
D03*
X465731D02*
D03*
X592227Y192913D02*
D03*
X462804D02*
D03*
X475197Y186024D02*
D03*
X572835Y186024D02*
D03*
X618110Y114781D02*
D03*
X628150Y91159D02*
D03*
X799204Y185647D02*
D03*
X327756Y216535D02*
D03*
X330709Y214350D02*
D03*
X417323Y145980D02*
D03*
X426863Y143870D02*
D03*
X432331Y152865D02*
D03*
X428740Y141729D02*
D03*
X424803Y146063D02*
D03*
X293099Y91457D02*
D03*
X316760Y83858D02*
D03*
X241339Y47638D02*
D03*
X241240Y39191D02*
D03*
D137*
X636041Y380971D02*
D03*
X650591Y388880D02*
D03*
Y392782D02*
D03*
X571850Y346850D02*
D03*
X591831Y341535D02*
D03*
X560407D02*
D03*
X377953Y6693D02*
D03*
X407480D02*
D03*
X416929D02*
D03*
X557087D02*
D03*
X597555D02*
D03*
X307087Y18701D02*
D03*
X864543Y47244D02*
D03*
X225984Y160630D02*
D03*
X222835Y148425D02*
D03*
X237008Y153272D02*
D03*
X261024Y143307D02*
D03*
X859631Y291339D02*
D03*
X311417Y76378D02*
D03*
X307480Y75590D02*
D03*
X780960Y392082D02*
D03*
X808964Y381496D02*
D03*
X795184D02*
D03*
X834019Y380971D02*
D03*
X820239D02*
D03*
X856748Y386526D02*
D03*
X842968D02*
D03*
X816233Y362904D02*
D03*
X802041Y374715D02*
D03*
X810167Y369160D02*
D03*
X815821Y374715D02*
D03*
X816645Y351093D02*
D03*
X821176Y292738D02*
D03*
X842144Y362205D02*
D03*
X827953Y374016D02*
D03*
X828777Y362205D02*
D03*
X836078Y368460D02*
D03*
X841732Y374016D02*
D03*
X842968Y338583D02*
D03*
X828777Y350394D02*
D03*
X829601Y338583D02*
D03*
X836902Y344838D02*
D03*
X842556Y350394D02*
D03*
X835666Y356649D02*
D03*
X843792Y314961D02*
D03*
X829601Y326772D02*
D03*
X830424Y314961D02*
D03*
X837726Y321216D02*
D03*
X843380Y326772D02*
D03*
X836490Y333027D02*
D03*
X847087Y292038D02*
D03*
X830424Y303150D02*
D03*
X833720Y292038D02*
D03*
X838550Y297594D02*
D03*
X844204Y303150D02*
D03*
X837314Y309405D02*
D03*
X864049Y369160D02*
D03*
X849858Y380971D02*
D03*
X850682Y369160D02*
D03*
X857983Y375415D02*
D03*
X863637Y380971D02*
D03*
X864873Y345537D02*
D03*
X850682Y357348D02*
D03*
X851506Y345537D02*
D03*
X858807Y351793D02*
D03*
X864461Y357348D02*
D03*
X857572Y363604D02*
D03*
X865697Y321916D02*
D03*
X851506Y333727D02*
D03*
X852330Y321916D02*
D03*
X859631Y328171D02*
D03*
X865285Y333727D02*
D03*
X858395Y339982D02*
D03*
X866521Y298293D02*
D03*
X852330Y310104D02*
D03*
X853153Y298293D02*
D03*
X860455Y304549D02*
D03*
X866109Y310104D02*
D03*
X859219Y316360D02*
D03*
X850824Y416929D02*
D03*
X815139Y410674D02*
D03*
X815963Y387052D02*
D03*
X815409Y398337D02*
D03*
X864603Y416929D02*
D03*
X865427Y393307D02*
D03*
X864873Y404593D02*
D03*
X828777Y410148D02*
D03*
X821063Y392082D02*
D03*
X827953Y385827D02*
D03*
Y397638D02*
D03*
X821475Y403893D02*
D03*
X801556Y410148D02*
D03*
X753937Y393307D02*
D03*
X775591Y398031D02*
D03*
X774070Y410148D02*
D03*
X768005Y403893D02*
D03*
X782196D02*
D03*
X850270Y428215D02*
D03*
X864049D02*
D03*
X877829D02*
D03*
X842968Y421959D02*
D03*
X856748D02*
D03*
X895728Y310104D02*
D03*
X881948D02*
D03*
X888838Y303849D02*
D03*
X883184Y298293D02*
D03*
X875882Y292038D02*
D03*
X875058Y303849D02*
D03*
X889250Y292038D02*
D03*
X896282Y298819D02*
D03*
X894904Y333727D02*
D03*
X881124D02*
D03*
X888014Y327471D02*
D03*
X882360Y321916D02*
D03*
X875058Y315660D02*
D03*
X874235Y327471D02*
D03*
X888426Y315660D02*
D03*
X895458Y322441D02*
D03*
X894080Y357348D02*
D03*
X880301D02*
D03*
X887190Y351093D02*
D03*
X881536Y345537D02*
D03*
X874235Y339282D02*
D03*
X873411Y351093D02*
D03*
X887602Y339282D02*
D03*
X894634Y346063D02*
D03*
X893256Y380971D02*
D03*
X879477D02*
D03*
X886366Y374715D02*
D03*
X880712Y369160D02*
D03*
X873411Y362904D02*
D03*
X872587Y374715D02*
D03*
X886778Y362904D02*
D03*
X893810Y369685D02*
D03*
X892432Y404593D02*
D03*
X878653D02*
D03*
X885542Y398337D02*
D03*
X879889Y392782D02*
D03*
X872587Y386526D02*
D03*
X871763Y398337D02*
D03*
X885954Y386526D02*
D03*
X892986Y393307D02*
D03*
X891608Y428215D02*
D03*
X884719Y421959D02*
D03*
X879065Y416404D02*
D03*
X871763Y410148D02*
D03*
X870939Y421959D02*
D03*
X885131Y410148D02*
D03*
X892162Y416929D02*
D03*
X856336Y410848D02*
D03*
X842556D02*
D03*
X849446Y404593D02*
D03*
X843792Y399037D02*
D03*
X836490Y392782D02*
D03*
X835666Y404593D02*
D03*
X849858Y392782D02*
D03*
X856890Y399562D02*
D03*
X808519Y404593D02*
D03*
X794740D02*
D03*
X801630Y398337D02*
D03*
X795976Y392782D02*
D03*
X788674Y386526D02*
D03*
X787850Y398337D02*
D03*
X802041Y386526D02*
D03*
X809073Y393307D02*
D03*
X744864Y409449D02*
D03*
X759879D02*
D03*
X768417Y392782D02*
D03*
X754225Y403893D02*
D03*
X761527Y398337D02*
D03*
X794882Y428740D02*
D03*
X794740Y416404D02*
D03*
X787850Y410148D02*
D03*
Y421959D02*
D03*
X814997Y433770D02*
D03*
X759879D02*
D03*
X773659D02*
D03*
X746100D02*
D03*
X774482Y421959D02*
D03*
X760291D02*
D03*
X753401Y415704D02*
D03*
X767181D02*
D03*
X753401Y427515D02*
D03*
X767181D02*
D03*
X781784Y428215D02*
D03*
X781372Y416404D02*
D03*
X730672Y397638D02*
D03*
X716893D02*
D03*
X703113D02*
D03*
X744864Y398337D02*
D03*
X737974Y392082D02*
D03*
X716481Y385827D02*
D03*
X702701D02*
D03*
X709591Y391383D02*
D03*
X723370D02*
D03*
X731084Y421260D02*
D03*
X717305D02*
D03*
X703525D02*
D03*
X745276Y421959D02*
D03*
X737974Y403893D02*
D03*
X738386Y415704D02*
D03*
X731084Y409449D02*
D03*
X716893D02*
D03*
X703113D02*
D03*
X710003Y403194D02*
D03*
X723782D02*
D03*
X710003Y415004D02*
D03*
X723782D02*
D03*
X724194Y438627D02*
D03*
X710415D02*
D03*
X724194Y426816D02*
D03*
X710415D02*
D03*
X703525Y433071D02*
D03*
X717305D02*
D03*
X731496D02*
D03*
X738798Y439326D02*
D03*
X738386Y427515D02*
D03*
X821475D02*
D03*
X807695D02*
D03*
X821475Y415704D02*
D03*
X807695D02*
D03*
X800806Y421959D02*
D03*
X814585D02*
D03*
X828777D02*
D03*
X836078Y428215D02*
D03*
X835666Y416404D02*
D03*
X822299Y440026D02*
D03*
X829189Y433770D02*
D03*
X864049Y440026D02*
D03*
X850270D02*
D03*
X836490D02*
D03*
X870939Y433770D02*
D03*
X857160D02*
D03*
X843380D02*
D03*
X829189Y445581D02*
D03*
X842968D02*
D03*
X856748D02*
D03*
X822299Y451837D02*
D03*
X836078D02*
D03*
X849858D02*
D03*
X863637D02*
D03*
X814997Y445581D02*
D03*
X800806Y457393D02*
D03*
X787026D02*
D03*
X815409Y458092D02*
D03*
X842556D02*
D03*
X828777D02*
D03*
X778900Y462948D02*
D03*
X792680D02*
D03*
X751753D02*
D03*
X765533D02*
D03*
X801218Y445581D02*
D03*
X787438D02*
D03*
X794328Y451837D02*
D03*
X808107D02*
D03*
X801218Y433770D02*
D03*
X787438D02*
D03*
X780548Y440026D02*
D03*
X794328D02*
D03*
X808519D02*
D03*
X780960Y451837D02*
D03*
X766357Y451137D02*
D03*
X752577D02*
D03*
X759467Y457393D02*
D03*
X773247D02*
D03*
X766357Y439326D02*
D03*
X752577D02*
D03*
X745687Y445581D02*
D03*
X759467D02*
D03*
X773659D02*
D03*
X746100Y457393D02*
D03*
X711239Y462948D02*
D03*
X703937Y456693D02*
D03*
X738798Y451137D02*
D03*
X724606D02*
D03*
X710827D02*
D03*
X703937Y444882D02*
D03*
X717717D02*
D03*
X731496D02*
D03*
X738386Y462948D02*
D03*
X724606D02*
D03*
X717717Y456693D02*
D03*
X731496D02*
D03*
X559726Y386025D02*
D03*
X590041Y386593D02*
D03*
X858268Y13145D02*
D03*
X865158Y6693D02*
D03*
X844488Y13145D02*
D03*
X851378Y6693D02*
D03*
X830709Y13145D02*
D03*
X837598Y6693D02*
D03*
X170472Y63386D02*
D03*
X225590Y57874D02*
D03*
X779528Y207989D02*
D03*
X710630Y74803D02*
D03*
Y206693D02*
D03*
X775683Y209842D02*
D03*
X712598Y211417D02*
D03*
X713583Y77756D02*
D03*
X873032Y84646D02*
D03*
X887713D02*
D03*
X892457Y78504D02*
D03*
X880906Y78719D02*
D03*
X853347Y88269D02*
D03*
X816109Y57834D02*
D03*
Y69173D02*
D03*
X828822D02*
D03*
X822917Y63246D02*
D03*
X843504Y69173D02*
D03*
X849409Y63246D02*
D03*
X836696D02*
D03*
X816109Y83313D02*
D03*
X828822D02*
D03*
X822917Y77386D02*
D03*
X843504Y83313D02*
D03*
X849409Y77386D02*
D03*
X836696D02*
D03*
X881083Y91139D02*
D03*
X892635Y90924D02*
D03*
X886729Y96850D02*
D03*
X866142Y90924D02*
D03*
X872047Y96850D02*
D03*
X859334D02*
D03*
X834646Y95472D02*
D03*
X812992Y239961D02*
D03*
X809055Y237008D02*
D03*
X812992Y169685D02*
D03*
X809055Y153543D02*
D03*
X801180Y36417D02*
D03*
Y24606D02*
D03*
X801181Y201772D02*
D03*
X141732Y26575D02*
D03*
X155512D02*
D03*
X169291D02*
D03*
X148622Y34449D02*
D03*
X162402D02*
D03*
X176181D02*
D03*
X362205D02*
D03*
X348425D02*
D03*
X334646D02*
D03*
X279528D02*
D03*
X265748D02*
D03*
X369094Y26575D02*
D03*
X355315D02*
D03*
X341535D02*
D03*
X327756D02*
D03*
X286417D02*
D03*
X272638D02*
D03*
X362205Y18701D02*
D03*
X348425D02*
D03*
X334646D02*
D03*
X320866D02*
D03*
X293307D02*
D03*
X279528D02*
D03*
X265748D02*
D03*
X810039Y30512D02*
D03*
X176181Y6693D02*
D03*
X107283D02*
D03*
X162401D02*
D03*
X148622D02*
D03*
X121063D02*
D03*
X134843D02*
D03*
X171161Y93945D02*
D03*
X203546Y137678D02*
D03*
X198625Y122057D02*
D03*
X203546Y126978D02*
D03*
X198625Y132757D02*
D03*
Y111352D02*
D03*
X203546Y116273D02*
D03*
X203346Y93081D02*
D03*
X186814Y111352D02*
D03*
X192720Y115730D02*
D03*
X192520Y92913D02*
D03*
X180709D02*
D03*
X192720Y126435D02*
D03*
X186614Y88160D02*
D03*
X198425D02*
D03*
X198625Y183264D02*
D03*
X186814D02*
D03*
X193898Y222025D02*
D03*
X180909Y188018D02*
D03*
X181198Y208268D02*
D03*
X192720Y188018D02*
D03*
X193898Y211320D02*
D03*
X187992Y206941D02*
D03*
X203546Y188185D02*
D03*
X204724Y211863D02*
D03*
X199803Y206941D02*
D03*
X56890Y142675D02*
D03*
X47047D02*
D03*
X35236Y135982D02*
D03*
Y142675D02*
D03*
Y149171D02*
D03*
X47047D02*
D03*
X56890D02*
D03*
X57087Y243110D02*
D03*
X47244D02*
D03*
X35433D02*
D03*
Y236614D02*
D03*
X258858Y6693D02*
D03*
X245079D02*
D03*
X272638D02*
D03*
X286417D02*
D03*
X300197D02*
D03*
X313976D02*
D03*
X327756D02*
D03*
X341535D02*
D03*
X355315D02*
D03*
X369094D02*
D03*
X427559D02*
D03*
X397342D02*
D03*
X387402D02*
D03*
X437402D02*
D03*
X447835D02*
D03*
X457480D02*
D03*
X468012D02*
D03*
X487205D02*
D03*
X497047D02*
D03*
X507874D02*
D03*
X517717D02*
D03*
X566929D02*
D03*
X548228D02*
D03*
X534449D02*
D03*
X577756D02*
D03*
X587598D02*
D03*
X607874D02*
D03*
X617618D02*
D03*
X626968D02*
D03*
X644685D02*
D03*
X658465D02*
D03*
X672244D02*
D03*
X796260Y30512D02*
D03*
X782480D02*
D03*
X789370Y36767D02*
D03*
X817057D02*
D03*
X768701Y30512D02*
D03*
X754921D02*
D03*
X741142D02*
D03*
X748032Y36767D02*
D03*
X761811D02*
D03*
X776003D02*
D03*
X823819Y6693D02*
D03*
X810039D02*
D03*
X816929Y13145D02*
D03*
X796260Y18701D02*
D03*
X782480D02*
D03*
X789370Y24956D02*
D03*
X817057D02*
D03*
X796260Y6693D02*
D03*
X782480D02*
D03*
X768701D02*
D03*
X775591Y13145D02*
D03*
X789370D02*
D03*
X768701Y18701D02*
D03*
X754921D02*
D03*
X741142D02*
D03*
X748032Y24956D02*
D03*
X761811D02*
D03*
X776003D02*
D03*
X754921Y6693D02*
D03*
X741142D02*
D03*
X727362D02*
D03*
X734252Y13145D02*
D03*
X748032D02*
D03*
X762223D02*
D03*
X727362Y18701D02*
D03*
X713583D02*
D03*
X699803D02*
D03*
X706693Y24956D02*
D03*
X720472D02*
D03*
X734664D02*
D03*
X720884Y13145D02*
D03*
X706693D02*
D03*
X692913D02*
D03*
X686024Y6693D02*
D03*
X699803D02*
D03*
X713583D02*
D03*
X806988Y16043D02*
D03*
X378642Y399633D02*
D03*
X389075Y396562D02*
D03*
X389173Y386070D02*
D03*
X391732Y468504D02*
D03*
X386890D02*
D03*
X381890D02*
D03*
X372047D02*
D03*
X675000Y245734D02*
D03*
X675197Y364173D02*
D03*
X738189Y240551D02*
D03*
X818898Y249016D02*
D03*
X671260Y241142D02*
D03*
X684055Y381890D02*
D03*
X841535Y199803D02*
D03*
X680118Y250000D02*
D03*
Y367126D02*
D03*
X648146Y405512D02*
D03*
X686532Y415354D02*
D03*
X689485Y435039D02*
D03*
Y428738D02*
D03*
X665862Y416339D02*
D03*
X670784Y422244D02*
D03*
X654051Y416339D02*
D03*
X638303Y435039D02*
D03*
X645587D02*
D03*
X651886Y440945D02*
D03*
X636335Y429327D02*
D03*
Y422734D02*
D03*
X199803Y228346D02*
D03*
X180020Y112205D02*
D03*
X190751Y149859D02*
D03*
X183366Y132757D02*
D03*
X204724Y222568D02*
D03*
X199803Y217647D02*
D03*
X204724Y233268D02*
D03*
X184544Y228346D02*
D03*
X191929Y245449D02*
D03*
X224501Y403543D02*
D03*
X247047Y383858D02*
D03*
X321850Y375984D02*
D03*
X313976D02*
D03*
X305118D02*
D03*
X813976Y252953D02*
D03*
X818898Y264764D02*
D03*
Y256890D02*
D03*
X813976Y260827D02*
D03*
X864543Y64961D02*
D03*
X854130Y174605D02*
D03*
Y181298D02*
D03*
X63976Y96545D02*
D03*
X45276Y96792D02*
D03*
X35433Y229921D02*
D03*
X47244Y236614D02*
D03*
X57087D02*
D03*
X84646Y105060D02*
D03*
X84941Y198228D02*
D03*
X36417Y100197D02*
D03*
X31496Y105571D02*
D03*
X36417Y110571D02*
D03*
X31496Y115571D02*
D03*
Y125571D02*
D03*
X36417Y120571D02*
D03*
X36417Y214350D02*
D03*
X31496Y219350D02*
D03*
X46260Y190354D02*
D03*
X66142D02*
D03*
X31496Y209350D02*
D03*
X36417Y204350D02*
D03*
X31496Y199350D02*
D03*
X36417Y193976D02*
D03*
X81693Y6890D02*
D03*
X74803D02*
D03*
X66929D02*
D03*
X60039D02*
D03*
X53150D02*
D03*
X46260D02*
D03*
X74705Y53150D02*
D03*
X216535Y39191D02*
D03*
X225590Y52756D02*
D03*
X192913Y11811D02*
D03*
X163779Y204331D02*
D03*
X164272Y186713D02*
D03*
X170276Y47244D02*
D03*
X143012Y49016D02*
D03*
X241240Y29577D02*
D03*
X241339Y57874D02*
D03*
X227992Y9843D02*
D03*
X215555Y6693D02*
D03*
X201575D02*
D03*
X851364Y43110D02*
D03*
X851482Y36417D02*
D03*
X814961Y132874D02*
D03*
X814961Y123031D02*
D03*
Y113189D02*
D03*
Y103347D02*
D03*
X820866Y108268D02*
D03*
Y118110D02*
D03*
Y127953D02*
D03*
D138*
X469758Y180565D02*
D03*
X369094Y138583D02*
D03*
X378346Y145276D02*
D03*
X375590Y151181D02*
D03*
X372047Y155512D02*
D03*
X469758Y186024D02*
D03*
X506890Y36417D02*
D03*
X399508Y399508D02*
D03*
X522360Y183480D02*
D03*
X394094Y175706D02*
D03*
X515354Y160630D02*
D03*
X444882Y141732D02*
D03*
X526476Y180980D02*
D03*
X467323Y183071D02*
D03*
X473424Y177165D02*
D03*
X387795Y179921D02*
D03*
X515945Y122655D02*
D03*
X462598Y150591D02*
D03*
X437008Y41339D02*
D03*
X379429Y406988D02*
D03*
X405669Y399508D02*
D03*
X371654Y407113D02*
D03*
X390529Y181890D02*
D03*
X508661Y240551D02*
D03*
X477559Y218504D02*
D03*
X513386Y222441D02*
D03*
X519685Y221457D02*
D03*
X506299Y233071D02*
D03*
X66142Y109135D02*
D03*
X61811D02*
D03*
X66142Y113466D02*
D03*
X61811D02*
D03*
X66142Y117796D02*
D03*
X61811D02*
D03*
X67126Y202756D02*
D03*
X62795D02*
D03*
X67126Y207087D02*
D03*
X62795D02*
D03*
X67126Y211417D02*
D03*
X62795D02*
D03*
M02*
