G04*
G04 #@! TF.GenerationSoftware,Altium Limited,Altium Designer,18.1.11 (251)*
G04*
G04 Layer_Physical_Order=4*
G04 Layer_Color=16711680*
%FSLAX25Y25*%
%MOIN*%
G70*
G01*
G75*
%ADD11C,0.02362*%
%ADD13C,0.01000*%
%ADD14C,0.00787*%
%ADD16C,0.01968*%
%ADD39R,0.05709X0.04724*%
%ADD43R,0.03543X0.03347*%
%ADD52R,0.04134X0.03937*%
%ADD119C,0.01500*%
%ADD128C,0.06299*%
%ADD129C,0.21654*%
%ADD130C,0.11811*%
%ADD131C,0.05268*%
%ADD132R,0.05268X0.05268*%
%ADD133C,0.07874*%
%ADD134C,0.09843*%
%ADD135C,0.02362*%
%ADD136C,0.01575*%
%ADD137C,0.02756*%
%ADD138C,0.01968*%
%ADD139R,0.07087X0.07480*%
%ADD140R,0.07480X0.07480*%
%ADD141R,0.08268X0.06299*%
%ADD142R,0.01575X0.05315*%
%ADD143R,0.01575X0.05335*%
G36*
X327756Y416339D02*
Y395079D01*
X323425Y390748D01*
X294291D01*
X291339Y393701D01*
Y416339D01*
X294291Y419291D01*
X324803D01*
X327756Y416339D01*
D02*
G37*
G36*
X875984Y247047D02*
Y219488D01*
X816513Y219488D01*
X814960Y221041D01*
X814962Y237206D01*
X816929Y239173D01*
X819488Y239173D01*
X821850Y241535D01*
X821850Y247047D01*
X824803Y250000D01*
X873032Y250000D01*
X875984Y247047D01*
D02*
G37*
G36*
X874825Y470388D02*
X873284Y469358D01*
X871226Y467553D01*
X869421Y465495D01*
X867901Y463219D01*
X866690Y460764D01*
X865810Y458172D01*
X865276Y455487D01*
X865097Y452756D01*
X865276Y450024D01*
X865810Y447340D01*
X866690Y444748D01*
X867901Y442293D01*
X869421Y440017D01*
X871226Y437958D01*
X873284Y436154D01*
X875560Y434633D01*
X878015Y433422D01*
X880607Y432542D01*
X883292Y432008D01*
X886024Y431829D01*
X888755Y432008D01*
X891440Y432542D01*
X894032Y433422D01*
X896487Y434633D01*
X898763Y436154D01*
X900821Y437958D01*
X902626Y440017D01*
X903065Y440673D01*
X903543Y440528D01*
Y437992D01*
Y143736D01*
X888585D01*
X888415Y144236D01*
X888786Y144521D01*
X889451Y145388D01*
X889870Y146397D01*
X890012Y147480D01*
X889870Y148564D01*
X889451Y149573D01*
X888786Y150440D01*
X887920Y151105D01*
X886910Y151523D01*
X885827Y151666D01*
X884743Y151523D01*
X883734Y151105D01*
X882867Y150440D01*
X882202Y149573D01*
X881784Y148564D01*
X881641Y147480D01*
X881784Y146397D01*
X882202Y145388D01*
X882867Y144521D01*
X883238Y144236D01*
X883068Y143736D01*
X865207D01*
X865060Y143707D01*
X864911Y143692D01*
X864867Y143668D01*
X864817Y143658D01*
X864692Y143575D01*
X864560Y143505D01*
X864346Y143444D01*
X864036Y143457D01*
X863918Y143504D01*
X861470Y145951D01*
X860814Y146390D01*
X860040Y146544D01*
X833858D01*
Y218469D01*
X875984Y218469D01*
X876374Y218546D01*
X876705Y218767D01*
X876926Y219098D01*
X877004Y219488D01*
Y247047D01*
X876926Y247437D01*
X876705Y247768D01*
X873752Y250721D01*
X873422Y250942D01*
X873032Y251020D01*
X833858Y251020D01*
Y266535D01*
X790691Y309703D01*
X791611Y313374D01*
X792193Y317298D01*
X792387Y321260D01*
X792193Y325222D01*
X791611Y329145D01*
X790647Y332993D01*
X789311Y336727D01*
X787615Y340313D01*
X785575Y343715D01*
X783213Y346901D01*
X780549Y349840D01*
X777610Y352504D01*
X774424Y354867D01*
X771022Y356906D01*
X767436Y358602D01*
X763701Y359938D01*
X759854Y360902D01*
X755930Y361484D01*
X751968Y361679D01*
X748007Y361484D01*
X744083Y360902D01*
X740236Y359938D01*
X736501Y358602D01*
X732915Y356906D01*
X729513Y354867D01*
X726327Y352504D01*
X723388Y349840D01*
X720724Y346901D01*
X718362Y343715D01*
X716322Y340313D01*
X715038Y337598D01*
X547244Y337598D01*
X540354Y344488D01*
X540354Y470866D01*
X874680Y470866D01*
X874825Y470388D01*
D02*
G37*
G36*
X903543Y50197D02*
X760827D01*
X760827Y85630D01*
X767717Y92520D01*
X805118D01*
X809055Y96457D01*
Y137678D01*
X813875Y142498D01*
X859202D01*
X861166Y140534D01*
Y135343D01*
X860534Y135151D01*
X859334Y134510D01*
X858282Y133647D01*
X857419Y132595D01*
X856778Y131396D01*
X856383Y130094D01*
X856250Y128740D01*
X856383Y127386D01*
X856778Y126085D01*
X857419Y124885D01*
X858282Y123834D01*
X859334Y122971D01*
X860534Y122329D01*
X861835Y121935D01*
X863189Y121801D01*
X864543Y121935D01*
X865844Y122329D01*
X867044Y122971D01*
X868095Y123834D01*
X868958Y124885D01*
X869600Y126085D01*
X869995Y127386D01*
X870128Y128740D01*
X869995Y130094D01*
X869600Y131396D01*
X868958Y132595D01*
X868095Y133647D01*
X867044Y134510D01*
X865844Y135151D01*
X865212Y135343D01*
Y141372D01*
X865058Y142146D01*
X864971Y142276D01*
X865207Y142717D01*
X903543D01*
Y50197D01*
D02*
G37*
G36*
Y31951D02*
X903043Y31800D01*
X902626Y32424D01*
X900821Y34482D01*
X898763Y36287D01*
X896487Y37808D01*
X894032Y39019D01*
X891440Y39899D01*
X888755Y40433D01*
X886024Y40612D01*
X883292Y40433D01*
X880607Y39899D01*
X878015Y39019D01*
X875560Y37808D01*
X873284Y36287D01*
X871226Y34482D01*
X869421Y32424D01*
X867901Y30148D01*
X866690Y27693D01*
X865810Y25101D01*
X865276Y22416D01*
X865097Y19685D01*
X865276Y16954D01*
X865810Y14269D01*
X866690Y11677D01*
X867901Y9222D01*
X869421Y6946D01*
X871226Y4888D01*
X873284Y3083D01*
X873723Y2790D01*
X873800Y2144D01*
X873640Y1969D01*
X31815D01*
X31670Y2447D01*
X32621Y3083D01*
X34679Y4888D01*
X36484Y6946D01*
X38005Y9222D01*
X39216Y11677D01*
X39595Y12795D01*
X51181D01*
X190175D01*
X190585Y12295D01*
X190489Y11811D01*
X190673Y10883D01*
X191199Y10097D01*
X191986Y9571D01*
X192913Y9386D01*
X193841Y9571D01*
X194628Y10097D01*
X195153Y10883D01*
X195338Y11811D01*
X195242Y12295D01*
X195652Y12795D01*
X685039D01*
X686758Y14514D01*
X805150D01*
X805274Y14329D01*
X806060Y13803D01*
X806988Y13619D01*
X807916Y13803D01*
X808703Y14329D01*
X809228Y15115D01*
X809413Y16043D01*
X809228Y16971D01*
X808703Y17758D01*
X807916Y18283D01*
X806988Y18468D01*
X806060Y18283D01*
X805274Y17758D01*
X805150Y17573D01*
X690470D01*
X690279Y18035D01*
X719488Y47244D01*
X791553D01*
X791830Y46828D01*
X791647Y46385D01*
X791477Y45096D01*
X791647Y43807D01*
X792144Y42606D01*
X792936Y41575D01*
X793967Y40784D01*
X795168Y40286D01*
X796457Y40116D01*
X797746Y40286D01*
X798947Y40784D01*
X799978Y41575D01*
X800769Y42606D01*
X801267Y43807D01*
X801436Y45096D01*
X801267Y46385D01*
X801083Y46828D01*
X801361Y47244D01*
X862118D01*
X862303Y46316D01*
X862828Y45530D01*
X863615Y45004D01*
X864543Y44820D01*
X865471Y45004D01*
X866257Y45530D01*
X866783Y46316D01*
X866967Y47244D01*
X903543D01*
Y31951D01*
D02*
G37*
G36*
X240085Y49285D02*
X240050Y48926D01*
X239655Y48335D01*
X239516Y47638D01*
X239655Y46940D01*
X240050Y46349D01*
X240641Y45954D01*
X241339Y45815D01*
X242036Y45954D01*
X242627Y46349D01*
X242986Y46384D01*
X250000Y39370D01*
X379876D01*
X379974Y39321D01*
X381108Y38107D01*
Y35354D01*
X380545Y35121D01*
X379678Y34456D01*
X379013Y33589D01*
X378595Y32579D01*
X378452Y31496D01*
X378595Y30413D01*
X379013Y29403D01*
X379678Y28536D01*
X380545Y27871D01*
X381555Y27453D01*
X382638Y27311D01*
X383721Y27453D01*
X384731Y27871D01*
X385597Y28536D01*
X386262Y29403D01*
X386681Y30413D01*
X386823Y31496D01*
X386681Y32579D01*
X386262Y33589D01*
X385597Y34456D01*
X384731Y35121D01*
X384167Y35354D01*
Y37474D01*
X386064Y39370D01*
X424409D01*
X426851Y36929D01*
Y29528D01*
X428622Y27756D01*
X430824D01*
X431555Y27453D01*
X432638Y27311D01*
X433721Y27453D01*
X434452Y27756D01*
X440824D01*
X441554Y27453D01*
X442638Y27311D01*
X443721Y27453D01*
X444452Y27756D01*
X450824D01*
X451554Y27453D01*
X452638Y27311D01*
X453721Y27453D01*
X454452Y27756D01*
X460824D01*
X461554Y27453D01*
X462638Y27311D01*
X463721Y27453D01*
X464452Y27756D01*
X470824D01*
X471555Y27453D01*
X472638Y27311D01*
X473721Y27453D01*
X474452Y27756D01*
X477559D01*
Y34451D01*
X477996Y34888D01*
X486091D01*
X487205Y33774D01*
X487205Y25720D01*
X485840Y24440D01*
X485597Y24456D01*
X484730Y25121D01*
X483721Y25539D01*
X482638Y25681D01*
X481555Y25539D01*
X480545Y25121D01*
X479678Y24456D01*
X479013Y23589D01*
X478595Y22579D01*
X478452Y21496D01*
X478595Y20413D01*
X479013Y19403D01*
X477731Y18565D01*
X476447Y19850D01*
X476681Y20413D01*
X476823Y21496D01*
X476681Y22579D01*
X476263Y23589D01*
X475597Y24456D01*
X474730Y25121D01*
X473721Y25539D01*
X472638Y25681D01*
X471555Y25539D01*
X470545Y25121D01*
X469678Y24456D01*
X469013Y23589D01*
X468595Y22579D01*
X468452Y21496D01*
X468595Y20413D01*
X468976Y19493D01*
X468747Y19054D01*
X468040Y18124D01*
X467297Y18191D01*
X466836Y18731D01*
X466351Y19618D01*
X466681Y20413D01*
X466823Y21496D01*
X466681Y22579D01*
X466262Y23589D01*
X465597Y24456D01*
X464731Y25121D01*
X463721Y25539D01*
X462638Y25681D01*
X461554Y25539D01*
X460545Y25121D01*
X459678Y24456D01*
X459013Y23589D01*
X458595Y22579D01*
X458452Y21496D01*
X458595Y20413D01*
X459013Y19403D01*
X457731Y18565D01*
X456447Y19850D01*
X456681Y20413D01*
X456823Y21496D01*
X456681Y22579D01*
X456262Y23589D01*
X455597Y24456D01*
X454731Y25121D01*
X453721Y25539D01*
X452638Y25681D01*
X451554Y25539D01*
X450545Y25121D01*
X449678Y24456D01*
X449013Y23589D01*
X448595Y22579D01*
X448452Y21496D01*
X448595Y20413D01*
X449013Y19403D01*
X449678Y18537D01*
X450545Y17871D01*
X451554Y17453D01*
X452638Y17311D01*
X453721Y17453D01*
X454284Y17687D01*
X456581Y15390D01*
X455929Y13815D01*
X247012D01*
X246063Y14764D01*
X41435D01*
X40436Y15981D01*
X40630Y16954D01*
X40809Y19685D01*
X40630Y22416D01*
X40095Y25101D01*
X39216Y27693D01*
X38005Y30148D01*
X36484Y32424D01*
X34679Y34482D01*
X32621Y36287D01*
X30512Y37697D01*
Y48228D01*
X46260Y63976D01*
X225394Y63976D01*
X240085Y49285D01*
D02*
G37*
%LPC*%
G36*
X313366Y416594D02*
X312515Y416425D01*
X311794Y415943D01*
X311312Y415221D01*
X311142Y414370D01*
X311312Y413519D01*
X311794Y412798D01*
X312515Y412316D01*
X313366Y412146D01*
X314217Y412316D01*
X314938Y412798D01*
X315421Y413519D01*
X315590Y414370D01*
X315421Y415221D01*
X314938Y415943D01*
X314217Y416425D01*
X313366Y416594D01*
D02*
G37*
G36*
X300866Y409488D02*
X300015Y409318D01*
X299294Y408836D01*
X298812Y408115D01*
X298642Y407264D01*
X298812Y406413D01*
X299294Y405691D01*
X300015Y405209D01*
X300866Y405040D01*
X301717Y405209D01*
X302438Y405691D01*
X302921Y406413D01*
X303090Y407264D01*
X302921Y408115D01*
X302438Y408836D01*
X301717Y409318D01*
X300866Y409488D01*
D02*
G37*
G36*
X866872Y237453D02*
X859604D01*
Y230185D01*
X866872D01*
Y237453D01*
D02*
G37*
G36*
X627477Y468461D02*
X626123Y468328D01*
X624821Y467933D01*
X623622Y467292D01*
X622570Y466429D01*
X621707Y465377D01*
X621066Y464178D01*
X620671Y462876D01*
X620538Y461522D01*
X620671Y460169D01*
X621066Y458867D01*
X621707Y457667D01*
X622570Y456616D01*
X623622Y455753D01*
X624821Y455112D01*
X626123Y454717D01*
X627477Y454583D01*
X628830Y454717D01*
X630132Y455112D01*
X631332Y455753D01*
X632383Y456616D01*
X633246Y457667D01*
X633887Y458867D01*
X634282Y460169D01*
X634415Y461522D01*
X634282Y462876D01*
X633887Y464178D01*
X633246Y465377D01*
X632383Y466429D01*
X631332Y467292D01*
X630132Y467933D01*
X628830Y468328D01*
X627477Y468461D01*
D02*
G37*
G36*
X581217D02*
X579863Y468328D01*
X578561Y467933D01*
X577362Y467292D01*
X576310Y466429D01*
X575447Y465377D01*
X574806Y464178D01*
X574411Y462876D01*
X574278Y461522D01*
X574411Y460169D01*
X574806Y458867D01*
X575447Y457667D01*
X576310Y456616D01*
X577362Y455753D01*
X578561Y455112D01*
X579863Y454717D01*
X581217Y454583D01*
X582571Y454717D01*
X583872Y455112D01*
X585072Y455753D01*
X586123Y456616D01*
X586986Y457667D01*
X587628Y458867D01*
X588022Y460169D01*
X588156Y461522D01*
X588022Y462876D01*
X587628Y464178D01*
X586986Y465377D01*
X586123Y466429D01*
X585072Y467292D01*
X583872Y467933D01*
X582571Y468328D01*
X581217Y468461D01*
D02*
G37*
G36*
X638303Y437464D02*
X637375Y437279D01*
X636589Y436754D01*
X636063Y435967D01*
X635879Y435039D01*
X636063Y434111D01*
X636589Y433325D01*
X637375Y432799D01*
X638303Y432615D01*
X639231Y432799D01*
X640018Y433325D01*
X640543Y434111D01*
X640728Y435039D01*
X640543Y435967D01*
X640018Y436754D01*
X639231Y437279D01*
X638303Y437464D01*
D02*
G37*
G36*
X636335Y431751D02*
X635407Y431567D01*
X634621Y431041D01*
X634095Y430255D01*
X633910Y429327D01*
X634095Y428399D01*
X634621Y427612D01*
X635407Y427087D01*
X636335Y426902D01*
X637263Y427087D01*
X638049Y427612D01*
X638575Y428399D01*
X638759Y429327D01*
X638575Y430255D01*
X638049Y431041D01*
X637263Y431567D01*
X636335Y431751D01*
D02*
G37*
G36*
X689485Y431163D02*
X688557Y430978D01*
X687770Y430453D01*
X687245Y429666D01*
X687060Y428738D01*
X687245Y427810D01*
X687770Y427024D01*
X688557Y426498D01*
X689485Y426314D01*
X690412Y426498D01*
X691199Y427024D01*
X691724Y427810D01*
X691909Y428738D01*
X691724Y429666D01*
X691199Y430453D01*
X690412Y430978D01*
X689485Y431163D01*
D02*
G37*
G36*
X670784Y424669D02*
X669856Y424484D01*
X669069Y423958D01*
X668544Y423172D01*
X668359Y422244D01*
X668544Y421316D01*
X669069Y420530D01*
X669856Y420004D01*
X670784Y419819D01*
X671711Y420004D01*
X672498Y420530D01*
X673024Y421316D01*
X673208Y422244D01*
X673024Y423172D01*
X672498Y423958D01*
X671711Y424484D01*
X670784Y424669D01*
D02*
G37*
G36*
X665862Y418763D02*
X664935Y418579D01*
X664148Y418053D01*
X664024Y417868D01*
X655890D01*
X655766Y418053D01*
X654979Y418579D01*
X654051Y418763D01*
X653124Y418579D01*
X652337Y418053D01*
X651811Y417266D01*
X651627Y416339D01*
X651811Y415411D01*
X652337Y414624D01*
X653124Y414099D01*
X654051Y413914D01*
X654979Y414099D01*
X655766Y414624D01*
X655890Y414809D01*
X664024D01*
X664148Y414624D01*
X664935Y414099D01*
X665862Y413914D01*
X666790Y414099D01*
X667577Y414624D01*
X668102Y415411D01*
X668287Y416339D01*
X668102Y417266D01*
X667577Y418053D01*
X666790Y418579D01*
X665862Y418763D01*
D02*
G37*
G36*
X597555Y418461D02*
X596202Y418328D01*
X594900Y417933D01*
X593700Y417292D01*
X592649Y416429D01*
X591786Y415377D01*
X591145Y414178D01*
X590750Y412876D01*
X590616Y411522D01*
X590750Y410169D01*
X591145Y408867D01*
X591786Y407667D01*
X592649Y406616D01*
X593700Y405753D01*
X594900Y405112D01*
X596202Y404717D01*
X597555Y404583D01*
X598909Y404717D01*
X599453Y404882D01*
X609220Y395116D01*
X608973Y394655D01*
X608449Y394759D01*
X608449Y394759D01*
X584274D01*
X584149Y395259D01*
X585072Y395753D01*
X586123Y396616D01*
X586986Y397667D01*
X587628Y398867D01*
X588022Y400169D01*
X588156Y401522D01*
X588022Y402876D01*
X587628Y404178D01*
X586986Y405377D01*
X586123Y406429D01*
X585072Y407292D01*
X583872Y407933D01*
X582571Y408328D01*
X581217Y408461D01*
X579863Y408328D01*
X578561Y407933D01*
X577362Y407292D01*
X576310Y406429D01*
X575447Y405377D01*
X574806Y404178D01*
X574411Y402876D01*
X574278Y401522D01*
X574411Y400169D01*
X574806Y398867D01*
X575447Y397667D01*
X576310Y396616D01*
X577362Y395753D01*
X578285Y395259D01*
X578160Y394759D01*
X571204D01*
X557494Y408469D01*
X557706Y408867D01*
X558101Y410169D01*
X558234Y411522D01*
X558101Y412876D01*
X557706Y414178D01*
X557065Y415377D01*
X556202Y416429D01*
X555151Y417292D01*
X553951Y417933D01*
X552649Y418328D01*
X551296Y418461D01*
X549942Y418328D01*
X548640Y417933D01*
X547440Y417292D01*
X546389Y416429D01*
X545526Y415377D01*
X544885Y414178D01*
X544490Y412876D01*
X544357Y411522D01*
X544490Y410169D01*
X544885Y408867D01*
X545526Y407667D01*
X546389Y406616D01*
X547440Y405753D01*
X548640Y405112D01*
X549942Y404717D01*
X551296Y404583D01*
X552649Y404717D01*
X553951Y405112D01*
X554349Y405324D01*
X568710Y390963D01*
X568710Y390963D01*
X569431Y390481D01*
X570282Y390312D01*
X570282Y390312D01*
X607528D01*
X631089Y366750D01*
X631089Y366750D01*
X631810Y366268D01*
X632661Y366099D01*
X632661Y366099D01*
X670126D01*
X672951Y363274D01*
X672957Y363245D01*
X673482Y362459D01*
X674269Y361933D01*
X675197Y361749D01*
X676125Y361933D01*
X676911Y362459D01*
X677437Y363245D01*
X677621Y364173D01*
X677437Y365101D01*
X676911Y365888D01*
X676125Y366413D01*
X676096Y366419D01*
X672620Y369895D01*
X672570Y369928D01*
X672722Y370428D01*
X673671D01*
X677873Y366227D01*
X677878Y366198D01*
X678404Y365412D01*
X679190Y364886D01*
X680118Y364701D01*
X681046Y364886D01*
X681833Y365412D01*
X682358Y366198D01*
X682543Y367126D01*
X682358Y368054D01*
X681833Y368840D01*
X681046Y369366D01*
X681017Y369372D01*
X676164Y374225D01*
X675443Y374707D01*
X674592Y374876D01*
X674592Y374876D01*
X635749D01*
X603160Y407466D01*
X603325Y407667D01*
X603966Y408867D01*
X604361Y410169D01*
X604494Y411522D01*
X604361Y412876D01*
X603966Y414178D01*
X603325Y415377D01*
X602462Y416429D01*
X601410Y417292D01*
X600211Y417933D01*
X598909Y418328D01*
X597555Y418461D01*
D02*
G37*
G36*
X627477Y408461D02*
X626123Y408328D01*
X624821Y407933D01*
X623622Y407292D01*
X622570Y406429D01*
X621707Y405377D01*
X621066Y404178D01*
X620671Y402876D01*
X620538Y401522D01*
X620671Y400169D01*
X621066Y398867D01*
X621707Y397667D01*
X622570Y396616D01*
X623622Y395753D01*
X624821Y395112D01*
X626123Y394717D01*
X627477Y394583D01*
X628830Y394717D01*
X630132Y395112D01*
X631332Y395753D01*
X632383Y396616D01*
X633246Y397667D01*
X633887Y398867D01*
X634282Y400169D01*
X634415Y401522D01*
X634282Y402876D01*
X633887Y404178D01*
X633246Y405377D01*
X632383Y406429D01*
X631332Y407292D01*
X630132Y407933D01*
X628830Y408328D01*
X627477Y408461D01*
D02*
G37*
G36*
X659880Y354876D02*
X578346D01*
X577761Y354759D01*
X577265Y354428D01*
X572069Y349232D01*
X571850Y349275D01*
X570923Y349090D01*
X570136Y348565D01*
X569610Y347778D01*
X569426Y346850D01*
X569610Y345923D01*
X570136Y345136D01*
X570923Y344610D01*
X571850Y344426D01*
X572778Y344610D01*
X573565Y345136D01*
X574090Y345923D01*
X574275Y346850D01*
X574231Y347069D01*
X578980Y351817D01*
X659246D01*
X661856Y349207D01*
Y347362D01*
X661293Y347129D01*
X660426Y346463D01*
X659761Y345597D01*
X659343Y344587D01*
X659200Y343504D01*
X659343Y342421D01*
X659761Y341411D01*
X660426Y340544D01*
X661293Y339879D01*
X662303Y339461D01*
X663386Y339318D01*
X664469Y339461D01*
X665479Y339879D01*
X666345Y340544D01*
X667010Y341411D01*
X667429Y342421D01*
X667571Y343504D01*
X667429Y344587D01*
X667010Y345597D01*
X666345Y346463D01*
X665479Y347129D01*
X664915Y347362D01*
Y349840D01*
X664799Y350426D01*
X664467Y350922D01*
X660961Y354428D01*
X660465Y354759D01*
X659880Y354876D01*
D02*
G37*
G36*
X653386Y347689D02*
X652303Y347547D01*
X651293Y347129D01*
X650426Y346463D01*
X649761Y345597D01*
X649343Y344587D01*
X649200Y343504D01*
X649343Y342421D01*
X649761Y341411D01*
X650426Y340544D01*
X651293Y339879D01*
X652303Y339461D01*
X653386Y339318D01*
X654469Y339461D01*
X655478Y339879D01*
X656345Y340544D01*
X657011Y341411D01*
X657429Y342421D01*
X657571Y343504D01*
X657429Y344587D01*
X657011Y345597D01*
X656345Y346463D01*
X655478Y347129D01*
X654469Y347547D01*
X653386Y347689D01*
D02*
G37*
G36*
X863238Y207484D02*
X862290Y207359D01*
X861405Y206993D01*
X860646Y206411D01*
X860064Y205651D01*
X859698Y204767D01*
X859573Y203819D01*
X859698Y202870D01*
X860064Y201986D01*
X860646Y201227D01*
X861405Y200645D01*
X862290Y200279D01*
X863238Y200154D01*
X864187Y200279D01*
X865071Y200645D01*
X865830Y201227D01*
X866412Y201986D01*
X866778Y202870D01*
X866903Y203819D01*
X866778Y204767D01*
X866412Y205651D01*
X865830Y206411D01*
X865071Y206993D01*
X864187Y207359D01*
X863238Y207484D01*
D02*
G37*
G36*
X841535Y202228D02*
X840608Y202043D01*
X839821Y201518D01*
X839295Y200731D01*
X839111Y199803D01*
X839295Y198875D01*
X839821Y198089D01*
X840608Y197563D01*
X841535Y197379D01*
X842463Y197563D01*
X843250Y198089D01*
X843775Y198875D01*
X843960Y199803D01*
X843775Y200731D01*
X843250Y201518D01*
X842463Y202043D01*
X841535Y202228D01*
D02*
G37*
G36*
X854130Y177029D02*
X853203Y176845D01*
X852416Y176319D01*
X851890Y175533D01*
X851706Y174605D01*
X851890Y173677D01*
X852416Y172890D01*
X853203Y172365D01*
X854130Y172180D01*
X855058Y172365D01*
X855845Y172890D01*
X856370Y173677D01*
X856555Y174605D01*
X856370Y175533D01*
X855845Y176319D01*
X855058Y176845D01*
X854130Y177029D01*
D02*
G37*
G36*
X893110Y135679D02*
X891757Y135546D01*
X890455Y135151D01*
X889255Y134510D01*
X888204Y133647D01*
X887341Y132595D01*
X886699Y131396D01*
X886305Y130094D01*
X886171Y128740D01*
X886305Y127386D01*
X886699Y126085D01*
X887341Y124885D01*
X888204Y123834D01*
X889255Y122971D01*
X890455Y122329D01*
X891757Y121935D01*
X893110Y121801D01*
X894464Y121935D01*
X895766Y122329D01*
X896965Y122971D01*
X898017Y123834D01*
X898880Y124885D01*
X899521Y126085D01*
X899916Y127386D01*
X900049Y128740D01*
X899916Y130094D01*
X899521Y131396D01*
X898880Y132595D01*
X898017Y133647D01*
X896965Y134510D01*
X895766Y135151D01*
X894464Y135546D01*
X893110Y135679D01*
D02*
G37*
G36*
X886729Y99275D02*
X885801Y99090D01*
X885015Y98565D01*
X884489Y97778D01*
X884305Y96850D01*
X884489Y95923D01*
X885015Y95136D01*
X885801Y94610D01*
X886729Y94426D01*
X887657Y94610D01*
X888443Y95136D01*
X888969Y95923D01*
X889154Y96850D01*
X888969Y97778D01*
X888443Y98565D01*
X887657Y99090D01*
X886729Y99275D01*
D02*
G37*
G36*
X872047D02*
X871119Y99090D01*
X870333Y98565D01*
X869807Y97778D01*
X869623Y96850D01*
X869807Y95923D01*
X870333Y95136D01*
X871119Y94610D01*
X872047Y94426D01*
X872975Y94610D01*
X873762Y95136D01*
X874287Y95923D01*
X874472Y96850D01*
X874287Y97778D01*
X873762Y98565D01*
X872975Y99090D01*
X872047Y99275D01*
D02*
G37*
G36*
X859334D02*
X858406Y99090D01*
X857619Y98565D01*
X857094Y97778D01*
X856909Y96850D01*
X857094Y95923D01*
X857619Y95136D01*
X858406Y94610D01*
X859334Y94426D01*
X860262Y94610D01*
X861048Y95136D01*
X861574Y95923D01*
X861759Y96850D01*
X861574Y97778D01*
X861048Y98565D01*
X860262Y99090D01*
X859334Y99275D01*
D02*
G37*
G36*
X834646Y97897D02*
X833718Y97712D01*
X832931Y97187D01*
X832406Y96400D01*
X832221Y95472D01*
X832406Y94545D01*
X832931Y93758D01*
X833718Y93233D01*
X834646Y93048D01*
X835573Y93233D01*
X836360Y93758D01*
X836886Y94545D01*
X837070Y95472D01*
X836886Y96400D01*
X836360Y97187D01*
X835573Y97712D01*
X834646Y97897D01*
D02*
G37*
G36*
X881083Y93564D02*
X880156Y93379D01*
X879369Y92854D01*
X878844Y92067D01*
X878659Y91139D01*
X878844Y90211D01*
X879369Y89425D01*
X880156Y88899D01*
X881083Y88715D01*
X882011Y88899D01*
X882798Y89425D01*
X883323Y90211D01*
X883508Y91139D01*
X883323Y92067D01*
X882798Y92854D01*
X882011Y93379D01*
X881083Y93564D01*
D02*
G37*
G36*
X892635Y93348D02*
X891707Y93164D01*
X890920Y92638D01*
X890395Y91852D01*
X890210Y90924D01*
X890395Y89996D01*
X890920Y89210D01*
X891707Y88684D01*
X892635Y88499D01*
X893562Y88684D01*
X894349Y89210D01*
X894875Y89996D01*
X895059Y90924D01*
X894875Y91852D01*
X894349Y92638D01*
X893562Y93164D01*
X892635Y93348D01*
D02*
G37*
G36*
X866142D02*
X865214Y93164D01*
X864427Y92638D01*
X863902Y91852D01*
X863717Y90924D01*
X863902Y89996D01*
X864427Y89210D01*
X865214Y88684D01*
X866142Y88499D01*
X867070Y88684D01*
X867856Y89210D01*
X868382Y89996D01*
X868566Y90924D01*
X868382Y91852D01*
X867856Y92638D01*
X867070Y93164D01*
X866142Y93348D01*
D02*
G37*
G36*
X853347Y90693D02*
X852419Y90509D01*
X851632Y89983D01*
X851106Y89197D01*
X850922Y88269D01*
X851106Y87341D01*
X851632Y86554D01*
X852419Y86029D01*
X853347Y85844D01*
X854274Y86029D01*
X855061Y86554D01*
X855586Y87341D01*
X855771Y88269D01*
X855586Y89197D01*
X855061Y89983D01*
X854274Y90509D01*
X853347Y90693D01*
D02*
G37*
G36*
X887713Y87070D02*
X886786Y86886D01*
X885999Y86360D01*
X885473Y85574D01*
X885289Y84646D01*
X885473Y83718D01*
X885999Y82931D01*
X886786Y82406D01*
X887713Y82221D01*
X888641Y82406D01*
X889428Y82931D01*
X889953Y83718D01*
X890138Y84646D01*
X889953Y85574D01*
X889428Y86360D01*
X888641Y86886D01*
X887713Y87070D01*
D02*
G37*
G36*
X873032D02*
X872104Y86886D01*
X871317Y86360D01*
X870792Y85574D01*
X870607Y84646D01*
X870792Y83718D01*
X871317Y82931D01*
X872104Y82406D01*
X873032Y82221D01*
X873959Y82406D01*
X874746Y82931D01*
X875272Y83718D01*
X875456Y84646D01*
X875272Y85574D01*
X874746Y86360D01*
X873959Y86886D01*
X873032Y87070D01*
D02*
G37*
G36*
X843504Y85737D02*
X842576Y85553D01*
X841790Y85027D01*
X841264Y84241D01*
X841079Y83313D01*
X841264Y82385D01*
X841790Y81599D01*
X842576Y81073D01*
X843504Y80888D01*
X844432Y81073D01*
X845218Y81599D01*
X845744Y82385D01*
X845928Y83313D01*
X845744Y84241D01*
X845218Y85027D01*
X844432Y85553D01*
X843504Y85737D01*
D02*
G37*
G36*
X828822D02*
X827894Y85553D01*
X827108Y85027D01*
X826582Y84241D01*
X826398Y83313D01*
X826582Y82385D01*
X827108Y81599D01*
X827894Y81073D01*
X828822Y80888D01*
X829750Y81073D01*
X830536Y81599D01*
X831062Y82385D01*
X831247Y83313D01*
X831062Y84241D01*
X830536Y85027D01*
X829750Y85553D01*
X828822Y85737D01*
D02*
G37*
G36*
X816109D02*
X815181Y85553D01*
X814394Y85027D01*
X813869Y84241D01*
X813684Y83313D01*
X813869Y82385D01*
X814394Y81599D01*
X815181Y81073D01*
X816109Y80888D01*
X817037Y81073D01*
X817823Y81599D01*
X818349Y82385D01*
X818533Y83313D01*
X818349Y84241D01*
X817823Y85027D01*
X817037Y85553D01*
X816109Y85737D01*
D02*
G37*
G36*
X880906Y81144D02*
X879978Y80959D01*
X879191Y80434D01*
X878666Y79647D01*
X878481Y78719D01*
X878666Y77791D01*
X879191Y77005D01*
X879978Y76479D01*
X880906Y76295D01*
X881833Y76479D01*
X882620Y77005D01*
X883146Y77791D01*
X883330Y78719D01*
X883146Y79647D01*
X882620Y80434D01*
X881833Y80959D01*
X880906Y81144D01*
D02*
G37*
G36*
X849409Y79811D02*
X848482Y79626D01*
X847695Y79101D01*
X847169Y78314D01*
X846985Y77386D01*
X847169Y76459D01*
X847695Y75672D01*
X848482Y75147D01*
X849409Y74962D01*
X850337Y75147D01*
X851124Y75672D01*
X851649Y76459D01*
X851834Y77386D01*
X851649Y78314D01*
X851124Y79101D01*
X850337Y79626D01*
X849409Y79811D01*
D02*
G37*
G36*
X836696D02*
X835768Y79626D01*
X834982Y79101D01*
X834456Y78314D01*
X834272Y77386D01*
X834456Y76459D01*
X834982Y75672D01*
X835768Y75147D01*
X836696Y74962D01*
X837624Y75147D01*
X838410Y75672D01*
X838936Y76459D01*
X839121Y77386D01*
X838936Y78314D01*
X838410Y79101D01*
X837624Y79626D01*
X836696Y79811D01*
D02*
G37*
G36*
X822917D02*
X821989Y79626D01*
X821202Y79101D01*
X820677Y78314D01*
X820492Y77386D01*
X820677Y76459D01*
X821202Y75672D01*
X821989Y75147D01*
X822917Y74962D01*
X823844Y75147D01*
X824631Y75672D01*
X825157Y76459D01*
X825341Y77386D01*
X825157Y78314D01*
X824631Y79101D01*
X823844Y79626D01*
X822917Y79811D01*
D02*
G37*
G36*
X863189Y85679D02*
X861835Y85546D01*
X860534Y85151D01*
X859334Y84510D01*
X858282Y83647D01*
X857419Y82595D01*
X856778Y81396D01*
X856383Y80094D01*
X856250Y78740D01*
X856383Y77386D01*
X856778Y76085D01*
X857419Y74885D01*
X858282Y73834D01*
X859334Y72971D01*
X860534Y72329D01*
X861835Y71935D01*
X863189Y71801D01*
X864543Y71935D01*
X865844Y72329D01*
X867044Y72971D01*
X868095Y73834D01*
X868958Y74885D01*
X869600Y76085D01*
X869995Y77386D01*
X870128Y78740D01*
X869995Y80094D01*
X869600Y81396D01*
X868958Y82595D01*
X868095Y83647D01*
X867044Y84510D01*
X865844Y85151D01*
X864543Y85546D01*
X863189Y85679D01*
D02*
G37*
G36*
X843504Y71597D02*
X842576Y71413D01*
X841790Y70887D01*
X841264Y70100D01*
X841079Y69173D01*
X841264Y68245D01*
X841790Y67458D01*
X842576Y66933D01*
X843504Y66748D01*
X844432Y66933D01*
X845218Y67458D01*
X845744Y68245D01*
X845928Y69173D01*
X845744Y70100D01*
X845218Y70887D01*
X844432Y71413D01*
X843504Y71597D01*
D02*
G37*
G36*
X828822D02*
X827894Y71413D01*
X827108Y70887D01*
X826582Y70100D01*
X826398Y69173D01*
X826582Y68245D01*
X827108Y67458D01*
X827894Y66933D01*
X828822Y66748D01*
X829750Y66933D01*
X830536Y67458D01*
X831062Y68245D01*
X831247Y69173D01*
X831062Y70100D01*
X830536Y70887D01*
X829750Y71413D01*
X828822Y71597D01*
D02*
G37*
G36*
X816109D02*
X815181Y71413D01*
X814394Y70887D01*
X813869Y70100D01*
X813684Y69173D01*
X813869Y68245D01*
X814394Y67458D01*
X815181Y66933D01*
X816109Y66748D01*
X817037Y66933D01*
X817823Y67458D01*
X818349Y68245D01*
X818533Y69173D01*
X818349Y70100D01*
X817823Y70887D01*
X817037Y71413D01*
X816109Y71597D01*
D02*
G37*
G36*
X864543Y67385D02*
X863615Y67201D01*
X862828Y66675D01*
X862303Y65889D01*
X862118Y64961D01*
X862303Y64033D01*
X862828Y63246D01*
X863615Y62721D01*
X864543Y62536D01*
X865471Y62721D01*
X866257Y63246D01*
X866783Y64033D01*
X866967Y64961D01*
X866783Y65889D01*
X866257Y66675D01*
X865471Y67201D01*
X864543Y67385D01*
D02*
G37*
G36*
X892457Y80928D02*
X891529Y80744D01*
X890742Y80218D01*
X890217Y79432D01*
X890032Y78504D01*
X890217Y77576D01*
X890742Y76789D01*
X891529Y76264D01*
X892330Y76105D01*
X892305Y75600D01*
X891757Y75546D01*
X890455Y75151D01*
X889255Y74510D01*
X888204Y73647D01*
X887341Y72595D01*
X886699Y71396D01*
X886305Y70094D01*
X886171Y68740D01*
X886305Y67386D01*
X886699Y66085D01*
X887341Y64885D01*
X888204Y63834D01*
X889255Y62971D01*
X890455Y62329D01*
X891757Y61935D01*
X893110Y61801D01*
X894464Y61935D01*
X895766Y62329D01*
X896965Y62971D01*
X898017Y63834D01*
X898880Y64885D01*
X899521Y66085D01*
X899916Y67386D01*
X900049Y68740D01*
X899916Y70094D01*
X899521Y71396D01*
X898880Y72595D01*
X898017Y73647D01*
X896965Y74510D01*
X895766Y75151D01*
X894464Y75546D01*
X893110Y75679D01*
X892906Y75659D01*
X892832Y76154D01*
X893384Y76264D01*
X894171Y76789D01*
X894697Y77576D01*
X894881Y78504D01*
X894697Y79432D01*
X894171Y80218D01*
X893384Y80744D01*
X892457Y80928D01*
D02*
G37*
G36*
X849409Y65671D02*
X848482Y65486D01*
X847695Y64961D01*
X847169Y64174D01*
X846985Y63246D01*
X847169Y62318D01*
X847695Y61532D01*
X848482Y61006D01*
X849409Y60822D01*
X850337Y61006D01*
X851124Y61532D01*
X851649Y62318D01*
X851834Y63246D01*
X851649Y64174D01*
X851124Y64961D01*
X850337Y65486D01*
X849409Y65671D01*
D02*
G37*
G36*
X836696D02*
X835768Y65486D01*
X834982Y64961D01*
X834456Y64174D01*
X834272Y63246D01*
X834456Y62318D01*
X834982Y61532D01*
X835768Y61006D01*
X836696Y60822D01*
X837624Y61006D01*
X838410Y61532D01*
X838936Y62318D01*
X839121Y63246D01*
X838936Y64174D01*
X838410Y64961D01*
X837624Y65486D01*
X836696Y65671D01*
D02*
G37*
G36*
X822917D02*
X821989Y65486D01*
X821202Y64961D01*
X820677Y64174D01*
X820492Y63246D01*
X820677Y62318D01*
X821202Y61532D01*
X821989Y61006D01*
X822917Y60822D01*
X823844Y61006D01*
X824631Y61532D01*
X825157Y62318D01*
X825341Y63246D01*
X825157Y64174D01*
X824631Y64961D01*
X823844Y65486D01*
X822917Y65671D01*
D02*
G37*
G36*
X816109Y60259D02*
X815181Y60074D01*
X814394Y59548D01*
X813869Y58762D01*
X813684Y57834D01*
X813869Y56906D01*
X814394Y56120D01*
X815181Y55594D01*
X816109Y55409D01*
X817037Y55594D01*
X817823Y56120D01*
X818349Y56906D01*
X818533Y57834D01*
X818349Y58762D01*
X817823Y59548D01*
X817037Y60074D01*
X816109Y60259D01*
D02*
G37*
G36*
X851364Y45535D02*
X850436Y45350D01*
X849649Y44825D01*
X849124Y44038D01*
X848939Y43110D01*
X849124Y42182D01*
X849649Y41396D01*
X850436Y40870D01*
X851364Y40686D01*
X852291Y40870D01*
X853078Y41396D01*
X853604Y42182D01*
X853788Y43110D01*
X853604Y44038D01*
X853078Y44825D01*
X852291Y45350D01*
X851364Y45535D01*
D02*
G37*
G36*
X725197Y44170D02*
X723908Y44000D01*
X722707Y43503D01*
X721676Y42712D01*
X720884Y41680D01*
X720387Y40479D01*
X720217Y39191D01*
X720387Y37902D01*
X720884Y36701D01*
X721676Y35669D01*
X722707Y34878D01*
X723908Y34380D01*
X725197Y34211D01*
X726486Y34380D01*
X727687Y34878D01*
X728718Y35669D01*
X729509Y36701D01*
X730007Y37902D01*
X730176Y39191D01*
X730007Y40479D01*
X729509Y41680D01*
X728718Y42712D01*
X727687Y43503D01*
X726486Y44000D01*
X725197Y44170D01*
D02*
G37*
G36*
X225590Y60299D02*
X224663Y60114D01*
X223876Y59588D01*
X223351Y58802D01*
X223166Y57874D01*
X223351Y56946D01*
X223876Y56160D01*
X224663Y55634D01*
X225590Y55449D01*
X226518Y55634D01*
X227305Y56160D01*
X227831Y56946D01*
X228015Y57874D01*
X227831Y58802D01*
X227305Y59588D01*
X226518Y60114D01*
X225590Y60299D01*
D02*
G37*
G36*
X74705Y55574D02*
X73777Y55390D01*
X72990Y54864D01*
X72465Y54077D01*
X72280Y53150D01*
X72465Y52222D01*
X72990Y51435D01*
X73777Y50910D01*
X74705Y50725D01*
X75633Y50910D01*
X76419Y51435D01*
X76945Y52222D01*
X77129Y53150D01*
X76945Y54077D01*
X76419Y54864D01*
X75633Y55390D01*
X74705Y55574D01*
D02*
G37*
G36*
X143012Y51440D02*
X142084Y51256D01*
X141297Y50730D01*
X140772Y49944D01*
X140587Y49016D01*
X140772Y48088D01*
X141297Y47301D01*
X142084Y46776D01*
X143012Y46591D01*
X143940Y46776D01*
X144726Y47301D01*
X145252Y48088D01*
X145436Y49016D01*
X145252Y49944D01*
X144726Y50730D01*
X143940Y51256D01*
X143012Y51440D01*
D02*
G37*
G36*
X170276Y49669D02*
X169348Y49484D01*
X168561Y48959D01*
X168036Y48172D01*
X167851Y47244D01*
X168036Y46316D01*
X168561Y45530D01*
X169348Y45004D01*
X170276Y44820D01*
X171203Y45004D01*
X171990Y45530D01*
X172516Y46316D01*
X172700Y47244D01*
X172516Y48172D01*
X171990Y48959D01*
X171203Y49484D01*
X170276Y49669D01*
D02*
G37*
G36*
X241240Y41013D02*
X240543Y40874D01*
X239951Y40479D01*
X239557Y39888D01*
X239418Y39191D01*
X239557Y38493D01*
X239951Y37902D01*
X240543Y37507D01*
X241240Y37368D01*
X241938Y37507D01*
X242529Y37902D01*
X242924Y38493D01*
X243063Y39191D01*
X242924Y39888D01*
X242529Y40479D01*
X241938Y40874D01*
X241240Y41013D01*
D02*
G37*
G36*
X216535Y41615D02*
X215608Y41430D01*
X214821Y40905D01*
X214295Y40118D01*
X214111Y39191D01*
X214295Y38263D01*
X214821Y37476D01*
X215608Y36950D01*
X216535Y36766D01*
X217463Y36950D01*
X218250Y37476D01*
X218775Y38263D01*
X218960Y39191D01*
X218775Y40118D01*
X218250Y40905D01*
X217463Y41430D01*
X216535Y41615D01*
D02*
G37*
G36*
X214469Y31909D02*
X213617Y31740D01*
X212896Y31258D01*
X212414Y30536D01*
X212245Y29685D01*
X212414Y28834D01*
X212896Y28113D01*
X213617Y27630D01*
X214469Y27461D01*
X215319Y27630D01*
X216041Y28113D01*
X216523Y28834D01*
X216692Y29685D01*
X216523Y30536D01*
X216041Y31258D01*
X215319Y31740D01*
X214469Y31909D01*
D02*
G37*
G36*
X412638Y35682D02*
X411554Y35539D01*
X410545Y35121D01*
X409678Y34456D01*
X409013Y33589D01*
X408595Y32579D01*
X408452Y31496D01*
X408595Y30413D01*
X409013Y29403D01*
X409678Y28536D01*
X410545Y27871D01*
X411554Y27453D01*
X412638Y27311D01*
X413721Y27453D01*
X414731Y27871D01*
X415597Y28536D01*
X416262Y29403D01*
X416681Y30413D01*
X416823Y31496D01*
X416681Y32579D01*
X416262Y33589D01*
X415597Y34456D01*
X414731Y35121D01*
X413721Y35539D01*
X412638Y35682D01*
D02*
G37*
G36*
X402638D02*
X401554Y35539D01*
X400545Y35121D01*
X399678Y34456D01*
X399013Y33589D01*
X398595Y32579D01*
X398452Y31496D01*
X398595Y30413D01*
X399013Y29403D01*
X399678Y28536D01*
X400545Y27871D01*
X401554Y27453D01*
X402638Y27311D01*
X403721Y27453D01*
X404731Y27871D01*
X405597Y28536D01*
X406262Y29403D01*
X406681Y30413D01*
X406823Y31496D01*
X406681Y32579D01*
X406262Y33589D01*
X405597Y34456D01*
X404731Y35121D01*
X403721Y35539D01*
X402638Y35682D01*
D02*
G37*
G36*
X392638D02*
X391554Y35539D01*
X390545Y35121D01*
X389678Y34456D01*
X389013Y33589D01*
X388595Y32579D01*
X388452Y31496D01*
X388595Y30413D01*
X389013Y29403D01*
X389678Y28536D01*
X390545Y27871D01*
X391554Y27453D01*
X392638Y27311D01*
X393721Y27453D01*
X394730Y27871D01*
X395597Y28536D01*
X396263Y29403D01*
X396681Y30413D01*
X396823Y31496D01*
X396681Y32579D01*
X396263Y33589D01*
X395597Y34456D01*
X394730Y35121D01*
X393721Y35539D01*
X392638Y35682D01*
D02*
G37*
G36*
X314134Y35642D02*
X313051Y35500D01*
X312041Y35081D01*
X311174Y34416D01*
X310509Y33549D01*
X310091Y32540D01*
X309948Y31457D01*
X310091Y30373D01*
X310509Y29364D01*
X311174Y28497D01*
X312041Y27832D01*
X313051Y27414D01*
X314134Y27271D01*
X315217Y27414D01*
X316227Y27832D01*
X317093Y28497D01*
X317758Y29364D01*
X318177Y30373D01*
X318319Y31457D01*
X318177Y32540D01*
X317758Y33549D01*
X317093Y34416D01*
X316227Y35081D01*
X315217Y35500D01*
X314134Y35642D01*
D02*
G37*
G36*
X304134D02*
X303051Y35500D01*
X302041Y35081D01*
X301174Y34416D01*
X300509Y33549D01*
X300091Y32540D01*
X299949Y31457D01*
X300091Y30373D01*
X300509Y29364D01*
X301174Y28497D01*
X302041Y27832D01*
X303051Y27414D01*
X304134Y27271D01*
X305217Y27414D01*
X306227Y27832D01*
X307093Y28497D01*
X307758Y29364D01*
X308177Y30373D01*
X308319Y31457D01*
X308177Y32540D01*
X307758Y33549D01*
X307093Y34416D01*
X306227Y35081D01*
X305217Y35500D01*
X304134Y35642D01*
D02*
G37*
G36*
X241240Y32001D02*
X240312Y31817D01*
X239526Y31291D01*
X239000Y30505D01*
X238816Y29577D01*
X239000Y28649D01*
X239526Y27862D01*
X240312Y27337D01*
X241240Y27152D01*
X242168Y27337D01*
X242955Y27862D01*
X243480Y28649D01*
X243665Y29577D01*
X243480Y30505D01*
X242955Y31291D01*
X242168Y31817D01*
X241240Y32001D01*
D02*
G37*
G36*
X215555Y23877D02*
X214704Y23708D01*
X213982Y23226D01*
X213500Y22505D01*
X213331Y21654D01*
X213500Y20802D01*
X213982Y20081D01*
X214704Y19599D01*
X215555Y19430D01*
X216406Y19599D01*
X217127Y20081D01*
X217609Y20802D01*
X217778Y21654D01*
X217609Y22505D01*
X217127Y23226D01*
X216406Y23708D01*
X215555Y23877D01*
D02*
G37*
G36*
X442638Y25681D02*
X441554Y25539D01*
X440545Y25121D01*
X439678Y24456D01*
X439013Y23589D01*
X438595Y22579D01*
X438452Y21496D01*
X438595Y20413D01*
X439013Y19403D01*
X439678Y18537D01*
X440545Y17871D01*
X441554Y17453D01*
X442638Y17311D01*
X443721Y17453D01*
X444731Y17871D01*
X445597Y18537D01*
X446263Y19403D01*
X446681Y20413D01*
X446823Y21496D01*
X446681Y22579D01*
X446263Y23589D01*
X445597Y24456D01*
X444731Y25121D01*
X443721Y25539D01*
X442638Y25681D01*
D02*
G37*
G36*
X432638D02*
X431555Y25539D01*
X430545Y25121D01*
X429678Y24456D01*
X429013Y23589D01*
X428595Y22579D01*
X428452Y21496D01*
X428595Y20413D01*
X429013Y19403D01*
X429678Y18537D01*
X430545Y17871D01*
X431555Y17453D01*
X432638Y17311D01*
X433721Y17453D01*
X434730Y17871D01*
X435597Y18537D01*
X436263Y19403D01*
X436681Y20413D01*
X436823Y21496D01*
X436681Y22579D01*
X436263Y23589D01*
X435597Y24456D01*
X434730Y25121D01*
X433721Y25539D01*
X432638Y25681D01*
D02*
G37*
G36*
X422638D02*
X421555Y25539D01*
X420545Y25121D01*
X419678Y24456D01*
X419013Y23589D01*
X418595Y22579D01*
X418452Y21496D01*
X418595Y20413D01*
X419013Y19403D01*
X419678Y18537D01*
X420545Y17871D01*
X421555Y17453D01*
X422638Y17311D01*
X423721Y17453D01*
X424730Y17871D01*
X425597Y18537D01*
X426263Y19403D01*
X426681Y20413D01*
X426823Y21496D01*
X426681Y22579D01*
X426263Y23589D01*
X425597Y24456D01*
X424730Y25121D01*
X423721Y25539D01*
X422638Y25681D01*
D02*
G37*
G36*
X412638D02*
X411554Y25539D01*
X410545Y25121D01*
X409678Y24456D01*
X409013Y23589D01*
X408595Y22579D01*
X408452Y21496D01*
X408595Y20413D01*
X409013Y19403D01*
X409678Y18537D01*
X410545Y17871D01*
X411554Y17453D01*
X412638Y17311D01*
X413721Y17453D01*
X414731Y17871D01*
X415597Y18537D01*
X416262Y19403D01*
X416681Y20413D01*
X416823Y21496D01*
X416681Y22579D01*
X416262Y23589D01*
X415597Y24456D01*
X414731Y25121D01*
X413721Y25539D01*
X412638Y25681D01*
D02*
G37*
G36*
X402638D02*
X401554Y25539D01*
X400545Y25121D01*
X399678Y24456D01*
X399013Y23589D01*
X398595Y22579D01*
X398452Y21496D01*
X398595Y20413D01*
X399013Y19403D01*
X399678Y18537D01*
X400545Y17871D01*
X401554Y17453D01*
X402638Y17311D01*
X403721Y17453D01*
X404731Y17871D01*
X405597Y18537D01*
X406262Y19403D01*
X406681Y20413D01*
X406823Y21496D01*
X406681Y22579D01*
X406262Y23589D01*
X405597Y24456D01*
X404731Y25121D01*
X403721Y25539D01*
X402638Y25681D01*
D02*
G37*
G36*
X392638D02*
X391554Y25539D01*
X390545Y25121D01*
X389678Y24456D01*
X389013Y23589D01*
X388595Y22579D01*
X388452Y21496D01*
X388595Y20413D01*
X389013Y19403D01*
X389678Y18537D01*
X390545Y17871D01*
X391554Y17453D01*
X392638Y17311D01*
X393721Y17453D01*
X394730Y17871D01*
X395597Y18537D01*
X396263Y19403D01*
X396681Y20413D01*
X396823Y21496D01*
X396681Y22579D01*
X396263Y23589D01*
X395597Y24456D01*
X394730Y25121D01*
X393721Y25539D01*
X392638Y25681D01*
D02*
G37*
G36*
X382638D02*
X381555Y25539D01*
X380545Y25121D01*
X379678Y24456D01*
X379013Y23589D01*
X378595Y22579D01*
X378452Y21496D01*
X378595Y20413D01*
X379013Y19403D01*
X379678Y18537D01*
X380545Y17871D01*
X381555Y17453D01*
X382638Y17311D01*
X383721Y17453D01*
X384731Y17871D01*
X385597Y18537D01*
X386262Y19403D01*
X386681Y20413D01*
X386823Y21496D01*
X386681Y22579D01*
X386262Y23589D01*
X385597Y24456D01*
X384731Y25121D01*
X383721Y25539D01*
X382638Y25681D01*
D02*
G37*
%LPD*%
D11*
X674592Y372652D02*
X680118Y367126D01*
X634828Y372652D02*
X674592D01*
X597555Y409925D02*
X634828Y372652D01*
X597555Y409925D02*
Y411522D01*
X551296D02*
X570282Y392535D01*
X608449D01*
X632661Y368323D01*
X671047D01*
X675197Y364173D01*
X801968Y250000D02*
X812008Y239961D01*
X812992D01*
X800329Y245734D02*
X809055Y237008D01*
X764486Y169685D02*
X812992D01*
X756398Y177773D02*
X764486Y169685D01*
X761122Y159744D02*
X767323Y153543D01*
X809055D01*
X753937Y169899D02*
X761122Y162714D01*
Y159744D02*
Y162714D01*
X675852Y245734D02*
X800329D01*
X680118Y250000D02*
X801968D01*
X738189Y177773D02*
X756398D01*
X863238Y223819D02*
X870437D01*
X863238Y213819D02*
X870350D01*
D13*
X452638Y21496D02*
X458386Y15748D01*
X467520D01*
X452638Y31496D02*
X461102Y39961D01*
X466535D01*
X439978Y106907D02*
X639764D01*
X753937D01*
X626789Y92520D02*
X628150Y91159D01*
X527559Y92520D02*
X626789D01*
X498032Y155512D02*
X612835D01*
X663386Y343504D02*
Y349840D01*
X659880Y353346D02*
X663386Y349840D01*
X578346Y353346D02*
X659880D01*
X571850Y346850D02*
X578346Y353346D01*
X522360Y183349D02*
X522476Y183464D01*
X261024Y143307D02*
X261146Y143185D01*
X414527D02*
X417323Y145980D01*
X261146Y143185D02*
X414527D01*
X297638Y445276D02*
X298327Y445965D01*
X297638Y443307D02*
Y445276D01*
X300886Y447222D02*
X301575Y446533D01*
Y443307D02*
Y446533D01*
X300886Y447222D02*
Y451476D01*
X305217Y443405D02*
X306004Y444193D01*
Y451476D01*
X225984Y160752D02*
X422034Y160752D01*
X222835Y148425D02*
X438742D01*
X237008Y153272D02*
X264961D01*
X438742Y148425D02*
X438859Y148308D01*
X439173Y148622D01*
X377046Y140945D02*
X416224D01*
X371534Y135433D02*
X377046Y140945D01*
X366535Y135433D02*
X371534D01*
X364567Y137402D02*
X366535Y135433D01*
X236141Y137402D02*
X364567D01*
X231339Y132599D02*
X236141Y137402D01*
X416224Y140945D02*
X421260Y145980D01*
X405748Y133465D02*
Y137127D01*
X404731Y129921D02*
X417046D01*
X401581Y133071D02*
X404731Y129921D01*
X241339Y132599D02*
X241810Y133071D01*
X264961D01*
X372047Y155512D02*
X433071D01*
X422034Y160752D02*
X423307Y162025D01*
X472638Y31693D02*
X477362Y36417D01*
X472638Y31496D02*
Y31693D01*
X477362Y36417D02*
X506890D01*
X399508Y399508D02*
X405669D01*
X452331Y142520D02*
X539370D01*
X448425Y138614D02*
X452331Y142520D01*
X456693Y139370D02*
X506299D01*
X455118Y144488D02*
X729528D01*
X735402Y138614D01*
X495385Y152865D02*
X498032Y155512D01*
X412205Y172047D02*
X413779Y173622D01*
X397754Y172047D02*
X412205D01*
X394094Y175706D02*
X397754Y172047D01*
X382874Y158465D02*
X433781D01*
X506299Y139370D02*
X512598Y133071D01*
X522360Y183480D02*
X522460D01*
X522476Y183464D01*
X462992Y169685D02*
X509842D01*
X465551Y167323D02*
X512638D01*
X465551Y167323D02*
X465551Y167323D01*
X757957Y145980D02*
X765748Y138189D01*
X749130Y145980D02*
X757957D01*
X741764Y138614D02*
X749130Y145980D01*
X735402Y138614D02*
X741764D01*
X765748Y138189D02*
X799213D01*
X457736Y147638D02*
X472441D01*
X472490Y147589D02*
X480413Y155512D01*
X413779Y173622D02*
X416535D01*
X418110Y172047D01*
X468306D01*
X473424Y177165D01*
X483268Y152865D02*
X495385D01*
X439978Y169291D02*
X453542D01*
X515945Y122655D02*
X741946D01*
X515158Y160433D02*
X515354Y160630D01*
X437795Y160433D02*
X515158D01*
X470627Y213326D02*
X483477D01*
X467316Y216637D02*
X470627Y213326D01*
X470495Y210630D02*
X487402D01*
X466775Y214350D02*
X470495Y210630D01*
X435039Y151575D02*
Y153543D01*
X433071Y155512D02*
X435039Y153543D01*
X431925Y153272D02*
X432331Y152865D01*
X264961Y153272D02*
X431925Y153272D01*
X436734Y155512D02*
X469316D01*
X433781Y158465D02*
X436734Y155512D01*
X449156Y150591D02*
X462598D01*
X436361Y137795D02*
X449156Y150591D01*
X424920Y137795D02*
X436361D01*
X417046Y129921D02*
X424920Y137795D01*
X264961Y133071D02*
X401581Y133071D01*
X469316Y155512D02*
X471284Y153543D01*
X480413Y146653D02*
X527559D01*
X530077Y149171D02*
X530512Y148736D01*
X482638Y149171D02*
X530077D01*
X616795Y113466D02*
X618110Y114781D01*
X530512Y113466D02*
X616795D01*
X472441Y147638D02*
X472490Y147589D01*
X475197Y186024D02*
X572835D01*
X460467Y165323D02*
X562567D01*
X469758Y162598D02*
X494095D01*
X669291Y128622D02*
Y133839D01*
X405748Y118898D02*
Y124097D01*
X406929Y125278D01*
X405748Y137127D02*
X406299Y137678D01*
X412934Y125178D02*
X419015D01*
X401181Y98639D02*
X737761D01*
X737975Y98425D01*
X738189Y98639D01*
X412835Y125278D02*
X412934Y125178D01*
X562567Y165323D02*
X562598Y165354D01*
X460042Y165748D02*
X460467Y165323D01*
X480413Y155512D02*
X490748D01*
X483537Y213386D02*
X489764D01*
X483477Y213326D02*
X483537Y213386D01*
X462376Y123228D02*
X510630D01*
X513437Y120421D02*
X517717D01*
X510630Y123228D02*
X513437Y120421D01*
X769077Y129921D02*
X769685Y130529D01*
X749213Y129921D02*
X769077D01*
X741946Y122655D02*
X749213Y129921D01*
X726002Y158465D02*
X738189Y146277D01*
X462376Y123228D02*
X462534Y123071D01*
X746440Y201772D02*
X801181D01*
X385869Y41339D02*
X437008D01*
X382638Y38107D02*
X385869Y41339D01*
X382638Y31496D02*
Y38107D01*
X472638Y21496D02*
X478090Y16043D01*
X806988D01*
X628150Y91159D02*
X753937D01*
X295768Y446850D02*
Y451476D01*
X293799Y444882D02*
X295768Y446850D01*
X291339Y444882D02*
X293799D01*
X465731Y190261D02*
X582741D01*
X462804Y192913D02*
X592227D01*
X475197Y186024D02*
X475197Y186024D01*
X735311Y101911D02*
X738189Y99033D01*
X618110Y114781D02*
X738189D01*
X753937Y185647D02*
X799204D01*
X330709Y214350D02*
X466775D01*
X327858Y216637D02*
X467316D01*
X327756Y216535D02*
X327858Y216637D01*
X442638Y158465D02*
X726002Y158465D01*
X371778Y406988D02*
X379429D01*
X371654Y407113D02*
X371778Y406988D01*
X738189Y193521D02*
X746440Y201772D01*
X728404Y243053D02*
X730905Y240551D01*
X738189D01*
X721399Y243053D02*
X728404D01*
X719488Y241142D02*
X721399Y243053D01*
X671260Y241142D02*
X719488D01*
X654051Y416339D02*
X665862D01*
X298327Y451476D02*
Y453445D01*
Y445965D02*
Y451476D01*
X300886D02*
Y453445D01*
X301429Y443307D02*
X301575D01*
D14*
X412875Y137008D02*
X418898D01*
X449605Y185826D02*
Y190353D01*
X453937Y189961D02*
X460534D01*
X453937D02*
X455315Y191339D01*
X448622D02*
X449606Y190354D01*
X412205Y137678D02*
X412875Y137008D01*
X449605Y190353D02*
X449606Y190354D01*
X870437Y223819D02*
X872047Y222209D01*
D16*
X812237Y144521D02*
X860040D01*
X805118Y137402D02*
X812237Y144521D01*
X805118Y105315D02*
Y137402D01*
X860040Y144521D02*
X863189Y141372D01*
X798836Y99033D02*
X805118Y105315D01*
X863189Y128740D02*
Y141372D01*
X769685Y99033D02*
X798836D01*
D39*
X872047Y222209D02*
D03*
Y215516D02*
D03*
D43*
X669291Y128622D02*
D03*
Y122520D02*
D03*
D52*
X454724Y191240D02*
D03*
X448819D02*
D03*
X406299Y137678D02*
D03*
X412205D02*
D03*
X406929Y125278D02*
D03*
X412835D02*
D03*
D119*
X432949Y189152D02*
X437008Y185092D01*
X398994Y189152D02*
X432949D01*
X437008Y184055D02*
Y185092D01*
X469797Y180526D02*
X473045D01*
X473368Y180849D02*
X526345D01*
X473045Y180526D02*
X473368Y180849D01*
X526345D02*
X526476Y180980D01*
X469758Y180565D02*
X469797Y180526D01*
Y180417D02*
Y180526D01*
X464813Y180417D02*
X469797D01*
X389494Y179390D02*
X463786D01*
X464813Y180417D01*
X388963Y179921D02*
X389494Y179390D01*
X387795Y179921D02*
X388963D01*
X522228Y183349D02*
X522360Y183480D01*
X472333Y183349D02*
X522228D01*
X472055Y183071D02*
X472333Y183349D01*
X309842Y73228D02*
X709055D01*
X312067Y75728D02*
X707896D01*
X711763Y77537D02*
X712563Y76737D01*
X711103Y206220D02*
X712363Y207480D01*
X311417Y76378D02*
X312067Y75728D01*
X712563Y76737D02*
Y76737D01*
X712563D02*
X712563D01*
X713583Y77756D01*
X709497Y77537D02*
X711763D01*
X707896Y75936D02*
X709497Y77537D01*
X707896Y75728D02*
Y75936D01*
X709055Y73228D02*
X710630Y74803D01*
X307480Y75590D02*
X309842Y73228D01*
X467323Y183071D02*
X472055D01*
X466740Y186024D02*
X469758D01*
X308071Y167323D02*
X308602Y167854D01*
X429390D01*
X434055Y163189D01*
X428167Y165354D02*
X431496Y162025D01*
X310555Y165354D02*
X428167D01*
X778253Y207989D02*
X779528D01*
X776979Y206715D02*
X778253Y207989D01*
X774388Y206715D02*
X776979D01*
X773760Y207343D02*
X774388Y206715D01*
X712363Y207480D02*
X713000D01*
X713138Y207343D02*
X773760D01*
X713000Y207480D02*
X713138Y207343D01*
X710630Y206693D02*
X711103Y206220D01*
X714173Y209842D02*
X775683D01*
X712598Y211417D02*
X714173Y209842D01*
X390529Y181890D02*
X462606D01*
X439809Y185826D02*
X439978D01*
X435357Y190278D02*
X439809Y185826D01*
X435357Y190278D02*
X435357D01*
X433984Y191652D02*
X435357Y190278D01*
X396457Y191652D02*
X433984D01*
X398819Y188976D02*
X398994Y189152D01*
X522360Y183349D02*
Y183480D01*
X462606Y181890D02*
X466740Y186024D01*
D128*
X653386Y343504D02*
D03*
X663386D02*
D03*
X314134Y31457D02*
D03*
X304134D02*
D03*
X602835Y31497D02*
D03*
Y21496D02*
D03*
X612835Y31497D02*
D03*
Y21496D02*
D03*
X622834Y31497D02*
D03*
Y21496D02*
D03*
X632835Y31497D02*
D03*
Y21497D02*
D03*
X592835Y21496D02*
D03*
Y31497D02*
D03*
X582834Y31496D02*
D03*
Y21496D02*
D03*
X562835D02*
D03*
Y31497D02*
D03*
X572835Y21496D02*
D03*
Y31496D02*
D03*
X885827Y147480D02*
D03*
Y157480D02*
D03*
X462638Y21496D02*
D03*
Y31496D02*
D03*
X522638D02*
D03*
X512638D02*
D03*
X502638D02*
D03*
X492638D02*
D03*
X482638D02*
D03*
X472638D02*
D03*
X442638D02*
D03*
X432638D02*
D03*
X422638D02*
D03*
X402638D02*
D03*
X392638D02*
D03*
X382638D02*
D03*
X522638Y21496D02*
D03*
X512638D02*
D03*
X502638D02*
D03*
X492638D02*
D03*
X482638D02*
D03*
X472638D02*
D03*
X442638D02*
D03*
X432638D02*
D03*
X422638D02*
D03*
X412638D02*
D03*
X392638D02*
D03*
X382638D02*
D03*
X452638Y31496D02*
D03*
Y21496D02*
D03*
X412638Y31496D02*
D03*
X402638Y21496D02*
D03*
X241339Y142599D02*
D03*
Y132599D02*
D03*
Y122599D02*
D03*
Y112600D02*
D03*
X231339D02*
D03*
Y122599D02*
D03*
Y132599D02*
D03*
Y142599D02*
D03*
X485827Y237402D02*
D03*
X475827D02*
D03*
D129*
X885827Y452756D02*
D03*
Y19685D02*
D03*
X19685Y452756D02*
D03*
Y19685D02*
D03*
D130*
X863189Y78740D02*
D03*
X893110Y68740D02*
D03*
X863189Y128740D02*
D03*
X893110D02*
D03*
X597555Y411522D02*
D03*
X627477Y401522D02*
D03*
X597555Y461522D02*
D03*
X627477D02*
D03*
X551296Y411522D02*
D03*
X581217Y401522D02*
D03*
X551296Y461522D02*
D03*
X581217D02*
D03*
D131*
X863238Y203819D02*
D03*
Y213819D02*
D03*
Y223819D02*
D03*
D132*
Y233819D02*
D03*
D133*
X725197Y39191D02*
D03*
X796457Y45096D02*
D03*
X725197Y237616D02*
D03*
X796457Y231710D02*
D03*
X61811Y298327D02*
D03*
X42323D02*
D03*
Y264862D02*
D03*
X20669Y298327D02*
D03*
D134*
X738189Y83285D02*
D03*
Y99033D02*
D03*
Y114781D02*
D03*
Y130529D02*
D03*
Y146277D02*
D03*
Y162025D02*
D03*
Y177773D02*
D03*
Y193521D02*
D03*
X753937Y91159D02*
D03*
Y106907D02*
D03*
Y122655D02*
D03*
Y138403D02*
D03*
Y154151D02*
D03*
Y169899D02*
D03*
Y185647D02*
D03*
X769685Y83285D02*
D03*
Y99033D02*
D03*
Y114781D02*
D03*
Y130529D02*
D03*
Y146277D02*
D03*
Y162025D02*
D03*
Y177773D02*
D03*
Y193521D02*
D03*
D135*
X466535Y39961D02*
D03*
X467520Y15748D02*
D03*
X524691Y468062D02*
D03*
X498966Y468219D02*
D03*
X405748Y133465D02*
D03*
X446850Y89366D02*
D03*
Y69173D02*
D03*
Y79269D02*
D03*
X382874Y158465D02*
D03*
X405748Y118898D02*
D03*
X418898Y125146D02*
D03*
X823819Y238189D02*
D03*
Y226378D02*
D03*
Y232283D02*
D03*
X818898Y235236D02*
D03*
Y229331D02*
D03*
Y223425D02*
D03*
X869734Y244094D02*
D03*
X66771Y46990D02*
D03*
X57519D02*
D03*
X66771Y61754D02*
D03*
X57519D02*
D03*
X62008Y54864D02*
D03*
X53128Y54864D02*
D03*
X214469Y29685D02*
D03*
X215555Y21654D02*
D03*
X110500Y94371D02*
D03*
Y88466D02*
D03*
X122351Y94397D02*
D03*
Y88269D02*
D03*
X134843Y94397D02*
D03*
Y88269D02*
D03*
X146043Y94397D02*
D03*
X146653Y88269D02*
D03*
X98425Y88466D02*
D03*
X100394Y182087D02*
D03*
X148622Y181890D02*
D03*
X148012Y188018D02*
D03*
X136811Y181890D02*
D03*
Y188018D02*
D03*
X124320Y181890D02*
D03*
Y188018D02*
D03*
X112468Y182087D02*
D03*
Y187992D02*
D03*
X607874Y98639D02*
D03*
X94587Y241929D02*
D03*
X128248Y245984D02*
D03*
X127165Y152363D02*
D03*
X93504Y148308D02*
D03*
X321915Y395669D02*
D03*
X295768Y405512D02*
D03*
X300866Y407264D02*
D03*
X295768Y415354D02*
D03*
X313366Y414370D02*
D03*
X297638Y443307D02*
D03*
X301575D02*
D03*
D136*
X639764Y106907D02*
D03*
X612835Y155512D02*
D03*
X305217Y443405D02*
D03*
X293099Y106812D02*
D03*
X418898Y137008D02*
D03*
X306693Y105118D02*
D03*
X443456Y174135D02*
D03*
X453937Y185433D02*
D03*
X449605Y185826D02*
D03*
X437008Y184055D02*
D03*
X544882Y142126D02*
D03*
X539370Y142520D02*
D03*
X546063Y152865D02*
D03*
X311805Y105060D02*
D03*
X434055Y163189D02*
D03*
X431496Y162025D02*
D03*
X308071Y167323D02*
D03*
X310555Y165354D02*
D03*
X456693Y139370D02*
D03*
X439173Y200787D02*
D03*
X439978Y185826D02*
D03*
X505905Y151575D02*
D03*
X495079Y131986D02*
D03*
X509842Y169685D02*
D03*
X512638Y167323D02*
D03*
X490748Y136162D02*
D03*
X448425Y138614D02*
D03*
X477165Y178347D02*
D03*
X396457Y191652D02*
D03*
X398819Y188976D02*
D03*
X415354Y187008D02*
D03*
X460534Y189961D02*
D03*
X459646Y196850D02*
D03*
X416339Y163189D02*
D03*
X499981Y152147D02*
D03*
X453542Y169291D02*
D03*
X439978D02*
D03*
X442638Y158465D02*
D03*
X437795Y160433D02*
D03*
X431692Y209867D02*
D03*
X430210Y176823D02*
D03*
X423307Y162025D02*
D03*
X469488Y112205D02*
D03*
X465551Y116273D02*
D03*
X463542Y162872D02*
D03*
X487713Y174440D02*
D03*
X466980Y150591D02*
D03*
X472441Y131986D02*
D03*
X476674Y128010D02*
D03*
X469764Y136162D02*
D03*
X465551Y126435D02*
D03*
X435039Y151575D02*
D03*
X471284Y153543D02*
D03*
X530512Y148736D02*
D03*
X527559Y146653D02*
D03*
X480413D02*
D03*
X482638Y149171D02*
D03*
X527559Y92520D02*
D03*
X530512Y113466D02*
D03*
X455118Y144488D02*
D03*
X457736Y147638D02*
D03*
X410825Y174605D02*
D03*
X415354Y170866D02*
D03*
X420394Y198879D02*
D03*
X424409Y130709D02*
D03*
X426753Y134252D02*
D03*
X435827Y119685D02*
D03*
X439280Y123228D02*
D03*
X669291Y133839D02*
D03*
X439173Y148622D02*
D03*
X401181Y98639D02*
D03*
X469758Y162598D02*
D03*
X494095D02*
D03*
X490748Y155512D02*
D03*
X483268Y152865D02*
D03*
X562598Y165354D02*
D03*
X460042Y165748D02*
D03*
X462992Y169685D02*
D03*
X465551Y167323D02*
D03*
X487402Y210630D02*
D03*
X489764Y213386D02*
D03*
X512598Y133071D02*
D03*
X799213Y138189D02*
D03*
X462534Y123071D02*
D03*
X517717Y120421D02*
D03*
X439978Y106907D02*
D03*
X421260Y145980D02*
D03*
X277461Y385925D02*
D03*
X247047Y395177D02*
D03*
X353346Y450787D02*
D03*
X267520Y433268D02*
D03*
X278543Y437992D02*
D03*
X297638Y470472D02*
D03*
X291339Y444882D02*
D03*
X272638Y450787D02*
D03*
X336614D02*
D03*
X582741Y190261D02*
D03*
X465731D02*
D03*
X592227Y192913D02*
D03*
X462804D02*
D03*
X475197Y186024D02*
D03*
X572835Y186024D02*
D03*
X618110Y114781D02*
D03*
X628150Y91159D02*
D03*
X799204Y185647D02*
D03*
X327756Y216535D02*
D03*
X330709Y214350D02*
D03*
X417323Y145980D02*
D03*
X426863Y143870D02*
D03*
X432331Y152865D02*
D03*
X428740Y141729D02*
D03*
X424803Y146063D02*
D03*
X293099Y91457D02*
D03*
X316760Y83858D02*
D03*
X241339Y47638D02*
D03*
X241240Y39191D02*
D03*
D137*
X636041Y380971D02*
D03*
X650591Y388880D02*
D03*
Y392782D02*
D03*
X571850Y346850D02*
D03*
X591831Y341535D02*
D03*
X560407D02*
D03*
X377953Y6693D02*
D03*
X407480D02*
D03*
X416929D02*
D03*
X557087D02*
D03*
X597555D02*
D03*
X307087Y18701D02*
D03*
X864543Y47244D02*
D03*
X225984Y160630D02*
D03*
X222835Y148425D02*
D03*
X237008Y153272D02*
D03*
X261024Y143307D02*
D03*
X859631Y291339D02*
D03*
X311417Y76378D02*
D03*
X307480Y75590D02*
D03*
X780960Y392082D02*
D03*
X808964Y381496D02*
D03*
X795184D02*
D03*
X834019Y380971D02*
D03*
X820239D02*
D03*
X856748Y386526D02*
D03*
X842968D02*
D03*
X816233Y362904D02*
D03*
X802041Y374715D02*
D03*
X810167Y369160D02*
D03*
X815821Y374715D02*
D03*
X816645Y351093D02*
D03*
X821176Y292738D02*
D03*
X842144Y362205D02*
D03*
X827953Y374016D02*
D03*
X828777Y362205D02*
D03*
X836078Y368460D02*
D03*
X841732Y374016D02*
D03*
X842968Y338583D02*
D03*
X828777Y350394D02*
D03*
X829601Y338583D02*
D03*
X836902Y344838D02*
D03*
X842556Y350394D02*
D03*
X835666Y356649D02*
D03*
X843792Y314961D02*
D03*
X829601Y326772D02*
D03*
X830424Y314961D02*
D03*
X837726Y321216D02*
D03*
X843380Y326772D02*
D03*
X836490Y333027D02*
D03*
X847087Y292038D02*
D03*
X830424Y303150D02*
D03*
X833720Y292038D02*
D03*
X838550Y297594D02*
D03*
X844204Y303150D02*
D03*
X837314Y309405D02*
D03*
X864049Y369160D02*
D03*
X849858Y380971D02*
D03*
X850682Y369160D02*
D03*
X857983Y375415D02*
D03*
X863637Y380971D02*
D03*
X864873Y345537D02*
D03*
X850682Y357348D02*
D03*
X851506Y345537D02*
D03*
X858807Y351793D02*
D03*
X864461Y357348D02*
D03*
X857572Y363604D02*
D03*
X865697Y321916D02*
D03*
X851506Y333727D02*
D03*
X852330Y321916D02*
D03*
X859631Y328171D02*
D03*
X865285Y333727D02*
D03*
X858395Y339982D02*
D03*
X866521Y298293D02*
D03*
X852330Y310104D02*
D03*
X853153Y298293D02*
D03*
X860455Y304549D02*
D03*
X866109Y310104D02*
D03*
X859219Y316360D02*
D03*
X850824Y416929D02*
D03*
X815139Y410674D02*
D03*
X815963Y387052D02*
D03*
X815409Y398337D02*
D03*
X864603Y416929D02*
D03*
X865427Y393307D02*
D03*
X864873Y404593D02*
D03*
X828777Y410148D02*
D03*
X821063Y392082D02*
D03*
X827953Y385827D02*
D03*
Y397638D02*
D03*
X821475Y403893D02*
D03*
X801556Y410148D02*
D03*
X753937Y393307D02*
D03*
X775591Y398031D02*
D03*
X774070Y410148D02*
D03*
X768005Y403893D02*
D03*
X782196D02*
D03*
X850270Y428215D02*
D03*
X864049D02*
D03*
X877829D02*
D03*
X842968Y421959D02*
D03*
X856748D02*
D03*
X895728Y310104D02*
D03*
X881948D02*
D03*
X888838Y303849D02*
D03*
X883184Y298293D02*
D03*
X875882Y292038D02*
D03*
X875058Y303849D02*
D03*
X889250Y292038D02*
D03*
X896282Y298819D02*
D03*
X894904Y333727D02*
D03*
X881124D02*
D03*
X888014Y327471D02*
D03*
X882360Y321916D02*
D03*
X875058Y315660D02*
D03*
X874235Y327471D02*
D03*
X888426Y315660D02*
D03*
X895458Y322441D02*
D03*
X894080Y357348D02*
D03*
X880301D02*
D03*
X887190Y351093D02*
D03*
X881536Y345537D02*
D03*
X874235Y339282D02*
D03*
X873411Y351093D02*
D03*
X887602Y339282D02*
D03*
X894634Y346063D02*
D03*
X893256Y380971D02*
D03*
X879477D02*
D03*
X886366Y374715D02*
D03*
X880712Y369160D02*
D03*
X873411Y362904D02*
D03*
X872587Y374715D02*
D03*
X886778Y362904D02*
D03*
X893810Y369685D02*
D03*
X892432Y404593D02*
D03*
X878653D02*
D03*
X885542Y398337D02*
D03*
X879889Y392782D02*
D03*
X872587Y386526D02*
D03*
X871763Y398337D02*
D03*
X885954Y386526D02*
D03*
X892986Y393307D02*
D03*
X891608Y428215D02*
D03*
X884719Y421959D02*
D03*
X879065Y416404D02*
D03*
X871763Y410148D02*
D03*
X870939Y421959D02*
D03*
X885131Y410148D02*
D03*
X892162Y416929D02*
D03*
X856336Y410848D02*
D03*
X842556D02*
D03*
X849446Y404593D02*
D03*
X843792Y399037D02*
D03*
X836490Y392782D02*
D03*
X835666Y404593D02*
D03*
X849858Y392782D02*
D03*
X856890Y399562D02*
D03*
X808519Y404593D02*
D03*
X794740D02*
D03*
X801630Y398337D02*
D03*
X795976Y392782D02*
D03*
X788674Y386526D02*
D03*
X787850Y398337D02*
D03*
X802041Y386526D02*
D03*
X809073Y393307D02*
D03*
X744864Y409449D02*
D03*
X759879D02*
D03*
X768417Y392782D02*
D03*
X754225Y403893D02*
D03*
X761527Y398337D02*
D03*
X794882Y428740D02*
D03*
X794740Y416404D02*
D03*
X787850Y410148D02*
D03*
Y421959D02*
D03*
X814997Y433770D02*
D03*
X759879D02*
D03*
X773659D02*
D03*
X746100D02*
D03*
X774482Y421959D02*
D03*
X760291D02*
D03*
X753401Y415704D02*
D03*
X767181D02*
D03*
X753401Y427515D02*
D03*
X767181D02*
D03*
X781784Y428215D02*
D03*
X781372Y416404D02*
D03*
X730672Y397638D02*
D03*
X716893D02*
D03*
X703113D02*
D03*
X744864Y398337D02*
D03*
X737974Y392082D02*
D03*
X716481Y385827D02*
D03*
X702701D02*
D03*
X709591Y391383D02*
D03*
X723370D02*
D03*
X731084Y421260D02*
D03*
X717305D02*
D03*
X703525D02*
D03*
X745276Y421959D02*
D03*
X737974Y403893D02*
D03*
X738386Y415704D02*
D03*
X731084Y409449D02*
D03*
X716893D02*
D03*
X703113D02*
D03*
X710003Y403194D02*
D03*
X723782D02*
D03*
X710003Y415004D02*
D03*
X723782D02*
D03*
X724194Y438627D02*
D03*
X710415D02*
D03*
X724194Y426816D02*
D03*
X710415D02*
D03*
X703525Y433071D02*
D03*
X717305D02*
D03*
X731496D02*
D03*
X738798Y439326D02*
D03*
X738386Y427515D02*
D03*
X821475D02*
D03*
X807695D02*
D03*
X821475Y415704D02*
D03*
X807695D02*
D03*
X800806Y421959D02*
D03*
X814585D02*
D03*
X828777D02*
D03*
X836078Y428215D02*
D03*
X835666Y416404D02*
D03*
X822299Y440026D02*
D03*
X829189Y433770D02*
D03*
X864049Y440026D02*
D03*
X850270D02*
D03*
X836490D02*
D03*
X870939Y433770D02*
D03*
X857160D02*
D03*
X843380D02*
D03*
X829189Y445581D02*
D03*
X842968D02*
D03*
X856748D02*
D03*
X822299Y451837D02*
D03*
X836078D02*
D03*
X849858D02*
D03*
X863637D02*
D03*
X814997Y445581D02*
D03*
X800806Y457393D02*
D03*
X787026D02*
D03*
X815409Y458092D02*
D03*
X842556D02*
D03*
X828777D02*
D03*
X778900Y462948D02*
D03*
X792680D02*
D03*
X751753D02*
D03*
X765533D02*
D03*
X801218Y445581D02*
D03*
X787438D02*
D03*
X794328Y451837D02*
D03*
X808107D02*
D03*
X801218Y433770D02*
D03*
X787438D02*
D03*
X780548Y440026D02*
D03*
X794328D02*
D03*
X808519D02*
D03*
X780960Y451837D02*
D03*
X766357Y451137D02*
D03*
X752577D02*
D03*
X759467Y457393D02*
D03*
X773247D02*
D03*
X766357Y439326D02*
D03*
X752577D02*
D03*
X745687Y445581D02*
D03*
X759467D02*
D03*
X773659D02*
D03*
X746100Y457393D02*
D03*
X711239Y462948D02*
D03*
X703937Y456693D02*
D03*
X738798Y451137D02*
D03*
X724606D02*
D03*
X710827D02*
D03*
X703937Y444882D02*
D03*
X717717D02*
D03*
X731496D02*
D03*
X738386Y462948D02*
D03*
X724606D02*
D03*
X717717Y456693D02*
D03*
X731496D02*
D03*
X559726Y386025D02*
D03*
X590041Y386593D02*
D03*
X858268Y13145D02*
D03*
X865158Y6693D02*
D03*
X844488Y13145D02*
D03*
X851378Y6693D02*
D03*
X830709Y13145D02*
D03*
X837598Y6693D02*
D03*
X170472Y63386D02*
D03*
X225590Y57874D02*
D03*
X779528Y207989D02*
D03*
X710630Y74803D02*
D03*
Y206693D02*
D03*
X775683Y209842D02*
D03*
X712598Y211417D02*
D03*
X713583Y77756D02*
D03*
X873032Y84646D02*
D03*
X887713D02*
D03*
X892457Y78504D02*
D03*
X880906Y78719D02*
D03*
X853347Y88269D02*
D03*
X816109Y57834D02*
D03*
Y69173D02*
D03*
X828822D02*
D03*
X822917Y63246D02*
D03*
X843504Y69173D02*
D03*
X849409Y63246D02*
D03*
X836696D02*
D03*
X816109Y83313D02*
D03*
X828822D02*
D03*
X822917Y77386D02*
D03*
X843504Y83313D02*
D03*
X849409Y77386D02*
D03*
X836696D02*
D03*
X881083Y91139D02*
D03*
X892635Y90924D02*
D03*
X886729Y96850D02*
D03*
X866142Y90924D02*
D03*
X872047Y96850D02*
D03*
X859334D02*
D03*
X834646Y95472D02*
D03*
X812992Y239961D02*
D03*
X809055Y237008D02*
D03*
X812992Y169685D02*
D03*
X809055Y153543D02*
D03*
X801180Y36417D02*
D03*
Y24606D02*
D03*
X801181Y201772D02*
D03*
X141732Y26575D02*
D03*
X155512D02*
D03*
X169291D02*
D03*
X148622Y34449D02*
D03*
X162402D02*
D03*
X176181D02*
D03*
X362205D02*
D03*
X348425D02*
D03*
X334646D02*
D03*
X279528D02*
D03*
X265748D02*
D03*
X369094Y26575D02*
D03*
X355315D02*
D03*
X341535D02*
D03*
X327756D02*
D03*
X286417D02*
D03*
X272638D02*
D03*
X362205Y18701D02*
D03*
X348425D02*
D03*
X334646D02*
D03*
X320866D02*
D03*
X293307D02*
D03*
X279528D02*
D03*
X265748D02*
D03*
X810039Y30512D02*
D03*
X176181Y6693D02*
D03*
X107283D02*
D03*
X162401D02*
D03*
X148622D02*
D03*
X121063D02*
D03*
X134843D02*
D03*
X171161Y93945D02*
D03*
X203546Y137678D02*
D03*
X198625Y122057D02*
D03*
X203546Y126978D02*
D03*
X198625Y132757D02*
D03*
Y111352D02*
D03*
X203546Y116273D02*
D03*
X203346Y93081D02*
D03*
X186814Y111352D02*
D03*
X192720Y115730D02*
D03*
X192520Y92913D02*
D03*
X180709D02*
D03*
X192720Y126435D02*
D03*
X186614Y88160D02*
D03*
X198425D02*
D03*
X198625Y183264D02*
D03*
X186814D02*
D03*
X193898Y222025D02*
D03*
X180909Y188018D02*
D03*
X181198Y208268D02*
D03*
X192720Y188018D02*
D03*
X193898Y211320D02*
D03*
X187992Y206941D02*
D03*
X203546Y188185D02*
D03*
X204724Y211863D02*
D03*
X199803Y206941D02*
D03*
X56890Y142675D02*
D03*
X47047D02*
D03*
X35236Y135982D02*
D03*
Y142675D02*
D03*
Y149171D02*
D03*
X47047D02*
D03*
X56890D02*
D03*
X57087Y243110D02*
D03*
X47244D02*
D03*
X35433D02*
D03*
Y236614D02*
D03*
X258858Y6693D02*
D03*
X245079D02*
D03*
X272638D02*
D03*
X286417D02*
D03*
X300197D02*
D03*
X313976D02*
D03*
X327756D02*
D03*
X341535D02*
D03*
X355315D02*
D03*
X369094D02*
D03*
X427559D02*
D03*
X397342D02*
D03*
X387402D02*
D03*
X437402D02*
D03*
X447835D02*
D03*
X457480D02*
D03*
X468012D02*
D03*
X487205D02*
D03*
X497047D02*
D03*
X507874D02*
D03*
X517717D02*
D03*
X566929D02*
D03*
X548228D02*
D03*
X534449D02*
D03*
X577756D02*
D03*
X587598D02*
D03*
X607874D02*
D03*
X617618D02*
D03*
X626968D02*
D03*
X644685D02*
D03*
X658465D02*
D03*
X672244D02*
D03*
X796260Y30512D02*
D03*
X782480D02*
D03*
X789370Y36767D02*
D03*
X817057D02*
D03*
X768701Y30512D02*
D03*
X754921D02*
D03*
X741142D02*
D03*
X748032Y36767D02*
D03*
X761811D02*
D03*
X776003D02*
D03*
X823819Y6693D02*
D03*
X810039D02*
D03*
X816929Y13145D02*
D03*
X796260Y18701D02*
D03*
X782480D02*
D03*
X789370Y24956D02*
D03*
X817057D02*
D03*
X796260Y6693D02*
D03*
X782480D02*
D03*
X768701D02*
D03*
X775591Y13145D02*
D03*
X789370D02*
D03*
X768701Y18701D02*
D03*
X754921D02*
D03*
X741142D02*
D03*
X748032Y24956D02*
D03*
X761811D02*
D03*
X776003D02*
D03*
X754921Y6693D02*
D03*
X741142D02*
D03*
X727362D02*
D03*
X734252Y13145D02*
D03*
X748032D02*
D03*
X762223D02*
D03*
X727362Y18701D02*
D03*
X713583D02*
D03*
X699803D02*
D03*
X706693Y24956D02*
D03*
X720472D02*
D03*
X734664D02*
D03*
X720884Y13145D02*
D03*
X706693D02*
D03*
X692913D02*
D03*
X686024Y6693D02*
D03*
X699803D02*
D03*
X713583D02*
D03*
X806988Y16043D02*
D03*
X378642Y399633D02*
D03*
X389075Y396562D02*
D03*
X389173Y386070D02*
D03*
X391732Y468504D02*
D03*
X386890D02*
D03*
X381890D02*
D03*
X372047D02*
D03*
X675000Y245734D02*
D03*
X675197Y364173D02*
D03*
X738189Y240551D02*
D03*
X818898Y249016D02*
D03*
X671260Y241142D02*
D03*
X684055Y381890D02*
D03*
X841535Y199803D02*
D03*
X680118Y250000D02*
D03*
Y367126D02*
D03*
X648146Y405512D02*
D03*
X686532Y415354D02*
D03*
X689485Y435039D02*
D03*
Y428738D02*
D03*
X665862Y416339D02*
D03*
X670784Y422244D02*
D03*
X654051Y416339D02*
D03*
X638303Y435039D02*
D03*
X645587D02*
D03*
X651886Y440945D02*
D03*
X636335Y429327D02*
D03*
Y422734D02*
D03*
X199803Y228346D02*
D03*
X180020Y112205D02*
D03*
X190751Y149859D02*
D03*
X183366Y132757D02*
D03*
X204724Y222568D02*
D03*
X199803Y217647D02*
D03*
X204724Y233268D02*
D03*
X184544Y228346D02*
D03*
X191929Y245449D02*
D03*
X224501Y403543D02*
D03*
X247047Y383858D02*
D03*
X321850Y375984D02*
D03*
X313976D02*
D03*
X305118D02*
D03*
X813976Y252953D02*
D03*
X818898Y264764D02*
D03*
Y256890D02*
D03*
X813976Y260827D02*
D03*
X864543Y64961D02*
D03*
X854130Y174605D02*
D03*
Y181298D02*
D03*
X63976Y96545D02*
D03*
X45276Y96792D02*
D03*
X35433Y229921D02*
D03*
X47244Y236614D02*
D03*
X57087D02*
D03*
X84646Y105060D02*
D03*
X84941Y198228D02*
D03*
X36417Y100197D02*
D03*
X31496Y105571D02*
D03*
X36417Y110571D02*
D03*
X31496Y115571D02*
D03*
Y125571D02*
D03*
X36417Y120571D02*
D03*
X36417Y214350D02*
D03*
X31496Y219350D02*
D03*
X46260Y190354D02*
D03*
X66142D02*
D03*
X31496Y209350D02*
D03*
X36417Y204350D02*
D03*
X31496Y199350D02*
D03*
X36417Y193976D02*
D03*
X81693Y6890D02*
D03*
X74803D02*
D03*
X66929D02*
D03*
X60039D02*
D03*
X53150D02*
D03*
X46260D02*
D03*
X74705Y53150D02*
D03*
X216535Y39191D02*
D03*
X225590Y52756D02*
D03*
X192913Y11811D02*
D03*
X163779Y204331D02*
D03*
X164272Y186713D02*
D03*
X170276Y47244D02*
D03*
X143012Y49016D02*
D03*
X241240Y29577D02*
D03*
X241339Y57874D02*
D03*
X227992Y9843D02*
D03*
X215555Y6693D02*
D03*
X201575D02*
D03*
X851364Y43110D02*
D03*
X851482Y36417D02*
D03*
X814961Y132874D02*
D03*
X814961Y123031D02*
D03*
Y113189D02*
D03*
Y103347D02*
D03*
X820866Y108268D02*
D03*
Y118110D02*
D03*
Y127953D02*
D03*
D138*
X469758Y180565D02*
D03*
X369094Y138583D02*
D03*
X378346Y145276D02*
D03*
X375590Y151181D02*
D03*
X372047Y155512D02*
D03*
X469758Y186024D02*
D03*
X506890Y36417D02*
D03*
X399508Y399508D02*
D03*
X522360Y183480D02*
D03*
X394094Y175706D02*
D03*
X515354Y160630D02*
D03*
X444882Y141732D02*
D03*
X526476Y180980D02*
D03*
X467323Y183071D02*
D03*
X473424Y177165D02*
D03*
X387795Y179921D02*
D03*
X515945Y122655D02*
D03*
X462598Y150591D02*
D03*
X437008Y41339D02*
D03*
X379429Y406988D02*
D03*
X405669Y399508D02*
D03*
X371654Y407113D02*
D03*
X390529Y181890D02*
D03*
X508661Y240551D02*
D03*
X477559Y218504D02*
D03*
X513386Y222441D02*
D03*
X519685Y221457D02*
D03*
X506299Y233071D02*
D03*
X66142Y109135D02*
D03*
X61811D02*
D03*
X66142Y113466D02*
D03*
X61811D02*
D03*
X66142Y117796D02*
D03*
X61811D02*
D03*
X67126Y202756D02*
D03*
X62795D02*
D03*
X67126Y207087D02*
D03*
X62795D02*
D03*
X67126Y211417D02*
D03*
X62795D02*
D03*
D139*
X315846Y462008D02*
D03*
X285925Y462008D02*
D03*
D140*
X305610D02*
D03*
X296161D02*
D03*
D141*
X313090Y451968D02*
D03*
X288681Y451968D02*
D03*
D142*
X303445Y451476D02*
D03*
X306004D02*
D03*
X295768D02*
D03*
X300886D02*
D03*
D143*
X298327D02*
D03*
M02*
